<svg xmlns="http://www.w3.org/2000/svg" xmlns:xlink="http://www.w3.org/1999/xlink" viewBox="0 0 97.368 99.061" height="374.403" width="368.005"><defs><pattern patternTransform="matrix(.13838 -.00734 .00528 .09958 37.773 211.205)" id="e" xlink:href="#a"/><pattern patternUnits="userSpaceOnUse" height="30.236" width="30.236" y="0" x="0" id="a"><path d="M-3.78 3.78l7.56-7.56M-3.78 34.016L34.016-3.78M26.457 34.016l7.559-7.56" stroke="#00075f" stroke-width=".945"/></pattern><pattern patternTransform="matrix(.03004 .1318 -.1017 .02318 37.973 260.365)" id="f" xlink:href="#b"/><pattern patternUnits="userSpaceOnUse" height="30.236" width="30.236" y="0" x="0" id="b"><path d="M-3.78 3.78l7.56-7.56M-3.78 34.016L34.016-3.78M26.457 34.016l7.559-7.56" stroke="#008638" stroke-width=".945"/></pattern><marker id="d" refX="0" refY="0" orient="auto" overflow="visible"><path d="M-4.616 0l6.92-4v8z" fill="#131516" fill-rule="evenodd" stroke="#131516" stroke-width="1.0664"/></marker><marker id="c" refX="0" refY="0" orient="auto" overflow="visible"><path d="M-4.616 0l6.92-4v8z" fill="#131516" fill-rule="evenodd" stroke="#131516" stroke-width="1.0664"/></marker></defs><g style="line-height:1.25" aria-label="Border area" font-weight="400" font-size="4.233" font-family="Open Sans" letter-spacing="0" word-spacing="0" fill="#131516" stroke-width=".265"><path style="-inkscape-font-specification:'Open Sans'" d="M.568 51.788h.853q.602 0 .87.18.27.18.27.568 0 .269-.152.445-.148.173-.436.225v.02q.689.119.689.724 0 .405-.275.633-.273.227-.765.227H.568zm.351 1.294h.579q.372 0 .535-.116.163-.118.163-.395 0-.254-.181-.365-.182-.114-.58-.114H.92zm0 .298v1.13h.63q.366 0 .55-.14.186-.143.186-.445 0-.28-.19-.413-.188-.132-.574-.132zM5.216 53.675q0 .554-.279.866-.279.31-.77.31-.304 0-.54-.142-.236-.143-.364-.41-.128-.266-.128-.624 0-.554.277-.862.277-.31.769-.31.475 0 .754.317.281.316.281.855zm-1.726 0q0 .434.174.662.174.227.51.227.338 0 .511-.225.176-.228.176-.664 0-.432-.176-.655-.173-.225-.514-.225-.337 0-.509.22-.172.222-.172.66zM6.85 52.503q.15 0 .27.025l-.047.318q-.14-.03-.248-.03-.275 0-.472.223-.194.223-.194.556v1.215h-.343v-2.265h.283l.04.42h.016q.126-.222.304-.342.178-.12.39-.12zM9.086 54.506h-.019q-.237.345-.71.345-.445 0-.693-.303-.246-.304-.246-.864t.248-.87q.248-.31.69-.31.461 0 .707.334h.027l-.014-.163-.009-.16v-.921h.343v3.216h-.279zm-.686.058q.351 0 .508-.19.16-.192.16-.618v-.072q0-.482-.162-.687-.159-.206-.51-.206-.302 0-.463.235-.16.234-.16.662 0 .434.16.655.159.221.467.221zM11.097 54.851q-.502 0-.794-.306-.289-.305-.289-.85 0-.547.269-.87.27-.322.725-.322.426 0 .674.281.248.28.248.738v.217h-1.56q.01.4.2.606.192.207.54.207.365 0 .723-.153v.306q-.182.078-.345.111-.161.035-.39.035zm-.093-2.06q-.273 0-.436.177-.161.178-.19.492h1.184q0-.324-.144-.496-.145-.173-.414-.173zM13.547 52.503q.15 0 .27.025l-.047.318q-.14-.03-.248-.03-.275 0-.471.223-.195.223-.195.556v1.215h-.343v-2.265h.283l.04.42h.016q.126-.222.304-.342.178-.12.39-.12zM16.734 54.81l-.068-.322h-.017q-.17.213-.339.289-.167.074-.42.074-.336 0-.528-.173-.19-.174-.19-.494 0-.687 1.097-.72l.384-.012v-.14q0-.267-.115-.393-.114-.128-.366-.128-.283 0-.64.173l-.106-.262q.167-.091.366-.143.2-.052.4-.052.406 0 .6.18.196.18.196.577v1.546zm-.775-.242q.32 0 .502-.175.184-.176.184-.492v-.205l-.343.014q-.41.015-.591.129-.18.111-.18.349 0 .186.112.283.113.097.316.097zM18.73 52.503q.152 0 .272.025l-.048.318q-.14-.03-.248-.03-.275 0-.471.223-.195.223-.195.556v1.215h-.343v-2.265h.284l.039.42h.016q.126-.222.304-.342.178-.12.39-.12zM20.382 54.851q-.502 0-.793-.306-.29-.305-.29-.85 0-.547.269-.87.27-.322.726-.322.425 0 .673.281.248.28.248.738v.217h-1.56q.01.4.2.606.193.207.54.207.366 0 .723-.153v.306q-.182.078-.345.111-.161.035-.39.035zm-.093-2.06q-.272 0-.436.177-.161.178-.19.492h1.185q0-.324-.145-.496-.145-.173-.414-.173zM23.192 54.81l-.069-.322h-.016q-.17.213-.34.289-.167.074-.419.074-.337 0-.529-.173-.19-.174-.19-.494 0-.687 1.097-.72l.385-.012v-.14q0-.267-.116-.393-.113-.128-.366-.128-.283 0-.64.173l-.106-.262q.168-.091.366-.143.2-.052.401-.052.405 0 .6.18.196.18.196.577v1.546zm-.776-.242q.32 0 .503-.175.184-.176.184-.492v-.205l-.343.014q-.41.015-.592.129-.18.111-.18.349 0 .186.112.283.114.097.316.097z"/></g><path d="M93.275 136.445l7.118 3.202" fill="#131516" stroke="#131516" stroke-width=".239" marker-start="url(#c)" transform="translate(-28.62 -88.185)"/><g style="line-height:1.25" aria-label="Border edge" font-weight="400" font-size="4.233" font-family="Open Sans" letter-spacing="0" word-spacing="0" fill="#131516" stroke-width=".265"><path style="-inkscape-font-specification:'Open Sans'" d="M73.512 52.409h.854q.601 0 .87.18t.269.568q0 .269-.151.444-.15.174-.436.226v.02q.688.118.688.724 0 .405-.275.632-.273.228-.765.228h-1.054zm.351 1.294h.58q.371 0 .535-.116.163-.118.163-.395 0-.254-.182-.366-.182-.113-.579-.113h-.517zm0 .297v1.131h.63q.367 0 .55-.14.187-.143.187-.445 0-.281-.19-.413Q74.85 54 74.465 54zM78.16 54.296q0 .554-.278.866-.28.31-.771.31-.304 0-.54-.142-.235-.143-.364-.41-.128-.266-.128-.624 0-.554.277-.862.277-.31.77-.31.475 0 .754.316.28.317.28.856zm-1.725 0q0 .434.173.661.174.228.511.228t.51-.225q.176-.228.176-.664 0-.432-.175-.655-.174-.226-.515-.226-.337 0-.509.222-.171.22-.171.659zM79.794 53.124q.15 0 .27.025l-.047.318q-.14-.03-.248-.03-.275 0-.471.222-.195.224-.195.556v1.216h-.343v-2.266h.283l.04.42h.016q.126-.221.304-.341.178-.12.39-.12zM82.03 55.127h-.018q-.238.345-.711.345-.445 0-.693-.304-.246-.304-.246-.864t.248-.87q.248-.31.69-.31.462 0 .708.335h.027l-.015-.163-.008-.16v-.922h.343v3.217h-.279zm-.686.058q.351 0 .509-.19.159-.193.159-.618v-.073q0-.481-.161-.686-.16-.207-.511-.207-.302 0-.463.236-.16.234-.16.661 0 .434.16.656.16.22.467.22zM84.042 55.472q-.503 0-.794-.306-.29-.306-.29-.85 0-.547.27-.87.27-.322.725-.322.426 0 .674.281.248.28.248.738v.217h-1.561q.01.399.2.606.193.206.54.206.366 0 .723-.153v.306q-.181.079-.345.112-.161.035-.39.035zm-.093-2.06q-.273 0-.437.177-.16.178-.19.492h1.185q0-.324-.145-.496-.145-.174-.413-.174zM86.491 53.124q.15 0 .27.025l-.047.318q-.14-.03-.248-.03-.275 0-.471.222-.194.224-.194.556v1.216h-.343v-2.266h.283l.04.42h.016q.126-.221.303-.341.178-.12.391-.12zM89.242 55.472q-.502 0-.793-.306-.29-.306-.29-.85 0-.547.269-.87.27-.322.725-.322.426 0 .674.281.248.28.248.738v.217h-1.56q.01.399.2.606.192.206.54.206.366 0 .723-.153v.306q-.182.079-.345.112-.161.035-.39.035zm-.093-2.06q-.273 0-.436.177-.161.178-.19.492h1.184q0-.324-.144-.496-.145-.174-.414-.174zM92.2 55.127h-.018q-.238.345-.711.345-.445 0-.693-.304-.246-.304-.246-.864t.248-.87q.248-.31.69-.31.462 0 .708.335h.026l-.014-.163-.008-.16v-.922h.343v3.217h-.279zm-.686.058q.351 0 .508-.19.16-.193.16-.618v-.073q0-.481-.162-.686-.159-.207-.51-.207-.302 0-.463.236-.16.234-.16.661 0 .434.16.656.159.22.467.22zM95.109 53.165v.217l-.42.05q.058.072.103.19.046.116.046.263 0 .332-.228.53-.227.2-.624.2-.101 0-.19-.017-.219.116-.219.291 0 .093.076.139.077.043.263.043h.401q.368 0 .564.155.199.155.199.45 0 .377-.302.573-.302.199-.88.199-.445 0-.687-.166-.24-.165-.24-.467 0-.206.133-.357.132-.151.372-.205-.087-.04-.147-.122-.058-.083-.058-.192 0-.124.066-.217t.209-.18q-.176-.072-.287-.246-.11-.174-.11-.397 0-.372.223-.572.224-.203.633-.203.178 0 .32.041zm-1.807 2.646q0 .184.155.28.155.094.444.094.432 0 .64-.13.208-.128.208-.35 0-.183-.114-.256-.113-.07-.428-.07h-.411q-.234 0-.364.112-.13.111-.13.32zm.186-1.92q0 .238.134.36.135.121.375.121.502 0 .502-.487 0-.51-.509-.51-.242 0-.372.13t-.13.386zM96.535 55.472q-.502 0-.794-.306-.29-.306-.29-.85 0-.547.27-.87.27-.322.725-.322.426 0 .674.281.248.28.248.738v.217h-1.56q.01.399.2.606.192.206.54.206.365 0 .723-.153v.306q-.182.079-.345.112-.162.035-.391.035zm-.093-2.06q-.273 0-.436.177-.161.178-.19.492H97q0-.324-.145-.496-.144-.174-.413-.174z"/></g><path d="M93.275 148.14l7.118-3.202" fill="#131516" stroke="#131516" stroke-width=".239" marker-start="url(#d)" transform="translate(-28.62 -88.185)"/><g style="line-height:1.25" aria-label="Border box" font-weight="400" font-size="4.233" font-family="Open Sans" letter-spacing="0" word-spacing="0" fill="#131516" stroke-width=".265"><path style="-inkscape-font-specification:'Open Sans'" d="M.568.194h.853q.602 0 .87.18.27.18.27.569 0 .268-.152.444-.148.174-.436.225v.021q.689.118.689.723 0 .406-.275.633-.273.227-.765.227H.568zm.351 1.294h.579q.372 0 .535-.115.163-.118.163-.395 0-.255-.181-.366-.182-.114-.58-.114H.92zm0 .298v1.13h.63q.366 0 .55-.14.186-.143.186-.444 0-.281-.19-.414-.188-.132-.574-.132zM5.216 2.082q0 .553-.279.866-.279.31-.77.31-.304 0-.54-.143-.236-.143-.364-.41-.128-.266-.128-.623 0-.554.277-.862.277-.31.769-.31.475 0 .754.316.281.316.281.856zm-1.726 0q0 .434.174.661.174.227.51.227.338 0 .511-.225.176-.227.176-.663 0-.432-.176-.656-.173-.225-.514-.225-.337 0-.509.221t-.172.66zM6.85.91q.15 0 .27.024l-.047.319q-.14-.031-.248-.031-.275 0-.472.223-.194.223-.194.556v1.215h-.343V.951h.283l.04.42h.016q.126-.222.304-.342.178-.12.39-.12zM9.086 2.912h-.019q-.237.346-.71.346-.445 0-.693-.304-.246-.304-.246-.864t.248-.87q.248-.31.69-.31.461 0 .707.334h.027l-.014-.163-.009-.16V0h.343v3.216h-.279zM8.4 2.97q.351 0 .508-.19.16-.192.16-.618V2.09q0-.482-.162-.686-.159-.207-.51-.207-.302 0-.463.235-.16.234-.16.662 0 .434.16.655.159.221.467.221zM11.097 3.258q-.502 0-.794-.306-.289-.306-.289-.85 0-.548.269-.87.27-.322.725-.322.426 0 .674.28.248.28.248.739v.217h-1.56q.01.399.2.605.192.207.54.207.365 0 .723-.153v.306q-.182.078-.345.112-.161.035-.39.035zm-.093-2.061q-.273 0-.436.178-.161.177-.19.492h1.184q0-.325-.144-.497-.145-.173-.414-.173zM13.547.91q.15 0 .27.024l-.047.319q-.14-.031-.248-.031-.275 0-.471.223-.195.223-.195.556v1.215h-.343V.951h.283l.04.42h.016q.126-.222.304-.342.178-.12.39-.12zM16.395.914q.447 0 .693.306.248.303.248.862 0 .558-.25.868-.249.308-.69.308-.222 0-.406-.08-.182-.084-.306-.253h-.025l-.072.291h-.246V0h.343v.781q0 .263-.017.472h.017q.24-.34.711-.34zm-.05.287q-.35 0-.506.203-.155.2-.155.678 0 .477.16.684.158.204.51.204.316 0 .471-.23.155-.23.155-.663 0-.442-.155-.659-.155-.217-.48-.217zM19.893 2.082q0 .553-.28.866-.279.31-.77.31-.304 0-.54-.143-.236-.143-.364-.41-.128-.266-.128-.623 0-.554.277-.862.277-.31.769-.31.475 0 .754.316.282.316.282.856zm-1.726 0q0 .434.173.661.174.227.51.227.338 0 .511-.225.176-.227.176-.663 0-.432-.176-.656-.173-.225-.514-.225-.337 0-.509.221-.171.221-.171.66zM21.038 2.057L20.25.95h.39l.598.868.596-.868h.386l-.787 1.106.828 1.16h-.388l-.635-.918-.64.917h-.39z"/></g><path d="M.152 6.656H62.33v40.596H.152z" fill="#ebedee"/><path d="M.146 13.808h56.745v25.119H.146z" fill="#fff" stroke="#131516" stroke-width=".293" stroke-miterlimit="2.4" stroke-dasharray="2.34278589,1.17139292"/><path d="M6.886 21.68h43.41v9.318H6.885z" fill="#fff" stroke="#131516" stroke-width=".256" stroke-miterlimit="2.4"/><path d="M.154 6.732H62.18v40.593H.154z" fill="none" stroke="#131516" stroke-width=".299" stroke-miterlimit="2.4"/><path d="M29.388 94.91h60.944c.342 0 .616.274.616.616V134.9a.615.615 0 01-.616.617H29.388a.615.615 0 01-.617-.617V95.526c0-.342.275-.617.617-.617z" fill="url(#e)" transform="translate(-28.62 -88.185)"/><path d="M23.7 15.652h16.933v4.762H23.7z" fill="#fff"/><g style="line-height:1.25" aria-label="Padding" font-weight="400" font-size="4.233" font-family="Open Sans" letter-spacing="0" word-spacing="0" fill="#131516" stroke-width=".265"><path style="-inkscape-font-specification:'Open Sans'" d="M26.17 17.047q0 .458-.313.706-.313.246-.895.246h-.356v1.189h-.351v-3.022h.783q1.133 0 1.133.88zm-1.564.65h.316q.467 0 .676-.15.209-.151.209-.484 0-.3-.196-.446-.197-.147-.612-.147h-.393zM28.143 19.188l-.068-.322h-.017q-.17.212-.339.289-.167.074-.42.074-.337 0-.529-.173-.19-.174-.19-.494 0-.687 1.098-.72l.384-.012v-.14q0-.267-.116-.393-.113-.129-.365-.129-.284 0-.641.174l-.106-.262q.168-.091.366-.143.2-.052.401-.052.405 0 .6.18.196.18.196.577v1.546zm-.775-.242q.32 0 .502-.176.184-.175.184-.491v-.205l-.343.014q-.41.015-.591.129-.18.111-.18.349 0 .186.111.283.114.097.317.097zM30.648 18.884h-.019q-.237.345-.71.345-.445 0-.693-.303-.246-.304-.246-.865 0-.56.248-.87.248-.31.69-.31.461 0 .707.335h.027l-.014-.163-.009-.16v-.921h.344v3.216h-.28zm-.686.058q.351 0 .508-.19.16-.192.16-.618v-.073q0-.481-.162-.686-.159-.207-.51-.207-.302 0-.463.236-.16.234-.16.662 0 .434.16.655.159.221.467.221zM33.244 18.884h-.018q-.238.345-.711.345-.445 0-.693-.303-.246-.304-.246-.865 0-.56.248-.87.248-.31.69-.31.462 0 .708.335h.026l-.014-.163-.008-.16v-.921h.343v3.216h-.28zm-.686.058q.351 0 .508-.19.16-.192.16-.618v-.073q0-.481-.162-.686-.159-.207-.51-.207-.302 0-.463.236-.16.234-.16.662 0 .434.16.655.159.221.467.221zM34.642 19.188h-.344v-2.265h.344zm-.372-2.88q0-.117.057-.17.058-.057.145-.057.083 0 .143.056.06.056.06.172 0 .115-.06.173-.06.056-.143.056-.087 0-.145-.056-.057-.058-.057-.173zM36.924 19.188v-1.466q0-.276-.126-.413-.127-.136-.395-.136-.356 0-.521.192-.166.192-.166.634v1.189h-.343v-2.265h.28l.055.31h.017q.105-.168.295-.259.19-.093.424-.093.41 0 .616.199.207.196.207.63v1.478zM39.824 16.923v.217l-.42.05q.058.072.103.19.046.115.046.262 0 .333-.227.531-.228.199-.625.199-.101 0-.19-.017-.219.116-.219.291 0 .093.076.139.077.043.263.043h.401q.368 0 .564.155.199.155.199.451 0 .376-.302.573-.302.198-.88.198-.445 0-.687-.165-.24-.166-.24-.467 0-.207.133-.358.132-.151.372-.205-.087-.039-.147-.122-.058-.082-.058-.192 0-.124.066-.217t.209-.18q-.176-.072-.287-.246-.11-.173-.11-.397 0-.372.223-.572.224-.203.633-.203.178 0 .32.042zm-1.807 2.645q0 .184.155.28.155.095.445.095.432 0 .638-.13.209-.129.209-.35 0-.184-.114-.256-.113-.07-.428-.07h-.41q-.234 0-.365.111-.13.112-.13.32zm.186-1.92q0 .238.134.36.135.122.375.122.502 0 .502-.488 0-.51-.509-.51-.241 0-.372.13-.13.13-.13.386z"/></g><path d="M23.836 8.468h13.742v3.605H23.836z" fill="#ebedee"/><g style="line-height:1.25" aria-label="Border" font-weight="400" font-size="4.233" font-family="Open Sans" letter-spacing="0" word-spacing="0" fill="#131516" stroke-width=".265"><path style="-inkscape-font-specification:'Open Sans'" d="M24.252 8.438h.854q.602 0 .87.18.27.18.27.568 0 .27-.152.445-.149.173-.436.225v.02q.688.119.688.724 0 .405-.275.633-.272.227-.764.227h-1.055zm.352 1.294h.579q.372 0 .535-.116.163-.118.163-.395 0-.254-.182-.365-.182-.114-.578-.114h-.517zm0 .298v1.13h.63q.366 0 .55-.14.186-.143.186-.445 0-.28-.19-.413-.188-.132-.575-.132zM28.901 10.325q0 .554-.279.866-.279.31-.77.31-.305 0-.54-.142-.236-.143-.364-.41-.128-.266-.128-.624 0-.554.277-.862.277-.31.769-.31.475 0 .754.317.281.316.281.855zm-1.726 0q0 .434.174.662.174.227.51.227.337 0 .511-.225.176-.228.176-.664 0-.432-.176-.655-.174-.225-.515-.225-.337 0-.508.22-.172.222-.172.66zM30.534 9.153q.151 0 .271.025l-.048.318q-.14-.03-.248-.03-.274 0-.47.223-.195.223-.195.556v1.215H29.5V9.195h.283l.04.42h.016q.126-.222.304-.342.177-.12.39-.12zM32.77 11.156h-.018q-.238.345-.71.345-.445 0-.693-.303-.246-.304-.246-.864t.248-.87q.248-.31.69-.31.461 0 .707.334h.027l-.015-.163-.008-.16v-.921h.343v3.216h-.279zm-.685.058q.35 0 .508-.19.16-.192.16-.618v-.072q0-.482-.162-.687-.16-.206-.51-.206-.302 0-.464.235-.159.234-.159.662 0 .434.16.655.159.221.467.221zM34.782 11.501q-.502 0-.794-.305-.29-.306-.29-.85 0-.548.27-.87.27-.323.725-.323.426 0 .674.281.248.28.248.738v.217h-1.56q.01.4.2.606.192.207.54.207.365 0 .723-.153v.306q-.182.078-.345.111-.162.035-.391.035zm-.093-2.06q-.273 0-.436.177-.161.178-.19.492h1.184q0-.324-.145-.496-.144-.173-.413-.173zM37.231 9.153q.151 0 .271.025l-.047.318q-.14-.03-.248-.03-.275 0-.472.223-.194.223-.194.556v1.215h-.343V9.195h.283l.04.42h.016q.126-.222.304-.342.178-.12.39-.12z"/></g><path d="M23.7 24.383h16.14v3.704H23.7z" fill="#fff"/><g style="line-height:1.25" aria-label="Content" font-weight="400" font-size="4.233" font-family="Open Sans" letter-spacing="0" word-spacing="0" fill="#131516" stroke-width=".265"><path style="-inkscape-font-specification:'Open Sans'" d="M25.54 24.82q-.498 0-.787.333-.288.33-.288.907 0 .593.277.918.28.322.794.322.316 0 .721-.113v.308q-.314.117-.775.117-.667 0-1.031-.405-.362-.405-.362-1.151 0-.467.174-.819.175-.351.504-.541.33-.19.777-.19.476 0 .831.173l-.149.302q-.343-.161-.686-.161zM28.82 26.436q0 .554-.279.866-.279.31-.77.31-.304 0-.54-.142-.236-.143-.364-.41-.128-.266-.128-.624 0-.554.277-.862.277-.31.769-.31.475 0 .754.316.281.317.281.856zm-1.726 0q0 .434.174.662.174.227.51.227.338 0 .511-.225.176-.228.176-.664 0-.432-.176-.655-.173-.225-.514-.225-.337 0-.509.22-.172.222-.172.66zM30.97 27.571v-1.465q0-.277-.126-.414-.126-.136-.395-.136-.355 0-.52.192-.166.192-.166.634v1.19h-.343v-2.266h.279l.056.31h.016q.106-.168.296-.259.19-.093.424-.093.409 0 .616.199.206.196.206.63v1.478zM32.748 27.33q.09 0 .176-.013.084-.015.134-.03v.263q-.056.027-.165.044-.108.018-.195.018-.657 0-.657-.692v-1.348h-.325v-.165l.325-.143.145-.483h.198v.525h.657v.266h-.657v1.333q0 .205.097.315.097.11.267.11zM34.47 27.612q-.503 0-.794-.306-.29-.305-.29-.85 0-.547.27-.87.27-.322.725-.322.426 0 .674.281.248.28.248.738v.217h-1.56q.01.4.2.606.192.207.54.207.365 0 .723-.153v.306q-.182.078-.346.111-.16.035-.39.035zm-.093-2.06q-.273 0-.436.177-.162.178-.19.492h1.184q0-.324-.145-.496-.145-.173-.413-.173zM37.436 27.571v-1.465q0-.277-.126-.414-.126-.136-.395-.136-.355 0-.52.192-.166.192-.166.634v1.19h-.343v-2.266h.279l.056.31h.016q.106-.168.296-.259.19-.093.423-.093.41 0 .616.199.207.196.207.63v1.478zM39.214 27.33q.09 0 .175-.013.085-.015.135-.03v.263q-.056.027-.166.044-.107.018-.194.018-.657 0-.657-.692v-1.348h-.325v-.165l.325-.143.144-.483h.199v.525h.657v.266h-.657v1.333q0 .205.097.315.097.11.267.11z"/></g><path d="M.158 58.242h62.177v40.596H.158z" fill="#ebedee"/><path d="M28.779 146.503h62.183v40.608H28.779z" fill="url(#f)" transform="translate(-28.62 -88.185)"/><path d="M.152 65.393h56.745v25.12H.152z" fill="#fff" stroke="#131516" stroke-width=".293" stroke-miterlimit="2.4" stroke-dasharray="2.34278591,1.17139293"/><path d="M6.892 73.267h43.409v9.317H6.892z" fill="#fff" stroke="#131516" stroke-width=".256" stroke-miterlimit="2.4"/><path d="M.16 58.318h62.025V98.91H.16z" fill="none" stroke="#131516" stroke-width=".299" stroke-miterlimit="2.4"/><path d="M23.706 67.237h16.933V72H23.706z" fill="#fff"/><g style="line-height:1.25" aria-label="Padding" font-weight="400" font-size="4.233" font-family="Open Sans" letter-spacing="0" word-spacing="0" fill="#131516" stroke-width=".265"><path style="-inkscape-font-specification:'Open Sans'" d="M26.177 68.632q0 .46-.315.707-.312.246-.895.246h-.355v1.189h-.352v-3.022h.784q1.133 0 1.133.88zm-1.565.651h.316q.467 0 .676-.15.209-.151.209-.484 0-.3-.197-.447-.196-.146-.612-.146h-.392zM28.148 70.774l-.068-.323h-.016q-.17.213-.34.29-.167.074-.419.074-.337 0-.529-.174-.19-.173-.19-.494 0-.686 1.097-.719l.385-.012v-.14q0-.268-.116-.394-.114-.128-.366-.128-.283 0-.64.174l-.106-.263q.167-.09.366-.142.2-.052.4-.052.406 0 .6.18.197.18.197.577v1.546zm-.775-.242q.32 0 .503-.176.184-.176.184-.492v-.204l-.344.014q-.409.015-.59.128-.18.112-.18.35 0 .186.111.283.114.097.316.097zM30.654 70.47h-.019q-.238.345-.71.345-.445 0-.693-.304-.246-.304-.246-.864t.248-.87q.248-.31.69-.31.461 0 .707.335h.027l-.015-.164-.008-.159v-.922h.343v3.217H30.7zm-.686.058q.35 0 .508-.19.16-.193.16-.618v-.073q0-.481-.162-.686-.16-.207-.51-.207-.302 0-.464.236-.159.233-.159.661 0 .434.16.656.159.22.467.22zM33.25 70.47h-.019q-.237.345-.71.345-.445 0-.693-.304-.246-.304-.246-.864t.248-.87q.248-.31.69-.31.461 0 .707.335h.027l-.014-.164-.009-.159v-.922h.343v3.217h-.279zm-.686.058q.351 0 .508-.19.16-.193.16-.618v-.073q0-.481-.162-.686-.159-.207-.51-.207-.302 0-.463.236-.16.233-.16.661 0 .434.16.656.159.22.467.22zM34.647 70.774h-.343v-2.266h.343zm-.372-2.88q0-.118.058-.171.058-.056.145-.056.083 0 .142.056.06.056.06.171 0 .116-.06.174-.06.056-.142.056-.087 0-.145-.056-.058-.058-.058-.174zM36.93 70.774v-1.466q0-.277-.127-.413-.126-.137-.395-.137-.355 0-.52.193-.166.192-.166.634v1.189h-.343v-2.266h.28l.055.31h.016q.106-.167.296-.258.19-.093.424-.093.41 0 .616.198.206.197.206.63v1.479zM39.83 68.508v.217l-.42.05q.058.072.103.19.046.116.046.263 0 .332-.228.53-.227.2-.624.2-.101 0-.19-.017-.22.115-.22.291 0 .093.077.139.077.043.263.043h.4q.369 0 .565.155.198.155.198.45 0 .377-.301.573-.302.199-.88.199-.445 0-.687-.166-.24-.165-.24-.467 0-.207.132-.357.133-.151.372-.205-.086-.04-.146-.122-.058-.083-.058-.192 0-.124.066-.217t.209-.18q-.176-.072-.288-.246-.11-.174-.11-.397 0-.372.224-.573.223-.202.633-.202.177 0 .32.041zm-1.807 2.646q0 .184.155.28.155.094.444.094.432 0 .639-.13.209-.128.209-.35 0-.183-.114-.256-.114-.07-.428-.07h-.411q-.234 0-.364.112-.13.111-.13.32zm.186-1.92q0 .237.134.36.135.121.374.121.503 0 .503-.487 0-.511-.509-.511-.242 0-.372.13t-.13.387z"/></g><path d="M23.841 60.054h13.742v3.604H23.841z" fill="#ebedee"/><g style="line-height:1.25" aria-label="Border" font-weight="400" font-size="4.233" font-family="Open Sans" letter-spacing="0" word-spacing="0" fill="#131516" stroke-width=".265"><path style="-inkscape-font-specification:'Open Sans'" d="M24.258 60.024h.854q.601 0 .87.18t.269.568q0 .269-.151.444-.149.174-.436.226v.02q.688.118.688.724 0 .405-.275.632-.273.228-.765.228h-1.054zm.352 1.294h.578q.372 0 .536-.116.163-.118.163-.395 0-.254-.182-.366-.182-.113-.579-.113h-.516zm0 .297v1.131h.63q.366 0 .55-.14.186-.143.186-.445 0-.281-.19-.413-.188-.133-.575-.133zM28.907 61.911q0 .554-.28.866-.278.31-.77.31-.304 0-.54-.143-.235-.142-.363-.409-.129-.266-.129-.624 0-.554.277-.862.277-.31.77-.31.475 0 .754.316.281.316.281.856zm-1.726 0q0 .434.174.661.173.228.51.228t.51-.226q.176-.227.176-.663 0-.432-.175-.655-.174-.226-.515-.226-.337 0-.508.222-.172.22-.172.659zM30.54 60.739q.15 0 .27.025l-.047.318q-.14-.03-.248-.03-.275 0-.471.222-.194.224-.194.556v1.216h-.344V60.78h.284l.039.42h.016q.127-.221.304-.341.178-.12.391-.12zM32.777 62.742h-.02q-.237.345-.71.345-.445 0-.693-.304-.246-.304-.246-.864t.248-.87q.249-.31.69-.31.462 0 .708.335h.027l-.015-.163-.008-.16v-.922h.343v3.217h-.279zm-.687.058q.352 0 .509-.19.159-.193.159-.618v-.073q0-.481-.161-.686-.16-.207-.51-.207-.303 0-.464.236-.16.233-.16.661 0 .434.16.656.16.22.467.22zM34.788 63.087q-.503 0-.794-.306-.29-.306-.29-.85 0-.547.27-.87.27-.322.725-.322.426 0 .674.281.248.28.248.738v.217h-1.56q.01.399.2.606.192.206.54.206.365 0 .723-.153v.306q-.182.079-.346.112-.16.035-.39.035zm-.093-2.06q-.273 0-.436.177-.162.178-.19.492h1.184q0-.325-.145-.496-.145-.174-.413-.174zM37.237 60.739q.151 0 .271.025l-.048.318q-.14-.03-.248-.03-.274 0-.47.222-.195.224-.195.556v1.216h-.343V60.78h.283l.04.42h.016q.126-.221.304-.341.177-.12.39-.12z"/></g><path d="M23.706 75.969h16.14v3.704h-16.14z" fill="#fff"/><g style="line-height:1.25" aria-label="Content" font-weight="400" font-size="4.233" font-family="Open Sans" letter-spacing="0" word-spacing="0" fill="#131516" stroke-width=".265"><path style="-inkscape-font-specification:'Open Sans'" d="M25.546 76.405q-.498 0-.788.333-.287.331-.287.908 0 .593.277.917.279.323.794.323.316 0 .721-.114v.308q-.314.118-.775.118-.668 0-1.032-.405-.361-.405-.361-1.151 0-.468.173-.819.176-.351.505-.542.33-.19.777-.19.475 0 .83.174l-.148.302q-.343-.162-.686-.162zM28.826 78.022q0 .554-.279.866-.279.31-.77.31-.305 0-.54-.143-.236-.142-.364-.409-.128-.266-.128-.624 0-.554.277-.862.277-.31.769-.31.475 0 .754.316.281.316.281.856zm-1.726 0q0 .434.174.661.173.228.51.228t.511-.226q.176-.227.176-.663 0-.432-.176-.655-.174-.226-.515-.226-.337 0-.508.222-.172.22-.172.659zM30.976 79.157V77.69q0-.277-.126-.413-.126-.137-.395-.137-.355 0-.52.193-.166.192-.166.634v1.189h-.343V76.89h.279l.056.31h.016q.105-.167.296-.258.19-.093.423-.093.41 0 .616.198.207.197.207.63v1.479zM32.754 78.915q.09 0 .175-.013.085-.014.135-.028v.262q-.056.027-.166.043-.107.02-.194.02-.657 0-.657-.693v-1.348h-.325v-.165l.325-.143.144-.484h.199v.525h.657v.267h-.657v1.333q0 .205.097.314.097.11.267.11zM34.475 79.198q-.502 0-.793-.306-.29-.306-.29-.85 0-.547.27-.87.27-.322.725-.322.425 0 .673.281.249.28.249.738v.217h-1.561q.01.399.2.606.193.206.54.206.366 0 .723-.153v.306q-.182.079-.345.112-.161.035-.39.035zm-.093-2.06q-.272 0-.436.177-.16.178-.19.492h1.185q0-.325-.145-.496-.145-.174-.414-.174zM37.442 79.157V77.69q0-.277-.126-.413-.126-.137-.395-.137-.356 0-.521.193-.165.192-.165.634v1.189h-.344V76.89h.28l.055.31h.017q.105-.167.295-.258.19-.093.424-.093.41 0 .616.198.207.197.207.63v1.479zM39.22 78.915q.09 0 .175-.013.085-.014.134-.028v.262q-.055.027-.165.043-.107.02-.194.02-.658 0-.658-.693v-1.348h-.324v-.165l.324-.143.145-.484h.199v.525h.657v.267h-.657v1.333q0 .205.097.314.097.11.266.11z"/></g></svg>