<svg xmlns="http://www.w3.org/2000/svg" xmlns:xlink="http://www.w3.org/1999/xlink" viewBox="0 0 114.66 105.317" height="398.049" width="433.362"><defs><pattern patternTransform="matrix(.13838 -.00734 .00528 .09958 -1.844 163.304)" id="e" xlink:href="#a"/><pattern patternTransform="matrix(.13838 -.00734 .00528 .09958 176.749 163.459)" id="a" xlink:href="#b"/><pattern patternUnits="userSpaceOnUse" height="30.236" width="30.236" y="0" x="0" id="b"><path d="M-3.78 3.78l7.56-7.56M-3.78 34.016L34.016-3.78M26.457 34.016l7.559-7.56" stroke="#00075f" stroke-width=".945"/></pattern><pattern patternTransform="matrix(.03004 .1318 -.1017 .02318 -2.63 262.029)" id="f" xlink:href="#c"/><pattern patternTransform="matrix(.03004 .1318 -.1017 .02318 -14.77 258.915)" id="c" xlink:href="#d"/><pattern patternUnits="userSpaceOnUse" height="30.236" width="30.236" y="0" x="0" id="d"><path d="M-3.78 3.78l7.56-7.56M-3.78 34.016L34.016-3.78M26.457 34.016l7.559-7.56" stroke="#008638" stroke-width=".945"/></pattern><marker id="h" refX="0" refY="0" orient="auto" overflow="visible"><path d="M-4.616 0l6.92-4v8z" fill="#131516" fill-rule="evenodd" stroke="#131516" stroke-width="1.0664"/></marker><marker id="g" refX="0" refY="0" orient="auto" overflow="visible"><path d="M-4.616 0l6.92-4v8z" fill="#131516" fill-rule="evenodd" stroke="#131516" stroke-width="1.0664"/></marker></defs><path d="M5.38 12.409H73.06v38.44H5.38z" fill="#ebedee"/><path d="M10.876 19.56H67.62v25.12H10.876z" fill="#fff" stroke="#131516" stroke-width=".293" stroke-miterlimit="2.4" stroke-dasharray="2.34278589,1.17139292"/><path d="M17.616 27.434h43.409v9.317h-43.41z" fill="#fff" stroke="#131516" stroke-width=".256" stroke-miterlimit="2.4"/><path d="M5.38 12.485H72.91V50.85H5.38z" fill="none" stroke="#131516" stroke-width=".303" stroke-miterlimit="2.4"/><path d="M.088 5.87h78.053v44.98H.088z" fill="none" stroke="#131516" stroke-width=".177" stroke-miterlimit="2.4" stroke-dasharray="1.06181214,.17696868"/><path d="M-23.813-39.02H54.24V5.957h-78.053z" fill="url(#e)" transform="translate(23.901 44.891)"/><path d="M30.781 21.405h16.934v4.762H30.78z" fill="#fff"/><g style="line-height:1.25" aria-label="Padding" font-weight="400" font-size="4.233" font-family="Open Sans" letter-spacing="0" word-spacing="0" fill="#131516" stroke-width=".265"><path style="-inkscape-font-specification:'Open Sans'" d="M33.252 22.8q0 .458-.314.706-.312.246-.895.246h-.356v1.189h-.351v-3.022h.783q1.133 0 1.133.88zm-1.565.65h.317q.467 0 .676-.15.208-.151.208-.484 0-.3-.196-.447-.196-.146-.612-.146h-.393zM35.224 24.94l-.068-.322h-.017q-.17.213-.339.29-.167.074-.42.074-.336 0-.528-.173-.19-.174-.19-.494 0-.687 1.097-.72l.385-.012v-.14q0-.267-.116-.394-.114-.128-.366-.128-.283 0-.64.174l-.106-.263q.167-.09.366-.142.2-.052.4-.052.406 0 .6.18.196.18.196.577v1.546zm-.775-.241q.32 0 .502-.176.184-.175.184-.492v-.204l-.343.014q-.41.015-.591.128-.18.112-.18.35 0 .186.112.283.113.097.316.097zM37.73 24.637h-.02q-.237.345-.71.345-.445 0-.693-.304-.246-.304-.246-.864t.248-.87q.248-.31.69-.31.462 0 .708.335h.027l-.015-.163-.008-.16v-.922h.343v3.217h-.28zm-.687.058q.352 0 .509-.19.159-.193.159-.618v-.073q0-.481-.161-.686-.16-.207-.511-.207-.302 0-.463.236-.16.234-.16.661 0 .434.16.656.16.22.467.22zM40.326 24.637h-.019q-.238.345-.711.345-.444 0-.693-.304-.245-.304-.245-.864t.248-.87q.248-.31.69-.31.46 0 .707.335h.027l-.015-.163-.008-.16v-.922h.343v3.217h-.279zm-.687.058q.352 0 .509-.19.159-.193.159-.618v-.073q0-.481-.161-.686-.16-.207-.51-.207-.303 0-.464.236-.159.234-.159.661 0 .434.16.656.158.22.466.22zM41.723 24.94h-.343v-2.265h.343zm-.372-2.879q0-.117.058-.171.058-.056.144-.056.083 0 .143.056.06.056.06.171 0 .116-.06.174-.06.056-.143.056-.086 0-.144-.056-.058-.058-.058-.174zM44.005 24.94v-1.465q0-.277-.126-.413-.126-.137-.395-.137-.355 0-.52.193-.166.192-.166.634v1.189h-.343v-2.266h.279l.056.31h.016q.106-.167.296-.258.19-.093.423-.093.41 0 .616.198.207.197.207.63v1.479zM46.905 22.675v.217l-.42.05q.058.072.104.19.045.116.045.263 0 .332-.227.53-.227.2-.624.2-.102 0-.19-.017-.22.116-.22.291 0 .093.077.139.076.043.262.043h.401q.368 0 .565.155.198.155.198.45 0 .377-.302.573-.301.199-.88.199-.445 0-.686-.166-.24-.165-.24-.467 0-.206.132-.357t.372-.205q-.087-.04-.147-.122-.058-.083-.058-.192 0-.124.067-.217.066-.093.208-.18-.175-.072-.287-.246-.11-.174-.11-.397 0-.372.224-.572.223-.203.632-.203.178 0 .32.041zm-1.807 2.646q0 .184.155.28.156.094.445.094.432 0 .639-.13.208-.128.208-.35 0-.183-.113-.256-.114-.07-.428-.07h-.412q-.233 0-.363.112-.13.111-.13.32zm.186-1.92q0 .238.135.36.134.121.374.121.502 0 .502-.487 0-.51-.508-.51-.242 0-.372.13t-.13.386z"/></g><path d="M31.25 30.136h16.14v3.704H31.25z" fill="#fff"/><g style="line-height:1.25" aria-label="Content" font-weight="400" font-size="4.233" font-family="Open Sans" letter-spacing="0" word-spacing="0" fill="#131516" stroke-width=".265"><path style="-inkscape-font-specification:'Open Sans'" d="M33.09 30.573q-.498 0-.787.332-.288.331-.288.908 0 .593.277.918.28.322.794.322.316 0 .722-.114v.308q-.315.118-.776.118-.667 0-1.031-.405-.362-.405-.362-1.151 0-.467.174-.819.176-.351.504-.541.33-.19.777-.19.476 0 .831.173l-.148.302q-.344-.161-.687-.161zM36.37 32.189q0 .554-.278.866-.28.31-.771.31-.304 0-.54-.142-.236-.143-.364-.41-.128-.266-.128-.624 0-.554.277-.862.277-.31.77-.31.475 0 .754.316.28.317.28.856zm-1.725 0q0 .434.173.661.174.228.51.228.338 0 .511-.225.176-.228.176-.664 0-.432-.176-.655-.173-.226-.514-.226-.337 0-.509.222-.171.22-.171.659zM38.52 33.324v-1.466q0-.277-.126-.413-.126-.137-.394-.137-.356 0-.521.193-.166.192-.166.634v1.189h-.343v-2.266h.28l.055.31h.017q.105-.167.295-.258.19-.093.424-.093.41 0 .616.198.207.197.207.63v1.479zM40.298 33.082q.091 0 .176-.012.085-.015.134-.03v.263q-.056.027-.165.044-.108.018-.195.018-.657 0-.657-.692v-1.348h-.324v-.165l.324-.143.145-.484h.198v.525h.658v.267h-.658v1.333q0 .205.097.314.098.11.267.11zM42.02 33.365q-.502 0-.794-.306-.29-.306-.29-.85 0-.547.27-.87.27-.322.725-.322.426 0 .674.281.248.28.248.738v.217h-1.56q.01.399.2.606.192.206.54.206.365 0 .723-.153v.306q-.182.079-.345.112-.162.035-.391.035zm-.093-2.06q-.273 0-.436.177-.161.178-.19.492h1.184q0-.324-.145-.496-.144-.174-.413-.174zM44.986 33.324v-1.466q0-.277-.126-.413-.126-.137-.395-.137-.355 0-.52.193-.166.192-.166.634v1.189h-.343v-2.266h.279l.056.31h.016q.106-.167.296-.258.19-.093.424-.093.409 0 .616.198.206.197.206.63v1.479zM46.764 33.082q.09 0 .176-.012.084-.015.134-.03v.263q-.056.027-.165.044-.108.018-.195.018-.657 0-.657-.692v-1.348h-.325v-.165l.325-.143.145-.484h.198v.525h.657v.267H46.4v1.333q0 .205.097.314.097.11.267.11z"/></g><path d="M32.348 14.22H46.09v3.606H32.348z" fill="#ebedee"/><g style="line-height:1.25" aria-label="Border" font-weight="400" font-size="4.233" font-family="Open Sans" letter-spacing="0" word-spacing="0" fill="#131516" stroke-width=".265"><path style="-inkscape-font-specification:'Open Sans'" d="M32.765 14.19h.854q.601 0 .87.18t.269.57q0 .268-.151.444-.149.173-.436.225v.02q.688.118.688.724 0 .405-.275.633-.273.227-.765.227h-1.054zm.352 1.295h.578q.372 0 .536-.116.163-.118.163-.395 0-.254-.182-.366-.182-.113-.579-.113h-.516zm0 .297v1.131h.63q.366 0 .55-.14.186-.143.186-.445 0-.28-.19-.413-.188-.133-.575-.133zM37.414 16.078q0 .554-.28.866-.278.31-.77.31-.304 0-.54-.142-.235-.143-.363-.41-.129-.266-.129-.624 0-.554.277-.862.277-.31.77-.31.475 0 .754.316.281.317.281.856zm-1.726 0q0 .434.174.662.173.227.51.227t.51-.225q.176-.228.176-.664 0-.432-.175-.655-.174-.225-.515-.225-.337 0-.508.22-.172.222-.172.66zM39.047 14.906q.15 0 .27.025l-.047.318q-.14-.03-.248-.03-.275 0-.471.222-.194.224-.194.556v1.216h-.344v-2.266h.284l.039.42h.016q.127-.221.304-.341.178-.12.391-.12zM41.284 16.909h-.02q-.237.345-.71.345-.445 0-.693-.304-.246-.303-.246-.864 0-.56.248-.87.248-.31.69-.31.462 0 .708.335h.027l-.015-.163-.008-.16v-.921h.343v3.216h-.279zm-.687.058q.352 0 .509-.19.159-.192.159-.618v-.073q0-.481-.161-.686-.16-.207-.51-.207-.303 0-.464.236-.16.234-.16.661 0 .435.16.656.16.22.467.22zM43.295 17.254q-.503 0-.794-.306-.29-.306-.29-.85 0-.547.27-.87.27-.322.725-.322.426 0 .674.281.248.28.248.738v.217h-1.56q.01.4.2.606.192.207.54.207.365 0 .723-.153v.305q-.182.079-.346.112-.16.035-.39.035zm-.093-2.06q-.273 0-.436.177-.162.178-.19.492h1.184q0-.324-.145-.496-.145-.174-.413-.174zM45.744 14.906q.151 0 .271.025l-.048.318q-.14-.03-.248-.03-.274 0-.47.222-.195.224-.195.556v1.216h-.343v-2.266h.283l.04.42h.016q.126-.221.304-.341.177-.12.39-.12z"/></g><path d="M32.26 7.193h13.708v4.266H32.261z" fill="#fff"/><g style="line-height:1.25" aria-label="Margin" font-weight="400" font-size="4.233" font-family="Open Sans" letter-spacing="0" word-spacing="0" fill="#131516" stroke-width=".265"><path style="-inkscape-font-specification:'Open Sans'" d="M34.057 10.381l-.978-2.678h-.016q.028.318.028.756v1.922h-.31V7.36h.505l.913 2.493h.016l.92-2.493h.5v3.022h-.334V8.434q0-.335.027-.727h-.015l-.986 2.674zM37.704 10.381l-.065-.322h-.016q-.162.213-.323.29-.16.074-.4.074-.322 0-.505-.174-.182-.174-.182-.494 0-.686 1.047-.72l.367-.012v-.14q0-.267-.11-.393-.11-.128-.35-.128-.27 0-.61.174l-.101-.263q.16-.09.349-.143.191-.051.382-.051.387 0 .572.18.187.18.187.576v1.546zm-.74-.241q.306 0 .48-.176.175-.176.175-.492v-.205l-.327.015q-.39.014-.564.128-.172.112-.172.35 0 .185.107.282.108.098.301.098zM39.608 8.075q.144 0 .258.024l-.045.319q-.134-.031-.237-.031-.262 0-.45.223-.185.223-.185.556v1.215h-.327V8.116h.27l.038.42h.015q.12-.222.29-.342.17-.12.373-.12zM42.038 8.116v.217l-.4.05q.055.072.099.19.043.115.043.262 0 .333-.217.531-.217.199-.595.199-.097 0-.181-.017-.21.116-.21.292 0 .093.074.138.073.044.25.044h.382q.351 0 .538.155.19.155.19.45 0 .377-.288.573-.288.198-.84.198-.424 0-.654-.165-.229-.165-.229-.467 0-.207.126-.358.126-.15.355-.204-.083-.04-.14-.122-.055-.083-.055-.193 0-.124.063-.217t.2-.18q-.168-.072-.275-.245-.104-.174-.104-.397 0-.372.212-.573.213-.202.604-.202.17 0 .305.04zm-1.723 2.646q0 .184.148.279.148.095.424.095.412 0 .61-.13.198-.129.198-.35 0-.184-.108-.256-.109-.07-.408-.07h-.392q-.223 0-.347.111-.125.112-.125.32zm.178-1.92q0 .237.128.36.128.121.357.121.479 0 .479-.488 0-.51-.485-.51-.23 0-.355.13-.124.13-.124.386zM42.813 10.381h-.327V8.116h.327zm-.355-2.879q0-.118.055-.172.056-.055.138-.055.08 0 .136.055.058.056.058.172 0 .116-.058.174-.057.055-.136.055-.082 0-.138-.055-.055-.058-.055-.174zM44.99 10.381V8.916q0-.277-.121-.414-.12-.136-.377-.136-.339 0-.496.192-.158.193-.158.635v1.188h-.327V8.116h.266l.053.31h.016q.1-.167.282-.258.181-.093.404-.093.39 0 .587.198.197.196.197.63v1.478z"/></g><path d="M-23.813 15.219H54.24v44.979h-78.053z" fill="url(#f)" transform="translate(23.901 44.891)"/><path d="M5.38 66.725H73.06v38.44H5.38z" fill="#ebedee"/><path d="M10.876 73.876H67.62v25.12H10.876z" fill="#fff" stroke="#131516" stroke-width=".293" stroke-miterlimit="2.4" stroke-dasharray="2.34278589,1.17139292"/><path d="M17.616 81.75h43.409v9.317h-43.41z" fill="#fff" stroke="#131516" stroke-width=".256" stroke-miterlimit="2.4"/><path d="M5.38 66.8H72.91v38.366H5.38z" fill="none" stroke="#131516" stroke-width=".303" stroke-miterlimit="2.4"/><path d="M.088 60.186h78.053v44.98H.088z" fill="none" stroke="#131516" stroke-width=".177" stroke-miterlimit="2.4" stroke-dasharray="1.06181214,.17696868"/><path d="M30.781 75.72h16.934v4.763H30.78z" fill="#fff"/><g style="line-height:1.25" aria-label="Padding" font-weight="400" font-size="4.233" font-family="Open Sans" letter-spacing="0" word-spacing="0" fill="#131516" stroke-width=".265"><path style="-inkscape-font-specification:'Open Sans'" d="M33.252 77.115q0 .46-.314.707-.312.246-.895.246h-.356v1.189h-.351v-3.022h.783q1.133 0 1.133.88zm-1.565.651h.317q.467 0 .676-.15.208-.151.208-.484 0-.3-.196-.447-.196-.146-.612-.146h-.393zM35.224 79.257l-.068-.323h-.017q-.17.213-.339.29-.167.074-.42.074-.336 0-.528-.174-.19-.173-.19-.494 0-.686 1.097-.719l.385-.012v-.14q0-.268-.116-.394-.114-.128-.366-.128-.283 0-.64.174l-.106-.263q.167-.09.366-.142.2-.052.4-.052.406 0 .6.18.196.18.196.577v1.546zm-.775-.242q.32 0 .502-.176.184-.176.184-.492v-.204l-.343.014q-.41.015-.591.128-.18.112-.18.35 0 .186.112.283.113.097.316.097zM37.73 78.953h-.02q-.237.345-.71.345-.445 0-.693-.304-.246-.304-.246-.864t.248-.87q.248-.31.69-.31.462 0 .708.335h.027l-.015-.164-.008-.159v-.922h.343v3.217h-.28zm-.687.058q.352 0 .509-.19.159-.193.159-.618v-.073q0-.481-.161-.686-.16-.207-.511-.207-.302 0-.463.236-.16.233-.16.661 0 .434.16.656.16.22.467.22zM40.326 78.953h-.019q-.238.345-.711.345-.444 0-.693-.304-.245-.304-.245-.864t.248-.87q.248-.31.69-.31.46 0 .707.335h.027l-.015-.164-.008-.159v-.922h.343v3.217h-.279zm-.687.058q.352 0 .509-.19.159-.193.159-.618v-.073q0-.481-.161-.686-.16-.207-.51-.207-.303 0-.464.236-.159.233-.159.661 0 .434.16.656.158.22.466.22zM41.723 79.257h-.343V76.99h.343zm-.372-2.88q0-.118.058-.171.058-.056.144-.056.083 0 .143.056.06.056.06.171 0 .116-.06.174-.06.056-.143.056-.086 0-.144-.056-.058-.058-.058-.174zM44.005 79.257V77.79q0-.277-.126-.413-.126-.137-.395-.137-.355 0-.52.193-.166.192-.166.634v1.189h-.343V76.99h.279l.056.31h.016q.106-.167.296-.258.19-.093.423-.093.41 0 .616.198.207.197.207.63v1.479zM46.905 76.991v.217l-.42.05q.058.072.104.19.045.116.045.263 0 .332-.227.53-.227.2-.624.2-.102 0-.19-.017-.22.115-.22.291 0 .093.077.139.076.043.262.043h.401q.368 0 .565.155.198.155.198.45 0 .377-.302.573-.301.199-.88.199-.445 0-.686-.166-.24-.165-.24-.467 0-.207.132-.357.132-.151.372-.205-.087-.04-.147-.122-.058-.083-.058-.192 0-.124.067-.217.066-.093.208-.18-.175-.072-.287-.246-.11-.174-.11-.397 0-.372.224-.573.223-.202.632-.202.178 0 .32.041zm-1.807 2.646q0 .184.155.28.156.094.445.094.432 0 .639-.13.208-.128.208-.35 0-.183-.113-.256-.114-.07-.428-.07h-.412q-.233 0-.363.112-.13.111-.13.32zm.186-1.92q0 .237.135.36.134.121.374.121.502 0 .502-.487 0-.511-.508-.511-.242 0-.372.13t-.13.387z"/></g><path d="M31.25 84.452h16.14v3.704H31.25z" fill="#fff"/><g style="line-height:1.25" aria-label="Content" font-weight="400" font-size="4.233" font-family="Open Sans" letter-spacing="0" word-spacing="0" fill="#131516" stroke-width=".265"><path style="-inkscape-font-specification:'Open Sans'" d="M33.09 84.888q-.498 0-.787.333-.288.331-.288.908 0 .593.277.917.28.323.794.323.316 0 .722-.114v.308q-.315.118-.776.118-.667 0-1.031-.405-.362-.405-.362-1.151 0-.468.174-.819.176-.351.504-.542.33-.19.777-.19.476 0 .831.174l-.148.302q-.344-.162-.687-.162zM36.37 86.505q0 .554-.278.866-.28.31-.771.31-.304 0-.54-.143-.236-.142-.364-.409-.128-.266-.128-.624 0-.554.277-.862.277-.31.77-.31.475 0 .754.316.28.316.28.856zm-1.725 0q0 .434.173.661.174.228.51.228.338 0 .511-.226.176-.227.176-.663 0-.432-.176-.655-.173-.226-.514-.226-.337 0-.509.222-.171.22-.171.659zM38.52 87.64v-1.466q0-.277-.126-.413-.126-.137-.394-.137-.356 0-.521.193-.166.192-.166.634v1.189h-.343v-2.266h.28l.055.31h.017q.105-.167.295-.258.19-.093.424-.093.41 0 .616.198.207.197.207.63v1.479zM40.298 87.398q.091 0 .176-.013.085-.014.134-.028v.262q-.056.027-.165.043-.108.02-.195.02-.657 0-.657-.693V85.64h-.324v-.165l.324-.143.145-.484h.198v.525h.658v.267h-.658v1.333q0 .205.097.314.098.11.267.11zM42.02 87.681q-.502 0-.794-.306-.29-.306-.29-.85 0-.547.27-.87.27-.322.725-.322.426 0 .674.281.248.28.248.738v.217h-1.56q.01.399.2.606.192.206.54.206.365 0 .723-.153v.306q-.182.079-.345.112-.162.035-.391.035zm-.093-2.06q-.273 0-.436.177-.161.178-.19.492h1.184q0-.325-.145-.496-.144-.174-.413-.174zM44.986 87.64v-1.466q0-.277-.126-.413-.126-.137-.395-.137-.355 0-.52.193-.166.192-.166.634v1.189h-.343v-2.266h.279l.056.31h.016q.106-.167.296-.258.19-.093.424-.093.409 0 .616.198.206.197.206.63v1.479zM46.764 87.398q.09 0 .176-.013.084-.014.134-.028v.262q-.056.027-.165.043-.108.02-.195.02-.657 0-.657-.693V85.64h-.325v-.165l.325-.143.145-.484h.198v.525h.657v.267H46.4v1.333q0 .205.097.314.097.11.267.11z"/></g><path d="M32.348 68.537H46.09v3.604H32.348z" fill="#ebedee"/><g style="line-height:1.25" aria-label="Border" font-weight="400" font-size="4.233" font-family="Open Sans" letter-spacing="0" word-spacing="0" fill="#131516" stroke-width=".265"><path style="-inkscape-font-specification:'Open Sans'" d="M32.765 68.507h.854q.601 0 .87.18t.269.568q0 .269-.151.444-.149.174-.436.226v.02q.688.118.688.724 0 .405-.275.632-.273.228-.765.228h-1.054zm.352 1.294h.578q.372 0 .536-.116.163-.118.163-.395 0-.254-.182-.366-.182-.113-.579-.113h-.516zm0 .297v1.131h.63q.366 0 .55-.14.186-.143.186-.445 0-.281-.19-.413-.188-.133-.575-.133zM37.414 70.394q0 .554-.28.866-.278.31-.77.31-.304 0-.54-.142-.235-.143-.363-.41-.129-.266-.129-.624 0-.554.277-.862.277-.31.77-.31.475 0 .754.316.281.316.281.856zm-1.726 0q0 .434.174.661.173.228.51.228t.51-.225q.176-.228.176-.664 0-.432-.175-.655-.174-.226-.515-.226-.337 0-.508.222-.172.22-.172.659zM39.047 69.222q.15 0 .27.025l-.047.318q-.14-.03-.248-.03-.275 0-.471.222-.194.224-.194.556v1.216h-.344v-2.266h.284l.039.42h.016q.127-.221.304-.341.178-.12.391-.12zM41.284 71.225h-.02q-.237.345-.71.345-.445 0-.693-.304-.246-.304-.246-.864t.248-.87q.248-.31.69-.31.462 0 .708.335h.027l-.015-.163-.008-.16v-.922h.343v3.217h-.279zm-.687.058q.352 0 .509-.19.159-.193.159-.618v-.073q0-.481-.161-.686-.16-.207-.51-.207-.303 0-.464.236-.16.233-.16.661 0 .434.16.656.16.22.467.22zM43.295 71.57q-.503 0-.794-.306-.29-.306-.29-.85 0-.547.27-.87.27-.322.725-.322.426 0 .674.281.248.28.248.738v.217h-1.56q.01.399.2.606.192.206.54.206.365 0 .723-.153v.306q-.182.079-.346.112-.16.035-.39.035zm-.093-2.06q-.273 0-.436.177-.162.178-.19.492h1.184q0-.325-.145-.496-.145-.174-.413-.174zM45.744 69.222q.151 0 .271.025l-.048.318q-.14-.03-.248-.03-.274 0-.47.222-.195.224-.195.556v1.216h-.343v-2.266h.283l.04.42h.016q.126-.221.304-.341.177-.12.39-.12z"/></g><g><path d="M31.98 61.51H46.25v4.311H31.98z" fill="#fff"/><g style="line-height:1.25" aria-label="Margin" font-weight="400" font-size="4.233" font-family="Open Sans" letter-spacing="0" word-spacing="0" fill="#131516" stroke-width=".265"><path style="-inkscape-font-specification:'Open Sans'" d="M33.864 64.697l-1.026-2.679h-.016q.029.319.029.757v1.922h-.325v-3.022h.53l.956 2.493h.017l.965-2.493h.525v3.022h-.351V62.75q0-.335.029-.727h-.017l-1.033 2.674zM37.688 64.697l-.069-.322h-.016q-.17.213-.34.29-.167.074-.419.074-.337 0-.529-.174-.19-.174-.19-.494 0-.686 1.098-.72l.384-.012v-.14q0-.267-.116-.393-.113-.128-.366-.128-.283 0-.64.173l-.106-.262q.168-.091.366-.143.2-.051.401-.051.405 0 .6.18.196.18.196.576v1.546zm-.776-.242q.32 0 .503-.175.184-.176.184-.492v-.205l-.343.015q-.41.014-.592.128-.18.111-.18.35 0 .185.112.282.114.097.316.097zM39.684 62.39q.151 0 .271.025l-.047.319q-.14-.031-.248-.031-.275 0-.472.223-.194.223-.194.556v1.215h-.343v-2.265h.283l.04.42h.016q.126-.222.304-.342.177-.12.39-.12zM42.233 62.432v.217l-.42.05q.058.072.104.19.045.115.045.262 0 .333-.227.531-.227.199-.624.199-.102 0-.19-.017-.22.116-.22.292 0 .093.077.138.076.044.262.044h.401q.368 0 .565.155.198.155.198.45 0 .376-.302.573-.301.198-.88.198-.445 0-.686-.165-.24-.165-.24-.467 0-.207.132-.358.132-.15.372-.204-.087-.04-.147-.122-.058-.083-.058-.193 0-.124.067-.217.066-.093.208-.18-.175-.072-.287-.246-.11-.173-.11-.396 0-.372.224-.573.223-.203.632-.203.178 0 .32.042zm-1.807 2.646q0 .184.156.279.155.095.444.095.432 0 .639-.13.208-.129.208-.35 0-.184-.113-.256-.114-.07-.428-.07h-.412q-.233 0-.363.111-.13.112-.13.32zm.187-1.92q0 .237.134.359t.374.122q.502 0 .502-.488 0-.51-.508-.51-.242 0-.372.13t-.13.386zM43.045 64.697h-.343v-2.265h.343zm-.372-2.88q0-.117.058-.17.058-.056.145-.056.083 0 .143.055.06.056.06.172 0 .116-.06.174-.06.055-.143.055-.087 0-.145-.055-.058-.058-.058-.174zM45.327 64.697v-1.465q0-.277-.126-.414-.126-.136-.394-.136-.356 0-.521.192-.166.192-.166.635v1.188h-.343v-2.265h.28l.055.31h.017q.105-.168.295-.259.19-.093.424-.093.41 0 .616.199.207.196.207.63v1.478z"/></g></g><path d="M57.506 5.81l7.118 3.202" fill="#131516" stroke="#131516" stroke-width=".239" marker-start="url(#g)" transform="translate(23.901 44.891)"/><g style="line-height:1.25" aria-label="Margin edge" font-weight="400" font-size="4.233" font-family="Open Sans" letter-spacing="0" word-spacing="0" fill="#131516" stroke-width=".265"><path style="-inkscape-font-specification:'Open Sans'" d="M91.6 57.872l-1.025-2.678h-.016q.029.318.029.756v1.922h-.325V54.85h.53l.956 2.493h.017l.965-2.493h.525v3.022h-.351v-1.947q0-.335.029-.727h-.017l-1.033 2.674zM95.424 57.872l-.068-.322h-.016q-.17.213-.34.29-.167.074-.419.074-.337 0-.53-.174-.19-.173-.19-.494 0-.686 1.098-.72l.385-.012v-.14q0-.267-.116-.393-.114-.128-.366-.128-.283 0-.64.174l-.106-.263q.167-.09.366-.143.2-.051.4-.051.406 0 .6.18.197.18.197.576v1.546zm-.775-.241q.32 0 .503-.176.184-.176.184-.492v-.205l-.344.015q-.409.014-.59.128-.18.112-.18.35 0 .185.111.282.114.098.316.098zM97.421 55.566q.151 0 .271.024l-.048.319q-.14-.031-.248-.031-.275 0-.47.223-.195.223-.195.556v1.215h-.343v-2.265h.283l.04.42h.016q.126-.222.304-.341.177-.12.39-.12zM99.97 55.607v.217l-.42.05q.058.072.104.19.045.116.045.262 0 .333-.227.532-.228.198-.625.198-.1 0-.19-.017-.219.116-.219.292 0 .093.077.138.076.044.262.044h.401q.368 0 .565.155.198.155.198.45 0 .377-.302.573-.302.198-.88.198-.445 0-.687-.165-.24-.165-.24-.467 0-.207.133-.358.132-.15.372-.204-.087-.04-.147-.122-.058-.083-.058-.193 0-.124.066-.217.067-.093.21-.18-.177-.072-.288-.245-.11-.174-.11-.397 0-.372.224-.573.223-.202.632-.202.178 0 .32.041zm-1.807 2.646q0 .184.155.279.155.095.445.095.432 0 .638-.13.21-.128.21-.35 0-.184-.114-.256-.114-.07-.428-.07h-.412q-.233 0-.364.111-.13.112-.13.32zm.186-1.92q0 .237.135.36.134.121.374.121.502 0 .502-.488 0-.51-.508-.51-.242 0-.372.13t-.13.386zM100.782 57.872h-.343v-2.265h.343zm-.372-2.879q0-.118.058-.172.058-.055.145-.055.082 0 .142.055.06.056.06.172 0 .116-.06.174-.06.055-.142.055-.087 0-.145-.055-.058-.058-.058-.174zM103.064 57.872v-1.465q0-.277-.126-.414-.126-.136-.395-.136-.355 0-.52.192-.166.193-.166.635v1.188h-.343v-2.265h.279l.056.31h.016q.106-.167.296-.258.19-.093.424-.093.409 0 .616.198.206.196.206.63v1.478zM106.167 57.914q-.502 0-.794-.306-.29-.306-.29-.85 0-.547.27-.87.27-.322.725-.322.426 0 .674.28.248.28.248.739v.217h-1.56q.01.399.2.605.192.207.54.207.365 0 .723-.153v.306q-.182.079-.345.112-.162.035-.391.035zm-.093-2.061q-.273 0-.436.178-.161.177-.19.492h1.184q0-.325-.145-.496-.144-.174-.413-.174zM109.125 57.569h-.019q-.237.345-.71.345-.445 0-.693-.304-.246-.304-.246-.864t.248-.87q.248-.31.69-.31.461 0 .707.334h.027l-.014-.163-.009-.159v-.922h.343v3.216h-.279zm-.686.057q.351 0 .508-.19.16-.192.16-.618v-.072q0-.482-.162-.686-.16-.207-.51-.207-.302 0-.464.236-.159.233-.159.661 0 .434.16.655.159.221.467.221zM112.033 55.607v.217l-.42.05q.058.072.104.19.045.116.045.262 0 .333-.227.532-.227.198-.624.198-.101 0-.19-.017-.22.116-.22.292 0 .093.077.138.076.044.263.044h.4q.368 0 .565.155.198.155.198.45 0 .377-.302.573-.301.198-.88.198-.444 0-.686-.165-.24-.165-.24-.467 0-.207.132-.358.132-.15.372-.204-.087-.04-.147-.122-.057-.083-.057-.193 0-.124.066-.217t.209-.18q-.176-.072-.288-.245-.11-.174-.11-.397 0-.372.224-.573.223-.202.632-.202.178 0 .32.041zm-1.806 2.646q0 .184.155.279.155.095.444.095.432 0 .639-.13.209-.128.209-.35 0-.184-.114-.256-.114-.07-.428-.07h-.411q-.234 0-.364.111-.13.112-.13.32zm.186-1.92q0 .237.134.36.134.121.374.121.502 0 .502-.488 0-.51-.508-.51-.242 0-.372.13t-.13.386zM113.46 57.914q-.503 0-.794-.306-.29-.306-.29-.85 0-.547.27-.87.27-.322.725-.322.425 0 .673.28.249.28.249.739v.217h-1.561q.01.399.2.605.193.207.54.207.366 0 .723-.153v.306q-.182.079-.345.112-.161.035-.39.035zm-.094-2.061q-.272 0-.436.178-.16.177-.19.492h1.185q0-.325-.145-.496-.145-.174-.414-.174z"/></g><path d="M57.506 17.506l7.118-3.202" fill="#131516" stroke="#131516" stroke-width=".239" marker-start="url(#h)" transform="translate(23.901 44.891)"/><g style="line-height:1.25" aria-label="Margin box" font-weight="400" font-size="4.233" font-family="Open Sans" letter-spacing="0" word-spacing="0" fill="#131516" stroke-width=".265"><path style="-inkscape-font-specification:'Open Sans'" d="M1.841 3.225L.816.545H.8q.028.319.028.757v1.923H.504V.203h.53l.956 2.492h.017L2.972.203h.525v3.022h-.351V1.277q0-.334.029-.727h-.017L2.125 3.225zM5.665 3.225l-.068-.323h-.016q-.17.213-.34.29-.167.074-.419.074-.337 0-.53-.174-.19-.173-.19-.494 0-.686 1.098-.719l.385-.012v-.141q0-.267-.116-.393-.114-.128-.366-.128-.283 0-.64.174l-.106-.263q.167-.09.366-.142.2-.052.4-.052.406 0 .6.18.197.18.197.576v1.547zm-.775-.242q.32 0 .503-.176.184-.176.184-.492V2.11l-.344.015q-.409.014-.59.128-.18.112-.18.35 0 .185.111.283.114.097.316.097zM7.662.918q.151 0 .271.025l-.048.318q-.14-.031-.248-.031-.275 0-.47.223-.195.223-.195.556v1.216h-.343V.959h.283l.04.42h.016q.126-.221.304-.341.177-.12.39-.12zM10.21.96v.216l-.419.05q.058.072.104.19.045.116.045.262 0 .333-.227.532-.228.198-.625.198-.1 0-.19-.016-.219.115-.219.291 0 .093.077.139.076.043.262.043h.401q.368 0 .564.155.199.155.199.45 0 .377-.302.573-.302.199-.88.199-.445 0-.687-.166-.24-.165-.24-.467 0-.207.133-.358.132-.15.372-.204-.087-.04-.147-.122-.058-.083-.058-.192 0-.124.066-.217.067-.093.21-.18-.177-.073-.288-.246-.11-.174-.11-.397 0-.372.224-.573.223-.202.632-.202.178 0 .32.041zM8.405 3.604q0 .184.155.279.155.095.445.095.432 0 .638-.13.21-.128.21-.35 0-.183-.114-.256-.114-.07-.428-.07h-.412q-.233 0-.364.112-.13.111-.13.32zm.186-1.92q0 .237.135.36.134.121.374.121.502 0 .502-.488 0-.51-.508-.51-.242 0-.372.13t-.13.387zM11.023 3.225h-.343V.959h.343zm-.372-2.88q0-.118.058-.171.058-.056.145-.056.082 0 .142.056.06.055.06.171 0 .116-.06.174-.06.056-.142.056-.087 0-.145-.056-.058-.058-.058-.174zM13.305 3.225V1.759q0-.277-.126-.413-.126-.137-.395-.137-.355 0-.52.192-.166.193-.166.635v1.189h-.343V.959h.279l.056.31h.016q.106-.167.296-.258.19-.093.424-.093.409 0 .616.198.206.197.206.63v1.479zM16.505.922q.447 0 .693.306.248.304.248.862t-.25.868q-.249.308-.69.308-.222 0-.406-.08-.182-.083-.306-.253h-.025l-.072.292h-.246V.008h.343V.79q0 .262-.017.47h.017q.24-.338.711-.338zm-.05.287q-.351 0-.506.203-.155.2-.155.678 0 .477.16.684.158.205.51.205.316 0 .471-.23.155-.231.155-.663 0-.443-.155-.66-.155-.217-.48-.217zM20.003 2.09q0 .554-.28.866-.279.31-.77.31-.304 0-.54-.143-.236-.142-.364-.409t-.128-.624q0-.554.277-.862.277-.31.769-.31.475 0 .754.316.282.316.282.856zm-1.726 0q0 .434.173.661.174.228.51.228.338 0 .511-.226.176-.227.176-.663 0-.432-.176-.655-.173-.226-.514-.226-.337 0-.509.221-.171.222-.171.66zM21.148 2.065L20.36.959h.39l.598.868.595-.868h.387l-.788 1.106.83 1.16h-.39l-.634-.918-.64.918h-.39z"/></g><g style="line-height:1.25" aria-label="Margin area" font-weight="400" font-size="4.233" font-family="Open Sans" letter-spacing="0" word-spacing="0" fill="#131516" stroke-width=".265"><path style="-inkscape-font-specification:'Open Sans'" d="M1.841 57.464L.816 54.785H.8q.028.319.028.757v1.922H.504v-3.022h.53l.956 2.493h.017l.965-2.493h.525v3.022h-.351v-1.947q0-.335.029-.728h-.017l-1.033 2.675zM5.665 57.464l-.068-.322h-.016q-.17.213-.34.29-.167.074-.419.074-.337 0-.53-.174-.19-.174-.19-.494 0-.686 1.098-.72l.385-.012v-.14q0-.267-.116-.393-.114-.128-.366-.128-.283 0-.64.173l-.106-.262q.167-.091.366-.143.2-.052.4-.052.406 0 .6.18.197.18.197.577v1.546zm-.775-.242q.32 0 .503-.175.184-.176.184-.492v-.205l-.344.015q-.409.014-.59.128-.18.111-.18.349 0 .186.111.283.114.097.316.097zM7.662 55.157q.151 0 .271.025l-.048.318q-.14-.03-.248-.03-.275 0-.47.223-.195.223-.195.556v1.215h-.343V55.2h.283l.04.42h.016q.126-.222.304-.342.177-.12.39-.12zM10.21 55.199v.217l-.419.05q.058.072.104.19.045.115.045.262 0 .333-.227.531-.228.199-.625.199-.1 0-.19-.017-.219.116-.219.292 0 .093.077.138.076.044.262.044h.401q.368 0 .564.155.199.155.199.45 0 .376-.302.573-.302.198-.88.198-.445 0-.687-.165-.24-.166-.24-.467 0-.207.133-.358.132-.15.372-.205-.087-.039-.147-.122-.058-.082-.058-.192 0-.124.066-.217.067-.093.21-.18-.177-.072-.288-.246-.11-.173-.11-.396 0-.373.224-.573.223-.203.632-.203.178 0 .32.042zm-1.806 2.646q0 .183.155.279.155.095.445.095.432 0 .638-.13.21-.129.21-.35 0-.184-.114-.256-.114-.07-.428-.07h-.412q-.233 0-.364.111-.13.112-.13.32zm.186-1.92q0 .237.135.359.134.122.374.122.502 0 .502-.488 0-.51-.508-.51-.242 0-.372.13t-.13.386zM11.023 57.464h-.343V55.2h.343zm-.372-2.88q0-.117.058-.17.058-.057.145-.057.082 0 .142.056.06.056.06.172 0 .116-.06.173-.06.056-.142.056-.087 0-.145-.056-.058-.057-.058-.173zM13.305 57.464V56q0-.277-.126-.414-.126-.136-.395-.136-.355 0-.52.192-.166.192-.166.635v1.188h-.343V55.2h.279l.056.31h.016q.106-.168.296-.259.19-.093.424-.093.409 0 .616.199.206.196.206.63v1.478zM16.844 57.464l-.068-.322h-.017q-.17.213-.339.29-.167.074-.42.074-.336 0-.528-.174-.19-.174-.19-.494 0-.686 1.097-.72l.384-.012v-.14q0-.267-.115-.393-.114-.128-.366-.128-.283 0-.641.173l-.105-.262q.167-.091.365-.143.201-.052.401-.052.406 0 .6.18.196.18.196.577v1.546zm-.775-.242q.32 0 .502-.175.184-.176.184-.492v-.205l-.343.015q-.41.014-.591.128-.18.111-.18.349 0 .186.112.283.113.097.316.097zM18.84 55.157q.152 0 .272.025l-.048.318q-.14-.03-.248-.03-.275 0-.471.223-.195.223-.195.556v1.215h-.343V55.2h.283l.04.42h.016q.126-.222.304-.342.178-.12.39-.12zM20.492 57.506q-.502 0-.793-.306-.29-.306-.29-.85 0-.548.269-.87.27-.323.726-.323.425 0 .673.281.248.28.248.738v.217h-1.56q.01.4.2.606.193.207.54.207.366 0 .723-.153v.306q-.182.078-.345.111-.161.036-.39.036zm-.093-2.061q-.272 0-.436.177-.161.178-.19.492h1.184q0-.324-.144-.496-.145-.173-.414-.173zM23.302 57.464l-.069-.322h-.016q-.17.213-.34.29-.167.074-.419.074-.337 0-.529-.174-.19-.174-.19-.494 0-.686 1.097-.72l.385-.012v-.14q0-.267-.116-.393-.114-.128-.366-.128-.283 0-.64.173l-.106-.262q.168-.091.366-.143.2-.052.401-.052.405 0 .6.18.196.18.196.577v1.546zm-.776-.242q.32 0 .503-.175.184-.176.184-.492v-.205l-.343.015q-.41.014-.592.128-.18.111-.18.349 0 .186.112.283.114.097.316.097z"/></g></svg>