<svg xmlns="http://www.w3.org/2000/svg" xmlns:xlink="http://www.w3.org/1999/xlink" viewBox="0 0 101.307 77.079" height="291.324" width="382.893"><defs><pattern patternTransform="matrix(.21001 0 0 .09626 138.994 201.677)" id="d" xlink:href="#a"/><pattern patternTransform="matrix(.02674 -.1026 .16824 .04386 29.63 127.384)" id="e" xlink:href="#b"/><pattern patternTransform="matrix(.21001 0 0 .09626 139.382 201.14)" id="a" xlink:href="#c"/><pattern patternUnits="userSpaceOnUse" height="30.236" width="30.236" y="0" x="0" id="c"><path d="M-3.78 3.78l7.56-7.56M-3.78 34.016L34.016-3.78M26.457 34.016l7.559-7.56" stroke="#00075f" stroke-width=".945"/></pattern><pattern patternUnits="userSpaceOnUse" height="30.236" width="30.236" y="0" x="0" id="b"><path d="M-3.78 3.78l7.56-7.56M-3.78 34.016L34.016-3.78M26.457 34.016l7.559-7.56" stroke="#008638" stroke-width=".945"/></pattern><marker id="f" refX="0" refY="0" orient="auto" overflow="visible"><path d="M-4.616 0l6.92-4v8z" fill="#131516" fill-rule="evenodd" stroke="#131516" stroke-width="1.0664"/></marker><marker id="g" refX="0" refY="0" orient="auto" overflow="visible"><path d="M-4.616 0l6.92-4v8z" fill="#131516" fill-rule="evenodd" stroke="#131516" stroke-width="1.0664"/></marker></defs><g style="line-height:1.25" aria-label="Padding box" font-weight="400" font-size="4.233" font-family="Open Sans" letter-spacing="0" word-spacing="0" fill="#131516" stroke-width=".265"><path style="-inkscape-font-specification:'Open Sans'" d="M2.184 1.083q0 .46-.314.707-.312.247-.895.247H.62v1.188H.269V.203h.783q1.132 0 1.132.88zM.62 1.735h.316q.467 0 .676-.151.209-.151.209-.484 0-.3-.197-.447-.196-.146-.611-.146H.62zM4.156 3.225l-.068-.322H4.07q-.17.213-.339.29-.167.074-.42.074-.336 0-.528-.174-.19-.174-.19-.494 0-.687 1.097-.72l.384-.012v-.14q0-.267-.115-.393-.114-.129-.366-.129-.283 0-.64.174l-.106-.263q.167-.09.366-.142.2-.052.4-.052.406 0 .6.18.196.18.196.577v1.546zm-.775-.242q.32 0 .502-.175.184-.176.184-.492V2.11l-.343.014q-.41.015-.591.129-.18.111-.18.349 0 .186.112.283.113.097.316.097zM6.66 2.921h-.018q-.238.346-.71.346-.445 0-.693-.304-.246-.304-.246-.864t.248-.87q.248-.311.69-.311.461 0 .707.335h.027L6.65 1.09 6.642.93V.008h.343v3.217h-.279zm-.685.058q.35 0 .508-.19.16-.192.16-.618v-.072q0-.482-.162-.687-.16-.207-.51-.207-.302 0-.464.236-.159.234-.159.662 0 .434.16.655.159.221.467.221zM9.256 2.921h-.018q-.238.346-.711.346-.445 0-.693-.304-.245-.304-.245-.864t.248-.87q.248-.311.69-.311.46 0 .707.335h.026l-.014-.163-.008-.16V.008h.343v3.217H9.3zm-.686.058q.352 0 .509-.19.159-.192.159-.618v-.072q0-.482-.161-.687-.16-.207-.51-.207-.303 0-.464.236-.159.234-.159.662 0 .434.16.655.158.221.466.221zM10.653 3.225h-.343V.96h.343zm-.372-2.88q0-.118.058-.171.058-.056.145-.056.083 0 .142.056.06.055.06.171 0 .116-.06.174-.06.056-.142.056-.087 0-.145-.056-.058-.058-.058-.174zM12.935 3.225V1.76q0-.277-.126-.413-.126-.137-.395-.137-.355 0-.52.193-.166.192-.166.635v1.188h-.343V.96h.279l.056.31h.016q.106-.167.296-.258.19-.093.423-.093.41 0 .616.198.207.197.207.631v1.478zM15.834.96v.216l-.42.05q.059.072.104.19.046.116.046.263 0 .333-.228.531-.227.199-.624.199-.101 0-.19-.017-.22.116-.22.292 0 .093.077.138.077.044.263.044h.4q.369 0 .565.155.198.155.198.45 0 .377-.301.573-.302.199-.88.199-.445 0-.687-.166-.24-.165-.24-.467 0-.207.133-.358.132-.15.372-.204-.087-.04-.147-.122-.058-.083-.058-.193 0-.124.066-.217t.209-.18q-.176-.072-.287-.246-.11-.173-.11-.397 0-.372.223-.572.224-.203.633-.203.177 0 .32.041zm-1.806 2.646q0 .184.155.279.155.095.444.095.432 0 .639-.13.209-.128.209-.35 0-.184-.114-.256-.114-.07-.428-.07h-.411q-.234 0-.364.111-.13.112-.13.32zm.186-1.921q0 .238.134.36.135.122.374.122.503 0 .503-.488 0-.51-.509-.51-.242 0-.372.13t-.13.386zM18.457.922q.446 0 .692.306.248.304.248.862t-.25.869q-.248.308-.69.308-.221 0-.405-.081-.182-.083-.306-.252h-.025l-.072.291h-.246V.008h.343V.79q0 .262-.017.471h.017q.24-.339.71-.339zm-.05.287q-.351 0-.506.203-.155.2-.155.678 0 .478.159.685.16.204.51.204.317 0 .472-.23.155-.23.155-.663 0-.442-.155-.66-.155-.217-.48-.217zM21.954 2.09q0 .554-.28.867-.278.31-.77.31-.304 0-.54-.143-.235-.143-.363-.41-.129-.266-.129-.624 0-.554.277-.862.277-.31.77-.31.474 0 .753.316.282.317.282.856zm-1.726 0q0 .434.173.662.174.227.51.227.338 0 .511-.225.176-.227.176-.664 0-.432-.176-.655-.173-.226-.514-.226-.337 0-.509.222-.171.22-.171.66zM23.098 2.065L22.311.96h.39l.598.869.595-.869h.387l-.788 1.106.829 1.16h-.389l-.634-.918-.64.918h-.39z"/></g><path d="M31.532 84.963h61.555c.477 0 .86.383.86.86v27.024c0 .476-.383.86-.86.86H31.532a.858.858 0 01-.86-.86V85.823c0-.477.384-.86.86-.86z" fill="url(#d)" transform="translate(-30.515 -79.302)"/><path d="M.157 5.66h63.228v28.745H.157z" fill="none" stroke="#131516" stroke-width=".264" stroke-miterlimit="2.4" stroke-dasharray="2.11588945,1.05794472"/><path d="M8.592 13.85h54.79v12.366H8.593z" fill="none" stroke="#374047" stroke-width=".265" stroke-miterlimit="2.4"/><path d="M29.772 18.029h15.974v3.434H29.772z" fill="#fff"/><path d="M30.672 127.505H93.9v28.744H30.672z" fill="url(#e)" stroke="#131516" stroke-width=".264" stroke-miterlimit="2.4" stroke-dasharray="2.11588947,1.05794473" transform="translate(-30.515 -79.302)"/><path d="M8.592 56.392h54.79v12.366H8.593z" fill="#fffcfc" stroke="#374047" stroke-width=".265" stroke-miterlimit="2.4"/><path d="M29.525 50.242h16.653v4.541H29.525z" fill="#fff"/><g style="line-height:1.25" aria-label="Padding" font-weight="400" font-size="4.233" font-family="Open Sans" letter-spacing="0" word-spacing="0" fill="#131516" stroke-width=".265"><path style="-inkscape-font-specification:'Open Sans'" d="M31.938 51.467q0 .459-.314.707-.312.246-.895.246h-.355v1.189h-.351v-3.023h.783q1.132 0 1.132.88zm-1.564.65h.316q.467 0 .676-.15.209-.151.209-.484 0-.3-.197-.446-.196-.147-.611-.147h-.393zM33.91 53.609l-.068-.323h-.017q-.17.213-.339.29-.167.074-.42.074-.336 0-.528-.174-.19-.173-.19-.494 0-.686 1.097-.72l.384-.012v-.14q0-.267-.115-.393-.114-.128-.366-.128-.283 0-.64.173l-.106-.262q.167-.091.366-.143.2-.052.4-.052.406 0 .6.18.196.18.196.577v1.547zm-.775-.242q.32 0 .502-.176.184-.176.184-.492v-.205l-.343.015q-.41.014-.591.128-.18.111-.18.35 0 .185.112.283.113.097.316.097zM36.415 53.305h-.019q-.238.345-.71.345-.445 0-.693-.304-.246-.304-.246-.864t.248-.87q.248-.31.69-.31.461 0 .707.334h.027l-.015-.163-.008-.16v-.922h.343v3.218h-.279zm-.686.058q.35 0 .508-.19.16-.193.16-.619v-.072q0-.482-.162-.687-.16-.206-.51-.206-.302 0-.463.235-.16.234-.16.662 0 .434.16.655.159.221.467.221zM39.01 53.305h-.018q-.238.345-.711.345-.444 0-.692-.304-.246-.304-.246-.864t.248-.87q.248-.31.69-.31.46 0 .707.334h.027L39 51.473l-.008-.16v-.922h.343v3.218h-.28zm-.686.058q.352 0 .509-.19.159-.193.159-.619v-.072q0-.482-.161-.687-.16-.206-.51-.206-.303 0-.464.235-.159.234-.159.662 0 .434.16.655.158.221.466.221zM40.407 53.609h-.343v-2.266h.343zm-.372-2.88q0-.118.058-.172.058-.056.145-.056.083 0 .143.056.06.056.06.172 0 .115-.06.173-.06.056-.143.056-.087 0-.145-.056-.058-.058-.058-.173zM42.689 53.609v-1.466q0-.277-.126-.414-.126-.136-.395-.136-.355 0-.52.192-.166.192-.166.635v1.189h-.343v-2.266h.279l.056.31h.016q.106-.168.296-.259.19-.093.423-.093.41 0 .616.199.207.196.207.63v1.479zM45.588 51.343v.217l-.42.05q.059.072.104.19.046.115.046.262 0 .333-.228.531-.227.199-.624.199-.101 0-.19-.017-.219.116-.219.292 0 .093.076.138.077.044.263.044h.4q.369 0 .565.155.198.155.198.45 0 .377-.301.573-.302.199-.88.199-.445 0-.687-.166-.24-.165-.24-.467 0-.207.133-.358.132-.15.372-.204-.087-.04-.147-.122-.058-.083-.058-.193 0-.124.066-.217t.209-.18q-.176-.072-.287-.246-.11-.173-.11-.396 0-.373.223-.573.224-.203.633-.203.178 0 .32.042zm-1.806 2.646q0 .184.155.28.155.094.444.094.432 0 .639-.13.209-.128.209-.35 0-.183-.114-.256-.114-.07-.428-.07h-.41q-.234 0-.365.111-.13.112-.13.321zm.186-1.92q0 .237.134.359.135.122.375.122.502 0 .502-.488 0-.51-.509-.51-.241 0-.372.13-.13.13-.13.386z"/></g><g style="line-height:1.25" aria-label="Content" font-weight="400" font-size="4.233" font-family="Open Sans" letter-spacing="0" word-spacing="0" fill="#131516" stroke-width=".265"><path style="-inkscape-font-specification:'Open Sans'" d="M31.481 61.005q-.498 0-.787.333-.288.33-.288.908 0 .593.277.918.28.322.794.322.316 0 .721-.114v.308q-.314.118-.775.118-.667 0-1.031-.405-.362-.405-.362-1.152 0-.467.174-.818.176-.352.504-.542.33-.19.777-.19.476 0 .831.173l-.149.302q-.343-.16-.686-.16zM34.76 62.622q0 .554-.278.866-.28.31-.771.31-.304 0-.54-.142-.235-.143-.363-.41-.128-.266-.128-.624 0-.554.277-.862.277-.31.768-.31.476 0 .755.316.28.316.28.856zm-1.725 0q0 .434.174.661.173.228.51.228t.51-.225q.176-.228.176-.664 0-.432-.175-.656-.174-.225-.515-.225-.337 0-.508.221-.172.222-.172.66zM36.91 63.757V62.29q0-.277-.126-.413-.126-.137-.395-.137-.355 0-.52.192-.166.193-.166.635v1.189h-.343V61.49h.28l.055.31h.016q.106-.167.296-.258.19-.093.424-.093.409 0 .615.198.207.197.207.63v1.479zM38.687 63.515q.091 0 .176-.012.085-.015.134-.03v.263q-.055.027-.165.044-.107.018-.194.018-.657 0-.657-.692v-1.348h-.325v-.166l.325-.142.144-.484h.199v.525h.657v.267h-.657v1.333q0 .205.097.314.097.11.266.11zM40.409 63.798q-.502 0-.794-.306-.29-.306-.29-.85 0-.547.27-.87.27-.322.725-.322.426 0 .674.28.248.28.248.739v.217h-1.56q.01.399.2.606.192.207.54.207.365 0 .723-.153v.305q-.182.08-.346.112-.16.035-.39.035zm-.093-2.061q-.273 0-.436.178-.161.178-.19.492h1.184q0-.325-.145-.496-.144-.174-.413-.174zM43.374 63.757V62.29q0-.277-.126-.413-.126-.137-.394-.137-.356 0-.521.192-.165.193-.165.635v1.189h-.344V61.49h.28l.055.31h.017q.105-.167.295-.258.19-.093.424-.093.41 0 .616.198.206.197.206.63v1.479zM45.152 63.515q.09 0 .175-.012.085-.015.135-.03v.263q-.056.027-.166.044-.107.018-.194.018-.657 0-.657-.692v-1.348h-.325v-.166l.325-.142.145-.484h.198v.525h.657v.267h-.657v1.333q0 .205.097.314.097.11.267.11z"/></g><path d="M96.493 114.815l7.118 3.202" fill="#131516" stroke="#131516" stroke-width=".239" marker-start="url(#f)" transform="translate(-30.515 -79.302)"/><g style="line-height:1.25" aria-label="Padding area" font-weight="400" font-size="4.233" font-family="Open Sans" letter-spacing="0" word-spacing="0" fill="#131516" stroke-width=".265"><path style="-inkscape-font-specification:'Open Sans'" d="M2.184 43.626q0 .459-.314.707-.312.246-.895.246H.62v1.189H.269v-3.023h.783q1.132 0 1.132.88zm-1.564.651h.316q.467 0 .676-.15.209-.152.209-.485 0-.3-.197-.446-.196-.147-.611-.147H.62zM4.156 45.768l-.068-.323H4.07q-.17.213-.339.29-.167.074-.42.074-.336 0-.528-.174-.19-.173-.19-.494 0-.686 1.097-.72l.384-.012v-.14q0-.267-.115-.393-.114-.128-.366-.128-.283 0-.64.173l-.106-.262q.167-.091.366-.143.2-.052.4-.052.406 0 .6.18.196.18.196.577v1.547zm-.775-.242q.32 0 .502-.176.184-.176.184-.492v-.205l-.343.015q-.41.014-.591.128-.18.112-.18.35 0 .185.112.283.113.097.316.097zM6.66 45.464h-.018q-.238.345-.71.345-.445 0-.693-.304-.246-.304-.246-.864t.248-.87q.248-.31.69-.31.461 0 .707.334h.027l-.015-.163-.008-.16v-.921h.343v3.217h-.279zm-.685.058q.35 0 .508-.19.16-.193.16-.619v-.072q0-.482-.162-.687-.16-.206-.51-.206-.302 0-.464.235-.159.234-.159.662 0 .434.16.655.159.222.467.222zM9.256 45.464h-.018q-.238.345-.711.345-.445 0-.693-.304-.245-.304-.245-.864t.248-.87q.248-.31.69-.31.46 0 .707.334h.026l-.014-.163-.008-.16v-.921h.343v3.217H9.3zm-.686.058q.352 0 .509-.19.159-.193.159-.619v-.072q0-.482-.161-.687-.16-.206-.51-.206-.303 0-.464.235-.159.234-.159.662 0 .434.16.655.158.222.466.222zM10.653 45.768h-.343v-2.266h.343zm-.372-2.88q0-.118.058-.172.058-.056.145-.056.083 0 .142.056.06.056.06.172 0 .115-.06.173-.06.056-.142.056-.087 0-.145-.056-.058-.058-.058-.173zM12.935 45.768v-1.466q0-.277-.126-.414-.126-.136-.395-.136-.355 0-.52.192-.166.192-.166.635v1.189h-.343v-2.266h.279l.056.31h.016q.106-.168.296-.259.19-.093.423-.093.41 0 .616.199.207.196.207.63v1.479zM15.834 43.502v.217l-.42.05q.059.072.104.19.046.115.046.262 0 .333-.228.532-.227.198-.624.198-.101 0-.19-.017-.22.116-.22.292 0 .093.077.139.077.043.263.043h.4q.369 0 .565.155.198.155.198.45 0 .377-.301.573-.302.199-.88.199-.445 0-.687-.165-.24-.166-.24-.468 0-.207.133-.357.132-.151.372-.205-.087-.04-.147-.122-.058-.083-.058-.192 0-.124.066-.217t.209-.18q-.176-.073-.287-.246-.11-.174-.11-.397 0-.372.223-.573.224-.203.633-.203.177 0 .32.042zm-1.806 2.646q0 .184.155.28.155.094.444.094.432 0 .639-.13.209-.128.209-.35 0-.183-.114-.256-.114-.07-.428-.07h-.411q-.234 0-.364.112-.13.111-.13.32zm.186-1.92q0 .237.134.36.135.121.374.121.503 0 .503-.488 0-.51-.509-.51-.242 0-.372.13t-.13.386zM18.796 45.768l-.068-.323h-.017q-.17.213-.339.29-.167.074-.42.074-.336 0-.528-.174-.19-.173-.19-.494 0-.686 1.097-.72l.384-.012v-.14q0-.267-.116-.393-.113-.128-.365-.128-.283 0-.641.173l-.105-.262q.167-.091.365-.143.2-.052.401-.052.405 0 .6.18.196.18.196.577v1.547zm-.775-.242q.32 0 .502-.176.184-.176.184-.492v-.205l-.343.015q-.41.014-.591.128-.18.112-.18.35 0 .185.112.283.113.097.316.097zM20.792 43.46q.15 0 .27.025l-.047.319q-.14-.031-.248-.031-.275 0-.47.223-.195.223-.195.556v1.216h-.343v-2.266h.283l.04.42h.016q.126-.222.303-.342.178-.12.391-.12zM22.443 45.809q-.502 0-.793-.306-.29-.306-.29-.85 0-.548.27-.87.27-.323.724-.323.426 0 .674.282.248.279.248.738v.217h-1.56q.01.399.2.605.193.207.54.207.365 0 .723-.153v.306q-.182.079-.345.112-.161.035-.39.035zm-.093-2.061q-.272 0-.436.178-.161.177-.19.492h1.184q0-.325-.144-.497-.145-.173-.414-.173zM25.252 45.768l-.068-.323h-.017q-.17.213-.339.29-.167.074-.42.074-.336 0-.528-.174-.19-.173-.19-.494 0-.686 1.097-.72l.384-.012v-.14q0-.267-.116-.393-.113-.128-.365-.128-.283 0-.641.173l-.105-.262q.167-.091.365-.143.2-.052.401-.052.405 0 .6.18.196.18.196.577v1.547zm-.775-.242q.32 0 .502-.176.184-.176.184-.492v-.205l-.343.015q-.41.014-.591.128-.18.112-.18.35 0 .185.112.283.113.097.316.097z"/></g><g style="line-height:1.25" aria-label="Padding edge" font-weight="400" font-size="4.233" font-family="Open Sans" letter-spacing="0" word-spacing="0" fill="#131516" stroke-width=".265"><path style="-inkscape-font-specification:'Open Sans'" d="M76.75 40.542q0 .459-.314.707-.312.246-.895.246h-.355v1.189h-.352v-3.022h.784q1.132 0 1.132.88zm-1.564.651h.316q.467 0 .676-.15.209-.152.209-.484 0-.3-.197-.447-.196-.147-.612-.147h-.392zM78.722 42.684l-.068-.323h-.016q-.17.213-.34.29-.167.074-.419.074-.337 0-.53-.174-.19-.173-.19-.494 0-.686 1.098-.719l.385-.012v-.141q0-.267-.116-.393-.114-.128-.366-.128-.283 0-.64.174l-.106-.263q.167-.09.366-.142.2-.052.4-.052.406 0 .6.18.197.18.197.576v1.547zm-.775-.242q.32 0 .503-.176.184-.176.184-.492v-.205l-.344.015q-.409.014-.59.128-.18.112-.18.35 0 .185.111.283.114.097.316.097zM81.228 42.38h-.019q-.238.345-.711.345-.444 0-.692-.304-.246-.304-.246-.864t.248-.87q.248-.31.69-.31.461 0 .707.335h.027l-.015-.164-.008-.159v-.922h.343v3.217h-.279zm-.687.058q.352 0 .509-.19.16-.193.16-.619v-.072q0-.481-.162-.686-.16-.207-.51-.207-.302 0-.464.236-.159.233-.159.661 0 .434.16.656.158.22.466.22zM83.824 42.38h-.019q-.237.345-.71.345-.445 0-.693-.304-.246-.304-.246-.864t.248-.87q.248-.31.69-.31.461 0 .707.335h.027l-.014-.164-.008-.159v-.922h.343v3.217h-.28zm-.686.058q.351 0 .508-.19.16-.193.16-.619v-.072q0-.481-.162-.686-.16-.207-.51-.207-.302 0-.464.236-.159.233-.159.661 0 .434.16.656.159.22.467.22zM85.221 42.684h-.343v-2.266h.343zm-.372-2.88q0-.118.058-.171.058-.056.145-.056.082 0 .142.056.06.055.06.171 0 .116-.06.174-.06.056-.142.056-.087 0-.145-.056-.058-.058-.058-.174zM87.503 42.684v-1.466q0-.277-.126-.413-.126-.137-.395-.137-.355 0-.52.192-.166.193-.166.635v1.189h-.343v-2.266h.279l.056.31h.016q.106-.167.296-.258.19-.093.424-.093.409 0 .616.198.206.197.206.63v1.479zM90.403 40.418v.217l-.42.05q.059.072.104.19.046.116.046.262 0 .333-.228.532-.227.198-.624.198-.101 0-.19-.016-.22.115-.22.291 0 .093.077.139.077.043.263.043h.4q.369 0 .565.155.198.155.198.45 0 .377-.301.573-.302.199-.88.199-.445 0-.687-.166-.24-.165-.24-.467 0-.207.132-.357.133-.151.372-.205-.086-.04-.146-.122-.058-.083-.058-.192 0-.124.066-.217t.209-.18q-.176-.073-.288-.246-.11-.174-.11-.397 0-.372.224-.573.223-.202.633-.202.177 0 .32.041zm-1.806 2.646q0 .184.155.279.155.095.444.095.432 0 .639-.13.209-.128.209-.35 0-.183-.114-.256-.114-.07-.428-.07h-.411q-.234 0-.364.112-.13.111-.13.32zm.186-1.92q0 .237.134.36.135.121.374.121.503 0 .503-.488 0-.51-.509-.51-.242 0-.372.13t-.13.387zM92.93 42.725q-.503 0-.794-.306-.29-.306-.29-.85 0-.547.269-.87.27-.322.725-.322.426 0 .674.28.248.28.248.739v.217h-1.56q.01.399.2.606.192.206.54.206.366 0 .723-.153v.306q-.182.079-.345.112-.161.035-.39.035zm-.094-2.06q-.273 0-.436.177-.161.178-.19.492h1.184q0-.325-.144-.496-.145-.174-.414-.174zM95.887 42.38h-.018q-.238.345-.711.345-.445 0-.693-.304-.246-.304-.246-.864t.248-.87q.248-.31.69-.31.462 0 .708.335h.026l-.014-.164-.008-.159v-.922h.343v3.217h-.279zm-.686.058q.351 0 .508-.19.16-.193.16-.619v-.072q0-.481-.162-.686-.159-.207-.51-.207-.302 0-.463.236-.16.233-.16.661 0 .434.16.656.159.22.467.22zM98.796 40.418v.217l-.42.05q.058.072.103.19.046.116.046.262 0 .333-.228.532-.227.198-.624.198-.101 0-.19-.016-.219.115-.219.291 0 .093.076.139.077.043.263.043h.401q.368 0 .564.155.199.155.199.45 0 .377-.302.573-.302.199-.88.199-.445 0-.687-.166-.24-.165-.24-.467 0-.207.133-.357.132-.151.372-.205-.087-.04-.147-.122-.058-.083-.058-.192 0-.124.066-.217t.209-.18q-.176-.073-.287-.246-.11-.174-.11-.397 0-.372.223-.573.224-.202.633-.202.178 0 .32.041zm-1.807 2.646q0 .184.155.279.155.095.444.095.432 0 .64-.13.208-.128.208-.35 0-.183-.114-.256-.113-.07-.428-.07h-.411q-.234 0-.364.112-.13.111-.13.32zm.186-1.92q0 .237.134.36.135.121.375.121.502 0 .502-.488 0-.51-.509-.51-.242 0-.372.13t-.13.387zM100.222 42.725q-.502 0-.794-.306-.29-.306-.29-.85 0-.547.27-.87.27-.322.725-.322.426 0 .674.28.248.28.248.739v.217h-1.56q.01.399.2.606.192.206.54.206.365 0 .723-.153v.306q-.182.079-.345.112-.162.035-.391.035zm-.093-2.06q-.273 0-.436.177-.162.178-.19.492h1.184q0-.325-.145-.496-.144-.174-.413-.174z"/></g><path d="M96.493 126.51l7.118-3.201" fill="#131516" stroke="#131516" stroke-width=".239" marker-start="url(#g)" transform="translate(-30.515 -79.302)"/><g style="line-height:1.25" aria-label="Content" font-weight="400" font-size="4.233" font-family="Open Sans" letter-spacing="0" word-spacing="0" fill="#131516" stroke-width=".265"><path style="-inkscape-font-specification:'Open Sans'" d="M31.481 18.463q-.498 0-.787.333-.287.33-.287.907 0 .594.276.918.28.323.794.323.316 0 .721-.114v.308q-.314.118-.775.118-.667 0-1.031-.405-.362-.406-.362-1.152 0-.467.174-.819.176-.351.504-.541.33-.19.777-.19.476 0 .831.173l-.149.302q-.343-.161-.686-.161zM34.76 20.08q0 .554-.278.866-.28.31-.771.31-.304 0-.54-.143-.235-.142-.363-.41-.128-.266-.128-.623 0-.555.277-.863.277-.31.768-.31.476 0 .755.317.28.316.28.856zm-1.725 0q0 .434.174.661.173.228.51.228t.51-.226q.176-.227.176-.663 0-.433-.175-.656-.174-.225-.515-.225-.337 0-.508.221-.172.221-.172.66zM36.91 21.215v-1.466q0-.277-.126-.414-.126-.136-.395-.136-.355 0-.52.192-.166.192-.166.635v1.189h-.343v-2.266h.28l.055.31h.016q.106-.168.296-.259.19-.093.424-.093.409 0 .615.199.207.196.207.63v1.479zM38.687 20.973q.091 0 .176-.013.085-.014.134-.029v.263q-.055.027-.165.043-.107.019-.194.019-.657 0-.657-.693v-1.348h-.325v-.165l.325-.143.144-.484h.199v.526h.657v.266h-.657v1.334q0 .205.097.314.097.11.266.11zM40.409 21.256q-.502 0-.794-.306-.289-.306-.289-.85 0-.548.269-.87.27-.323.725-.323.426 0 .674.281.248.28.248.739v.217h-1.56q.01.399.2.605.192.207.54.207.365 0 .723-.153v.306q-.182.079-.346.112-.16.035-.39.035zm-.093-2.061q-.273 0-.436.177-.161.178-.19.492h1.184q0-.324-.145-.496-.144-.173-.413-.173zM43.374 21.215v-1.466q0-.277-.126-.414-.126-.136-.394-.136-.356 0-.521.192-.165.192-.165.635v1.189h-.344v-2.266h.28l.055.31h.017q.105-.168.295-.259.19-.093.424-.093.41 0 .616.199.206.196.206.63v1.479zM45.152 20.973q.09 0 .175-.013.085-.014.135-.029v.263q-.056.027-.166.043-.107.019-.194.019-.657 0-.657-.693v-1.348h-.325v-.165l.325-.143.145-.484h.198v.526h.657v.266h-.657v1.334q0 .205.097.314.097.11.267.11z"/></g><path d="M29.54 7.644h16.537v4.624H29.541z" fill="#fff"/><g style="line-height:1.25" aria-label="Padding" font-weight="400" font-size="4.233" font-family="Open Sans" letter-spacing="0" word-spacing="0" fill="#131516" stroke-width=".265"><path style="-inkscape-font-specification:'Open Sans'" d="M31.938 8.924q0 .46-.314.707-.312.246-.895.246h-.355v1.19h-.351V8.042h.783q1.132 0 1.132.881zm-1.564.652h.316q.467 0 .676-.151.209-.151.209-.484 0-.3-.197-.447-.196-.147-.611-.147h-.393zM33.91 11.066l-.068-.322h-.017q-.17.213-.339.29-.167.074-.42.074-.336 0-.528-.174-.19-.174-.19-.494 0-.687 1.097-.72l.384-.012v-.14q0-.267-.115-.394-.114-.128-.366-.128-.283 0-.64.174l-.106-.263q.167-.09.366-.142.2-.052.4-.052.406 0 .6.18.196.18.196.577v1.546zm-.775-.242q.32 0 .502-.175.184-.176.184-.493v-.204l-.343.014q-.41.015-.591.128-.18.112-.18.35 0 .186.112.283.113.097.316.097zM36.415 10.762h-.019q-.238.346-.71.346-.445 0-.693-.304-.246-.304-.246-.865 0-.56.248-.87.248-.31.69-.31.461 0 .707.335h.027l-.015-.164-.008-.159V7.85h.343v3.217h-.279zm-.686.058q.35 0 .508-.19.16-.192.16-.618v-.073q0-.481-.162-.686-.16-.207-.51-.207-.302 0-.463.236-.16.234-.16.662 0 .434.16.655.159.221.467.221zM39.01 10.762h-.018q-.238.346-.711.346-.444 0-.692-.304-.246-.304-.246-.865 0-.56.248-.87.248-.31.69-.31.46 0 .707.335h.027L39 8.93l-.008-.159V7.85h.343v3.217h-.28zm-.686.058q.352 0 .509-.19.159-.192.159-.618v-.073q0-.481-.161-.686-.16-.207-.51-.207-.303 0-.464.236-.159.234-.159.662 0 .434.16.655.158.221.466.221zM40.407 11.066h-.343V8.8h.343zm-.372-2.88q0-.118.058-.171.058-.056.145-.056.083 0 .143.056.06.055.06.171 0 .116-.06.174-.06.056-.143.056-.087 0-.145-.056-.058-.058-.058-.174zM42.689 11.066V9.6q0-.277-.126-.413-.126-.137-.395-.137-.355 0-.52.193-.166.192-.166.634v1.19h-.343V8.8h.279l.056.31h.016q.106-.167.296-.258.19-.093.423-.093.41 0 .616.198.207.197.207.63v1.48zM45.588 8.8v.217l-.42.05q.059.072.104.19.046.116.046.263 0 .333-.228.531-.227.199-.624.199-.101 0-.19-.017-.219.116-.219.291 0 .094.076.139.077.043.263.043h.4q.369 0 .565.155.198.156.198.451 0 .377-.301.573-.302.198-.88.198-.445 0-.687-.165-.24-.165-.24-.467 0-.207.133-.358.132-.15.372-.205-.087-.039-.147-.122-.058-.082-.058-.192 0-.124.066-.217t.209-.18q-.176-.072-.287-.246-.11-.174-.11-.397 0-.372.223-.573.224-.202.633-.202.178 0 .32.041zm-1.806 2.647q0 .184.155.279.155.095.444.095.432 0 .639-.13.209-.129.209-.35 0-.184-.114-.256-.114-.07-.428-.07h-.41q-.234 0-.365.111-.13.112-.13.32zm.186-1.921q0 .238.134.36.135.122.375.122.502 0 .502-.488 0-.511-.509-.511-.241 0-.372.13-.13.13-.13.387z"/></g></svg>