<svg xmlns="http://www.w3.org/2000/svg" viewBox="0 0 103.14 42.333" height="160" width="389.821"><defs><marker id="a" refX="0" refY="0" orient="auto" overflow="visible"><path d="M2.308 0l-3.46 2v-4z" fill-rule="evenodd" stroke="#000" stroke-width=".5332"/></marker><marker id="b" refX="0" refY="0" orient="auto" overflow="visible"><path d="M2.308 0l-3.46 2v-4z" fill="#131516" fill-rule="evenodd" stroke="#131516" stroke-width=".5332"/></marker></defs><g style="line-height:1.25;-inkscape-font-specification:'Open Sans, Normal';font-variant-ligatures:normal;font-variant-caps:normal;font-variant-numeric:normal;font-feature-settings:normal;text-align:start" aria-label="Collapsed margin" font-weight="400" font-size="4.233" font-family="Open Sans" letter-spacing="0" word-spacing="0" stroke-width=".265"><path style="-inkscape-font-specification:'Open Sans, Normal';font-variant-ligatures:normal;font-variant-caps:normal;font-variant-numeric:normal;font-feature-settings:normal;text-align:start" d="M49.08 30.17q-.499 0-.788.333-.287.33-.287.907 0 .593.277.918.279.322.793.322.317 0 .722-.113v.308q-.315.117-.775.117-.668 0-1.032-.405-.362-.405-.362-1.151 0-.467.174-.819.176-.351.504-.541.331-.19.778-.19.475 0 .83.173l-.148.302q-.343-.161-.687-.161zM52.36 31.786q0 .554-.28.866-.278.31-.77.31-.304 0-.54-.142-.235-.143-.364-.41-.128-.266-.128-.624 0-.554.277-.862.277-.31.77-.31.475 0 .754.316.28.317.28.856zm-1.726 0q0 .434.173.662.174.227.511.227t.51-.225q.176-.228.176-.664 0-.432-.175-.655-.174-.225-.515-.225-.337 0-.509.22-.171.222-.171.66zM53.302 32.921h-.343v-3.216h.343zM54.377 32.921h-.343v-3.216h.343zM56.502 32.921l-.068-.322h-.017q-.169.212-.339.289-.167.074-.42.074-.336 0-.528-.173-.19-.174-.19-.494 0-.687 1.097-.72l.385-.012v-.14q0-.267-.116-.393-.114-.129-.366-.129-.283 0-.64.174l-.106-.262q.167-.091.366-.143.2-.052.4-.052.406 0 .6.18.196.18.196.577v1.546zm-.775-.242q.32 0 .502-.176.184-.175.184-.492v-.204l-.343.014q-.41.015-.591.128-.18.112-.18.35 0 .186.112.283.113.097.316.097zM58.52 32.962q-.222 0-.405-.08-.182-.083-.306-.252h-.025q.025.198.025.376v.932h-.344v-3.283h.28l.047.31h.017q.132-.185.308-.268.175-.083.403-.083.45 0 .694.308.246.308.246.864 0 .558-.25.868-.248.308-.69.308zm-.05-2.056q-.347 0-.502.192-.155.192-.16.612v.076q0 .478.16.684.159.205.51.205.294 0 .46-.238.167-.237.167-.655 0-.424-.168-.649-.165-.227-.467-.227zM61.523 32.303q0 .316-.236.488-.235.171-.661.171-.45 0-.703-.142V32.5q.163.083.35.13.188.048.361.048.269 0 .414-.085.144-.086.144-.262 0-.132-.115-.225-.114-.096-.447-.224-.316-.117-.45-.204-.133-.09-.199-.2-.064-.112-.064-.267 0-.277.225-.437.226-.16.618-.16.366 0 .716.148l-.122.279q-.341-.14-.618-.14-.244 0-.368.076t-.124.21q0 .092.045.156.048.064.151.122.103.058.397.167.403.147.543.296.143.149.143.374zM63.036 32.962q-.502 0-.794-.306-.289-.306-.289-.85 0-.547.269-.87.27-.322.725-.322.426 0 .674.281.248.28.248.738v.217h-1.56q.01.4.2.606.192.207.54.207.365 0 .723-.153v.306q-.182.078-.345.111-.161.035-.39.035zm-.093-2.06q-.273 0-.436.177-.161.178-.19.492H63.5q0-.324-.144-.496-.145-.174-.414-.174zM65.994 32.617h-.018q-.238.345-.712.345-.444 0-.692-.304-.246-.303-.246-.864 0-.56.248-.87.248-.31.69-.31.461 0 .707.335h.027l-.014-.163-.009-.16v-.921h.344v3.216h-.28zm-.686.058q.351 0 .508-.19.16-.192.16-.618v-.073q0-.481-.162-.686-.159-.207-.51-.207-.302 0-.463.236-.16.234-.16.662 0 .434.16.655.159.221.467.221zM71.036 32.921v-1.474q0-.27-.116-.405-.116-.136-.36-.136-.32 0-.473.184-.153.184-.153.566v1.265h-.343v-1.474q0-.27-.116-.405-.116-.136-.362-.136-.322 0-.473.194-.149.192-.149.632v1.189h-.343v-2.266h.28l.055.31h.016q.098-.165.273-.258.178-.093.397-.093.531 0 .695.385h.016q.101-.178.294-.281.192-.104.438-.104.384 0 .575.199.192.196.192.63v1.478zM73.477 32.921l-.068-.322h-.017q-.17.212-.339.289-.167.074-.42.074-.336 0-.529-.173-.19-.174-.19-.494 0-.687 1.098-.72l.384-.012v-.14q0-.267-.115-.393-.114-.129-.366-.129-.284 0-.641.174l-.106-.262q.168-.091.366-.143.2-.052.401-.052.405 0 .6.18.196.18.196.577v1.546zm-.775-.242q.32 0 .502-.176.184-.175.184-.492v-.204l-.343.014q-.41.015-.591.128-.18.112-.18.35 0 .186.111.283.114.097.317.097zM75.474 30.614q.15 0 .27.025l-.047.318q-.14-.03-.248-.03-.275 0-.471.223-.195.223-.195.556v1.215h-.343v-2.266h.283l.04.42h.016q.126-.221.304-.341.178-.12.39-.12zM78.022 30.655v.218l-.42.05q.059.071.104.19.046.115.046.262 0 .333-.228.531-.227.199-.624.199-.101 0-.19-.017-.22.116-.22.291 0 .093.077.139.077.043.263.043h.4q.369 0 .565.155.198.155.198.451 0 .376-.301.573-.302.198-.881.198-.444 0-.686-.165-.24-.166-.24-.468 0-.206.132-.357.133-.151.372-.205-.086-.039-.146-.122-.058-.082-.058-.192 0-.124.066-.217t.209-.18q-.176-.072-.288-.246-.11-.173-.11-.397 0-.372.224-.572.223-.203.633-.203.177 0 .32.041zm-1.806 2.646q0 .184.155.28.155.094.444.094.432 0 .639-.13.209-.128.209-.35 0-.183-.114-.255-.114-.07-.428-.07h-.411q-.234 0-.364.11-.13.113-.13.321zm.186-1.92q0 .238.134.36t.374.122q.503 0 .503-.488 0-.51-.509-.51-.242 0-.372.13t-.13.386zM78.835 32.921h-.343v-2.266h.343zm-.372-2.88q0-.117.058-.171.057-.056.144-.056.083 0 .143.056.06.056.06.172 0 .115-.06.173-.06.056-.143.056-.087 0-.144-.056-.058-.058-.058-.173zM81.117 32.921v-1.466q0-.277-.126-.413-.126-.136-.395-.136-.356 0-.521.192-.165.192-.165.634v1.189h-.344v-2.266h.28l.055.31h.017q.105-.167.295-.258.19-.093.424-.093.41 0 .616.199.207.196.207.63v1.478z"/></g><g style="line-height:1.25;-inkscape-font-specification:'Open Sans, Normal';font-variant-ligatures:normal;font-variant-caps:normal;font-variant-numeric:normal;font-feature-settings:normal;text-align:start" aria-label="20 px" font-weight="400" font-size="4.233" font-family="Open Sans" letter-spacing="0" word-spacing="0" fill="#131516" stroke-width=".265"><path style="-inkscape-font-specification:'Open Sans, Normal';font-variant-ligatures:normal;font-variant-caps:normal;font-variant-numeric:normal;font-feature-settings:normal;text-align:start" d="M35.124 32.895h-1.987V32.6l.796-.8q.364-.368.48-.525.115-.158.173-.306.058-.15.058-.32 0-.243-.147-.383-.146-.143-.407-.143-.188 0-.358.062-.167.062-.374.226l-.182-.234q.418-.347.91-.347.426 0 .668.219.241.217.241.585 0 .287-.16.568-.162.281-.604.711l-.662.647v.017h1.555zM37.563 31.38q0 .783-.248 1.17-.246.386-.755.386-.488 0-.742-.394-.254-.397-.254-1.162 0-.79.246-1.172.246-.382.75-.382.492 0 .746.399.257.398.257 1.155zm-1.652 0q0 .66.155.961.155.3.494.3.343 0 .496-.304.155-.306.155-.957t-.155-.953q-.153-.304-.496-.304-.339 0-.494.3-.155.298-.155.957zM40.293 32.936q-.22 0-.405-.08-.182-.083-.306-.252h-.025q.025.198.025.376v.932h-.343V30.63h.28l.047.31h.016q.133-.186.308-.269.176-.083.403-.083.45 0 .695.308.246.308.246.864 0 .558-.25.869-.248.307-.69.307zm-.05-2.056q-.347 0-.502.192-.155.192-.159.612v.076q0 .478.16.685.159.204.51.204.293 0 .459-.238.167-.237.167-.655 0-.424-.167-.649-.166-.227-.467-.227zM42.381 31.736l-.788-1.106h.391l.598.868.595-.868h.386l-.787 1.106.829 1.16h-.389l-.634-.919-.641.918h-.389z"/></g><g fill="#a2000d"><path d="M43.609 38.894h3.969v.794h-3.969zM43.609 23.813h3.969v.793h-3.969z"/><path d="M45.99 23.813v15.875h-.794V23.813z"/></g><path d="M26.194 4.635l7.937 5.292" fill="none" stroke="#000" stroke-width=".265" marker-end="url(#a)" transform="translate(-6.662 28.437)"/><g style="line-height:1.25;-inkscape-font-specification:'Open Sans, Normal';font-variant-ligatures:normal;font-variant-caps:normal;font-variant-numeric:normal;font-feature-settings:normal;text-align:start" aria-label="First child" font-weight="400" font-size="4.233" font-family="Open Sans" letter-spacing="0" word-spacing="0" stroke-width=".265"><path style="-inkscape-font-specification:'Open Sans, Normal';font-variant-ligatures:normal;font-variant-caps:normal;font-variant-numeric:normal;font-feature-settings:normal;text-align:start" d="M.351 33.125H0v-3.022h1.685v.313H.35v1.105h1.253v.313H.351zM2.474 33.125h-.343V30.86h.343zm-.372-2.879q0-.118.058-.172.058-.055.145-.055.082 0 .142.055.06.056.06.172 0 .116-.06.174-.06.055-.142.055-.087 0-.145-.055-.058-.058-.058-.174zM4.24 30.819q.15 0 .27.024l-.047.319q-.14-.031-.248-.031-.275 0-.472.223-.194.223-.194.556v1.215h-.343V30.86h.283l.04.42h.016q.126-.222.304-.342.178-.12.39-.12zM6.395 32.507q0 .317-.235.488-.236.172-.662.172-.45 0-.702-.143v-.318q.163.082.349.13.188.048.362.048.268 0 .413-.085.145-.087.145-.263 0-.132-.116-.225-.114-.095-.446-.223-.317-.118-.451-.205-.132-.089-.199-.2-.064-.112-.064-.267 0-.277.226-.436.225-.161.618-.161.366 0 .715.148l-.122.28q-.341-.141-.618-.141-.244 0-.368.076-.124.077-.124.211 0 .091.045.155.048.064.151.122.104.058.397.168.403.146.544.295.142.15.142.374zM7.683 32.884q.091 0 .176-.013.085-.014.134-.029v.263q-.056.027-.165.043-.108.019-.194.019-.658 0-.658-.693v-1.347h-.324v-.166l.324-.142.145-.484h.198v.525h.658v.267h-.658v1.333q0 .204.098.314.097.11.266.11zM10.453 33.167q-.492 0-.763-.302-.268-.304-.268-.858 0-.568.272-.878.275-.31.782-.31.163 0 .326.035.164.035.257.082l-.106.292q-.113-.046-.248-.075-.134-.03-.237-.03-.69 0-.69.88 0 .418.167.64.17.224.5.224.283 0 .58-.122v.304q-.227.118-.572.118zM13.115 33.125V31.66q0-.277-.126-.414-.126-.136-.394-.136-.358 0-.523.194-.164.195-.164.637v1.184h-.343V29.91h.343v.974q0 .175-.016.291h.02q.102-.163.288-.256.188-.095.428-.095.415 0 .622.198.209.197.209.626v1.478zM14.505 33.125h-.344V30.86h.344zm-.373-2.879q0-.118.058-.172.058-.055.145-.055.083 0 .143.055.06.056.06.172 0 .116-.06.174-.06.055-.143.055-.087 0-.145-.055-.058-.058-.058-.174zM15.58 33.125h-.344V29.91h.343zM17.853 32.822h-.018q-.238.345-.711.345-.445 0-.693-.304-.246-.304-.246-.864t.248-.87q.248-.31.69-.31.461 0 .707.334h.027l-.014-.163-.008-.159v-.922h.343v3.216h-.28zm-.686.057q.351 0 .508-.19.16-.192.16-.618V32q0-.482-.162-.686-.159-.207-.51-.207-.302 0-.463.236-.16.233-.16.661 0 .434.16.655.159.221.467.221z"/></g><path d="M15.828 5.292h87.312v5.291H15.828z" fill="#dfdff9"/><path d="M19.796 5.292h79.375v5.291H19.796z" fill="#705697"/><path d="M19.796 5.292h79.375" fill="#374047" stroke="#131516" stroke-width=".265" stroke-dasharray=".2645833,.79374991"/><g style="line-height:1.25;font-variant-ligatures:normal;font-variant-position:normal;font-variant-caps:normal;font-variant-numeric:normal;font-variant-alternates:normal;font-feature-settings:normal;text-indent:0;text-align:start;text-decoration-line:none;text-decoration-style:solid;text-decoration-color:#000;text-transform:none;text-orientation:mixed;white-space:normal;shape-padding:0" aria-label="Second child" font-weight="400" font-size="4.013" font-family="Open Sans" letter-spacing="0" word-spacing="0" fill="#ececfb" stroke-width=".265"><path style="line-height:1.25;-inkscape-font-specification:'Open Sans';font-variant-ligatures:normal;font-variant-position:normal;font-variant-caps:normal;font-variant-numeric:normal;font-variant-alternates:normal;font-feature-settings:normal;text-indent:0;text-align:start;text-decoration-line:none;text-decoration-style:solid;text-decoration-color:#000;text-transform:none;text-orientation:mixed;white-space:normal;shape-padding:0" d="M24.294 8.833q0 .378-.275.59-.274.211-.744.211-.51 0-.784-.13v-.322q.176.074.384.117.208.043.411.043.334 0 .502-.125.169-.127.169-.353 0-.149-.061-.243-.059-.096-.2-.176-.14-.08-.425-.182-.4-.143-.572-.34-.17-.195-.17-.51 0-.332.248-.528.249-.196.658-.196.428 0 .786.157l-.104.29q-.354-.149-.69-.149-.264 0-.413.114-.149.113-.149.315 0 .15.055.245.055.094.184.175.132.078.4.174.45.16.62.345.17.184.17.478zM25.738 9.634q-.476 0-.753-.29-.274-.29-.274-.805 0-.52.255-.825.256-.306.688-.306.403 0 .638.267.235.264.235.7v.205h-1.479q.01.378.19.574.182.196.512.196.346 0 .685-.145v.29q-.172.075-.327.106-.153.033-.37.033zm-.088-1.953q-.259 0-.414.168-.153.169-.18.467h1.123q0-.308-.138-.47-.137-.165-.391-.165zM27.938 9.634q-.466 0-.723-.286-.255-.288-.255-.813 0-.539.26-.833.26-.294.74-.294.155 0 .31.034.154.033.242.078l-.1.276q-.107-.043-.235-.07-.127-.03-.225-.03-.654 0-.654.835 0 .396.158.608.16.211.474.211.269 0 .551-.115v.288q-.216.111-.543.111zM30.846 8.52q0 .525-.264.82-.265.294-.731.294-.288 0-.512-.135-.223-.135-.345-.388-.121-.253-.121-.592 0-.525.262-.817.263-.294.73-.294.45 0 .715.3.266.3.266.811zm-1.636 0q0 .41.165.626.164.216.484.216.319 0 .484-.214.166-.215.166-.629 0-.41-.166-.62-.165-.214-.488-.214-.32 0-.482.21-.163.209-.163.624zM32.884 9.595v-1.39q0-.262-.12-.391-.12-.13-.374-.13-.337 0-.494.183-.156.182-.156.601v1.127h-.326V7.448h.265l.053.294h.015q.1-.16.28-.245.18-.089.402-.089.388 0 .584.189.196.186.196.597v1.401zM35.337 9.307h-.017q-.226.327-.674.327-.422 0-.657-.288-.233-.288-.233-.819 0-.53.235-.825.235-.294.655-.294.436 0 .67.318h.025l-.014-.155-.007-.15v-.875h.325v3.05h-.265zm-.65.055q.333 0 .482-.18.15-.183.15-.586v-.069q0-.456-.152-.65-.151-.196-.484-.196-.286 0-.44.223-.15.222-.15.627 0 .412.15.621.152.21.444.21zM38.237 9.634q-.466 0-.723-.286-.255-.288-.255-.813 0-.539.26-.833.26-.294.74-.294.155 0 .31.034.154.033.242.078l-.1.276q-.107-.043-.235-.07-.127-.03-.225-.03-.655 0-.655.835 0 .396.16.608.16.211.473.211.269 0 .551-.115v.288q-.216.111-.543.111zM40.761 9.595v-1.39q0-.262-.12-.391-.12-.13-.374-.13-.339 0-.496.185-.154.184-.154.603v1.123h-.326V6.546h.326v.923q0 .167-.016.276h.02q.096-.154.272-.243.178-.09.406-.09.393 0 .59.188.197.187.197.594v1.401zM42.078 9.595h-.326V7.448h.326zm-.353-2.73q0-.111.055-.162.055-.053.137-.053.078 0 .135.053.057.053.057.163 0 .11-.057.164-.057.053-.135.053-.082 0-.137-.053-.055-.055-.055-.164zM43.097 9.595h-.326V6.546h.326zM45.252 9.307h-.018q-.225.327-.674.327-.42 0-.656-.288-.233-.288-.233-.819 0-.53.235-.825.235-.294.654-.294.437 0 .67.318h.026l-.014-.155-.008-.15v-.875h.326v3.05h-.265zm-.65.055q.333 0 .482-.18.15-.183.15-.586v-.069q0-.456-.152-.65-.151-.196-.484-.196-.286 0-.44.223-.15.222-.15.627 0 .412.15.621.152.21.444.21z"/></g><path d="M64.823-21.823L54.24-8.593" fill="#131516" stroke="#131516" stroke-width=".529" marker-end="url(#b)" transform="translate(-6.662 28.437)"/><g fill="#a2000d"><path d="M58.293 4.895h2.382v.397h-2.382zM58.293 0h2.382v.397h-2.382z"/><path d="M59.682 0v5.292h-.396V0z"/></g><path d="M25.882 39.688h63.5v2.645h-63.5z" fill="#dfdff9"/><path d="M28.528 39.687h58.208v2.646H28.528z" fill="#705697"/><path d="M28.528 39.688h58.208" fill="none" stroke="#374047" stroke-width=".794" stroke-dasharray=".79374993,2.3812498"/></svg>