<svg xmlns="http://www.w3.org/2000/svg" viewBox="0 0 76.479 53.1" height="200.693" width="289.055"><path d="M.184.184h76.11V44.99H.185z" fill="none" stroke="#131516" stroke-width=".369" stroke-miterlimit="2.4" stroke-dasharray="2.21223848,.36870642"/><g stroke-width=".33"><path d="M30.66 2.656h15.16v4.82H30.66z" fill="#fff"/><g style="line-height:1.25" aria-label="Margin" font-weight="400" font-size="1.399" font-family="Open Sans" letter-spacing="0" word-spacing="0" stroke-width=".087"><path style="-inkscape-font-specification:'Open Sans'" d="M32.749 6.26L31.727 3.57h-.017q.03.32.03.76v1.928h-.324V3.227h.527l.954 2.501h.017l.962-2.501h.523v3.032h-.35V4.306q0-.336.028-.73h-.016l-1.03 2.683zM36.56 6.26l-.068-.324h-.017q-.169.213-.338.29-.167.075-.418.075-.336 0-.527-.174-.19-.175-.19-.496 0-.689 1.094-.722l.383-.012v-.141q0-.268-.115-.394-.113-.129-.365-.129-.282 0-.638.174l-.105-.263q.166-.091.364-.143.2-.052.4-.052.404 0 .597.18.196.18.196.579v1.551zm-.773-.243q.32 0 .5-.177.184-.176.184-.493V5.14l-.342.015q-.408.015-.59.129-.178.112-.178.35 0 .187.111.284.113.098.315.098zM38.55 3.945q.15 0 .27.025l-.048.319q-.14-.031-.247-.031-.274 0-.47.224-.193.224-.193.558v1.22h-.342V3.985h.282l.039.421h.017q.125-.222.302-.342.178-.12.39-.12zM41.09 3.986v.218l-.419.05q.058.072.103.19.046.117.046.264 0 .334-.227.533-.226.2-.622.2-.1 0-.19-.018-.218.117-.218.293 0 .093.076.139.077.043.262.043h.4q.366 0 .562.156.198.156.198.452 0 .378-.301.575-.3.199-.878.199-.442 0-.684-.166-.238-.166-.238-.469 0-.207.131-.359.132-.151.371-.205-.086-.04-.146-.122-.058-.083-.058-.193 0-.125.066-.218t.208-.18q-.175-.073-.286-.247-.11-.175-.11-.399 0-.373.223-.574.223-.203.63-.203.178 0 .32.041zm-1.8 2.655q0 .185.154.28.154.095.443.095.43 0 .636-.13.208-.129.208-.35 0-.185-.113-.258-.113-.07-.427-.07h-.41q-.232 0-.362.112-.13.112-.13.321zm.185-1.927q0 .239.133.361.134.122.373.122.5 0 .5-.489 0-.512-.506-.512-.24 0-.37.13-.13.131-.13.388zM41.9 6.26h-.343V3.985h.342zm-.372-2.89q0-.118.058-.172.058-.056.144-.056.083 0 .142.056.06.056.06.172 0 .116-.06.174-.06.056-.142.056-.086 0-.144-.056-.058-.058-.058-.174zM44.173 6.26V4.788q0-.278-.125-.415-.126-.137-.394-.137-.354 0-.519.193-.165.193-.165.637v1.192h-.342V3.986h.279l.055.311h.017q.105-.168.294-.259.19-.093.423-.093.407 0 .613.199.206.197.206.632V6.26z"/></g></g><path d="M4.65 9.222H71.83v43.705H4.65z" fill="#fff" stroke="#131516" stroke-width=".347" stroke-miterlimit="2.4"/><g style="line-height:1.25" aria-label="Border" font-weight="400" font-size="4.233" font-family="Open Sans" letter-spacing="0" word-spacing="0" stroke-width=".265"><path style="-inkscape-font-specification:'Open Sans'" d="M31.637 11.913h.851q.6 0 .867.18.268.18.268.57 0 .27-.15.446-.149.175-.435.226v.021q.686.118.686.726 0 .407-.274.635-.272.228-.762.228h-1.05zm.35 1.298h.577q.371 0 .534-.116.163-.118.163-.396 0-.255-.182-.367-.181-.114-.577-.114h-.515zm0 .299v1.134h.629q.364 0 .548-.14.185-.144.185-.447 0-.282-.19-.415-.187-.132-.572-.132zM36.27 13.806q0 .556-.278.87-.278.31-.768.31-.303 0-.538-.143-.235-.143-.363-.41-.127-.268-.127-.627 0-.556.276-.865.276-.31.766-.31.474 0 .752.317.28.317.28.858zm-1.72 0q0 .436.173.664.173.228.509.228t.509-.226q.175-.228.175-.666 0-.433-.175-.657-.173-.226-.513-.226-.336 0-.507.222-.17.222-.17.661zM37.898 12.63q.15 0 .27.025l-.048.32q-.14-.032-.247-.032-.274 0-.47.224-.193.224-.193.558v1.22h-.342v-2.273h.282l.039.42h.016q.126-.221.303-.341.177-.12.39-.12zM40.127 14.64h-.019q-.237.346-.709.346-.443 0-.69-.304-.245-.305-.245-.867t.247-.874q.248-.31.688-.31.46 0 .705.335h.027l-.015-.164-.008-.16v-.924h.342v3.227h-.278zm-.684.058q.35 0 .506-.19.159-.193.159-.62v-.073q0-.484-.16-.689-.16-.207-.51-.207-.3 0-.461.236-.159.234-.159.664 0 .435.159.657.159.222.466.222zM42.13 14.986q-.5 0-.79-.306-.289-.307-.289-.853 0-.55.268-.873.27-.324.723-.324.425 0 .672.282.247.28.247.74v.219h-1.555q.01.4.2.607.191.208.537.208.365 0 .721-.154v.307q-.181.079-.344.112-.16.035-.39.035zm-.092-2.067q-.272 0-.434.178-.161.178-.19.494h1.18q0-.326-.144-.498-.144-.174-.412-.174zM44.572 12.63q.15 0 .27.025l-.047.32q-.14-.032-.248-.032-.274 0-.47.224-.193.224-.193.558v1.22h-.342v-2.273h.282l.04.42h.016q.126-.221.303-.341.177-.12.389-.12z"/></g><path d="M9.142 18.26h58.195v29.375H9.142z" fill="none" stroke="#131516" stroke-width=".172" stroke-miterlimit="2.4" stroke-dasharray="1.3748516,.6874258"/><g style="line-height:1.25" aria-label="Padding" font-weight="400" font-size="4.233" font-family="Open Sans" letter-spacing="0" word-spacing="0" stroke-width=".265"><path style="-inkscape-font-specification:'Open Sans'" d="M32.391 21.936q0 .46-.313.71-.311.247-.892.247h-.354v1.192h-.35v-3.032h.78q1.13 0 1.13.883zm-1.56.654h.316q.466 0 .674-.152.208-.151.208-.485 0-.3-.196-.448-.196-.147-.61-.147h-.391zM34.356 24.085l-.068-.323h-.016q-.169.213-.338.29-.167.075-.418.075-.336 0-.527-.175-.19-.174-.19-.495 0-.689 1.094-.722l.383-.013v-.14q0-.268-.115-.395-.114-.128-.365-.128-.282 0-.638.174l-.106-.263q.167-.092.365-.144.2-.051.4-.051.403 0 .597.18.196.18.196.579v1.551zm-.772-.243q.32 0 .5-.176.184-.176.184-.493v-.206l-.342.015q-.408.014-.59.128-.178.112-.178.35 0 .188.11.285.114.097.316.097zM36.853 23.78h-.018q-.237.347-.709.347-.443 0-.69-.305-.245-.305-.245-.867t.247-.873q.247-.312.688-.312.46 0 .705.336h.026l-.014-.163-.008-.16v-.925h.342v3.227h-.279zm-.684.058q.35 0 .507-.19.159-.193.159-.62v-.073q0-.484-.161-.689-.159-.207-.509-.207-.3 0-.461.236-.159.235-.159.664 0 .435.159.657.158.222.465.222zM39.44 23.78h-.018q-.237.347-.709.347-.443 0-.69-.305-.245-.305-.245-.867t.247-.873q.248-.312.688-.312.46 0 .705.336h.027l-.015-.163-.008-.16v-.925h.342v3.227h-.278zm-.683.058q.35 0 .506-.19.159-.193.159-.62v-.073q0-.484-.16-.689-.16-.207-.51-.207-.3 0-.46.236-.16.235-.16.664 0 .435.16.657.158.222.465.222zM40.833 24.085h-.342v-2.273h.342zm-.37-2.89q0-.117.057-.171.058-.056.144-.056.083 0 .142.056.06.056.06.172 0 .116-.06.174-.06.056-.142.056-.086 0-.144-.056-.058-.058-.058-.174zM43.107 24.085v-1.47q0-.278-.125-.415-.126-.137-.394-.137-.354 0-.519.193-.165.193-.165.637v1.192h-.342v-2.273h.278l.056.311h.017q.105-.168.294-.26.19-.093.422-.093.408 0 .614.2.206.197.206.632v1.483zM45.998 21.812v.218l-.419.05q.058.072.103.19.046.116.046.264 0 .334-.227.533t-.622.199q-.101 0-.19-.017-.218.116-.218.293 0 .093.076.139.077.043.262.043h.4q.366 0 .562.156.198.155.198.452 0 .377-.301.575-.3.199-.878.199-.443 0-.684-.166-.238-.166-.238-.47 0-.206.131-.358.132-.151.371-.205-.086-.04-.146-.123-.058-.083-.058-.192 0-.125.066-.218.066-.094.208-.18-.175-.073-.286-.248-.11-.174-.11-.398 0-.373.223-.574.223-.204.63-.204.178 0 .32.042zm-1.8 2.655q0 .184.154.28.154.095.443.095.43 0 .636-.13.208-.13.208-.351 0-.185-.113-.257-.113-.07-.427-.07h-.41q-.232 0-.362.111-.13.112-.13.322zm.185-1.927q0 .238.133.36.134.123.373.123.5 0 .5-.49 0-.512-.506-.512-.24 0-.37.131-.13.13-.13.388z"/></g><path d="M13.52 27.298h49.44V41.02H13.52z" fill="none" stroke="#131516" stroke-width=".16" stroke-miterlimit="2.4"/><g style="line-height:1.25" aria-label="Content" font-weight="400" font-size="4.233" font-family="Open Sans" letter-spacing="0" word-spacing="0" stroke-width=".265"><path style="-inkscape-font-specification:'Open Sans'" d="M31.995 30.55q-.497 0-.785.334-.287.332-.287.91 0 .596.276.922.279.323.792.323.315 0 .718-.114v.31q-.313.117-.772.117-.665 0-1.028-.406-.36-.407-.36-1.155 0-.47.173-.822.175-.352.502-.543.33-.191.775-.191.474 0 .828.174l-.148.303q-.342-.162-.684-.162zM35.264 32.172q0 .556-.278.87-.278.31-.769.31-.302 0-.537-.143-.235-.143-.363-.41-.128-.268-.128-.627 0-.556.276-.865.277-.31.767-.31.474 0 .752.317.28.317.28.858zm-1.72 0q0 .436.173.664.173.228.509.228.335 0 .508-.226.176-.228.176-.666 0-.433-.176-.657-.173-.226-.512-.226-.336 0-.507.222-.171.221-.171.661zM37.406 33.31v-1.47q0-.278-.125-.414-.126-.137-.394-.137-.354 0-.519.193-.165.192-.165.636v1.193h-.342v-2.273h.278l.056.31h.016q.106-.167.295-.258.19-.094.422-.094.408 0 .614.2.206.196.206.632v1.483zM39.178 33.068q.09 0 .175-.012.084-.015.134-.03v.264q-.056.027-.165.044-.107.018-.194.018-.655 0-.655-.694v-1.353h-.323v-.166l.323-.143.145-.485h.197v.527h.655v.267h-.655v1.338q0 .205.097.315.097.11.266.11zM40.894 33.352q-.5 0-.791-.307-.289-.307-.289-.852 0-.55.268-.873.27-.324.723-.324.425 0 .672.282.247.28.247.74v.219H40.17q.01.4.2.607.191.208.537.208.365 0 .721-.154v.307q-.181.079-.344.112-.16.035-.39.035zm-.093-2.068q-.272 0-.434.179-.161.178-.19.494h1.18q0-.326-.144-.498-.144-.175-.412-.175zM43.85 33.31v-1.47q0-.278-.126-.414-.125-.137-.393-.137-.354 0-.52.193-.164.192-.164.636v1.193h-.342v-2.273h.278l.056.31h.016q.105-.167.295-.258.19-.094.422-.094.408 0 .614.2.206.196.206.632v1.483zM45.622 33.068q.09 0 .175-.012.084-.015.134-.03v.264q-.056.027-.165.044-.107.018-.194.018-.655 0-.655-.694v-1.353h-.323v-.166l.323-.143.144-.485h.198v.527h.655v.267h-.655v1.338q0 .205.097.315.097.11.266.11z"/></g></svg>