<svg xmlns="http://www.w3.org/2000/svg" viewBox="0 0 87.842 50.271" height="190" width="332"><defs><marker id="a" refX="0" refY="0" orient="auto" overflow="visible"><path d="M2.308 0l-3.46 2v-4z" fill="#131516" fill-rule="evenodd" stroke="#131516" stroke-width=".5332"/></marker></defs><path d="M.265.265h87.312v10.583H.265z" fill="#dfdff9"/><path d="M4.97 5.556H82.9v5.292H4.97z" fill="#705697"/><g style="line-height:1.25;-inkscape-font-specification:'Open Sans, Normal';font-variant-ligatures:normal;font-variant-position:normal;font-variant-caps:normal;font-variant-numeric:normal;font-variant-alternates:normal;font-feature-settings:normal;text-indent:0;text-align:start;text-decoration-line:none;text-decoration-style:solid;text-decoration-color:#000;text-transform:none;text-orientation:mixed;white-space:normal;shape-padding:0" aria-label="Child 1" font-weight="400" font-size="4.233" font-family="Open Sans" letter-spacing="0" word-spacing="0" fill="#f3eafb" stroke-width=".265"><path style="line-height:1.25;-inkscape-font-specification:'Open Sans, Normal';font-variant-ligatures:normal;font-variant-position:normal;font-variant-caps:normal;font-variant-numeric:normal;font-variant-alternates:normal;font-feature-settings:normal;text-indent:0;text-align:start;text-decoration-line:none;text-decoration-style:solid;text-decoration-color:#000;text-transform:none;text-orientation:mixed;white-space:normal;shape-padding:0" d="M39.466 6.812q-.472 0-.747.35-.272.35-.272.958 0 .626.262.968.265.34.753.34.3 0 .684-.12v.325q-.298.125-.735.125-.633 0-.978-.428-.343-.427-.343-1.214 0-.493.165-.864.166-.37.478-.571.313-.2.737-.2.45 0 .787.183l-.14.318q-.326-.17-.651-.17zM42.191 9.714V8.168q0-.292-.12-.436-.119-.144-.373-.144-.34 0-.496.205-.155.205-.155.672v1.25h-.325V6.32h.325v1.027q0 .186-.016.308h.02q.096-.173.272-.27.179-.101.406-.101.394 0 .59.21.198.206.198.66v1.56zM43.508 9.714h-.325v-2.39h.325zm-.353-3.037q0-.125.055-.181.055-.06.137-.06.079 0 .136.06.057.059.057.18 0 .123-.057.184-.057.059-.136.059-.082 0-.137-.06-.055-.06-.055-.182zM44.527 9.714h-.325V6.321h.325zM46.682 9.394h-.017q-.225.364-.674.364-.421 0-.657-.32-.233-.321-.233-.912t.235-.918q.235-.327.655-.327.437 0 .67.353h.025l-.013-.172-.008-.168V6.32h.325v3.393h-.264zm-.65.06q.333 0 .482-.2.15-.203.15-.652v-.076q0-.508-.152-.724-.15-.218-.484-.218-.286 0-.439.248-.15.247-.15.698 0 .458.15.691.151.234.443.234zM49.78 9.714h-.317V7.442q0-.283.016-.536l-.092.096q-.051.05-.467.425l-.172-.249.758-.652h.274z"/></g><g style="line-height:1.25;-inkscape-font-specification:'Open Sans, Normal';font-variant-ligatures:normal;font-variant-caps:normal;font-variant-numeric:normal;font-feature-settings:normal;text-align:start" aria-label="Parent 1" font-weight="400" font-size="4.233" font-family="Open Sans" letter-spacing="0" word-spacing="0" fill="#131516" stroke-width=".265"><path style="-inkscape-font-specification:'Open Sans, Normal';font-variant-ligatures:normal;font-variant-caps:normal;font-variant-numeric:normal;font-feature-settings:normal;text-align:start" d="M38.52 2.323q0 .485-.298.746-.296.26-.849.26h-.337v1.253h-.333V1.395h.743q1.073 0 1.073.928zm-1.484.687h.3q.443 0 .64-.159.198-.16.198-.51 0-.316-.186-.471-.186-.155-.58-.155h-.372zM40.389 4.582l-.065-.34h-.016q-.16.225-.321.306-.159.078-.398.078-.32 0-.501-.183-.18-.183-.18-.521 0-.724 1.04-.76l.364-.012v-.148q0-.282-.11-.415-.107-.135-.346-.135-.269 0-.608.183l-.1-.277q.16-.096.347-.15.19-.055.38-.055.384 0 .569.19.186.19.186.608v1.631zm-.735-.255q.304 0 .476-.185.174-.185.174-.519v-.216l-.325.015q-.388.016-.56.136-.17.117-.17.368 0 .196.105.299.108.102.3.102zM42.282 2.149q.143 0 .256.026l-.045.336q-.133-.033-.235-.033-.26 0-.447.236-.184.235-.184.586v1.282h-.325v-2.39h.268l.037.443h.016q.12-.233.288-.36.169-.126.37-.126zM43.847 4.626q-.476 0-.752-.323-.275-.322-.275-.896 0-.578.255-.918.257-.34.688-.34.404 0 .639.297.235.294.235.778v.229h-1.48q.01.42.19.639.183.218.512.218.347 0 .686-.161v.322q-.173.083-.328.118-.152.037-.37.037zm-.088-2.174q-.259 0-.413.188-.153.187-.18.519h1.122q0-.343-.137-.524-.137-.183-.392-.183zM46.659 4.582V3.036q0-.292-.12-.436-.12-.144-.374-.144-.337 0-.494.203-.156.203-.156.67v1.253h-.326v-2.39h.265l.053.328h.015q.1-.177.28-.273.181-.098.402-.098.388 0 .584.21.196.206.196.664v1.56zM48.344 4.327q.086 0 .167-.013.08-.015.127-.03v.277q-.053.028-.157.045-.102.02-.184.02-.623 0-.623-.73V2.474h-.308v-.175l.308-.15.137-.51H48v.554h.623v.28H48V3.88q0 .216.092.332.092.115.253.115zM51.168 4.582h-.318V2.31q0-.283.016-.536-.041.046-.092.096t-.467.425l-.172-.249.758-.651h.275z"/></g><path d="M.265 16.14h87.312v10.583H.265z" fill="#dfdff9"/><path d="M4.97 16.14H82.9v5.291H4.97z" fill="#705697"/><g style="line-height:1.25;-inkscape-font-specification:'Open Sans, Normal';font-variant-ligatures:normal;font-variant-position:normal;font-variant-caps:normal;font-variant-numeric:normal;font-variant-alternates:normal;font-feature-settings:normal;text-indent:0;text-align:start;text-decoration-line:none;text-decoration-style:solid;text-decoration-color:#000;text-transform:none;text-orientation:mixed;white-space:normal;shape-padding:0" aria-label="Child 2" font-weight="400" font-size="4.233" font-family="Open Sans" letter-spacing="0" word-spacing="0" fill="#f3eafb" stroke-width=".265"><path style="line-height:1.25;-inkscape-font-specification:'Open Sans, Normal';font-variant-ligatures:normal;font-variant-position:normal;font-variant-caps:normal;font-variant-numeric:normal;font-variant-alternates:normal;font-feature-settings:normal;text-indent:0;text-align:start;text-decoration-line:none;text-decoration-style:solid;text-decoration-color:#000;text-transform:none;text-orientation:mixed;white-space:normal;shape-padding:0" d="M39.127 17.395q-.472 0-.747.351-.272.35-.272.957 0 .626.262.969.265.34.753.34.3 0 .684-.12v.325q-.298.124-.735.124-.633 0-.978-.427-.343-.428-.343-1.215 0-.493.165-.863.166-.371.478-.572.313-.2.737-.2.45 0 .787.183l-.14.318q-.326-.17-.651-.17zM41.852 20.297v-1.546q0-.292-.12-.436-.119-.144-.373-.144-.34 0-.496.205-.155.205-.155.672v1.25h-.325v-3.393h.325v1.027q0 .185-.016.307h.02q.096-.172.272-.27.179-.1.406-.1.394 0 .59.209.198.207.198.66v1.56zM43.17 20.297h-.326v-2.39h.325zm-.354-3.037q0-.124.055-.181.055-.059.137-.059.079 0 .136.059.057.059.057.18 0 .123-.057.184-.057.059-.136.059-.082 0-.137-.059-.055-.06-.055-.183zM44.188 20.297h-.325v-3.392h.325zM46.343 19.977h-.017q-.225.364-.674.364-.421 0-.657-.32-.233-.321-.233-.912 0-.59.235-.918.235-.327.655-.327.437 0 .67.353h.025l-.013-.172-.008-.168v-.972h.325v3.392h-.264zm-.65.061q.333 0 .482-.2.15-.203.15-.653v-.076q0-.508-.152-.724-.15-.218-.484-.218-.286 0-.439.249-.15.246-.15.697 0 .458.15.692.151.233.443.233zM50.12 20.297h-1.884v-.311l.755-.844q.345-.388.454-.554.11-.166.165-.323.055-.157.055-.338 0-.255-.14-.403-.138-.15-.385-.15-.179 0-.34.065-.158.065-.354.237l-.172-.246q.395-.366.862-.366.403 0 .633.23.229.23.229.618 0 .303-.153.6-.153.296-.572.75l-.627.682v.018h1.473z"/></g><g style="line-height:1.25;-inkscape-font-specification:'Open Sans, Normal';font-variant-ligatures:normal;font-variant-caps:normal;font-variant-numeric:normal;font-feature-settings:normal;text-align:start" aria-label="Parent 2" font-weight="400" font-size="4.233" font-family="Open Sans" letter-spacing="0" word-spacing="0" fill="#131516" stroke-width=".265"><path style="-inkscape-font-specification:'Open Sans, Normal';font-variant-ligatures:normal;font-variant-caps:normal;font-variant-numeric:normal;font-feature-settings:normal;text-align:start" d="M38.18 23.337q0 .484-.297.746-.296.26-.849.26h-.337v1.253h-.333v-3.188h.743q1.073 0 1.073.929zm-1.483.687h.3q.443 0 .64-.16.199-.159.199-.51 0-.316-.187-.47-.186-.155-.58-.155h-.372zM40.05 25.596l-.065-.34h-.016q-.16.224-.321.305-.159.079-.398.079-.32 0-.501-.184-.18-.183-.18-.52 0-.725 1.04-.76l.364-.013v-.148q0-.281-.11-.414-.107-.135-.346-.135-.269 0-.608.183l-.1-.277q.16-.096.347-.15.19-.055.38-.055.384 0 .569.19.186.19.186.608v1.631zm-.735-.255q.304 0 .476-.185.174-.186.174-.52v-.215l-.325.015q-.388.015-.56.135-.17.118-.17.369 0 .196.105.298.108.103.3.103zM41.943 23.163q.143 0 .256.026l-.045.335q-.133-.032-.235-.032-.26 0-.447.235-.184.236-.184.587v1.282h-.325v-2.39h.268l.037.443h.016q.12-.234.288-.36.169-.126.37-.126zM43.508 25.64q-.476 0-.752-.323-.275-.323-.275-.896 0-.578.255-.918.257-.34.688-.34.404 0 .639.296.235.294.235.779v.228h-1.48q.01.421.19.64.183.217.512.217.347 0 .686-.16v.322q-.173.083-.328.118-.152.037-.37.037zm-.088-2.174q-.259 0-.413.187-.153.188-.18.52h1.122q0-.343-.137-.524-.137-.183-.392-.183zM46.32 25.596V24.05q0-.292-.12-.436-.12-.144-.374-.144-.337 0-.494.203-.156.203-.156.67v1.253h-.326v-2.39h.265l.053.327h.015q.1-.176.28-.272.181-.098.402-.098.388 0 .584.209.196.207.196.665v1.559zM48.005 25.34q.086 0 .167-.012.08-.015.127-.03v.276q-.053.029-.157.046-.102.02-.184.02-.623 0-.623-.73v-1.423h-.308v-.174l.308-.15.137-.51h.188v.553h.623v.281h-.623v1.407q0 .216.092.331.092.116.253.116zM51.507 25.596h-1.883v-.312l.754-.844q.345-.388.455-.554.11-.165.164-.322.055-.157.055-.338 0-.255-.139-.404-.14-.15-.386-.15-.178 0-.339.065-.159.066-.355.238l-.172-.246q.396-.367.862-.367.404 0 .633.231.23.23.23.617 0 .304-.154.6-.152.297-.572.75l-.627.683v.017h1.474z"/></g><path d="M1.323 37.042h75.406v10.583H1.323z" fill="#dfdff9"/><g style="line-height:1.25;-inkscape-font-specification:'Open Sans, Normal';font-variant-ligatures:normal;font-variant-caps:normal;font-variant-numeric:normal;font-feature-settings:normal;text-align:start" aria-label="20 px" font-weight="400" font-size="4.233" font-family="Open Sans" letter-spacing="0" word-spacing="0" fill="#131516" stroke-width=".265"><path style="-inkscape-font-specification:'Open Sans, Normal';font-variant-ligatures:normal;font-variant-caps:normal;font-variant-numeric:normal;font-feature-settings:normal;text-align:start" d="M6.108 44.683H4.122v-.296l.796-.8q.363-.368.48-.525.115-.157.173-.306.058-.149.058-.32 0-.242-.147-.383-.147-.142-.407-.142-.188 0-.358.062-.167.062-.374.225l-.182-.234q.418-.347.91-.347.425 0 .667.22.242.216.242.584 0 .288-.161.569-.161.28-.604.71l-.661.648v.016h1.554zM8.547 43.167q0 .784-.248 1.17-.246.387-.754.387-.488 0-.742-.395-.255-.397-.255-1.162 0-.79.246-1.172.246-.382.75-.382.493 0 .747.399.256.399.256 1.155zm-1.651 0q0 .66.155.962.155.3.494.3.343 0 .496-.305.155-.305.155-.957 0-.65-.155-.953-.153-.303-.496-.303-.34 0-.494.3-.155.297-.155.956zM11.278 44.724q-.221 0-.405-.08-.182-.083-.306-.253h-.025q.025.199.025.376v.933h-.343v-3.283h.279l.047.31h.017q.132-.186.308-.269.176-.082.403-.082.45 0 .694.308.246.308.246.864 0 .558-.25.868-.248.308-.69.308zm-.05-2.057q-.347 0-.502.192-.155.193-.16.612v.077q0 .477.16.684.16.205.51.205.294 0 .46-.238.167-.238.167-.655 0-.424-.168-.65-.165-.227-.467-.227zM13.366 43.523l-.788-1.106h.39l.598.868.595-.868h.387l-.788 1.106.83 1.16h-.39l-.634-.918-.64.918h-.39z"/></g><path d="M1.323 37.042h75.406v2.645H1.323zM76.73 50.27H1.322v-2.645h75.406z" fill="#705697"/><g style="line-height:1.25;-inkscape-font-specification:'Open Sans, Normal';font-variant-ligatures:normal;font-variant-caps:normal;font-variant-numeric:normal;font-feature-settings:normal;text-align:start" aria-label="Collapsed margin" font-weight="400" font-size="4.233" font-family="Open Sans" letter-spacing="0" word-spacing="0" fill="#131516" stroke-width=".265"><path style="-inkscape-font-specification:'Open Sans, Normal';font-variant-ligatures:normal;font-variant-caps:normal;font-variant-numeric:normal;font-feature-settings:normal;text-align:start" d="M20.141 41.926q-.472 0-.746.351-.273.349-.273.957 0 .626.263.968.264.34.752.34.3 0 .684-.12v.326q-.298.124-.735.124-.632 0-.977-.427-.343-.428-.343-1.215 0-.493.164-.864.167-.37.478-.57.314-.201.737-.201.45 0 .788.183l-.141.318q-.325-.17-.65-.17zM23.251 43.631q0 .585-.265.914-.264.327-.73.327-.288 0-.512-.15-.223-.151-.345-.432-.121-.282-.121-.659 0-.584.262-.91.263-.326.73-.326.45 0 .714.333.267.334.267.903zm-1.636 0q0 .458.164.698.165.24.484.24.32 0 .484-.238.167-.24.167-.7 0-.456-.167-.691-.164-.238-.488-.238-.319 0-.482.234-.162.233-.162.695zM24.144 44.828h-.325v-3.393h.325zM25.163 44.828h-.325v-3.393h.325zM27.178 44.828l-.065-.34h-.016q-.16.225-.321.305-.159.079-.398.079-.32 0-.501-.183-.18-.183-.18-.521 0-.724 1.04-.76l.364-.012v-.149q0-.28-.11-.414-.107-.135-.346-.135-.269 0-.608.183l-.1-.277q.16-.096.347-.15.19-.055.38-.055.384 0 .569.19.186.19.186.608v1.631zm-.735-.255q.304 0 .476-.185.174-.186.174-.52v-.215l-.325.015q-.388.016-.56.135-.17.118-.17.369 0 .196.105.299.108.102.3.102zM29.09 44.872q-.21 0-.384-.085-.172-.087-.29-.266h-.023q.023.21.023.397v.983h-.325v-3.463h.264l.045.327h.016q.126-.196.292-.283.167-.087.382-.087.427 0 .659.325.233.325.233.911 0 .589-.237.916-.236.325-.655.325zm-.047-2.17q-.329 0-.476.203-.147.203-.15.645v.081q0 .504.15.722.15.216.484.216.278 0 .435-.251.159-.25.159-.691 0-.447-.159-.685-.157-.24-.443-.24zM31.937 44.176q0 .334-.223.515-.223.18-.627.18-.427 0-.666-.15v-.335q.154.087.33.137.18.05.344.05.254 0 .392-.09.137-.09.137-.276 0-.14-.11-.238-.108-.1-.423-.235-.3-.125-.427-.216-.126-.094-.188-.212-.061-.117-.061-.281 0-.292.213-.46.214-.17.586-.17.347 0 .678.157l-.115.294q-.324-.148-.586-.148-.232 0-.35.08-.117.081-.117.223 0 .096.043.164.046.067.144.128.097.061.376.177.382.155.515.312.135.157.135.394zM33.372 44.872q-.477 0-.753-.323-.274-.323-.274-.896 0-.578.255-.918.256-.34.687-.34.404 0 .64.296.234.295.234.779v.229h-1.48q.01.42.19.639.183.218.512.218.347 0 .686-.162v.323q-.172.083-.327.118-.153.037-.37.037zm-.089-2.174q-.258 0-.413.187-.153.188-.18.52h1.122q0-.343-.137-.524-.137-.183-.392-.183zM36.176 44.508h-.018q-.225.364-.674.364-.421 0-.657-.32-.233-.321-.233-.912t.235-.918q.236-.327.655-.327.437 0 .67.353h.026l-.014-.172-.008-.168v-.973h.325v3.393h-.264zm-.651.06q.333 0 .482-.2.15-.203.15-.652v-.076q0-.508-.152-.724-.15-.218-.484-.218-.286 0-.439.248-.15.247-.15.698 0 .458.15.691.151.234.443.234zM40.955 44.828v-1.554q0-.286-.11-.428-.11-.144-.341-.144-.304 0-.449.194-.145.194-.145.598v1.334h-.325v-1.554q0-.286-.11-.428-.11-.144-.343-.144-.305 0-.448.205-.141.203-.141.667v1.254h-.326v-2.39h.265l.053.327h.015q.093-.174.26-.272.168-.098.375-.098.504 0 .659.405h.015q.096-.187.279-.296.182-.11.415-.11.364 0 .545.21.182.207.182.665v1.56zM43.269 44.828l-.065-.34h-.016q-.16.225-.32.305-.16.079-.399.079-.319 0-.501-.183-.18-.183-.18-.521 0-.724 1.04-.76l.364-.012v-.149q0-.28-.11-.414-.107-.135-.346-.135-.269 0-.608.183l-.1-.277q.16-.096.347-.15.19-.055.38-.055.385 0 .569.19.186.19.186.608v1.631zm-.735-.255q.304 0 .476-.185.175-.186.175-.52v-.215l-.326.015q-.388.016-.56.135-.17.118-.17.369 0 .196.105.299.108.102.3.102zM45.162 42.395q.143 0 .256.026l-.045.336q-.133-.033-.235-.033-.26 0-.447.236-.184.235-.184.586v1.282h-.325v-2.39h.268l.038.443h.015q.12-.233.288-.36.169-.126.37-.126zM47.578 42.438v.23l-.398.052q.055.076.098.2.043.122.043.277 0 .351-.216.56-.215.21-.591.21-.096 0-.18-.017-.208.122-.208.307 0 .098.072.146.073.046.25.046h.38q.348 0 .534.163.188.164.188.476 0 .397-.286.604-.286.21-.835.21-.42 0-.65-.175-.227-.175-.227-.493 0-.218.125-.377.125-.16.353-.216-.083-.042-.14-.129-.054-.087-.054-.203 0-.13.062-.229.063-.098.198-.19-.166-.076-.272-.259-.104-.183-.104-.419 0-.392.212-.604.211-.213.6-.213.168 0 .303.043zm-1.713 2.792q0 .194.147.294.147.1.421.1.41 0 .606-.137.198-.135.198-.369 0-.194-.108-.27-.108-.074-.406-.074h-.39q-.221 0-.344.118-.124.117-.124.338zm.176-2.026q0 .25.128.38.127.128.355.128.476 0 .476-.515 0-.538-.482-.538-.23 0-.353.137-.124.137-.124.408zM48.348 44.828h-.326v-2.39h.326zm-.353-3.037q0-.125.055-.181.055-.06.137-.06.078 0 .135.06.057.059.057.18 0 .123-.057.184-.057.059-.135.059-.082 0-.137-.06-.055-.06-.055-.182zM50.511 44.828v-1.546q0-.292-.12-.436-.119-.144-.374-.144-.337 0-.494.203-.156.203-.156.67v1.253h-.326v-2.39h.265l.053.327h.016q.1-.176.28-.272.18-.098.401-.098.388 0 .584.21.196.206.196.664v1.56z"/></g><path d="M0 26.723h87.842v.264H0zM0 26.723V16.14h.265v10.583zM87.577 26.723V16.14h.265v10.583zM0 0h87.842v.265H0zM0 10.848V.265h.265v10.583zM87.577 10.848V.265h.265v10.583z" fill="#686892"/><g fill="#a2000d"><path d="M41.804 15.346h3.969v.794h-3.969zM41.804 10.848h3.969v.794h-3.969z"/><path d="M44.185 10.848v5.292h-.793v-5.292z"/></g><path d="M43.656 50.938L29.104 68.135" fill="#131516" stroke="#131516" stroke-width=".529" marker-end="url(#a)" transform="translate(-5.292 -36.385)"/><g fill="#a2000d"><path d="M15.081 46.831h3.969v.794h-3.969zM15.081 39.687h3.969v.794h-3.969z"/><path d="M17.462 39.687v7.938h-.793v-7.938z"/></g></svg>