<svg xmlns="http://www.w3.org/2000/svg" viewBox="0 0 103.188 32.225" height="121.796" width="390"><path d="M0 7.937h103.188v24.288H0z" fill="#dfdff9"/><path d="M10.583 18.52h82.021v13.687h-82.02z" fill="#705697"/><g style="line-height:1.25;-inkscape-font-specification:'Open Sans, Normal';font-variant-ligatures:normal;font-variant-caps:normal;font-variant-numeric:normal;font-feature-settings:normal;text-align:start" aria-label="Parent’s top margin" font-weight="400" font-size="4.233" font-family="Open Sans" letter-spacing="0" word-spacing="0" fill="#131516" stroke-width=".265"><path style="-inkscape-font-specification:'Open Sans, Normal';font-variant-ligatures:normal;font-variant-caps:normal;font-variant-numeric:normal;font-feature-settings:normal;text-align:start" d="M49.16 2.884q0 .459-.313.707-.312.246-.894.246h-.356v1.19h-.35V2.002h.782q1.132 0 1.132.882zm-1.563.651h.316q.467 0 .676-.15.208-.152.208-.485 0-.3-.196-.447-.196-.147-.611-.147h-.393zM51.13 5.027l-.067-.323h-.017q-.17.213-.339.29-.167.074-.419.074-.336 0-.528-.173-.19-.174-.19-.495 0-.687 1.096-.72l.384-.012v-.141q0-.267-.115-.393-.114-.128-.366-.128-.283 0-.64.173l-.105-.262q.167-.091.365-.143.2-.052.4-.052.405 0 .6.18.196.18.196.577v1.548zm-.774-.242q.32 0 .502-.176.184-.176.184-.492v-.205l-.343.014q-.409.015-.59.129-.18.111-.18.35 0 .186.111.283.114.097.316.097zM53.126 2.718q.15 0 .27.025l-.047.319q-.14-.032-.248-.032-.275 0-.471.224-.194.223-.194.557v1.216h-.343V2.76h.283l.04.42h.016q.126-.22.303-.34.178-.12.39-.12zM54.776 5.068q-.502 0-.793-.306-.29-.306-.29-.85 0-.548.269-.871.27-.323.725-.323.425 0 .673.281.248.28.248.74v.216h-1.56q.011.4.201.607.192.206.539.206.366 0 .723-.153v.307q-.182.078-.345.111-.161.035-.39.035zm-.093-2.062q-.273 0-.436.178-.161.178-.19.492h1.183q0-.325-.144-.497-.145-.173-.413-.173zM57.739 5.027V3.56q0-.277-.126-.414-.126-.136-.394-.136-.356 0-.52.192-.166.193-.166.635v1.19h-.343V2.76h.279l.056.31h.016q.106-.167.296-.258.19-.093.423-.093.409 0 .615.199.207.196.207.63v1.48zM59.515 4.785q.09 0 .176-.012.084-.015.134-.03v.263q-.056.027-.165.044-.108.018-.195.018-.656 0-.656-.693V3.026h-.324v-.165l.324-.143.144-.484h.199v.525h.656v.267h-.656v1.335q0 .205.097.314.097.11.266.11zM60.554 2.002l.03.046q-.053.207-.154.482-.101.273-.21.509h-.253q.145-.59.21-1.037zM62.458 4.408q0 .317-.236.489-.235.171-.66.171-.45 0-.703-.142v-.319q.164.083.35.13.187.048.36.048.27 0 .414-.085.144-.087.144-.263 0-.132-.115-.225-.114-.095-.446-.224-.316-.118-.45-.204-.133-.09-.199-.201-.064-.112-.064-.267 0-.277.225-.437.225-.161.618-.161.365 0 .714.149l-.122.28q-.34-.141-.617-.141-.244 0-.368.076-.124.077-.124.211 0 .091.046.155.047.065.15.122.104.058.397.168.403.147.543.296.143.149.143.374zM64.843 4.785q.09 0 .175-.012.085-.015.135-.03v.263q-.056.027-.166.044-.107.018-.194.018-.656 0-.656-.693V3.026h-.325v-.165l.325-.143.144-.484h.198v.525h.657v.267h-.657v1.335q0 .205.098.314.097.11.266.11zM67.56 3.891q0 .555-.278.867-.279.31-.77.31-.304 0-.54-.142-.235-.143-.363-.41t-.128-.625q0-.554.277-.863.276-.31.768-.31.475 0 .754.317.28.316.28.856zm-1.724 0q0 .435.174.662.173.228.51.228.336 0 .51-.226.175-.227.175-.664 0-.432-.175-.656-.174-.225-.514-.225-.337 0-.508.221-.172.222-.172.66zM69.213 5.068q-.221 0-.405-.08-.182-.083-.306-.253h-.025q.025.199.025.377v.933h-.343V2.759h.28l.047.31h.016q.132-.185.308-.268.175-.083.403-.083.45 0 .694.308.245.309.245.865 0 .559-.25.87-.247.307-.69.307zm-.05-2.058q-.347 0-.502.192-.155.193-.159.613v.076q0 .478.16.685.158.205.51.205.293 0 .458-.238.167-.238.167-.656 0-.424-.167-.65-.165-.227-.467-.227zM74.737 5.027V3.552q0-.271-.116-.406-.116-.136-.36-.136-.32 0-.472.184-.153.184-.153.567v1.266h-.343V3.552q0-.271-.115-.406-.116-.136-.362-.136-.322 0-.473.194-.148.193-.148.633v1.19h-.343V2.76h.279l.055.31h.017q.097-.165.272-.258.178-.093.397-.093.53 0 .694.385h.016q.102-.178.294-.282.192-.103.437-.103.385 0 .574.199.193.196.193.63v1.48zM77.176 5.027l-.069-.323h-.016q-.17.213-.339.29-.167.074-.419.074-.337 0-.529-.173-.19-.174-.19-.495 0-.687 1.097-.72l.384-.012v-.141q0-.267-.116-.393-.113-.128-.365-.128-.283 0-.64.173l-.106-.262q.168-.091.366-.143.2-.052.4-.052.405 0 .6.18.196.18.196.577v1.548zm-.775-.242q.32 0 .502-.176.184-.176.184-.492v-.205l-.343.014q-.409.015-.59.129-.18.111-.18.35 0 .186.111.283.114.097.316.097zM79.17 2.718q.151 0 .271.025l-.047.319q-.14-.032-.248-.032-.275 0-.471.224-.194.223-.194.557v1.216h-.343V2.76h.283l.04.42h.016q.126-.22.303-.34.178-.12.39-.12zM81.717 2.76v.217l-.42.05q.058.072.104.19.045.116.045.262 0 .334-.227.532-.227.199-.624.199-.1 0-.19-.017-.219.116-.219.292 0 .093.077.139.076.043.262.043h.4q.368 0 .565.155.198.155.198.451 0 .377-.302.573-.301.199-.88.199-.443 0-.685-.165-.24-.166-.24-.468 0-.207.133-.358.132-.151.371-.205-.086-.04-.146-.122-.058-.083-.058-.192 0-.124.066-.218.066-.093.209-.18-.176-.072-.288-.246-.109-.174-.109-.397 0-.372.223-.573.223-.203.632-.203.178 0 .32.041zm-1.805 2.648q0 .184.155.28.155.094.444.094.431 0 .638-.13.208-.128.208-.35 0-.184-.113-.256-.114-.07-.428-.07h-.41q-.234 0-.364.111-.13.112-.13.32zm.186-1.922q0 .238.134.36t.374.122q.502 0 .502-.489 0-.51-.508-.51-.242 0-.372.13t-.13.387zM82.528 5.027h-.343V2.76h.343zm-.371-2.882q0-.118.057-.172.058-.056.145-.056.083 0 .142.056.06.056.06.172 0 .116-.06.174-.06.056-.142.056-.087 0-.145-.056-.057-.058-.057-.174zM84.808 5.027V3.56q0-.277-.126-.414-.126-.136-.394-.136-.355 0-.52.192-.166.193-.166.635v1.19h-.343V2.76h.28l.055.31h.016q.106-.167.296-.258.19-.093.423-.093.409 0 .615.199.207.196.207.63v1.48z"/></g><g fill="#a2000d"><path d="M43.127 0h2.381v.397h-2.38z"/><path d="M44.516 0v7.938h-.397V0z"/></g><g style="line-height:1.25;-inkscape-font-specification:'Open Sans, Normal';font-variant-ligatures:normal;font-variant-caps:normal;font-variant-numeric:normal;font-feature-settings:normal;text-align:start" aria-label="Child’s top margin" font-weight="400" font-size="4.233" font-family="Open Sans" letter-spacing="0" word-spacing="0" fill="#131516" stroke-width=".265"><path style="-inkscape-font-specification:'Open Sans, Normal';font-variant-ligatures:normal;font-variant-caps:normal;font-variant-numeric:normal;font-feature-settings:normal;text-align:start" d="M50.656 11.576q-.498 0-.787.333-.287.331-.287.908 0 .594.277.92.278.322.793.322.316 0 .72-.114v.308q-.314.118-.774.118-.667 0-1.03-.405-.362-.406-.362-1.153 0-.467.174-.819.175-.352.503-.542.33-.19.777-.19.475 0 .83.173l-.149.302q-.342-.161-.685-.161zM53.528 14.33v-1.467q0-.277-.126-.414-.126-.136-.394-.136-.357 0-.523.194-.163.195-.163.637v1.186h-.343v-3.22h.343v.975q0 .176-.016.292h.02q.102-.164.287-.257.188-.095.428-.095.415 0 .622.199.208.196.208.627v1.479zM54.916 14.33h-.343v-2.268h.343zm-.372-2.882q0-.118.058-.172.058-.056.145-.056.082 0 .142.056.06.056.06.172 0 .116-.06.174-.06.055-.142.055-.087 0-.145-.055-.058-.058-.058-.174zM55.99 14.33h-.343v-3.22h.343zM58.261 14.026h-.018q-.238.345-.71.345-.445 0-.692-.304-.246-.304-.246-.865 0-.56.248-.87.248-.311.69-.311.46 0 .706.335h.027l-.015-.163-.008-.16v-.923h.343v3.22h-.28zm-.685.058q.35 0 .508-.19.159-.193.159-.62v-.072q0-.482-.161-.687-.16-.207-.51-.207-.302 0-.463.236-.159.234-.159.662 0 .435.16.656.158.222.466.222zM59.59 11.305l.03.045q-.053.207-.155.483-.1.273-.21.509h-.252q.144-.59.21-1.037zM61.493 13.711q0 .317-.235.489-.236.171-.66.171-.451 0-.703-.142v-.32q.163.084.349.131.188.048.361.048.269 0 .413-.085.145-.087.145-.263 0-.132-.116-.225-.113-.095-.446-.224-.316-.118-.45-.205-.132-.089-.198-.2-.064-.112-.064-.267 0-.277.225-.437.225-.161.617-.161.366 0 .715.149l-.122.28q-.34-.142-.617-.142-.244 0-.368.077t-.124.211q0 .091.045.155.048.064.151.122.103.058.397.168.402.147.543.296.142.149.142.374zM63.878 14.088q.091 0 .176-.013.085-.014.134-.029v.263q-.056.027-.165.044-.107.018-.194.018-.657 0-.657-.693V12.33h-.324v-.165l.324-.143.145-.484h.198v.525h.657v.267h-.657v1.335q0 .204.097.314.097.11.266.11zM66.596 13.194q0 .554-.279.867-.278.31-.77.31-.304 0-.539-.142-.235-.143-.363-.41t-.128-.625q0-.555.276-.863.277-.31.769-.31.474 0 .753.316.281.317.281.857zm-1.724 0q0 .434.173.662.174.228.51.228.337 0 .51-.226.176-.227.176-.664 0-.432-.176-.656-.173-.225-.514-.225-.336 0-.508.221-.171.221-.171.66zM68.248 14.371q-.22 0-.405-.08-.181-.083-.305-.253h-.025q.025.199.025.377v.933h-.343v-3.286h.279l.047.31h.017q.132-.186.308-.268.175-.083.402-.083.45 0 .694.308.246.308.246.865 0 .559-.25.869-.248.308-.69.308zm-.05-2.058q-.346 0-.501.192-.155.192-.16.612v.077q0 .478.16.685.159.205.51.205.293 0 .458-.238.168-.238.168-.656 0-.424-.168-.65-.165-.227-.466-.227zM73.772 14.33v-1.475q0-.271-.115-.406-.116-.136-.36-.136-.32 0-.473.184-.152.184-.152.567v1.266h-.343v-1.475q0-.271-.116-.406-.115-.136-.361-.136-.322 0-.473.194-.149.192-.149.633v1.19h-.343v-2.268h.28l.055.31h.016q.097-.165.273-.258.178-.093.397-.093.53 0 .693.385h.017q.101-.178.293-.282.192-.103.438-.103.384 0 .574.198.192.197.192.632v1.479zM76.211 14.33l-.068-.323h-.017q-.169.213-.338.29-.167.074-.42.074-.336 0-.528-.174-.19-.173-.19-.494 0-.687 1.097-.72l.384-.012v-.141q0-.267-.116-.393-.114-.129-.366-.129-.282 0-.64.174l-.105-.263q.167-.09.365-.142.2-.052.401-.052.405 0 .599.18.196.18.196.577v1.548zm-.774-.242q.32 0 .502-.176.183-.176.183-.492v-.205l-.342.014q-.41.015-.591.128-.18.112-.18.35 0 .186.112.284.113.097.316.097zM78.206 12.02q.15 0 .27.026l-.047.318q-.14-.03-.248-.03-.274 0-.47.223-.195.223-.195.556v1.217h-.343v-2.268h.283l.04.42h.016q.126-.221.304-.341.177-.12.39-.12zM80.752 12.062v.217l-.419.05q.058.073.103.19.046.116.046.263 0 .333-.227.532-.228.199-.624.199-.101 0-.19-.017-.219.116-.219.292 0 .093.076.138.077.044.263.044h.4q.368 0 .564.155.198.155.198.451 0 .377-.301.573-.302.199-.88.199-.444 0-.685-.166-.24-.165-.24-.467 0-.207.132-.358t.372-.205q-.087-.04-.147-.122-.058-.083-.058-.193 0-.124.067-.217.066-.093.208-.18-.175-.072-.287-.246-.11-.174-.11-.397 0-.373.224-.573.223-.203.632-.203.177 0 .32.041zm-1.805 2.649q0 .184.155.279.155.095.444.095.432 0 .638-.13.209-.129.209-.35 0-.184-.114-.256-.113-.07-.427-.07h-.411q-.233 0-.364.11-.13.113-.13.322zm.186-1.923q0 .238.134.36.135.123.374.123.502 0 .502-.489 0-.51-.508-.51-.242 0-.372.13t-.13.386zM81.564 14.33h-.343v-2.268h.343zm-.372-2.882q0-.118.058-.172.058-.056.145-.056.082 0 .142.056.06.056.06.172 0 .116-.06.174-.06.055-.142.055-.087 0-.145-.055-.058-.058-.058-.174zM83.844 14.33v-1.467q0-.277-.126-.414-.126-.136-.395-.136-.355 0-.52.192-.165.192-.165.635v1.19h-.343v-2.268h.279l.055.31h.017q.105-.167.295-.258.19-.093.424-.093.408 0 .615.198.207.197.207.632v1.479z"/></g><g fill="#a2000d"><path d="M10.186 26.555v-2.382h.397v2.382zM0 26.555v-2.382h.397v2.382z"/><path d="M0 25.166h10.583v.396H0z"/></g><g fill="#a2000d"><path d="M102.79 26.555v-2.382h.398v2.382zM92.604 26.555v-2.382h.397v2.382z"/><path d="M92.604 25.166h10.584v.396H92.604z"/></g><g fill="#a2000d"><path d="M45.244 18.124h2.381v.397h-2.381zM45.244 7.938h2.381v.396h-2.381z"/><path d="M46.633 7.938V18.52h-.397V7.938z"/></g><g fill="#a2000d" fill-opacity=".392"><path d="M43.127 18.124h2.381v.397h-2.38zM44.516 7.938v10.186h-.397V7.938z"/></g></svg>