<svg xmlns="http://www.w3.org/2000/svg" viewBox="0 0 43.942 54.296" height="205.214" width="166.08"><g style="line-height:1.25;-inkscape-font-specification:'Open Sans, Normal';font-variant-ligatures:normal;font-variant-caps:normal;font-variant-numeric:normal;font-feature-settings:normal;text-align:start" aria-label="Collapsed margin" font-weight="400" font-size="4.233" font-family="Open Sans" letter-spacing="0" word-spacing="0" stroke-width=".265"><path style="-inkscape-font-specification:'Open Sans, Normal';font-variant-ligatures:normal;font-variant-caps:normal;font-variant-numeric:normal;font-feature-settings:normal;text-align:start" d="M7.144 4.908q-.498 0-.788.333-.287.33-.287.907 0 .594.277.918.28.323.794.323.316 0 .721-.114v.308q-.314.118-.775.118-.667 0-1.031-.405-.362-.405-.362-1.152 0-.467.174-.818.175-.352.504-.542.33-.19.777-.19.476 0 .831.174l-.149.301q-.343-.16-.686-.16zM10.424 6.525q0 .554-.279.866-.279.31-.77.31-.304 0-.54-.143-.236-.142-.364-.41-.128-.266-.128-.623 0-.554.277-.862.277-.31.769-.31.475 0 .754.316.281.316.281.856zm-1.726 0q0 .434.174.661.174.228.51.228.338 0 .511-.226.176-.227.176-.663 0-.432-.176-.656-.173-.225-.514-.225-.337 0-.509.221t-.172.66zM11.367 7.66h-.343V4.442h.343zM12.442 7.66h-.343V4.442h.343zM14.567 7.66l-.068-.323h-.017q-.17.213-.339.29-.167.074-.42.074-.336 0-.529-.174-.19-.173-.19-.494 0-.686 1.098-.72l.384-.012v-.14q0-.267-.115-.393-.114-.128-.366-.128-.284 0-.641.174l-.106-.263q.168-.09.366-.143.2-.051.401-.051.405 0 .6.18.196.18.196.576V7.66zm-.775-.242q.32 0 .502-.176.184-.176.184-.492v-.205l-.343.015q-.41.014-.591.128-.18.112-.18.35 0 .185.111.282.114.098.317.098zM16.584 7.7q-.22 0-.405-.08-.182-.082-.306-.252h-.025q.025.198.025.376v.932h-.343V5.394h.28l.047.31h.016q.132-.186.308-.269.176-.082.403-.082.45 0 .695.308.246.308.246.864 0 .558-.25.868-.248.308-.69.308zm-.05-2.056q-.347 0-.502.192-.155.193-.159.612v.077q0 .477.16.684.159.205.51.205.293 0 .459-.238.167-.238.167-.655 0-.424-.167-.65-.166-.227-.467-.227zM19.588 7.041q0 .317-.236.488-.236.172-.661.172-.451 0-.703-.143V7.24q.163.083.35.13.187.048.36.048.27 0 .414-.085.145-.087.145-.263 0-.132-.116-.225-.113-.095-.446-.223-.317-.118-.45-.205-.133-.089-.2-.2-.063-.112-.063-.267 0-.277.225-.436.225-.161.618-.161.366 0 .715.148l-.122.28q-.34-.141-.618-.141-.244 0-.368.076-.124.077-.124.211 0 .091.046.155.047.064.15.122.104.058.397.168.404.146.544.295.143.15.143.374zM21.1 7.7q-.501 0-.793-.305-.29-.306-.29-.85 0-.547.27-.87.27-.322.725-.322.426 0 .674.28.248.28.248.739v.217h-1.56q.01.399.2.605.192.207.54.207.365 0 .723-.153v.306q-.182.079-.346.112-.16.035-.39.035zm-.092-2.06q-.273 0-.436.178-.162.178-.19.492h1.184q0-.325-.145-.496-.144-.174-.413-.174zM24.059 7.356h-.019q-.238.345-.71.345-.445 0-.693-.304-.246-.304-.246-.864t.248-.87q.248-.31.69-.31.461 0 .707.335h.027l-.015-.164-.008-.159v-.922h.344V7.66h-.28zm-.687.058q.352 0 .509-.19.16-.193.16-.619v-.072q0-.482-.162-.686-.16-.207-.51-.207-.302 0-.464.236-.159.233-.159.661 0 .434.16.655.159.222.466.222zM29.1 7.66V6.185q0-.271-.115-.405-.116-.137-.36-.137-.32 0-.473.184-.153.184-.153.566V7.66h-.344V6.186q0-.271-.115-.405-.116-.137-.362-.137-.323 0-.473.194-.15.193-.15.633v1.188h-.342V5.394h.279l.055.31h.017q.097-.165.273-.258.178-.093.397-.093.53 0 .694.384h.017q.101-.178.293-.281.193-.103.438-.103.385 0 .575.198.192.196.192.63V7.66zM31.542 7.66l-.069-.323h-.016q-.17.213-.34.29-.167.074-.419.074-.337 0-.529-.174-.19-.173-.19-.494 0-.686 1.097-.72l.385-.012v-.14q0-.267-.116-.393-.113-.128-.366-.128-.283 0-.64.174l-.106-.263q.168-.09.366-.143.2-.051.401-.051.405 0 .6.18.196.18.196.576V7.66zm-.776-.242q.32 0 .503-.176.184-.176.184-.492v-.205l-.343.015q-.41.014-.592.128-.18.112-.18.35 0 .185.112.282.114.098.316.098zM33.538 5.353q.151 0 .271.024l-.047.319q-.141-.031-.248-.031-.275 0-.472.223-.194.223-.194.556V7.66h-.343V5.394h.283l.04.42h.016q.126-.222.304-.341.177-.12.39-.12zM36.087 5.394v.217l-.42.05q.058.072.104.19.045.116.045.262 0 .333-.227.532-.228.198-.624.198-.102 0-.19-.017-.22.116-.22.292 0 .093.077.138.076.044.262.044h.401q.368 0 .565.155.198.155.198.45 0 .377-.302.573-.302.198-.88.198-.445 0-.687-.165-.24-.165-.24-.467 0-.207.133-.358.132-.15.372-.204-.087-.04-.147-.122-.058-.083-.058-.192 0-.124.066-.218.067-.093.21-.18-.176-.072-.288-.245-.11-.174-.11-.397 0-.372.224-.573.223-.202.632-.202.178 0 .32.041zM34.28 8.04q0 .184.155.279.155.095.445.095.432 0 .639-.13.208-.128.208-.35 0-.184-.113-.256-.114-.07-.428-.07h-.412q-.233 0-.363.111-.13.112-.13.32zm.186-1.92q0 .237.135.36.134.121.374.121.502 0 .502-.488 0-.51-.508-.51-.242 0-.372.13t-.13.387zM36.9 7.66h-.344V5.393h.343zm-.373-2.88q0-.118.058-.171.058-.056.145-.056.083 0 .142.056.06.055.06.171 0 .116-.06.174-.06.056-.142.056-.087 0-.145-.056-.058-.058-.058-.174zM39.181 7.66V6.193q0-.277-.126-.413-.126-.137-.395-.137-.355 0-.52.192-.166.193-.166.635v1.188h-.343V5.394h.28l.055.31h.016q.106-.167.296-.258.19-.093.424-.093.409 0 .616.198.206.196.206.63V7.66z"/></g><g fill="#a2000d"><path d="M2.061 12.435H6.03v.794H2.06zM2.061 0H6.03v.794H2.06z"/><path d="M4.442 0v13.23H3.65V0z"/></g><path d="M.143 13.23h43.656" fill="none" stroke="#3d3d55" stroke-width=".282" stroke-linecap="round" stroke-dasharray=".28182084,.8454625" stroke-dashoffset=".185"/><g style="line-height:1.25;-inkscape-font-specification:'Open Sans, Normal';font-variant-ligatures:normal;font-variant-caps:normal;font-variant-numeric:normal;font-feature-settings:normal;text-align:start" aria-label="Collapsed margin" font-weight="400" font-size="4.233" font-family="Open Sans" letter-spacing="0" word-spacing="0" stroke-width=".265"><path style="-inkscape-font-specification:'Open Sans, Normal';font-variant-ligatures:normal;font-variant-caps:normal;font-variant-numeric:normal;font-feature-settings:normal;text-align:start" d="M7.144 22.796q-.498 0-.787.333-.288.33-.288.907 0 .593.277.918.28.322.794.322.316 0 .721-.113v.308q-.314.118-.775.118-.667 0-1.031-.406-.362-.405-.362-1.15 0-.468.174-.82.175-.35.504-.541.33-.19.777-.19.476 0 .831.173l-.149.302q-.343-.161-.686-.161zM10.424 24.412q0 .554-.279.867-.279.31-.77.31-.304 0-.54-.143-.236-.143-.364-.41-.128-.266-.128-.624 0-.554.277-.862.277-.31.769-.31.475 0 .754.317.281.316.281.855zm-1.726 0q0 .435.174.662.174.227.51.227.338 0 .511-.225.176-.227.176-.664 0-.432-.176-.655-.173-.225-.514-.225-.337 0-.509.221t-.172.66zM11.367 25.547h-.343v-3.216h.343zM12.442 25.547h-.343v-3.216h.343zM14.567 25.547l-.068-.322h-.017q-.17.213-.339.29-.167.074-.42.074-.336 0-.529-.174-.19-.174-.19-.494 0-.686 1.098-.72l.384-.012v-.14q0-.267-.115-.393-.114-.128-.366-.128-.284 0-.641.173l-.106-.262q.168-.091.366-.143.2-.051.401-.051.405 0 .6.18.196.18.196.576v1.546zm-.775-.242q.32 0 .502-.175.184-.176.184-.492v-.205l-.343.015q-.41.014-.591.128-.18.111-.18.35 0 .185.111.282.114.097.317.097zM16.584 25.589q-.22 0-.405-.081-.182-.083-.306-.252h-.025q.025.198.025.376v.932h-.343v-3.282h.28l.047.31h.016q.133-.186.308-.269.176-.083.403-.083.45 0 .695.308.246.308.246.864 0 .559-.25.869-.248.308-.69.308zm-.05-2.057q-.347 0-.502.192-.155.192-.159.612v.076q0 .478.16.685.159.204.51.204.293 0 .459-.237.167-.238.167-.656 0-.423-.167-.649-.166-.227-.467-.227zM19.588 24.93q0 .315-.236.487t-.661.172q-.451 0-.703-.143v-.318q.163.082.35.13.187.047.36.047.27 0 .414-.084.145-.087.145-.263 0-.132-.116-.225-.113-.095-.446-.223-.316-.118-.45-.205-.133-.089-.2-.2-.063-.112-.063-.267 0-.277.225-.436.225-.162.618-.162.366 0 .715.15l-.122.278q-.34-.14-.618-.14-.244 0-.368.076-.124.077-.124.211 0 .091.046.155.047.064.15.122.104.058.397.167.404.147.544.296.143.149.143.374zM21.1 25.589q-.501 0-.793-.306-.29-.306-.29-.85 0-.548.27-.87.27-.323.725-.323.426 0 .674.282.248.279.248.737v.218h-1.56q.01.398.2.605.192.207.54.207.365 0 .723-.153v.306q-.182.078-.346.111-.16.036-.39.036zm-.092-2.061q-.273 0-.436.178-.162.177-.19.491h1.184q0-.324-.145-.496-.144-.173-.413-.173zM24.059 25.243h-.019q-.238.346-.71.346-.445 0-.693-.304-.246-.304-.246-.864t.248-.87q.248-.31.69-.31.461 0 .707.334h.027l-.015-.163-.008-.16v-.921h.344v3.216h-.28zm-.686.058q.35 0 .508-.19.16-.192.16-.618v-.072q0-.482-.162-.687-.16-.206-.51-.206-.302 0-.464.235-.159.234-.159.662 0 .434.16.655.159.221.467.221zM29.1 25.547v-1.474q0-.27-.115-.405-.116-.136-.36-.136-.32 0-.473.184-.153.184-.153.566v1.265h-.344v-1.474q0-.27-.115-.405-.116-.136-.362-.136-.322 0-.473.194-.15.192-.15.633v1.188h-.342v-2.265h.279l.056.31h.016q.097-.166.273-.259.178-.093.397-.093.531 0 .694.385h.017q.101-.178.293-.281.193-.104.439-.104.384 0 .574.199.192.196.192.63v1.478zM31.542 25.547l-.069-.322h-.016q-.17.213-.34.29-.167.074-.419.074-.337 0-.529-.174-.19-.174-.19-.494 0-.686 1.097-.72l.385-.012v-.14q0-.267-.116-.393-.113-.128-.366-.128-.283 0-.64.173l-.106-.262q.168-.091.366-.143.2-.051.401-.051.405 0 .6.18.196.18.196.576v1.546zm-.776-.242q.32 0 .503-.175.184-.176.184-.492v-.205l-.343.015q-.41.014-.592.128-.18.111-.18.35 0 .185.112.282.114.097.316.097zM33.538 23.24q.151 0 .271.025l-.047.319q-.141-.031-.248-.031-.275 0-.472.223-.194.223-.194.556v1.215h-.343v-2.265h.283l.04.42h.016q.126-.222.304-.342.177-.12.39-.12zM36.087 23.282v.217l-.42.05q.058.072.104.19.045.115.045.262 0 .333-.227.531-.228.199-.624.199-.102 0-.19-.017-.22.116-.22.292 0 .093.077.138.076.044.262.044h.401q.368 0 .565.155.198.155.198.45 0 .376-.302.573-.301.198-.88.198-.445 0-.687-.165-.24-.165-.24-.467 0-.207.133-.358.132-.15.372-.205-.087-.039-.147-.121-.058-.083-.058-.193 0-.124.066-.217.067-.093.21-.18-.176-.072-.288-.246-.11-.173-.11-.396 0-.373.224-.573.223-.203.632-.203.178 0 .32.042zm-1.807 2.646q0 .184.155.279.155.095.445.095.432 0 .639-.13.208-.129.208-.35 0-.184-.113-.256-.114-.07-.428-.07h-.412q-.233 0-.363.111-.13.112-.13.32zm.186-1.92q0 .237.135.359.134.122.374.122.502 0 .502-.488 0-.51-.508-.51-.242 0-.372.13t-.13.386zM36.9 25.547h-.344v-2.265h.343zm-.373-2.88q0-.117.058-.17.058-.057.145-.057.083 0 .142.056.06.056.06.172 0 .116-.06.173-.06.056-.142.056-.087 0-.145-.056-.058-.057-.058-.173zM39.181 25.547v-1.465q0-.277-.126-.414-.126-.136-.395-.136-.355 0-.52.192-.166.192-.166.635v1.188h-.343v-2.265h.28l.055.31h.016q.106-.168.296-.259.19-.093.424-.093.409 0 .616.199.206.196.206.63v1.478z"/></g><g fill="#a2000d"><path d="M2.061 32.969H6.03v.794H2.06zM2.061 20.534H6.03v.793H2.06z"/><path d="M4.442 20.534v13.229H3.65v-13.23z"/></g><path d="M.143 27.148h43.656" fill="none" stroke="#3d3d55" stroke-width=".282" stroke-linecap="round" stroke-dasharray=".28182084,.8454625" stroke-dashoffset=".185"/><g style="line-height:1.25;-inkscape-font-specification:'Open Sans, Normal';font-variant-ligatures:normal;font-variant-caps:normal;font-variant-numeric:normal;font-feature-settings:normal;text-align:start" aria-label="Collapsed margin" font-weight="400" font-size="4.233" font-family="Open Sans" letter-spacing="0" word-spacing="0" stroke-width=".265"><path style="-inkscape-font-specification:'Open Sans, Normal';font-variant-ligatures:normal;font-variant-caps:normal;font-variant-numeric:normal;font-feature-settings:normal;text-align:start" d="M7.144 46.03q-.498 0-.788.333-.287.33-.287.907 0 .594.277.918.28.323.794.323.316 0 .721-.114v.308q-.314.118-.775.118-.668 0-1.031-.405-.362-.406-.362-1.152 0-.467.174-.818.175-.352.504-.542.33-.19.777-.19.476 0 .831.174l-.149.301q-.343-.16-.686-.16zM10.424 47.647q0 .554-.279.866-.279.31-.77.31-.304 0-.54-.143-.236-.142-.364-.41-.128-.266-.128-.623 0-.554.277-.862.277-.31.769-.31.475 0 .754.316.281.316.281.856zm-1.726 0q0 .434.174.661.174.227.51.227.338 0 .511-.225.176-.227.176-.663 0-.432-.176-.656-.173-.225-.514-.225-.337 0-.509.221t-.172.66zM11.367 48.781h-.343v-3.216h.343zM12.442 48.781h-.343v-3.216h.343zM14.567 48.781l-.068-.322h-.017q-.17.213-.339.29-.167.074-.42.074-.336 0-.529-.174-.19-.174-.19-.494 0-.686 1.098-.72l.384-.012v-.14q0-.267-.115-.393-.114-.128-.366-.128-.284 0-.641.174l-.106-.263q.168-.09.366-.143.2-.051.401-.051.405 0 .6.18.196.18.196.576v1.546zm-.775-.241q.32 0 .502-.176.184-.176.184-.492v-.205l-.343.015q-.41.014-.591.128-.18.112-.18.35 0 .185.111.282.114.098.317.098zM16.584 48.823q-.22 0-.405-.08-.182-.084-.306-.253h-.025q.025.198.025.376v.932h-.343v-3.282h.28l.047.31h.016q.132-.186.308-.269.176-.082.403-.082.45 0 .695.308.246.308.246.864 0 .558-.25.868-.248.308-.69.308zm-.05-2.057q-.347 0-.502.192-.155.193-.159.612v.077q0 .477.16.684.159.204.51.204.293 0 .459-.237.167-.238.167-.656 0-.423-.167-.649-.166-.227-.467-.227zM19.588 48.163q0 .317-.236.488-.236.172-.661.172-.451 0-.703-.143v-.318q.163.082.35.13.187.048.36.048.27 0 .414-.085.145-.087.145-.263 0-.132-.116-.225-.113-.095-.446-.223-.317-.118-.45-.205-.133-.089-.2-.2-.063-.112-.063-.267 0-.277.225-.436.225-.161.618-.161.366 0 .715.148l-.122.28q-.34-.141-.618-.141-.244 0-.368.076-.124.077-.124.211 0 .091.046.155.047.064.15.122.104.058.397.168.404.146.544.295.143.15.143.374zM21.1 48.823q-.501 0-.793-.306-.29-.306-.29-.85 0-.547.27-.87.27-.322.725-.322.426 0 .674.28.248.28.248.739v.217h-1.56q.01.399.2.605.192.207.54.207.365 0 .723-.153v.306q-.182.079-.346.112-.16.035-.39.035zm-.092-2.061q-.273 0-.436.178-.162.177-.19.492h1.184q0-.325-.145-.496-.144-.174-.413-.174zM24.059 48.478h-.019q-.238.345-.71.345-.445 0-.693-.304-.246-.304-.246-.864t.248-.87q.248-.31.69-.31.461 0 .707.334h.027l-.015-.163-.008-.159v-.922h.344v3.216h-.28zm-.687.057q.352 0 .509-.19.16-.192.16-.618v-.072q0-.482-.162-.686-.16-.207-.51-.207-.302 0-.464.236-.159.233-.159.661 0 .434.16.655.158.221.466.221zM29.1 48.781v-1.473q0-.271-.115-.406-.116-.136-.36-.136-.32 0-.473.184-.153.184-.153.566v1.265h-.344v-1.473q0-.271-.115-.406-.116-.136-.362-.136-.323 0-.473.194-.15.193-.15.633v1.188h-.342v-2.265h.279l.055.31h.017q.097-.165.273-.258.178-.093.397-.093.53 0 .694.384h.017q.101-.178.293-.281.192-.103.438-.103.385 0 .575.198.192.196.192.63v1.478zM31.541 48.781l-.068-.322h-.016q-.17.213-.34.29-.167.074-.419.074-.337 0-.529-.174-.19-.174-.19-.494 0-.686 1.097-.72l.385-.012v-.14q0-.267-.116-.393-.114-.128-.366-.128-.283 0-.64.174l-.106-.263q.168-.09.366-.143.2-.051.401-.051.405 0 .6.18.196.18.196.576v1.546zm-.775-.241q.32 0 .503-.176.184-.176.184-.492v-.205l-.344.015q-.409.014-.59.128-.18.112-.18.35 0 .185.111.282.114.098.316.098zM33.538 46.475q.151 0 .271.024l-.047.319q-.141-.031-.248-.031-.275 0-.472.223-.194.223-.194.556v1.215h-.343v-2.265h.283l.04.42h.016q.126-.222.304-.342.177-.12.39-.12zM36.087 46.516v.217l-.42.05q.058.072.104.19.045.116.045.262 0 .333-.227.531-.228.199-.624.199-.102 0-.19-.017-.22.116-.22.292 0 .093.077.138.076.044.262.044h.401q.368 0 .565.155.198.155.198.45 0 .377-.302.573-.302.198-.88.198-.445 0-.687-.165-.24-.165-.24-.467 0-.207.133-.358.132-.15.372-.204-.087-.04-.147-.122-.058-.083-.058-.193 0-.124.066-.217.067-.093.21-.18-.176-.072-.288-.245-.11-.174-.11-.397 0-.372.224-.573.223-.202.632-.202.178 0 .32.04zm-1.807 2.646q0 .184.155.279.155.095.445.095.432 0 .639-.13.208-.128.208-.35 0-.184-.113-.256-.114-.07-.428-.07h-.412q-.233 0-.363.111-.13.112-.13.32zm.186-1.92q0 .237.135.36.134.121.374.121.502 0 .502-.488 0-.51-.508-.51-.242 0-.372.13t-.13.386zM36.9 48.781h-.344v-2.265h.343zm-.373-2.879q0-.118.058-.172.058-.055.145-.055.083 0 .142.055.06.056.06.172 0 .116-.06.174-.06.055-.142.055-.087 0-.145-.055-.058-.058-.058-.174zM39.181 48.781v-1.465q0-.277-.126-.414-.126-.136-.395-.136-.355 0-.52.192-.166.193-.166.635v1.188h-.343v-2.265h.28l.055.31h.016q.106-.167.296-.258.19-.093.424-.093.409 0 .616.198.206.196.206.63v1.478z"/></g><g fill="#a2000d"><path d="M2.061 53.503H6.03v.793H2.06zM2.061 41.067H6.03v.794H2.06z"/><path d="M4.442 41.067v13.23H3.65v-13.23z"/></g><path d="M.143 41.067h43.656" fill="none" stroke="#3d3d55" stroke-width=".282" stroke-linecap="round" stroke-dasharray=".28182084,.8454625" stroke-dashoffset=".185"/></svg>