<svg xmlns="http://www.w3.org/2000/svg" viewBox="0 0 79.375 18.785" height="71" width="300"><path d="M0 2.646h79.375v16.14H0z" fill="#dfdff9"/><path d="M5.556 5.292h68.792v13.493H5.556z" fill="#705697"/><path d="M11.113 13.494H69.32v5.291H11.112z" fill="#3d3d55"/><path d="M11.113 13.23H69.32v.264H11.112z" fill="#bfbff3"/><g fill="#a2000d"><path d="M36.116 0h2.38v.397h-2.38z"/><path d="M37.505 0v2.646h-.397V0z"/></g><g fill="#a2000d"><path d="M41.936 12.832h2.382v.397h-2.382zM41.936 5.292h2.382v.397h-2.382z"/><path d="M43.326 5.292v7.937h-.397V5.292z"/></g><g fill="#a2000d" fill-opacity=".392"><path d="M36.116 12.832h2.38v.397h-2.38z"/><path d="M37.505 2.646v10.583h-.397V2.646z"/></g><g fill="#a2000d"><path d="M39.026 2.646h2.381v.397h-2.381z"/><path d="M40.415 2.646v2.646h-.397V2.646z"/></g><g fill="#a2000d" fill-opacity=".392"><path d="M39.026 12.832h2.381v.397h-2.381z"/><path d="M40.415 5.292v7.937h-.397V5.292z"/></g></svg>