<svg xmlns="http://www.w3.org/2000/svg" viewBox="0 0 115.322 60.854" height="230" width="435.863"><defs><marker id="a" refX="0" refY="0" orient="auto" overflow="visible"><path d="M10.69 4.437L-1.328.017 10.69-4.401c-1.92 2.61-1.909 6.18 0 8.84z" fill="#374047" fill-rule="evenodd" stroke="#374047" stroke-width=".6875" stroke-linejoin="round"/></marker><marker orient="auto" refY="0" refX="0" id="b" overflow="visible"><path d="M-10.69-4.437L1.328-.017-10.69 4.401c1.92-2.61 1.909-6.18 0-8.84z" fill="#374047" fill-rule="evenodd" stroke="#374047" stroke-width=".6875" stroke-linejoin="round"/></marker><marker id="c" refX="0" refY="0" orient="auto" overflow="visible"><path d="M10.69 4.437L-1.328.017 10.69-4.401c-1.92 2.61-1.909 6.18 0 8.84z" fill="#374047" fill-rule="evenodd" stroke="#374047" stroke-width=".6875" stroke-linejoin="round"/></marker><marker orient="auto" refY="0" refX="0" id="d" overflow="visible"><path d="M-10.69-4.437L1.328-.017-10.69 4.401c1.92-2.61 1.909-6.18 0-8.84z" fill="#374047" fill-rule="evenodd" stroke="#374047" stroke-width=".6875" stroke-linejoin="round"/></marker><marker id="e" refX="0" refY="0" orient="auto" overflow="visible"><path d="M2.308 0l-3.46 2v-4z" fill="#131516" fill-rule="evenodd" stroke="#131516" stroke-width=".5332"/></marker></defs><path d="M14.772 0h85.99v18.52h-85.99z" fill="#dfdff9"/><path d="M18.575 0h78.383v5.292H18.575z" fill="#705697"/><g style="line-height:1.25" aria-label="Box 1" font-weight="400" font-size="4.013" font-family="sans-serif" letter-spacing="0" word-spacing="0" fill="#ececfb" stroke-width=".265"><path d="M21.072 3.856q0 .23-.078.406-.078.175-.21.289-.156.136-.343.194-.186.058-.474.058h-.98V1.725h.818q.303 0 .454.025.15.025.288.103.152.09.22.23.07.138.07.333 0 .219-.1.374-.101.153-.268.246v.016q.28.064.442.275.161.209.161.53zm-.618-1.387q0-.111-.034-.188-.033-.076-.107-.124-.088-.055-.212-.068-.125-.014-.309-.014h-.438v.888h.476q.172 0 .275-.018.102-.02.189-.083.087-.062.123-.159.037-.1.037-.234zm.236 1.404q0-.186-.05-.296-.05-.11-.183-.186-.089-.051-.217-.066-.126-.016-.308-.016h-.578v1.145h.487q.241 0 .395-.027.155-.029.253-.103.104-.081.152-.184.049-.104.049-.267zM23.335 3.65q0 .564-.26.89-.26.327-.697.327-.44 0-.7-.326-.258-.327-.258-.891 0-.565.258-.891.26-.329.7-.329.437 0 .697.329.26.326.26.89zm-.36 0q0-.449-.159-.666-.157-.219-.438-.219-.284 0-.442.22-.156.216-.156.665 0 .434.158.66.158.222.44.222.279 0 .437-.22.16-.224.16-.662zM25.636 4.803h-.44l-.589-.887-.593.887h-.406l.81-1.151-.803-1.158h.44l.585.873.587-.873h.41l-.816 1.137zM29.098 4.803h-1.497V4.49h.576V2.426h-.576v-.281q.117 0 .251-.02.134-.023.202-.065.086-.051.134-.13.05-.08.058-.215h.288v2.774h.564z"/></g><path d="M18.575 13.23h78.383v5.29H18.575z" fill="#705697"/><g style="line-height:1.25" aria-label="Box 2" font-weight="400" font-size="4.013" font-family="sans-serif" letter-spacing="0" word-spacing="0" fill="#f3eafb" stroke-width=".265"><path d="M21.072 17.086q0 .23-.078.405-.078.175-.21.29-.156.136-.343.193-.186.058-.474.058h-.98v-3.078h.818q.303 0 .454.025.15.025.288.104.152.089.22.23.07.138.07.332 0 .219-.1.374-.101.153-.268.246v.017q.28.064.442.274.161.21.161.53zm-.618-1.387q0-.112-.034-.188-.033-.077-.107-.125-.088-.055-.212-.068-.125-.014-.309-.014h-.438v.889h.476q.172 0 .275-.019.102-.02.189-.083.087-.062.123-.159.037-.099.037-.233zm.236 1.403q0-.186-.05-.295-.05-.11-.183-.186-.089-.052-.217-.067-.126-.016-.308-.016h-.578v1.145h.487q.241 0 .395-.027.155-.029.253-.103.104-.08.152-.184.049-.104.049-.267zM23.335 16.879q0 .564-.26.89-.26.327-.697.327-.44 0-.7-.326-.258-.327-.258-.891 0-.564.258-.891.26-.329.7-.329.437 0 .697.329.26.327.26.89zm-.36 0q0-.449-.159-.666-.157-.219-.438-.219-.284 0-.442.22-.156.216-.156.665 0 .434.158.66.158.223.44.223.279 0 .437-.222.16-.223.16-.661zM25.636 18.032h-.44l-.589-.886-.593.886h-.406l.81-1.151-.803-1.158h.44l.585.873.587-.873h.41l-.816 1.137zM29.256 18.032h-1.872V17.6l.39-.372q.197-.186.366-.37.357-.384.488-.61.132-.227.132-.49 0-.24-.143-.374-.14-.136-.395-.136-.17 0-.366.066-.197.066-.385.203h-.018v-.434q.132-.073.35-.133.222-.06.428-.06.425 0 .667.23.241.227.241.618 0 .176-.04.329-.04.15-.118.287-.072.128-.17.252-.097.124-.236.275-.2.217-.41.422l-.397.376h1.488z"/></g><path d="M87.532 0h13.23v13.23h-13.23z" fill="#5c004e" fill-opacity=".686"/><g style="line-height:1.25" aria-label="Float" font-weight="400" font-size="4.233" font-family="sans-serif" letter-spacing="0" word-spacing="0" fill="#f8f9f9" stroke-width=".265"><path d="M91.172 5.477h-1.557v.868h1.337v.364h-1.337V8.19h-.41V5.113h1.967zM91.998 8.19h-.388V4.975h.388zM94.74 7.037q0 .565-.29.891-.29.327-.775.327-.49 0-.78-.327-.287-.326-.287-.89 0-.565.287-.892.29-.328.78-.328.486 0 .775.328.29.327.29.891zm-.402 0q0-.448-.175-.665-.176-.22-.488-.22-.317 0-.492.22-.174.217-.174.665 0 .434.176.66.176.223.49.223.31 0 .486-.221.177-.223.177-.662zM97.137 8.19h-.386v-.245q-.052.035-.141.099-.087.062-.17.1-.097.047-.223.078-.126.033-.295.033-.312 0-.53-.207-.217-.207-.217-.527 0-.263.112-.424.114-.163.323-.256.21-.093.506-.126.296-.033.635-.05v-.06q0-.132-.048-.219-.046-.087-.132-.136-.083-.048-.199-.064-.116-.017-.242-.017-.153 0-.34.041-.189.04-.39.116h-.02v-.395q.114-.03.329-.068.215-.037.423-.037.244 0 .424.041.182.04.314.137.13.095.199.246.068.15.068.374zm-.386-.568V6.98q-.178.01-.42.031-.24.021-.38.06-.168.048-.271.15-.104.098-.104.274 0 .199.12.3.12.1.366.1.205 0 .374-.08.17-.08.315-.192zM99.088 8.17q-.11.029-.24.048-.128.018-.229.018-.353 0-.537-.19-.184-.19-.184-.61V6.208h-.263v-.326h.263v-.664h.388v.664h.802v.326h-.802v1.053q0 .181.008.285.008.101.058.19.046.083.124.122.08.037.244.037.095 0 .199-.027.103-.029.148-.047h.021z"/></g><g fill="#a2000d"><path d="M56.58 9.128h2.381v.132h-2.38zM56.58 5.292h2.381v.132h-2.38z"/><path d="M57.97 5.292V9.26h-.398V5.292z"/></g><g fill="#a2000d"><path d="M56.58 13.097h2.381v.132h-2.38zM56.58 9.26h2.381v.133h-2.38z"/><path d="M57.97 9.26v3.97h-.398V9.26z"/></g><path d="M15.875 31.094H7.937" transform="matrix(1.33333 0 0 1 -2.591 -31.043)" fill="#374047" stroke="#374047" stroke-width=".102"/><path d="M15.875 31.094H7.937" transform="matrix(1.3125 0 0 .98438 -2.26 -25.368)" fill="#374047" stroke="#374047" stroke-width=".104"/><path d="M6.615 31.094v5.291" transform="matrix(.99259 0 0 .92279 4.213 -28.49)" fill="#374047" stroke="#374047" stroke-width=".068" marker-start="url(#a)" marker-end="url(#b)"/><g style="line-height:1.25" aria-label="20 px" font-weight="400" font-size="3.704" font-family="Open Sans" letter-spacing="0" word-spacing="0" fill="#131516" stroke-width=".265"><path style="-inkscape-font-specification:'Open Sans'" d="M1.738 3.552H0v-.258l.696-.7q.319-.322.42-.46.101-.137.152-.267.05-.13.05-.28 0-.212-.128-.335-.128-.125-.356-.125-.165 0-.313.054-.147.055-.327.197l-.16-.204Q.4.87.83.87q.373 0 .584.192.212.19.212.512 0 .251-.141.497t-.528.622l-.579.566v.015h1.36zM3.872 2.227q0 .685-.217 1.023-.215.339-.66.339-.427 0-.65-.346-.222-.347-.222-1.016 0-.691.216-1.026.215-.334.656-.334.43 0 .653.349.224.349.224 1.01zm-1.445 0q0 .577.136.84t.432.263q.3 0 .434-.266.136-.268.136-.837 0-.57-.136-.834-.134-.266-.434-.266-.296 0-.432.262-.136.26-.136.838zM6.262 3.589q-.194 0-.355-.07-.159-.073-.268-.222h-.021q.021.174.021.33v.815h-.3V1.57h.244l.042.271h.014q.116-.162.27-.235.154-.072.353-.072.394 0 .607.27.216.269.216.755 0 .489-.22.76-.216.27-.603.27zm-.044-1.8q-.304 0-.44.168-.135.168-.139.536v.066q0 .418.14.6.139.178.446.178.257 0 .402-.208.146-.208.146-.573 0-.37-.146-.568-.145-.199-.409-.199zM8.088 2.538L7.4 1.57h.342l.523.76.52-.76h.339l-.69.968.726 1.014h-.34l-.555-.803-.56.803h-.34z"/></g><path d="M15.875 31.094H7.937" transform="matrix(.83333 0 0 .625 94.147 -6.255)" fill="#374047" stroke="#374047" stroke-width=".164"/><path d="M15.875 31.094H7.937" transform="matrix(.83333 0 0 .625 94.147 -19.382)" fill="#374047" stroke="#374047" stroke-width=".164"/><g style="line-height:1.25" aria-label="50 px" font-weight="400" font-size="3.704" font-family="Open Sans" letter-spacing="0" word-spacing="0" fill="#131516" stroke-width=".265"><path style="-inkscape-font-specification:'Open Sans'" d="M106.99 5.897q.417 0 .656.208.24.206.24.566 0 .41-.262.644-.26.233-.72.233-.446 0-.681-.143v-.289q.126.081.314.128.189.046.371.046.319 0 .494-.15.177-.15.177-.435 0-.553-.678-.553-.172 0-.46.052l-.155-.099.1-1.237h1.314v.277h-1.058l-.067.794q.208-.042.415-.042zM110.035 6.186q0 .686-.217 1.024-.215.338-.66.338-.427 0-.65-.345-.222-.347-.222-1.017 0-.69.216-1.025.215-.335.656-.335.43 0 .653.35.224.348.224 1.01zm-1.445 0q0 .577.136.841.136.263.432.263.3 0 .434-.266.136-.268.136-.838t-.136-.833q-.134-.266-.434-.266-.296 0-.432.262-.136.26-.136.837zM112.425 7.548q-.194 0-.355-.07-.159-.073-.268-.22h-.021q.021.173.021.328v.816h-.3V5.53h.244l.042.271h.014q.116-.163.27-.235.154-.072.353-.072.394 0 .607.27.216.269.216.755 0 .489-.22.76-.216.27-.603.27zm-.044-1.8q-.304 0-.44.169-.135.168-.139.535v.067q0 .418.14.599.139.179.446.179.257 0 .402-.208.147-.208.147-.573 0-.371-.147-.568-.145-.2-.409-.2zM114.251 6.497l-.689-.967h.342l.523.76.52-.76h.339l-.69.967.726 1.015h-.34l-.555-.803-.56.803h-.34z"/></g><path d="M6.615 31.094v5.291" transform="matrix(2.06812 0 0 2.41188 91.058 -74.762)" fill="#374047" stroke="#374047" stroke-width=".033" marker-start="url(#c)" marker-end="url(#d)"/><path d="M15.875 31.094H7.937" transform="matrix(1.33333 0 0 1 -2.591 -17.813)" fill="#374047" stroke="#374047" stroke-width=".102"/><path d="M15.875 31.094H7.937" transform="matrix(1.3125 0 0 .98438 -2.26 -12.139)" fill="#374047" stroke="#374047" stroke-width=".104"/><path d="M6.615 31.094v5.291" transform="matrix(.99259 0 0 .92279 4.213 -15.26)" fill="#374047" stroke="#374047" stroke-width=".068" marker-start="url(#a)" marker-end="url(#b)"/><g style="line-height:1.25" aria-label="20 px" font-weight="400" font-size="3.704" font-family="Open Sans" letter-spacing="0" word-spacing="0" fill="#131516" stroke-width=".265"><path style="-inkscape-font-specification:'Open Sans'" d="M1.738 16.782H0v-.259l.696-.7q.319-.322.42-.46.101-.137.152-.267.05-.13.05-.28 0-.212-.128-.335-.128-.125-.356-.125-.165 0-.313.054-.147.055-.327.198l-.16-.205Q.4 14.1.83 14.1q.373 0 .584.192.212.19.212.512 0 .251-.141.497t-.528.623l-.579.566v.014h1.36zM3.872 15.456q0 .685-.217 1.024-.215.338-.66.338-.427 0-.65-.346-.222-.347-.222-1.016 0-.691.216-1.026.215-.334.656-.334.43 0 .653.349.224.349.224 1.01zm-1.445 0q0 .577.136.84t.432.263q.3 0 .434-.266.136-.267.136-.837t-.136-.834q-.134-.266-.434-.266-.296 0-.432.262-.136.26-.136.838zM6.262 16.818q-.194 0-.355-.07-.159-.073-.268-.221h-.021q.021.173.021.329v.815h-.3V14.8h.244l.042.272h.014q.116-.163.27-.236.154-.072.353-.072.394 0 .607.27.216.27.216.756 0 .488-.22.76-.216.269-.603.269zm-.044-1.8q-.304 0-.44.168-.135.169-.139.536v.067q0 .417.14.598.139.18.446.18.257 0 .402-.209.146-.208.146-.573 0-.37-.146-.568-.145-.199-.409-.199zM8.088 15.767l-.689-.968h.342l.523.76.52-.76h.339l-.69.968.726 1.015h-.34l-.555-.803-.56.803h-.34z"/></g><path d="M26.678 31.75h35.917v2.646H26.678zM26.678 58.208h35.917v2.646H26.678z" fill="#705697"/><path d="M64.823 58.875L54.24 72.105" fill="#131516" stroke="#131516" stroke-width=".529" marker-end="url(#e)" transform="translate(-7.718 -43)"/><g style="line-height:1.25;-inkscape-font-specification:'Open Sans, Normal';font-variant-ligatures:normal;font-variant-caps:normal;font-variant-numeric:normal;font-feature-settings:normal;text-align:start" aria-label="Bottom margin of Box 1" font-weight="400" font-size="4.233" font-family="Open Sans" letter-spacing="0" word-spacing="0" fill="#000" stroke-width=".265"><path style="-inkscape-font-specification:'Open Sans, Normal';font-variant-ligatures:normal;font-variant-caps:normal;font-variant-numeric:normal;font-feature-settings:normal;text-align:start" d="M41.645 36.21h.853q.601 0 .87.18.268.18.268.569 0 .269-.15.445-.15.173-.436.225v.02q.687.119.687.725 0 .406-.274.633-.273.228-.764.228h-1.054zm.352 1.295h.578q.371 0 .535-.116.163-.118.163-.395 0-.254-.182-.366-.182-.114-.578-.114h-.516zm0 .298v1.132h.63q.365 0 .549-.14.186-.144.186-.446 0-.281-.19-.414-.188-.132-.575-.132zM46.29 38.099q0 .554-.279.867-.279.31-.77.31-.304 0-.54-.143-.235-.142-.363-.41-.128-.266-.128-.624 0-.555.277-.863.277-.31.768-.31.475 0 .754.316.28.317.28.857zm-1.724 0q0 .434.173.662.173.228.51.228t.51-.226q.176-.228.176-.664 0-.433-.176-.656-.173-.226-.514-.226-.337 0-.508.222-.171.221-.171.66zM47.62 38.993q.09 0 .175-.013.085-.014.135-.029v.263q-.056.027-.166.044-.107.018-.194.018-.656 0-.656-.693v-1.349h-.325v-.165l.325-.143.144-.484h.198v.525h.657v.267h-.657v1.335q0 .204.097.314.097.11.267.11zM49.115 38.993q.09 0 .175-.013.085-.014.135-.029v.263q-.056.027-.166.044-.107.018-.194.018-.656 0-.656-.693v-1.349h-.325v-.165l.325-.143.144-.484h.198v.525h.657v.267h-.657v1.335q0 .204.097.314.098.11.267.11zM51.833 38.099q0 .554-.28.867-.278.31-.77.31-.303 0-.539-.143-.235-.142-.363-.41-.128-.266-.128-.624 0-.555.277-.863.276-.31.768-.31.475 0 .754.316.28.317.28.857zm-1.725 0q0 .434.174.662.173.228.51.228.336 0 .51-.226.175-.228.175-.664 0-.433-.175-.656-.174-.226-.514-.226-.337 0-.508.222-.172.221-.172.66zM55.316 39.235V37.76q0-.271-.115-.406-.116-.137-.36-.137-.32 0-.473.185-.152.184-.152.567v1.266h-.343V37.76q0-.271-.116-.406-.115-.137-.361-.137-.322 0-.473.195-.149.192-.149.633v1.19h-.343v-2.268h.28l.055.31h.016q.098-.165.273-.258.178-.093.397-.093.53 0 .693.385h.017q.101-.178.293-.282.192-.103.438-.103.384 0 .574.198.192.197.192.631v1.48zM60.347 39.235V37.76q0-.271-.116-.406-.115-.137-.36-.137-.32 0-.472.185-.153.184-.153.567v1.266h-.343V37.76q0-.271-.115-.406-.116-.137-.362-.137-.322 0-.473.195-.148.192-.148.633v1.19h-.343v-2.268h.279l.055.31h.017q.097-.165.273-.258.177-.093.396-.093.53 0 .694.385h.017q.1-.178.293-.282.192-.103.438-.103.384 0 .574.198.192.197.192.631v1.48zM62.786 39.235l-.068-.323H62.7q-.17.213-.339.29-.167.074-.419.074-.336 0-.528-.174-.19-.173-.19-.494 0-.687 1.096-.72l.384-.013v-.14q0-.267-.115-.393-.114-.129-.366-.129-.283 0-.64.174l-.105-.263q.167-.09.365-.142.2-.052.4-.052.405 0 .6.18.196.18.196.577v1.548zm-.775-.242q.32 0 .502-.176.184-.176.184-.493v-.204l-.343.014q-.409.015-.59.128-.18.112-.18.35 0 .186.111.283.114.098.316.098zM64.78 36.926q.151 0 .271.025l-.047.318q-.14-.03-.248-.03-.275 0-.471.223-.194.223-.194.556v1.217h-.343v-2.268h.283l.04.42h.016q.126-.221.303-.341.178-.12.39-.12zM67.327 36.967v.217l-.42.05q.058.072.104.19.045.116.045.263 0 .333-.227.532t-.623.199q-.102 0-.19-.017-.22.116-.22.292 0 .093.077.138.076.044.262.044h.4q.369 0 .565.155.198.155.198.451 0 .377-.302.573-.301.199-.88.199-.443 0-.685-.166-.24-.165-.24-.467 0-.207.133-.358.132-.151.371-.205-.086-.04-.146-.122-.058-.083-.058-.193 0-.124.066-.217t.209-.18q-.176-.072-.287-.246-.11-.174-.11-.397 0-.373.223-.573.223-.203.632-.203.178 0 .32.041zm-1.805 2.648q0 .185.155.28.155.095.444.095.431 0 .638-.13.209-.129.209-.35 0-.184-.114-.257-.114-.07-.428-.07h-.41q-.234 0-.364.112-.13.112-.13.32zm.186-1.922q0 .238.134.36t.374.122q.502 0 .502-.488 0-.51-.508-.51-.242 0-.372.13t-.13.386zM68.138 39.235h-.342v-2.268h.342zm-.371-2.882q0-.118.058-.172.057-.056.144-.056.083 0 .143.056.06.056.06.172 0 .115-.06.173-.06.056-.143.056-.087 0-.144-.056-.058-.058-.058-.173zM70.418 39.235v-1.467q0-.277-.126-.414-.126-.137-.394-.137-.355 0-.52.193-.166.192-.166.635v1.19h-.343v-2.268h.28l.055.31h.017q.105-.167.295-.258.19-.093.423-.093.41 0 .616.198.206.197.206.631v1.48zM43.547 43.396q0 .554-.278.867-.28.31-.77.31-.304 0-.54-.143-.235-.143-.363-.41-.128-.266-.128-.624 0-.555.277-.863.276-.31.768-.31.475 0 .754.316.28.317.28.857zm-1.724 0q0 .434.174.662.173.227.51.227.336 0 .51-.225.175-.228.175-.664 0-.433-.175-.656-.174-.226-.515-.226-.336 0-.508.222-.17.221-.17.66zM45.166 42.53h-.576v2.002h-.343V42.53h-.404v-.155l.404-.125v-.126q0-.836.73-.836.18 0 .42.073l-.088.275q-.198-.064-.339-.064-.194 0-.287.13-.093.128-.093.414v.147h.576zM46.734 41.507h.853q.6 0 .87.18.268.18.268.569 0 .269-.151.444-.149.174-.436.226v.02q.688.119.688.725 0 .405-.275.633-.272.228-.764.228h-1.053zm.35 1.295h.58q.37 0 .534-.116.163-.118.163-.395 0-.255-.182-.366-.181-.114-.578-.114h-.516zm0 .298v1.131h.63q.366 0 .55-.14.186-.143.186-.445 0-.281-.19-.414-.188-.132-.574-.132zM51.378 43.396q0 .554-.279.867-.278.31-.77.31-.303 0-.539-.143-.235-.143-.363-.41-.128-.266-.128-.624 0-.555.276-.863.277-.31.769-.31.475 0 .753.316.281.317.281.857zm-1.724 0q0 .434.173.662.174.227.51.227.337 0 .51-.225.176-.228.176-.664 0-.433-.176-.656-.173-.226-.514-.226-.336 0-.508.222-.171.221-.171.66zM52.522 43.37l-.787-1.106h.39l.598.869.594-.87h.387l-.787 1.108.828 1.16h-.388l-.634-.918-.64.919h-.389zM56.403 44.532h-.335v-2.156q0-.27.017-.51-.044.044-.098.092-.053.047-.491.403l-.182-.236.8-.618h.289z"/></g><g fill="#a2000d"><path d="M37.13 45.905h2.38v.397h-2.38zM37.13 34.396h2.38v.397h-2.38z"/><path d="M38.518 34.396v11.906h-.396V34.396z"/></g><g style="line-height:1.25;text-align:end" aria-label="Top margin of Box 2" font-weight="400" font-size="4.233" font-family="Open Sans" letter-spacing="0" word-spacing="0" text-anchor="start" fill="#000" stroke-width=".265"><path style="-inkscape-font-specification:'Open Sans, Normal';font-variant-ligatures:normal;font-variant-caps:normal;font-variant-numeric:normal;font-feature-settings:normal;text-align:start" d="M42.538 51.085h-.351v-2.712h-.957v-.313h2.264v.313h-.956zM45.848 49.95q0 .554-.279.866-.279.31-.77.31-.304 0-.54-.142-.235-.143-.363-.41t-.128-.625q0-.554.277-.862.277-.31.768-.31.475 0 .754.316.28.316.28.856zm-1.724 0q0 .434.173.662.174.227.51.227.337 0 .51-.225.176-.228.176-.665 0-.432-.176-.655-.173-.226-.514-.226-.337 0-.508.221-.171.222-.171.66zM47.5 51.127q-.221 0-.405-.081-.181-.083-.305-.252h-.025q.025.198.025.376v.933h-.343v-3.285h.279l.047.31h.017q.132-.186.307-.269.176-.083.403-.083.45 0 .694.309.246.308.246.864 0 .56-.25.87-.248.308-.69.308zm-.05-2.059q-.347 0-.501.192-.155.193-.16.613v.076q0 .478.16.685.159.205.51.205.293 0 .458-.238.167-.238.167-.656 0-.424-.167-.65-.165-.227-.467-.227zM53.024 51.085V49.61q0-.27-.116-.405-.115-.137-.359-.137-.32 0-.473.184-.153.184-.153.567v1.266h-.342V49.61q0-.27-.116-.405-.116-.137-.361-.137-.323 0-.473.195-.149.192-.149.633v1.19h-.343v-2.268h.279l.056.31h.016q.097-.165.273-.259.177-.093.396-.093.531 0 .694.385h.017q.1-.178.293-.281.192-.104.438-.104.384 0 .574.199.192.196.192.631v1.48zM55.463 51.085l-.068-.322h-.017q-.17.213-.338.29-.168.074-.42.074-.336 0-.528-.174-.19-.174-.19-.495 0-.686 1.096-.72l.384-.012v-.14q0-.268-.115-.394-.114-.128-.366-.128-.283 0-.64.174l-.105-.263q.167-.091.365-.143.2-.052.4-.052.406 0 .6.18.196.18.196.578v1.547zm-.774-.242q.32 0 .501-.176.184-.175.184-.492v-.205l-.343.015q-.409.014-.59.128-.18.112-.18.35 0 .186.112.283.113.097.316.097zM57.458 48.776q.15 0 .27.025l-.047.319q-.14-.031-.248-.031-.275 0-.47.223-.195.224-.195.557v1.216h-.343v-2.267h.283l.04.42h.016q.126-.222.304-.342.177-.12.39-.12zM60.004 48.818v.217l-.42.05q.059.072.104.19.046.116.046.263 0 .333-.228.531-.227.2-.623.2-.101 0-.19-.017-.22.115-.22.291 0 .093.077.139.077.043.263.043h.4q.368 0 .564.156.198.155.198.45 0 .377-.301.574-.302.198-.88.198-.444 0-.686-.165-.24-.166-.24-.468 0-.207.133-.358.132-.15.372-.205-.087-.039-.147-.122-.058-.082-.058-.192 0-.124.066-.217t.209-.18q-.176-.073-.287-.247-.11-.173-.11-.397 0-.372.223-.573.223-.203.632-.203.178 0 .32.042zM58.2 51.466q0 .184.155.28.155.095.444.095.432 0 .638-.13.209-.13.209-.35 0-.185-.114-.257-.113-.07-.427-.07h-.411q-.234 0-.364.111-.13.112-.13.321zm.186-1.922q0 .238.134.36.135.122.374.122.502 0 .502-.488 0-.511-.508-.511-.242 0-.372.13t-.13.387zM60.816 51.085h-.343v-2.267h.343zm-.372-2.882q0-.118.058-.172.058-.055.144-.055.083 0 .143.055.06.056.06.172 0 .116-.06.174-.06.056-.143.056-.086 0-.144-.056-.058-.058-.058-.174zM63.096 51.085v-1.467q0-.277-.126-.413-.126-.137-.395-.137-.355 0-.52.192-.166.193-.166.636v1.19h-.342v-2.268h.278l.056.31h.017q.105-.168.295-.259.19-.093.423-.093.41 0 .616.199.206.196.206.631v1.48zM43.51 55.358q0 .554-.279.866-.278.31-.77.31-.303 0-.539-.142-.235-.143-.363-.41t-.128-.624q0-.555.276-.863.277-.31.769-.31.475 0 .753.316.281.317.281.857zm-1.724 0q0 .434.173.662.174.227.51.227.337 0 .51-.225.176-.228.176-.664 0-.433-.175-.656-.174-.226-.515-.226-.336 0-.508.222-.171.22-.171.66zM45.13 54.493h-.577v2h-.343v-2h-.404v-.155l.404-.125v-.126q0-.836.73-.836.179 0 .42.073l-.088.275q-.198-.064-.339-.064-.194 0-.287.13-.093.128-.093.414v.147h.576zM46.697 53.469h.853q.6 0 .869.18.268.18.268.569 0 .268-.15.444-.149.174-.436.226v.02q.688.118.688.725 0 .405-.275.633-.273.227-.764.227h-1.053zm.35 1.295h.579q.372 0 .535-.116.163-.118.163-.395 0-.255-.182-.367-.181-.113-.578-.113h-.516zm0 .298v1.131h.63q.366 0 .55-.14.186-.143.186-.445 0-.281-.19-.414-.188-.132-.574-.132zM51.341 55.358q0 .554-.279.866-.279.31-.77.31-.304 0-.539-.142-.235-.143-.363-.41t-.128-.624q0-.555.276-.863.277-.31.768-.31.475 0 .754.316.281.317.281.857zm-1.724 0q0 .434.173.662.174.227.51.227.337 0 .51-.225.176-.228.176-.664 0-.433-.176-.656-.173-.226-.514-.226-.336 0-.508.222-.171.22-.171.66zM52.485 55.333l-.787-1.107h.39l.597.869.595-.87h.386l-.786 1.108.828 1.16h-.389l-.634-.918-.64.918h-.388zM57.08 56.493h-1.985v-.295l.795-.801q.364-.368.48-.526.115-.157.173-.306.058-.149.058-.32 0-.243-.147-.383-.146-.143-.407-.143-.188 0-.357.062-.167.062-.374.225l-.181-.233q.417-.348.908-.348.426 0 .667.22.242.217.242.585 0 .288-.161.569-.161.281-.603.712l-.661.647v.017h1.553z"/></g><g fill="#a2000d"><path d="M37.13 57.811h2.38v.397h-2.38zM37.13 46.302h2.38v.397h-2.38z"/><path d="M38.518 46.302v11.906h-.396V46.302z"/></g><g style="line-height:1.25" aria-label="15 px" font-weight="400" font-size="3.704" font-family="Open Sans" letter-spacing="0" word-spacing="0" fill="#131516" stroke-width=".265"><path style="-inkscape-font-specification:'Open Sans'" d="M27.892 41.226h-.293v-1.884q0-.236.014-.445-.038.038-.085.08-.047.04-.43.352l-.16-.206.7-.541h.254zM29.726 39.611q.418 0 .656.208.241.206.241.566 0 .41-.262.644-.26.233-.72.233-.447 0-.682-.143v-.289q.127.081.315.128.188.046.37.046.319 0 .494-.15.178-.15.178-.434 0-.554-.679-.554-.172 0-.46.052l-.155-.099.1-1.237h1.315v.277h-1.058l-.067.794q.208-.042.414-.042zM33.041 41.262q-.193 0-.354-.07-.16-.073-.268-.22h-.022q.022.173.022.328v.816h-.3v-2.872h.244l.042.271h.014q.116-.163.27-.235.153-.072.352-.072.395 0 .608.27.215.269.215.755 0 .489-.219.76-.217.27-.604.27zm-.043-1.8q-.304 0-.44.169-.135.168-.139.535v.067q0 .418.14.599.139.179.446.179.257 0 .402-.208.146-.208.146-.573 0-.371-.146-.568-.145-.2-.41-.2zM34.868 40.212l-.69-.968h.343l.522.76.521-.76h.339l-.69.968.726 1.014h-.34l-.556-.803-.56.803h-.34z"/></g><g style="line-height:1.25" aria-label="15 px" font-weight="400" font-size="3.704" font-family="Open Sans" letter-spacing="0" word-spacing="0" fill="#131516" stroke-width=".265"><path style="-inkscape-font-specification:'Open Sans'" d="M27.892 53.132h-.293v-1.884q0-.235.014-.445-.038.038-.085.08-.047.041-.43.352l-.16-.206.7-.54h.254zM29.726 51.517q.418 0 .656.208.241.206.241.566 0 .411-.262.644-.26.234-.72.234-.447 0-.682-.143v-.29q.127.082.315.129.188.045.37.045.319 0 .494-.15.178-.15.178-.434 0-.554-.679-.554-.172 0-.46.053l-.155-.1.1-1.237h1.315v.277h-1.058l-.067.794q.208-.042.414-.042zM33.041 53.169q-.193 0-.354-.07-.16-.073-.268-.222h-.022q.022.174.022.33v.815h-.3V51.15h.244l.042.271h.014q.116-.162.27-.235.153-.072.352-.072.395 0 .608.27.215.269.215.755 0 .489-.219.76-.217.27-.604.27zm-.043-1.8q-.304 0-.44.168-.135.168-.139.536v.066q0 .418.14.6.139.178.446.178.257 0 .402-.208.146-.208.146-.573 0-.37-.146-.568-.145-.199-.41-.199zM34.868 52.118l-.69-.968h.343l.522.76.521-.76h.339l-.69.968.726 1.014h-.34l-.556-.803-.56.803h-.34z"/></g></svg>