<svg xmlns="http://www.w3.org/2000/svg" viewBox="0 0 103.188 32.225" height="121.796" width="390"><g style="line-height:1.25;-inkscape-font-specification:'Open Sans, Normal';font-variant-ligatures:normal;font-variant-caps:normal;font-variant-numeric:normal;font-feature-settings:normal;text-align:start" aria-label="Single collapsed margin = parent’s top margin = child’s top margin" font-weight="400" font-size="4.233" font-family="Open Sans" letter-spacing="0" word-spacing="0" fill="#131516" stroke-width=".265"><path style="-inkscape-font-specification:'Open Sans, Normal';font-variant-ligatures:normal;font-variant-caps:normal;font-variant-numeric:normal;font-feature-settings:normal;text-align:start" d="M51.067 4.26q0 .399-.29.622-.289.224-.784.224-.537 0-.826-.139v-.34q.186.08.405.125.218.046.433.046.351 0 .529-.133.178-.134.178-.372 0-.158-.065-.257-.061-.101-.21-.186-.147-.085-.448-.193-.422-.15-.603-.357-.18-.207-.18-.54 0-.35.262-.557.263-.207.694-.207.45 0 .828.166l-.11.306q-.373-.157-.726-.157-.279 0-.436.12-.157.12-.157.333 0 .157.058.258.058.1.194.184.139.083.421.185.475.17.653.364.18.194.18.505zM51.975 5.064h-.342V2.797h.342zm-.371-2.882q0-.118.057-.171.058-.056.145-.056.083 0 .142.056.06.055.06.171 0 .116-.06.174-.06.056-.142.056-.087 0-.145-.056-.057-.058-.057-.174zM54.255 5.064V3.597q0-.277-.126-.413-.126-.137-.394-.137-.355 0-.52.193-.166.192-.166.635v1.19h-.343V2.796h.28l.055.31h.016q.106-.167.296-.259.19-.093.423-.093.409 0 .615.199.207.197.207.631v1.48zM57.152 2.797v.217l-.419.05q.058.072.104.19.045.116.045.263 0 .333-.227.532-.227.198-.624.198-.101 0-.19-.016-.219.115-.219.291 0 .093.077.139.076.043.262.043h.4q.368 0 .564.156.199.155.199.45 0 .377-.302.574-.301.198-.88.198-.444 0-.685-.165-.24-.166-.24-.468 0-.207.132-.358.133-.15.372-.205-.087-.039-.147-.122-.057-.082-.057-.192 0-.124.066-.217t.208-.18q-.175-.073-.287-.246-.11-.174-.11-.398 0-.372.224-.573.223-.203.632-.203.177 0 .32.042zm-1.804 2.648q0 .184.154.28.155.095.444.095.432 0 .639-.13.208-.129.208-.35 0-.185-.113-.257-.114-.07-.428-.07h-.41q-.234 0-.364.111-.13.112-.13.321zm.185-1.922q0 .238.135.36.134.122.373.122.502 0 .502-.488 0-.511-.508-.511-.241 0-.371.13t-.13.387zM57.964 5.064h-.343V1.845h.343zM59.651 5.106q-.502 0-.793-.306-.289-.307-.289-.85 0-.55.269-.872.27-.323.724-.323.426 0 .674.282.247.28.247.738v.218h-1.559q.01.399.2.606.193.207.54.207.365 0 .722-.153v.306q-.181.079-.344.112-.162.035-.39.035zm-.093-2.063q-.272 0-.435.178-.161.178-.19.492h1.183q0-.324-.145-.496-.144-.174-.413-.174zM63.069 5.106q-.492 0-.762-.302-.269-.304-.269-.859 0-.569.273-.88.275-.31.78-.31.164 0 .327.036.163.035.256.082l-.105.292q-.114-.046-.248-.074-.134-.031-.238-.031-.69 0-.69.88 0 .419.168.642.17.224.5.224.283 0 .58-.122v.304q-.227.118-.572.118zM66.134 3.929q0 .554-.28.866-.278.31-.77.31-.303 0-.539-.142-.235-.143-.363-.41t-.128-.624q0-.555.277-.863.276-.31.768-.31.475 0 .754.316.28.317.28.857zm-1.725 0q0 .434.174.662.173.227.51.227.336 0 .51-.225.175-.228.175-.664 0-.433-.175-.656-.174-.226-.514-.226-.337 0-.508.221-.172.222-.172.66zM67.075 5.064h-.343V1.845h.343zM68.15 5.064h-.344V1.845h.343zM70.272 5.064l-.068-.322h-.017q-.169.213-.338.29-.168.074-.42.074-.336 0-.528-.174-.19-.174-.19-.495 0-.686 1.096-.72l.384-.012v-.14q0-.268-.115-.394-.114-.128-.366-.128-.283 0-.64.174l-.105-.263q.167-.091.365-.143.2-.052.4-.052.406 0 .6.18.196.18.196.578v1.547zm-.774-.242q.32 0 .501-.176.184-.175.184-.492v-.205l-.343.015q-.409.014-.59.128-.18.112-.18.35 0 .186.112.283.113.097.316.097zM72.287 5.106q-.22 0-.404-.08-.182-.084-.306-.253h-.025q.025.198.025.376v.933h-.343V2.797h.28l.047.31h.016q.132-.186.308-.269.175-.083.403-.083.45 0 .693.309.246.308.246.865 0 .558-.25.869-.248.308-.69.308zm-.05-2.059q-.346 0-.5.193-.156.192-.16.612v.077q0 .477.16.684.158.205.51.205.292 0 .458-.238.167-.238.167-.656 0-.424-.167-.65-.166-.227-.467-.227zM75.288 4.446q0 .316-.235.488-.236.172-.661.172-.45 0-.702-.143v-.319q.163.083.349.13.188.048.361.048.269 0 .413-.085.145-.086.145-.262 0-.133-.116-.226-.114-.095-.446-.223-.316-.118-.45-.205-.132-.09-.198-.2-.065-.113-.065-.268 0-.277.226-.436.225-.162.617-.162.366 0 .715.15l-.122.279q-.341-.141-.618-.141-.243 0-.367.076-.124.077-.124.211 0 .091.045.156.048.064.151.122.103.058.396.167.403.147.544.296.142.15.142.375zM76.8 5.106q-.502 0-.793-.306-.29-.307-.29-.85 0-.55.27-.872.27-.323.724-.323.425 0 .673.282.248.28.248.738v.218h-1.56q.011.399.201.606.192.207.54.207.365 0 .722-.153v.306q-.182.079-.345.112-.161.035-.39.035zm-.093-2.063q-.273 0-.436.178-.161.178-.19.492h1.183q0-.324-.144-.496-.145-.174-.413-.174zM79.755 4.76h-.019q-.237.346-.71.346-.444 0-.692-.304-.246-.304-.246-.865 0-.56.248-.871.248-.31.69-.31.46 0 .706.335h.027l-.014-.164-.009-.16v-.922h.343v3.22H79.8zm-.686.058q.351 0 .508-.19.16-.193.16-.619v-.072q0-.482-.162-.687-.159-.207-.51-.207-.301 0-.462.236-.16.234-.16.662 0 .434.16.656.159.221.466.221zM84.792 5.064V3.59q0-.27-.116-.405-.116-.137-.36-.137-.32 0-.472.184-.153.184-.153.567v1.266h-.343V3.59q0-.27-.116-.405-.115-.137-.36-.137-.323 0-.474.195-.149.192-.149.633v1.19h-.342V2.796h.278l.056.31h.017q.097-.165.272-.259.178-.093.397-.093.53 0 .694.385h.016q.101-.178.293-.281.193-.104.438-.104.384 0 .574.199.192.197.192.631v1.48zM87.23 5.064l-.068-.322h-.016q-.17.213-.339.29-.167.074-.42.074-.336 0-.528-.174-.19-.174-.19-.495 0-.686 1.097-.72l.384-.012v-.14q0-.268-.116-.394-.113-.128-.365-.128-.283 0-.64.174l-.106-.263q.168-.091.366-.143.2-.052.4-.052.405 0 .6.18.195.18.195.578v1.547zm-.774-.242q.32 0 .502-.176.184-.175.184-.492v-.205l-.343.015q-.409.014-.59.128-.18.112-.18.35 0 .186.111.283.114.097.316.097zM89.225 2.755q.151 0 .27.025l-.047.319q-.14-.031-.247-.031-.275 0-.471.223-.194.224-.194.557v1.216h-.343V2.797h.283l.039.42h.016q.126-.222.304-.342.178-.12.39-.12zM91.772 2.797v.217l-.42.05q.058.072.104.19.045.116.045.263 0 .333-.227.532-.227.198-.624.198-.101 0-.19-.016-.219.115-.219.291 0 .093.077.139.076.043.262.043h.4q.368 0 .564.156.199.155.199.45 0 .377-.302.574-.301.198-.88.198-.444 0-.685-.165-.24-.166-.24-.468 0-.207.132-.358.133-.15.372-.205-.087-.039-.146-.122-.058-.082-.058-.192 0-.124.066-.217t.208-.18q-.175-.073-.287-.246-.11-.174-.11-.398 0-.372.224-.573.223-.203.632-.203.177 0 .32.042zm-1.805 2.648q0 .184.155.28.154.095.444.095.431 0 .638-.13.208-.129.208-.35 0-.185-.113-.257-.114-.07-.428-.07h-.41q-.234 0-.364.111-.13.112-.13.321zm.186-1.922q0 .238.134.36t.374.122q.501 0 .501-.488 0-.511-.508-.511-.241 0-.371.13t-.13.387zM92.583 5.064h-.343V2.797h.343zm-.372-2.882q0-.118.058-.171.058-.056.145-.056.082 0 .142.056.06.055.06.171 0 .116-.06.174-.06.056-.142.056-.087 0-.145-.056-.058-.058-.058-.174zM94.863 5.064V3.597q0-.277-.126-.413-.126-.137-.394-.137-.356 0-.52.193-.166.192-.166.635v1.19h-.343V2.796h.279l.056.31h.016q.106-.167.296-.259.19-.093.423-.093.409 0 .615.199.207.197.207.631v1.48zM96.889 3.29v-.284h1.92v.283zm0 .845v-.283h1.92v.283zM50.365 10.403q-.221 0-.405-.081-.182-.083-.306-.253h-.025q.025.2.025.377v.933h-.343V8.094h.28l.047.31h.016q.132-.186.308-.27.175-.082.403-.082.45 0 .693.308.246.309.246.865 0 .559-.25.87-.248.308-.69.308zm-.05-2.06q-.347 0-.502.193-.155.193-.159.613v.076q0 .478.16.685.158.205.51.205.293 0 .458-.238.167-.238.167-.656 0-.424-.167-.65-.165-.227-.467-.227zM53.297 10.361l-.068-.323h-.017q-.169.213-.338.29-.168.075-.42.075-.336 0-.528-.174-.19-.174-.19-.495 0-.687 1.096-.72l.384-.012v-.14q0-.268-.115-.394-.114-.128-.366-.128-.283 0-.64.173l-.105-.262q.167-.091.365-.143.2-.052.4-.052.406 0 .6.18.196.18.196.577v1.548zm-.774-.242q.32 0 .501-.176.184-.176.184-.492v-.205l-.343.014q-.409.015-.59.129-.18.111-.18.35 0 .186.112.283.113.097.316.097zM55.292 8.052q.15 0 .27.025l-.047.319q-.14-.031-.248-.031-.275 0-.47.223-.195.223-.195.557v1.216h-.343V8.093h.283l.04.42h.016q.126-.22.304-.34.177-.12.39-.12zM56.942 10.403q-.502 0-.793-.307-.29-.306-.29-.85 0-.548.27-.871.27-.323.724-.323.425 0 .673.281.248.28.248.74v.216h-1.559q.01.4.2.607.192.207.54.207.365 0 .722-.154v.307q-.182.078-.345.111-.16.035-.39.035zm-.093-2.063q-.273 0-.436.178-.16.178-.19.492h1.184q0-.325-.145-.497-.145-.173-.413-.173zM59.905 10.361V8.894q0-.277-.126-.414-.126-.136-.394-.136-.355 0-.52.192-.166.193-.166.635v1.19h-.343V8.093h.28l.055.31h.017q.105-.167.295-.258.19-.093.423-.093.409 0 .616.199.206.196.206.63v1.48zM61.681 10.12q.091 0 .176-.013.084-.015.134-.03v.263q-.056.027-.165.044-.108.019-.194.019-.657 0-.657-.694V8.36h-.324v-.165l.324-.143.145-.484h.198v.526h.656v.266h-.656v1.335q0 .205.097.314.097.11.266.11zM62.72 7.336l.03.046q-.053.207-.154.482-.101.273-.21.509h-.253q.145-.59.211-1.037zM64.624 9.743q0 .316-.235.488-.236.172-.661.172-.45 0-.702-.143V9.94q.163.083.349.13.188.048.361.048.268 0 .413-.085.145-.087.145-.263 0-.132-.116-.225-.114-.095-.446-.224-.316-.117-.45-.204-.132-.09-.199-.201-.064-.112-.064-.267 0-.277.225-.437.226-.16.618-.16.365 0 .714.148l-.121.28q-.341-.141-.618-.141-.244 0-.367.076-.124.077-.124.211 0 .091.045.156.048.064.15.122.104.058.397.167.403.147.543.296.143.149.143.375zM67.01 10.12q.09 0 .175-.013.084-.015.134-.03v.263q-.056.027-.165.044-.108.019-.194.019-.657 0-.657-.694V8.36h-.324v-.165l.324-.143.144-.484h.199v.526h.656v.266h-.656v1.335q0 .205.097.314.097.11.266.11zM69.727 9.225q0 .555-.279.867-.279.31-.77.31-.304 0-.54-.142-.235-.143-.363-.41t-.128-.625q0-.554.277-.863.277-.31.768-.31.475 0 .754.317.28.316.28.856zm-1.725 0q0 .435.174.662.173.228.51.228t.51-.226q.176-.227.176-.664 0-.432-.176-.656-.173-.225-.514-.225-.337 0-.508.221-.172.222-.172.66zM71.379 10.403q-.221 0-.405-.081-.182-.083-.306-.253h-.024q.024.2.024.377v.933h-.342V8.094h.278l.048.31h.016q.133-.186.308-.27.176-.082.403-.082.45 0 .694.308.245.309.245.865 0 .559-.25.87-.247.308-.69.308zm-.05-2.06q-.347 0-.502.193-.154.193-.159.613v.076q0 .478.16.685.158.205.51.205.293 0 .458-.238.167-.238.167-.656 0-.424-.167-.65-.165-.227-.467-.227zM76.903 10.361V8.886q0-.271-.116-.406-.115-.136-.359-.136-.32 0-.473.184-.153.184-.153.567v1.266h-.343V8.886q0-.271-.115-.406-.116-.136-.362-.136-.322 0-.472.194-.15.193-.15.633v1.19h-.342V8.093h.279l.056.31h.016q.097-.165.273-.258.177-.093.396-.093.53 0 .694.385h.017q.1-.178.293-.281.192-.104.438-.104.384 0 .574.199.192.196.192.63v1.48zM79.342 10.361l-.068-.323h-.017q-.17.213-.339.29-.167.075-.419.075-.336 0-.528-.174-.19-.174-.19-.495 0-.687 1.096-.72l.384-.012v-.14q0-.268-.115-.394-.114-.128-.366-.128-.283 0-.64.173l-.105-.262q.167-.091.365-.143.2-.052.4-.052.406 0 .6.18.196.18.196.577v1.548zm-.775-.242q.32 0 .502-.176.184-.176.184-.492v-.205l-.343.014q-.409.015-.59.129-.18.111-.18.35 0 .186.111.283.114.097.316.097zM81.337 8.052q.15 0 .27.025l-.047.319q-.14-.031-.248-.031-.275 0-.47.223-.195.223-.195.557v1.216h-.343V8.093h.283l.04.42h.016q.126-.22.303-.34.178-.12.39-.12zM83.883 8.093v.218l-.42.05q.059.072.104.19.045.116.045.262 0 .334-.227.532-.227.199-.623.199-.102 0-.19-.017-.22.116-.22.292 0 .093.077.139.077.043.262.043h.401q.368 0 .564.155.198.156.198.451 0 .377-.301.573-.302.2-.88.2-.444 0-.686-.166-.24-.166-.24-.468 0-.207.133-.358.132-.151.372-.205-.087-.04-.147-.122-.058-.083-.058-.192 0-.124.066-.218.066-.093.209-.18-.176-.072-.287-.246-.11-.174-.11-.397 0-.372.223-.573.223-.203.632-.203.178 0 .32.041zm-1.805 2.649q0 .184.155.28.155.094.444.094.432 0 .638-.13.209-.128.209-.35 0-.184-.114-.256-.114-.07-.427-.07h-.411q-.234 0-.364.111-.13.112-.13.32zm.186-1.922q0 .238.134.36t.374.122q.502 0 .502-.488 0-.512-.508-.512-.242 0-.372.13-.13.131-.13.388zM84.695 10.361h-.343V8.093h.343zm-.372-2.882q0-.118.058-.172.057-.056.144-.056.083 0 .143.056.06.056.06.172 0 .116-.06.174-.06.056-.143.056-.087 0-.144-.056-.058-.058-.058-.174zM86.974 10.361V8.894q0-.277-.126-.414-.126-.136-.394-.136-.355 0-.52.192-.166.193-.166.635v1.19h-.342V8.093h.278l.056.31h.017q.105-.167.295-.258.19-.093.423-.093.41 0 .616.199.206.196.206.63v1.48zM89 8.586v-.284h1.92v.284zm0 .846V9.15h1.92v.283zM50.216 15.7q-.492 0-.762-.303-.269-.304-.269-.858 0-.57.273-.88.275-.31.78-.31.164 0 .327.035t.256.083l-.105.291q-.114-.045-.248-.074-.134-.031-.238-.031-.69 0-.69.881 0 .418.168.642.17.223.5.223.283 0 .58-.122v.304q-.227.118-.572.118zM52.876 15.658V14.19q0-.277-.126-.414-.126-.136-.395-.136-.357 0-.522.194-.163.195-.163.637v1.186h-.343v-3.22h.343v.975q0 .176-.017.292h.02q.102-.164.288-.257.188-.095.427-.095.415 0 .622.199.209.196.209.627v1.479zM54.263 15.658h-.342V13.39h.342zm-.371-2.882q0-.118.058-.172.057-.056.144-.056.083 0 .143.056.06.056.06.172 0 .116-.06.174-.06.055-.143.055-.087 0-.144-.055-.058-.058-.058-.174zM55.337 15.658h-.343v-3.22h.343zM57.609 15.354h-.019q-.237.345-.71.345-.444 0-.692-.304-.246-.304-.246-.865 0-.56.248-.87.248-.311.69-.311.46 0 .706.335h.027l-.014-.163-.009-.16v-.923h.343v3.22h-.279zm-.686.058q.351 0 .508-.19.16-.193.16-.62v-.072q0-.482-.162-.687-.159-.207-.51-.207-.301 0-.462.236-.16.234-.16.662 0 .435.16.656.159.222.466.222zM58.937 12.633l.03.045q-.053.207-.154.483-.101.273-.21.509h-.253q.145-.59.21-1.037zM60.84 15.04q0 .316-.235.488-.235.171-.66.171-.45 0-.703-.143v-.318q.164.083.35.13.187.048.36.048.27 0 .414-.085.144-.087.144-.263 0-.132-.115-.225-.114-.096-.446-.224-.316-.118-.45-.205-.133-.089-.199-.2-.064-.112-.064-.267 0-.277.225-.437.225-.161.618-.161.365 0 .714.149l-.122.28q-.34-.142-.617-.142-.244 0-.368.077t-.124.211q0 .091.046.155.047.064.15.122.104.058.397.168.403.147.543.296.143.149.143.374zM63.226 15.416q.09 0 .175-.013.085-.014.135-.029v.263q-.056.027-.166.044-.107.018-.194.018-.656 0-.656-.693v-1.349h-.325v-.165l.325-.143.144-.484h.198v.525h.657v.267h-.657v1.335q0 .205.098.314.097.11.266.11zM65.944 14.522q0 .554-.28.867-.278.31-.77.31-.303 0-.538-.143-.236-.142-.364-.41-.128-.266-.128-.624 0-.555.277-.863.276-.31.768-.31.475 0 .754.316.28.317.28.857zm-1.725 0q0 .434.174.662.173.228.51.228.336 0 .51-.226.175-.227.175-.664 0-.432-.175-.656-.174-.225-.514-.225-.337 0-.508.22-.172.222-.172.661zM67.596 15.7q-.221 0-.405-.081-.182-.083-.306-.253h-.025q.025.199.025.377v.933h-.343V13.39h.28l.047.31h.016q.132-.186.308-.268.175-.083.403-.083.45 0 .693.308.246.308.246.865 0 .559-.25.869-.247.308-.69.308zm-.05-2.06q-.347 0-.502.193-.155.192-.159.612v.077q0 .478.16.685.158.205.51.205.293 0 .458-.238.167-.238.167-.656 0-.424-.167-.65-.165-.227-.467-.227zM73.12 15.658v-1.475q0-.271-.116-.406-.116-.136-.36-.136-.32 0-.472.184-.153.184-.153.567v1.266h-.343v-1.475q0-.271-.115-.406-.116-.136-.362-.136-.322 0-.473.194-.148.192-.148.633v1.19h-.343V13.39h.279l.055.31h.017q.097-.165.272-.258.178-.093.397-.093.53 0 .694.385h.016q.102-.178.294-.282.192-.103.437-.103.384 0 .574.198.193.197.193.632v1.479zM75.559 15.658l-.069-.323h-.016q-.17.213-.339.29-.167.074-.419.074-.337 0-.529-.174-.19-.173-.19-.494 0-.687 1.097-.72l.384-.012v-.141q0-.267-.116-.393-.113-.129-.365-.129-.283 0-.64.174l-.106-.263q.168-.09.366-.142.2-.052.4-.052.405 0 .6.18.196.18.196.577v1.548zm-.775-.242q.32 0 .502-.176.184-.176.184-.493v-.204l-.343.014q-.409.015-.59.128-.18.112-.18.35 0 .186.111.284.114.097.316.097zM77.553 13.349q.151 0 .271.025l-.048.318q-.14-.03-.247-.03-.275 0-.471.223-.194.223-.194.556v1.217h-.343V13.39h.283l.04.42h.016q.126-.221.303-.341.178-.12.39-.12zM80.1 13.39v.217l-.42.05q.058.073.104.19.045.116.045.263 0 .333-.227.532t-.624.199q-.1 0-.19-.017-.219.116-.219.292 0 .093.077.138.076.044.262.044h.4q.368 0 .565.155.198.155.198.451 0 .377-.302.573-.301.199-.88.199-.443 0-.685-.166-.24-.165-.24-.467 0-.207.133-.358.132-.151.371-.205-.086-.04-.146-.122-.058-.083-.058-.193 0-.124.066-.217t.209-.18q-.176-.072-.288-.246-.109-.174-.109-.397 0-.373.223-.573.223-.203.632-.203.178 0 .32.041zm-1.805 2.649q0 .184.155.279.155.095.444.095.431 0 .638-.13.208-.129.208-.35 0-.184-.113-.256-.114-.07-.428-.07h-.41q-.234 0-.364.11-.13.113-.13.322zm.186-1.923q0 .238.134.36.134.123.374.123.502 0 .502-.489 0-.51-.508-.51-.242 0-.372.13t-.13.386zM80.911 15.658h-.343V13.39h.343zm-.371-2.882q0-.118.057-.172.058-.056.145-.056.083 0 .142.056.06.056.06.172 0 .116-.06.174-.06.055-.142.055-.087 0-.145-.055-.057-.058-.057-.174zM83.191 15.658V14.19q0-.277-.126-.414-.126-.136-.394-.136-.355 0-.52.192-.166.192-.166.635v1.19h-.343V13.39h.28l.055.31h.016q.106-.167.296-.258.19-.093.423-.093.409 0 .615.198.207.197.207.632v1.479z"/></g><path d="M0 18.52h103.187v13.705H0z" fill="#dfdff9"/><path d="M10.583 18.52h82.021v13.687h-82.02z" fill="#705697"/><g fill="#a2000d"><path d="M10.186 26.555v-2.382h.397v2.382zM0 26.555v-2.382h.397v2.382z"/><path d="M0 25.166h10.583v.396H0z"/></g><g fill="#a2000d"><path d="M102.79 26.555v-2.382h.398v2.382zM92.604 26.555v-2.382h.397v2.382z"/><path d="M92.604 25.166h10.584v.397H92.604z"/></g><g fill="#a2000d"><path d="M44.45 17.727h3.969v.794H44.45zM44.45 0h3.969v.794H44.45z"/><path d="M46.831 0v18.52h-.793V0z"/></g></svg>