<svg xmlns="http://www.w3.org/2000/svg" viewBox="0 0 79.375 18.521" height="70" width="300"><path d="M0 13.23h79.375v5.29H0z" fill="#dfdff9"/><path d="M5.292 13.23h68.791v5.29H5.292z" fill="#705697"/><path d="M10.583 13.23h58.209v5.29H10.583z" fill="#3d3d55"/><g style="line-height:1.25" aria-label="Collapsed margin" font-weight="400" font-size="4.233" font-family="Open Sans" letter-spacing="0" word-spacing="0" fill="#131516" stroke-width=".265"><path style="-inkscape-font-specification:'Open Sans'" d="M42.72 4.963q-.498 0-.788.333-.287.33-.287.907 0 .593.277.918.279.322.794.322.316 0 .721-.113v.308q-.314.118-.775.118-.668 0-1.031-.406-.362-.405-.362-1.15 0-.468.173-.82.176-.35.505-.541.33-.19.777-.19.475 0 .831.173l-.149.302q-.343-.161-.686-.161zM46 6.58q0 .553-.279.866-.279.31-.77.31-.305 0-.54-.143-.236-.143-.364-.41-.128-.266-.128-.624 0-.554.277-.862.277-.31.769-.31.475 0 .754.317.281.316.281.855zm-1.726 0q0 .434.174.66.174.228.51.228.337 0 .511-.225.176-.227.176-.664 0-.432-.176-.655-.174-.225-.515-.225-.337 0-.508.221-.172.221-.172.66zM46.943 7.714H46.6V4.498h.343zM48.018 7.714h-.343V4.498h.343zM50.143 7.714l-.069-.322h-.016q-.17.213-.34.29-.167.074-.419.074-.337 0-.529-.174-.19-.174-.19-.494 0-.686 1.098-.72l.384-.012v-.14q0-.267-.116-.393-.113-.128-.366-.128-.283 0-.64.173l-.106-.262q.168-.091.366-.143.2-.051.401-.051.405 0 .6.18.196.18.196.576v1.546zm-.775-.242q.32 0 .502-.175.184-.176.184-.492V6.6l-.343.015q-.41.014-.592.128-.18.111-.18.35 0 .185.112.282.114.097.317.097zM52.16 7.756q-.221 0-.405-.081-.182-.083-.306-.252h-.025q.025.198.025.376v.932h-.343V5.45h.279l.048.31h.016q.132-.186.308-.269.176-.083.403-.083.45 0 .695.308.246.308.246.864 0 .559-.25.869-.249.308-.69.308zm-.05-2.057q-.347 0-.502.192-.155.192-.159.612v.076q0 .478.16.685.158.204.51.204.293 0 .459-.237.167-.238.167-.656 0-.423-.167-.649-.166-.227-.467-.227zM55.164 7.096q0 .316-.236.488t-.662.172q-.45 0-.702-.143v-.318q.163.082.349.13.188.047.362.047.268 0 .413-.084.145-.087.145-.263 0-.132-.116-.225-.114-.095-.446-.223-.317-.118-.451-.205-.132-.089-.198-.2-.065-.112-.065-.267 0-.277.226-.436.225-.162.618-.162.366 0 .715.15l-.122.278q-.341-.14-.618-.14-.244 0-.368.076-.124.077-.124.211 0 .091.046.155.047.064.15.122.104.058.397.167.403.147.544.296.143.149.143.374zM56.677 7.756q-.503 0-.794-.306-.29-.306-.29-.85 0-.548.27-.87.27-.323.725-.323.426 0 .674.282.248.279.248.737v.218h-1.561q.01.398.2.605.193.207.54.207.366 0 .724-.153v.306q-.182.078-.346.111-.16.036-.39.036zm-.093-2.061q-.273 0-.437.178-.16.177-.19.491h1.185q0-.324-.145-.496-.145-.173-.413-.173zM59.635 7.41h-.019q-.238.346-.711.346-.444 0-.693-.304-.246-.304-.246-.864t.249-.87q.248-.31.69-.31.46 0 .707.334h.027l-.015-.163-.008-.16v-.921h.343v3.216h-.279zm-.687.058q.352 0 .509-.19.159-.192.159-.618v-.072q0-.482-.161-.687-.16-.206-.51-.206-.303 0-.464.235-.159.234-.159.662 0 .434.16.655.158.221.466.221zM64.676 7.714V6.24q0-.27-.116-.405-.115-.136-.36-.136-.32 0-.473.184-.153.184-.153.566v1.265h-.343V6.24q0-.27-.115-.405Q63 5.7 62.754 5.7q-.323 0-.474.194-.148.192-.148.633v1.188h-.344V5.45h.28l.055.31h.017q.097-.166.273-.259.177-.093.397-.093.53 0 .694.385h.017q.101-.178.293-.281.192-.104.438-.104.385 0 .575.199.192.196.192.63v1.478zM67.117 7.714l-.068-.322h-.016q-.17.213-.34.29-.167.074-.419.074-.337 0-.53-.174-.19-.174-.19-.494 0-.686 1.098-.72l.385-.012v-.14q0-.267-.116-.393-.114-.128-.366-.128-.283 0-.64.173l-.106-.262q.167-.091.366-.143.2-.051.4-.051.406 0 .6.18.197.18.197.576v1.546zm-.775-.242q.32 0 .502-.175.184-.176.184-.492V6.6l-.343.015q-.409.014-.59.128-.18.111-.18.35 0 .185.11.282.115.097.317.097zM69.114 5.407q.151 0 .27.025l-.047.319q-.14-.031-.248-.031-.275 0-.471.223-.194.223-.194.556v1.215h-.343V5.45h.283l.04.42h.016q.126-.222.303-.342.178-.12.391-.12zM71.663 5.449v.217l-.42.05q.058.072.104.19.045.115.045.262 0 .333-.227.531-.228.199-.625.199-.1 0-.19-.017-.219.116-.219.292 0 .093.077.138.076.044.262.044h.401q.368 0 .564.155.199.155.199.45 0 .376-.302.573-.302.198-.88.198-.445 0-.687-.165-.24-.165-.24-.467 0-.207.133-.358.132-.15.372-.205-.087-.039-.147-.121-.058-.083-.058-.193 0-.124.066-.217t.21-.18q-.177-.072-.288-.246-.11-.173-.11-.396 0-.372.223-.573.224-.203.633-.203.178 0 .32.042zm-1.807 2.646q0 .184.155.279.155.095.445.095.432 0 .638-.13.21-.129.21-.35 0-.184-.115-.256-.113-.07-.427-.07h-.412q-.233 0-.364.111-.13.112-.13.32zm.186-1.92q0 .237.135.359.134.122.374.122.502 0 .502-.488 0-.51-.508-.51-.242 0-.373.13-.13.13-.13.386zM72.475 7.714h-.343V5.45h.343zm-.372-2.88q0-.117.058-.17.058-.057.145-.057.082 0 .142.056.06.056.06.172 0 .116-.06.173-.06.056-.142.056-.087 0-.145-.056-.058-.057-.058-.173zM74.757 7.714V6.25q0-.277-.126-.414-.126-.136-.395-.136-.355 0-.52.192-.166.192-.166.635v1.188h-.343V5.45h.279l.056.31h.016q.106-.168.296-.259.19-.093.424-.093.409 0 .616.199.206.196.206.63v1.478z"/></g><g fill="#a2000d"><path d="M38.497 12.832h2.381v.397h-2.381zM38.497 0h2.381v.397h-2.381z"/><path d="M39.886 0v13.23h-.397V0z"/></g></svg>