<svg xmlns="http://www.w3.org/2000/svg" viewBox="0 0 69.328 17.043" height="64.415" width="262.027"><g style="line-height:1.25;-inkscape-font-specification:'Open Sans, Normal';font-variant-ligatures:normal;font-variant-caps:normal;font-variant-numeric:normal;font-feature-settings:normal;text-align:start" aria-label="1. Press" font-weight="400" font-size="4.233" font-family="Open Sans" letter-spacing="0" word-spacing="0" fill="#131516" stroke-width=".265"><path style="-inkscape-font-specification:'Open Sans, Normal';font-variant-ligatures:normal;font-variant-caps:normal;font-variant-numeric:normal;font-feature-settings:normal;text-align:start" d="M1.358 3.892h-.336V1.745q0-.268.016-.507-.043.043-.097.09-.054.048-.493.403l-.183-.235.803-.616h.29zM2.62 3.674q0-.138.063-.209.064-.072.182-.072.12 0 .187.072.068.07.068.209 0 .134-.068.206-.068.072-.187.072-.105 0-.176-.064-.068-.066-.068-.214zM6.876 1.757q0 .458-.315.705-.314.245-.898.245h-.357v1.185h-.353V.88h.786q1.137 0 1.137.877zm-1.57.65h.317q.469 0 .678-.151.21-.15.21-.482 0-.299-.197-.445-.197-.147-.614-.147h-.394zM8.493 1.592q.152 0 .272.025l-.048.318q-.14-.031-.249-.031-.276 0-.473.222-.194.223-.194.554v1.212h-.345V1.634h.284l.04.418h.016q.127-.22.305-.34.179-.12.392-.12zM10.15 3.933q-.504 0-.796-.305-.29-.305-.29-.847 0-.546.269-.867.272-.322.728-.322.427 0 .676.28.249.279.249.736v.217H9.42q.01.397.201.603.193.206.541.206.367 0 .726-.152v.305q-.182.078-.346.111-.162.035-.392.035zm-.093-2.054q-.274 0-.438.177-.162.177-.19.49h1.188q0-.323-.146-.494-.145-.173-.414-.173zM13.036 3.276q0 .315-.236.486-.236.171-.664.171-.452 0-.705-.142v-.317q.164.082.35.13.19.047.364.047.27 0 .415-.085.145-.086.145-.261 0-.132-.116-.225-.115-.095-.448-.222-.318-.118-.452-.204-.133-.089-.2-.2-.064-.111-.064-.266 0-.276.226-.435.226-.16.62-.16.367 0 .718.148l-.123.278q-.342-.14-.62-.14-.244 0-.369.076-.124.076-.124.21 0 .091.045.155.048.064.152.121.104.058.398.167.404.147.545.295.143.148.143.373zM15.06 3.276q0 .315-.236.486-.237.171-.664.171-.452 0-.705-.142v-.317q.164.082.35.13.19.047.364.047.27 0 .414-.085.146-.086.146-.261 0-.132-.117-.225-.114-.095-.448-.222-.317-.118-.452-.204-.132-.089-.199-.2-.064-.111-.064-.266 0-.276.226-.435.226-.16.62-.16.367 0 .718.148l-.123.278q-.342-.14-.62-.14-.244 0-.369.076-.124.076-.124.21 0 .091.045.155.048.064.152.121.103.058.398.167.404.147.545.295.143.148.143.373z"/></g><g style="line-height:1.25;-inkscape-font-specification:'Open Sans, Normal';font-variant-ligatures:normal;font-variant-caps:normal;font-variant-numeric:normal;font-feature-settings:normal;text-align:start" aria-label="to begin recording." font-weight="400" font-size="4.233" font-family="Open Sans" letter-spacing="0" word-spacing="0" fill="#131516" stroke-width=".265"><path style="-inkscape-font-specification:'Open Sans, Normal';font-variant-ligatures:normal;font-variant-caps:normal;font-variant-numeric:normal;font-feature-settings:normal;text-align:start" d="M23.508 3.65q.092 0 .177-.011.085-.015.134-.03v.262q-.056.027-.166.044-.107.018-.194.018-.66 0-.66-.69V1.9h-.325v-.165l.325-.143.145-.482h.2v.524h.659V1.9h-.66v1.329q0 .204.098.313.097.109.267.109zM26.237 2.76q0 .553-.28.864-.28.31-.773.31-.305 0-.541-.143-.237-.142-.365-.408-.129-.266-.129-.622 0-.552.278-.86.278-.309.771-.309.477 0 .757.316.282.315.282.853zm-1.731 0q0 .434.174.66.174.227.512.227t.512-.225q.177-.226.177-.661 0-.43-.177-.653-.174-.225-.516-.225-.338 0-.51.22-.172.221-.172.658zM29 1.597q.447 0 .694.305.249.302.249.859 0 .556-.251.865-.249.307-.693.307-.222 0-.406-.08-.183-.083-.307-.252h-.025l-.073.291h-.246V.686h.344v.779q0 .261-.017.47h.017q.24-.338.713-.338zm-.05.286q-.353 0-.509.202-.155.2-.155.676 0 .476.16.682.16.204.512.204.317 0 .473-.229.155-.23.155-.661 0-.441-.155-.658-.156-.216-.482-.216zM31.506 3.933q-.504 0-.796-.305-.29-.305-.29-.847 0-.546.27-.867.27-.322.727-.322.427 0 .676.28.249.279.249.736v.217h-1.566q.01.397.201.603.193.206.542.206.367 0 .725-.152v.305q-.182.078-.346.111-.162.035-.392.035zm-.093-2.054q-.274 0-.438.177-.161.177-.19.49h1.188q0-.323-.145-.494-.146-.173-.415-.173zM34.787 1.634v.216l-.421.05q.058.072.103.19.046.114.046.26 0 .333-.228.53-.228.198-.626.198-.102 0-.191-.016-.22.115-.22.29 0 .093.077.138.077.043.263.043h.403q.369 0 .566.155.199.155.199.45 0 .374-.303.57-.303.198-.883.198-.446 0-.689-.165-.24-.165-.24-.466 0-.206.132-.356.133-.15.374-.204-.088-.04-.148-.122-.058-.082-.058-.191 0-.124.067-.217.066-.092.209-.179-.176-.072-.288-.245-.11-.173-.11-.396 0-.37.224-.57.224-.203.634-.203.179 0 .322.042zM32.974 4.27q0 .184.156.278.155.095.446.095.433 0 .64-.13.21-.127.21-.348 0-.183-.114-.255-.114-.07-.43-.07h-.412q-.234 0-.365.11-.13.112-.13.32zm.187-1.914q0 .237.135.358.135.122.375.122.504 0 .504-.486 0-.51-.51-.51-.243 0-.373.13-.131.13-.131.386zM35.602 3.892h-.345V1.634h.345zm-.374-2.87q0-.118.058-.171.059-.056.146-.056.083 0 .143.056.06.055.06.17 0 .116-.06.174-.06.055-.143.055-.087 0-.146-.055-.058-.058-.058-.173zM37.89 3.892v-1.46q0-.277-.126-.413-.126-.136-.396-.136-.356 0-.522.192-.166.191-.166.632v1.185h-.344V1.634h.28l.056.309h.016q.106-.167.297-.258.19-.093.425-.093.41 0 .618.198.207.196.207.629v1.473zM41.08 1.592q.152 0 .272.025l-.048.318q-.14-.031-.249-.031-.276 0-.473.222-.194.223-.194.554v1.212h-.345V1.634h.284l.04.418h.016q.127-.22.305-.34.179-.12.392-.12zM42.737 3.933q-.504 0-.796-.305-.29-.305-.29-.847 0-.546.269-.867.272-.322.728-.322.427 0 .676.28.249.279.249.736v.217h-1.566q.01.397.201.603.193.206.541.206.367 0 .726-.152v.305q-.182.078-.346.111-.162.035-.392.035zm-.093-2.054q-.274 0-.438.177-.162.177-.19.49h1.188q0-.323-.146-.494-.145-.173-.414-.173zM45.066 3.933q-.494 0-.766-.3-.27-.303-.27-.856 0-.566.275-.875.275-.31.783-.31.164 0 .328.036.164.035.257.082l-.106.29q-.114-.045-.248-.074-.135-.03-.239-.03-.692 0-.692.877 0 .416.168.639.17.222.501.222.284 0 .583-.121v.303q-.228.117-.574.117zM48.143 2.76q0 .553-.28.864-.28.31-.774.31-.304 0-.54-.143-.237-.142-.366-.408-.128-.266-.128-.622 0-.552.278-.86.277-.309.771-.309.477 0 .757.316.282.315.282.853zm-1.732 0q0 .434.175.66.174.227.512.227t.512-.225q.176-.226.176-.661 0-.43-.176-.653-.174-.225-.516-.225-.338 0-.51.22-.173.221-.173.658zM49.781 1.592q.151 0 .272.025l-.048.318q-.141-.031-.249-.031-.276 0-.473.222-.195.223-.195.554v1.212h-.344V1.634h.284l.04.418h.016q.127-.22.305-.34.178-.12.392-.12zM52.025 3.59h-.019q-.238.343-.713.343-.446 0-.695-.303-.247-.303-.247-.861t.25-.867q.248-.31.692-.31.462 0 .709.334h.027l-.015-.162-.008-.16V.687h.344v3.206h-.28zm-.689.057q.353 0 .51-.19.16-.191.16-.616V2.77q0-.48-.162-.684-.16-.206-.512-.206-.303 0-.464.235-.16.233-.16.66 0 .432.16.652.16.22.468.22zM53.426 3.892h-.344V1.634h.344zm-.373-2.87q0-.118.058-.171.058-.056.145-.056.083 0 .143.056.06.055.06.17 0 .116-.06.174-.06.055-.143.055-.087 0-.145-.055-.058-.058-.058-.173zM55.716 3.892v-1.46q0-.277-.127-.413-.126-.136-.396-.136-.356 0-.522.192-.166.191-.166.632v1.185h-.344V1.634h.28l.055.309h.017q.106-.167.297-.258.19-.093.425-.093.41 0 .618.198.207.196.207.629v1.473zM58.625 1.634v.216l-.42.05q.057.072.103.19.045.114.045.26 0 .333-.228.53-.228.198-.626.198-.102 0-.19-.016-.22.115-.22.29 0 .093.076.138.077.043.264.043h.402q.369 0 .566.155.199.155.199.45 0 .374-.303.57-.303.198-.883.198-.446 0-.689-.165-.24-.165-.24-.466 0-.206.133-.356.132-.15.373-.204-.087-.04-.147-.122-.058-.082-.058-.191 0-.124.066-.217.066-.092.21-.179-.177-.072-.289-.245-.11-.173-.11-.396 0-.37.224-.57.224-.203.635-.203.178 0 .321.042zM56.813 4.27q0 .184.155.278.156.095.446.095.433 0 .64-.13.21-.127.21-.348 0-.183-.114-.255-.114-.07-.43-.07h-.412q-.234 0-.365.11-.13.112-.13.32zm.186-1.914q0 .237.135.358.135.122.375.122.504 0 .504-.486 0-.51-.51-.51-.242 0-.373.13-.13.13-.13.386zM59.046 3.674q0-.138.062-.209.064-.072.183-.072.12 0 .186.072.069.07.069.209 0 .134-.069.206-.068.072-.186.072-.106 0-.177-.064-.068-.066-.068-.214z"/></g><g style="line-height:1.25;-inkscape-font-specification:'Open Sans, Normal';font-variant-ligatures:normal;font-variant-caps:normal;font-variant-numeric:normal;font-feature-settings:normal;text-align:start" aria-label="2. Press" font-weight="400" font-size="4.233" font-family="Open Sans" letter-spacing="0" word-spacing="0" fill="#131516" stroke-width=".265"><path style="-inkscape-font-specification:'Open Sans, Normal';font-variant-ligatures:normal;font-variant-caps:normal;font-variant-numeric:normal;font-feature-settings:normal;text-align:start" d="M1.993 10.244H0v-.295l.798-.797q.365-.367.481-.524.117-.156.175-.305.058-.148.058-.319 0-.241-.148-.381-.147-.142-.408-.142-.189 0-.359.061-.168.062-.375.225l-.183-.233q.42-.346.913-.346.427 0 .67.218.242.217.242.584 0 .286-.162.566-.161.28-.605.71l-.664.644v.016h1.56zM2.538 10.025q0-.138.062-.208.065-.072.183-.072.12 0 .186.072.069.07.069.208 0 .134-.069.206-.068.073-.186.073-.106 0-.176-.064-.069-.066-.069-.215zM6.793 8.11q0 .457-.315.704-.313.245-.898.245h-.357v1.185h-.352V7.23h.786q1.136 0 1.136.878zm-1.57.648h.318q.468 0 .678-.15.21-.15.21-.482 0-.3-.198-.445-.197-.147-.614-.147h-.394zM8.41 7.944q.152 0 .272.025l-.047.317q-.141-.03-.25-.03-.275 0-.472.222-.195.222-.195.554v1.212h-.344V7.985h.284l.04.419h.016q.126-.22.305-.34.178-.12.392-.12zM10.067 10.285q-.503 0-.796-.305-.29-.305-.29-.847 0-.546.27-.867.271-.322.727-.322.427 0 .676.28.25.279.25.736v.216H9.336q.01.398.202.604.192.206.54.206.368 0 .727-.152v.305q-.183.078-.347.111-.161.035-.392.035zm-.093-2.054q-.274 0-.437.177-.162.177-.191.49h1.188q0-.323-.145-.494-.145-.173-.415-.173zM12.954 9.628q0 .315-.237.486-.236.171-.663.171-.452 0-.705-.142v-.317q.164.082.35.13.189.047.363.047.27 0 .415-.085.145-.086.145-.261 0-.132-.116-.225-.114-.095-.448-.223-.317-.117-.452-.204-.133-.088-.199-.2-.064-.11-.064-.265 0-.276.226-.435.226-.16.62-.16.367 0 .717.148l-.122.278q-.342-.14-.62-.14-.245 0-.37.076-.124.076-.124.21 0 .09.046.155.048.064.151.121.104.058.398.167.405.146.546.295.143.148.143.373zM14.978 9.628q0 .315-.237.486-.236.171-.663.171-.452 0-.705-.142v-.317q.164.082.35.13.189.047.363.047.27 0 .415-.085.145-.086.145-.261 0-.132-.116-.225-.114-.095-.448-.223-.317-.117-.452-.204-.133-.088-.2-.2-.063-.11-.063-.265 0-.276.226-.435.226-.16.62-.16.367 0 .717.148l-.122.278q-.342-.14-.62-.14-.245 0-.37.076-.124.076-.124.21 0 .09.046.155.047.064.151.121.104.058.398.167.405.146.546.295.143.148.143.373z"/></g><g stroke-width="1.783"><path d="M-59.459-47.973h27.372c1.042 0 1.88.86 1.88 1.928v27.278c0 1.068-.838 1.928-1.88 1.928H-59.46c-1.042 0-1.88-.86-1.88-1.928v-27.278c0-1.068.838-1.928 1.88-1.928z" fill="none" stroke="#000" stroke-width="2.995" stroke-dashoffset="11.7" transform="matrix(.11626 0 0 .1158 24.057 12.08)"/><path d="M-35.69-32.406a10.084 10.13 0 01-10.083 10.129 10.084 10.13 0 01-10.084-10.13 10.084 10.13 0 0110.084-10.128 10.084 10.13 0 0110.084 10.129z" fill="red" stroke="red" stroke-width="2.591" stroke-linejoin="round" transform="matrix(.11626 0 0 .1158 24.057 12.08)"/></g><g style="line-height:1.25;-inkscape-font-specification:'Open Sans, Normal';font-variant-ligatures:normal;font-variant-caps:normal;font-variant-numeric:normal;font-feature-settings:normal;text-align:start" aria-label="again to stop recording." font-weight="400" font-size="4.233" font-family="Open Sans" letter-spacing="0" word-spacing="0" fill="#131516" stroke-width=".265"><path style="-inkscape-font-specification:'Open Sans, Normal';font-variant-ligatures:normal;font-variant-caps:normal;font-variant-numeric:normal;font-feature-settings:normal;text-align:start" d="M24.172 10.244l-.069-.322h-.016q-.17.213-.34.289-.168.074-.421.074-.338 0-.531-.173-.19-.173-.19-.493 0-.684 1.1-.717l.386-.012v-.14q0-.266-.116-.392-.114-.127-.367-.127-.284 0-.643.173l-.106-.262q.168-.09.367-.142.201-.052.403-.052.406 0 .6.18.198.179.198.575v1.54zm-.778-.241q.322 0 .504-.175.185-.176.185-.49v-.205l-.345.015q-.41.014-.593.127-.18.112-.18.349 0 .185.112.282.114.097.317.097zM26.998 7.985v.217l-.42.05q.057.071.103.189.046.115.046.262 0 .331-.229.53-.228.197-.626.197-.101 0-.19-.017-.22.116-.22.29 0 .094.076.139.077.043.264.043h.402q.37 0 .566.155.2.154.2.449 0 .375-.304.57-.302.199-.883.199-.446 0-.688-.165-.24-.165-.24-.466 0-.206.132-.356t.373-.204q-.087-.04-.147-.122-.058-.082-.058-.192 0-.123.066-.216t.21-.18q-.177-.071-.289-.244-.11-.174-.11-.396 0-.37.224-.57.224-.203.635-.203.178 0 .321.041zm-1.812 2.638q0 .183.155.278.156.095.446.095.434 0 .641-.13.21-.128.21-.348 0-.184-.115-.256-.114-.07-.429-.07h-.413q-.234 0-.365.112-.13.11-.13.319zm.186-1.914q0 .237.135.358.135.122.376.122.503 0 .503-.486 0-.51-.51-.51-.242 0-.373.13-.13.13-.13.386zM28.867 10.244l-.069-.322h-.016q-.17.213-.34.289-.169.074-.422.074-.338 0-.53-.173-.191-.173-.191-.493 0-.684 1.101-.717l.386-.012v-.14q0-.266-.116-.392-.115-.127-.367-.127-.285 0-.643.173l-.106-.262q.168-.09.367-.142.201-.052.402-.052.407 0 .602.18.197.179.197.575v1.54zm-.778-.241q.321 0 .504-.175.184-.176.184-.49v-.205l-.344.015q-.41.014-.593.127-.18.112-.18.349 0 .185.112.282.114.097.317.097zM30.177 10.244h-.344V7.985h.344zm-.373-2.87q0-.118.058-.172.058-.055.145-.055.083 0 .143.055.06.056.06.172 0 .115-.06.173-.06.055-.143.055-.087 0-.145-.055-.058-.058-.058-.173zM32.466 10.244V8.783q0-.276-.126-.412-.127-.136-.396-.136-.357 0-.523.191-.166.192-.166.633v1.185h-.344V7.985h.28l.056.31h.017q.105-.167.296-.258.19-.093.425-.093.41 0 .618.198.208.196.208.629v1.473zM35.353 10.003q.091 0 .176-.013.085-.014.135-.028v.261q-.056.027-.166.043-.108.019-.195.019-.66 0-.66-.69V8.25h-.325v-.165l.326-.142.145-.482h.199v.523h.66v.266h-.66v1.33q0 .203.097.313.098.109.268.109zM38.082 9.113q0 .552-.28.863-.28.309-.774.309-.305 0-.54-.142-.237-.142-.366-.408-.128-.266-.128-.622 0-.553.277-.86.278-.309.772-.309.477 0 .757.316.282.315.282.853zm-1.732 0q0 .432.174.659.175.227.513.227t.512-.225q.176-.227.176-.661 0-.431-.176-.654-.174-.224-.517-.224-.338 0-.51.22t-.172.658zM41.252 9.628q0 .315-.236.486-.237.171-.664.171-.452 0-.705-.142v-.317q.164.082.35.13.19.047.364.047.27 0 .414-.085.145-.086.145-.261 0-.132-.116-.225-.114-.095-.448-.223-.317-.117-.452-.204-.132-.088-.199-.2-.064-.11-.064-.265 0-.276.226-.435.226-.16.62-.16.367 0 .718.148l-.123.278q-.342-.14-.62-.14-.244 0-.369.076-.124.076-.124.21 0 .09.045.155.048.064.152.121.103.058.398.167.404.146.545.295.143.148.143.373zM42.544 10.003q.091 0 .176-.013.085-.014.135-.028v.261q-.056.027-.166.043-.108.019-.195.019-.66 0-.66-.69V8.25h-.325v-.165l.326-.142.145-.482h.2v.523h.659v.266h-.66v1.33q0 .203.098.313.097.109.267.109zM45.273 9.113q0 .552-.28.863-.28.309-.773.309-.305 0-.542-.142-.236-.142-.365-.408-.128-.266-.128-.622 0-.553.278-.86.278-.309.771-.309.477 0 .757.316.282.315.282.853zm-1.731 0q0 .432.174.659.174.227.512.227t.512-.225q.176-.227.176-.661 0-.431-.176-.654-.174-.224-.516-.224-.338 0-.51.22t-.172.658zM46.932 10.285q-.222 0-.407-.08-.182-.083-.306-.252h-.025q.025.198.025.375v.93h-.345V7.985h.28l.048.31h.017q.132-.186.309-.268.176-.083.404-.083.452 0 .697.307.246.307.246.862 0 .556-.25.865-.25.307-.693.307zm-.05-2.05q-.348 0-.504.191-.155.192-.16.61v.077q0 .476.16.682.16.204.512.204.295 0 .46-.237.169-.237.169-.654 0-.422-.168-.647-.166-.226-.469-.226zM50.619 7.944q.151 0 .271.025l-.047.317q-.141-.03-.25-.03-.275 0-.472.222-.195.222-.195.554v1.212h-.344V7.985h.284l.04.419h.016q.127-.22.305-.34.178-.12.392-.12zM52.276 10.285q-.504 0-.797-.305-.29-.305-.29-.847 0-.546.27-.867.271-.322.727-.322.428 0 .676.28.25.279.25.736v.216h-1.566q.01.398.2.604.194.206.542.206.367 0 .726-.152v.305q-.183.078-.346.111-.162.035-.392.035zm-.094-2.054q-.273 0-.437.177-.162.177-.191.49h1.188q0-.323-.145-.494-.145-.173-.415-.173zM54.604 10.285q-.493 0-.765-.3-.27-.304-.27-.856 0-.567.274-.876.276-.309.784-.309.164 0 .328.035t.257.083l-.106.29q-.114-.045-.249-.074-.135-.03-.238-.03-.693 0-.693.877 0 .416.168.639.17.222.502.222.284 0 .583-.121v.303q-.228.117-.575.117zM57.682 9.113q0 .552-.28.863-.28.309-.774.309-.305 0-.541-.142-.236-.142-.365-.408t-.129-.622q0-.553.278-.86.278-.309.772-.309.477 0 .756.316.283.315.283.853zm-1.732 0q0 .432.174.659.174.227.512.227t.513-.225q.176-.227.176-.661 0-.431-.176-.654-.175-.224-.517-.224-.338 0-.51.22t-.172.658zM59.32 7.944q.151 0 .271.025l-.047.317q-.141-.03-.25-.03-.275 0-.472.222-.195.222-.195.554v1.212h-.344V7.985h.284l.04.419h.016q.126-.22.305-.34.178-.12.392-.12zM61.563 9.94h-.018q-.239.345-.714.345-.445 0-.694-.303-.247-.303-.247-.861 0-.559.249-.868.249-.309.692-.309.463 0 .71.334h.026l-.014-.163-.008-.158v-.92h.344v3.207h-.28zm-.688.059q.352 0 .51-.19.16-.192.16-.616V9.12q0-.48-.162-.684-.16-.206-.512-.206-.303 0-.465.235-.16.232-.16.659 0 .433.16.653.16.22.469.22zM62.965 10.244h-.344V7.985h.344zm-.373-2.87q0-.118.058-.172.058-.055.145-.055.083 0 .143.055.06.056.06.172 0 .115-.06.173-.06.055-.143.055-.087 0-.145-.055-.058-.058-.058-.173zM65.254 10.244V8.783q0-.276-.126-.412-.127-.136-.396-.136-.357 0-.523.191-.166.192-.166.633v1.185H63.7V7.985h.28l.056.31h.017q.105-.167.296-.258.191-.093.425-.093.41 0 .618.198.208.196.208.629v1.473zM68.164 7.985v.217l-.421.05q.058.071.103.189.046.115.046.262 0 .331-.228.53-.228.197-.626.197-.102 0-.191-.017-.22.116-.22.29 0 .094.077.139.077.043.263.043h.402q.37 0 .567.155.199.154.199.449 0 .375-.303.57-.303.199-.884.199-.445 0-.688-.165-.24-.165-.24-.466 0-.206.132-.356.133-.15.373-.204-.087-.04-.147-.122-.058-.082-.058-.192 0-.123.067-.216.066-.093.209-.18-.176-.071-.288-.244-.11-.174-.11-.396 0-.37.224-.57.224-.203.634-.203.179 0 .322.041zm-1.813 2.638q0 .183.156.278.155.095.446.095.433 0 .64-.13.21-.128.21-.348 0-.184-.114-.256-.114-.07-.43-.07h-.412q-.234 0-.365.112-.13.11-.13.319zm.187-1.914q0 .237.135.358.134.122.375.122.504 0 .504-.486 0-.51-.51-.51-.243 0-.373.13-.131.13-.131.386zM68.585 10.025q0-.138.062-.208.064-.072.182-.072.12 0 .187.072.068.07.068.208 0 .134-.068.206-.069.073-.187.073-.105 0-.176-.064-.068-.066-.068-.215z"/></g><g style="line-height:1.25;-inkscape-font-specification:'Open Sans, Normal';font-variant-ligatures:normal;font-variant-caps:normal;font-variant-numeric:normal;font-feature-settings:normal;text-align:start" aria-label="You can now press" font-weight="400" font-size="4.233" font-family="Open Sans" letter-spacing="0" word-spacing="0" fill="#131516" stroke-width=".265"><path style="-inkscape-font-specification:'Open Sans, Normal';font-variant-ligatures:normal;font-variant-caps:normal;font-variant-numeric:normal;font-feature-settings:normal;text-align:start" d="M1.208 14.523l.809-1.506h.381l-1.012 1.844v1.168H1.03v-1.151L.02 13.017h.386zM4.727 14.898q0 .552-.28.864-.28.309-.773.309-.305 0-.542-.142-.236-.143-.364-.408-.13-.266-.13-.623 0-.552.279-.859.278-.31.771-.31.477 0 .757.316.282.315.282.853zm-1.731 0q0 .433.174.66.174.226.512.226t.512-.224q.176-.227.176-.662 0-.43-.176-.653-.174-.225-.516-.225-.338 0-.51.221-.172.22-.172.657zM5.652 13.771v1.465q0 .276.126.412.127.136.396.136.357 0 .52-.193.167-.194.167-.633v-1.187h.344v2.258h-.284l-.05-.302h-.018q-.106.166-.295.255-.187.089-.427.089-.415 0-.622-.196-.205-.196-.205-.626V13.77zM9.944 16.07q-.493 0-.765-.3-.27-.303-.27-.855 0-.567.274-.876.276-.31.784-.31.164 0 .328.036.164.035.257.082l-.106.29q-.114-.044-.249-.073-.135-.031-.238-.031-.693 0-.693.878 0 .416.168.638.17.223.502.223.284 0 .583-.122v.303q-.228.118-.575.118zM12.458 16.03l-.069-.322h-.017q-.17.212-.34.289-.168.074-.42.074-.339 0-.531-.173-.191-.173-.191-.493 0-.684 1.1-.717l.387-.012v-.14q0-.266-.116-.392-.115-.128-.368-.128-.284 0-.642.173l-.106-.261q.168-.09.367-.142.201-.052.402-.052.407 0 .602.18.197.179.197.574v1.541zm-.778-.242q.321 0 .504-.175.184-.175.184-.49v-.204l-.344.014q-.41.015-.593.128-.18.111-.18.348 0 .186.112.283.114.096.317.096zM14.979 16.03v-1.461q0-.277-.126-.413-.127-.136-.397-.136-.356 0-.522.192-.166.192-.166.633v1.184h-.344v-2.258h.28l.056.31h.016q.106-.168.297-.258.19-.093.425-.093.41 0 .618.198.207.195.207.628v1.473zM18.687 16.03v-1.461q0-.277-.127-.413-.126-.136-.396-.136-.357 0-.522.192-.166.192-.166.633v1.184h-.345v-2.258h.28l.056.31h.017q.106-.168.296-.258.191-.093.426-.093.41 0 .618.198.207.195.207.628v1.473zM21.698 14.898q0 .552-.28.864-.28.309-.774.309-.305 0-.541-.142-.236-.143-.365-.408-.129-.266-.129-.623 0-.552.278-.859.278-.31.772-.31.477 0 .757.316.282.315.282.853zm-1.732 0q0 .433.174.66.174.226.512.226t.513-.224q.176-.227.176-.662 0-.43-.176-.653-.175-.225-.517-.225-.338 0-.51.221-.172.22-.172.657zM24.155 16.03l-.417-1.325q-.04-.122-.147-.553h-.017q-.083.36-.145.557l-.43 1.32h-.397l-.62-2.258h.36l.334 1.296q.116.445.133.6h.017q.022-.118.072-.303.052-.188.09-.297l.416-1.296h.373l.407 1.296q.116.355.157.596h.017q.008-.074.044-.229.037-.155.433-1.663h.357l-.629 2.258zM27.76 16.07q-.221 0-.406-.08-.182-.082-.307-.251h-.024q.024.198.024.375v.93h-.344V13.77h.28l.048.31h.016q.133-.186.31-.269.176-.082.404-.082.452 0 .697.307.246.307.246.861 0 .557-.25.866-.25.307-.693.307zm-.049-2.05q-.348 0-.504.192-.155.192-.16.61v.076q0 .476.16.682.16.204.512.204.295 0 .46-.237.169-.237.169-.653 0-.422-.168-.647-.166-.227-.469-.227zM30.345 13.73q.15 0 .271.025l-.048.317q-.14-.03-.248-.03-.276 0-.473.222-.195.222-.195.554v1.211h-.344v-2.258h.284l.04.418h.016q.126-.22.305-.34.178-.12.392-.12zM32.001 16.07q-.504 0-.796-.304-.29-.305-.29-.847 0-.546.27-.868.271-.321.727-.321.427 0 .676.28.249.278.249.736v.216h-1.566q.01.398.202.604.192.206.54.206.368 0 .727-.153v.305q-.183.079-.347.112-.161.035-.392.035zm-.093-2.054q-.274 0-.437.178-.162.177-.191.49h1.188q0-.324-.145-.495-.145-.173-.415-.173zM34.888 15.413q0 .316-.237.487-.236.17-.663.17-.452 0-.705-.141v-.318q.164.083.35.13.189.047.363.047.27 0 .415-.084.145-.087.145-.262 0-.132-.116-.224-.114-.095-.448-.223-.317-.117-.452-.204-.133-.088-.2-.2-.063-.111-.063-.266 0-.276.226-.434.226-.161.62-.161.367 0 .717.148l-.122.278q-.342-.14-.62-.14-.245 0-.37.077-.124.076-.124.21 0 .09.046.154.048.064.151.122.104.058.398.167.405.146.546.294.143.149.143.373zM36.912 15.413q0 .316-.237.487-.236.17-.663.17-.452 0-.705-.141v-.318q.164.083.35.13.189.047.363.047.27 0 .415-.084.145-.087.145-.262 0-.132-.116-.224-.114-.095-.448-.223-.317-.117-.452-.204-.133-.088-.2-.2-.064-.111-.064-.266 0-.276.226-.434.227-.161.62-.161.368 0 .718.148l-.122.278q-.343-.14-.62-.14-.245 0-.37.077-.124.076-.124.21 0 .09.046.154.047.064.151.122.104.058.398.167.405.146.546.294.143.149.143.373z"/></g><g style="line-height:1.25;-inkscape-font-specification:'Open Sans, Normal';font-variant-ligatures:normal;font-variant-caps:normal;font-variant-numeric:normal;font-feature-settings:normal;text-align:start" aria-label="for playback." font-weight="400" font-size="4.233" font-family="Open Sans" letter-spacing="0" word-spacing="0" fill="#131516" stroke-width=".265"><path style="-inkscape-font-specification:'Open Sans, Normal';font-variant-ligatures:normal;font-variant-caps:normal;font-variant-numeric:normal;font-feature-settings:normal;text-align:start" d="M45.65 14.037h-.58v1.992h-.343v-1.992h-.407v-.155l.407-.123v-.126q0-.832.732-.832.18 0 .423.072l-.09.274q-.199-.064-.34-.064-.195 0-.288.13-.093.128-.093.412v.146h.578zM48.03 14.898q0 .552-.28.864-.28.309-.774.309-.304 0-.54-.142-.237-.143-.366-.408-.128-.266-.128-.623 0-.552.278-.859.277-.31.771-.31.477 0 .757.316.282.315.282.853zm-1.732 0q0 .433.175.66.174.226.512.226t.512-.224q.176-.227.176-.662 0-.43-.176-.653-.174-.225-.516-.225-.338 0-.51.221-.173.22-.173.657zM49.668 13.73q.151 0 .272.025l-.048.317q-.141-.03-.249-.03-.276 0-.473.222-.195.222-.195.554v1.211h-.344v-2.258h.284l.04.418h.016q.127-.22.305-.34.178-.12.392-.12zM52.525 16.07q-.221 0-.406-.08-.182-.082-.307-.251h-.025q.025.198.025.375v.93h-.344V13.77h.28l.048.31h.016q.133-.186.31-.269.175-.082.403-.082.453 0 .697.307.247.307.247.861 0 .557-.25.866-.25.307-.694.307zm-.05-2.05q-.348 0-.503.192-.156.192-.16.61v.076q0 .476.16.682.16.204.512.204.294 0 .46-.237.168-.237.168-.653 0-.422-.168-.647-.166-.227-.468-.227zM54.417 16.03h-.345v-3.207h.345zM56.548 16.03l-.068-.322h-.017q-.17.212-.34.289-.168.074-.42.074-.339 0-.532-.173-.19-.173-.19-.493 0-.684 1.1-.717l.386-.012v-.14q0-.266-.116-.392-.114-.128-.367-.128-.284 0-.643.173l-.105-.261q.168-.09.367-.142.2-.052.402-.052.406 0 .601.18.197.179.197.574v1.541zm-.777-.242q.321 0 .504-.175.184-.175.184-.49v-.204l-.344.014q-.41.015-.593.128-.18.111-.18.348 0 .186.111.283.114.096.318.096zM57.154 13.771h.369l.498 1.288q.163.44.203.637h.016q.027-.105.112-.359.087-.255.564-1.566h.37l-.977 2.572q-.145.38-.34.54-.193.16-.475.16-.158 0-.311-.035v-.274q.114.025.255.025.354 0 .506-.396l.126-.321zM60.712 13.734q.448 0 .695.305.249.303.249.86 0 .556-.251.865-.25.307-.693.307-.222 0-.406-.08-.183-.083-.307-.252h-.025l-.073.29h-.246v-3.206h.344v.78q0 .26-.017.469H60q.24-.338.713-.338zm-.05.286q-.352 0-.508.202-.155.2-.155.676 0 .476.16.682.16.204.512.204.317 0 .472-.228.156-.231.156-.662 0-.44-.156-.657-.155-.217-.48-.217zM63.657 16.03l-.069-.322h-.016q-.17.212-.34.289-.168.074-.421.074-.338 0-.531-.173-.191-.173-.191-.493 0-.684 1.101-.717l.386-.012v-.14q0-.266-.116-.392-.114-.128-.367-.128-.284 0-.643.173l-.106-.261q.168-.09.367-.142.201-.052.402-.052.407 0 .602.18.197.179.197.574v1.541zm-.778-.242q.321 0 .504-.175.184-.175.184-.49v-.204l-.344.014q-.41.015-.593.128-.18.111-.18.348 0 .186.112.283.114.096.317.096zM65.531 16.07q-.493 0-.765-.3-.27-.303-.27-.855 0-.567.274-.876.276-.31.784-.31.164 0 .328.036.163.035.257.082l-.106.29q-.114-.044-.249-.073-.135-.031-.238-.031-.693 0-.693.878 0 .416.168.638.17.223.502.223.284 0 .583-.122v.303q-.229.118-.575.118zM66.987 14.874q.089-.126.272-.33l.734-.773h.408l-.92.962.984 1.296h-.416l-.803-1.067-.26.223v.844h-.34v-3.206h.34v1.7q0 .114-.016.35zM68.828 15.811q0-.138.062-.208.065-.072.183-.072.12 0 .187.072.068.07.068.208 0 .134-.068.206-.069.072-.187.072-.106 0-.176-.064-.069-.066-.069-.214z"/></g><g stroke-width="1.783" stroke="#000" stroke-dashoffset="11.7"><path d="M6.952-47.444h27.371c1.042 0 1.881.86 1.881 1.928v27.278c0 1.068-.839 1.928-1.88 1.928H6.951c-1.042 0-1.881-.86-1.881-1.928v-27.278c0-1.068.839-1.928 1.88-1.928z" fill="none" stroke-width="2.995" transform="matrix(.1162 0 0 .11585 38.588 17.815)"/><path d="M12.143-21.037l16.992-10.84-16.992-10.84z" fill-rule="evenodd" stroke-width="3.135" stroke-linejoin="round" transform="matrix(.1162 0 0 .11585 38.588 17.815)"/></g><g stroke-width="1.783"><path d="M-59.459-47.973h27.372c1.042 0 1.88.86 1.88 1.928v27.278c0 1.068-.838 1.928-1.88 1.928H-59.46c-1.042 0-1.88-.86-1.88-1.928v-27.278c0-1.068.838-1.928 1.88-1.928z" fill="none" stroke="#000" stroke-width="2.995" stroke-dashoffset="11.7" transform="matrix(.11626 0 0 .1158 24.098 5.728)"/><path d="M-35.69-32.406a10.084 10.13 0 01-10.083 10.129 10.084 10.13 0 01-10.084-10.13 10.084 10.13 0 0110.084-10.128 10.084 10.13 0 0110.084 10.129z" fill="red" stroke="red" stroke-width="2.591" stroke-linejoin="round" transform="matrix(.11626 0 0 .1158 24.098 5.728)"/></g></svg>