<svg xmlns="http://www.w3.org/2000/svg" viewBox="0 0 77.637 23.813" height="90" width="293.43"><defs><marker orient="auto" overflow="visible" id="a"><path d="M2.308 0l-3.46 2v-4z" fill-rule="evenodd" stroke="#000" stroke-width=".5332"/></marker><marker orient="auto" overflow="visible" id="b"><path d="M2.308 0l-3.46 2v-4z" fill-rule="evenodd" stroke="#000" stroke-width=".5332"/></marker></defs><path d="M24.72 10.583h52.917v2.646H24.72z" fill="#dfdff9"/><g fill="#a2000d"><path d="M26.643 9.779h3.959v.804h-3.959zM26.643 0h3.959v.783h-3.959z"/><path d="M29.014 0v10.583h-.783V0z"/></g><g fill="#a2000d"><path d="M27.432 23.416h2.381v.397h-2.381zM27.432 13.23h2.381v.396h-2.381z"/><path d="M28.821 13.23v10.583h-.397V13.229z"/></g><g style="line-height:1.25;-inkscape-font-specification:'Open Sans, Normal';font-variant-ligatures:normal;font-variant-caps:normal;font-variant-numeric:normal;font-feature-settings:normal;text-align:start" aria-label="Parent’s bottom margin" font-weight="400" font-size="4.233" font-family="Open Sans" letter-spacing="0" word-spacing="0" stroke-width=".265"><path style="-inkscape-font-specification:'Open Sans, Normal';font-variant-ligatures:normal;font-variant-caps:normal;font-variant-numeric:normal;font-feature-settings:normal;text-align:start" d="M32.343 17.48q0 .458-.314.706-.312.246-.895.246h-.356v1.189h-.35v-3.023h.782q1.133 0 1.133.881zm-1.565.65h.317q.467 0 .676-.15.208-.152.208-.484 0-.3-.196-.447-.196-.147-.612-.147h-.393zM34.315 19.62l-.068-.322h-.017q-.169.213-.339.29-.167.074-.42.074-.336 0-.528-.174-.19-.173-.19-.494 0-.686 1.097-.72l.385-.012v-.14q0-.267-.116-.393-.114-.128-.366-.128-.283 0-.64.174l-.106-.263q.167-.09.366-.143.2-.051.4-.051.406 0 .6.18.196.18.196.576v1.547zm-.775-.241q.32 0 .502-.176.184-.176.184-.492v-.205l-.343.015q-.41.014-.591.128-.18.112-.18.35 0 .185.112.283.114.097.316.097zM36.312 17.314q.15 0 .27.024l-.047.319q-.14-.031-.248-.031-.275 0-.471.223-.194.223-.194.556v1.216h-.344v-2.266h.284l.039.42h.016q.127-.222.304-.341.178-.12.391-.12zM37.964 19.662q-.503 0-.794-.306-.29-.306-.29-.85 0-.547.27-.87.27-.322.725-.322.426 0 .674.28.248.28.248.739v.217h-1.561q.01.399.2.605.193.207.54.207.366 0 .723-.153v.306q-.181.079-.345.112-.161.035-.39.035zM37.87 17.6q-.273 0-.437.178-.16.178-.19.492h1.185q0-.325-.145-.496-.145-.174-.413-.174zM40.93 19.62v-1.465q0-.277-.126-.413-.126-.137-.395-.137-.356 0-.521.192-.165.193-.165.635v1.189h-.343v-2.266h.279l.055.31h.017q.105-.167.296-.258.19-.093.423-.093.41 0 .616.198.207.196.207.63v1.479zM42.707 19.379q.091 0 .176-.013.085-.014.135-.029v.263q-.056.027-.166.043-.107.019-.194.019-.657 0-.657-.693v-1.347h-.325v-.166l.325-.142.144-.484h.199v.525H43v.267h-.657v1.333q0 .205.097.314.097.11.266.11zM43.747 16.598l.031.046q-.054.207-.155.482-.101.272-.21.508h-.253q.145-.589.211-1.036zM45.653 19.002q0 .317-.236.488-.235.172-.661.172-.45 0-.703-.143v-.318q.163.083.35.13.188.048.361.048.269 0 .414-.085.144-.087.144-.263 0-.132-.115-.225-.114-.095-.447-.223-.316-.118-.45-.205-.133-.089-.199-.2-.064-.112-.064-.267 0-.277.225-.436.226-.161.618-.161.366 0 .715.149l-.121.279q-.342-.141-.619-.141-.243 0-.367.076-.124.077-.124.211 0 .091.045.155.048.064.15.122.104.058.398.168.403.147.543.295.143.15.143.374zM48.363 17.318q.446 0 .692.306.248.304.248.862t-.25.868q-.248.308-.69.308-.221 0-.405-.08-.182-.083-.306-.253h-.025l-.072.292h-.246v-3.217h.343v.782q0 .262-.017.47h.017q.24-.338.71-.338zm-.05.287q-.351 0-.506.203-.155.2-.155.678 0 .477.159.684.16.205.51.205.317 0 .472-.23.155-.231.155-.663 0-.443-.155-.66-.155-.217-.48-.217zM51.86 18.486q0 .554-.279.866-.279.31-.77.31-.305 0-.54-.143-.236-.142-.364-.409t-.128-.624q0-.554.277-.862.277-.31.769-.31.475 0 .754.316.281.316.281.856zm-1.726 0q0 .434.174.661.174.228.51.228.338 0 .511-.226.176-.227.176-.663 0-.432-.176-.656-.173-.225-.515-.225-.336 0-.508.221t-.172.66zM53.192 19.379q.09 0 .175-.013.085-.014.135-.029v.263q-.056.027-.166.043-.107.019-.194.019-.657 0-.657-.693v-1.347h-.325v-.166l.325-.142.144-.484h.199v.525h.657v.267h-.657v1.333q0 .205.097.314.097.11.267.11zM54.688 19.379q.091 0 .176-.013.085-.014.134-.029v.263q-.056.027-.165.043-.108.019-.194.019-.658 0-.658-.693v-1.347h-.324v-.166l.324-.142.145-.484h.198v.525h.658v.267h-.658v1.333q0 .205.097.314.098.11.267.11zM57.408 18.486q0 .554-.279.866-.279.31-.77.31-.305 0-.54-.143-.236-.142-.364-.409t-.128-.624q0-.554.277-.862.277-.31.769-.31.475 0 .754.316.281.316.281.856zm-1.726 0q0 .434.174.661.174.228.51.228.338 0 .511-.226.176-.227.176-.663 0-.432-.176-.656-.173-.225-.515-.225-.336 0-.508.221t-.172.66zM60.896 19.62v-1.473q0-.271-.116-.405-.116-.137-.36-.137-.32 0-.473.184-.153.184-.153.566v1.266h-.343v-1.474q0-.271-.116-.405-.116-.137-.362-.137-.322 0-.473.194-.149.193-.149.633v1.189h-.343v-2.266h.279l.056.31h.016q.097-.165.273-.258.178-.093.397-.093.531 0 .694.384h.017q.101-.178.294-.281.192-.103.438-.103.384 0 .574.198.193.196.193.63v1.479zM65.93 19.62v-1.473q0-.271-.115-.405-.116-.137-.36-.137-.32 0-.473.184-.153.184-.153.566v1.266h-.343v-1.474q0-.271-.116-.405-.116-.137-.362-.137-.322 0-.473.194-.149.193-.149.633v1.189h-.343v-2.266h.28l.055.31h.017q.097-.165.272-.258.178-.093.397-.093.532 0 .695.384h.016q.102-.178.294-.281.192-.103.438-.103.385 0 .575.198.192.196.192.63v1.479zM68.372 19.62l-.068-.322h-.017q-.17.213-.339.29-.167.074-.42.074-.336 0-.528-.174-.19-.173-.19-.494 0-.686 1.097-.72l.384-.012v-.14q0-.267-.115-.393-.114-.128-.366-.128-.283 0-.641.174l-.105-.263q.167-.09.365-.143.201-.051.401-.051.406 0 .6.18.196.18.196.576v1.547zm-.775-.241q.32 0 .502-.176.184-.176.184-.492v-.205l-.343.015q-.41.014-.591.128-.18.112-.18.35 0 .185.112.283.113.097.316.097zM70.369 17.314q.15 0 .27.024l-.047.319q-.14-.031-.248-.031-.275 0-.471.223-.195.223-.195.556v1.216h-.343v-2.266h.283l.04.42h.016q.126-.222.304-.341.178-.12.39-.12zM72.918 17.355v.217l-.42.05q.058.072.103.19.046.116.046.262 0 .333-.228.532-.227.198-.624.198-.101 0-.19-.017-.22.116-.22.292 0 .093.077.138.077.044.263.044h.4q.369 0 .565.155.199.155.199.45 0 .377-.302.573-.302.199-.88.199-.445 0-.687-.166-.24-.165-.24-.467 0-.207.132-.358.133-.15.373-.204-.087-.04-.147-.122-.058-.083-.058-.192 0-.124.066-.217t.209-.18q-.176-.073-.287-.246-.11-.174-.11-.397 0-.372.223-.573.223-.202.633-.202.177 0 .32.041zm-1.807 2.646q0 .184.155.279.155.095.444.095.432 0 .64-.13.208-.128.208-.35 0-.184-.114-.256-.114-.07-.428-.07h-.411q-.234 0-.364.111-.13.112-.13.32zm.186-1.92q0 .237.134.36.135.121.374.121.503 0 .503-.488 0-.51-.509-.51-.242 0-.372.13t-.13.387zM73.73 19.62h-.343v-2.265h.343zm-.372-2.879q0-.118.058-.171.058-.056.144-.056.083 0 .143.056.06.055.06.171 0 .116-.06.174-.06.056-.143.056-.086 0-.144-.056-.058-.058-.058-.174zM76.012 19.62v-1.465q0-.277-.126-.413-.126-.137-.395-.137-.356 0-.52.192-.166.193-.166.635v1.189h-.343v-2.266h.279l.055.31h.017q.105-.167.296-.258.19-.093.423-.093.41 0 .616.198.207.196.207.63v1.479z"/></g><g style="line-height:1.25;-inkscape-font-specification:'Open Sans, Normal';font-variant-ligatures:normal;font-variant-caps:normal;font-variant-numeric:normal;font-feature-settings:normal;text-align:start" aria-label="Collapsed margin" font-weight="400" font-size="4.233" font-family="Open Sans" letter-spacing="0" word-spacing="0" stroke-width=".265"><path style="-inkscape-font-specification:'Open Sans, Normal';font-variant-ligatures:normal;font-variant-caps:normal;font-variant-numeric:normal;font-feature-settings:normal;text-align:start" d="M31.721 3.64q-.498 0-.787.333-.288.33-.288.907 0 .594.277.918.28.323.794.323.316 0 .721-.114v.308q-.314.118-.775.118-.667 0-1.031-.405-.362-.406-.362-1.152 0-.467.174-.818.175-.352.504-.542.33-.19.777-.19.476 0 .831.174l-.149.301q-.343-.16-.686-.16zM35.001 5.257q0 .553-.279.866-.279.31-.77.31-.304 0-.54-.143-.236-.143-.364-.41-.128-.266-.128-.623 0-.554.277-.862.277-.31.769-.31.475 0 .754.316.281.316.281.856zm-1.726 0q0 .434.174.661.174.227.51.227.338 0 .511-.225.176-.227.176-.663 0-.432-.176-.656-.173-.225-.514-.225-.337 0-.509.221t-.172.66zM35.944 6.391h-.343V3.175h.343zM37.019 6.391h-.343V3.175h.343zM39.144 6.391l-.068-.322h-.017q-.17.213-.339.29-.167.074-.42.074-.336 0-.529-.174-.19-.174-.19-.494 0-.686 1.098-.72l.384-.012v-.14q0-.267-.116-.393-.113-.128-.365-.128-.284 0-.641.173l-.106-.262q.168-.091.366-.143.2-.051.401-.051.405 0 .6.18.196.18.196.576v1.546zm-.775-.242q.32 0 .502-.175.184-.176.184-.492v-.205l-.343.015q-.41.014-.591.128-.18.111-.18.35 0 .185.111.282.114.097.317.097zM41.161 6.433q-.22 0-.405-.08-.182-.084-.306-.253h-.025q.025.198.025.376v.932h-.343V4.126h.28l.047.31h.016q.133-.186.308-.269.176-.082.403-.082.45 0 .695.307.246.308.246.865 0 .558-.25.868-.248.308-.69.308zm-.05-2.057q-.347 0-.502.192-.155.192-.159.612v.077q0 .477.16.684.159.204.51.204.293 0 .459-.237.167-.238.167-.656 0-.423-.167-.649-.166-.227-.467-.227zM44.165 5.773q0 .317-.236.488-.236.172-.661.172-.451 0-.703-.143v-.318q.163.082.35.13.187.047.36.047.27 0 .414-.084.145-.087.145-.263 0-.132-.116-.225-.113-.095-.446-.223-.316-.118-.45-.205-.133-.089-.2-.2-.063-.112-.063-.267 0-.277.225-.436.225-.161.618-.161.366 0 .715.148l-.122.28q-.34-.141-.618-.141-.244 0-.368.076-.124.077-.124.211 0 .091.046.155.047.064.15.122.104.058.397.168.404.146.544.295.143.149.143.374zM45.678 6.433q-.502 0-.794-.306-.29-.306-.29-.85 0-.548.27-.87.27-.322.725-.322.426 0 .674.28.248.28.248.739v.217h-1.56q.01.399.2.605.192.207.54.207.365 0 .723-.153v.306q-.182.078-.345.112-.162.035-.391.035zm-.093-2.061q-.273 0-.436.178-.162.177-.19.492h1.184q0-.325-.145-.497-.144-.173-.413-.173zM48.636 6.087h-.019q-.238.346-.71.346-.445 0-.693-.304-.246-.304-.246-.864t.248-.87q.248-.31.69-.31.461 0 .707.334h.027l-.015-.163-.008-.16v-.921h.343v3.216h-.279zm-.686.058q.35 0 .508-.19.16-.192.16-.618v-.072q0-.482-.162-.686-.16-.207-.51-.207-.302 0-.464.235-.159.234-.159.662 0 .434.16.655.159.221.467.221zM53.677 6.391V4.918q0-.271-.115-.406-.116-.136-.36-.136-.32 0-.473.184-.153.184-.153.566v1.265h-.344V4.918q0-.271-.115-.406-.116-.136-.362-.136-.322 0-.473.194-.15.192-.15.633V6.39h-.342V4.126h.279l.056.31h.016q.097-.165.273-.258.178-.093.397-.093.531 0 .694.384h.017q.101-.178.293-.281.193-.103.439-.103.384 0 .574.198.192.196.192.63v1.478zM56.119 6.391l-.069-.322h-.016q-.17.213-.34.29-.167.074-.419.074-.337 0-.529-.174-.19-.174-.19-.494 0-.686 1.097-.72l.385-.012v-.14q0-.267-.116-.393-.114-.128-.366-.128-.283 0-.64.173l-.106-.262q.168-.091.366-.143.2-.051.401-.051.405 0 .6.18.196.18.196.576v1.546zm-.776-.242q.32 0 .503-.175.184-.176.184-.492v-.205l-.343.015q-.41.014-.592.128-.18.111-.18.35 0 .185.112.282.114.097.316.097zM58.115 4.085q.151 0 .271.024l-.047.319q-.141-.031-.248-.031-.275 0-.472.223-.194.223-.194.556V6.39h-.343V4.126h.283l.04.42h.016q.126-.222.304-.342.177-.12.39-.12zM60.664 4.126v.217l-.42.05q.058.072.104.19.045.115.045.262 0 .333-.227.531-.228.199-.624.199-.102 0-.19-.017-.22.116-.22.292 0 .093.077.138.076.044.262.044h.401q.368 0 .565.155.198.155.198.45 0 .377-.302.573-.302.198-.88.198-.445 0-.687-.165-.24-.165-.24-.467 0-.207.133-.358.132-.15.372-.204-.087-.04-.147-.122-.058-.083-.058-.193 0-.124.067-.217.066-.093.208-.18-.175-.072-.287-.245-.11-.174-.11-.397 0-.372.224-.573.223-.202.632-.202.178 0 .32.04zm-1.807 2.646q0 .184.155.279.155.095.445.095.432 0 .639-.13.208-.129.208-.35 0-.184-.113-.256-.114-.07-.428-.07h-.412q-.233 0-.363.111-.13.112-.13.32zm.186-1.92q0 .237.135.36.134.121.374.121.502 0 .502-.488 0-.51-.508-.51-.242 0-.372.13t-.13.386zM61.476 6.391h-.343V4.126h.343zm-.372-2.88q0-.117.058-.17.058-.056.145-.056.083 0 .142.055.06.056.06.172 0 .116-.06.174-.06.055-.142.055-.087 0-.145-.055-.058-.058-.058-.174zM63.758 6.391V4.926q0-.277-.126-.414-.126-.136-.395-.136-.355 0-.52.192-.166.192-.166.635V6.39h-.343V4.126h.28l.055.31h.016q.106-.168.296-.258.19-.093.424-.093.41 0 .616.198.207.196.207.63v1.478z"/></g><path d="M24.72 10.583h52.917" fill="none" stroke="#705697" stroke-width=".265" stroke-dasharray=".26458333,.79374997"/><path d="M23.813-28.438l3.968 2.646" fill="#131516" stroke="#131516" stroke-width=".3" marker-end="url(#a)" transform="translate(-4.384 35.052)"/><g style="line-height:1.25;-inkscape-font-specification:'Open Sans, Normal';font-variant-ligatures:normal;font-variant-caps:normal;font-variant-numeric:normal;font-feature-settings:normal;text-align:start" aria-label="Child" font-weight="400" font-size="4.233" font-family="Open Sans" letter-spacing="0" word-spacing="0" stroke-width=".265"><path style="-inkscape-font-specification:'Open Sans, Normal';font-variant-ligatures:normal;font-variant-caps:normal;font-variant-numeric:normal;font-feature-settings:normal;text-align:start" d="M10.554 3.863q-.498 0-.787.333-.287.33-.287.908 0 .593.277.917.279.323.793.323.317 0 .722-.114v.308q-.315.118-.775.118-.668 0-1.032-.405-.362-.405-.362-1.152 0-.467.174-.818.176-.352.504-.542.331-.19.778-.19.475 0 .83.174l-.148.302q-.343-.162-.687-.162zM13.43 6.615V5.149q0-.277-.126-.413-.127-.137-.395-.137-.358 0-.523.195-.163.194-.163.636v1.185h-.344V3.398h.344v.974q0 .176-.017.291h.02q.102-.163.288-.256.188-.095.428-.095.415 0 .622.198.209.197.209.627v1.478zM14.819 6.615h-.343V4.349h.343zm-.372-2.88q0-.118.058-.171.057-.056.144-.056.083 0 .143.056.06.055.06.171 0 .116-.06.174-.06.056-.143.056-.087 0-.144-.056-.058-.058-.058-.174zM15.894 6.615h-.344V3.398h.344zM18.167 6.31h-.018q-.238.346-.711.346-.445 0-.693-.304-.246-.304-.246-.864t.248-.87q.248-.31.69-.31.462 0 .708.335h.027l-.015-.164-.008-.159v-.922h.343v3.217h-.28zm-.686.059q.352 0 .509-.19.159-.193.159-.619v-.072q0-.482-.161-.686-.16-.207-.511-.207-.302 0-.463.236-.16.233-.16.661 0 .434.16.655.16.222.467.222z"/></g><g style="line-height:1.25;-inkscape-font-specification:'Open Sans, Normal';font-variant-ligatures:normal;font-variant-caps:normal;font-variant-numeric:normal;font-feature-settings:normal;text-align:start" aria-label="Parent" font-weight="400" font-size="4.233" font-family="Open Sans" letter-spacing="0" word-spacing="0" stroke-width=".265"><path style="-inkscape-font-specification:'Open Sans, Normal';font-variant-ligatures:normal;font-variant-caps:normal;font-variant-numeric:normal;font-feature-settings:normal;text-align:start" d="M1.916 11.088q0 .459-.314.707-.312.246-.895.246H.35v1.188H0v-3.022h.783q1.133 0 1.133.88zm-1.565.65h.317q.467 0 .676-.15.208-.151.208-.484 0-.3-.196-.446-.196-.147-.612-.147H.351zM3.888 13.23l-.068-.323h-.017q-.17.213-.339.29-.167.074-.42.074-.336 0-.528-.174-.19-.174-.19-.494 0-.686 1.097-.72l.385-.012v-.14q0-.267-.116-.393-.114-.128-.366-.128-.283 0-.64.173l-.106-.262q.167-.091.366-.143.2-.052.4-.052.406 0 .6.18.196.18.196.577v1.546zm-.775-.243q.32 0 .502-.175.184-.176.184-.492v-.205l-.343.015q-.41.014-.591.128-.18.111-.18.349 0 .186.112.283.113.097.316.097zM5.885 10.922q.15 0 .27.025l-.047.318q-.14-.03-.248-.03-.275 0-.471.223-.194.223-.194.556v1.215H4.85v-2.265h.284l.039.42h.016q.126-.222.304-.342.178-.12.39-.12zM7.536 13.27q-.502 0-.793-.305-.29-.306-.29-.85 0-.548.27-.87.27-.323.725-.323.425 0 .673.281.249.28.249.738v.217H6.809q.01.4.2.606.193.207.54.207.366 0 .723-.153v.306q-.182.078-.345.111-.161.036-.39.036zm-.093-2.06q-.272 0-.436.177-.16.178-.19.492h1.185q0-.324-.145-.496-.145-.173-.414-.173zM10.503 13.23v-1.466q0-.277-.126-.414-.126-.136-.395-.136-.356 0-.521.192-.165.192-.165.635v1.188h-.344v-2.265h.28l.055.31h.017q.105-.168.295-.259.19-.093.424-.093.41 0 .616.199.207.196.207.63v1.478zM12.28 12.987q.091 0 .176-.012.085-.015.134-.029v.263q-.055.026-.165.043-.107.019-.194.019-.658 0-.658-.693V11.23h-.324v-.165l.324-.143.145-.483h.199v.525h.657v.266h-.657v1.334q0 .204.097.314.097.11.266.11z"/></g><path d="M18.521-23.146h10.583" fill="#131516" stroke="#131516" stroke-width=".3" marker-end="url(#b)" transform="translate(-4.384 35.052)"/></svg>