<svg xmlns="http://www.w3.org/2000/svg" viewBox="0 0 115.322 44.979" height="170" width="435.863"><defs><marker id="f" refX="0" refY="0" orient="auto" overflow="visible"><path d="M-10.69-4.437L1.328-.017-10.69 4.401c1.92-2.61 1.909-6.18 0-8.84z" fill="#374047" fill-rule="evenodd" stroke="#374047" stroke-width=".6875" stroke-linejoin="round"/></marker><marker orient="auto" refY="0" refX="0" id="e" overflow="visible"><path d="M10.69 4.437L-1.328.017 10.69-4.401c-1.92 2.61-1.909 6.18 0 8.84z" fill="#374047" fill-rule="evenodd" stroke="#374047" stroke-width=".6875" stroke-linejoin="round"/></marker><marker id="g" refX="0" refY="0" orient="auto" overflow="visible"><path d="M2.308 0l-3.46 2v-4z" fill="#131516" fill-rule="evenodd" stroke="#131516" stroke-width=".5332"/></marker><marker id="a" refX="0" refY="0" orient="auto" overflow="visible"><path d="M10.69 4.437L-1.328.017 10.69-4.401c-1.92 2.61-1.909 6.18 0 8.84z" fill="#374047" fill-rule="evenodd" stroke="#374047" stroke-width=".6875" stroke-linejoin="round"/></marker><marker orient="auto" refY="0" refX="0" id="b" overflow="visible"><path d="M-10.69-4.437L1.328-.017-10.69 4.401c1.92-2.61 1.909-6.18 0-8.84z" fill="#374047" fill-rule="evenodd" stroke="#374047" stroke-width=".6875" stroke-linejoin="round"/></marker><marker id="c" refX="0" refY="0" orient="auto" overflow="visible"><path d="M10.69 4.437L-1.328.017 10.69-4.401c-1.92 2.61-1.909 6.18 0 8.84z" fill="#374047" fill-rule="evenodd" stroke="#374047" stroke-width=".6875" stroke-linejoin="round"/></marker><marker orient="auto" refY="0" refX="0" id="d" overflow="visible"><path d="M-10.69-4.437L1.328-.017-10.69 4.401c1.92-2.61 1.909-6.18 0-8.84z" fill="#374047" fill-rule="evenodd" stroke="#374047" stroke-width=".6875" stroke-linejoin="round"/></marker></defs><path d="M14.772 0h85.99v14.552h-85.99z" fill="#dfdff9"/><path d="M18.575 0h78.383v5.292H18.575z" fill="#705697"/><g style="line-height:1.25" aria-label="Box 1" font-weight="400" font-size="4.013" font-family="sans-serif" letter-spacing="0" word-spacing="0" fill="#ececfb" stroke-width=".265"><path d="M21.072 3.856q0 .23-.078.406-.078.175-.21.289-.156.136-.343.194-.186.058-.474.058h-.98V1.725h.818q.303 0 .454.025.15.025.288.103.152.09.22.23.07.138.07.333 0 .219-.1.374-.101.153-.268.246v.016q.28.064.442.275.161.209.161.53zm-.618-1.387q0-.111-.034-.188-.033-.076-.107-.124-.088-.055-.212-.068-.125-.014-.309-.014h-.438v.888h.476q.172 0 .275-.018.102-.02.189-.083.087-.062.123-.159.037-.1.037-.234zm.236 1.404q0-.186-.05-.296-.05-.11-.183-.186-.089-.051-.217-.066-.126-.016-.308-.016h-.578v1.145h.487q.241 0 .395-.027.155-.029.253-.103.104-.081.152-.184.049-.104.049-.267zM23.335 3.65q0 .564-.26.89-.26.327-.697.327-.44 0-.7-.326-.258-.327-.258-.891 0-.565.258-.891.26-.329.7-.329.437 0 .697.329.26.326.26.89zm-.36 0q0-.449-.159-.666-.157-.219-.438-.219-.284 0-.442.22-.156.216-.156.665 0 .434.158.66.158.222.44.222.279 0 .437-.22.16-.224.16-.662zM25.636 4.803h-.44l-.589-.887-.593.887h-.406l.81-1.151-.803-1.158h.44l.585.873.587-.873h.41l-.816 1.137zM29.098 4.803h-1.497V4.49h.576V2.426h-.576v-.281q.117 0 .251-.02.134-.023.202-.065.086-.051.134-.13.05-.08.058-.215h.288v2.774h.564z"/></g><path d="M18.74 9.21h78.384V14.5H18.74z" fill="#705697"/><g style="line-height:1.25" aria-label="Box 2" font-weight="400" font-size="4.013" font-family="sans-serif" letter-spacing="0" word-spacing="0" fill="#f3eafb" stroke-width=".265"><path d="M21.238 13.066q0 .23-.078.405-.078.176-.21.29-.156.136-.344.194-.186.057-.474.057h-.98v-3.077h.819q.303 0 .453.024.15.025.288.104.152.089.221.23.069.138.069.332 0 .22-.1.374-.1.153-.268.246v.017q.28.064.442.275.162.208.162.529zm-.619-1.387q0-.112-.033-.188-.034-.077-.108-.124-.087-.056-.212-.069-.124-.014-.308-.014h-.439v.889h.476q.173 0 .275-.019.102-.02.19-.082.087-.062.122-.16.037-.099.037-.233zm.236 1.403q0-.186-.05-.295-.05-.11-.182-.186-.09-.052-.218-.066-.126-.017-.308-.017h-.578v1.145h.487q.242 0 .396-.027.154-.029.252-.103.104-.08.153-.184.048-.103.048-.267zM23.5 12.86q0 .563-.26.89-.26.327-.697.327-.44 0-.7-.327-.258-.327-.258-.89 0-.565.258-.892.26-.329.7-.329.437 0 .697.33.26.326.26.89zm-.36 0q0-.45-.158-.667-.158-.219-.439-.219-.284 0-.442.22-.156.217-.156.665 0 .434.158.66.158.223.44.223.28 0 .437-.221.16-.224.16-.662zM25.801 14.012h-.44l-.589-.886-.592.886h-.407l.81-1.15-.802-1.158h.44l.585.872.587-.872h.408l-.815 1.136zM29.422 14.012h-1.873v-.432l.39-.372q.197-.186.366-.37.357-.384.489-.61.132-.227.132-.49 0-.24-.143-.373-.142-.137-.396-.137-.169 0-.366.066-.197.066-.384.203h-.019v-.434q.132-.073.351-.133.221-.06.427-.06.426 0 .667.23.242.227.242.618 0 .176-.041.329-.04.15-.117.287-.073.128-.171.252-.097.124-.236.275-.199.217-.41.422l-.396.376h1.488z"/></g><path d="M87.532 0h13.23v13.23h-13.23z" fill="#5c004e" fill-opacity=".686"/><g style="line-height:1.25" aria-label="Float" font-weight="400" font-size="4.233" font-family="sans-serif" letter-spacing="0" word-spacing="0" fill="#f8f9f9" stroke-width=".265"><path d="M91.172 5.477h-1.557v.868h1.337v.364h-1.337V8.19h-.41V5.113h1.967zM91.998 8.19h-.388V4.975h.388zM94.74 7.037q0 .565-.29.891-.29.327-.775.327-.49 0-.78-.327-.287-.326-.287-.89 0-.565.287-.892.29-.328.78-.328.486 0 .775.328.29.327.29.891zm-.402 0q0-.448-.175-.665-.176-.22-.488-.22-.317 0-.492.22-.174.217-.174.665 0 .434.176.66.176.223.49.223.31 0 .486-.221.177-.223.177-.662zM97.137 8.19h-.386v-.245q-.052.035-.141.099-.087.062-.17.1-.097.047-.223.078-.126.033-.295.033-.312 0-.53-.207-.217-.207-.217-.527 0-.263.112-.424.114-.163.323-.256.21-.093.506-.126.296-.033.635-.05v-.06q0-.132-.048-.219-.046-.087-.132-.136-.083-.048-.199-.064-.116-.017-.242-.017-.153 0-.34.041-.189.04-.39.116h-.02v-.395q.114-.03.329-.068.215-.037.423-.037.244 0 .424.041.182.04.314.137.13.095.199.246.068.15.068.374zm-.386-.568V6.98q-.178.01-.42.031-.24.021-.38.06-.168.048-.271.15-.104.098-.104.274 0 .199.12.3.12.1.366.1.205 0 .374-.08.17-.08.315-.192zM99.088 8.17q-.11.029-.24.048-.128.018-.229.018-.353 0-.537-.19-.184-.19-.184-.61V6.208h-.263v-.326h.263v-.664h.388v.664h.802v.326h-.802v1.053q0 .181.008.285.008.101.058.19.046.083.124.122.08.037.244.037.095 0 .199-.027.103-.029.148-.047h.021z"/></g><g fill="#a2000d"><path d="M56.58 9.128h2.381v.132h-2.38zM56.58 5.292h2.381v.132h-2.38z"/><path d="M58.168 5.292V9.26h-.794V5.292z"/></g><path d="M15.875 31.094H7.937" transform="matrix(1.33333 0 0 1 -2.591 -31.043)" fill="#374047" stroke="#374047" stroke-width=".102"/><path d="M15.875 31.094H7.937" transform="matrix(1.3125 0 0 .98438 -2.26 -25.368)" fill="#374047" stroke="#374047" stroke-width=".104"/><path d="M6.615 31.094v5.291" transform="matrix(.99259 0 0 .92279 4.213 -28.49)" fill="#374047" stroke="#374047" stroke-width=".068" marker-start="url(#a)" marker-end="url(#b)"/><g style="line-height:1.25" aria-label="20 px" font-weight="400" font-size="3.704" font-family="Open Sans" letter-spacing="0" word-spacing="0" fill="#131516" stroke-width=".265"><path style="-inkscape-font-specification:'Open Sans'" d="M1.738 3.552H0v-.258l.696-.7q.319-.322.42-.46.101-.137.152-.267.05-.13.05-.28 0-.212-.128-.335-.128-.125-.356-.125-.165 0-.313.054-.147.055-.327.197l-.16-.204Q.4.87.83.87q.373 0 .584.192.212.19.212.512 0 .251-.141.497t-.528.622l-.579.566v.015h1.36zM3.872 2.227q0 .685-.217 1.023-.215.339-.66.339-.427 0-.65-.346-.222-.347-.222-1.016 0-.691.216-1.026.215-.334.656-.334.43 0 .653.349.224.349.224 1.01zm-1.445 0q0 .577.136.84t.432.263q.3 0 .434-.266.136-.268.136-.837 0-.57-.136-.834-.134-.266-.434-.266-.296 0-.432.262-.136.26-.136.838zM6.262 3.589q-.194 0-.355-.07-.159-.073-.268-.222h-.021q.021.174.021.33v.815h-.3V1.57h.244l.042.271h.014q.116-.162.27-.235.154-.072.353-.072.394 0 .607.27.216.269.216.755 0 .489-.22.76-.216.27-.603.27zm-.044-1.8q-.304 0-.44.168-.135.168-.139.536v.066q0 .418.14.6.139.178.446.178.257 0 .402-.208.146-.208.146-.573 0-.37-.146-.568-.145-.199-.409-.199zM8.088 2.538L7.4 1.57h.342l.523.76.52-.76h.339l-.69.968.726 1.014h-.34l-.555-.803-.56.803h-.34z"/></g><path d="M15.875 31.094H7.937" transform="matrix(.83333 0 0 .625 94.147 -6.256)" fill="#374047" stroke="#374047" stroke-width=".164"/><path d="M15.875 31.094H7.937" transform="matrix(.83333 0 0 .625 94.147 -19.382)" fill="#374047" stroke="#374047" stroke-width=".164"/><g style="line-height:1.25" aria-label="50 px" font-weight="400" font-size="3.704" font-family="Open Sans" letter-spacing="0" word-spacing="0" fill="#131516" stroke-width=".265"><path style="-inkscape-font-specification:'Open Sans'" d="M106.99 5.897q.417 0 .656.208.24.206.24.566 0 .41-.262.644-.26.233-.72.233-.446 0-.681-.143v-.289q.126.081.314.128.189.046.371.046.319 0 .494-.15.177-.15.177-.435 0-.553-.678-.553-.172 0-.46.052l-.155-.099.1-1.237h1.314v.277h-1.058l-.067.794q.208-.042.415-.042zM110.035 6.186q0 .686-.217 1.024-.215.338-.66.338-.427 0-.65-.345-.222-.347-.222-1.017 0-.69.216-1.025.215-.335.656-.335.43 0 .653.35.224.348.224 1.01zm-1.445 0q0 .577.136.841.136.263.432.263.3 0 .434-.266.136-.268.136-.838t-.136-.833q-.134-.266-.434-.266-.296 0-.432.262-.136.26-.136.837zM112.425 7.548q-.194 0-.355-.07-.159-.073-.268-.22h-.021q.021.173.021.328v.816h-.3V5.53h.244l.042.271h.014q.116-.163.27-.235.154-.072.353-.072.394 0 .607.27.216.269.216.755 0 .488-.22.76-.216.27-.603.27zm-.044-1.8q-.304 0-.44.169-.135.168-.139.535v.067q0 .418.14.599.139.179.446.179.257 0 .402-.208.147-.208.147-.573 0-.371-.147-.568-.145-.2-.409-.2zM114.251 6.497l-.689-.967h.342l.523.76.52-.76h.339l-.69.967.726 1.015h-.34l-.555-.803-.56.803h-.34z"/></g><path d="M6.615 31.094v5.291" transform="matrix(2.06812 0 0 2.41188 91.058 -74.762)" fill="#374047" stroke="#374047" stroke-width=".033" marker-start="url(#c)" marker-end="url(#d)"/><path d="M15.875 31.094H7.937" transform="matrix(1.33333 0 0 1 -2.426 -21.833)" fill="#374047" stroke="#374047" stroke-width=".102"/><path d="M15.875 31.094H7.937" transform="matrix(1.3125 0 0 .98438 -2.095 -16.158)" fill="#374047" stroke="#374047" stroke-width=".104"/><path d="M6.615 31.094v5.291" transform="matrix(.99259 0 0 .92279 4.379 -19.28)" fill="#374047" stroke="#374047" stroke-width=".068" marker-start="url(#e)" marker-end="url(#f)"/><g style="line-height:1.25" aria-label="20 px" font-weight="400" font-size="3.704" font-family="Open Sans" letter-spacing="0" word-spacing="0" fill="#131516" stroke-width=".265"><path style="-inkscape-font-specification:'Open Sans'" d="M1.904 12.762H.165v-.259l.697-.7q.318-.322.42-.46.1-.137.151-.267.05-.13.05-.28 0-.212-.128-.335-.128-.125-.356-.125-.164 0-.313.055-.146.054-.327.197l-.16-.205q.366-.303.797-.303.372 0 .584.191.211.19.211.512 0 .251-.14.497-.142.246-.529.623l-.579.566v.014h1.36zM4.038 11.436q0 .685-.217 1.024-.216.338-.66.338-.427 0-.65-.346-.222-.347-.222-1.016 0-.69.215-1.026.215-.334.657-.334.43 0 .652.349.225.349.225 1.011zm-1.445 0q0 .577.135.841.136.262.433.262.3 0 .434-.266.135-.267.135-.837t-.135-.834q-.134-.266-.434-.266-.297 0-.433.263-.135.26-.135.837zM6.427 12.798q-.194 0-.354-.07-.16-.073-.268-.221h-.022q.022.173.022.329v.816h-.3v-2.873h.244l.041.272h.015q.116-.163.27-.235.153-.073.352-.073.394 0 .608.27.215.27.215.756 0 .488-.219.76-.217.269-.604.269zm-.043-1.8q-.304 0-.44.169-.136.168-.14.535v.067q0 .418.14.598t.447.18q.257 0 .401-.208.147-.208.147-.574 0-.37-.147-.568-.144-.199-.408-.199zM8.254 11.747l-.69-.968h.343l.522.76.521-.76h.338l-.689.968.726 1.015h-.34l-.556-.803-.56.803h-.34z"/></g><path d="M26.678 27.781h35.917v2.646H26.678zM26.678 42.333h35.917v2.646H26.678z" fill="#705697"/><path d="M48.948 53.583l-10.583 13.23" fill="#131516" stroke="#131516" stroke-width=".529" marker-end="url(#g)" transform="translate(8.157 -41.677)"/><g style="line-height:1.25;-inkscape-font-specification:'Open Sans, Normal';font-variant-ligatures:normal;font-variant-caps:normal;font-variant-numeric:normal;font-feature-settings:normal;text-align:start" aria-label="Collapsed margin" font-weight="400" font-size="4.233" font-family="Open Sans" letter-spacing="0" word-spacing="0" fill="#000" stroke-width=".265"><path style="-inkscape-font-specification:'Open Sans, Normal';font-variant-ligatures:normal;font-variant-caps:normal;font-variant-numeric:normal;font-feature-settings:normal;text-align:start" d="M42.938 32.512q-.497 0-.787.333-.287.331-.287.909 0 .593.277.918.279.323.793.323.316 0 .72-.114v.308q-.313.118-.774.118-.667 0-1.03-.405-.361-.406-.361-1.153 0-.467.173-.819.176-.352.504-.542.33-.19.776-.19.475 0 .83.173l-.148.303q-.343-.162-.686-.162zM46.216 34.13q0 .555-.28.867-.278.31-.77.31-.303 0-.539-.142-.235-.143-.363-.41t-.128-.625q0-.554.277-.863.276-.31.768-.31.475 0 .754.317.28.316.28.856zm-1.725 0q0 .435.174.662.173.228.51.228.336 0 .51-.226.175-.227.175-.664 0-.432-.175-.656-.174-.225-.514-.225-.337 0-.508.221-.172.221-.172.66zM47.157 35.266h-.343v-3.22h.343zM48.231 35.266h-.343v-3.22h.343zM50.354 35.266l-.068-.323h-.017q-.17.213-.338.29-.168.074-.42.074-.336 0-.528-.173-.19-.174-.19-.495 0-.687 1.096-.72l.384-.012v-.141q0-.267-.115-.393-.114-.128-.366-.128-.283 0-.64.173l-.105-.262q.167-.091.365-.143.2-.052.4-.052.406 0 .6.18.196.18.196.577v1.548zm-.774-.242q.32 0 .501-.176.184-.176.184-.492v-.205l-.343.014q-.409.015-.59.129-.18.111-.18.35 0 .185.112.283.113.097.316.097zM52.37 35.307q-.222 0-.405-.08-.182-.083-.306-.253h-.025q.025.199.025.377v.933h-.343v-3.286h.279l.048.31h.016q.132-.185.308-.268.175-.083.402-.083.45 0 .694.308.246.309.246.865 0 .559-.25.87-.248.307-.69.307zm-.05-2.058q-.347 0-.502.192-.155.193-.159.613v.076q0 .478.16.685.158.205.51.205.292 0 .458-.238.167-.238.167-.656 0-.424-.167-.65-.166-.227-.467-.227zM55.37 34.647q0 .317-.235.489-.236.171-.661.171-.45 0-.702-.142v-.319q.163.083.349.13.188.048.361.048.268 0 .413-.085.145-.087.145-.263 0-.132-.116-.225-.114-.095-.446-.224-.316-.118-.45-.204-.132-.09-.199-.201-.064-.112-.064-.267 0-.277.226-.437.225-.161.617-.161.366 0 .715.149l-.122.28q-.341-.141-.618-.141-.243 0-.367.076-.124.077-.124.211 0 .091.045.155.048.064.15.122.104.058.397.168.403.147.544.296.142.149.142.374zM56.882 35.307q-.502 0-.793-.306-.29-.306-.29-.85 0-.548.269-.871.27-.323.725-.323.425 0 .673.281.248.28.248.739v.217h-1.56q.011.4.201.606.192.207.54.207.365 0 .722-.153v.307q-.182.078-.345.111-.161.035-.39.035zm-.093-2.062q-.273 0-.436.178-.161.177-.19.492h1.183q0-.325-.144-.497-.145-.173-.413-.173zM59.837 34.962h-.019q-.237.345-.71.345-.444 0-.692-.304-.246-.304-.246-.865 0-.56.248-.87.248-.311.69-.311.46 0 .706.335h.027l-.015-.163-.008-.16v-.922h.343v3.219h-.279zm-.686.058q.351 0 .508-.19.16-.193.16-.62v-.072q0-.482-.162-.687-.159-.206-.51-.206-.301 0-.463.235-.159.234-.159.663 0 .434.16.655.158.222.466.222zM44.479 40.563v-1.475q0-.272-.116-.406-.116-.137-.36-.137-.32 0-.472.185-.153.184-.153.567v1.266h-.343v-1.475q0-.272-.115-.406-.116-.137-.362-.137-.322 0-.473.195-.148.192-.148.633v1.19h-.343v-2.268h.279l.055.31h.017q.097-.165.273-.258.177-.093.396-.093.53 0 .694.385h.016q.102-.178.294-.282.192-.103.437-.103.385 0 .575.198.192.197.192.631v1.48zM46.918 40.563l-.069-.323h-.016q-.17.213-.339.29-.167.074-.419.074-.337 0-.529-.174-.19-.173-.19-.494 0-.687 1.097-.72l.384-.013v-.14q0-.267-.116-.393-.113-.129-.365-.129-.283 0-.64.174l-.106-.263q.168-.09.366-.142.2-.052.4-.052.405 0 .6.18.196.18.196.577v1.548zm-.775-.242q.32 0 .502-.176.184-.176.184-.493v-.204l-.343.014q-.409.015-.59.128-.18.112-.18.35 0 .186.111.283.114.098.316.098zM48.913 38.254q.15 0 .27.025l-.047.318q-.14-.03-.248-.03-.275 0-.471.223-.194.223-.194.556v1.217h-.343v-2.268h.283l.04.42h.016q.126-.221.303-.341.178-.12.39-.12zM51.459 38.295v.217l-.42.05q.058.072.104.19.045.116.045.263 0 .333-.227.532-.227.198-.624.198-.1 0-.19-.016-.218.116-.218.292 0 .093.076.138.076.044.262.044h.4q.368 0 .565.155.198.155.198.451 0 .377-.302.573-.301.199-.88.199-.443 0-.685-.166-.24-.165-.24-.467 0-.207.133-.358.132-.151.371-.205-.086-.04-.146-.122-.058-.083-.058-.193 0-.124.066-.217t.209-.18q-.176-.072-.287-.246-.11-.174-.11-.397 0-.373.223-.574.223-.202.632-.202.178 0 .32.041zm-1.805 2.648q0 .185.155.28.155.095.444.095.431 0 .638-.13.208-.129.208-.35 0-.184-.113-.257-.114-.07-.428-.07h-.41q-.234 0-.364.112-.13.111-.13.32zm.186-1.922q0 .238.134.36t.374.122q.502 0 .502-.488 0-.51-.508-.51-.242 0-.372.13t-.13.386zM52.27 40.563h-.342v-2.268h.342zM51.9 37.68q0-.118.057-.172.058-.056.145-.056.083 0 .142.056.06.056.06.172 0 .115-.06.173-.06.056-.142.056-.087 0-.145-.056-.057-.058-.057-.173zM54.55 40.563v-1.467q0-.277-.126-.414-.126-.137-.394-.137-.355 0-.52.193-.166.192-.166.635v1.19h-.343v-2.268h.28l.055.31h.016q.106-.167.296-.258.19-.093.423-.093.409 0 .615.198.207.197.207.631v1.48z"/></g><g style="line-height:1.25" aria-label="15 px" font-weight="400" font-size="3.704" font-family="Open Sans" letter-spacing="0" word-spacing="0" fill="#131516" stroke-width=".265"><path style="-inkscape-font-specification:'Open Sans'" d="M27.892 37.257h-.293v-1.884q0-.235.014-.445-.038.038-.085.08-.047.041-.43.352l-.16-.206.7-.54h.254zM29.726 35.642q.418 0 .656.208.241.206.241.566 0 .411-.262.644-.26.234-.72.234-.447 0-.682-.143v-.29q.127.082.315.129.188.045.37.045.319 0 .494-.15.178-.15.178-.434 0-.554-.679-.554-.172 0-.46.053l-.155-.1.1-1.237h1.315v.277h-1.058l-.067.794q.208-.042.414-.042zM33.041 37.294q-.193 0-.354-.071-.16-.072-.268-.22h-.022q.022.173.022.329v.815h-.3v-2.872h.244l.042.271h.014q.116-.162.27-.235.153-.072.352-.072.395 0 .608.27.215.269.215.755 0 .489-.219.76-.217.27-.604.27zm-.043-1.8q-.304 0-.44.168-.135.168-.139.536v.066q0 .418.14.6.139.178.446.178.257 0 .402-.208.146-.208.146-.573 0-.37-.146-.568-.145-.199-.41-.199zM34.868 36.243l-.69-.968h.343l.522.76.521-.76h.339l-.69.968.726 1.014h-.34l-.556-.803-.56.803h-.34z"/></g><g><g fill="#a2000d"><path d="M36.336 41.54h3.968v.793h-3.968zM36.336 30.427h3.968v.794h-3.968z"/><path d="M38.717 30.427v11.906h-.794V30.427z"/></g></g></svg>