<svg xmlns="http://www.w3.org/2000/svg" viewBox="0 0 79.375 37.835" height="143" width="300"><path d="M0 13.494h79.375v24.341H0z" fill="#dfdff9"/><path d="M5.556 24.342h68.792v13.493H5.556z" fill="#705697"/><g style="line-height:1.25;-inkscape-font-specification:'Open Sans, Normal';font-variant-ligatures:normal;font-variant-caps:normal;font-variant-numeric:normal;font-feature-settings:normal;text-align:start" aria-label="Margin B" font-weight="400" font-size="4.233" font-family="Open Sans" letter-spacing="0" word-spacing="0" fill="#131516" stroke-width=".265"><path style="-inkscape-font-specification:'Open Sans, Normal';font-variant-ligatures:normal;font-variant-caps:normal;font-variant-numeric:normal;font-feature-settings:normal;text-align:start" d="M43.292 19.83l-1.025-2.679h-.016q.029.319.029.757v1.922h-.325v-3.022h.53l.956 2.493h.017l.965-2.493h.525v3.022h-.351v-1.947q0-.335.029-.727h-.017l-1.033 2.674zM47.117 19.83l-.069-.322h-.016q-.17.213-.34.29-.167.074-.419.074-.337 0-.529-.174-.19-.174-.19-.494 0-.686 1.097-.72l.385-.012v-.14q0-.267-.116-.393-.114-.128-.366-.128-.283 0-.64.173l-.106-.262q.168-.091.366-.143.2-.051.401-.051.405 0 .6.18.196.18.196.576v1.546zm-.776-.242q.32 0 .503-.175.184-.176.184-.492v-.205l-.343.015q-.41.014-.592.128-.18.111-.18.35 0 .185.112.282.114.097.316.097zM49.113 17.523q.151 0 .271.025l-.047.319q-.141-.031-.248-.031-.275 0-.472.223-.194.223-.194.556v1.215h-.343v-2.265h.283l.04.42h.016q.126-.222.304-.342.177-.12.39-.12zM51.662 17.565v.217l-.42.05q.058.072.104.19.045.115.045.262 0 .333-.227.531-.228.199-.624.199-.102 0-.19-.017-.22.116-.22.292 0 .093.077.138.076.044.262.044h.401q.368 0 .565.155.198.155.198.45 0 .376-.302.573-.302.198-.88.198-.445 0-.687-.165-.24-.165-.24-.467 0-.207.133-.358.132-.15.372-.204-.087-.04-.147-.122-.058-.083-.058-.193 0-.124.067-.217.066-.093.208-.18-.175-.072-.287-.246-.11-.173-.11-.396 0-.372.224-.573.223-.203.632-.203.178 0 .32.042zm-1.807 2.646q0 .184.155.279.155.095.445.095.432 0 .639-.13.208-.129.208-.35 0-.184-.113-.256-.114-.07-.428-.07h-.412q-.233 0-.363.111-.13.112-.13.32zm.186-1.92q0 .237.135.359.134.122.374.122.502 0 .502-.488 0-.51-.508-.51-.242 0-.372.13t-.13.386zM52.474 19.83h-.343v-2.265h.343zm-.372-2.88q0-.117.058-.17.058-.056.145-.056.083 0 .142.055.06.056.06.172 0 .116-.06.174-.06.055-.142.055-.087 0-.145-.055-.058-.058-.058-.174zM54.756 19.83v-1.465q0-.277-.126-.414-.126-.136-.395-.136-.355 0-.52.192-.166.192-.166.635v1.188h-.343v-2.265h.28l.055.31h.016q.106-.168.296-.259.19-.093.424-.093.41 0 .616.199.207.196.207.63v1.478zM56.954 16.808h.853q.602 0 .87.18.27.18.27.569 0 .268-.152.444-.148.174-.436.225v.021q.689.118.689.723 0 .406-.275.633-.273.227-.765.227h-1.054zm.351 1.294h.579q.372 0 .535-.115.164-.118.164-.395 0-.255-.182-.366-.182-.114-.58-.114h-.516zm0 .298v1.13h.63q.366 0 .55-.14.186-.143.186-.444 0-.282-.19-.414-.188-.132-.574-.132z"/></g><path d="M11.113 32.544H69.32v5.291H11.113z" fill="#3d3d55"/><g style="line-height:1.25;-inkscape-font-specification:'Open Sans, Normal';font-variant-ligatures:normal;font-variant-caps:normal;font-variant-numeric:normal;font-feature-settings:normal;text-align:start" aria-label="Margin C" font-weight="400" font-size="4.233" font-family="Open Sans" letter-spacing="0" word-spacing="0" fill="#f3eafb" stroke-width=".265"><path style="-inkscape-font-specification:'Open Sans, Normal';font-variant-ligatures:normal;font-variant-caps:normal;font-variant-numeric:normal;font-feature-settings:normal;text-align:start" d="M43.292 29.355l-1.025-2.679h-.016q.029.319.029.757v1.922h-.325v-3.022h.53l.956 2.493h.017l.965-2.493h.525v3.022h-.351v-1.947q0-.335.029-.727h-.017l-1.033 2.674zM47.117 29.355l-.069-.322h-.016q-.17.213-.34.29-.167.074-.419.074-.337 0-.529-.174-.19-.174-.19-.494 0-.686 1.097-.72l.385-.012v-.14q0-.267-.116-.393-.114-.128-.366-.128-.283 0-.64.173l-.106-.262q.168-.091.366-.143.2-.051.401-.051.405 0 .6.18.196.18.196.576v1.546zm-.776-.242q.32 0 .503-.175.184-.176.184-.492v-.205l-.343.015q-.41.014-.592.128-.18.111-.18.35 0 .185.112.282.114.097.316.097zM49.113 27.048q.151 0 .271.025l-.047.319q-.141-.031-.248-.031-.275 0-.472.223-.194.223-.194.556v1.215h-.343V27.09h.283l.04.42h.016q.126-.222.304-.342.177-.12.39-.12zM51.662 27.09v.217l-.42.05q.058.072.104.19.045.115.045.262 0 .333-.227.531-.228.199-.624.199-.102 0-.19-.017-.22.116-.22.292 0 .093.077.138.076.044.262.044h.401q.368 0 .565.155.198.155.198.45 0 .377-.302.573-.302.198-.88.198-.445 0-.687-.165-.24-.165-.24-.467 0-.207.133-.358.132-.15.372-.204-.087-.04-.147-.122-.058-.083-.058-.193 0-.124.067-.217.066-.093.208-.18-.175-.072-.287-.245-.11-.174-.11-.397 0-.372.224-.573.223-.203.632-.203.178 0 .32.042zm-1.807 2.646q0 .184.155.279.155.095.445.095.432 0 .639-.13.208-.129.208-.35 0-.184-.113-.256-.114-.07-.428-.07h-.412q-.233 0-.363.111-.13.112-.13.32zm.186-1.92q0 .237.135.359.134.122.374.122.502 0 .502-.488 0-.51-.508-.51-.242 0-.372.13t-.13.386zM52.474 29.355h-.343V27.09h.343zm-.372-2.88q0-.117.058-.17.058-.056.145-.056.083 0 .142.055.06.056.06.172 0 .116-.06.174-.06.055-.142.055-.087 0-.145-.055-.058-.058-.058-.174zM54.756 29.355V27.89q0-.277-.126-.414-.126-.136-.395-.136-.355 0-.52.192-.166.192-.166.635v1.188h-.343V27.09h.28l.055.31h.016q.106-.168.296-.259.19-.093.424-.093.41 0 .616.199.207.196.207.63v1.478zM58.248 26.604q-.499 0-.788.333-.287.33-.287.907 0 .594.277.918.279.323.794.323.316 0 .72-.114v.308q-.313.118-.774.118-.668 0-1.032-.405-.361-.406-.361-1.152 0-.467.173-.818.176-.352.505-.542.33-.19.777-.19.475 0 .83.174l-.148.301q-.343-.16-.686-.16z"/></g><g style="line-height:1.25;-inkscape-font-specification:'Open Sans, Normal';font-variant-ligatures:normal;font-variant-caps:normal;font-variant-numeric:normal;font-feature-settings:normal;text-align:start" aria-label="Margin A" font-weight="400" font-size="4.233" font-family="Open Sans" letter-spacing="0" word-spacing="0" fill="#131516" stroke-width=".265"><path style="-inkscape-font-specification:'Open Sans, Normal';font-variant-ligatures:normal;font-variant-caps:normal;font-variant-numeric:normal;font-feature-settings:normal;text-align:start" d="M43.292 7.66l-1.025-2.68h-.016q.029.319.029.757V7.66h-.325V4.637h.53l.956 2.493h.017l.965-2.493h.525V7.66h-.351V5.712q0-.335.029-.727h-.017l-1.033 2.674zM47.117 7.66l-.069-.323h-.016q-.17.213-.34.29-.167.074-.419.074-.337 0-.529-.174-.19-.173-.19-.494 0-.686 1.097-.72l.385-.012v-.14q0-.267-.116-.393-.114-.128-.366-.128-.283 0-.64.174l-.106-.263q.168-.09.366-.143.2-.051.401-.051.405 0 .6.18.196.18.196.576V7.66zm-.776-.242q.32 0 .503-.176.184-.176.184-.492v-.205l-.343.015q-.41.014-.592.128-.18.112-.18.35 0 .185.112.282.114.098.316.098zM49.113 5.353q.151 0 .271.024l-.047.319q-.141-.031-.248-.031-.275 0-.472.223-.194.223-.194.556V7.66h-.343V5.394h.283l.04.42h.016q.126-.222.304-.341.177-.12.39-.12zM51.662 5.394v.217l-.42.05q.058.072.104.19.045.116.045.262 0 .333-.227.532-.228.198-.624.198-.102 0-.19-.017-.22.116-.22.292 0 .093.077.138.076.044.262.044h.401q.368 0 .565.155.198.155.198.45 0 .377-.302.573-.302.198-.88.198-.445 0-.687-.165-.24-.165-.24-.467 0-.207.133-.358.132-.15.372-.204-.087-.04-.147-.122-.058-.083-.058-.192 0-.125.067-.218.066-.093.208-.18-.175-.072-.287-.245-.11-.174-.11-.397 0-.372.224-.573.223-.202.632-.202.178 0 .32.041zM49.855 8.04q0 .184.155.279.155.095.445.095.432 0 .639-.13.208-.128.208-.35 0-.184-.113-.256-.114-.07-.428-.07h-.412q-.233 0-.363.111-.13.112-.13.32zm.186-1.92q0 .237.135.36.134.121.374.121.502 0 .502-.488 0-.51-.508-.51-.242 0-.372.13t-.13.387zM52.474 7.66h-.343V5.393h.343zm-.372-2.88q0-.118.058-.171.058-.056.145-.056.083 0 .142.056.06.055.06.171 0 .116-.06.174-.06.056-.142.056-.087 0-.145-.056-.058-.058-.058-.174zM54.756 7.66V6.193q0-.277-.126-.413-.126-.137-.395-.137-.355 0-.52.192-.166.193-.166.635v1.188h-.343V5.394h.28l.055.31h.016q.106-.167.296-.258.19-.093.424-.093.41 0 .616.198.207.196.207.63V7.66zM58.853 7.66l-.376-.962h-1.211l-.372.961h-.356l1.195-3.034h.296l1.188 3.034zm-.485-1.278l-.352-.936q-.068-.178-.14-.436-.046.198-.13.436l-.356.936z"/></g><path d="M0 13.23h79.375v.264H0z" fill="#686892"/><path d="M5.556 24.077h68.792v.265H5.556z" fill="#463b52"/><path d="M11.113 32.28H69.32v.264H11.113z" fill="#bfbff3"/><g fill="#a2000d"><path d="M39.026 12.832h2.381v.397h-2.38zM39.026 0h2.381v.397h-2.38z"/><path d="M40.415 0v13.23h-.397V0z"/></g><g fill="#a2000d"><path d="M39.026 23.68h2.381v.397h-2.38zM39.026 13.494h2.381v.397h-2.38z"/><path d="M40.415 13.494v10.583h-.397V13.494z"/></g><g fill="#a2000d"><path d="M39.026 31.882h2.381v.397h-2.38zM39.026 24.342h2.381v.397h-2.38z"/><path d="M40.415 24.342v7.937h-.397v-7.937z"/></g></svg>