<svg xmlns="http://www.w3.org/2000/svg" viewBox="0 0 79.716 47.36" height="179" width="301.289"><path d="M0 10.583h70.38v26.194H0z" fill="#dfdff9"/><path d="M0 21.167h70.38v5.027H0z" fill="#705697"/><g style="line-height:1.25" aria-label="Paragraph" font-weight="400" font-size="4.233" font-family="Open Sans" letter-spacing="0" word-spacing="0" stroke-width=".265" fill="#f8f9f9"><path style="-inkscape-font-specification:'Open Sans'" d="M2.535 22.856q0 .443-.316.682-.313.237-.899.237H.963v1.147H.61v-2.915h.787q1.138 0 1.138.85zm-1.572.628h.318q.47 0 .679-.145.21-.146.21-.467 0-.29-.198-.43-.197-.142-.614-.142H.963zM4.516 24.922l-.069-.31H4.43q-.17.204-.34.278-.168.072-.421.072-.339 0-.532-.167-.191-.168-.191-.477 0-.662 1.102-.694l.387-.012v-.136q0-.257-.117-.379-.114-.123-.367-.123-.285 0-.644.167l-.106-.253q.169-.088.368-.138.201-.05.403-.05.407 0 .602.174.197.174.197.556v1.492zm-.779-.233q.322 0 .505-.17.184-.17.184-.474v-.198l-.344.014q-.411.014-.594.124-.18.108-.18.337 0 .18.111.273.115.094.318.094zM6.521 22.697q.152 0 .272.024l-.048.307q-.14-.03-.249-.03-.276 0-.473.215-.195.215-.195.537v1.172h-.345v-2.186h.284l.04.405h.017q.126-.213.305-.329.178-.115.392-.115zM8.618 24.922l-.069-.31h-.016q-.17.204-.34.278-.169.072-.422.072-.338 0-.532-.167-.19-.168-.19-.477 0-.662 1.102-.694l.386-.012v-.136q0-.257-.116-.379-.114-.123-.368-.123-.284 0-.643.167l-.106-.253q.168-.088.367-.138.202-.05.403-.05.407 0 .602.174.197.174.197.556v1.492zm-.779-.233q.322 0 .505-.17.185-.17.185-.474v-.198l-.345.014q-.411.014-.594.124-.18.108-.18.337 0 .18.112.273.114.094.317.094zM11.448 22.737v.209l-.422.048q.058.07.104.183.046.112.046.253 0 .322-.229.513-.228.191-.627.191-.101 0-.19-.016-.22.112-.22.282 0 .09.076.133.077.042.264.042h.403q.37 0 .566.15.2.15.2.434 0 .363-.303.553-.304.191-.885.191-.446 0-.69-.16-.24-.159-.24-.45 0-.2.133-.345.133-.145.374-.197-.088-.038-.148-.118-.058-.08-.058-.185 0-.12.066-.21.067-.09.21-.173-.176-.07-.288-.238-.11-.167-.11-.383 0-.359.224-.552.224-.195.635-.195.179 0 .322.04zm-1.815 2.552q0 .178.156.27.156.091.446.091.434 0 .642-.126.21-.123.21-.337 0-.177-.115-.247-.114-.068-.43-.068h-.413q-.234 0-.365.108-.13.108-.13.31zm.187-1.853q0 .23.135.347.135.118.376.118.504 0 .504-.47 0-.493-.51-.493-.243 0-.374.126-.131.125-.131.372zM12.957 22.697q.152 0 .272.024l-.048.307q-.14-.03-.249-.03-.276 0-.473.215-.195.215-.195.537v1.172h-.345v-2.186h.284l.04.405h.016q.127-.213.306-.329.178-.115.392-.115zM15.054 24.922l-.069-.31h-.016q-.17.204-.34.278-.169.072-.422.072-.339 0-.532-.167-.19-.168-.19-.477 0-.662 1.102-.694l.386-.012v-.136q0-.257-.116-.379-.114-.123-.368-.123-.284 0-.643.167l-.106-.253q.168-.088.367-.138.202-.05.403-.05.407 0 .602.174.197.174.197.556v1.492zm-.779-.233q.322 0 .505-.17.185-.17.185-.474v-.198l-.345.014q-.411.014-.594.124-.18.108-.18.337 0 .18.112.273.114.094.317.094zM17.08 24.962q-.222 0-.407-.078-.182-.08-.307-.243h-.025q.025.191.025.363v.9h-.345v-3.168h.28l.048.3h.017q.133-.18.31-.26.176-.08.404-.08.453 0 .698.298.247.297.247.833 0 .539-.251.838-.25.297-.694.297zm-.05-1.984q-.348 0-.504.185-.156.186-.16.59v.074q0 .461.16.66.16.198.513.198.295 0 .46-.23.169-.229.169-.632 0-.408-.168-.626-.166-.22-.47-.22zM20.186 24.922v-1.414q0-.267-.127-.399-.126-.131-.396-.131-.36 0-.525.187-.164.188-.164.614v1.143h-.345V21.82h.345v.94q0 .169-.017.28h.02q.103-.157.29-.247.188-.091.43-.091.416 0 .624.191.21.19.21.604v1.426z"/></g><g style="line-height:1.25" aria-label="Top margin of &lt;p&gt;" font-weight="400" font-size="4.233" font-family="Open Sans" letter-spacing="0" word-spacing="0" fill="#131516" stroke-width=".265"><path style="-inkscape-font-specification:'Open Sans'" d="M26.216 16.986h-.35v-2.71h-.958v-.312h2.266v.312h-.958zM29.53 15.851q0 .554-.28.866-.278.31-.77.31-.304 0-.54-.142-.235-.143-.363-.41-.129-.266-.129-.624 0-.554.277-.862.277-.31.77-.31.475 0 .754.316.281.317.281.856zm-1.726 0q0 .434.174.662.173.227.51.227t.51-.225q.176-.228.176-.664 0-.432-.175-.655-.174-.225-.515-.225-.337 0-.508.22-.172.222-.172.66zM31.184 17.027q-.222 0-.406-.08-.181-.083-.305-.252h-.025q.025.198.025.376v.932h-.344v-3.282h.28l.047.31h.017q.132-.186.308-.27.175-.082.403-.082.45 0 .694.308.246.308.246.864 0 .558-.25.868-.248.308-.69.308zm-.05-2.056q-.347 0-.502.192-.155.192-.16.612v.076q0 .478.16.684.159.205.51.205.294 0 .46-.238.167-.237.167-.655 0-.424-.168-.649-.165-.227-.467-.227zM36.713 16.986v-1.474q0-.27-.116-.405-.116-.136-.36-.136-.32 0-.473.184-.153.184-.153.566v1.265h-.343v-1.474q0-.27-.116-.405-.115-.136-.361-.136-.323 0-.474.194-.149.192-.149.632v1.189h-.343v-2.265h.28l.055.31h.017q.097-.166.273-.259.177-.093.396-.093.532 0 .695.385h.017q.1-.178.293-.281.192-.104.438-.104.385 0 .575.199.192.196.192.63v1.478zM39.154 16.986l-.068-.322h-.017q-.17.212-.339.289-.167.074-.42.074-.336 0-.528-.173-.19-.174-.19-.494 0-.687 1.097-.72l.385-.012v-.14q0-.267-.116-.393-.114-.128-.366-.128-.283 0-.64.173l-.106-.262q.167-.091.366-.143.2-.052.4-.052.406 0 .6.18.196.18.196.577v1.546zm-.775-.242q.32 0 .502-.175.184-.176.184-.492v-.205l-.343.014q-.41.015-.591.129-.18.111-.18.349 0 .186.112.283.113.097.316.097zM41.151 14.68q.15 0 .27.024l-.047.318q-.14-.03-.248-.03-.275 0-.471.223-.194.223-.194.556v1.215h-.344v-2.265h.284l.039.42h.016q.127-.222.304-.342.178-.12.391-.12zM43.7 14.72v.218l-.42.05q.058.072.103.19.046.115.046.262 0 .333-.228.531-.227.199-.624.199-.101 0-.19-.017-.219.116-.219.291 0 .093.076.139.077.043.263.043h.401q.368 0 .564.155.199.155.199.451 0 .376-.302.573-.302.198-.88.198-.445 0-.687-.165-.24-.166-.24-.467 0-.207.133-.358.132-.151.372-.205-.087-.039-.147-.122-.058-.082-.058-.192 0-.124.066-.217t.209-.18q-.176-.072-.287-.246-.11-.173-.11-.397 0-.372.223-.572.224-.203.633-.203.178 0 .32.042zm-1.807 2.646q0 .184.155.28.155.095.444.095.433 0 .64-.13.208-.129.208-.35 0-.184-.114-.256-.113-.07-.428-.07h-.41q-.235 0-.365.111-.13.112-.13.32zm.186-1.92q0 .238.134.36.135.122.375.122.502 0 .502-.488 0-.51-.509-.51-.241 0-.372.13-.13.13-.13.386zM44.512 16.986h-.343v-2.265h.343zm-.372-2.88q0-.117.058-.17.058-.057.145-.057.082 0 .142.056.06.056.06.172 0 .115-.06.173-.06.056-.142.056-.087 0-.145-.056-.058-.058-.058-.173zM46.794 16.986v-1.465q0-.277-.126-.414-.126-.136-.395-.136-.355 0-.52.192-.166.192-.166.634v1.189h-.343v-2.265h.279l.056.31h.016q.106-.168.296-.259.19-.093.423-.093.41 0 .616.199.207.196.207.63v1.478zM50.895 15.851q0 .554-.279.866-.279.31-.771.31-.304 0-.54-.142-.235-.143-.363-.41-.128-.266-.128-.624 0-.554.277-.862.277-.31.768-.31.476 0 .755.316.281.317.281.856zm-1.726 0q0 .434.174.662.173.227.51.227t.51-.225q.177-.228.177-.664 0-.432-.176-.655-.174-.225-.515-.225-.337 0-.508.22-.172.222-.172.66zM52.516 14.987h-.577v1.999h-.343v-1.999h-.405v-.155l.405-.124v-.126q0-.835.73-.835.18 0 .421.072l-.089.275q-.198-.064-.339-.064-.194 0-.287.13-.093.129-.093.414v.147h.577zM55.87 16.486l-1.986-.872v-.203l1.986-.99v.308l-1.616.767 1.616.678zM57.51 17.027q-.222 0-.405-.08-.182-.083-.306-.252h-.025q.025.198.025.376v.932h-.344v-3.282h.28l.047.31h.017q.132-.186.308-.27.175-.082.403-.082.45 0 .694.308.246.308.246.864 0 .558-.25.868-.248.308-.69.308zm-.05-2.056q-.347 0-.502.192-.155.192-.16.612v.076q0 .478.16.684.159.205.51.205.294 0 .46-.238.167-.237.167-.655 0-.424-.168-.649-.165-.227-.467-.227zM58.903 16.174l1.618-.674-1.618-.771v-.308l1.986.99v.203l-1.986.872z"/></g><g style="line-height:1.25" aria-label="Bottom margin of &lt;p&gt;" font-weight="400" font-size="4.233" font-family="Open Sans" letter-spacing="0" word-spacing="0" stroke-width=".265"><path style="-inkscape-font-specification:'Open Sans'" d="M25.286 29.574h.854q.602 0 .87.18.269.18.269.569 0 .268-.151.444-.149.174-.436.225v.021q.688.118.688.724 0 .405-.275.632-.273.227-.765.227h-1.054zm.352 1.294h.578q.373 0 .536-.115.163-.118.163-.395 0-.254-.182-.366-.182-.114-.579-.114h-.516zm0 .298v1.13h.63q.366 0 .55-.14.186-.142.186-.444 0-.281-.19-.414-.188-.132-.575-.132zM29.935 31.462q0 .554-.279.866-.279.31-.771.31-.304 0-.54-.143-.235-.142-.363-.41-.128-.266-.128-.623 0-.554.277-.862.277-.31.769-.31.475 0 .754.316.281.316.281.856zm-1.726 0q0 .434.174.661.173.227.51.227t.51-.225q.177-.227.177-.663 0-.432-.176-.656-.174-.225-.515-.225-.337 0-.508.221-.172.221-.172.66zM31.266 32.355q.091 0 .176-.013.085-.014.134-.029v.263q-.055.027-.165.043-.107.019-.194.019-.658 0-.658-.693v-1.347h-.324v-.166l.324-.142.145-.484h.198v.525h.658v.267h-.658v1.333q0 .205.098.314.097.11.266.11zM32.763 32.355q.09 0 .176-.013.084-.014.134-.029v.263q-.056.027-.165.043-.108.019-.195.019-.657 0-.657-.693v-1.347h-.325v-.166l.325-.142.145-.484h.198v.525h.657v.267H32.4v1.333q0 .205.097.314.097.11.267.11zM35.483 31.462q0 .554-.279.866-.279.31-.771.31-.304 0-.54-.143-.235-.142-.363-.41-.128-.266-.128-.623 0-.554.277-.862.277-.31.768-.31.476 0 .755.316.281.316.281.856zm-1.726 0q0 .434.174.661.173.227.51.227t.51-.225q.177-.227.177-.663 0-.432-.176-.656-.174-.225-.515-.225-.337 0-.508.221-.172.221-.172.66zM38.97 32.596v-1.473q0-.271-.116-.405-.115-.137-.36-.137-.32 0-.473.184-.153.184-.153.566v1.265h-.343v-1.473q0-.271-.115-.405-.116-.137-.362-.137-.323 0-.474.194-.148.193-.148.633v1.188h-.343v-2.265h.279l.055.31h.017q.097-.165.273-.258.178-.093.397-.093.53 0 .694.384h.017q.101-.178.293-.281.192-.103.438-.103.385 0 .575.198.192.196.192.63v1.478zM44.006 32.596v-1.473q0-.271-.116-.405-.116-.137-.36-.137-.32 0-.473.184-.153.184-.153.566v1.265h-.343v-1.473q0-.271-.116-.405-.116-.137-.362-.137-.322 0-.473.194-.149.193-.149.633v1.188h-.343v-2.265h.279l.056.31h.016q.097-.165.273-.258.178-.093.397-.093.531 0 .695.384h.016q.101-.178.294-.281.192-.103.438-.103.384 0 .574.198.193.196.193.63v1.478zM46.447 32.596l-.068-.322h-.017q-.17.213-.339.29-.167.074-.42.074-.337 0-.529-.174-.19-.173-.19-.494 0-.686 1.098-.72l.384-.012v-.14q0-.267-.116-.393-.113-.128-.365-.128-.284 0-.641.174l-.106-.263q.168-.09.366-.143.2-.051.401-.051.405 0 .6.18.196.18.196.576v1.546zm-.775-.241q.32 0 .502-.176.184-.176.184-.492v-.205l-.343.015q-.41.014-.591.128-.18.112-.18.35 0 .185.111.282.114.098.317.098zM48.444 30.29q.15 0 .27.024l-.047.319q-.14-.031-.248-.031-.275 0-.472.223-.194.223-.194.556v1.215h-.343v-2.265h.283l.04.42h.016q.126-.222.304-.341.178-.12.39-.12zM50.992 30.331v.217l-.42.05q.058.072.104.19.045.116.045.262 0 .333-.227.532-.227.198-.624.198-.101 0-.19-.017-.22.116-.22.292 0 .093.077.138.076.044.263.044h.4q.368 0 .565.155.198.155.198.45 0 .377-.302.573-.301.198-.88.198-.444 0-.686-.165-.24-.165-.24-.467 0-.207.132-.358.132-.15.372-.204-.087-.04-.147-.122-.057-.083-.057-.192 0-.125.066-.218t.209-.18q-.176-.072-.288-.245-.11-.174-.11-.397 0-.372.224-.573.223-.202.632-.202.178 0 .32.041zm-1.806 2.646q0 .184.155.279.155.095.444.095.432 0 .639-.13.209-.128.209-.35 0-.184-.114-.256-.114-.07-.428-.07h-.411q-.234 0-.364.111-.13.112-.13.32zm.186-1.92q0 .237.134.36.134.121.374.121.502 0 .502-.488 0-.51-.508-.51-.242 0-.372.13t-.13.387zM51.805 32.596h-.344v-2.265h.344zm-.372-2.879q0-.118.057-.172.058-.055.145-.055.083 0 .143.055.06.056.06.172 0 .116-.06.174-.06.055-.143.055-.087 0-.145-.055-.057-.058-.057-.174zM54.087 32.596v-1.465q0-.277-.126-.413-.127-.137-.395-.137-.356 0-.521.192-.166.193-.166.635v1.188h-.343v-2.265h.28l.055.31h.017q.105-.167.295-.258.19-.093.424-.093.41 0 .616.198.207.196.207.63v1.478zM58.188 31.462q0 .554-.28.866-.278.31-.77.31-.304 0-.54-.143-.236-.142-.364-.41-.128-.266-.128-.623 0-.554.277-.862.277-.31.77-.31.474 0 .754.316t.28.856zm-1.726 0q0 .434.173.661.174.227.51.227.338 0 .511-.225.176-.227.176-.663 0-.432-.176-.656-.173-.225-.514-.225-.337 0-.509.221-.171.221-.171.66zM59.808 30.598h-.576v1.998h-.344v-1.998h-.405v-.155l.405-.124v-.127q0-.835.73-.835.18 0 .422.073l-.09.275q-.198-.064-.338-.064-.194 0-.287.13-.093.128-.093.413v.147h.576zM63.163 32.096l-1.986-.872v-.203l1.986-.99v.308l-1.616.767 1.616.678zM64.802 32.638q-.22 0-.405-.08-.182-.083-.306-.253h-.025q.025.198.025.376v.932h-.343v-3.282h.28l.047.31h.016q.132-.186.308-.269.176-.082.403-.082.45 0 .695.308.246.308.246.864 0 .558-.25.868-.248.308-.69.308zm-.05-2.057q-.347 0-.502.192-.155.193-.159.612v.077q0 .477.16.684.158.204.51.204.293 0 .459-.237.167-.238.167-.655 0-.424-.167-.65-.166-.227-.467-.227zM66.195 31.784l1.619-.674-1.619-.77v-.309l1.987.99v.203l-1.987.872z"/></g><g style="line-height:1.25" aria-label="Top margin of &lt;section&gt;" font-weight="400" font-size="4.233" font-family="Open Sans" letter-spacing="0" word-spacing="0" fill="#131516" stroke-width=".265"><path style="-inkscape-font-specification:'Open Sans'" d="M26.216 6.403h-.35v-2.71h-.958V3.38h2.266v.312h-.958zM29.53 5.268q0 .554-.28.866-.278.31-.77.31-.304 0-.54-.143-.235-.142-.363-.409-.129-.267-.129-.624 0-.554.277-.862.277-.31.77-.31.475 0 .754.316.281.316.281.856zm-1.726 0q0 .434.174.661.173.228.51.228t.51-.226q.176-.227.176-.663 0-.432-.175-.655-.174-.226-.515-.226-.337 0-.508.222-.172.22-.172.659zM31.184 6.444q-.222 0-.406-.08-.181-.083-.305-.253h-.025q.025.199.025.376v.933h-.344V4.137h.28l.047.31h.017q.132-.186.308-.268.175-.083.403-.083.45 0 .694.308.246.308.246.864 0 .558-.25.868-.248.308-.69.308zm-.05-2.057q-.347 0-.502.193-.155.192-.16.611v.077q0 .477.16.684.159.205.51.205.294 0 .46-.238.167-.238.167-.655 0-.424-.168-.65-.165-.227-.467-.227zM36.713 6.403V4.929q0-.27-.116-.405-.116-.137-.36-.137-.32 0-.473.184-.153.184-.153.567v1.265h-.343V4.929q0-.27-.116-.405-.115-.137-.361-.137-.323 0-.474.195-.149.192-.149.632v1.189h-.343V4.137h.28l.055.31h.017q.097-.165.273-.258.177-.093.396-.093.532 0 .695.384h.017q.1-.177.293-.28.192-.104.438-.104.385 0 .575.198.192.197.192.63v1.479zM39.154 6.403l-.068-.323h-.017q-.17.213-.339.29-.167.074-.42.074-.336 0-.528-.174-.19-.173-.19-.494 0-.686 1.097-.719l.385-.012v-.14q0-.268-.116-.394-.114-.128-.366-.128-.283 0-.64.174l-.106-.263q.167-.09.366-.142.2-.052.4-.052.406 0 .6.18.196.18.196.577v1.546zm-.775-.242q.32 0 .502-.176.184-.176.184-.492V5.29l-.343.014q-.41.015-.591.128-.18.112-.18.35 0 .186.112.283.113.097.316.097zM41.151 4.096q.15 0 .27.025l-.047.318q-.14-.031-.248-.031-.275 0-.471.223-.194.223-.194.556v1.216h-.344V4.137h.284l.039.42h.016q.127-.221.304-.341.178-.12.391-.12zM43.7 4.137v.217l-.42.05q.058.072.103.19.046.116.046.263 0 .332-.228.53-.227.2-.624.2-.101 0-.19-.017-.219.115-.219.291 0 .093.076.139.077.043.263.043h.401q.368 0 .564.155.199.155.199.45 0 .377-.302.573-.302.199-.88.199-.445 0-.687-.166-.24-.165-.24-.467 0-.207.133-.357.132-.151.372-.205-.087-.04-.147-.122-.058-.083-.058-.192 0-.124.066-.217t.209-.18q-.176-.072-.287-.246-.11-.174-.11-.397 0-.372.223-.573.224-.202.633-.202.178 0 .32.041zm-1.807 2.646q0 .184.155.28.155.094.444.094.433 0 .64-.13.208-.128.208-.35 0-.183-.114-.256-.113-.07-.428-.07h-.41q-.235 0-.365.112-.13.111-.13.32zm.186-1.92q0 .237.134.36.135.121.375.121.502 0 .502-.487 0-.511-.509-.511-.241 0-.372.13-.13.13-.13.387zM44.512 6.403h-.343V4.137h.343zm-.372-2.88q0-.118.058-.171.058-.056.145-.056.082 0 .142.056.06.056.06.171 0 .116-.06.174-.06.056-.142.056-.087 0-.145-.056-.058-.058-.058-.174zM46.794 6.403V4.937q0-.277-.126-.413-.126-.137-.395-.137-.355 0-.52.193-.166.192-.166.634v1.189h-.343V4.137h.279l.056.31h.016q.106-.167.296-.258.19-.093.423-.093.41 0 .616.198.207.197.207.63v1.479zM50.895 5.268q0 .554-.279.866-.279.31-.771.31-.304 0-.54-.143-.235-.142-.363-.409t-.128-.624q0-.554.277-.862.277-.31.768-.31.476 0 .755.316.281.316.281.856zm-1.726 0q0 .434.174.661.173.228.51.228t.51-.226q.177-.227.177-.663 0-.432-.176-.655-.174-.226-.515-.226-.337 0-.508.222-.172.22-.172.659zM52.516 4.404h-.577v1.999h-.343v-2h-.405V4.25l.405-.124v-.126q0-.835.73-.835.18 0 .421.072l-.089.275q-.198-.064-.339-.064-.194 0-.287.13-.093.128-.093.413v.147h.577zM55.87 5.902l-1.986-.872v-.202l1.986-.99v.307l-1.616.767 1.616.678zM57.917 5.785q0 .316-.236.487-.235.172-.661.172-.45 0-.703-.143v-.318q.163.083.35.13.187.048.361.048.269 0 .413-.085.145-.087.145-.262 0-.133-.116-.226-.113-.095-.446-.223-.316-.118-.45-.205-.133-.088-.2-.2-.063-.112-.063-.267 0-.277.225-.436.225-.161.618-.161.366 0 .715.149l-.122.279q-.34-.14-.618-.14-.244 0-.368.076t-.124.21q0 .091.046.156.047.064.15.121.104.058.398.168.403.147.543.296.143.148.143.374zM59.43 6.444q-.502 0-.794-.306-.29-.306-.29-.85 0-.547.27-.87.27-.322.725-.322.426 0 .674.281.248.279.248.738v.217h-1.56q.01.399.2.606.192.206.54.206.365 0 .723-.153v.306q-.182.079-.345.112-.162.035-.391.035zm-.093-2.06q-.273 0-.436.177-.161.178-.19.492h1.184q0-.325-.145-.496-.144-.174-.413-.174zM61.751 6.444q-.492 0-.762-.302-.27-.304-.27-.858 0-.568.274-.878.275-.31.781-.31.163 0 .327.035.163.035.256.083l-.106.291q-.113-.045-.248-.074-.134-.031-.237-.031-.69 0-.69.88 0 .418.167.641.17.223.5.223.283 0 .58-.122v.304q-.227.118-.572.118zM63.595 6.16q.091 0 .176-.012.085-.014.134-.028v.262q-.056.027-.165.043-.108.019-.195.019-.657 0-.657-.692V4.404h-.324v-.165l.324-.143.145-.484h.198v.525h.658v.267h-.658v1.333q0 .205.097.314.098.11.267.11zM64.703 6.403h-.343V4.137h.343zm-.372-2.88q0-.118.058-.171.058-.056.145-.056.082 0 .142.056.06.056.06.171 0 .116-.06.174-.06.056-.142.056-.087 0-.145-.056-.058-.058-.058-.174zM67.39 5.268q0 .554-.279.866-.279.31-.77.31-.305 0-.54-.143-.236-.142-.364-.409t-.128-.624q0-.554.277-.862.277-.31.769-.31.475 0 .754.316.281.316.281.856zm-1.726 0q0 .434.174.661.173.228.51.228t.511-.226q.176-.227.176-.663 0-.432-.176-.655-.174-.226-.515-.226-.337 0-.508.222-.172.22-.172.659zM69.54 6.403V4.937q0-.277-.126-.413-.126-.137-.395-.137-.356 0-.52.193-.166.192-.166.634v1.189h-.343V4.137h.279l.055.31h.017q.105-.167.296-.258.19-.093.423-.093.41 0 .616.198.207.197.207.63v1.479zM70.437 5.59l1.619-.674-1.619-.77v-.309l1.986.99v.203l-1.986.872z"/></g><g fill="#a2000d"><path d="M21.96 10.186h2.382v.397H21.96zM21.96 0h2.382v.397H21.96z"/><path d="M23.35 0v10.583h-.397V0z"/></g><g fill="#a2000d"><path d="M21.96 20.77h2.382v.397H21.96zM21.96 10.583h2.382v.397H21.96z"/><path d="M23.35 10.583v10.584h-.397V10.583z"/></g><g fill="#a2000d"><path d="M21.96 36.38h2.382v.397H21.96zM21.96 26.194h2.382v.397H21.96z"/><path d="M23.35 26.194v10.583h-.397V26.194z"/></g><g fill="#a2000d"><path d="M21.96 46.964h2.382v.396H21.96zM21.96 36.777h2.382v.397H21.96z"/><path d="M23.35 36.777V47.36h-.397V36.777z"/></g><g style="line-height:1.25" aria-label="Bottom margin of &lt;section&gt;" font-weight="400" font-size="4.233" font-family="Open Sans" letter-spacing="0" word-spacing="0" stroke-width=".265"><path style="-inkscape-font-specification:'Open Sans'" d="M25.286 40.158h.854q.602 0 .87.18.269.18.269.568 0 .269-.151.444-.149.174-.436.226v.02q.688.118.688.724 0 .405-.275.632-.273.228-.765.228h-1.054zm.352 1.294h.578q.373 0 .536-.116.163-.118.163-.395 0-.254-.182-.366-.182-.113-.579-.113h-.516zm0 .297v1.131h.63q.366 0 .55-.14.186-.143.186-.445 0-.281-.19-.413-.188-.133-.575-.133zM29.935 42.045q0 .554-.279.866-.279.31-.771.31-.304 0-.54-.142-.235-.143-.363-.41-.128-.266-.128-.624 0-.554.277-.862.277-.31.769-.31.475 0 .754.316.281.316.281.856zm-1.726 0q0 .434.174.661.173.228.51.228t.51-.225q.177-.228.177-.664 0-.432-.176-.655-.174-.226-.515-.226-.337 0-.508.222-.172.22-.172.659zM31.266 42.938q.091 0 .176-.012.085-.015.134-.03v.263q-.055.027-.165.044-.107.018-.194.018-.658 0-.658-.692V41.18h-.324v-.165l.324-.143.145-.484h.198v.525h.658v.267h-.658v1.333q0 .205.098.314.097.11.266.11zM32.763 42.938q.09 0 .176-.012.084-.015.134-.03v.263q-.056.027-.165.044-.108.018-.195.018-.657 0-.657-.692V41.18h-.325v-.165l.325-.143.145-.484h.198v.525h.657v.267H32.4v1.333q0 .205.097.314.097.11.267.11zM35.483 42.045q0 .554-.279.866-.279.31-.771.31-.304 0-.54-.142-.235-.143-.363-.41-.128-.266-.128-.624 0-.554.277-.862.277-.31.768-.31.476 0 .755.316.281.316.281.856zm-1.726 0q0 .434.174.661.173.228.51.228t.51-.225q.177-.228.177-.664 0-.432-.176-.655-.174-.226-.515-.226-.337 0-.508.222-.172.22-.172.659zM38.97 43.18v-1.474q0-.27-.116-.405-.115-.137-.36-.137-.32 0-.473.184-.153.184-.153.567v1.265h-.343v-1.474q0-.27-.115-.405-.116-.137-.362-.137-.323 0-.474.195-.148.192-.148.632v1.189h-.343v-2.266h.279l.055.31h.017q.097-.165.273-.258.178-.093.397-.093.53 0 .694.384h.017q.101-.177.293-.28.192-.104.438-.104.385 0 .575.198.192.197.192.63v1.479zM44.006 43.18v-1.474q0-.27-.116-.405-.116-.137-.36-.137-.32 0-.473.184-.153.184-.153.567v1.265h-.343v-1.474q0-.27-.116-.405-.116-.137-.362-.137-.322 0-.473.195-.149.192-.149.632v1.189h-.343v-2.266h.279l.056.31h.016q.097-.165.273-.258.178-.093.397-.093.531 0 .695.384h.016q.101-.177.294-.28.192-.104.438-.104.384 0 .574.198.193.197.193.63v1.479zM46.447 43.18l-.068-.323h-.017q-.17.213-.339.29-.167.074-.42.074-.337 0-.529-.174-.19-.173-.19-.494 0-.686 1.098-.719l.384-.012v-.14q0-.267-.116-.394-.113-.128-.365-.128-.284 0-.641.174l-.106-.263q.168-.09.366-.142.2-.052.401-.052.405 0 .6.18.196.18.196.577v1.546zm-.775-.242q.32 0 .502-.176.184-.175.184-.492v-.204l-.343.014q-.41.015-.591.128-.18.112-.18.35 0 .186.111.283.114.097.317.097zM48.444 40.873q.15 0 .27.025l-.047.318q-.14-.03-.248-.03-.275 0-.472.222-.194.224-.194.556v1.216h-.343v-2.266h.283l.04.42h.016q.126-.221.304-.341.178-.12.39-.12zM50.992 40.914v.217l-.42.05q.058.072.104.19.045.116.045.263 0 .332-.227.53-.227.2-.624.2-.101 0-.19-.017-.22.116-.22.291 0 .093.077.139.076.043.263.043h.4q.368 0 .565.155.198.155.198.45 0 .377-.302.573-.301.199-.88.199-.444 0-.686-.166-.24-.165-.24-.467 0-.206.132-.357t.372-.205q-.087-.04-.147-.122-.057-.083-.057-.192 0-.124.066-.217t.209-.18q-.176-.072-.288-.246-.11-.174-.11-.397 0-.372.224-.572.223-.203.632-.203.178 0 .32.041zm-1.806 2.646q0 .184.155.28.155.094.444.094.432 0 .639-.13.209-.128.209-.35 0-.183-.114-.256-.114-.07-.428-.07h-.411q-.234 0-.364.112-.13.111-.13.32zm.186-1.92q0 .238.134.36.134.121.374.121.502 0 .502-.487 0-.51-.508-.51-.242 0-.372.13t-.13.386zM51.805 43.18h-.344v-2.266h.344zm-.372-2.88q0-.117.057-.171.058-.056.145-.056.083 0 .143.056.06.056.06.171 0 .116-.06.174-.06.056-.143.056-.087 0-.145-.056-.057-.058-.057-.174zM54.087 43.18v-1.466q0-.277-.126-.413-.127-.137-.395-.137-.356 0-.521.193-.166.192-.166.634v1.189h-.343v-2.266h.28l.055.31h.017q.105-.167.295-.258.19-.093.424-.093.41 0 .616.198.207.197.207.63v1.479zM58.188 42.045q0 .554-.28.866-.278.31-.77.31-.304 0-.54-.142-.236-.143-.364-.41-.128-.266-.128-.624 0-.554.277-.862.277-.31.77-.31.474 0 .754.316t.28.856zm-1.726 0q0 .434.173.661.174.228.51.228.338 0 .511-.225.176-.228.176-.664 0-.432-.176-.655-.173-.226-.514-.226-.337 0-.509.222-.171.22-.171.659zM59.808 41.181h-.576v1.999h-.344V41.18h-.405v-.155l.405-.124v-.126q0-.835.73-.835.18 0 .422.072l-.09.275q-.198-.064-.338-.064-.194 0-.287.13-.093.128-.093.414v.146h.576zM63.163 42.68l-1.986-.873v-.202l1.986-.99v.308l-1.616.766 1.616.678zM65.21 42.562q0 .316-.236.488-.236.171-.662.171-.45 0-.702-.142v-.319q.163.083.349.13.188.048.362.048.268 0 .413-.085.145-.087.145-.262 0-.133-.116-.226-.114-.095-.447-.223-.316-.118-.45-.205-.132-.088-.199-.2-.064-.112-.064-.267 0-.277.226-.436.225-.161.618-.161.366 0 .715.149l-.122.279q-.341-.14-.618-.14-.244 0-.368.076t-.124.21q0 .092.045.156.048.064.151.122.104.057.397.167.403.147.544.296.142.148.142.374zM66.723 43.221q-.503 0-.794-.306-.29-.306-.29-.85 0-.547.27-.87.27-.322.725-.322.425 0 .674.281.248.28.248.738v.217h-1.561q.01.399.2.606.193.206.54.206.366 0 .723-.153v.306q-.182.079-.345.112-.161.035-.39.035zm-.093-2.06q-.273 0-.437.177-.16.178-.19.492h1.185q0-.325-.145-.496-.145-.174-.413-.174zM69.044 43.221q-.492 0-.763-.302-.269-.304-.269-.857 0-.569.273-.879.275-.31.782-.31.163 0 .326.035t.256.083l-.105.291q-.114-.045-.248-.074-.134-.031-.238-.031-.69 0-.69.88 0 .418.167.641.17.223.5.223.284 0 .581-.122v.304q-.227.118-.572.118zM70.888 42.938q.09 0 .175-.012.085-.015.135-.03v.263q-.056.027-.166.044-.107.018-.194.018-.657 0-.657-.692V41.18h-.325v-.165l.325-.143.144-.484h.199v.525h.657v.267h-.657v1.333q0 .205.097.314.097.11.267.11zM71.996 43.18h-.344v-2.266h.344zm-.372-2.88q0-.117.057-.171.058-.056.145-.056.083 0 .143.056.06.056.06.171 0 .116-.06.174-.06.056-.143.056-.087 0-.145-.056-.057-.058-.057-.174zM74.683 42.045q0 .554-.28.866-.278.31-.77.31-.304 0-.54-.142-.235-.143-.364-.41-.128-.266-.128-.624 0-.554.277-.862.277-.31.77-.31.475 0 .754.316.28.316.28.856zm-1.726 0q0 .434.173.661.174.228.511.228t.51-.225q.176-.228.176-.664 0-.432-.175-.655-.174-.226-.515-.226-.337 0-.509.222-.171.22-.171.659zM76.833 43.18v-1.466q0-.277-.127-.413-.126-.137-.394-.137-.356 0-.521.193-.166.192-.166.634v1.189h-.343v-2.266h.28l.055.31h.017q.105-.167.295-.258.19-.093.424-.093.41 0 .616.198.207.197.207.63v1.479zM77.73 42.367l1.618-.673-1.618-.771v-.308l1.986.99v.202l-1.986.873z"/></g></svg>