<svg xmlns="http://www.w3.org/2000/svg" viewBox="0 0 115.322 60.854" height="230" width="435.863"><defs><marker id="e" refX="0" refY="0" orient="auto" overflow="visible"><path d="M2.308 0l-3.46 2v-4z" fill="#131516" fill-rule="evenodd" stroke="#131516" stroke-width=".5332"/></marker><marker id="a" refX="0" refY="0" orient="auto" overflow="visible"><path d="M10.69 4.437L-1.328.017 10.69-4.401c-1.92 2.61-1.909 6.18 0 8.84z" fill="#374047" fill-rule="evenodd" stroke="#374047" stroke-width=".6875" stroke-linejoin="round"/></marker><marker orient="auto" refY="0" refX="0" id="b" overflow="visible"><path d="M-10.69-4.437L1.328-.017-10.69 4.401c1.92-2.61 1.909-6.18 0-8.84z" fill="#374047" fill-rule="evenodd" stroke="#374047" stroke-width=".6875" stroke-linejoin="round"/></marker><marker id="c" refX="0" refY="0" orient="auto" overflow="visible"><path d="M10.69 4.437L-1.328.017 10.69-4.401c-1.92 2.61-1.909 6.18 0 8.84z" fill="#374047" fill-rule="evenodd" stroke="#374047" stroke-width=".6875" stroke-linejoin="round"/></marker><marker orient="auto" refY="0" refX="0" id="d" overflow="visible"><path d="M-10.69-4.437L1.328-.017-10.69 4.401c1.92-2.61 1.909-6.18 0-8.84z" fill="#374047" fill-rule="evenodd" stroke="#374047" stroke-width=".6875" stroke-linejoin="round"/></marker></defs><path d="M14.772 0h85.99v18.52h-85.99z" fill="#dfdff9"/><path d="M18.575 0h78.383v5.292H18.575z" fill="#705697"/><g style="line-height:1.25" aria-label="Box 1" font-weight="400" font-size="4.013" font-family="sans-serif" letter-spacing="0" word-spacing="0" fill="#ececfb" stroke-width=".265"><path d="M21.072 3.856q0 .23-.078.406-.078.175-.21.289-.156.136-.343.194-.186.058-.474.058h-.98V1.725h.818q.303 0 .454.025.15.025.288.103.152.09.22.23.07.138.07.333 0 .219-.1.374-.101.153-.268.246v.016q.28.064.442.275.161.21.161.53zm-.618-1.387q0-.111-.034-.188-.033-.076-.107-.124-.088-.055-.212-.068-.125-.014-.309-.014h-.438v.888h.476q.172 0 .275-.018.102-.02.189-.083.087-.062.123-.159.037-.1.037-.234zm.236 1.404q0-.186-.05-.296-.05-.11-.183-.186-.089-.051-.217-.066-.126-.016-.308-.016h-.578v1.145h.487q.241 0 .395-.027.155-.029.253-.103.104-.081.152-.184.049-.104.049-.267zM23.335 3.65q0 .564-.26.89-.26.327-.697.327-.44 0-.7-.326-.258-.327-.258-.891 0-.565.258-.891.26-.329.7-.329.437 0 .697.329.26.326.26.89zm-.36 0q0-.449-.159-.666-.157-.219-.438-.219-.284 0-.442.22-.156.216-.156.665 0 .434.158.66.158.222.44.222.279 0 .437-.22.16-.224.16-.662zM25.636 4.803h-.44l-.589-.887-.593.887h-.406l.81-1.151-.803-1.158h.44l.585.873.587-.873h.41l-.816 1.137zM29.098 4.803h-1.497V4.49h.576V2.426h-.576v-.281q.117 0 .251-.02.134-.023.202-.065.086-.051.134-.13.05-.08.058-.215h.288v2.774h.564z"/></g><path d="M18.575 13.23h78.383v5.29H18.575z" fill="#705697"/><g style="line-height:1.25" aria-label="Box 2" font-weight="400" font-size="4.013" font-family="sans-serif" letter-spacing="0" word-spacing="0" fill="#f3eafb" stroke-width=".265"><path d="M21.072 17.086q0 .23-.078.405-.078.175-.21.29-.156.136-.343.193-.186.058-.474.058h-.98v-3.078h.818q.303 0 .454.025.15.025.288.104.152.089.22.23.07.138.07.332 0 .219-.1.374-.101.153-.268.246v.017q.28.064.442.274.161.21.161.53zm-.618-1.387q0-.112-.034-.188-.033-.077-.107-.125-.088-.055-.212-.068-.125-.014-.309-.014h-.438v.889h.476q.172 0 .275-.019.102-.02.189-.083.087-.062.123-.159.037-.099.037-.233zm.236 1.403q0-.186-.05-.295-.05-.11-.183-.186-.089-.052-.217-.067-.126-.016-.308-.016h-.578v1.145h.487q.241 0 .395-.027.155-.029.253-.103.104-.08.152-.184.049-.104.049-.267zM23.335 16.879q0 .564-.26.89-.26.327-.697.327-.44 0-.7-.326-.258-.327-.258-.891 0-.564.258-.891.26-.329.7-.329.437 0 .697.329.26.327.26.89zm-.36 0q0-.449-.159-.666-.157-.219-.438-.219-.284 0-.442.22-.156.216-.156.665 0 .434.158.66.158.223.44.223.279 0 .437-.222.16-.223.16-.661zM25.636 18.032h-.44l-.589-.886-.593.886h-.406l.81-1.151-.803-1.158h.44l.585.873.587-.873h.41l-.816 1.137zM29.256 18.032h-1.872V17.6l.39-.372q.197-.186.366-.37.357-.384.488-.61.132-.227.132-.49 0-.24-.143-.374-.14-.136-.395-.136-.17 0-.366.066-.197.066-.385.203h-.018v-.434q.132-.073.35-.133.222-.06.428-.06.425 0 .667.23.241.227.241.618 0 .176-.04.329-.04.15-.118.287-.072.128-.17.252-.097.124-.236.275-.2.217-.41.422l-.397.376h1.488z"/></g><path d="M87.532 0h13.23v13.23h-13.23z" fill="#5c004e" fill-opacity=".686"/><g style="line-height:1.25" aria-label="Float" font-weight="400" font-size="4.233" font-family="sans-serif" letter-spacing="0" word-spacing="0" fill="#f8f9f9" stroke-width=".265"><path d="M91.172 5.477h-1.557v.868h1.337v.364h-1.337V8.19h-.41V5.113h1.967zM91.998 8.19h-.388V4.975h.388zM94.74 7.037q0 .565-.29.891-.29.327-.775.327-.49 0-.78-.327-.287-.326-.287-.89 0-.565.287-.892.29-.328.78-.328.486 0 .775.328.29.327.29.891zm-.402 0q0-.448-.175-.665-.176-.22-.488-.22-.317 0-.492.22-.174.217-.174.665 0 .434.176.66.176.223.49.223.31 0 .486-.221.177-.223.177-.662zM97.137 8.19h-.386v-.245q-.052.035-.141.099-.087.062-.17.1-.097.047-.223.078-.126.033-.295.033-.312 0-.53-.207-.217-.207-.217-.527 0-.263.112-.424.114-.163.323-.256.21-.093.506-.126.296-.033.635-.05v-.06q0-.132-.048-.219-.046-.087-.132-.136-.083-.048-.199-.064-.116-.017-.242-.017-.153 0-.34.041-.189.04-.39.116h-.02v-.395q.114-.03.329-.068.215-.037.423-.037.244 0 .424.041.182.04.314.137.13.095.199.246.068.15.068.374zm-.386-.568V6.98q-.178.01-.42.031-.24.021-.38.06-.168.048-.271.15-.104.098-.104.274 0 .199.12.3.12.1.366.1.205 0 .374-.08.17-.08.315-.192zM99.088 8.17q-.11.029-.24.048-.128.018-.229.018-.353 0-.537-.19-.184-.19-.184-.61V6.208h-.263v-.326h.263v-.664h.388v.664h.802v.326h-.802v1.053q0 .181.008.285.008.101.058.19.046.083.124.122.08.037.244.037.095 0 .199-.027.103-.029.148-.047h.021z"/></g><g fill="#a2000d"><path d="M56.576 10.451h2.381v.132h-2.38zM56.58 5.292h2.381v.132h-2.38z"/><path d="M57.97 5.292v5.291h-.398V5.292z"/></g><g fill="#a2000d"><path d="M56.58 13.097h2.381v.132h-2.38zM56.58 9.26h2.381v.133h-2.38z"/><path d="M57.97 9.26v3.97h-.398V9.26z"/></g><path d="M15.875 31.094H7.937" transform="matrix(1.33333 0 0 1 -2.591 -31.043)" fill="#374047" stroke="#374047" stroke-width=".102"/><path d="M15.875 31.094H7.937" transform="matrix(1.3125 0 0 .98438 -2.26 -25.368)" fill="#374047" stroke="#374047" stroke-width=".104"/><path d="M6.615 31.094v5.291" transform="matrix(.99259 0 0 .92279 4.213 -28.49)" fill="#374047" stroke="#374047" stroke-width=".068" marker-start="url(#a)" marker-end="url(#b)"/><g style="line-height:1.25" aria-label="20 px" font-weight="400" font-size="3.704" font-family="Open Sans" letter-spacing="0" word-spacing="0" fill="#131516" stroke-width=".265"><path style="-inkscape-font-specification:'Open Sans'" d="M1.738 3.552H0v-.258l.696-.7q.319-.322.42-.46.101-.137.152-.267.05-.13.05-.28 0-.212-.128-.335-.128-.125-.356-.125-.165 0-.313.054-.147.055-.327.197l-.16-.204Q.4.87.83.87q.373 0 .584.192.212.19.212.512 0 .251-.141.497t-.528.622l-.579.566v.015h1.36zM3.872 2.227q0 .685-.217 1.023-.215.339-.66.339-.427 0-.65-.346-.222-.347-.222-1.016 0-.691.216-1.026.215-.334.656-.334.43 0 .653.349.224.349.224 1.01zm-1.445 0q0 .577.136.84t.432.263q.3 0 .434-.266.136-.268.136-.837 0-.57-.136-.834-.134-.266-.434-.266-.296 0-.432.262-.136.26-.136.838zM6.262 3.589q-.194 0-.355-.07-.159-.073-.268-.222h-.021q.021.174.021.33v.815h-.3V1.57h.244l.042.271h.014q.116-.162.27-.235.154-.072.353-.072.394 0 .607.27.216.269.216.755 0 .489-.22.76-.216.27-.603.27zm-.044-1.8q-.304 0-.44.168-.135.168-.139.536v.066q0 .418.14.6.139.178.446.178.257 0 .402-.208.146-.208.146-.573 0-.37-.146-.568-.145-.199-.409-.199zM8.088 2.538L7.4 1.57h.342l.523.76.52-.76h.339l-.69.968.726 1.014h-.34l-.555-.803-.56.803h-.34z"/></g><path d="M15.875 31.094H7.937" transform="matrix(.83333 0 0 .625 94.147 -6.255)" fill="#374047" stroke="#374047" stroke-width=".164"/><path d="M15.875 31.094H7.937" transform="matrix(.83333 0 0 .625 94.147 -19.382)" fill="#374047" stroke="#374047" stroke-width=".164"/><g style="line-height:1.25" aria-label="50 px" font-weight="400" font-size="3.704" font-family="Open Sans" letter-spacing="0" word-spacing="0" fill="#131516" stroke-width=".265"><path style="-inkscape-font-specification:'Open Sans'" d="M106.99 5.897q.417 0 .656.208.24.206.24.566 0 .41-.262.644-.26.233-.72.233-.446 0-.681-.143v-.289q.126.081.314.128.189.046.371.046.319 0 .494-.15.177-.15.177-.435 0-.553-.678-.553-.172 0-.46.052l-.155-.099.1-1.237h1.314v.277h-1.058l-.067.794q.208-.042.415-.042zM110.035 6.186q0 .686-.217 1.024-.215.338-.66.338-.427 0-.65-.345-.222-.347-.222-1.017 0-.69.216-1.025.215-.335.656-.335.43 0 .653.35.224.348.224 1.01zm-1.445 0q0 .577.136.841.136.263.432.263.3 0 .434-.266.136-.268.136-.838t-.136-.833q-.134-.266-.434-.266-.296 0-.432.262-.136.26-.136.837zM112.425 7.548q-.194 0-.355-.07-.159-.073-.268-.22h-.021q.021.173.021.328v.816h-.3V5.53h.244l.042.271h.014q.116-.163.27-.235.154-.072.353-.072.394 0 .607.27.216.269.216.755 0 .489-.22.76-.216.27-.603.27zm-.044-1.8q-.304 0-.44.169-.135.168-.139.535v.067q0 .418.14.599.139.179.446.179.257 0 .402-.208.147-.208.147-.573 0-.371-.147-.568-.145-.2-.409-.2zM114.251 6.497l-.689-.967h.342l.523.76.52-.76h.339l-.69.967.726 1.015h-.34l-.555-.803-.56.803h-.34z"/></g><path d="M6.615 31.094v5.291" transform="matrix(2.06812 0 0 2.41188 91.058 -74.762)" fill="#374047" stroke="#374047" stroke-width=".033" marker-start="url(#c)" marker-end="url(#d)"/><path d="M15.875 31.094H7.937" transform="matrix(1.33333 0 0 1 -2.591 -17.813)" fill="#374047" stroke="#374047" stroke-width=".102"/><path d="M15.875 31.094H7.937" transform="matrix(1.3125 0 0 .98438 -2.26 -12.139)" fill="#374047" stroke="#374047" stroke-width=".104"/><path d="M6.615 31.094v5.291" transform="matrix(.99259 0 0 .92279 4.213 -15.26)" fill="#374047" stroke="#374047" stroke-width=".068" marker-start="url(#a)" marker-end="url(#b)"/><g style="line-height:1.25" aria-label="20 px" font-weight="400" font-size="3.704" font-family="Open Sans" letter-spacing="0" word-spacing="0" fill="#131516" stroke-width=".265"><path style="-inkscape-font-specification:'Open Sans'" d="M1.738 16.782H0v-.259l.696-.7q.319-.322.42-.46.101-.137.152-.267.05-.13.05-.28 0-.212-.128-.335-.128-.125-.356-.125-.165 0-.313.054-.147.055-.327.198l-.16-.205Q.4 14.1.83 14.1q.373 0 .584.192.212.19.212.512 0 .251-.141.497t-.528.623l-.579.566v.014h1.36zM3.872 15.456q0 .685-.217 1.024-.215.338-.66.338-.427 0-.65-.346-.222-.347-.222-1.016 0-.691.216-1.026.215-.334.656-.334.43 0 .653.349.224.349.224 1.01zm-1.445 0q0 .577.136.84t.432.263q.3 0 .434-.266.136-.267.136-.837t-.136-.834q-.134-.266-.434-.266-.296 0-.432.262-.136.26-.136.838zM6.262 16.818q-.194 0-.355-.07-.159-.073-.268-.221h-.021q.021.173.021.329v.815h-.3V14.8h.244l.042.272h.014q.116-.163.27-.236.154-.072.353-.072.394 0 .607.27.216.27.216.756 0 .488-.22.76-.216.269-.603.269zm-.044-1.8q-.304 0-.44.168-.135.169-.139.536v.067q0 .417.14.598.139.18.446.18.257 0 .402-.209.146-.208.146-.573 0-.37-.146-.568-.145-.199-.409-.199zM8.088 15.767l-.689-.968h.342l.523.76.52-.76h.339l-.69.968.726 1.015h-.34l-.555-.803-.56.803h-.34z"/></g><path d="M26.678 31.75h35.917v2.646H26.678zM26.678 58.208h35.917v2.646H26.678z" fill="#705697"/><path d="M64.823 63.637L54.24 76.867" fill="#131516" stroke="#131516" stroke-width=".529" marker-end="url(#e)" transform="translate(-7.718 -47.762)"/><g><g fill="#a2000d"><path d="M44.24 49.874h2.381v.397H44.24zM44.24 34.396h2.381v.397H44.24z"/><path d="M45.63 34.396V50.27h-.398V34.396z"/></g><g fill="#a2000d"><path d="M44.24 57.811h2.381v.397H44.24zM44.24 46.302h2.381v.397H44.24z"/><path d="M45.63 46.302v11.906h-.398V46.302z"/></g><g style="line-height:1.25" aria-label="20 px" font-weight="400" font-size="3.704" font-family="Open Sans" letter-spacing="0" word-spacing="0" fill="#131516" stroke-width=".265"><path style="-inkscape-font-specification:'Open Sans'" d="M33.25 43.231H31.51v-.258l.696-.7q.319-.322.42-.46.101-.137.152-.267.05-.13.05-.28 0-.212-.128-.335-.128-.125-.356-.125-.165 0-.313.054-.147.054-.327.197l-.16-.204q.366-.304.796-.304.373 0 .584.192.212.19.212.512 0 .251-.141.497t-.528.622l-.579.566v.015h1.36zM35.383 41.906q0 .685-.217 1.023-.215.339-.66.339-.427 0-.65-.346-.222-.347-.222-1.016 0-.691.216-1.026.215-.335.656-.335.43 0 .653.35.224.349.224 1.01zm-1.445 0q0 .577.136.84t.432.263q.3 0 .434-.266.136-.268.136-.837 0-.57-.136-.834-.134-.266-.434-.266-.296 0-.432.262-.136.26-.136.838zM37.773 43.268q-.194 0-.355-.071-.159-.072-.267-.22h-.022q.022.173.022.329v.815h-.3V41.25h.243l.042.271h.015q.115-.162.269-.235.154-.072.353-.072.394 0 .607.27.216.269.216.755 0 .489-.22.76-.216.27-.603.27zm-.044-1.8q-.304 0-.44.168-.135.168-.138.535v.067q0 .418.139.6.14.178.447.178.256 0 .401-.208.147-.208.147-.573 0-.371-.147-.568-.145-.2-.409-.2zM39.6 42.217l-.69-.968h.342l.523.76.52-.76h.339l-.69.968.726 1.014h-.34l-.555-.803-.56.803h-.34z"/></g><g style="line-height:1.25" aria-label="15 px" font-weight="400" font-size="3.704" font-family="Open Sans" letter-spacing="0" word-spacing="0" fill="#131516" stroke-width=".265"><path style="-inkscape-font-specification:'Open Sans'" d="M30.771 53.133h-.293V51.25q0-.236.015-.445-.038.038-.085.08-.047.04-.43.352l-.16-.206.7-.541h.253zM32.605 51.518q.418 0 .657.208.24.206.24.566 0 .41-.262.644-.26.233-.72.233-.446 0-.682-.143v-.289q.127.081.315.129.188.045.37.045.32 0 .495-.15.177-.15.177-.435 0-.553-.678-.553-.172 0-.46.052l-.155-.099.1-1.237h1.314v.277h-1.058l-.067.794q.208-.042.414-.042zM35.92 53.17q-.193 0-.354-.071-.159-.073-.268-.22h-.021q.021.173.021.328v.816h-.3v-2.872h.244l.042.271h.014q.116-.163.27-.235.154-.072.353-.072.394 0 .607.27.216.269.216.755 0 .489-.22.76-.216.27-.603.27zm-.043-1.8q-.304 0-.44.168-.135.168-.139.535v.067q0 .418.14.599.139.179.446.179.257 0 .402-.208.146-.208.146-.573 0-.371-.146-.568-.145-.2-.409-.2zM37.747 52.119l-.689-.968h.342l.523.76.52-.76h.339l-.69.968.726 1.014h-.34l-.555-.803-.56.803h-.34z"/></g><path d="M44.05 34.462h-1.058a.548.548 0 00-.53.53l.025 6.746-.794.53.794.528v6.88c0 .259.265.529.53.529h1.058M42.099 46.368H41.04a.548.548 0 00-.529.53l.025 4.785-.794.529.794.529-.012 4.874c0 .259.265.529.53.529h1.058M46.808 46.368h1.058c.265 0 .53.237.53.53v.75l.768.529-.793.529v.971c0 .26-.253.53-.518.53h-1.045 0" fill="none" stroke="#131516" stroke-width=".132"/><g style="line-height:1.25" aria-label="−5 px" font-weight="400" font-size="3.704" font-family="Open Sans" letter-spacing="0" word-spacing="0" fill="#131516" stroke-width=".265"><path style="-inkscape-font-specification:'Open Sans'" d="M50.304 47.983v-.25h1.738v.25zM53.243 47.55q.418 0 .656.207.24.206.24.566 0 .411-.261.644-.26.234-.72.234-.447 0-.682-.143v-.29q.127.082.315.129.188.045.37.045.319 0 .494-.15.177-.15.177-.434 0-.554-.678-.554-.172 0-.46.053l-.155-.1.1-1.237h1.315v.277h-1.058l-.067.794q.208-.042.414-.042zM56.558 49.2q-.193 0-.354-.07-.16-.072-.268-.22h-.022q.022.173.022.329v.815h-.3v-2.872h.244l.041.271h.015q.116-.162.27-.235.153-.072.352-.072.394 0 .608.27.215.269.215.755 0 .489-.219.76-.217.27-.604.27zm-.043-1.799q-.304 0-.44.168-.135.168-.14.536v.066q0 .418.14.6.14.178.447.178.257 0 .401-.208.147-.208.147-.573 0-.37-.147-.568-.144-.199-.408-.199zM58.385 48.15l-.69-.968h.343l.522.76.521-.76h.338l-.689.968.726 1.014h-.34l-.556-.803-.56.803h-.34z"/></g></g></svg>