<svg xmlns="http://www.w3.org/2000/svg" viewBox="0 0 71.147 17.636" height="66.656" width="268.904"><defs><marker orient="auto" overflow="visible" id="a"><path d="M2.308 0l-3.46 2v-4z" fill-rule="evenodd" stroke="#000" stroke-width=".5332"/></marker></defs><g style="line-height:1.25;-inkscape-font-specification:'Open Sans, Normal';font-variant-ligatures:normal;font-variant-caps:normal;font-variant-numeric:normal;font-feature-settings:normal;text-align:start" aria-label="Collapsed margin" font-weight="400" font-size="4.233" font-family="Open Sans" letter-spacing="0" word-spacing="0" stroke-width=".265"><path style="-inkscape-font-specification:'Open Sans, Normal';font-variant-ligatures:normal;font-variant-caps:normal;font-variant-numeric:normal;font-feature-settings:normal;text-align:start" d="M25.089 3.64q-.498 0-.788.333-.287.33-.287.907 0 .594.277.918.28.323.794.323.316 0 .721-.114v.308q-.314.118-.775.118-.668 0-1.031-.405-.362-.406-.362-1.152 0-.467.173-.818.176-.352.505-.542.33-.19.777-.19.475 0 .831.174l-.149.301q-.343-.16-.686-.16zM28.37 5.257q0 .554-.28.866-.279.31-.77.31-.305 0-.54-.143-.236-.143-.364-.41-.128-.266-.128-.623 0-.554.277-.862.277-.31.769-.31.475 0 .754.316.281.316.281.856zm-1.727 0q0 .434.174.661.174.227.51.227.337 0 .511-.225.176-.227.176-.663 0-.432-.176-.656-.174-.225-.515-.225-.337 0-.508.221-.172.221-.172.66zM29.312 6.391h-.343V3.175h.343zM30.387 6.391h-.343V3.175h.343zM32.512 6.391l-.068-.322h-.017q-.17.213-.339.29-.167.074-.42.074-.337 0-.529-.174-.19-.174-.19-.494 0-.686 1.098-.72l.384-.012v-.14q0-.267-.116-.393-.113-.128-.365-.128-.284 0-.641.173l-.106-.262q.168-.091.366-.143.2-.051.401-.051.405 0 .6.18.196.18.196.576v1.546zm-.775-.241q.32 0 .502-.176.184-.176.184-.492v-.205l-.343.015q-.41.014-.591.128-.18.111-.18.35 0 .185.111.282.114.097.317.097zM34.53 6.433q-.222 0-.406-.08-.182-.084-.306-.253h-.025q.025.198.025.376v.932h-.343V4.126h.279l.048.31h.016q.132-.186.308-.269.176-.082.403-.082.45 0 .695.308.246.307.246.864 0 .558-.25.868-.249.308-.69.308zm-.05-2.057q-.348 0-.503.192-.155.192-.159.612v.077q0 .477.16.684.158.204.51.204.293 0 .459-.237.167-.238.167-.656 0-.423-.167-.649-.166-.227-.467-.227zM37.533 5.773q0 .317-.236.488-.236.172-.662.172-.45 0-.702-.143v-.318q.163.082.349.13.188.047.362.047.268 0 .413-.084.145-.087.145-.263 0-.132-.116-.225-.114-.095-.446-.223-.317-.118-.451-.205-.132-.089-.198-.2-.065-.112-.065-.267 0-.277.226-.436.225-.161.618-.161.366 0 .715.148l-.122.28q-.341-.141-.618-.141-.244 0-.368.076-.124.077-.124.211 0 .091.046.155.047.064.15.122.104.058.397.168.403.146.544.295.143.149.143.374zM39.046 6.433q-.503 0-.794-.306-.29-.306-.29-.85 0-.548.27-.87.27-.322.725-.322.426 0 .674.28.248.28.248.739v.217h-1.56q.01.399.2.605.192.207.54.207.365 0 .723-.153v.306q-.182.078-.346.112-.16.035-.39.035zm-.093-2.061q-.273 0-.436.178-.162.177-.19.492h1.184q0-.325-.145-.497-.145-.173-.413-.173zM42.004 6.087h-.019q-.238.346-.711.346-.444 0-.692-.304-.246-.304-.246-.864t.248-.87q.248-.31.69-.31.46 0 .707.334h.027l-.015-.163-.008-.16v-.921h.343v3.216h-.279zm-.687.058q.352 0 .509-.19.159-.192.159-.618v-.072q0-.482-.161-.686-.16-.207-.51-.207-.303 0-.464.235-.159.234-.159.662 0 .434.16.655.158.221.466.221zM47.045 6.391V4.918q0-.271-.116-.406-.115-.136-.36-.136-.32 0-.473.184-.153.184-.153.566v1.265H45.6V4.918q0-.271-.115-.406-.116-.136-.362-.136-.323 0-.474.194-.148.193-.148.633V6.39h-.343V4.126h.279l.055.31h.017q.097-.165.273-.258.177-.093.397-.093.53 0 .694.384h.017q.1-.178.293-.281.192-.103.438-.103.385 0 .575.198.192.196.192.63v1.478zM49.486 6.391l-.068-.322h-.016q-.17.213-.34.29-.167.074-.419.074-.337 0-.53-.174-.19-.174-.19-.494 0-.686 1.098-.72l.385-.012v-.14q0-.267-.116-.393-.114-.128-.366-.128-.283 0-.64.173l-.106-.262q.167-.091.366-.143.2-.051.4-.051.406 0 .6.18.197.18.197.576v1.546zm-.775-.241q.32 0 .503-.176t.183-.492v-.205l-.343.015q-.409.014-.59.128-.18.111-.18.35 0 .185.111.282.114.097.316.097zM51.483 4.085q.151 0 .27.024l-.047.319q-.14-.031-.248-.031-.275 0-.471.223-.194.223-.194.556V6.39h-.343V4.126h.283l.04.42h.016q.126-.222.303-.342.178-.12.391-.12zM54.032 4.126v.217l-.42.05q.058.072.104.19.045.115.045.262 0 .333-.227.531-.228.199-.625.199-.1 0-.19-.017-.219.116-.219.292 0 .093.077.138.076.044.262.044h.401q.368 0 .564.155.199.155.199.45 0 .377-.302.573-.302.198-.88.198-.445 0-.687-.165-.24-.165-.24-.467 0-.207.133-.358.132-.15.372-.204-.087-.04-.147-.122-.058-.083-.058-.193 0-.124.066-.217.067-.093.21-.18-.176-.072-.288-.245-.11-.174-.11-.397 0-.372.224-.573.223-.202.632-.202.178 0 .32.04zm-1.807 2.646q0 .184.155.279.155.095.445.095.432 0 .638-.13.21-.129.21-.35 0-.184-.115-.256-.113-.07-.427-.07h-.412q-.233 0-.364.111-.13.112-.13.32zm.186-1.92q0 .237.135.36.134.121.374.121.502 0 .502-.488 0-.51-.508-.51-.242 0-.373.13-.13.13-.13.386zM54.844 6.391h-.343V4.126h.343zm-.372-2.88q0-.117.058-.17.058-.056.145-.056.082 0 .142.055.06.056.06.172 0 .116-.06.174-.06.055-.142.055-.087 0-.145-.055-.058-.058-.058-.174zM57.126 6.391V4.926q0-.277-.126-.414-.126-.136-.395-.136-.355 0-.52.192-.166.192-.166.635V6.39h-.343V4.126h.279l.056.31h.016q.106-.168.296-.258.19-.093.424-.093.409 0 .616.198.206.196.206.63v1.478z"/></g><path d="M96.028 105.807l3.969 2.646" fill="#131516" stroke="#131516" stroke-width=".3" marker-end="url(#a)" transform="translate(-82.718 -98.827)"/><g style="line-height:1.25;-inkscape-font-specification:'Open Sans, Normal';font-variant-ligatures:normal;font-variant-caps:normal;font-variant-numeric:normal;font-feature-settings:normal;text-align:start" aria-label="Child" font-weight="400" font-size="4.233" font-family="Open Sans" letter-spacing="0" word-spacing="0" stroke-width=".265"><path style="-inkscape-font-specification:'Open Sans, Normal';font-variant-ligatures:normal;font-variant-caps:normal;font-variant-numeric:normal;font-feature-settings:normal;text-align:start" d="M4.617 14.844q-.498 0-.788.332-.287.331-.287.908 0 .593.277.918.279.322.794.322.316 0 .721-.114v.308q-.314.118-.775.118-.668 0-1.032-.405-.361-.405-.361-1.151 0-.468.173-.819.176-.351.505-.541.33-.19.777-.19.475 0 .83.173l-.148.302q-.343-.161-.686-.161zM7.492 17.595v-1.466q0-.277-.126-.413-.126-.137-.395-.137-.357 0-.523.195-.163.194-.163.636v1.185h-.343v-3.217h.343v.974q0 .176-.017.291h.021q.101-.163.287-.256.188-.095.428-.095.416 0 .622.198.21.197.21.627v1.478zM8.881 17.595h-.343v-2.266h.343zm-.372-2.88q0-.117.058-.171.058-.056.145-.056.082 0 .142.056.06.056.06.171 0 .116-.06.174-.06.056-.142.056-.087 0-.145-.056-.058-.058-.058-.174zM9.956 17.595h-.343v-3.217h.343zM12.23 17.29h-.019q-.238.346-.71.346-.445 0-.693-.304-.246-.304-.246-.864t.248-.87q.248-.31.69-.31.461 0 .707.335h.027l-.015-.163-.008-.16v-.922h.343v3.217h-.279zm-.687.059q.352 0 .509-.19.16-.193.16-.618v-.073q0-.481-.162-.686-.16-.207-.51-.207-.302 0-.464.236-.159.233-.159.661 0 .434.16.656.159.22.466.22z"/></g><g style="line-height:1.25;-inkscape-font-specification:'Open Sans, Normal';font-variant-ligatures:normal;font-variant-caps:normal;font-variant-numeric:normal;font-feature-settings:normal;text-align:start" aria-label="Parent" font-weight="400" font-size="4.233" font-family="Open Sans" letter-spacing="0" word-spacing="0" stroke-width=".265"><path style="-inkscape-font-specification:'Open Sans, Normal';font-variant-ligatures:normal;font-variant-caps:normal;font-variant-numeric:normal;font-feature-settings:normal;text-align:start" d="M1.916 4.376q0 .459-.314.707-.312.246-.895.246H.35v1.188H0V3.495h.783q1.133 0 1.133.88zm-1.565.65h.317q.467 0 .676-.15.208-.151.208-.484 0-.3-.196-.446-.196-.147-.612-.147H.351zM3.888 6.517l-.068-.322h-.017q-.17.213-.339.29-.167.073-.42.073-.336 0-.528-.173-.19-.174-.19-.494 0-.686 1.097-.72l.385-.012v-.14q0-.267-.116-.393-.114-.128-.366-.128-.283 0-.64.173L2.58 4.41q.167-.091.366-.143.2-.052.4-.052.406 0 .6.18.196.18.196.577v1.546zm-.775-.242q.32 0 .502-.175.184-.176.184-.492v-.205l-.343.015q-.41.014-.591.128-.18.111-.18.349 0 .186.112.283.113.097.316.097zM5.885 4.21q.15 0 .27.025l-.047.318q-.14-.03-.248-.03-.275 0-.471.223-.194.223-.194.556v1.215H4.85V4.252h.284l.039.42h.016q.126-.222.304-.342.178-.12.39-.12zM7.536 6.558q-.502 0-.793-.305-.29-.306-.29-.85 0-.548.27-.87.27-.323.725-.323.425 0 .673.281.249.28.249.738v.217H6.809q.01.4.2.606.193.207.54.207.366 0 .723-.153v.306q-.182.078-.345.111-.161.035-.39.035zm-.093-2.06q-.272 0-.436.177-.16.178-.19.492h1.185q0-.324-.145-.496-.145-.173-.414-.173zM10.503 6.517V5.052q0-.277-.126-.414-.126-.136-.395-.136-.356 0-.521.192-.165.192-.165.635v1.188h-.344V4.252h.28l.055.31h.017q.105-.168.295-.259.19-.093.424-.093.41 0 .616.199.207.196.207.63v1.478zM12.28 6.275q.091 0 .176-.012.085-.015.134-.029v.263q-.055.026-.165.043-.107.019-.194.019-.658 0-.658-.693V4.518h-.324v-.165l.324-.143.145-.483h.199v.525h.657v.266h-.657v1.334q0 .204.097.314.097.11.266.11z"/></g><path d="M96.028 112.951l3.969-2.646" fill="#131516" stroke="#131516" stroke-width=".3" marker-end="url(#a)" transform="translate(-82.718 -98.827)"/><g fill="#a2000d"><path d="M20.077 9.779h3.959v.804h-3.959zM20.077 0h3.959v.783h-3.959z"/><path d="M22.448 0v10.583h-.783V0z"/></g><path d="M18.088 10.583h52.916" fill="none" stroke="#3d3d55" stroke-width=".282" stroke-linecap="round" stroke-dasharray=".28182084,.84546251" stroke-dashoffset=".185"/><path d="M18.088 10.583h52.916" fill="none" stroke="#705697" stroke-width=".265" stroke-dasharray=".26458333,.79375"/></svg>