<svg xmlns="http://www.w3.org/2000/svg" viewBox="0 0 76.408 42.862" height="161.999" width="288.785"><defs><marker id="a" refX="0" refY="0" orient="auto" overflow="visible"><path d="M4.616 0l-6.92 4v-8l6.92 4z" fill-rule="evenodd" stroke="#131516" stroke-width=".8pt" fill="#131516"/></marker></defs><path d="M.264.265h29.37v13.229H.263z" fill="none" stroke="#131516" stroke-width=".529" stroke-miterlimit="2.4" stroke-dasharray="3.17400012,.52900003"/><path d="M3.175 1.587h32.368v9.925H3.175z" fill="#00075c"/><path d="M3.503 2.063h31.655v9.071H3.503z" fill="#d2d5f6"/><g style="line-height:1.25" aria-label="Some" font-weight="400" font-size="11.289" font-family="sans-serif" letter-spacing="0" word-spacing="0" stroke-width=".265"><path d="M9.93 8.363q0 .48-.226.949-.22.468-.623.793-.441.353-1.031.551-.584.199-1.411.199-.888 0-1.599-.165-.705-.166-1.438-.491V8.832h.077q.623.518 1.439.8.815.28 1.532.28 1.014 0 1.576-.38.568-.38.568-1.014 0-.546-.27-.805-.265-.26-.81-.402-.414-.11-.899-.182-.48-.072-1.02-.182-1.09-.232-1.62-.788-.524-.563-.524-1.461 0-1.03.871-1.687.871-.661 2.21-.661.866 0 1.588.165.722.165 1.279.408v1.29h-.077q-.469-.397-1.235-.656-.76-.265-1.56-.265-.876 0-1.411.364-.53.364-.53.937 0 .513.265.805.265.292.932.446.353.078 1.003.188.65.11 1.103.226.915.242 1.378.733.463.49.463 1.372zM16.847 7.63q0 1.505-.771 2.376-.772.871-2.067.871-1.307 0-2.078-.871-.767-.87-.767-2.376 0-1.505.767-2.375.771-.877 2.078-.877 1.295 0 2.067.877.771.87.771 2.375zm-1.069 0q0-1.196-.468-1.775-.469-.584-1.301-.584-.844 0-1.312.584-.463.58-.463 1.775 0 1.158.468 1.759.469.595 1.307.595.826 0 1.295-.59.474-.595.474-1.764zM27.442 10.706h-1.037V7.2q0-.397-.038-.766-.033-.37-.149-.59-.127-.237-.364-.358t-.683-.121q-.436 0-.871.22-.436.215-.871.552.016.126.027.297.012.166.012.33v3.942H22.43V7.2q0-.408-.038-.771-.033-.37-.15-.59-.126-.237-.363-.353-.237-.121-.684-.121-.424 0-.854.21-.424.209-.849.534v4.597h-1.036V4.55h1.036v.684q.485-.403.965-.629.485-.226 1.03-.226.629 0 1.064.265.441.264.656.733.629-.53 1.147-.76.518-.238 1.108-.238 1.014 0 1.494.617.485.612.485 1.715zM34.591 7.735h-4.536q0 .568.17.992.171.42.469.69.287.264.678.396.397.132.87.132.63 0 1.263-.248.64-.253.91-.496h.055v1.13q-.524.22-1.07.37-.545.148-1.146.148-1.532 0-2.392-.826-.86-.833-.86-2.36 0-1.51.821-2.397.827-.888 2.172-.888 1.246 0 1.918.728.678.727.678 2.067zm-1.009-.794q-.005-.816-.413-1.262-.402-.446-1.23-.446-.832 0-1.328.49-.49.49-.556 1.218z"/></g><path d="M37.835.265h38.308v13.229H37.835z" fill="none" stroke="#131516" stroke-width=".529" stroke-miterlimit="2.4" stroke-dasharray="3.17400021,.52900005"/><path d="M40.746 1.587h33.659v9.925h-33.66z" fill="#00075c"/><path d="M41.074 2.063h32.948v9.071H41.074z" fill="#d2d5f6"/><g style="line-height:1.25" aria-label="words" font-weight="400" font-size="11.289" font-family="sans-serif" letter-spacing="0" word-spacing="0" stroke-width=".265"><path d="M49.387 4.502l-1.604 6.157h-.959l-1.582-4.746-1.57 4.746h-.954l-1.621-6.157h1.08l1.13 4.768 1.538-4.768h.855l1.576 4.768 1.07-4.768zM56.129 7.583q0 1.505-.772 2.376-.772.87-2.067.87-1.307 0-2.078-.87-.766-.871-.766-2.376t.766-2.376q.771-.876 2.078-.876 1.295 0 2.067.876.772.871.772 2.376zm-1.07 0q0-1.196-.468-1.775-.469-.584-1.301-.584-.844 0-1.312.584-.463.579-.463 1.775 0 1.158.468 1.758.469.596 1.307.596.827 0 1.295-.59.474-.595.474-1.764zM61.58 5.632h-.055q-.232-.055-.452-.077-.215-.028-.513-.028-.48 0-.926.215-.446.21-.86.546v4.37h-1.036V4.503h1.036v.91q.618-.497 1.086-.7.474-.21.965-.21.27 0 .391.016.122.011.364.05zM67.56 10.659h-1.035v-.645q-.447.386-.932.6-.485.216-1.053.216-1.102 0-1.753-.85-.645-.848-.645-2.353 0-.783.22-1.394.227-.612.607-1.042.375-.42.871-.64.502-.22 1.036-.22.485 0 .86.105.375.099.789.314V2.082h1.036zm-1.035-1.516V5.61q-.42-.188-.75-.26-.33-.071-.722-.071-.871 0-1.356.606-.485.607-.485 1.72 0 1.097.375 1.67.374.568 1.201.568.441 0 .893-.193.452-.198.844-.507zM73.999 8.884q0 .843-.7 1.383-.695.54-1.902.54-.683 0-1.257-.16-.567-.165-.953-.357V9.126h.055q.49.37 1.091.59.601.215 1.152.215.684 0 1.07-.22t.386-.695q0-.364-.21-.551-.21-.187-.805-.32-.22-.05-.578-.115-.353-.067-.645-.144-.81-.215-1.152-.628-.337-.42-.337-1.025 0-.38.155-.717.16-.336.48-.6.308-.26.782-.409.48-.154 1.07-.154.55 0 1.113.138.568.132.942.325v1.108h-.055q-.397-.292-.964-.49-.568-.205-1.114-.205-.567 0-.959.22-.391.216-.391.646 0 .38.237.573.231.193.75.314.286.066.639.133.358.066.595.12.722.166 1.114.569.391.407.391 1.08z"/></g><path d="M61.983 46.402v9.26" fill="#131516" stroke="#131516" stroke-width=".265" marker-end="url(#a)" transform="translate(-24.02 -30.262)"/><path d="M32.808 29.369h38.176v13.229H32.808z" fill="none" stroke="#131516" stroke-width=".529" stroke-miterlimit="2.4" stroke-dasharray="3.17400016,.52900003"/><path d="M3.44 29.369h29.368v13.229H3.44z" fill="none" stroke="#131516" stroke-width=".529" stroke-miterlimit="2.4" stroke-dasharray="3.17400012,.52900003"/><path d="M6.35 30.692h32.368v9.924H6.35z" fill="#00075c"/><path d="M6.678 31.167h31.655v9.071H6.678z" fill="#d2d5f6"/><g style="line-height:1.25" aria-label="Some" font-weight="400" font-size="11.289" font-family="sans-serif" letter-spacing="0" word-spacing="0" stroke-width=".265"><path d="M13.105 37.468q0 .48-.226.948-.22.468-.623.793-.441.353-1.031.552-.584.198-1.411.198-.888 0-1.599-.165-.705-.166-1.438-.49v-1.368h.077q.623.518 1.439.8.815.28 1.532.28 1.014 0 1.576-.38.568-.38.568-1.014 0-.546-.27-.805-.265-.259-.81-.402-.414-.11-.899-.182-.48-.072-1.02-.182-1.09-.232-1.62-.788-.524-.563-.524-1.461 0-1.03.871-1.687.871-.661 2.21-.661.866 0 1.588.165.722.166 1.279.408v1.29h-.077q-.469-.397-1.235-.656-.76-.265-1.56-.265-.876 0-1.411.364-.53.364-.53.937 0 .513.265.805.265.292.932.447.353.077 1.003.187.65.11 1.103.226.915.242 1.378.733.463.49.463 1.373zM20.022 36.734q0 1.505-.771 2.376-.772.871-2.067.871-1.307 0-2.078-.87-.767-.872-.767-2.377 0-1.504.767-2.375.771-.877 2.078-.877 1.295 0 2.067.877.771.87.771 2.375zm-1.069 0q0-1.196-.468-1.774-.469-.585-1.301-.585-.844 0-1.312.585-.463.578-.463 1.774 0 1.158.468 1.759.469.595 1.307.595.826 0 1.295-.59.474-.595.474-1.764zM30.617 39.81H29.58v-3.505q0-.397-.038-.767-.033-.369-.149-.59-.127-.237-.364-.358t-.683-.121q-.436 0-.871.22-.436.215-.871.552.016.126.027.297.012.166.012.331v3.941h-1.037v-3.505q0-.408-.038-.772-.033-.37-.15-.59-.126-.237-.363-.353-.237-.121-.683-.121-.425 0-.855.21-.424.209-.849.534v4.597h-1.036v-6.157h1.036v.684q.485-.403.965-.629.485-.226 1.03-.226.629 0 1.064.265.441.264.656.733.629-.53 1.147-.76.518-.238 1.108-.238 1.014 0 1.494.618.485.611.485 1.714zM37.766 36.84H33.23q0 .567.17.991.171.42.469.69.287.264.678.396.397.133.87.133.63 0 1.263-.248.64-.254.91-.497h.055v1.13q-.524.22-1.07.37-.545.149-1.146.149-1.532 0-2.392-.827-.86-.833-.86-2.36 0-1.51.821-2.397.827-.888 2.172-.888 1.246 0 1.918.728.678.727.678 2.067zm-1.009-.795q-.005-.815-.413-1.262-.402-.446-1.23-.446-.832 0-1.328.49-.49.49-.556 1.218z"/></g><path d="M35.719 30.692H69.49v9.924H35.72z" fill="#00075c"/><path d="M36.08 31h32.948v9.071H36.08z" fill="#d2d5f6"/><g style="line-height:1.25" aria-label="words" font-weight="400" font-size="11.289" font-family="sans-serif" letter-spacing="0" word-spacing="0" stroke-width=".265"><path d="M44.36 33.606l-1.604 6.157h-.959l-1.582-4.746-1.57 4.746h-.955l-1.62-6.157h1.08l1.13 4.768 1.538-4.768h.855l1.576 4.768 1.07-4.768zM51.102 36.687q0 1.505-.772 2.376-.772.87-2.067.87-1.307 0-2.078-.87-.767-.871-.767-2.376t.767-2.376q.771-.876 2.078-.876 1.295 0 2.067.876.772.871.772 2.376zm-1.07 0q0-1.196-.468-1.775-.469-.584-1.301-.584-.844 0-1.312.584-.463.58-.463 1.775 0 1.158.468 1.759.469.595 1.307.595.827 0 1.295-.59.474-.595.474-1.764zM56.553 34.736h-.055q-.232-.055-.452-.077-.215-.028-.513-.028-.48 0-.926.215-.446.21-.86.546v4.371h-1.036v-6.157h1.036v.91q.618-.497 1.086-.7.474-.21.965-.21.27 0 .391.016.122.011.364.05zM62.534 39.763h-1.037v-.645q-.446.386-.931.6-.485.216-1.053.216-1.102 0-1.753-.849-.645-.849-.645-2.354 0-.782.22-1.394.227-.612.607-1.042.375-.419.871-.64.502-.22 1.036-.22.485 0 .86.105.375.099.788.314v-2.668h1.037zm-1.037-1.516v-3.533q-.418-.188-.75-.26-.33-.07-.721-.07-.871 0-1.356.605-.485.607-.485 1.72 0 1.097.374 1.67.375.568 1.202.568.441 0 .893-.193.452-.198.843-.507zM68.972 37.988q0 .843-.7 1.384-.695.54-1.902.54-.683 0-1.257-.16-.567-.165-.953-.358V38.23h.055q.49.369 1.091.59.601.214 1.152.214.684 0 1.07-.22t.386-.695q0-.363-.21-.55-.21-.188-.805-.32-.22-.05-.578-.116-.353-.066-.645-.144-.81-.215-1.152-.628-.337-.419-.337-1.025 0-.38.155-.717.16-.336.48-.6.308-.26.782-.409.48-.154 1.07-.154.55 0 1.113.138.568.132.942.325v1.108h-.055q-.397-.292-.964-.49-.568-.204-1.114-.204-.568 0-.959.22-.391.215-.391.645 0 .38.237.573.231.193.75.314.286.067.639.133.358.066.595.12.722.166 1.114.569.39.408.39 1.08z"/></g></svg>