<svg xmlns="http://www.w3.org/2000/svg" viewBox="0 0 103.188 43.338" height="163.796" width="390"><path d="M0 19.05h103.187v24.288H0z" fill="#dfdff9"/><path d="M10.583 29.633h82.021V43.32h-82.02z" fill="#705697"/><g style="line-height:1.25;-inkscape-font-specification:'Open Sans, Normal';font-variant-ligatures:normal;font-variant-caps:normal;font-variant-numeric:normal;font-feature-settings:normal;text-align:start" aria-label="Parent’s top margin" font-weight="400" font-size="4.233" font-family="Open Sans" letter-spacing="0" word-spacing="0" fill="#131516" stroke-width=".265"><path style="-inkscape-font-specification:'Open Sans, Normal';font-variant-ligatures:normal;font-variant-caps:normal;font-variant-numeric:normal;font-feature-settings:normal;text-align:start" d="M51.277 8.007q0 .46-.314.707-.311.247-.894.247h-.355v1.19h-.351V7.124h.783q1.131 0 1.131.882zm-1.563.652h.316q.467 0 .675-.151.209-.152.209-.485 0-.3-.196-.447-.196-.146-.612-.146h-.392zM53.247 10.15l-.068-.322h-.016q-.17.213-.339.29-.167.074-.42.074-.336 0-.528-.174-.19-.174-.19-.495 0-.686 1.097-.72l.384-.012v-.14q0-.268-.116-.394-.113-.128-.365-.128-.283 0-.64.174l-.106-.263q.167-.091.366-.143.2-.052.4-.052.405 0 .6.18.195.18.195.578v1.547zm-.774-.242q.32 0 .502-.176.184-.175.184-.492v-.205l-.343.015q-.41.014-.59.128-.18.112-.18.35 0 .186.111.283.114.097.316.097zM55.242 7.841q.151 0 .27.025l-.047.319q-.14-.031-.247-.031-.275 0-.471.223-.194.224-.194.557v1.216h-.343V7.883h.283l.039.42h.016q.126-.222.304-.342.178-.12.39-.12zM56.892 10.192q-.502 0-.793-.306-.289-.307-.289-.85 0-.55.269-.872.27-.323.725-.323.425 0 .673.282.248.279.248.738v.218h-1.56q.01.399.2.606.193.207.54.207.365 0 .722-.153v.306q-.181.078-.344.112-.161.035-.39.035zM56.8 8.129q-.272 0-.435.178-.161.178-.19.492h1.183q0-.325-.145-.496-.144-.174-.413-.174zM59.856 10.15V8.683q0-.277-.126-.413-.126-.137-.395-.137-.355 0-.52.192-.165.193-.165.636v1.19h-.343V7.882h.279l.055.31h.017q.105-.168.295-.259.19-.093.424-.093.408 0 .615.199.207.196.207.631v1.48zM61.632 9.908q.09 0 .175-.012.085-.015.134-.03v.264q-.055.027-.165.043-.107.019-.194.019-.657 0-.657-.693v-1.35h-.324v-.165l.324-.143.145-.484h.198v.526h.657v.267h-.657v1.334q0 .205.097.315.097.11.267.11zM62.67 7.125l.031.046q-.053.207-.154.482-.102.273-.211.509h-.252q.144-.59.21-1.037zM64.574 9.532q0 .316-.235.488t-.66.172q-.451 0-.703-.143V9.73q.163.083.349.13.188.048.361.048.269 0 .413-.085.145-.086.145-.262 0-.133-.116-.226-.113-.095-.446-.223-.316-.118-.45-.205-.132-.09-.198-.2-.064-.113-.064-.268 0-.277.225-.436.225-.162.617-.162.366 0 .715.15l-.122.279q-.34-.141-.617-.141-.244 0-.368.076-.124.077-.124.211 0 .092.046.156.047.064.15.122.104.058.397.167.402.147.543.296.142.15.142.375zM66.96 9.908q.09 0 .175-.012.085-.015.134-.03v.264q-.055.027-.165.043-.107.019-.194.019-.657 0-.657-.693v-1.35h-.324v-.165l.324-.143.145-.484h.198v.526h.657v.267h-.657v1.334q0 .205.097.315.097.11.267.11zM69.677 9.014q0 .555-.279.867-.278.31-.77.31-.303 0-.539-.142-.235-.143-.363-.41t-.128-.625q0-.554.276-.862.277-.31.769-.31.475 0 .753.316.281.316.281.856zm-1.724 0q0 .435.173.663.174.227.51.227.337 0 .51-.225.176-.228.176-.665 0-.432-.175-.655-.174-.226-.515-.226-.336 0-.508.221-.171.222-.171.66zM71.33 10.192q-.222 0-.405-.081-.182-.083-.306-.252h-.025q.025.198.025.376v.933h-.343V7.883h.279l.047.31h.017q.132-.186.308-.269.175-.083.402-.083.45 0 .694.309.246.308.246.864 0 .56-.25.87-.248.308-.69.308zm-.05-2.059q-.347 0-.502.192-.155.193-.16.613v.076q0 .478.16.685.159.205.51.205.293 0 .458-.238.168-.238.168-.656 0-.424-.168-.65-.165-.227-.466-.227zM76.853 10.15V8.675q0-.27-.115-.405-.116-.137-.36-.137-.32 0-.472.184-.153.184-.153.567v1.266h-.343V8.675q0-.27-.116-.405-.115-.137-.361-.137-.322 0-.473.195-.149.192-.149.633v1.19h-.343V7.882h.28l.055.31h.017q.097-.165.272-.259.178-.093.397-.093.53 0 .694.385h.016q.101-.178.293-.281.192-.104.438-.104.384 0 .574.199.192.196.192.631v1.48zM79.292 10.15l-.068-.322h-.016q-.17.213-.34.29-.166.074-.418.074-.337 0-.529-.174-.19-.174-.19-.495 0-.686 1.097-.72l.384-.012v-.14q0-.268-.116-.394-.113-.128-.365-.128-.283 0-.64.174l-.106-.263q.167-.091.366-.143.2-.052.4-.052.405 0 .6.18.195.18.195.578v1.547zm-.774-.242q.32 0 .502-.176.183-.175.183-.492v-.205l-.342.015q-.41.014-.591.128-.18.112-.18.35 0 .186.112.283.113.097.316.097zM81.287 7.841q.15 0 .27.025l-.047.319q-.14-.031-.248-.031-.274 0-.47.223-.195.224-.195.557v1.216h-.342V7.883h.283l.039.42h.016q.126-.222.304-.342.177-.12.39-.12zM83.833 7.883V8.1l-.419.05q.058.072.103.19.046.116.046.263 0 .333-.227.531-.227.2-.624.2-.101 0-.19-.017-.219.115-.219.291 0 .093.077.139.076.043.262.043h.4q.368 0 .564.156.198.155.198.45 0 .377-.301.574-.302.198-.88.198-.444 0-.685-.165-.24-.166-.24-.468 0-.207.132-.358.132-.15.372-.205-.087-.039-.147-.122-.057-.082-.057-.192 0-.124.066-.217t.208-.18q-.175-.073-.287-.247-.11-.173-.11-.397 0-.372.224-.573.223-.203.632-.203.177 0 .32.042zM82.03 10.53q0 .184.154.28.155.095.444.095.432 0 .638-.13.21-.13.21-.35 0-.185-.115-.257-.113-.07-.427-.07h-.41q-.234 0-.364.111-.13.112-.13.321zm.185-1.922q0 .238.135.36.134.122.373.122.502 0 .502-.488 0-.511-.508-.511-.241 0-.372.13-.13.13-.13.387zM84.645 10.15h-.343V7.883h.343zm-.372-2.882q0-.118.058-.172.058-.055.145-.055.082 0 .142.055.06.056.06.172 0 .116-.06.174-.06.056-.142.056-.087 0-.145-.056-.058-.058-.058-.174zM86.925 10.15V8.683q0-.277-.126-.413-.126-.137-.395-.137-.355 0-.52.192-.165.193-.165.636v1.19h-.343V7.882h.279l.056.31h.016q.105-.168.295-.259.19-.093.424-.093.409 0 .615.199.207.196.207.631v1.48z"/></g><g fill="#a2000d"><path d="M45.244 18.124h2.381v.397h-2.381zM45.244 0h2.381v.397h-2.381z"/><path d="M46.633 0v18.52h-.397V0z"/></g><g style="line-height:1.25;-inkscape-font-specification:'Open Sans, Normal';font-variant-ligatures:normal;font-variant-caps:normal;font-variant-numeric:normal;font-feature-settings:normal;text-align:start" aria-label="Child’s top margin" font-weight="400" font-size="4.233" font-family="Open Sans" letter-spacing="0" word-spacing="0" fill="#131516" stroke-width=".265"><path style="-inkscape-font-specification:'Open Sans, Normal';font-variant-ligatures:normal;font-variant-caps:normal;font-variant-numeric:normal;font-feature-settings:normal;text-align:start" d="M50.656 22.524q-.498 0-.787.333-.287.332-.287.909 0 .594.277.918.278.323.793.323.316 0 .72-.114v.309q-.314.118-.774.118-.667 0-1.03-.406-.362-.405-.362-1.152 0-.468.174-.82.175-.351.503-.542.33-.19.777-.19.475 0 .83.174l-.149.302q-.342-.162-.685-.162zM53.528 25.278v-1.467q0-.277-.126-.414-.126-.136-.394-.136-.357 0-.523.194-.163.195-.163.638v1.185h-.343v-3.22h.343v.975q0 .176-.016.292h.02q.102-.163.287-.256.188-.096.428-.096.415 0 .622.199.208.197.208.627v1.48zM54.916 25.278h-.343v-2.267h.343zm-.372-2.882q0-.118.058-.172.058-.056.145-.056.082 0 .142.056.06.056.06.172 0 .116-.06.174-.06.056-.142.056-.087 0-.145-.056-.058-.058-.058-.174zM55.99 25.278h-.343v-3.22h.343zM58.261 24.974h-.018q-.238.346-.71.346-.445 0-.692-.305-.246-.304-.246-.864 0-.561.248-.871.248-.31.69-.31.46 0 .706.334h.027l-.015-.163-.008-.16v-.922h.343v3.22h-.28zm-.685.058q.35 0 .508-.19.159-.193.159-.619v-.072q0-.482-.161-.687-.16-.207-.51-.207-.302 0-.463.236-.159.233-.159.662 0 .434.16.656.158.221.466.221zM59.59 22.253l.03.046q-.053.207-.155.482-.1.273-.21.509h-.252q.144-.59.21-1.037zM61.493 24.66q0 .316-.235.488-.236.172-.66.172-.451 0-.703-.143v-.319q.163.083.349.13.188.048.361.048.269 0 .413-.085.145-.087.145-.262 0-.133-.116-.226-.113-.095-.446-.223-.316-.118-.45-.205-.132-.09-.198-.201-.064-.112-.064-.267 0-.277.225-.436.225-.162.617-.162.366 0 .715.15l-.122.278q-.34-.14-.617-.14-.244 0-.368.076-.124.077-.124.211 0 .091.045.156.048.064.151.122.103.058.397.167.402.147.543.296.142.15.142.375zM63.878 25.036q.091 0 .176-.012.085-.015.134-.03v.264q-.056.026-.165.043-.107.019-.194.019-.657 0-.657-.694v-1.349h-.324v-.165l.324-.143.145-.484h.198v.526h.657v.266h-.657v1.335q0 .205.097.314.097.11.266.11zM66.596 24.142q0 .555-.279.867-.278.31-.77.31-.304 0-.539-.142-.235-.143-.363-.41t-.128-.625q0-.554.276-.862.277-.31.769-.31.474 0 .753.316.281.316.281.856zm-1.724 0q0 .435.173.662.174.228.51.228.337 0 .51-.226.176-.227.176-.664 0-.432-.176-.656-.173-.225-.514-.225-.336 0-.508.221-.171.222-.171.66zM68.248 25.32q-.22 0-.405-.081-.181-.083-.305-.253h-.025q.025.2.025.377v.933h-.343v-3.285h.279l.047.31h.017q.132-.186.308-.269.175-.083.402-.083.45 0 .694.308.246.309.246.865 0 .559-.25.87-.248.308-.69.308zm-.05-2.06q-.346 0-.501.193-.155.193-.16.613v.076q0 .478.16.685.159.205.51.205.293 0 .458-.238.168-.238.168-.656 0-.424-.168-.65-.165-.227-.466-.227zM73.772 25.278v-1.475q0-.271-.115-.406-.116-.136-.36-.136-.32 0-.473.184-.152.184-.152.567v1.266h-.343v-1.475q0-.271-.116-.406-.115-.136-.361-.136-.322 0-.473.194-.149.193-.149.634v1.19h-.343V23.01h.28l.055.31h.016q.097-.166.273-.259.178-.093.397-.093.53 0 .693.385h.017q.101-.178.293-.281.192-.104.438-.104.384 0 .574.199.192.196.192.63v1.48zM76.211 25.278l-.068-.323h-.017q-.169.214-.338.29-.167.075-.42.075-.336 0-.528-.174-.19-.174-.19-.495 0-.687 1.097-.72l.384-.012v-.14q0-.268-.116-.394-.114-.128-.366-.128-.282 0-.64.174l-.105-.263q.167-.091.365-.143.2-.052.401-.052.405 0 .599.18.196.18.196.578v1.547zm-.774-.242q.32 0 .502-.176.183-.176.183-.492v-.205l-.342.015q-.41.014-.591.128-.18.112-.18.35 0 .186.112.283.113.097.316.097zM78.206 22.97q.15 0 .27.024l-.047.319q-.14-.031-.248-.031-.274 0-.47.223-.195.224-.195.557v1.216h-.343v-2.267h.283l.04.42h.016q.126-.222.304-.342.177-.12.39-.12zM80.752 23.01v.218l-.419.05q.058.072.103.19.046.116.046.263 0 .333-.227.531-.228.199-.624.199-.101 0-.19-.017-.219.116-.219.292 0 .093.076.139.077.043.263.043h.4q.368 0 .564.155.198.156.198.451 0 .377-.301.574-.302.198-.88.198-.444 0-.685-.165-.24-.166-.24-.468 0-.207.132-.358.132-.15.372-.205-.087-.039-.147-.122-.058-.083-.058-.192 0-.124.067-.217.066-.094.208-.18-.175-.073-.287-.247-.11-.173-.11-.397 0-.372.224-.573.223-.203.632-.203.177 0 .32.042zm-1.805 2.649q0 .184.155.28.155.094.444.094.432 0 .638-.13.209-.128.209-.35 0-.184-.114-.256-.113-.07-.427-.07h-.411q-.233 0-.364.111-.13.112-.13.32zm.186-1.922q0 .238.134.36.135.122.374.122.502 0 .502-.488 0-.511-.508-.511-.242 0-.372.13t-.13.387zM81.564 25.278h-.343v-2.267h.343zm-.372-2.882q0-.118.058-.172.058-.056.145-.056.082 0 .142.056.06.056.06.172 0 .116-.06.174-.06.056-.142.056-.087 0-.145-.056-.058-.058-.058-.174zM83.844 25.278v-1.467q0-.277-.126-.414-.126-.136-.395-.136-.355 0-.52.192-.165.193-.165.636v1.19h-.343V23.01h.279l.055.31h.017q.105-.168.295-.259.19-.093.424-.093.409 0 .615.199.207.196.207.63v1.48z"/></g><g fill="#a2000d"><path d="M45.244 29.236h2.381v.397h-2.381zM45.244 19.05h2.381v.397h-2.381z"/><path d="M46.633 19.05v10.583h-.397V19.05z"/></g><g fill="#a2000d"><path d="M10.186 37.667v-2.381h.397v2.381zM0 37.667v-2.381h.397v2.381z"/><path d="M0 36.278h10.583v.397H0z"/></g><g fill="#a2000d"><path d="M102.79 37.667v-2.381h.398v2.381zM92.604 37.667v-2.381h.397v2.381z"/><path d="M92.604 36.278h10.584v.397H92.604z"/></g><path d="M0 18.52h103.187v.53H0z" fill="#686892"/></svg>