<svg xmlns="http://www.w3.org/2000/svg" viewBox="0 0 105.498 64.294" height="243" width="398.733"><defs><marker id="a" refX="0" refY="0" orient="auto" overflow="visible"><path d="M2.308 0l-3.46 2v-4z" fill="#131516" fill-rule="evenodd" stroke="#131516" stroke-width=".5332"/></marker><marker id="b" refX="0" refY="0" orient="auto" overflow="visible"><path d="M2.308 0l-3.46 2v-4z" fill-rule="evenodd" stroke="#000" stroke-width=".5332"/></marker></defs><path d="M15.54 5.556h87.312V16.14H15.54z" fill="#dfdff9"/><path d="M19.509 10.848h79.375v5.292H19.509z" fill="#705697"/><path d="M19.509 8.202h79.375" fill="#374047" stroke="#131516" stroke-width=".265" stroke-dasharray=".2645833,.79374991"/><g style="line-height:1.25;font-variant-ligatures:normal;font-variant-position:normal;font-variant-caps:normal;font-variant-numeric:normal;font-variant-alternates:normal;font-feature-settings:normal;text-indent:0;text-align:start;text-decoration-line:none;text-decoration-style:solid;text-decoration-color:#000;text-transform:none;text-orientation:mixed;white-space:normal;shape-padding:0" aria-label="Second child" font-weight="400" font-size="4.013" font-family="Open Sans" letter-spacing="0" word-spacing="0" fill="#ececfb" stroke-width=".265"><path style="line-height:1.25;-inkscape-font-specification:'Open Sans';font-variant-ligatures:normal;font-variant-position:normal;font-variant-caps:normal;font-variant-numeric:normal;font-variant-alternates:normal;font-feature-settings:normal;text-indent:0;text-align:start;text-decoration-line:none;text-decoration-style:solid;text-decoration-color:#000;text-transform:none;text-orientation:mixed;white-space:normal;shape-padding:0" d="M24.006 14.39q0 .377-.275.589-.274.212-.744.212-.51 0-.784-.132v-.321q.176.074.384.118.208.043.412.043.333 0 .501-.126.169-.127.169-.352 0-.15-.061-.243-.059-.096-.2-.177-.139-.08-.425-.182-.4-.143-.572-.339-.17-.196-.17-.511 0-.332.248-.527.249-.196.658-.196.428 0 .786.156l-.104.29q-.354-.149-.69-.149-.264 0-.413.114-.149.114-.149.316 0 .148.055.244.055.095.184.175.132.078.4.174.45.16.62.345.17.184.17.478zM25.45 15.19q-.476 0-.753-.29-.274-.29-.274-.805 0-.519.255-.825.257-.305.688-.305.403 0 .638.266.236.265.236.7v.205h-1.48q.01.379.19.575.182.196.512.196.346 0 .685-.145v.29q-.172.074-.327.105-.153.034-.37.034zm-.088-1.953q-.259 0-.414.169-.153.168-.18.466h1.123q0-.308-.137-.47-.138-.165-.392-.165zM27.65 15.19q-.466 0-.723-.285-.254-.288-.254-.814 0-.538.258-.832.26-.294.74-.294.156 0 .31.033.155.033.243.078l-.1.277q-.107-.043-.235-.07-.127-.03-.225-.03-.654 0-.654.834 0 .396.158.608.161.212.474.212.269 0 .551-.116v.288q-.215.112-.543.112zM30.558 14.076q0 .525-.264.82-.265.295-.731.295-.288 0-.512-.136-.223-.135-.345-.388-.121-.252-.121-.591 0-.525.263-.817.262-.294.728-.294.451 0 .716.3.266.3.266.81zm-1.636 0q0 .411.165.627.164.215.484.215.319 0 .484-.213.166-.216.166-.63 0-.409-.166-.62-.165-.214-.488-.214-.32 0-.482.21-.163.21-.163.625zM32.596 15.151v-1.389q0-.262-.12-.392-.119-.129-.374-.129-.337 0-.494.182-.156.182-.156.602v1.126h-.326v-2.147h.265l.053.294h.016q.1-.159.28-.245.18-.088.401-.088.388 0 .584.188.196.186.196.597v1.401zM35.05 14.863h-.018q-.226.328-.674.328-.422 0-.657-.288-.233-.288-.233-.82 0-.53.235-.824.235-.294.655-.294.437 0 .67.317h.025l-.014-.155-.007-.15v-.874h.325v3.048h-.265zm-.651.055q.333 0 .482-.18.15-.182.15-.586v-.068q0-.457-.152-.651-.151-.196-.484-.196-.286 0-.44.223-.15.222-.15.627 0 .412.15.622.152.21.444.21zM37.95 15.19q-.467 0-.724-.285-.255-.288-.255-.814 0-.538.26-.832.26-.294.74-.294.155 0 .31.033.154.033.242.078l-.1.277q-.107-.043-.235-.07-.127-.03-.225-.03-.654 0-.654.834 0 .396.158.608.16.212.474.212.269 0 .551-.116v.288q-.216.112-.543.112zM40.473 15.151v-1.389q0-.262-.12-.392-.119-.129-.374-.129-.339 0-.495.184-.155.184-.155.604v1.122h-.326v-3.048h.326v.922q0 .167-.016.277h.02q.096-.155.272-.243.178-.09.406-.09.393 0 .59.188.197.186.197.593v1.401zM41.79 15.151h-.325v-2.147h.325zm-.353-2.73q0-.11.055-.162.055-.053.137-.053.079 0 .135.053.057.053.057.163 0 .11-.057.165-.056.052-.135.052-.082 0-.137-.052-.055-.055-.055-.165zM42.809 15.151h-.326v-3.048h.326zM44.964 14.863h-.017q-.226.328-.675.328-.42 0-.656-.288-.233-.288-.233-.82 0-.53.235-.824.235-.294.654-.294.437 0 .67.317h.026l-.014-.155-.007-.15v-.874h.325v3.048h-.265zm-.65.055q.333 0 .482-.18.15-.182.15-.586v-.068q0-.457-.152-.651-.151-.196-.484-.196-.286 0-.44.223-.15.222-.15.627 0 .412.15.622.152.21.444.21z"/></g><path d="M27.781-8.858l-3.969 12.17" fill="#131516" stroke="#131516" stroke-width=".529" marker-end="url(#a)" transform="translate(30.092 21.823)"/><g fill="#a2000d"><path d="M58.005 10.451h2.382v.397h-2.382zM58.005 5.556h2.382v.397h-2.382z"/><path d="M59.395 5.556v5.292h-.397V5.556z"/></g><g fill="#a2000d"><path d="M58.005 5.027h2.382v.265h-2.382zM58.005 0h2.382v.265h-2.382z"/><path d="M59.328 0v5.292h-.264V0z"/></g><path d="M15.54 5.292h87.312v.264H15.54z" fill="#3d3d55"/><path d="M26.123 45.773h79.375v15.875H26.123z" fill="#dfdff9"/><path d="M26.123 61.648h79.375v2.646H26.123z" fill="#705697"/><path d="M26.123 53.71h79.375" fill="none" stroke="#374047" stroke-width=".794" stroke-dasharray=".79374992,2.38124978"/><path d="M26.123 44.98h79.375v.793H26.123z" fill="#3d3d55"/><g fill="#a2000d"><path d="M50.994 60.854h3.969v.794h-3.97zM50.994 45.773h3.969v.794h-3.97z"/><path d="M53.375 45.773v15.875h-.794V45.773z"/></g><g style="line-height:1.25;-inkscape-font-specification:'Open Sans, Normal';font-variant-ligatures:normal;font-variant-caps:normal;font-variant-numeric:normal;font-feature-settings:normal;text-align:start" aria-label="Collapsed margin" font-weight="400" font-size="4.233" font-family="Open Sans" letter-spacing="0" word-spacing="0" stroke-width=".265"><path style="-inkscape-font-specification:'Open Sans, Normal';font-variant-ligatures:normal;font-variant-caps:normal;font-variant-numeric:normal;font-feature-settings:normal;text-align:start" d="M56.464 48.426q-.498 0-.787.333-.288.33-.288.907 0 .593.277.918.28.322.794.322.316 0 .722-.113v.308q-.315.118-.776.118-.667 0-1.031-.406-.362-.405-.362-1.15 0-.468.174-.82.176-.35.504-.541.331-.19.777-.19.476 0 .831.173l-.148.302q-.344-.161-.687-.161zM59.745 50.042q0 .554-.28.867-.278.31-.77.31-.304 0-.54-.143-.235-.143-.364-.41-.128-.266-.128-.624 0-.554.277-.862.277-.31.77-.31.475 0 .754.317.28.316.28.855zm-1.726 0q0 .435.173.662.174.227.511.227t.51-.225q.176-.227.176-.664 0-.432-.175-.655-.174-.225-.515-.225-.337 0-.509.221-.171.221-.171.66zM60.687 51.177h-.343v-3.216h.343zM61.762 51.177h-.343v-3.216h.343zM63.887 51.177l-.068-.322h-.017q-.17.213-.339.29-.167.074-.42.074-.336 0-.528-.174-.19-.174-.19-.494 0-.686 1.097-.72l.385-.012v-.14q0-.267-.116-.393-.114-.128-.366-.128-.283 0-.64.173l-.106-.262q.167-.091.366-.143.2-.051.4-.051.406 0 .6.18.196.18.196.576v1.546zm-.775-.242q.32 0 .502-.175.184-.176.184-.492v-.205l-.343.015q-.41.014-.591.128-.18.111-.18.35 0 .185.112.282.113.097.316.097zM65.905 51.219q-.222 0-.406-.081-.181-.083-.305-.252h-.025q.025.198.025.376v.932h-.344v-3.282h.28l.047.31h.017q.132-.186.308-.269.175-.083.403-.083.45 0 .694.308.246.308.246.864 0 .559-.25.869-.248.308-.69.308zm-.05-2.057q-.347 0-.502.192-.155.192-.16.612v.076q0 .478.16.685.159.204.51.204.294 0 .46-.237.167-.238.167-.656 0-.423-.168-.649-.165-.227-.467-.227zM68.908 50.56q0 .315-.236.487-.235.172-.661.172-.45 0-.703-.143v-.318q.163.082.35.13.188.047.361.047.269 0 .414-.084.144-.087.144-.263 0-.132-.115-.225-.114-.095-.447-.223-.316-.118-.45-.205-.133-.089-.199-.2-.064-.112-.064-.267 0-.277.225-.436.226-.162.618-.162.366 0 .715.15l-.121.278q-.342-.14-.619-.14-.243 0-.367.076-.124.077-.124.211 0 .091.045.155.048.064.15.122.104.058.398.167.403.147.543.296.143.149.143.374zM70.421 51.219q-.502 0-.794-.306-.289-.306-.289-.85 0-.548.269-.87.27-.323.725-.323.426 0 .674.282.248.279.248.737v.218h-1.56q.01.398.2.605.192.207.54.207.365 0 .723-.153v.306q-.182.078-.345.111-.161.036-.39.036zm-.093-2.061q-.273 0-.436.177-.161.178-.19.492h1.184q0-.324-.144-.496-.145-.173-.414-.173zM73.38 50.873h-.02q-.237.346-.71.346-.445 0-.693-.304-.246-.304-.246-.864t.248-.87q.248-.31.69-.31.461 0 .707.334h.027l-.014-.163-.009-.16v-.921h.344v3.216h-.28zm-.687.058q.351 0 .508-.19.16-.192.16-.618v-.072q0-.482-.162-.687-.159-.206-.51-.206-.302 0-.463.235-.16.234-.16.662 0 .434.16.655.159.221.467.221zM78.42 51.177v-1.474q0-.27-.115-.405-.116-.136-.36-.136-.32 0-.473.184-.153.184-.153.566v1.265h-.343v-1.474q0-.27-.116-.405-.116-.136-.362-.136-.322 0-.473.194-.149.192-.149.633v1.188h-.343v-2.265h.279l.056.31h.016q.098-.166.273-.259.178-.093.397-.093.531 0 .695.385h.016q.101-.178.294-.281.192-.104.438-.104.384 0 .575.199.192.196.192.63v1.478zM80.862 51.177l-.068-.322h-.017q-.17.213-.339.29-.167.074-.42.074-.336 0-.529-.174-.19-.174-.19-.494 0-.686 1.098-.72l.384-.012v-.14q0-.267-.116-.393-.113-.128-.365-.128-.284 0-.641.173l-.106-.262q.168-.091.366-.143.2-.051.401-.051.405 0 .6.18.196.18.196.576v1.546zm-.775-.242q.32 0 .502-.175.184-.176.184-.492v-.205l-.343.015q-.41.014-.591.128-.18.111-.18.35 0 .185.111.282.114.097.317.097zM82.859 48.87q.15 0 .27.025l-.047.319q-.14-.031-.248-.031-.275 0-.471.223-.195.223-.195.556v1.215h-.343v-2.265h.283l.04.42h.016q.126-.222.304-.342.178-.12.39-.12zM85.407 48.912v.217l-.42.05q.059.072.104.19.046.115.046.262 0 .333-.228.531-.227.199-.624.199-.101 0-.19-.017-.22.116-.22.292 0 .093.077.138.077.044.263.044h.4q.369 0 .565.155.198.155.198.45 0 .376-.301.573-.302.198-.881.198-.444 0-.686-.165-.24-.166-.24-.467 0-.207.132-.358.133-.15.372-.205-.087-.039-.146-.121-.058-.083-.058-.193 0-.124.066-.217t.209-.18q-.176-.072-.288-.246-.11-.173-.11-.396 0-.373.224-.573.223-.203.632-.203.178 0 .32.042zm-1.806 2.646q0 .184.155.279.155.095.444.095.432 0 .639-.13.209-.129.209-.35 0-.184-.114-.256-.114-.07-.428-.07h-.411q-.234 0-.364.111-.13.112-.13.32zm.186-1.92q0 .237.134.359t.374.122q.503 0 .503-.488 0-.51-.509-.51-.242 0-.372.13t-.13.386zM86.22 51.177h-.343v-2.265h.343zm-.372-2.88q0-.117.057-.17.058-.057.145-.057.083 0 .143.056.06.056.06.172 0 .116-.06.173-.06.056-.143.056-.087 0-.145-.056-.057-.057-.057-.173zM88.502 51.177v-1.465q0-.277-.126-.414-.127-.136-.395-.136-.356 0-.521.192-.165.192-.165.635v1.188h-.344v-2.265h.28l.055.31h.017q.105-.168.295-.259.19-.093.424-.093.41 0 .616.199.207.196.207.63v1.478z"/></g><g style="line-height:1.25;-inkscape-font-specification:'Open Sans, Normal';font-variant-ligatures:normal;font-variant-caps:normal;font-variant-numeric:normal;font-feature-settings:normal;text-align:start" aria-label="20 px" font-weight="400" font-size="4.233" font-family="Open Sans" letter-spacing="0" word-spacing="0" fill="#131516" stroke-width=".265"><path style="-inkscape-font-specification:'Open Sans, Normal';font-variant-ligatures:normal;font-variant-caps:normal;font-variant-numeric:normal;font-feature-settings:normal;text-align:start" d="M42.724 52.162h-1.986v-.295l.796-.8q.364-.368.48-.525.115-.157.173-.306.058-.15.058-.32 0-.243-.147-.383-.147-.143-.407-.143-.188 0-.358.062-.167.062-.374.226l-.182-.234q.418-.347.91-.347.426 0 .667.219.242.217.242.585 0 .287-.161.568-.161.281-.604.711l-.661.647v.017h1.554zM45.163 50.647q0 .783-.248 1.17-.246.387-.754.387-.488 0-.742-.395-.254-.397-.254-1.162 0-.79.246-1.172.246-.382.75-.382.492 0 .746.399.256.398.256 1.155zm-1.651 0q0 .66.155.961.155.3.494.3.343 0 .496-.304.155-.306.155-.957t-.155-.953q-.153-.304-.496-.304-.339 0-.494.3-.155.298-.155.957zM47.894 52.204q-.221 0-.405-.081-.182-.083-.306-.252h-.025q.025.198.025.376v.932h-.343v-3.282h.279l.047.31h.017q.132-.186.308-.269.176-.083.403-.083.45 0 .695.308.246.308.246.864 0 .558-.25.869-.249.308-.69.308zm-.05-2.057q-.347 0-.502.192-.155.192-.159.612v.076q0 .478.16.685.158.204.51.204.293 0 .459-.238.167-.237.167-.655 0-.424-.167-.649-.166-.227-.468-.227zM49.982 51.003l-.788-1.106h.39l.598.868.596-.868h.386l-.787 1.106.828 1.16h-.388l-.635-.919-.64.918h-.39z"/></g><g fill="#a2000d"><path d="M51.83 44.582h2.382v.397H51.83zM51.854 29.104h2.381v.397h-2.381z"/><path d="M53.243 29.104V44.98h-.397V29.104z"/></g><g style="line-height:1.25;-inkscape-font-specification:'Open Sans, Normal';font-variant-ligatures:normal;font-variant-caps:normal;font-variant-numeric:normal;font-feature-settings:normal;text-align:start" aria-label="Parent’s top margin" font-weight="400" font-size="4.233" font-family="Open Sans" letter-spacing="0" word-spacing="0" stroke-width=".265"><path style="-inkscape-font-specification:'Open Sans, Normal';font-variant-ligatures:normal;font-variant-caps:normal;font-variant-numeric:normal;font-feature-settings:normal;text-align:start" d="M56.91 35.945q0 .459-.313.707-.312.246-.895.246h-.356v1.189h-.351v-3.022h.783q1.133 0 1.133.88zm-1.564.651h.316q.467 0 .676-.15.209-.152.209-.484 0-.3-.196-.447-.197-.147-.612-.147h-.393zM58.883 38.087l-.068-.323h-.017q-.17.213-.339.29-.167.074-.42.074-.336 0-.529-.174-.19-.173-.19-.494 0-.686 1.098-.72l.384-.011v-.141q0-.267-.116-.393-.113-.128-.365-.128-.284 0-.641.174l-.106-.263q.168-.09.366-.142.2-.052.401-.052.405 0 .6.18.196.18.196.576v1.547zm-.775-.242q.32 0 .502-.176.184-.176.184-.492v-.205l-.343.015q-.41.014-.591.128-.18.112-.18.35 0 .185.111.283.114.097.317.097zM60.88 35.78q.15 0 .27.025l-.047.318q-.14-.031-.248-.031-.275 0-.472.223-.194.223-.194.556v1.216h-.343V35.82h.283l.04.42h.016q.126-.221.304-.341.178-.12.39-.12zM62.531 38.128q-.502 0-.794-.306-.289-.306-.289-.85 0-.547.269-.87.27-.322.725-.322.426 0 .674.28.248.28.248.739v.217h-1.56q.01.399.2.605.192.207.54.207.365 0 .723-.153v.306q-.182.079-.345.112-.161.035-.39.035zm-.093-2.06q-.273 0-.436.177-.161.178-.19.492h1.184q0-.325-.144-.496-.145-.174-.414-.174zM65.497 38.087V36.62q0-.277-.126-.413-.126-.137-.394-.137-.356 0-.521.192-.166.193-.166.635v1.189h-.343V35.82h.28l.055.31h.017q.105-.167.295-.258.19-.093.424-.093.41 0 .616.198.207.197.207.63v1.479zM67.275 37.845q.091 0 .176-.013.085-.014.134-.029v.263q-.056.027-.165.043-.108.019-.195.019-.657 0-.657-.693v-1.347h-.324v-.166l.324-.142.145-.484h.198v.525h.658v.267h-.658v1.333q0 .205.097.314.098.11.267.11zM68.315 35.065l.03.045q-.053.207-.154.482-.102.272-.211.508h-.252q.144-.589.21-1.035zM70.22 37.469q0 .316-.235.487-.236.172-.661.172-.451 0-.703-.143v-.318q.163.083.35.13.187.048.36.048.27 0 .414-.085.145-.087.145-.263 0-.132-.116-.225-.114-.095-.446-.223-.317-.118-.451-.205-.132-.089-.198-.2-.064-.112-.064-.267 0-.277.225-.436.225-.161.618-.161.366 0 .715.149l-.122.279q-.34-.14-.618-.14-.244 0-.368.076t-.124.21q0 .091.046.155.047.064.15.122.104.058.397.168.403.147.544.295.143.15.143.375zM72.608 37.845q.091 0 .176-.013.085-.014.134-.029v.263q-.056.027-.165.043-.108.019-.195.019-.657 0-.657-.693v-1.347h-.324v-.166l.324-.142.145-.484h.198v.525h.658v.267h-.658v1.333q0 .205.097.314.098.11.267.11zM75.328 36.952q0 .554-.279.866-.279.31-.77.31-.305 0-.54-.143-.236-.142-.364-.409t-.128-.624q0-.554.277-.862.277-.31.769-.31.475 0 .754.316.281.316.281.856zm-1.726 0q0 .434.174.661.174.228.51.228.337 0 .511-.226.176-.227.176-.663 0-.432-.176-.655-.174-.226-.515-.226-.337 0-.508.221-.172.222-.172.66zM76.982 38.128q-.221 0-.405-.08-.182-.083-.306-.253h-.025q.025.199.025.376v.933h-.343V35.82h.279l.047.31h.017q.132-.186.308-.269.176-.082.403-.082.45 0 .694.308.246.308.246.864 0 .558-.25.868-.248.308-.69.308zm-.05-2.057q-.347 0-.502.192-.155.193-.16.612v.077q0 .477.16.684.16.205.51.205.294 0 .46-.238.167-.238.167-.655 0-.424-.167-.65-.166-.227-.468-.227zM82.511 38.087v-1.474q0-.271-.115-.405-.116-.137-.36-.137-.32 0-.473.184-.153.184-.153.567v1.265h-.344v-1.474q0-.271-.115-.405-.116-.137-.362-.137-.322 0-.473.194-.15.193-.15.633v1.189h-.342V35.82h.279l.056.31h.016q.097-.165.273-.258.178-.093.397-.093.531 0 .694.384h.017q.101-.178.293-.28.193-.104.439-.104.384 0 .574.198.192.197.192.63v1.479zM84.953 38.087l-.069-.323h-.016q-.17.213-.34.29-.167.074-.419.074-.337 0-.529-.174-.19-.173-.19-.494 0-.686 1.097-.72l.385-.011v-.141q0-.267-.116-.393-.114-.128-.366-.128-.283 0-.64.174l-.106-.263q.168-.09.366-.142.2-.052.401-.052.405 0 .6.18.196.18.196.576v1.547zm-.776-.242q.32 0 .503-.176.184-.176.184-.492v-.205l-.343.015q-.41.014-.592.128-.18.112-.18.35 0 .185.112.283.114.097.316.097zM86.95 35.78q.15 0 .27.025l-.047.318q-.141-.031-.248-.031-.275 0-.472.223-.194.223-.194.556v1.216h-.343V35.82h.283l.04.42h.016q.126-.221.304-.341.177-.12.39-.12zM89.498 35.821v.217l-.42.05q.058.072.104.19.045.116.045.262 0 .333-.227.532-.228.198-.624.198-.102 0-.19-.016-.22.115-.22.291 0 .093.077.138.076.044.262.044h.401q.368 0 .565.155.198.155.198.45 0 .377-.302.573-.302.199-.88.199-.445 0-.687-.166-.24-.165-.24-.467 0-.207.133-.358.132-.15.372-.204-.087-.04-.147-.122-.058-.083-.058-.192 0-.124.067-.217.066-.093.208-.18-.175-.073-.287-.246-.11-.174-.11-.397 0-.372.224-.573.223-.202.632-.202.178 0 .32.041zm-1.807 2.646q0 .184.155.279.155.095.445.095.432 0 .639-.13.208-.128.208-.35 0-.183-.113-.256-.114-.07-.428-.07h-.412q-.233 0-.363.112-.13.111-.13.32zm.186-1.92q0 .237.135.36.134.121.374.121.502 0 .502-.488 0-.51-.508-.51-.242 0-.372.13t-.13.387zM90.31 38.087h-.343V35.82h.343zm-.372-2.88q0-.118.058-.171.058-.056.145-.056.083 0 .142.056.06.055.06.171 0 .116-.06.174-.06.056-.142.056-.087 0-.145-.056-.058-.058-.058-.174zM92.592 38.087V36.62q0-.277-.126-.413-.126-.137-.395-.137-.355 0-.52.192-.166.193-.166.635v1.189h-.343V35.82h.28l.055.31h.016q.106-.167.296-.258.19-.093.424-.093.41 0 .616.198.207.197.207.63v1.479z"/></g><g style="line-height:1.25;-inkscape-font-specification:'Open Sans, Normal';font-variant-ligatures:normal;font-variant-caps:normal;font-variant-numeric:normal;font-feature-settings:normal;text-align:start" aria-label="20 px" font-weight="400" font-size="4.233" font-family="Open Sans" letter-spacing="0" word-spacing="0" fill="#131516" stroke-width=".265"><path style="-inkscape-font-specification:'Open Sans, Normal';font-variant-ligatures:normal;font-variant-caps:normal;font-variant-numeric:normal;font-feature-settings:normal;text-align:start" d="M42.724 38.068h-1.986v-.296l.796-.8q.364-.368.48-.525.115-.157.173-.306.058-.148.058-.32 0-.242-.147-.382-.147-.143-.407-.143-.188 0-.358.062-.167.062-.374.225l-.182-.233q.418-.347.91-.347.426 0 .667.219.242.217.242.585 0 .287-.161.568-.161.281-.604.711l-.661.647v.017h1.554zM45.163 36.553q0 .783-.248 1.17-.246.386-.754.386-.488 0-.742-.394-.254-.397-.254-1.162 0-.79.246-1.172.246-.383.75-.383.492 0 .746.4.256.398.256 1.155zm-1.651 0q0 .66.155.961.155.3.494.3.343 0 .496-.304.155-.306.155-.957t-.155-.953q-.153-.304-.496-.304-.339 0-.494.3-.155.297-.155.957zM47.894 38.11q-.221 0-.405-.081-.182-.083-.306-.252h-.025q.025.198.025.376v.932h-.343v-3.283h.279l.047.31h.017q.132-.186.308-.268.176-.083.403-.083.45 0 .695.308.246.308.246.864 0 .558-.25.868-.249.308-.69.308zm-.05-2.057q-.347 0-.502.192-.155.192-.159.612v.076q0 .478.16.684.158.205.51.205.293 0 .459-.238.167-.237.167-.655 0-.424-.167-.649-.166-.227-.468-.227zM49.982 36.908l-.788-1.106h.39l.598.869.596-.869h.386l-.787 1.106.828 1.16h-.388l-.635-.918-.64.918h-.39z"/></g><g style="line-height:1.25;-inkscape-font-specification:'Open Sans, Normal';font-variant-ligatures:normal;font-variant-caps:normal;font-variant-numeric:normal;font-feature-settings:normal;text-align:start" aria-label="First child" font-weight="400" font-size="4.233" font-family="Open Sans" letter-spacing="0" word-spacing="0" stroke-width=".265"><path style="-inkscape-font-specification:'Open Sans, Normal';font-variant-ligatures:normal;font-variant-caps:normal;font-variant-numeric:normal;font-feature-settings:normal;text-align:start" d="M.351 55.298H0v-3.022h1.685v.312H.35v1.106h1.253v.312H.351zM2.474 55.298h-.343v-2.266h.343zm-.372-2.88q0-.117.058-.171.058-.056.145-.056.082 0 .142.056.06.056.06.172 0 .115-.06.173-.06.056-.142.056-.087 0-.145-.056-.058-.058-.058-.173zM4.24 52.991q.15 0 .27.025l-.047.318q-.14-.03-.248-.03-.275 0-.472.222-.194.224-.194.556v1.216h-.343v-2.266h.283l.04.42h.016q.126-.221.304-.341.178-.12.39-.12zM6.395 54.68q0 .316-.235.488-.236.171-.662.171-.45 0-.702-.142v-.319q.163.083.349.13.188.048.362.048.268 0 .413-.085.145-.087.145-.262 0-.132-.116-.226-.114-.095-.446-.223-.317-.118-.451-.204-.132-.09-.199-.2-.064-.113-.064-.268 0-.277.226-.436.225-.16.618-.16.366 0 .715.148l-.122.279q-.341-.14-.618-.14-.244 0-.368.076t-.124.21q0 .092.045.156.048.064.151.122.104.058.397.167.403.147.544.296.142.149.142.374zM7.683 55.056q.091 0 .176-.012.085-.015.134-.03v.263q-.056.027-.165.044-.108.018-.194.018-.658 0-.658-.692v-1.348h-.324v-.165l.324-.143.145-.484h.198v.525h.658v.267h-.658v1.333q0 .205.098.315.097.11.266.11zM10.453 55.34q-.492 0-.763-.303-.268-.303-.268-.857 0-.569.272-.879.275-.31.782-.31.163 0 .326.035.164.035.257.083l-.106.291q-.113-.045-.248-.074-.134-.031-.237-.031-.69 0-.69.88 0 .418.167.641.17.224.5.224.283 0 .58-.122v.303q-.227.118-.572.118zM13.115 55.298v-1.466q0-.277-.126-.413-.126-.136-.394-.136-.358 0-.523.194-.164.194-.164.636v1.185h-.343v-3.216h.343v.973q0 .176-.016.292h.02q.102-.164.288-.257.188-.095.428-.095.415 0 .622.199.209.196.209.626v1.478zM14.505 55.298h-.344v-2.266h.344zm-.373-2.88q0-.117.058-.171.058-.056.145-.056.083 0 .143.056.06.056.06.172 0 .115-.06.173-.06.056-.143.056-.087 0-.145-.056-.058-.058-.058-.173zM15.58 55.298h-.344v-3.216h.343zM17.853 54.994h-.018q-.238.345-.711.345-.445 0-.693-.304-.246-.303-.246-.864 0-.56.248-.87.248-.31.69-.31.461 0 .707.335h.027l-.014-.163-.008-.16v-.921h.343v3.216h-.28zm-.686.058q.351 0 .508-.19.16-.192.16-.618v-.073q0-.481-.162-.686-.159-.207-.51-.207-.302 0-.463.236-.16.234-.16.662 0 .434.16.655.159.22.467.22z"/></g><path d="M-10.583 31.888h5.291" fill="none" stroke="#000" stroke-width=".265" marker-end="url(#b)" transform="translate(30.092 21.823)"/></svg>