<svg xmlns="http://www.w3.org/2000/svg" viewBox="0 0 78.934 9.757" height="36.875" width="298.335"><g style="line-height:1.25;-inkscape-font-specification:'Open Sans, Normal';font-variant-ligatures:normal;font-variant-caps:normal;font-variant-numeric:normal;font-feature-settings:normal;text-align:start" aria-label="Here is an" font-weight="400" font-size="4.233" font-family="Open Sans" letter-spacing="0" word-spacing="0" stroke-width=".265"><path style="-inkscape-font-specification:'Open Sans, Normal';font-variant-ligatures:normal;font-variant-caps:normal;font-variant-numeric:normal;font-feature-settings:normal;text-align:start" d="M2.541 7.216H2.19V5.793H.598v1.423H.247V4.193h.351V5.48H2.19V4.193h.351zM4.278 7.257q-.503 0-.794-.306-.29-.306-.29-.85 0-.547.27-.87.27-.322.725-.322.426 0 .674.28.248.28.248.739v.217H3.55q.01.399.2.605.192.207.54.207.365 0 .723-.153v.306q-.182.079-.346.112-.16.035-.39.035zm-.093-2.061q-.273 0-.436.178-.162.178-.19.492h1.184q0-.325-.145-.496-.145-.174-.413-.174zM6.727 4.909q.151 0 .271.024l-.048.319q-.14-.031-.248-.031-.274 0-.47.223-.195.223-.195.556v1.216h-.343V4.95h.283l.04.42h.016q.126-.222.304-.341.177-.12.39-.12zM8.379 7.257q-.502 0-.794-.306-.29-.306-.29-.85 0-.547.27-.87.27-.322.725-.322.426 0 .674.28.248.28.248.739v.217h-1.56q.01.399.2.605.192.207.54.207.365 0 .723-.153v.306q-.182.079-.346.112-.16.035-.39.035zm-.093-2.061q-.273 0-.436.178-.162.178-.19.492h1.184q0-.325-.145-.496-.144-.174-.413-.174zM11.238 7.216h-.344V4.95h.344zm-.373-2.88q0-.118.058-.171.058-.056.145-.056.083 0 .143.056.06.055.06.171 0 .116-.06.174-.06.056-.143.056-.087 0-.145-.056-.058-.058-.058-.174zM13.43 6.597q0 .317-.235.488-.236.172-.661.172-.451 0-.703-.143v-.318q.163.083.35.13.187.048.36.048.27 0 .414-.085.145-.087.145-.263 0-.132-.116-.225-.113-.095-.446-.223-.317-.118-.45-.205-.133-.089-.2-.2-.063-.112-.063-.267 0-.277.225-.436.225-.161.618-.161.366 0 .715.148l-.122.28q-.34-.141-.618-.141-.244 0-.368.076-.124.077-.124.211 0 .091.046.155.047.064.15.122.104.058.397.168.404.146.544.295.143.15.143.374zM16.48 7.216l-.069-.323h-.016q-.17.213-.34.29-.167.074-.419.074-.337 0-.529-.174-.19-.173-.19-.494 0-.686 1.098-.72l.384-.012v-.14q0-.267-.116-.393-.113-.128-.366-.128-.283 0-.64.174l-.106-.263q.168-.09.366-.143.2-.051.401-.051.405 0 .6.18.196.18.196.576v1.546zm-.776-.242q.32 0 .503-.176.184-.176.184-.492v-.205l-.343.015q-.41.014-.592.128-.18.112-.18.35 0 .185.112.283.114.097.316.097zM18.993 7.216V5.75q0-.277-.126-.413-.126-.137-.395-.137-.355 0-.52.192-.166.193-.166.635v1.189h-.343V4.95h.279l.056.31h.016q.106-.167.296-.258.19-.093.424-.093.409 0 .616.198.206.196.206.63v1.478z"/></g><g style="line-height:1.25;-inkscape-font-specification:'Open Sans, Normal';font-variant-ligatures:normal;font-variant-caps:normal;font-variant-numeric:normal;font-feature-settings:normal;text-align:start" aria-label="to consider." font-weight="400" font-size="4.233" font-family="Open Sans" letter-spacing="0" word-spacing="0" stroke-width=".265"><path style="-inkscape-font-specification:'Open Sans, Normal';font-variant-ligatures:normal;font-variant-caps:normal;font-variant-numeric:normal;font-feature-settings:normal;text-align:start" d="M56.856 6.974q.09 0 .175-.013.085-.014.135-.029v.263q-.056.027-.166.043-.107.019-.194.019-.657 0-.657-.693V5.217h-.325V5.05l.325-.142.144-.484h.199v.525h.657v.267h-.657V6.55q0 .205.097.314.097.11.267.11zM59.576 6.08q0 .555-.28.867-.278.31-.77.31-.304 0-.54-.143-.235-.142-.364-.41-.128-.266-.128-.623 0-.554.277-.862.277-.31.77-.31.475 0 .754.316.28.316.28.856zm-1.726 0q0 .435.173.662.174.228.511.228t.51-.226q.176-.227.176-.663 0-.432-.175-.656-.174-.225-.515-.225-.337 0-.509.221-.171.221-.171.66zM62.18 7.257q-.492 0-.762-.302-.27-.304-.27-.858 0-.568.274-.878.275-.31.781-.31.163 0 .327.035.163.035.256.082l-.106.292q-.113-.046-.248-.074-.134-.031-.237-.031-.69 0-.69.88 0 .418.167.64.17.224.5.224.283 0 .58-.122v.304q-.227.118-.572.118zM65.248 6.08q0 .555-.28.867-.278.31-.77.31-.304 0-.54-.143-.235-.142-.364-.41-.128-.266-.128-.623 0-.554.277-.862.277-.31.77-.31.475 0 .754.316.28.316.28.856zm-1.726 0q0 .435.173.662.174.228.511.228t.51-.226q.176-.227.176-.663 0-.432-.175-.656-.174-.225-.515-.225-.337 0-.509.221-.171.221-.171.66zM67.398 7.216V5.75q0-.277-.127-.413-.126-.137-.394-.137-.356 0-.521.192-.166.193-.166.635v1.189h-.343V4.95h.28l.055.31h.017q.105-.167.295-.258.19-.093.424-.093.41 0 .616.198.207.196.207.63v1.478zM69.905 6.597q0 .317-.236.488-.235.172-.661.172-.45 0-.703-.143v-.318q.163.083.35.13.187.048.361.048.269 0 .413-.085.145-.087.145-.263 0-.132-.116-.225-.113-.095-.446-.223-.316-.118-.45-.205-.133-.089-.2-.2-.063-.112-.063-.267 0-.277.225-.436.225-.161.618-.161.366 0 .715.148l-.122.28q-.34-.141-.618-.141-.244 0-.368.076-.124.077-.124.211 0 .091.046.155.047.064.15.122.104.058.398.168.403.146.543.295.143.15.143.374zM70.804 7.216h-.343V4.95h.343zm-.372-2.88q0-.118.058-.171.058-.056.145-.056.082 0 .142.056.06.055.06.171 0 .116-.06.174-.06.056-.142.056-.087 0-.145-.056-.058-.058-.058-.174zM73.078 6.912h-.019q-.238.345-.71.345-.445 0-.693-.304-.246-.304-.246-.864t.248-.87q.248-.31.69-.31.461 0 .707.335h.027l-.015-.164-.008-.159V4h.343v3.217h-.279zm-.686.058q.35 0 .508-.19.16-.193.16-.619V6.09q0-.482-.162-.686-.16-.207-.51-.207-.302 0-.464.236-.159.233-.159.661 0 .434.16.655.159.222.467.222zM75.089 7.257q-.502 0-.794-.306-.29-.306-.29-.85 0-.547.27-.87.27-.322.725-.322.426 0 .674.28.248.28.248.739v.217h-1.56q.01.399.2.605.192.207.54.207.365 0 .723-.153v.306q-.182.079-.345.112-.162.035-.391.035zm-.093-2.061q-.273 0-.436.178-.161.178-.19.492h1.184q0-.325-.145-.496-.144-.174-.413-.174zM77.538 4.909q.151 0 .271.024l-.047.319q-.14-.031-.248-.031-.275 0-.472.223-.194.223-.194.556v1.216h-.343V4.95h.283l.04.42h.016q.126-.222.304-.341.178-.12.39-.12zM78.183 6.996q0-.138.062-.208.065-.073.182-.073.12 0 .186.073.069.07.069.208 0 .135-.069.207-.068.072-.186.072-.105 0-.175-.064-.069-.066-.069-.215z"/></g><path d="M.116.122h78.702v9.51H.116z" fill="none" stroke="#610008" stroke-width=".233" stroke-linecap="round"/><g style="line-height:1.25;-inkscape-font-specification:'Open Sans, Normal';font-variant-ligatures:normal;font-variant-caps:normal;font-variant-numeric:normal;font-feature-settings:normal;text-align:start" aria-label="example" font-weight="400" font-size="8.467" font-family="Open Sans" letter-spacing="0" word-spacing="0" stroke-width=".265"><path style="-inkscape-font-specification:'Open Sans, Normal';font-variant-ligatures:normal;font-variant-caps:normal;font-variant-numeric:normal;font-feature-settings:normal;text-align:start" d="M23.48 7.298q-1.004 0-1.587-.612-.578-.612-.578-1.699 0-1.095.537-1.74.542-.645 1.451-.645.852 0 1.348.562.496.558.496 1.476v.434h-3.121q.02.798.4 1.211.385.414 1.08.414.731 0 1.447-.306v.612q-.364.157-.69.223-.323.07-.782.07zm-.185-4.122q-.546 0-.873.356-.322.356-.38.984h2.369q0-.65-.29-.992-.289-.348-.826-.348zM27.404 4.896L25.83 2.685h.781l1.195 1.736 1.19-1.736h.774l-1.575 2.211 1.657 2.32h-.777L27.805 5.38l-1.281 1.836h-.778zM33.53 7.216l-.136-.645h-.033q-.339.425-.678.578-.335.15-.839.15-.674 0-1.058-.348-.38-.347-.38-.988 0-1.373 2.195-1.439l.769-.025v-.28q0-.534-.232-.786-.227-.257-.732-.257-.566 0-1.281.348l-.211-.525q.335-.182.732-.286.4-.103.802-.103.81 0 1.199.36.392.36.392 1.153v3.093zm-1.55-.484q.641 0 1.005-.352.368-.351.368-.984v-.409l-.686.03q-.819.028-1.183.255-.36.224-.36.7 0 .371.224.566.227.194.633.194zM41.233 7.216V4.268q0-.542-.232-.81-.231-.273-.72-.273-.64 0-.946.368-.306.368-.306 1.132v2.53h-.686V4.269q0-.542-.232-.81-.231-.273-.723-.273-.645 0-.947.388-.297.385-.297 1.265v2.378h-.687V2.685h.558l.112.62h.033q.194-.331.546-.517.355-.186.794-.186 1.062 0 1.389.769h.033q.202-.356.587-.562.384-.207.876-.207.77 0 1.15.397.384.392.384 1.26v2.957zM45.437 7.298q-.442 0-.81-.161-.364-.165-.612-.504h-.05q.05.396.05.752v1.864h-.686V2.685h.558l.095.62h.033q.265-.372.616-.538.351-.165.806-.165.901 0 1.39.616.491.616.491 1.728 0 1.116-.5 1.736-.496.616-1.38.616zm-.1-4.113q-.694 0-1.004.384-.31.385-.318 1.224v.153q0 .955.318 1.368.319.41 1.021.41.587 0 .918-.476.335-.475.335-1.31 0-.848-.335-1.299-.33-.454-.934-.454zM49.207 7.216h-.686V.783h.686zM52.585 7.298q-1.005 0-1.588-.612-.578-.612-.578-1.699 0-1.095.537-1.74.542-.645 1.451-.645.852 0 1.348.562.496.558.496 1.476v.434H51.13q.02.798.4 1.211.385.414 1.08.414.732 0 1.447-.306v.612q-.364.157-.69.223-.323.07-.782.07zm-.186-4.122q-.546 0-.872.356-.323.356-.38.984h2.368q0-.65-.29-.992-.289-.348-.826-.348z"/></g><path d="M.127 3.592h20.756v4.349H.127zM54.639 3.595h24.166v4.343H54.639zM21.126.13H54.39v9.497H21.126z" fill="none" stroke="#131516" stroke-width=".282" stroke-linecap="round" stroke-dasharray=".28182084,.84546251" stroke-dashoffset=".185"/></svg>