<svg xmlns="http://www.w3.org/2000/svg" viewBox="0 0 87.312 61.753" height="233.396" width="330"><defs><marker id="a" refX="0" refY="0" orient="auto" overflow="visible"><path d="M2.308 0l-3.46 2v-4z" fill="#131516" fill-rule="evenodd" stroke="#131516" stroke-width=".5332"/></marker></defs><path d="M0 0h87.312v18.52H0z" fill="#dfdff9"/><path d="M3.803 0h78.383v5.292H3.803z" fill="#705697"/><g style="line-height:1.25" aria-label="Box 1" font-weight="400" font-size="4.013" font-family="sans-serif" letter-spacing="0" word-spacing="0" fill="#ececfb" stroke-width=".265"><path d="M6.3 3.856q0 .23-.078.406-.078.175-.21.289-.156.136-.343.194-.186.058-.474.058h-.98V1.725h.818q.303 0 .454.025.15.025.288.103.152.09.22.23.07.138.07.333 0 .219-.101.374-.1.153-.267.246v.016q.28.064.442.275.161.21.161.53zM5.682 2.47q0-.111-.034-.188-.033-.076-.107-.124-.088-.055-.212-.068-.125-.014-.309-.014h-.438v.888h.476q.172 0 .274-.018.103-.02.19-.083.087-.062.123-.159.037-.1.037-.234zm.236 1.404q0-.186-.05-.296-.05-.11-.183-.186-.089-.051-.217-.066-.126-.016-.308-.016h-.578v1.145h.487q.241 0 .395-.027.155-.029.253-.103.104-.081.152-.184.049-.104.049-.267zM8.563 3.65q0 .564-.26.89-.26.327-.697.327-.44 0-.7-.326-.258-.327-.258-.891 0-.565.258-.891.26-.329.7-.329.437 0 .697.329.26.326.26.89zm-.36 0q0-.449-.159-.666-.158-.219-.438-.219-.284 0-.442.22-.156.216-.156.665 0 .434.158.66.158.222.44.222.279 0 .437-.22.16-.224.16-.662zM10.864 4.803h-.44l-.589-.887-.593.887h-.406l.81-1.151-.803-1.158h.44l.585.873.587-.873h.409l-.815 1.137zM14.326 4.803H12.83V4.49h.576V2.426h-.576v-.281q.117 0 .251-.02.134-.023.202-.065.086-.051.134-.13.05-.08.058-.215h.288v2.774h.564z"/></g><path d="M3.803 13.23h78.383v5.29H3.803z" fill="#705697"/><g style="line-height:1.25" aria-label="Box 2" font-weight="400" font-size="4.013" font-family="sans-serif" letter-spacing="0" word-spacing="0" fill="#f3eafb" stroke-width=".265"><path d="M6.3 17.086q0 .23-.078.405-.078.175-.21.29-.156.136-.343.193-.186.058-.474.058h-.98v-3.078h.818q.303 0 .454.025.15.025.288.104.152.089.22.23.07.138.07.332 0 .219-.101.374-.1.153-.267.246v.017q.28.064.442.274.161.21.161.53zm-.618-1.387q0-.112-.034-.188-.033-.077-.107-.125-.088-.055-.212-.068-.125-.014-.309-.014h-.438v.889h.476q.172 0 .274-.019.103-.02.19-.083.087-.062.123-.159.037-.099.037-.233zm.236 1.403q0-.186-.05-.295-.05-.11-.183-.186-.089-.052-.217-.067-.126-.016-.308-.016h-.578v1.145h.487q.241 0 .395-.027.155-.029.253-.103.104-.08.152-.184.049-.104.049-.267zM8.563 16.879q0 .564-.26.89-.26.327-.697.327-.44 0-.7-.326-.258-.327-.258-.891 0-.564.258-.891.26-.329.7-.329.437 0 .697.329.26.327.26.89zm-.36 0q0-.449-.159-.666-.158-.219-.438-.219-.284 0-.442.22-.156.216-.156.665 0 .434.158.66.158.223.44.223.279 0 .437-.222.16-.223.16-.661zM10.864 18.032h-.44l-.589-.886-.593.886h-.406l.81-1.151-.803-1.158h.44l.585.873.587-.873h.409l-.815 1.137zM14.484 18.032h-1.872V17.6l.39-.372q.197-.186.366-.37.357-.384.488-.61.132-.227.132-.49 0-.24-.143-.374-.14-.136-.395-.136-.17 0-.366.066-.197.066-.385.203h-.018v-.434q.131-.073.35-.133.222-.06.428-.06.425 0 .667.23.241.227.241.618 0 .176-.04.329-.04.15-.118.287-.072.128-.17.252-.097.124-.236.275-.2.217-.411.422l-.396.376h1.488z"/></g><path d="M74.083 0h13.23v13.23h-13.23z" fill="#5c004e" fill-opacity=".686"/><g style="line-height:1.25" aria-label="Float" font-weight="400" font-size="4.233" font-family="sans-serif" letter-spacing="0" word-spacing="0" fill="#f8f9f9" stroke-width=".265"><path d="M77.722 5.477h-1.556v.868h1.337v.364h-1.337V8.19h-.41V5.113h1.966zM78.55 8.19h-.39V4.975h.39zM81.29 7.037q0 .565-.29.891-.289.327-.774.327-.49 0-.78-.327-.287-.326-.287-.89 0-.565.287-.892.29-.328.78-.328.485 0 .775.328.29.327.29.891zm-.4 0q0-.448-.177-.665-.175-.22-.487-.22-.317 0-.492.22-.174.217-.174.665 0 .434.176.66.175.223.49.223.31 0 .485-.221.178-.223.178-.662zM83.688 8.19H83.3v-.245l-.14.099q-.087.062-.17.1-.097.047-.223.078-.126.033-.296.033-.312 0-.529-.207-.217-.207-.217-.527 0-.263.112-.424.114-.163.322-.256.211-.093.507-.126.295-.033.634-.05v-.06q0-.132-.047-.219-.046-.087-.133-.136-.082-.048-.198-.064-.116-.017-.242-.017-.153 0-.34.041-.189.04-.39.116h-.02v-.395q.114-.03.329-.068.214-.037.423-.037.244 0 .424.041.182.04.314.137.13.095.199.246.068.15.068.374zm-.387-.568V6.98q-.177.01-.42.031-.239.021-.38.06-.167.048-.27.15-.104.098-.104.274 0 .199.12.3.12.1.366.1.205 0 .374-.08.17-.08.314-.192zM85.64 8.17q-.11.029-.24.048-.129.018-.23.018-.353 0-.537-.19-.184-.19-.184-.61V6.208h-.263v-.326h.263v-.664h.388v.664h.802v.326h-.802v1.053q0 .181.008.285.008.101.058.19.046.083.124.122.08.037.244.037.095 0 .198-.027.104-.029.15-.047h.02z"/></g><path d="M10.3 32.648h35.917v2.646H10.3zM10.3 59.038h35.917v2.645H10.3z" fill="#705697"/><g style="line-height:1.25;-inkscape-font-specification:'Open Sans, Normal';font-variant-ligatures:normal;font-variant-caps:normal;font-variant-numeric:normal;font-feature-settings:normal;text-align:start" aria-label="Bottom margin of Box 1" font-weight="400" font-size="4.233" font-family="Open Sans" letter-spacing="0" word-spacing="0" fill="#131516" stroke-width=".265"><path style="-inkscape-font-specification:'Open Sans, Normal';font-variant-ligatures:normal;font-variant-caps:normal;font-variant-numeric:normal;font-feature-settings:normal;text-align:start" d="M31.452 37.829h.854q.601 0 .87.18t.269.568q0 .269-.151.444-.15.174-.437.226v.02q.689.118.689.724 0 .405-.275.632-.273.228-.765.228h-1.054zm.351 1.294h.58q.371 0 .534-.116.164-.118.164-.395 0-.254-.182-.366-.182-.114-.579-.114h-.517zm0 .297v1.13h.63q.367 0 .55-.14.187-.142.187-.444 0-.281-.19-.414-.189-.132-.575-.132zM36.1 39.716q0 .554-.278.866-.28.31-.771.31-.304 0-.54-.143-.236-.142-.364-.409t-.128-.624q0-.554.277-.862.277-.31.77-.31.475 0 .754.316.28.316.28.856zm-1.725 0q0 .434.173.661.174.228.51.228.338 0 .511-.226.176-.227.176-.663 0-.432-.176-.655-.173-.226-.514-.226-.337 0-.509.221-.171.222-.171.66zM37.432 40.609q.09 0 .176-.013.084-.014.134-.029v.263q-.056.027-.165.043-.108.019-.195.019-.657 0-.657-.693v-1.347H36.4v-.166l.325-.142.145-.484h.198v.525h.657v.267h-.657v1.333q0 .205.097.314.097.11.267.11zM38.928 40.609q.091 0 .176-.013.085-.014.134-.029v.263q-.055.027-.165.043-.107.019-.194.019-.657 0-.657-.693v-1.347h-.325v-.166l.325-.142.144-.484h.199v.525h.657v.267h-.657v1.333q0 .205.097.314.097.11.266.11zM41.649 39.716q0 .554-.28.866-.278.31-.77.31-.304 0-.54-.143-.236-.142-.364-.409t-.128-.624q0-.554.277-.862.277-.31.77-.31.475 0 .754.316.28.316.28.856zm-1.726 0q0 .434.173.661.174.228.51.228.338 0 .511-.226.176-.227.176-.663 0-.432-.176-.655-.173-.226-.514-.226-.337 0-.509.221-.171.222-.171.66zM45.136 40.85v-1.473q0-.271-.116-.405-.116-.137-.36-.137-.32 0-.473.184-.153.184-.153.567v1.265h-.343v-1.474q0-.271-.116-.405-.116-.137-.362-.137-.322 0-.473.195-.149.192-.149.632v1.189h-.343v-2.266h.28l.055.31h.017q.097-.165.272-.258.178-.093.397-.093.531 0 .695.384h.016q.102-.178.294-.28.192-.104.438-.104.385 0 .575.198.192.197.192.63v1.479zM50.171 40.85v-1.473q0-.271-.116-.405-.115-.137-.36-.137-.32 0-.473.184-.153.184-.153.567v1.265h-.343v-1.474q0-.271-.115-.405-.116-.137-.362-.137-.323 0-.474.195-.148.192-.148.632v1.189h-.344v-2.266h.28l.055.31h.017q.097-.165.273-.258.178-.093.397-.093.53 0 .694.384h.017q.101-.178.293-.28.192-.104.438-.104.385 0 .575.198.192.197.192.63v1.479zM52.612 40.85l-.068-.322h-.016q-.17.213-.34.29-.167.074-.419.074-.337 0-.53-.174-.19-.173-.19-.494 0-.686 1.098-.72l.385-.011v-.141q0-.267-.116-.393-.114-.128-.366-.128-.283 0-.64.174l-.106-.263q.167-.09.366-.142.2-.052.4-.052.406 0 .6.18.197.18.197.576v1.547zm-.775-.241q.32 0 .503-.176t.183-.492v-.205l-.343.015q-.409.014-.59.128-.18.112-.18.35 0 .185.111.283.114.097.316.097zM54.61 38.544q.15 0 .27.025l-.048.318q-.14-.031-.248-.031-.275 0-.471.223-.194.223-.194.556v1.216h-.343v-2.266h.283l.04.42h.016q.126-.221.303-.341.178-.12.391-.12zM57.158 38.585v.217l-.42.05q.058.072.104.19.045.116.045.262 0 .333-.227.532-.228.198-.625.198-.1 0-.19-.016-.219.115-.219.291 0 .093.077.139.076.043.262.043h.401q.368 0 .564.155.199.155.199.45 0 .377-.302.573-.302.199-.88.199-.445 0-.687-.166-.24-.165-.24-.467 0-.207.133-.358.132-.15.372-.204-.087-.04-.147-.122-.058-.083-.058-.192 0-.124.066-.217.067-.093.21-.18-.177-.073-.288-.246-.11-.174-.11-.397 0-.372.223-.573.224-.202.633-.202.178 0 .32.041zm-1.807 2.646q0 .184.155.279.155.095.445.095.432 0 .638-.13.21-.128.21-.35 0-.183-.115-.256-.113-.07-.427-.07h-.412q-.233 0-.364.112-.13.111-.13.32zm.186-1.92q0 .237.135.36.134.121.374.121.502 0 .502-.488 0-.51-.508-.51-.242 0-.373.13-.13.13-.13.387zM57.97 40.85h-.343v-2.265h.343zm-.372-2.879q0-.118.058-.171.058-.056.145-.056.082 0 .142.056.06.055.06.171 0 .116-.06.174-.06.056-.142.056-.087 0-.145-.056-.058-.058-.058-.174zM60.252 40.85v-1.465q0-.277-.126-.413-.126-.137-.395-.137-.355 0-.52.192-.166.193-.166.635v1.189h-.343v-2.266h.279l.056.31h.016q.106-.167.296-.258.19-.093.424-.093.409 0 .616.198.206.197.206.63v1.479zM64.353 39.716q0 .554-.279.866-.279.31-.77.31-.305 0-.54-.143-.236-.142-.364-.409t-.128-.624q0-.554.277-.862.277-.31.769-.31.475 0 .754.316.281.316.281.856zm-1.726 0q0 .434.174.661.174.228.51.228.337 0 .511-.226.176-.227.176-.663 0-.432-.176-.655-.174-.226-.515-.226-.337 0-.508.221-.172.222-.172.66zM65.974 38.852h-.577v1.999h-.343v-2h-.405v-.154l.405-.124v-.126q0-.835.73-.835.18 0 .421.072l-.089.275q-.198-.064-.339-.064-.194 0-.287.13-.093.128-.093.413v.147h.577zM67.543 37.829h.853q.602 0 .87.18.27.18.27.568 0 .269-.152.444-.148.174-.436.226v.02q.689.118.689.724 0 .405-.275.632-.273.228-.765.228h-1.054zm.351 1.294h.579q.372 0 .535-.116.164-.118.164-.395 0-.254-.182-.366-.182-.114-.58-.114h-.516zm0 .297v1.13h.63q.366 0 .55-.14.186-.142.186-.444 0-.281-.19-.414-.188-.132-.574-.132zM72.192 39.716q0 .554-.28.866-.279.31-.77.31-.304 0-.54-.143-.236-.142-.364-.409t-.128-.624q0-.554.277-.862.277-.31.769-.31.475 0 .754.316.282.316.282.856zm-1.726 0q0 .434.173.661.174.228.51.228.338 0 .511-.226.176-.227.176-.663 0-.432-.176-.655-.173-.226-.514-.226-.337 0-.509.221-.171.222-.171.66zM73.337 39.691l-.788-1.106h.39l.598.868.595-.868h.387l-.788 1.106.83 1.16h-.39l-.634-.918-.64.918h-.39zM77.22 40.85h-.334v-2.153q0-.269.016-.509-.043.044-.097.091-.054.048-.492.403l-.182-.235.8-.619h.29z"/></g><g style="line-height:1.25;-inkscape-font-specification:'Open Sans, Normal';font-variant-ligatures:normal;font-variant-caps:normal;font-variant-numeric:normal;font-feature-settings:normal;text-align:start" aria-label="Clearance" font-weight="400" font-size="4.233" font-family="Open Sans" letter-spacing="0" word-spacing="0" fill="#131516" stroke-width=".265"><path style="-inkscape-font-specification:'Open Sans, Normal';font-variant-ligatures:normal;font-variant-caps:normal;font-variant-numeric:normal;font-feature-settings:normal;text-align:start" d="M32.95 45.741q-.497 0-.787.333-.287.331-.287.908 0 .593.277.918.279.322.794.322.316 0 .721-.114v.308q-.314.118-.775.118-.668 0-1.031-.405-.362-.405-.362-1.151 0-.468.173-.819.176-.351.505-.542.33-.19.777-.19.475 0 .83.174l-.148.302q-.343-.162-.686-.162zM34.619 48.493h-.343v-3.217h.343zM36.308 48.534q-.503 0-.794-.306-.29-.306-.29-.85 0-.547.27-.87.27-.322.725-.322.426 0 .674.281.248.28.248.738v.217h-1.56q.01.399.2.606.192.206.54.206.365 0 .723-.153v.306q-.182.079-.346.112-.16.035-.39.035zm-.093-2.06q-.273 0-.436.177-.162.178-.19.492h1.184q0-.325-.145-.496-.145-.174-.413-.174zM39.117 48.493l-.068-.323h-.017q-.17.213-.339.29-.167.074-.42.074-.336 0-.529-.174-.19-.173-.19-.494 0-.686 1.098-.719l.384-.012v-.14q0-.268-.115-.394-.114-.128-.366-.128-.284 0-.641.174l-.106-.263q.168-.09.366-.142.2-.052.401-.052.405 0 .6.18.196.18.196.577v1.546zm-.775-.242q.32 0 .502-.176.184-.175.184-.492v-.204l-.343.014q-.41.015-.591.128-.18.112-.18.35 0 .186.111.283.114.097.317.097zM41.114 46.186q.15 0 .27.025l-.047.318q-.14-.031-.248-.031-.275 0-.471.223-.195.224-.195.556v1.216h-.343v-2.266h.283l.04.42h.016q.126-.221.304-.341.178-.12.39-.12zM43.201 48.493l-.068-.323h-.016q-.17.213-.34.29-.167.074-.419.074-.337 0-.53-.174-.19-.173-.19-.494 0-.686 1.098-.719l.385-.012v-.14q0-.268-.116-.394-.114-.128-.366-.128-.283 0-.64.174l-.106-.263q.167-.09.366-.142.2-.052.4-.052.406 0 .6.18.197.18.197.577v1.546zm-.775-.242q.32 0 .503-.176.184-.175.184-.492v-.204l-.344.014q-.409.015-.59.128-.18.112-.18.35 0 .186.111.283.114.097.316.097zM45.715 48.493v-1.466q0-.277-.126-.413-.126-.137-.395-.137-.355 0-.52.193-.166.192-.166.634v1.189h-.343v-2.266h.279l.056.31h.016q.105-.167.296-.258.19-.093.423-.093.41 0 .616.198.207.197.207.63v1.479zM47.666 48.534q-.492 0-.763-.302-.268-.304-.268-.858 0-.568.273-.878.275-.31.781-.31.163 0 .327.035.163.035.256.083l-.106.291q-.113-.045-.248-.074-.134-.031-.237-.031-.69 0-.69.88 0 .418.167.641.17.223.5.223.283 0 .58-.122v.304q-.227.118-.572.118zM49.735 48.534q-.502 0-.793-.306-.29-.306-.29-.85 0-.547.269-.87.27-.322.725-.322.426 0 .674.281.248.28.248.738v.217h-1.56q.01.399.2.606.192.206.54.206.366 0 .723-.153v.306q-.182.079-.345.112-.161.035-.39.035zm-.093-2.06q-.273 0-.436.177-.161.178-.19.492H50.2q0-.325-.144-.496-.145-.174-.414-.174z"/></g><g style="line-height:1.25;-inkscape-font-specification:'Open Sans, Normal';font-variant-ligatures:normal;font-variant-caps:normal;font-variant-numeric:normal;font-feature-settings:normal;text-align:start" aria-label="Top margin of Box 2" font-weight="400" font-size="4.233" font-family="Open Sans" letter-spacing="0" word-spacing="0" fill="#131516" stroke-width=".265"><path style="-inkscape-font-specification:'Open Sans, Normal';font-variant-ligatures:normal;font-variant-caps:normal;font-variant-numeric:normal;font-feature-settings:normal;text-align:start" d="M32.864 56.183h-.351v-2.71h-.957v-.312h2.265v.312h-.957zM36.178 55.048q0 .554-.28.866-.278.31-.77.31-.304 0-.54-.142-.235-.143-.363-.41-.129-.266-.129-.624 0-.554.277-.862.277-.31.77-.31.475 0 .754.317.28.316.28.855zm-1.726 0q0 .434.174.662.173.227.51.227t.51-.225q.176-.228.176-.664 0-.432-.175-.655-.174-.225-.515-.225-.337 0-.509.221-.171.221-.171.66zM37.832 56.225q-.222 0-.406-.081-.182-.083-.306-.252h-.024q.024.198.024.376v.932h-.343v-3.282h.28l.047.31h.016q.133-.186.308-.269.176-.083.404-.083.45 0 .694.308.246.308.246.864 0 .558-.25.869-.248.308-.69.308zm-.05-2.057q-.347 0-.502.192-.155.192-.16.612v.076q0 .478.16.685.159.204.51.204.294 0 .46-.238.166-.237.166-.655 0-.424-.167-.649-.165-.227-.467-.227zM43.36 56.183V54.71q0-.27-.115-.405-.116-.136-.36-.136-.32 0-.473.184-.153.184-.153.566v1.265h-.343V54.71q0-.27-.116-.405-.115-.136-.361-.136-.323 0-.474.194-.149.192-.149.633v1.188h-.343v-2.265h.28l.055.31h.017q.097-.166.272-.259.178-.093.397-.093.532 0 .695.385h.016q.102-.178.294-.281.192-.104.438-.104.385 0 .575.199.192.196.192.63v1.478zM45.802 56.183l-.068-.322h-.017q-.17.213-.339.29-.167.073-.42.073-.336 0-.528-.173-.19-.174-.19-.494 0-.686 1.097-.72l.384-.012v-.14q0-.267-.115-.393-.114-.128-.366-.128-.283 0-.64.173l-.106-.262q.167-.091.366-.143.2-.052.4-.052.406 0 .6.18.196.18.196.577v1.546zm-.775-.242q.32 0 .502-.175.184-.176.184-.492v-.205l-.343.015q-.41.014-.591.128-.18.111-.18.349 0 .186.112.283.113.097.316.097zM47.799 53.876q.15 0 .27.025l-.047.318q-.14-.03-.248-.03-.275 0-.471.223-.195.223-.195.556v1.215h-.343v-2.265h.284l.039.42h.016q.126-.222.304-.342.178-.12.39-.12zM50.348 53.918v.217l-.42.05q.058.072.103.19.046.115.046.262 0 .333-.228.531-.227.199-.624.199-.101 0-.19-.017-.22.116-.22.292 0 .093.077.138.077.044.263.044h.4q.369 0 .565.155.199.155.199.45 0 .376-.302.573-.302.198-.88.198-.445 0-.687-.165-.24-.166-.24-.467 0-.207.133-.358.132-.15.372-.205-.087-.039-.147-.122-.058-.082-.058-.192 0-.124.066-.217t.209-.18q-.176-.072-.287-.246-.11-.173-.11-.397 0-.372.223-.572.223-.203.633-.203.178 0 .32.042zm-1.807 2.646q0 .183.155.279.155.095.444.095.432 0 .64-.13.208-.129.208-.35 0-.184-.114-.256-.113-.07-.428-.07h-.411q-.234 0-.364.111-.13.112-.13.32zm.186-1.92q0 .237.134.359.135.122.374.122.503 0 .503-.488 0-.51-.509-.51-.242 0-.372.13t-.13.386zM51.16 56.183h-.343v-2.265h.343zm-.372-2.88q0-.117.058-.17.058-.057.144-.057.083 0 .143.056.06.056.06.172 0 .116-.06.173-.06.056-.143.056-.086 0-.144-.056-.058-.058-.058-.173zM53.442 56.183v-1.465q0-.277-.126-.414-.126-.136-.395-.136-.355 0-.52.192-.166.192-.166.635v1.188h-.343v-2.265h.279l.056.31h.016q.105-.168.296-.259.19-.093.423-.093.41 0 .616.199.207.196.207.63v1.478zM57.543 55.048q0 .554-.28.866-.278.31-.77.31-.304 0-.54-.142-.235-.143-.363-.41-.129-.266-.129-.624 0-.554.277-.862.277-.31.77-.31.475 0 .754.317.281.316.281.855zm-1.726 0q0 .434.174.662.173.227.51.227t.51-.225q.176-.228.176-.664 0-.432-.175-.655-.174-.225-.515-.225-.337 0-.508.221-.172.221-.172.66zM59.164 54.184h-.577v2h-.343v-2h-.405v-.155l.405-.124v-.126q0-.835.73-.835.18 0 .421.072l-.089.275q-.198-.064-.339-.064-.194 0-.287.13-.093.129-.093.414v.147h.577zM60.732 53.161h.854q.602 0 .87.18.27.18.27.568 0 .27-.152.445-.149.173-.436.225v.02q.688.119.688.724 0 .405-.275.633-.272.227-.764.227h-1.055zm.352 1.294h.579q.372 0 .535-.116.163-.117.163-.394 0-.255-.182-.366-.182-.114-.578-.114h-.517zm0 .298v1.13h.63q.366 0 .55-.14.186-.143.186-.445 0-.28-.19-.413-.188-.132-.575-.132zM65.381 55.048q0 .554-.279.866-.279.31-.77.31-.305 0-.54-.142-.236-.143-.364-.41-.128-.266-.128-.624 0-.554.277-.862.277-.31.769-.31.475 0 .754.317.281.316.281.855zm-1.726 0q0 .434.174.662.174.227.51.227.337 0 .511-.225.176-.228.176-.664 0-.432-.176-.655-.174-.225-.515-.225-.337 0-.508.221-.172.221-.172.66zM66.526 55.024l-.787-1.106h.39l.598.868.595-.868h.387l-.788 1.106.83 1.16h-.39l-.634-.919-.64.918h-.39zM71.126 56.183h-1.987v-.295l.796-.8q.364-.368.48-.525.115-.158.173-.306.058-.15.058-.32 0-.243-.147-.383-.146-.143-.407-.143-.188 0-.358.062-.167.062-.374.226l-.182-.234q.418-.347.91-.347.426 0 .668.219.241.217.241.585 0 .287-.16.568-.162.281-.604.711l-.662.647v.017h1.555z"/></g><path d="M52.917 87.98l-10.584 13.228" fill="#131516" stroke="#131516" stroke-width=".529" marker-end="url(#a)" transform="translate(-12.19 -71.206)"/><g fill="#a2000d"><path d="M27.3 42.835h2.38v.397H27.3zM27.3 35.294h2.38v.397H27.3z"/><path d="M28.688 35.294v7.938h-.397v-7.938z"/></g><g fill="#01c"><path d="M27.3 50.772h2.38v.397H27.3zM27.3 43.232h2.38v.397H27.3z"/><path d="M28.688 43.232v7.937h-.397v-7.937z"/></g><g fill="#a2000d"><path d="M27.3 58.71h2.38v.397H27.3zM27.3 51.17h2.38v.396H27.3z"/><path d="M28.688 51.17v7.937h-.397v-7.938z"/></g><g><g fill="#a2000d"><path d="M41.808 7.805h2.381v.133h-2.38zM41.808 5.292h2.381v.132h-2.38z"/><path d="M43.197 5.292v2.646H42.8V5.292z"/></g><g fill="#01c"><path d="M41.808 10.451h2.381v.132h-2.38zM41.808 7.938h2.381v.132h-2.38z"/><path d="M43.197 7.938v2.645H42.8V7.938z"/></g><g fill="#a2000d"><path d="M41.808 13.097h2.381v.132h-2.38zM41.808 10.583h2.381v.133h-2.38z"/><path d="M43.197 10.583v2.646H42.8v-2.646z"/></g></g></svg>