<svg xmlns="http://www.w3.org/2000/svg" viewBox="0 0 105.498 82.004" height="309.938" width="398.733"><defs><marker id="e" refX="0" refY="0" orient="auto" overflow="visible"><path d="M2.308 0l-3.46 2v-4z" fill-rule="evenodd" stroke="#000" stroke-width=".5332"/></marker><marker id="a" refX="0" refY="0" orient="auto" overflow="visible"><path d="M0 4.52v-9.04" fill="#b8000f" fill-rule="evenodd" stroke="#a2000d" stroke-width="1.0664"/></marker><marker id="b" refX="0" refY="0" orient="auto" overflow="visible"><path d="M0 4.52v-9.04" fill="#b8000f" fill-rule="evenodd" stroke="#a2000d" stroke-width="1.0664"/></marker><marker id="c" refX="0" refY="0" orient="auto" overflow="visible"><path d="M0 4.52v-9.04" fill="#b8000f" fill-rule="evenodd" stroke="#a2000d" stroke-width="1.0664"/></marker><marker id="d" refX="0" refY="0" orient="auto" overflow="visible"><path d="M0 4.52v-9.04" fill="#b8000f" fill-rule="evenodd" stroke="#a2000d" stroke-width="1.0664"/></marker><marker id="f" refX="0" refY="0" orient="auto" overflow="visible"><path d="M2.308 0l-3.46 2v-4z" fill="#131516" fill-rule="evenodd" stroke="#131516" stroke-width=".5332"/></marker></defs><path d="M15.54 5.275h87.312V21.15H15.54z" fill="#dfdff9"/><path d="M19.509 15.859h79.375v5.291H19.509z" fill="#705697"/><path d="M58.208-3.144v4.993" fill="#b8000f" stroke="#a2000d" stroke-width=".265" marker-start="url(#a)" marker-end="url(#a)" transform="translate(.988 3.286)"/><path d="M58.208 2.131V4.5" fill="#b8000f" stroke="#a2000d" stroke-width=".265" marker-start="url(#b)" marker-end="url(#b)" transform="translate(.988 3.286)"/><path d="M58.208 4.78v2.363" fill="#b8000f" stroke="#a2000d" stroke-width=".265" marker-start="url(#c)" marker-end="url(#c)" transform="translate(.988 3.286)"/><path d="M19.509 7.921h79.375" fill="#374047" stroke="#131516" stroke-width=".265" stroke-dasharray=".26458331,.79374995"/><path d="M58.208 7.425v5.008" fill="#b8000f" stroke="#a2000d" stroke-width=".265" marker-start="url(#d)" marker-end="url(#d)" transform="translate(.988 3.286)"/><g style="line-height:1.25;-inkscape-font-specification:'Open Sans, Normal';font-variant-ligatures:normal;font-variant-caps:normal;font-variant-numeric:normal;font-feature-settings:normal;text-align:start" aria-label="First child" font-weight="400" font-size="4.233" font-family="Open Sans" letter-spacing="0" word-spacing="0" stroke-width=".265"><path style="-inkscape-font-specification:'Open Sans, Normal';font-variant-ligatures:normal;font-variant-caps:normal;font-variant-numeric:normal;font-feature-settings:normal;text-align:start" d="M.351 57.133H0v-3.022h1.685v.313H.35v1.105h1.253v.313H.351zM2.474 57.133h-.343v-2.265h.343zm-.372-2.879q0-.118.058-.171.058-.056.145-.056.082 0 .142.056.06.055.06.171 0 .116-.06.174-.06.056-.142.056-.087 0-.145-.056-.058-.058-.058-.174zM4.24 54.827q.15 0 .27.024l-.047.319q-.14-.031-.248-.031-.275 0-.472.223-.194.223-.194.556v1.215h-.343v-2.265h.283l.04.42h.016q.126-.222.304-.341.178-.12.39-.12zM6.395 56.515q0 .317-.235.488-.236.172-.662.172-.45 0-.702-.143v-.318q.163.083.349.13.188.048.362.048.268 0 .413-.085.145-.087.145-.263 0-.132-.116-.225-.114-.095-.446-.223-.317-.118-.451-.205-.132-.089-.199-.2-.064-.112-.064-.267 0-.277.226-.436.225-.161.618-.161.366 0 .715.148l-.122.28q-.341-.141-.618-.141-.244 0-.368.076-.124.077-.124.211 0 .091.045.155.048.064.151.122.104.058.397.168.403.146.544.295.142.15.142.374zM7.683 56.892q.091 0 .176-.013.085-.014.134-.029v.263q-.056.027-.165.043-.108.019-.194.019-.658 0-.658-.693v-1.347h-.324v-.166l.324-.142.145-.484h.198v.525h.658v.267h-.658v1.333q0 .205.098.314.097.11.266.11zM10.453 57.175q-.492 0-.763-.302-.268-.304-.268-.858 0-.568.272-.878.275-.31.782-.31.163 0 .326.035.164.035.257.082l-.106.292q-.113-.046-.248-.074-.134-.031-.237-.031-.69 0-.69.88 0 .418.167.64.17.224.5.224.283 0 .58-.122v.304q-.227.118-.572.118zM13.115 57.133v-1.465q0-.277-.126-.413-.126-.137-.394-.137-.358 0-.523.194-.164.195-.164.637v1.184h-.343v-3.216h.343v.974q0 .175-.016.291h.02q.102-.163.288-.256.188-.095.428-.095.415 0 .622.198.209.197.209.627v1.477zM14.505 57.133h-.344v-2.265h.344zm-.373-2.879q0-.118.058-.171.058-.056.145-.056.083 0 .143.056.06.055.06.171 0 .116-.06.174-.06.056-.143.056-.087 0-.145-.056-.058-.058-.058-.174zM15.58 57.133h-.344v-3.216h.343zM17.853 56.83h-.018q-.238.345-.711.345-.445 0-.693-.304-.246-.304-.246-.864t.248-.87q.248-.31.69-.31.461 0 .707.335h.027l-.014-.164-.008-.159v-.922h.343v3.216h-.28zm-.686.058q.351 0 .508-.19.16-.193.16-.619v-.072q0-.482-.162-.686-.159-.207-.51-.207-.302 0-.463.236-.16.233-.16.661 0 .434.16.655.159.222.467.222z"/></g><g style="line-height:1.25;font-variant-ligatures:normal;font-variant-position:normal;font-variant-caps:normal;font-variant-numeric:normal;font-variant-alternates:normal;font-feature-settings:normal;text-indent:0;text-align:start;text-decoration-line:none;text-decoration-style:solid;text-decoration-color:#000;text-transform:none;text-orientation:mixed;white-space:normal;shape-padding:0" aria-label="Second child" font-weight="400" font-size="4.013" font-family="Open Sans" letter-spacing="0" word-spacing="0" fill="#ececfb" stroke-width=".265"><path style="line-height:1.25;-inkscape-font-specification:'Open Sans';font-variant-ligatures:normal;font-variant-position:normal;font-variant-caps:normal;font-variant-numeric:normal;font-variant-alternates:normal;font-feature-settings:normal;text-indent:0;text-align:start;text-decoration-line:none;text-decoration-style:solid;text-decoration-color:#000;text-transform:none;text-orientation:mixed;white-space:normal;shape-padding:0" d="M24.006 19.4q0 .378-.275.59-.274.211-.744.211-.51 0-.784-.131v-.321q.176.074.384.117.208.043.412.043.333 0 .501-.125.169-.128.169-.353 0-.149-.061-.243-.059-.096-.2-.176-.14-.08-.425-.182-.4-.143-.572-.34-.17-.195-.17-.51 0-.332.248-.528.249-.196.658-.196.428 0 .786.157l-.104.29q-.354-.149-.69-.149-.264 0-.413.114-.149.113-.149.315 0 .149.055.245.055.094.184.174.132.079.4.175.45.16.62.345.17.184.17.478zM25.45 20.201q-.476 0-.753-.29-.274-.29-.274-.805 0-.52.255-.825.256-.306.688-.306.403 0 .638.267.235.264.235.7v.205H24.76q.01.378.19.574.182.196.512.196.346 0 .685-.145v.29q-.172.075-.327.106-.153.033-.37.033zm-.088-1.953q-.259 0-.414.168-.153.169-.18.466h1.123q0-.307-.137-.47-.138-.164-.392-.164zM27.65 20.201q-.466 0-.723-.286-.254-.288-.254-.813 0-.539.258-.833.26-.294.74-.294.156 0 .31.034.155.033.243.078l-.1.276q-.107-.043-.235-.07-.127-.03-.225-.03-.654 0-.654.835 0 .396.158.607.16.212.474.212.269 0 .551-.116v.289q-.215.111-.543.111zM30.558 19.086q0 .525-.264.821-.265.294-.731.294-.288 0-.512-.135-.223-.135-.345-.388-.121-.253-.121-.592 0-.525.263-.817.262-.294.728-.294.451 0 .716.3.266.3.266.811zm-1.636 0q0 .412.165.627.164.216.484.216.319 0 .484-.214.166-.215.166-.629 0-.41-.166-.62-.165-.214-.488-.214-.32 0-.482.21-.163.209-.163.624zM32.596 20.162v-1.39q0-.262-.12-.391-.12-.13-.374-.13-.337 0-.494.183-.156.182-.156.601v1.127h-.326v-2.148h.265l.053.294h.015q.1-.158.28-.245.181-.088.402-.088.388 0 .584.188.196.187.196.598v1.401zM35.05 19.874h-.018q-.226.327-.674.327-.422 0-.657-.288-.233-.288-.233-.819 0-.53.235-.825.235-.294.655-.294.436 0 .67.318h.025l-.014-.155-.007-.151v-.874h.325v3.049h-.265zm-.651.055q.333 0 .482-.18.15-.183.15-.586v-.069q0-.456-.152-.65-.151-.196-.484-.196-.286 0-.44.223-.15.221-.15.627 0 .412.15.621.152.21.444.21zM37.95 20.201q-.467 0-.724-.286-.255-.288-.255-.813 0-.539.26-.833.26-.294.74-.294.155 0 .31.034.154.033.242.078l-.1.276q-.107-.043-.235-.07-.127-.03-.225-.03-.655 0-.655.835 0 .396.16.607.16.212.473.212.269 0 .551-.116v.289q-.216.111-.543.111zM40.473 20.162v-1.39q0-.262-.12-.391-.119-.13-.374-.13-.339 0-.496.185-.154.184-.154.603v1.123h-.326v-3.049h.326v.923q0 .167-.016.276h.02q.096-.155.272-.243.178-.09.406-.09.393 0 .59.188.197.186.197.594v1.401zM41.79 20.162h-.326v-2.148h.326zm-.353-2.73q0-.111.055-.162.055-.053.137-.053.078 0 .135.053.057.053.057.162 0 .11-.057.165-.057.053-.135.053-.082 0-.137-.053-.055-.055-.055-.165zM42.809 20.162h-.326v-3.049h.326zM44.964 19.874h-.018q-.225.327-.674.327-.42 0-.656-.288-.233-.288-.233-.819 0-.53.235-.825.235-.294.654-.294.437 0 .67.318h.026l-.014-.155-.008-.151v-.874h.326v3.049h-.265zm-.65.055q.333 0 .482-.18.15-.183.15-.586v-.069q0-.456-.152-.65-.151-.196-.484-.196-.286 0-.44.223-.15.221-.15.627 0 .412.15.621.152.21.444.21z"/></g><path d="M26.123 47.608h79.375v34.396H26.123z" fill="#dfdff9"/><path d="M18.52 52.26h5.292" fill="none" stroke="#000" stroke-width=".265" marker-end="url(#e)" transform="translate(.988 3.286)"/><path d="M26.123 79.358h79.375v2.646H26.123z" fill="#705697"/><g style="line-height:1.25;-inkscape-font-specification:'Open Sans, Normal';font-variant-ligatures:normal;font-variant-caps:normal;font-variant-numeric:normal;font-feature-settings:normal;text-align:start" aria-label="First child’s top margin" font-weight="400" font-size="4.233" font-family="Open Sans" letter-spacing="0" word-spacing="0" stroke-width=".265"><path style="-inkscape-font-specification:'Open Sans, Normal';font-variant-ligatures:normal;font-variant-caps:normal;font-variant-numeric:normal;font-feature-settings:normal;text-align:start" d="M48.652 52.677h-.351v-3.022h1.684v.312h-1.333v1.106h1.253v.312h-1.253zM50.775 52.677h-.343V50.41h.343zm-.372-2.88q0-.117.058-.171.058-.056.144-.056.083 0 .143.056.06.056.06.172 0 .115-.06.173-.06.056-.143.056-.086 0-.144-.056-.058-.058-.058-.173zM52.54 50.37q.151 0 .27.025l-.047.318q-.14-.03-.248-.03-.275 0-.471.222-.194.224-.194.556v1.216h-.343V50.41h.283l.039.42h.017q.126-.221.303-.341.178-.12.391-.12zM54.696 52.059q0 .316-.236.488-.235.171-.661.171-.45 0-.703-.142v-.319q.163.083.35.13.188.048.361.048.269 0 .414-.085.144-.087.144-.262 0-.132-.115-.226-.114-.095-.447-.223-.316-.118-.45-.204-.133-.09-.199-.2-.064-.113-.064-.268 0-.277.225-.436.226-.16.618-.16.366 0 .715.148l-.121.279q-.342-.14-.619-.14-.243 0-.367.076t-.124.21q0 .092.045.156.048.064.15.122.104.058.398.167.403.147.543.296.143.149.143.374zM55.984 52.435q.09 0 .176-.012.084-.015.134-.03v.263q-.056.027-.165.044-.108.018-.195.018-.657 0-.657-.692v-1.348h-.325v-.165l.325-.143.145-.484h.198v.525h.657v.267h-.657v1.333q0 .205.097.315.097.11.267.11zM58.754 52.718q-.492 0-.763-.302-.269-.303-.269-.857 0-.569.273-.879.275-.31.781-.31.164 0 .327.035t.256.083l-.105.291q-.114-.045-.248-.074-.135-.031-.238-.031-.69 0-.69.88 0 .418.167.641.17.224.5.224.284 0 .581-.122v.303q-.227.118-.572.118zM61.416 52.677V51.21q0-.277-.126-.413-.126-.136-.395-.136-.357 0-.523.194-.163.194-.163.636v1.185h-.343V49.46h.343v.973q0 .176-.017.292h.021q.101-.164.287-.257.188-.095.428-.095.416 0 .622.199.21.196.21.626v1.478zM62.805 52.677h-.343V50.41h.343zm-.372-2.88q0-.117.058-.171.058-.056.145-.056.082 0 .142.056.06.056.06.172 0 .115-.06.173-.06.056-.142.056-.087 0-.145-.056-.058-.058-.058-.173zM63.88 52.677h-.343V49.46h.343zM66.154 52.373h-.019q-.238.345-.71.345-.445 0-.693-.304-.246-.303-.246-.864 0-.56.248-.87.248-.31.69-.31.461 0 .707.335h.027l-.015-.163-.008-.16v-.921h.343v3.216H66.2zm-.687.058q.352 0 .509-.19.16-.192.16-.618v-.073q0-.481-.162-.686-.16-.207-.51-.207-.302 0-.464.236-.159.234-.159.661 0 .435.16.656.158.22.466.22zM67.483 49.655l.03.045q-.053.207-.154.482-.101.273-.211.508h-.252q.145-.589.21-1.035zM69.389 52.059q0 .316-.236.488-.236.171-.661.171-.451 0-.703-.142v-.319q.163.083.35.13.187.048.36.048.27 0 .414-.085.145-.087.145-.262 0-.132-.116-.226-.113-.095-.446-.223-.317-.118-.45-.204-.133-.09-.2-.2-.063-.113-.063-.268 0-.277.225-.436.225-.16.618-.16.366 0 .715.148l-.122.279q-.34-.14-.618-.14-.244 0-.368.076t-.124.21q0 .092.046.156.047.064.15.122.104.058.397.167.403.147.544.296.143.149.143.374zM71.776 52.435q.091 0 .176-.012.085-.015.134-.03v.263q-.056.027-.165.044-.108.018-.194.018-.658 0-.658-.692v-1.348h-.324v-.165l.324-.143.145-.484h.198v.525h.658v.267h-.658v1.333q0 .205.097.315.098.11.267.11zM74.496 51.542q0 .554-.279.866-.279.31-.77.31-.305 0-.54-.142-.236-.143-.364-.41-.128-.266-.128-.624 0-.554.277-.862.277-.31.769-.31.475 0 .754.316.281.317.281.856zm-1.726 0q0 .434.174.662.174.227.51.227.338 0 .511-.225.176-.228.176-.664 0-.432-.176-.655-.173-.225-.515-.225-.336 0-.508.22-.172.222-.172.66zM76.15 52.718q-.221 0-.405-.08-.182-.083-.306-.253h-.025q.025.199.025.377v.932h-.343V50.41h.279l.047.31h.017q.132-.186.308-.268.176-.083.403-.083.45 0 .695.308.246.308.246.864 0 .558-.25.868-.249.308-.691.308zm-.05-2.056q-.347 0-.502.192-.155.192-.159.612v.076q0 .478.16.684.158.205.51.205.293 0 .459-.238.167-.237.167-.655 0-.424-.167-.65-.166-.226-.468-.226zM81.68 52.677v-1.474q0-.27-.116-.405-.116-.136-.36-.136-.32 0-.473.183-.153.184-.153.567v1.265h-.343v-1.474q0-.27-.116-.405-.116-.136-.362-.136-.322 0-.473.194-.15.192-.15.632v1.189h-.342V50.41h.279l.056.31h.016q.097-.165.273-.258.178-.093.397-.093.531 0 .694.385h.017q.101-.178.293-.282.193-.103.439-.103.384 0 .574.199.193.196.193.63v1.478zM84.12 52.677l-.068-.323h-.016q-.17.213-.34.29-.167.074-.419.074-.337 0-.529-.173-.19-.174-.19-.494 0-.687 1.098-.72l.384-.012v-.14q0-.267-.116-.393-.113-.129-.366-.129-.283 0-.64.174l-.106-.262q.168-.091.366-.143.2-.052.401-.052.405 0 .6.18.196.18.196.577v1.546zm-.775-.242q.32 0 .503-.176.184-.175.184-.492v-.204l-.343.014q-.41.015-.592.128-.18.112-.18.35 0 .186.112.283.114.097.316.097zM86.117 50.37q.151 0 .271.025l-.047.318q-.14-.03-.248-.03-.275 0-.472.222-.194.224-.194.556v1.216h-.343V50.41h.283l.04.42h.016q.126-.221.304-.341.177-.12.39-.12zM88.666 50.411v.217l-.42.05q.058.072.104.19.045.116.045.263 0 .333-.227.531t-.624.198q-.102 0-.19-.016-.22.116-.22.291 0 .093.077.139.076.043.262.043h.401q.368 0 .565.155.198.155.198.45 0 .377-.302.573-.301.199-.88.199-.445 0-.687-.165-.24-.166-.24-.468 0-.206.133-.357.132-.151.372-.205-.087-.04-.147-.122-.058-.082-.058-.192 0-.124.067-.217.066-.093.208-.18-.175-.072-.287-.246-.11-.174-.11-.397 0-.372.224-.572.223-.203.632-.203.178 0 .32.041zm-1.807 2.646q0 .184.155.28.156.094.445.094.432 0 .639-.13.208-.128.208-.35 0-.183-.113-.255-.114-.07-.428-.07h-.412q-.233 0-.363.11-.13.112-.13.321zm.186-1.92q0 .238.135.36.134.122.374.122.502 0 .502-.488 0-.51-.508-.51-.242 0-.372.13t-.13.386zM89.478 52.677h-.343V50.41h.343zm-.372-2.88q0-.117.058-.171.058-.056.145-.056.083 0 .143.056.06.056.06.172 0 .115-.06.173-.06.056-.143.056-.087 0-.145-.056-.058-.058-.058-.173zM91.76 52.677V51.21q0-.277-.126-.413-.126-.136-.394-.136-.356 0-.521.192-.166.192-.166.634v1.189h-.343V50.41h.28l.055.31h.017q.105-.167.295-.258.19-.093.424-.093.41 0 .616.199.207.196.207.63v1.478z"/></g><g style="line-height:1.25;-inkscape-font-specification:'Open Sans, Normal';font-variant-ligatures:normal;font-variant-caps:normal;font-variant-numeric:normal;font-feature-settings:normal;text-align:start" aria-label="First child’s bottom margin" font-weight="400" font-size="4.233" font-family="Open Sans" letter-spacing="0" word-spacing="0" stroke-width=".265"><path style="-inkscape-font-specification:'Open Sans, Normal';font-variant-ligatures:normal;font-variant-caps:normal;font-variant-numeric:normal;font-feature-settings:normal;text-align:start" d="M48.652 60.614h-.351v-3.022h1.684v.313h-1.333v1.105h1.253v.313h-1.253zM50.775 60.614h-.343V58.35h.343zm-.372-2.879q0-.118.058-.172.058-.055.144-.055.083 0 .143.055.06.056.06.172 0 .116-.06.174-.06.055-.143.055-.086 0-.144-.055-.058-.058-.058-.174zM52.54 58.308q.151 0 .27.024l-.047.319q-.14-.031-.248-.031-.275 0-.471.223-.194.223-.194.556v1.215h-.343V58.35h.283l.039.42h.017q.126-.222.303-.342.178-.12.391-.12zM54.696 59.996q0 .317-.236.488-.235.172-.661.172-.45 0-.703-.143v-.318q.163.082.35.13.188.048.361.048.269 0 .414-.085.144-.087.144-.263 0-.132-.115-.225-.114-.095-.447-.223-.316-.118-.45-.205-.133-.089-.199-.2-.064-.112-.064-.267 0-.277.225-.436.226-.161.618-.161.366 0 .715.148l-.121.28q-.342-.141-.619-.141-.243 0-.367.076-.124.077-.124.211 0 .091.045.155.048.064.15.122.104.058.398.168.403.146.543.295.143.149.143.374zM55.984 60.373q.09 0 .176-.013.084-.014.134-.029v.263q-.056.027-.165.043-.108.019-.195.019-.657 0-.657-.693v-1.347h-.325v-.166l.325-.142.145-.484h.198v.525h.657v.267h-.657v1.333q0 .204.097.314.097.11.267.11zM58.754 60.656q-.492 0-.763-.302-.269-.304-.269-.858 0-.568.273-.878.275-.31.781-.31.164 0 .327.035t.256.082l-.105.292q-.114-.046-.248-.075-.135-.03-.238-.03-.69 0-.69.88 0 .418.167.64.17.224.5.224.284 0 .581-.122v.304q-.227.118-.572.118zM61.416 60.614V59.15q0-.277-.126-.414-.126-.136-.395-.136-.357 0-.523.194-.163.195-.163.637v1.184h-.343v-3.216h.343v.974q0 .175-.017.291h.021q.101-.163.287-.256.188-.095.428-.095.416 0 .622.198.21.197.21.626v1.478zM62.805 60.614h-.343V58.35h.343zm-.372-2.879q0-.118.058-.172.058-.055.145-.055.082 0 .142.055.06.056.06.172 0 .116-.06.174-.06.055-.142.055-.087 0-.145-.055-.058-.058-.058-.174zM63.88 60.614h-.343v-3.216h.343zM66.154 60.31h-.019q-.238.346-.71.346-.445 0-.693-.304-.246-.304-.246-.864t.248-.87q.248-.31.69-.31.461 0 .707.334h.027l-.015-.163-.008-.159v-.922h.343v3.216H66.2zm-.687.058q.352 0 .509-.19.16-.192.16-.618v-.072q0-.482-.162-.686-.16-.207-.51-.207-.302 0-.464.236-.159.233-.159.661 0 .434.16.655.158.221.466.221zM67.483 57.592l.03.046q-.053.207-.154.481-.101.273-.211.509h-.252q.145-.59.21-1.036zM69.389 59.996q0 .317-.236.488-.236.172-.661.172-.451 0-.703-.143v-.318q.163.082.35.13.187.048.36.048.27 0 .414-.085.145-.087.145-.263 0-.132-.116-.225-.113-.095-.446-.223-.317-.118-.45-.205-.133-.089-.2-.2-.063-.112-.063-.267 0-.277.225-.436.225-.161.618-.161.366 0 .715.148l-.122.28q-.34-.141-.618-.141-.244 0-.368.076-.124.077-.124.211 0 .091.046.155.047.064.15.122.104.058.397.168.403.146.544.295.143.149.143.374zM72.099 58.312q.446 0 .692.306.248.303.248.862 0 .558-.25.868-.248.308-.69.308-.222 0-.406-.08-.181-.084-.305-.253h-.025l-.073.291h-.246v-3.216h.344v.781q0 .263-.017.472h.017q.24-.34.71-.34zm-.05.287q-.351 0-.506.203-.155.2-.155.678 0 .477.159.684.159.204.51.204.317 0 .472-.229.155-.232.155-.664 0-.442-.155-.659-.155-.217-.48-.217zM75.596 59.48q0 .554-.279.866-.28.31-.771.31-.304 0-.54-.143-.235-.143-.363-.41-.128-.266-.128-.623 0-.554.277-.862.276-.31.768-.31.476 0 .755.316.281.316.281.856zm-1.726 0q0 .434.174.661.173.227.51.227t.51-.225q.177-.227.177-.663 0-.432-.176-.656-.174-.225-.515-.225-.337 0-.508.221-.172.221-.172.66zM76.927 60.373q.091 0 .176-.013.085-.014.134-.029v.263q-.056.027-.165.043-.108.019-.194.019-.658 0-.658-.693v-1.347h-.324v-.166l.324-.142.145-.484h.198v.525h.658v.267h-.658v1.333q0 .204.098.314.097.11.266.11zM78.424 60.373q.09 0 .175-.013.085-.014.135-.029v.263q-.056.027-.166.043-.107.019-.194.019-.657 0-.657-.693v-1.347h-.325v-.166l.325-.142.145-.484h.198v.525h.657v.267h-.657v1.333q0 .204.097.314.097.11.267.11zM81.144 59.48q0 .554-.279.866-.28.31-.771.31-.304 0-.54-.143-.235-.143-.363-.41-.128-.266-.128-.623 0-.554.276-.862.277-.31.77-.31.475 0 .754.316.281.316.281.856zm-1.726 0q0 .434.174.661.173.227.51.227t.51-.225q.176-.227.176-.663 0-.432-.175-.656-.174-.225-.515-.225-.337 0-.508.221-.172.221-.172.66zM84.631 60.614v-1.473q0-.271-.116-.406-.115-.136-.36-.136-.32 0-.473.184-.153.184-.153.566v1.265h-.343v-1.473q0-.271-.115-.406-.116-.136-.362-.136-.323 0-.474.194-.148.193-.148.633v1.188h-.344V58.35h.28l.055.31h.017q.097-.165.273-.258.178-.093.397-.093.53 0 .694.384h.017q.101-.178.293-.281.192-.103.438-.103.385 0 .575.198.192.196.192.63v1.478zM89.667 60.614v-1.473q0-.271-.116-.406-.116-.136-.36-.136-.32 0-.473.184-.153.184-.153.566v1.265h-.343v-1.473q0-.271-.116-.406-.116-.136-.362-.136-.322 0-.473.194-.149.193-.149.633v1.188h-.343V58.35h.279l.056.31h.016q.097-.165.273-.258.178-.093.397-.093.531 0 .694.384h.017q.101-.178.294-.281.192-.103.438-.103.384 0 .574.198.193.196.193.63v1.478zM92.108 60.614l-.069-.322h-.016q-.17.213-.339.29-.167.074-.42.074-.337 0-.529-.174-.19-.174-.19-.494 0-.686 1.098-.72l.384-.012v-.14q0-.267-.116-.393-.113-.128-.366-.128-.283 0-.64.174l-.106-.263q.168-.09.366-.143.2-.051.401-.051.405 0 .6.18.196.18.196.576v1.546zm-.775-.241q.32 0 .502-.176.184-.176.184-.492V59.5l-.343.015q-.41.014-.591.128-.18.112-.18.35 0 .185.111.282.114.098.317.098zM94.104 58.308q.151 0 .271.024l-.047.319q-.14-.031-.248-.031-.275 0-.472.223-.194.223-.194.556v1.215h-.343V58.35h.283l.04.42h.016q.126-.222.304-.342.178-.12.39-.12zM96.653 58.349v.217l-.42.05q.058.072.104.19.045.115.045.262 0 .333-.227.531-.227.199-.624.199-.102 0-.19-.017-.22.116-.22.292 0 .093.077.138.076.044.262.044h.401q.368 0 .565.155.198.155.198.45 0 .377-.302.573-.301.198-.88.198-.445 0-.686-.165-.24-.165-.24-.467 0-.207.132-.358.132-.15.372-.204-.087-.04-.147-.122-.057-.083-.057-.193 0-.124.066-.217t.208-.18q-.175-.072-.287-.245-.11-.174-.11-.397 0-.372.224-.573.223-.202.632-.202.178 0 .32.04zm-1.806 2.646q0 .184.155.279.155.095.444.095.432 0 .639-.13.208-.128.208-.35 0-.184-.113-.256-.114-.07-.428-.07h-.411q-.234 0-.364.111-.13.112-.13.32zm.186-1.92q0 .237.134.36.134.121.374.121.502 0 .502-.488 0-.51-.508-.51-.242 0-.372.13t-.13.386zM97.466 60.614h-.344V58.35h.344zm-.373-2.879q0-.118.058-.172.058-.055.145-.055.083 0 .143.055.06.056.06.172 0 .116-.06.174-.06.055-.143.055-.087 0-.145-.055-.058-.058-.058-.174zM99.748 60.614V59.15q0-.277-.127-.414-.126-.136-.394-.136-.356 0-.521.192-.166.193-.166.635v1.188h-.343V58.35h.28l.055.31h.017q.105-.167.295-.258.19-.093.424-.093.41 0 .616.198.207.196.207.63v1.478z"/></g><g style="line-height:1.25;-inkscape-font-specification:'Open Sans, Normal';font-variant-ligatures:normal;font-variant-caps:normal;font-variant-numeric:normal;font-feature-settings:normal;text-align:start" aria-label="Parent’s top margin" font-weight="400" font-size="4.233" font-family="Open Sans" letter-spacing="0" word-spacing="0" stroke-width=".265"><path style="-inkscape-font-specification:'Open Sans, Normal';font-variant-ligatures:normal;font-variant-caps:normal;font-variant-numeric:normal;font-feature-settings:normal;text-align:start" d="M50.217 38.574q0 .46-.314.707-.313.246-.896.246h-.355v1.189h-.351v-3.022h.783q1.133 0 1.133.88zm-1.565.652h.316q.467 0 .676-.151.209-.151.209-.484 0-.3-.196-.447-.197-.146-.612-.146h-.393zM52.189 40.716l-.069-.323h-.016q-.17.213-.34.29-.166.074-.419.074-.337 0-.529-.173-.19-.174-.19-.494 0-.687 1.098-.72l.384-.012v-.14q0-.267-.116-.393-.113-.129-.366-.129-.283 0-.64.174l-.106-.263q.168-.09.366-.142.2-.052.401-.052.405 0 .6.18.196.18.196.577v1.546zm-.775-.242q.32 0 .502-.176.184-.175.184-.492v-.204l-.343.014q-.41.015-.591.128-.18.112-.18.35 0 .186.111.283.114.097.317.097zM54.185 38.41q.151 0 .271.024l-.047.318q-.14-.03-.248-.03-.275 0-.472.222-.194.224-.194.556v1.216h-.343V38.45h.283l.04.42h.016q.126-.221.304-.341.178-.12.39-.12zM55.837 40.757q-.502 0-.794-.306-.29-.306-.29-.85 0-.547.27-.87.27-.322.725-.322.426 0 .674.281.248.28.248.738v.217h-1.56q.01.4.2.606.192.207.54.207.365 0 .723-.153v.305q-.182.079-.345.112-.162.035-.39.035zm-.093-2.06q-.273 0-.436.177-.161.178-.19.492h1.184q0-.324-.145-.496-.144-.174-.413-.174zM58.803 40.716V39.25q0-.277-.126-.413-.126-.136-.395-.136-.355 0-.52.192-.166.192-.166.634v1.189h-.343V38.45h.279l.056.31h.016q.106-.167.296-.258.19-.093.424-.093.409 0 .616.198.206.197.206.63v1.479zM60.58 40.474q.092 0 .177-.012.084-.015.134-.03v.263q-.056.027-.165.044-.108.018-.195.018-.657 0-.657-.692v-1.348h-.325v-.165l.325-.143.145-.484h.198v.525h.657v.267h-.657v1.333q0 .205.097.314.097.11.267.11zM61.62 37.694l.032.045q-.054.207-.155.482-.102.273-.211.508h-.252q.144-.589.21-1.035zM63.527 40.098q0 .316-.236.488-.236.171-.662.171-.45 0-.702-.142v-.319q.163.083.349.13.188.048.362.048.268 0 .413-.085.145-.087.145-.262 0-.133-.116-.226-.114-.095-.446-.223-.317-.118-.451-.204-.132-.09-.199-.2-.064-.113-.064-.268 0-.277.226-.436.225-.161.618-.161.366 0 .715.149l-.122.279q-.341-.14-.618-.14-.244 0-.368.076t-.124.21q0 .092.045.156.048.064.151.122.104.058.397.167.403.147.544.296.142.149.142.374zM65.914 40.474q.09 0 .176-.012.084-.015.134-.03v.263q-.056.027-.165.044-.108.018-.195.018-.657 0-.657-.692v-1.348h-.325v-.165l.325-.143.145-.484h.198v.525h.657v.267h-.657v1.333q0 .205.097.314.097.11.267.11zM68.634 39.581q0 .554-.279.866-.279.31-.77.31-.305 0-.54-.142-.236-.143-.364-.41-.128-.266-.128-.624 0-.554.277-.862.277-.31.769-.31.475 0 .754.316.281.317.281.856zm-1.726 0q0 .434.174.662.173.227.51.227t.511-.225q.176-.228.176-.664 0-.432-.176-.655-.174-.225-.515-.225-.337 0-.508.22-.172.222-.172.66zM70.288 40.757q-.221 0-.405-.08-.182-.083-.306-.253h-.025q.025.199.025.377v.932h-.343V38.45h.279l.047.31h.017q.132-.186.308-.268.175-.083.403-.083.45 0 .694.308.246.308.246.864 0 .558-.25.868-.248.308-.69.308zm-.05-2.056q-.347 0-.502.192-.155.192-.16.612v.076q0 .478.16.684.16.205.51.205.294 0 .46-.238.167-.238.167-.655 0-.424-.168-.65-.165-.226-.467-.226zM75.817 40.716v-1.474q0-.27-.116-.405-.115-.136-.36-.136-.32 0-.473.183-.153.184-.153.567v1.265h-.343v-1.474q0-.27-.115-.405-.116-.136-.362-.136-.323 0-.473.194-.15.192-.15.632v1.189h-.342V38.45h.279l.055.31h.017q.097-.165.273-.258.178-.093.397-.093.53 0 .694.385h.017q.101-.178.293-.282.193-.103.438-.103.385 0 .575.198.192.197.192.63v1.479zM78.258 40.716l-.068-.323h-.016q-.17.213-.34.29-.167.074-.419.074-.337 0-.53-.173-.19-.174-.19-.494 0-.687 1.098-.72l.385-.012v-.14q0-.267-.116-.393-.114-.129-.366-.129-.283 0-.64.174l-.106-.263q.167-.09.366-.142.2-.052.4-.052.406 0 .6.18.197.18.197.577v1.546zm-.775-.242q.32 0 .503-.176.184-.175.184-.492v-.204l-.344.014q-.409.015-.59.128-.18.112-.18.35 0 .186.111.283.114.097.316.097zM80.255 38.41q.151 0 .271.024l-.048.318q-.14-.03-.248-.03-.275 0-.47.222-.195.224-.195.556v1.216h-.343V38.45h.283l.04.42h.016q.126-.221.304-.341.177-.12.39-.12zM82.804 38.45v.217l-.42.05q.058.072.104.19.045.116.045.263 0 .333-.227.531-.228.198-.625.198-.1 0-.19-.016-.219.116-.219.291 0 .093.077.139.076.043.262.043h.401q.368 0 .564.155.199.155.199.45 0 .377-.302.573-.302.199-.88.199-.445 0-.687-.165-.24-.166-.24-.468 0-.206.133-.357.132-.151.372-.205-.087-.04-.147-.122-.058-.083-.058-.192 0-.124.066-.217.067-.093.21-.18-.177-.072-.288-.246-.11-.174-.11-.397 0-.372.224-.572.223-.203.632-.203.178 0 .32.041zm-1.807 2.646q0 .184.155.28.155.094.445.094.432 0 .638-.13.21-.128.21-.35 0-.183-.114-.256-.114-.07-.428-.07h-.412q-.233 0-.364.112-.13.111-.13.32zm.186-1.92q0 .238.135.36.134.122.374.122.502 0 .502-.488 0-.51-.508-.51-.242 0-.372.13t-.13.386zM83.616 40.716h-.343V38.45h.343zm-.372-2.88q0-.117.058-.171.058-.056.145-.056.082 0 .142.056.06.056.06.171 0 .116-.06.174-.06.056-.142.056-.087 0-.145-.056-.058-.058-.058-.174zM85.898 40.716V39.25q0-.277-.126-.413-.126-.136-.395-.136-.355 0-.52.192-.166.192-.166.634v1.189h-.343V38.45h.279l.056.31h.016q.106-.167.296-.258.19-.093.424-.093.409 0 .616.198.206.197.206.63v1.479z"/></g><g style="line-height:1.25;-inkscape-font-specification:'Open Sans, Normal';font-variant-ligatures:normal;font-variant-caps:normal;font-variant-numeric:normal;font-feature-settings:normal;text-align:start" aria-label="Second child’s top margin" font-weight="400" font-size="4.233" font-family="Open Sans" letter-spacing="0" word-spacing="0" stroke-width=".265"><path style="-inkscape-font-specification:'Open Sans, Normal';font-variant-ligatures:normal;font-variant-caps:normal;font-variant-numeric:normal;font-feature-settings:normal;text-align:start" d="M50.006 71.717q0 .399-.29.622-.289.223-.785.223-.537 0-.827-.138v-.34q.186.08.405.125.22.045.434.045.352 0 .53-.132.177-.135.177-.372 0-.157-.064-.257-.062-.1-.21-.186-.147-.084-.45-.192-.42-.15-.603-.358-.18-.206-.18-.539 0-.35.263-.556.262-.207.695-.207.45 0 .828.166l-.11.306q-.373-.158-.727-.158-.279 0-.436.12-.157.12-.157.333 0 .157.058.258.058.1.194.184.139.083.422.184.475.17.653.364.18.195.18.505zM51.53 72.562q-.503 0-.794-.306-.29-.306-.29-.85 0-.547.269-.87.27-.322.725-.322.426 0 .674.28.248.28.248.739v.217h-1.56q.01.399.2.606.192.206.54.206.366 0 .723-.153v.306q-.182.079-.345.112-.161.035-.39.035zm-.094-2.06q-.273 0-.436.177-.161.178-.19.492h1.184q0-.325-.144-.496-.145-.174-.414-.174zM53.85 72.562q-.491 0-.762-.302-.269-.304-.269-.858 0-.568.273-.878.275-.31.781-.31.164 0 .327.035t.256.083l-.105.291q-.114-.045-.248-.074-.135-.031-.238-.031-.69 0-.69.88 0 .418.167.641.17.223.5.223.284 0 .581-.122v.304q-.227.118-.572.118zM56.918 71.386q0 .554-.279.866-.279.31-.77.31-.305 0-.54-.143-.236-.142-.364-.409t-.128-.624q0-.554.277-.862.277-.31.769-.31.475 0 .754.316.281.316.281.856zm-1.726 0q0 .434.174.661.173.228.51.228t.51-.226q.177-.227.177-.663 0-.432-.176-.655-.174-.226-.515-.226-.337 0-.508.221-.172.222-.172.66zM59.068 72.52v-1.465q0-.277-.126-.413-.126-.137-.395-.137-.356 0-.52.193-.166.192-.166.634v1.189h-.343v-2.266h.279l.055.31h.017q.105-.167.296-.258.19-.093.423-.093.41 0 .616.198.207.197.207.63v1.479zM61.656 72.217h-.019q-.237.345-.71.345-.445 0-.693-.304-.246-.304-.246-.864t.248-.87q.248-.31.69-.31.461 0 .707.335h.027l-.015-.164-.008-.159v-.922h.343v3.217h-.279zm-.686.058q.351 0 .508-.19.16-.193.16-.619v-.072q0-.482-.162-.686-.16-.207-.51-.207-.302 0-.464.236-.159.233-.159.661 0 .434.16.656.159.22.467.22zM64.715 72.562q-.492 0-.763-.302-.268-.304-.268-.858 0-.568.272-.878.275-.31.782-.31.163 0 .326.035.164.035.257.083l-.106.291q-.113-.045-.248-.074-.134-.031-.237-.031-.69 0-.69.88 0 .418.167.641.17.223.5.223.283 0 .58-.122v.304q-.227.118-.572.118zM67.377 72.52v-1.465q0-.277-.126-.413-.126-.137-.394-.137-.358 0-.523.195-.164.194-.164.636v1.185h-.343v-3.217h.343v.974q0 .176-.016.291h.02q.102-.163.288-.256.188-.095.428-.095.415 0 .622.198.209.197.209.627v1.478zM68.766 72.52h-.343v-2.265h.343zm-.372-2.879q0-.118.058-.171.058-.056.145-.056.083 0 .143.056.06.055.06.171 0 .116-.06.174-.06.056-.143.056-.087 0-.145-.056-.058-.058-.058-.174zM69.841 72.52h-.343v-3.216h.343zM72.115 72.217h-.018q-.238.345-.712.345-.444 0-.692-.304-.246-.304-.246-.864t.248-.87q.248-.31.69-.31.461 0 .707.335h.027l-.014-.164-.009-.159v-.922h.344v3.217h-.28zm-.686.058q.351 0 .508-.19.16-.193.16-.619v-.072q0-.482-.162-.686-.159-.207-.51-.207-.302 0-.463.236-.16.233-.16.661 0 .434.16.656.159.22.467.22zM73.444 69.499l.031.045q-.053.207-.155.482-.101.273-.21.508h-.253q.145-.589.211-1.035zM75.35 71.903q0 .316-.236.487-.235.172-.661.172-.45 0-.703-.143v-.318q.163.083.35.13.188.048.361.048.269 0 .414-.085.144-.087.144-.262 0-.133-.115-.226-.114-.095-.447-.223-.316-.118-.45-.205-.133-.089-.199-.2-.064-.112-.064-.267 0-.277.225-.436.226-.161.618-.161.366 0 .716.149l-.122.279q-.341-.14-.618-.14-.244 0-.368.076t-.124.21q0 .091.045.155.048.065.15.122.104.058.398.168.403.147.543.295.143.15.143.375zM77.738 72.279q.09 0 .175-.013.085-.014.135-.029v.263q-.056.027-.166.043-.107.019-.194.019-.657 0-.657-.692v-1.348h-.325v-.166l.325-.142.144-.484h.199v.525h.657v.267h-.657v1.333q0 .205.097.314.097.11.267.11zM80.458 71.386q0 .554-.28.866-.278.31-.77.31-.304 0-.54-.143-.235-.142-.364-.409-.128-.267-.128-.624 0-.554.277-.862.277-.31.77-.31.475 0 .754.316.28.316.28.856zm-1.726 0q0 .434.173.661.174.228.511.228t.51-.226q.176-.227.176-.663 0-.432-.175-.655-.174-.226-.515-.226-.337 0-.509.221-.171.222-.171.66zM82.111 72.562q-.22 0-.405-.08-.182-.083-.306-.253h-.024q.024.199.024.376v.933h-.343v-3.283h.28l.047.31h.016q.133-.186.308-.268.176-.083.403-.083.451 0 .695.308.246.308.246.864 0 .558-.25.868-.248.308-.69.308zm-.05-2.057q-.346 0-.501.193-.156.192-.16.611v.077q0 .477.16.684.159.205.51.205.294 0 .459-.238.167-.238.167-.655 0-.424-.167-.65-.165-.227-.467-.227zM87.64 72.52v-1.473q0-.27-.115-.405-.116-.137-.36-.137-.32 0-.473.184-.153.184-.153.567v1.265h-.343v-1.474q0-.27-.116-.405-.116-.137-.362-.137-.322 0-.473.195-.149.192-.149.632v1.189h-.343v-2.266h.28l.055.31h.017q.097-.165.272-.258.178-.093.397-.093.531 0 .695.384h.016q.102-.177.294-.28.192-.104.438-.104.385 0 .575.198.192.197.192.63v1.479zM90.082 72.52l-.068-.322h-.017q-.17.213-.339.29-.167.074-.42.074-.336 0-.529-.174-.19-.173-.19-.494 0-.686 1.098-.719l.384-.012v-.141q0-.267-.115-.393-.114-.128-.366-.128-.283 0-.641.174l-.105-.263q.167-.09.365-.142.2-.052.401-.052.406 0 .6.18.196.18.196.576v1.547zm-.775-.241q.32 0 .502-.176.184-.176.184-.492v-.204l-.343.014q-.41.014-.591.128-.18.112-.18.35 0 .186.112.283.113.097.316.097zM92.079 70.214q.15 0 .27.025l-.047.318q-.14-.031-.248-.031-.275 0-.471.223-.195.223-.195.556v1.216h-.343v-2.266h.283l.04.42h.016q.126-.221.304-.341.178-.12.39-.12zM94.627 70.255v.217l-.42.05q.059.072.104.19.046.116.046.263 0 .332-.228.53-.227.2-.624.2-.101 0-.19-.017-.22.115-.22.291 0 .093.077.139.077.043.263.043h.4q.369 0 .565.155.199.155.199.45 0 .377-.302.573-.302.199-.88.199-.445 0-.687-.166-.24-.165-.24-.467 0-.207.132-.357.133-.151.372-.205-.086-.04-.146-.122-.058-.083-.058-.192 0-.124.066-.217t.209-.18q-.176-.073-.288-.246-.11-.174-.11-.397 0-.372.224-.573.223-.202.633-.202.177 0 .32.041zm-1.806 2.646q0 .184.155.28.155.094.444.094.432 0 .639-.13.209-.128.209-.35 0-.183-.114-.256-.114-.07-.428-.07h-.411q-.234 0-.364.112-.13.111-.13.32zm.186-1.92q0 .237.134.36.135.121.374.121.503 0 .503-.487 0-.511-.509-.511-.242 0-.372.13t-.13.387zM95.44 72.52h-.343v-2.265h.343zm-.372-2.879q0-.118.058-.171.057-.056.144-.056.083 0 .143.056.06.055.06.171 0 .116-.06.174-.06.056-.143.056-.087 0-.144-.056-.058-.058-.058-.174zM97.722 72.52v-1.465q0-.277-.126-.413-.126-.137-.395-.137-.356 0-.521.193-.165.192-.165.634v1.189h-.343v-2.266h.279l.055.31h.017q.105-.167.296-.258.19-.093.423-.093.41 0 .616.198.207.197.207.63v1.479z"/></g><g style="line-height:1.25;-inkscape-font-specification:'Open Sans, Normal';font-variant-ligatures:normal;font-variant-caps:normal;font-variant-numeric:normal;font-feature-settings:normal;text-align:start" aria-label="20 px" font-weight="400" font-size="4.233" font-family="Open Sans" letter-spacing="0" word-spacing="0" fill="#131516" stroke-width=".265"><path style="-inkscape-font-specification:'Open Sans, Normal';font-variant-ligatures:normal;font-variant-caps:normal;font-variant-numeric:normal;font-feature-settings:normal;text-align:start" d="M36.254 40.697h-1.987v-.295l.796-.8q.364-.368.48-.525.115-.157.173-.306.058-.149.058-.32 0-.242-.147-.383-.146-.143-.407-.143-.188 0-.357.062-.168.062-.375.226l-.181-.234q.417-.347.91-.347.425 0 .667.219.242.217.242.585 0 .287-.162.568-.16.281-.603.711l-.662.647v.017h1.555zM38.693 39.182q0 .784-.248 1.17-.246.387-.755.387-.487 0-.742-.395-.254-.397-.254-1.162 0-.79.246-1.172.246-.382.75-.382.492 0 .747.399.256.399.256 1.155zm-1.652 0q0 .66.155.961.155.3.494.3.343 0 .496-.304.155-.306.155-.957t-.155-.953q-.153-.304-.496-.304-.339 0-.494.3-.155.298-.155.957zM41.423 40.739q-.22 0-.405-.081-.182-.083-.306-.252h-.024q.024.198.024.376v.932h-.343v-3.282h.28l.047.31h.016q.133-.186.308-.269.176-.083.403-.083.451 0 .695.308.246.308.246.864 0 .559-.25.869-.248.308-.69.308zm-.05-2.057q-.346 0-.501.192-.155.192-.16.612v.076q0 .478.16.685.159.204.51.204.294 0 .459-.237.167-.238.167-.656 0-.423-.167-.649-.165-.227-.467-.227zM43.511 39.538l-.787-1.106h.39l.598.868.595-.868h.387l-.788 1.106.829 1.16h-.389l-.634-.918-.641.917h-.389z"/></g><g style="line-height:1.25;-inkscape-font-specification:'Open Sans, Normal';font-variant-ligatures:normal;font-variant-caps:normal;font-variant-numeric:normal;font-feature-settings:normal;text-align:start" aria-label="20 px" font-weight="400" font-size="4.233" font-family="Open Sans" letter-spacing="0" word-spacing="0" fill="#131516" stroke-width=".265"><path style="-inkscape-font-specification:'Open Sans, Normal';font-variant-ligatures:normal;font-variant-caps:normal;font-variant-numeric:normal;font-feature-settings:normal;text-align:start" d="M36.254 72.447h-1.987v-.295l.796-.8q.364-.368.48-.525.115-.157.173-.306.058-.149.058-.32 0-.242-.147-.383-.146-.143-.407-.143-.188 0-.357.062-.168.062-.375.226l-.181-.234q.417-.347.91-.347.425 0 .667.219.242.217.242.585 0 .287-.162.568-.16.281-.603.711l-.662.647v.017h1.555zM38.693 70.932q0 .784-.248 1.17-.246.387-.755.387-.487 0-.742-.395-.254-.397-.254-1.162 0-.79.246-1.172.246-.382.75-.382.492 0 .747.399.256.399.256 1.155zm-1.652 0q0 .66.155.961.155.3.494.3.343 0 .496-.304.155-.306.155-.957t-.155-.953q-.153-.304-.496-.304-.339 0-.494.3-.155.298-.155.957zM41.423 72.489q-.22 0-.405-.081-.182-.083-.306-.252h-.024q.024.198.024.376v.932h-.343v-3.282h.28l.047.31h.016q.133-.186.308-.269.176-.083.403-.083.451 0 .695.308.246.308.246.864 0 .559-.25.869-.248.308-.69.308zm-.05-2.057q-.346 0-.501.192-.155.192-.16.612v.076q0 .478.16.685.159.204.51.204.294 0 .459-.237.167-.238.167-.656 0-.423-.167-.649-.165-.227-.467-.227zM43.511 71.288l-.787-1.106h.39l.598.868.595-.868h.387l-.788 1.106.829 1.16h-.389l-.634-.918-.641.917h-.389z"/></g><g stroke-width=".667" fill="#a2000d"><path d="M44.38 47.212h3.968v.396H44.38zM44.38 31.733h3.968v.397H44.38z"/><path d="M46.562 31.733v15.875h-.397V31.733z"/></g><g stroke-width=".667" fill="#a2000d"><path d="M44.38 55.15h3.968v.396H44.38zM44.38 47.608h3.968v.397H44.38z"/><path d="M46.562 47.608v7.938h-.397v-7.938z"/></g><g stroke-width=".667" fill="#a2000d"><path d="M44.38 63.087h3.968v.396H44.38zM44.38 55.546h3.968v.397H44.38z"/><path d="M46.562 55.546v7.937h-.397v-7.937z"/></g><path d="M26.123 55.546h79.375" fill="none" stroke="#374047" stroke-width=".794" stroke-dasharray=".79374996,2.3812499"/><g stroke-width=".667" fill="#a2000d"><path d="M44.38 78.962h3.968v.396H44.38zM44.38 63.483h3.968v.397H44.38z"/><path d="M46.562 63.483v15.875h-.397V63.483z"/></g><g style="line-height:1.25;-inkscape-font-specification:'Open Sans, Normal';font-variant-ligatures:normal;font-variant-caps:normal;font-variant-numeric:normal;font-feature-settings:normal;text-align:start" aria-label="10 px" font-weight="400" font-size="4.233" font-family="Open Sans" letter-spacing="0" word-spacing="0" fill="#131516" stroke-width=".265"><path style="-inkscape-font-specification:'Open Sans, Normal';font-variant-ligatures:normal;font-variant-caps:normal;font-variant-numeric:normal;font-feature-settings:normal;text-align:start" d="M35.539 60.541h-.335v-2.154q0-.269.016-.508-.043.043-.097.09-.054.048-.492.404l-.182-.236.8-.618h.29zM38.693 59.026q0 .783-.248 1.17-.246.386-.755.386-.487 0-.742-.394-.254-.397-.254-1.162 0-.79.246-1.172.246-.383.75-.383.492 0 .747.4.256.398.256 1.155zm-1.652 0q0 .66.155.961.155.3.494.3.343 0 .496-.304.155-.306.155-.957t-.155-.953q-.153-.304-.496-.304-.339 0-.494.3-.155.297-.155.957zM41.423 60.582q-.22 0-.405-.08-.182-.083-.306-.252h-.024q.024.198.024.376v.932h-.343v-3.282h.28l.047.31h.016q.133-.186.308-.27.176-.082.403-.082.451 0 .695.308.246.308.246.864 0 .558-.25.868-.248.308-.69.308zm-.05-2.056q-.346 0-.501.192-.155.192-.16.612v.076q0 .478.16.684.159.205.51.205.294 0 .459-.238.167-.237.167-.655 0-.424-.167-.649-.165-.227-.467-.227zM43.511 59.381l-.787-1.105h.39l.598.868.595-.868h.387l-.788 1.105.829 1.16h-.389l-.634-.918-.641.918h-.389z"/></g><g style="line-height:1.25;-inkscape-font-specification:'Open Sans, Normal';font-variant-ligatures:normal;font-variant-caps:normal;font-variant-numeric:normal;font-feature-settings:normal;text-align:start" aria-label="10 px" font-weight="400" font-size="4.233" font-family="Open Sans" letter-spacing="0" word-spacing="0" fill="#131516" stroke-width=".265"><path style="-inkscape-font-specification:'Open Sans, Normal';font-variant-ligatures:normal;font-variant-caps:normal;font-variant-numeric:normal;font-feature-settings:normal;text-align:start" d="M35.539 52.604h-.335V50.45q0-.27.016-.509-.043.044-.097.091-.054.048-.492.403l-.182-.235.8-.619h.29zM38.693 51.088q0 .784-.248 1.17-.246.387-.755.387-.487 0-.742-.395-.254-.397-.254-1.162 0-.79.246-1.172.246-.382.75-.382.492 0 .747.399.256.399.256 1.155zm-1.652 0q0 .66.155.962.155.3.494.3.343 0 .496-.305.155-.305.155-.957 0-.65-.155-.953-.153-.303-.496-.303-.339 0-.494.3-.155.297-.155.956zM41.423 52.645q-.22 0-.405-.08-.182-.083-.306-.253h-.024q.024.199.024.376v.933h-.343v-3.283h.28l.047.31h.016q.133-.186.308-.269.176-.082.403-.082.451 0 .695.308.246.308.246.864 0 .558-.25.868-.248.308-.69.308zm-.05-2.057q-.346 0-.501.192-.155.193-.16.612v.077q0 .477.16.684.159.205.51.205.294 0 .459-.238.167-.238.167-.655 0-.424-.167-.65-.165-.227-.467-.227zM43.511 51.444l-.787-1.106h.39l.598.868.595-.868h.387l-.788 1.106.829 1.16h-.389l-.634-.918-.641.918h-.389z"/></g><path d="M55.562 11.25L44.98 24.48" fill="#131516" stroke="#131516" stroke-width=".529" marker-end="url(#f)" transform="translate(.988 3.286)"/></svg>