<svg xmlns="http://www.w3.org/2000/svg" viewBox="0 0 72.769 23.813" height="90" width="275.032"><defs><marker id="a" refX="0" refY="0" orient="auto" overflow="visible"><path d="M10.69 4.437L-1.328.017 10.69-4.401c-1.92 2.61-1.909 6.18 0 8.84z" fill="#374047" fill-rule="evenodd" stroke="#374047" stroke-width=".6875" stroke-linejoin="round"/></marker><marker orient="auto" refY="0" refX="0" id="b" overflow="visible"><path d="M-10.69-4.437L1.328-.017-10.69 4.401c1.92-2.61 1.909-6.18 0-8.84z" fill="#374047" fill-rule="evenodd" stroke="#374047" stroke-width=".6875" stroke-linejoin="round"/></marker></defs><path d="M0 0h58.208v13.23H0z" fill="#dfdff9"/><path d="M0 0h13.23v13.23H0z" fill="#705697"/><g style="line-height:1.25" aria-label="Collapsed margin" font-weight="400" font-size="4.233" font-family="Open Sans" letter-spacing="0" word-spacing="0" fill="#000" stroke-width=".265"><path style="-inkscape-font-specification:'Open Sans'" d="M14.408 16.868q-.498 0-.787.333-.287.33-.287.908 0 .594.277.919.278.323.793.323.316 0 .72-.114v.308q-.314.118-.774.118-.667 0-1.03-.406-.362-.405-.362-1.152 0-.468.174-.82.175-.351.503-.541.33-.19.777-.19.475 0 .83.173l-.149.302q-.342-.161-.685-.161zM17.685 18.486q0 .554-.279.867-.278.31-.77.31-.304 0-.539-.143-.235-.143-.363-.41-.128-.266-.128-.624 0-.555.276-.863.277-.31.768-.31.475 0 .754.316.281.317.281.857zm-1.724 0q0 .434.173.662.174.227.51.227.337 0 .51-.225.176-.228.176-.664 0-.433-.176-.656-.173-.226-.514-.226-.336 0-.508.222-.171.221-.171.66zM18.627 19.622h-.343v-3.22h.343zM19.7 19.622h-.342v-3.22h.343zM21.824 19.622l-.069-.323h-.016q-.17.213-.339.29-.167.074-.419.074-.337 0-.529-.174-.19-.174-.19-.494 0-.687 1.097-.72l.384-.013v-.14q0-.267-.116-.394-.113-.128-.365-.128-.283 0-.64.174l-.106-.263q.168-.09.366-.143.2-.051.4-.051.405 0 .6.18.196.18.196.577v1.548zm-.775-.243q.32 0 .502-.175.184-.176.184-.493v-.205l-.343.015q-.409.014-.59.128-.18.112-.18.35 0 .186.111.283.114.097.316.097zM23.839 19.663q-.22 0-.405-.08-.181-.084-.305-.253h-.025q.025.198.025.376v.934h-.343v-3.286h.279l.047.31h.017q.132-.186.307-.269.176-.082.403-.082.45 0 .694.308.246.308.246.865 0 .558-.25.869-.248.308-.69.308zm-.05-2.059q-.346 0-.501.193-.155.192-.16.612v.077q0 .478.16.685.159.204.51.204.293 0 .458-.238.167-.238.167-.655 0-.425-.167-.65-.165-.228-.467-.228zM26.84 19.003q0 .316-.236.488-.235.172-.66.172-.45 0-.703-.143v-.318q.163.082.35.13.187.047.36.047.27 0 .414-.084.144-.087.144-.263 0-.133-.115-.226-.114-.095-.447-.223-.315-.118-.45-.205-.132-.089-.198-.2-.064-.112-.064-.268 0-.277.225-.436.225-.161.618-.161.365 0 .714.148l-.122.28q-.34-.14-.617-.14-.244 0-.368.076t-.124.21q0 .092.046.156.047.064.15.122.104.058.397.168.403.146.543.295.143.15.143.375zM28.351 19.663q-.502 0-.793-.306-.289-.306-.289-.85 0-.549.269-.872.27-.322.724-.322.426 0 .674.28.247.28.247.74v.217h-1.559q.01.4.2.606.193.207.54.207.365 0 .722-.153v.306q-.181.079-.344.112-.162.035-.39.035zm-.093-2.063q-.272 0-.435.178-.161.178-.19.492h1.183q0-.324-.145-.496-.144-.174-.413-.174zM31.306 19.317h-.018q-.238.346-.71.346-.445 0-.692-.304-.246-.304-.246-.865 0-.56.248-.871.247-.31.69-.31.46 0 .706.335h.027l-.015-.164-.008-.16v-.922h.343v3.22h-.28zm-.685.058q.35 0 .508-.19.159-.192.159-.619v-.072q0-.482-.161-.687-.16-.207-.51-.207-.302 0-.463.236-.159.234-.159.662 0 .435.16.656.158.221.466.221zM36.343 19.622v-1.476q0-.27-.116-.405-.115-.137-.359-.137-.32 0-.473.184-.153.185-.153.567v1.267H34.9v-1.476q0-.27-.116-.405-.116-.137-.361-.137-.323 0-.473.195-.149.192-.149.633v1.19h-.343v-2.268h.279l.056.31h.016q.097-.165.273-.258.177-.093.396-.093.531 0 .694.384h.017q.1-.178.293-.281.192-.103.438-.103.384 0 .574.198.192.197.192.631v1.48zM38.782 19.622l-.068-.323h-.017q-.169.213-.338.29-.168.074-.42.074-.336 0-.528-.174-.19-.174-.19-.494 0-.687 1.096-.72l.384-.013v-.14q0-.267-.115-.394-.114-.128-.366-.128-.283 0-.64.174l-.105-.263q.167-.09.365-.143.2-.051.4-.051.406 0 .6.18.196.18.196.577v1.548zm-.774-.243q.32 0 .501-.175.184-.176.184-.493v-.205l-.343.015q-.408.014-.59.128-.18.112-.18.35 0 .186.112.283.113.097.316.097zM40.777 17.313q.15 0 .27.024l-.047.319q-.14-.031-.248-.031-.275 0-.47.223-.195.224-.195.557v1.217h-.343v-2.268h.283l.04.42h.016q.126-.221.304-.341.177-.12.39-.12zM43.323 17.354v.217l-.42.05q.059.072.104.19.046.116.046.263 0 .333-.228.532-.227.198-.623.198-.101 0-.19-.016-.22.116-.22.291 0 .094.077.14.077.043.263.043h.4q.368 0 .564.155.198.155.198.45 0 .377-.301.574-.302.199-.88.199-.444 0-.686-.166-.24-.166-.24-.468 0-.207.133-.358.132-.15.372-.204-.087-.04-.147-.122-.058-.083-.058-.193 0-.124.066-.217t.209-.18q-.176-.073-.287-.246-.11-.174-.11-.398 0-.372.223-.573.223-.202.632-.202.178 0 .32.04zm-1.805 2.648q0 .184.155.28.155.095.444.095.432 0 .638-.13.209-.129.209-.35 0-.184-.114-.257-.113-.07-.427-.07h-.411q-.234 0-.364.112-.13.111-.13.32zm.186-1.922q0 .238.134.36.135.122.374.122.502 0 .502-.488 0-.511-.508-.511-.242 0-.372.13t-.13.387zM44.135 19.622h-.343v-2.268h.343zm-.372-2.883q0-.118.058-.171.058-.056.144-.056.083 0 .143.056.06.056.06.171 0 .116-.06.174-.06.056-.143.056-.086 0-.144-.056-.058-.058-.058-.174zM46.415 19.622v-1.467q0-.278-.126-.414-.126-.137-.395-.137-.355 0-.52.193-.165.192-.165.635v1.19h-.343v-2.268h.279l.055.31h.017q.105-.167.295-.258.19-.093.423-.093.41 0 .616.198.206.197.206.631v1.48z"/></g><path d="M15.875 31.094H7.937" transform="matrix(.83333 0 0 .625 51.594 -6.255)" fill="#374047" stroke="#374047" stroke-width=".164"/><path d="M15.875 31.094H7.937" transform="matrix(.83333 0 0 .625 51.594 -19.382)" fill="#374047" stroke="#374047" stroke-width=".164"/><g style="line-height:1.25" aria-label="50 px" font-weight="400" font-size="3.704" font-family="Open Sans" letter-spacing="0" word-spacing="0" fill="#131516" stroke-width=".265"><path style="-inkscape-font-specification:'Open Sans'" d="M64.436 5.897q.418 0 .657.208.24.206.24.566 0 .41-.262.644-.26.233-.72.233-.447 0-.682-.143v-.289q.127.081.315.128.188.046.37.046.32 0 .495-.15.177-.15.177-.435 0-.553-.678-.553-.172 0-.46.052l-.155-.099.1-1.237h1.314v.277H64.09l-.067.794q.208-.042.414-.042zM67.482 6.186q0 .686-.217 1.024-.215.338-.66.338-.427 0-.65-.345-.222-.347-.222-1.017 0-.69.215-1.025.216-.335.657-.335.43 0 .653.35.224.348.224 1.01zm-1.445 0q0 .577.136.841.135.263.432.263.3 0 .434-.266.136-.268.136-.838t-.136-.833q-.134-.266-.434-.266-.297 0-.432.262-.136.26-.136.837zM69.871 7.548q-.193 0-.354-.07-.16-.073-.268-.22h-.022q.022.173.022.328v.816h-.3V5.53h.244l.042.271h.014q.116-.163.27-.235.153-.072.352-.072.395 0 .608.27.215.269.215.755 0 .489-.219.76-.217.27-.604.27zm-.043-1.8q-.304 0-.44.169-.135.168-.139.535v.067q0 .418.14.599.139.179.446.179.257 0 .402-.208.146-.208.146-.573 0-.371-.146-.568-.145-.2-.41-.2zM71.698 6.497l-.689-.967h.342l.522.76.521-.76h.339l-.69.967.726 1.015h-.34l-.556-.803-.56.803h-.34z"/></g><path d="M6.615 31.094v5.291" transform="matrix(2.06812 0 0 2.41188 48.505 -74.762)" fill="#374047" stroke="#374047" stroke-width=".033" marker-start="url(#a)" marker-end="url(#b)"/><g fill="#a2000d"><path d="M9.266 23.008h3.958v.805H9.266zM9.266 13.23h3.958v.782H9.266z"/><path d="M11.636 13.23v10.583h-.783V13.229z"/></g><g style="line-height:1.25" aria-label="40 px" font-weight="400" font-size="3.704" font-family="Open Sans" letter-spacing="0" word-spacing="0" fill="#131516" stroke-width=".265"><path style="-inkscape-font-specification:'Open Sans'" d="M2.229 18.811h-.393v.608H1.55v-.608H.263v-.262l1.255-1.789h.318v1.778h.393zm-.68-.273v-.879q0-.259.018-.584h-.015q-.087.173-.162.287l-.827 1.176zM4.238 18.093q0 .686-.217 1.024-.215.338-.66.338-.427 0-.65-.345-.222-.348-.222-1.017 0-.69.215-1.025.216-.335.657-.335.43 0 .653.349.224.35.224 1.011zm-1.445 0q0 .577.136.841.135.262.432.262.3 0 .434-.265.136-.268.136-.838t-.136-.834q-.134-.266-.434-.266-.297 0-.432.263-.136.26-.136.837zM6.627 19.455q-.193 0-.354-.07-.16-.073-.268-.221h-.021q.021.173.021.329v.816h-.3v-2.872h.244l.042.27h.014q.116-.162.27-.234.153-.073.352-.073.395 0 .608.27.215.27.215.756 0 .488-.218.76-.217.269-.605.269zm-.043-1.8q-.304 0-.44.169-.135.168-.139.535v.067q0 .418.14.599.139.179.446.179.257 0 .402-.208.146-.208.146-.574 0-.37-.146-.568-.145-.199-.409-.199zM8.454 18.404l-.689-.967h.342l.523.76.52-.76h.339l-.69.967.726 1.015h-.34l-.555-.803-.561.803h-.34z"/></g></svg>