<svg xmlns="http://www.w3.org/2000/svg" viewBox="0 0 87.313 21.167" height="80" width="330"><path d="M0 0h87.312v21.167H0z" fill="#dfdff9"/><path d="M3.803 0h78.383v5.292H3.803z" fill="#705697"/><g style="line-height:1.25" aria-label="Box 1" font-weight="400" font-size="4.013" font-family="Open Sans" letter-spacing="0" word-spacing="0" fill="#ececfb" stroke-width=".265"><path style="-inkscape-font-specification:'Open Sans'" d="M4.216 1.781h.767q.54 0 .782.18t.242.568q0 .27-.136.445-.134.173-.392.225v.02q.619.119.619.724 0 .405-.247.633-.245.227-.688.227h-.947zm.316 1.294h.52q.334 0 .481-.116.147-.117.147-.394 0-.255-.164-.366-.163-.114-.52-.114h-.464zm0 .298v1.13h.566q.33 0 .495-.14.167-.143.167-.445 0-.28-.171-.413-.17-.132-.517-.132zM8.394 3.668q0 .554-.251.866-.25.31-.693.31-.273 0-.485-.142-.212-.143-.327-.41-.115-.266-.115-.624 0-.554.249-.862.249-.31.691-.31.427 0 .678.317.253.316.253.855zm-1.551 0q0 .434.156.662.156.227.458.227.303 0 .46-.225.157-.227.157-.664 0-.432-.158-.655-.156-.225-.462-.225-.303 0-.457.221-.154.221-.154.66zM9.423 3.644l-.708-1.106h.351l.537.868.535-.868h.347l-.708 1.106.745 1.16h-.349l-.57-.919-.576.918h-.35zM12.913 4.803h-.301V2.65q0-.268.015-.508-.04.043-.088.09-.048.048-.442.404l-.163-.236.719-.618h.26z"/></g><path d="M3.969 15.875h78.383v5.292H3.969z" fill="#705697"/><g style="line-height:1.25" aria-label="Box 2" font-weight="400" font-size="4.013" font-family="Open Sans" letter-spacing="0" word-spacing="0" fill="#f3eafb" stroke-width=".265"><path style="-inkscape-font-specification:'Open Sans'" d="M4.381 17.656h.768q.54 0 .782.18.241.18.241.568 0 .27-.135.445-.134.173-.392.225v.02q.618.119.618.724 0 .405-.247.633-.245.227-.687.227H4.38zm.316 1.294h.52q.335 0 .481-.116.147-.117.147-.394 0-.255-.163-.366-.164-.114-.52-.114h-.465zm0 .298v1.13h.567q.329 0 .494-.14.167-.143.167-.445 0-.28-.17-.413-.17-.132-.517-.132zM8.559 19.543q0 .554-.25.866-.252.31-.694.31-.273 0-.484-.142-.212-.143-.327-.41-.116-.266-.116-.624 0-.554.25-.862.248-.31.69-.31.428 0 .678.317.253.316.253.855zm-1.551 0q0 .434.156.662.156.227.459.227.303 0 .459-.225.157-.228.157-.664 0-.432-.157-.655-.156-.225-.463-.225-.303 0-.457.22-.154.222-.154.66zM9.588 19.519l-.708-1.106h.351l.537.868.535-.868h.347l-.707 1.106.745 1.16h-.35l-.57-.919-.576.918h-.349zM13.72 20.678h-1.784v-.295l.715-.8q.327-.368.43-.525.105-.158.157-.306.052-.15.052-.32 0-.243-.132-.383-.132-.143-.366-.143-.169 0-.321.062-.15.062-.336.226l-.164-.234q.375-.347.817-.347.383 0 .6.219.218.217.218.585 0 .287-.145.568-.145.281-.543.711l-.594.647v.017h1.397z"/></g><path d="M74.083 0h13.23v13.23h-13.23z" fill="#5c004e" fill-opacity=".686"/><g style="line-height:1.25" aria-label="Float" font-weight="400" font-size="4.233" font-family="Open Sans" letter-spacing="0" word-spacing="0" fill="#f8f9f9" stroke-width=".265"><path style="-inkscape-font-specification:'Open Sans'" d="M76.11 8.19h-.351V5.17h1.684v.312H76.11v1.106h1.253v.312H76.11zM78.233 8.19h-.343V4.975h.343zM80.92 7.056q0 .554-.279.866-.279.31-.77.31-.305 0-.54-.143-.236-.142-.364-.409-.128-.266-.128-.624 0-.554.277-.862.277-.31.769-.31.475 0 .754.316.281.316.281.856zm-1.726 0q0 .434.174.661.173.228.51.228t.51-.226q.177-.227.177-.663 0-.432-.176-.655-.174-.226-.515-.226-.337 0-.508.222-.172.22-.172.659zM82.913 8.19l-.068-.322h-.017q-.17.213-.339.29-.167.074-.42.074-.336 0-.529-.174-.19-.173-.19-.494 0-.686 1.098-.719l.384-.012v-.14q0-.268-.116-.394-.113-.128-.365-.128-.284 0-.641.174l-.106-.263q.168-.09.366-.142.2-.052.401-.052.405 0 .6.18.196.18.196.577V8.19zm-.775-.241q.32 0 .502-.176.184-.176.184-.492v-.204l-.343.014q-.41.015-.591.128-.18.112-.18.35 0 .186.111.283.114.097.317.097zM84.608 7.949q.09 0 .175-.013.085-.014.135-.028v.262q-.056.027-.166.043-.107.02-.194.02-.657 0-.657-.693V6.192h-.325v-.165l.325-.143.145-.484h.198v.525h.657v.267h-.657v1.333q0 .205.097.314.097.11.267.11z"/></g><g fill="#a2000d"><path d="M41.01 15.081h3.97v.794h-3.97zM41.01 5.292h3.97v.793h-3.97z"/><path d="M43.392 5.292v10.583h-.794V5.292z"/></g><g style="line-height:1.25" aria-label="Collapsed margin" font-weight="400" font-size="4.233" font-family="Open Sans" letter-spacing="0" word-spacing="0" fill="#131516" stroke-width=".265"><path style="-inkscape-font-specification:'Open Sans'" d="M47.753 6.23q-.498 0-.787.333-.288.33-.288.908 0 .593.277.917.28.323.794.323.316 0 .721-.114v.308q-.314.118-.775.118-.667 0-1.031-.405-.362-.405-.362-1.152 0-.467.174-.818.175-.352.504-.542.33-.19.777-.19.476 0 .831.174l-.149.302q-.343-.162-.686-.162zM51.034 7.847q0 .554-.28.866-.279.31-.77.31-.304 0-.54-.143-.236-.142-.364-.409t-.128-.624q0-.554.277-.862.277-.31.769-.31.475 0 .754.316.282.316.282.856zm-1.726 0q0 .434.173.661.174.228.51.228.338 0 .511-.226.176-.227.176-.663 0-.432-.176-.656-.173-.225-.514-.225-.337 0-.509.221-.171.222-.171.66zM51.976 8.982h-.343V5.765h.343zM53.051 8.982h-.343V5.765h.343zM55.176 8.982l-.068-.323h-.017q-.17.213-.339.29-.167.074-.42.074-.336 0-.529-.174-.19-.173-.19-.494 0-.686 1.098-.72l.384-.012v-.14q0-.267-.115-.393-.114-.128-.366-.128-.283 0-.641.174l-.105-.263q.167-.09.365-.142.2-.052.401-.052.406 0 .6.18.196.18.196.576v1.547zm-.775-.242q.32 0 .502-.176.184-.176.184-.492v-.205l-.343.015q-.41.014-.591.128-.18.112-.18.35 0 .185.112.283.113.097.316.097zM57.193 9.023q-.22 0-.405-.08-.182-.083-.306-.253h-.024q.024.199.024.376V10h-.343V6.716h.28l.047.31h.016q.133-.186.308-.269.176-.082.403-.082.451 0 .695.308.246.308.246.864 0 .558-.25.868-.248.308-.69.308zm-.05-2.057q-.346 0-.501.192-.156.193-.16.612v.077q0 .477.16.684.159.205.51.205.294 0 .459-.238.167-.238.167-.655 0-.424-.167-.65-.165-.227-.467-.227zM60.197 8.364q0 .316-.236.487-.235.172-.661.172-.45 0-.703-.143v-.318q.163.083.35.13.187.048.361.048.269 0 .413-.085.145-.087.145-.262 0-.133-.116-.226-.113-.095-.446-.223-.316-.118-.45-.205-.133-.089-.2-.2-.063-.112-.063-.267 0-.277.225-.436.225-.161.618-.161.366 0 .715.149l-.122.279q-.34-.14-.618-.14-.244 0-.368.076t-.124.21q0 .091.046.156.047.064.15.121.104.058.398.168.403.147.543.295.143.15.143.375zM61.71 9.023q-.502 0-.794-.306-.29-.306-.29-.85 0-.547.27-.87.27-.322.725-.322.426 0 .674.28.248.28.248.739v.217h-1.56q.01.399.2.605.192.207.54.207.365 0 .723-.153v.306q-.182.079-.345.112-.162.035-.391.035zm-.093-2.061q-.273 0-.436.178-.161.178-.19.492h1.184q0-.325-.145-.496-.144-.174-.413-.174zM64.668 8.678h-.019q-.237.345-.71.345-.445 0-.693-.304Q63 8.415 63 7.855t.248-.87q.248-.31.69-.31.461 0 .707.335h.027l-.014-.164-.009-.159v-.922h.343v3.217h-.279zm-.686.058q.351 0 .508-.19.16-.193.16-.619v-.072q0-.482-.162-.686-.16-.207-.51-.207-.302 0-.464.236-.159.233-.159.661 0 .434.16.655.159.222.467.222zM49.295 14.384v-1.473q0-.271-.116-.405-.115-.137-.36-.137-.32 0-.473.184-.153.184-.153.566v1.265h-.343v-1.473q0-.271-.115-.405-.116-.137-.362-.137-.323 0-.474.194-.148.193-.148.633v1.188h-.343V12.12h.279l.055.31h.017q.097-.165.273-.258.178-.093.397-.093.53 0 .694.384h.017q.101-.178.293-.281.192-.103.438-.103.385 0 .575.198.192.196.192.63v1.479zM51.736 14.384l-.068-.322h-.016q-.17.213-.34.29-.167.074-.419.074-.337 0-.53-.174-.19-.173-.19-.494 0-.686 1.098-.72l.385-.012v-.14q0-.267-.116-.393-.114-.128-.366-.128-.283 0-.64.174l-.106-.263q.167-.09.366-.143.2-.051.4-.051.406 0 .6.18.197.18.197.576v1.546zm-.775-.241q.32 0 .503-.176t.183-.492v-.205l-.343.015q-.409.014-.59.128-.18.112-.18.35 0 .185.111.283.114.097.316.097zM53.733 12.078q.151 0 .27.024l-.047.319q-.14-.031-.248-.031-.275 0-.47.223-.195.223-.195.556v1.215H52.7V12.12h.283l.04.42h.016q.126-.222.303-.341.178-.12.391-.12zM56.282 12.119v.217l-.42.05q.058.072.104.19.045.116.045.262 0 .333-.227.532-.228.198-.625.198-.1 0-.19-.017-.219.116-.219.292 0 .093.077.138.076.044.262.044h.401q.368 0 .564.155.199.155.199.45 0 .377-.302.573-.302.198-.88.198-.445 0-.687-.165-.24-.165-.24-.467 0-.207.133-.358.132-.15.372-.204-.087-.04-.147-.122-.058-.083-.058-.192 0-.124.066-.218.067-.093.21-.18-.177-.072-.288-.245-.11-.174-.11-.397 0-.372.224-.573.223-.202.632-.202.178 0 .32.041zm-1.807 2.646q0 .184.155.279.155.095.445.095.432 0 .638-.13.21-.128.21-.35 0-.184-.115-.256-.113-.07-.427-.07h-.412q-.233 0-.364.111-.13.112-.13.32zm.186-1.92q0 .237.135.36.134.121.374.121.502 0 .502-.488 0-.51-.508-.51-.242 0-.373.13-.13.13-.13.387zM57.094 14.384h-.343V12.12h.343zm-.372-2.879q0-.118.058-.171.058-.056.145-.056.082 0 .142.056.06.055.06.171 0 .116-.06.174-.06.056-.142.056-.087 0-.145-.056-.058-.058-.058-.174zM59.376 14.384V12.92q0-.277-.126-.413-.126-.137-.395-.137-.355 0-.52.192-.166.193-.166.635v1.188h-.343V12.12h.279l.056.31h.016q.106-.167.296-.258.19-.093.424-.093.409 0 .616.198.206.196.206.63v1.479z"/></g></svg>