<svg xmlns="http://www.w3.org/2000/svg" viewBox="0 0 74.955 31.75" height="120" width="283.293"><defs><marker id="a" refX="0" refY="0" orient="auto" overflow="visible"><path d="M10.69 4.437L-1.328.017 10.69-4.401c-1.92 2.61-1.909 6.18 0 8.84z" fill="#374047" fill-rule="evenodd" stroke="#374047" stroke-width=".6875" stroke-linejoin="round"/></marker><marker orient="auto" refY="0" refX="0" id="b" overflow="visible"><path d="M-10.69-4.437L1.328-.017-10.69 4.401c1.92-2.61 1.909-6.18 0-8.84z" fill="#374047" fill-rule="evenodd" stroke="#374047" stroke-width=".6875" stroke-linejoin="round"/></marker><marker id="c" refX="0" refY="0" orient="auto" overflow="visible"><path d="M10.69 4.437L-1.328.017 10.69-4.401c-1.92 2.61-1.909 6.18 0 8.84z" fill="#374047" fill-rule="evenodd" stroke="#374047" stroke-width=".6875" stroke-linejoin="round"/></marker><marker orient="auto" refY="0" refX="0" id="d" overflow="visible"><path d="M-10.69-4.437L1.328-.017-10.69 4.401c1.92-2.61 1.909-6.18 0-8.84z" fill="#374047" fill-rule="evenodd" stroke="#374047" stroke-width=".6875" stroke-linejoin="round"/></marker></defs><path d="M0 0h58.208v26.458H0z" fill="#dfdff9"/><path d="M0 0h13.23v13.23H0z" fill="#705697"/><g style="line-height:1.25" aria-label="Child’s bottom margin" font-weight="400" font-size="4.233" font-family="Open Sans" letter-spacing="0" word-spacing="0" fill="#000" stroke-width=".265"><path style="-inkscape-font-specification:'Open Sans'" d="M15.202 16.868q-.498 0-.787.333-.287.33-.287.908 0 .594.276.919.28.323.793.323.316 0 .721-.114v.308q-.314.118-.774.118-.667 0-1.03-.406-.362-.405-.362-1.152 0-.468.173-.82.176-.351.504-.541.33-.19.777-.19.475 0 .83.173l-.149.302q-.343-.161-.685-.161zM18.074 19.622v-1.467q0-.278-.126-.414-.126-.137-.394-.137-.358 0-.523.195-.163.194-.163.637v1.186h-.343v-3.22h.343v.975q0 .176-.016.291h.02q.101-.163.287-.256.188-.095.428-.095.415 0 .621.198.209.197.209.627v1.48zM19.462 19.622h-.343v-2.268h.343zm-.372-2.883q0-.118.058-.171.058-.056.144-.056.083 0 .143.056.06.056.06.171 0 .116-.06.174-.06.056-.143.056-.086 0-.144-.056-.058-.058-.058-.174zM20.536 19.622h-.343v-3.22h.343zM22.807 19.317h-.018q-.238.346-.71.346-.445 0-.693-.304-.245-.304-.245-.865 0-.56.248-.871.247-.31.69-.31.46 0 .706.335h.026l-.014-.164-.008-.16v-.922h.342v3.22h-.278zm-.685.058q.35 0 .508-.19.159-.192.159-.619v-.072q0-.482-.161-.687-.16-.207-.51-.207-.302 0-.463.236-.16.234-.16.662 0 .435.16.656.159.221.467.221zM24.135 16.597l.031.045q-.054.207-.155.482-.101.273-.21.51h-.252q.144-.59.21-1.037zM26.04 19.003q0 .316-.236.488t-.661.172q-.45 0-.702-.143v-.318q.163.082.349.13.188.047.361.047.269 0 .413-.084.145-.087.145-.263 0-.133-.116-.226-.114-.095-.446-.223-.316-.118-.45-.205-.132-.089-.198-.2-.064-.112-.064-.268 0-.277.225-.436.225-.161.617-.161.366 0 .715.148l-.122.28q-.341-.14-.618-.14-.243 0-.367.076t-.124.21q0 .092.045.156.048.064.151.122.103.058.396.168.403.146.544.295.142.15.142.375zM28.746 17.317q.446 0 .692.306.248.304.248.863 0 .558-.25.869-.248.308-.69.308-.22 0-.404-.08-.182-.084-.306-.253h-.025l-.072.292h-.246v-3.22h.343v.782q0 .263-.016.472h.016q.24-.34.71-.34zm-.05.287q-.35 0-.505.203-.155.2-.155.679 0 .478.16.685.158.204.51.204.315 0 .47-.23.155-.231.155-.663 0-.443-.155-.66-.155-.218-.48-.218zM32.24 18.486q0 .554-.278.867-.279.31-.77.31-.304 0-.54-.143-.235-.143-.363-.41-.128-.266-.128-.624 0-.555.277-.863.276-.31.768-.31.475 0 .754.316.28.317.28.857zm-1.724 0q0 .434.174.662.173.227.51.227.336 0 .51-.225.175-.228.175-.664 0-.433-.175-.656-.174-.226-.514-.226-.337 0-.508.222-.172.221-.172.66zM33.57 19.38q.091 0 .176-.013.085-.014.134-.029v.263q-.056.027-.165.043-.107.019-.194.019-.657 0-.657-.693v-1.35h-.324v-.165l.324-.142.145-.485h.198v.526h.657v.267h-.657v1.334q0 .205.097.315.097.11.266.11zM35.066 19.38q.09 0 .175-.013.085-.014.134-.029v.263q-.055.027-.165.043-.107.019-.194.019-.657 0-.657-.693v-1.35h-.324v-.165l.324-.142.145-.485h.198v.526h.657v.267h-.657v1.334q0 .205.097.315.097.11.267.11zM37.783 18.486q0 .554-.279.867-.278.31-.77.31-.303 0-.539-.143-.235-.143-.363-.41-.128-.266-.128-.624 0-.555.276-.863.277-.31.769-.31.475 0 .753.316.281.317.281.857zm-1.724 0q0 .434.173.662.174.227.51.227.337 0 .51-.225.176-.228.176-.664 0-.433-.175-.656-.174-.226-.515-.226-.336 0-.508.222-.171.221-.171.66zM41.267 19.622v-1.476q0-.27-.116-.405-.115-.137-.359-.137-.32 0-.473.184-.153.185-.153.567v1.267h-.342v-1.476q0-.27-.116-.405-.116-.137-.361-.137-.323 0-.473.195-.15.192-.15.633v1.19h-.342v-2.268h.279l.056.31h.016q.097-.165.273-.258.177-.093.396-.093.531 0 .694.384h.017q.1-.178.293-.281.192-.103.438-.103.384 0 .574.198.192.197.192.631v1.48zM46.298 19.622v-1.476q0-.27-.116-.405-.116-.137-.36-.137-.32 0-.472.184-.153.185-.153.567v1.267h-.343v-1.476q0-.27-.116-.405-.115-.137-.36-.137-.323 0-.474.195-.149.192-.149.633v1.19h-.342v-2.268h.278l.056.31h.017q.097-.165.272-.258.178-.093.397-.093.53 0 .694.384h.016q.101-.178.293-.281.193-.103.438-.103.384 0 .574.198.192.197.192.631v1.48zM48.736 19.622l-.068-.323h-.016q-.17.213-.339.29-.167.074-.42.074-.336 0-.528-.174-.19-.174-.19-.494 0-.687 1.097-.72l.384-.013v-.14q0-.267-.116-.394-.113-.128-.365-.128-.283 0-.64.174l-.106-.263q.168-.09.366-.143.2-.051.4-.051.405 0 .6.18.195.18.195.577v1.548zm-.774-.243q.32 0 .502-.175.184-.176.184-.493v-.205l-.343.015q-.409.014-.59.128-.18.112-.18.35 0 .186.111.283.114.097.316.097zM50.731 17.313q.151 0 .27.024l-.047.319q-.14-.031-.247-.031-.275 0-.471.223-.194.224-.194.557v1.217h-.343v-2.268h.283l.039.42h.016q.126-.221.304-.341.178-.12.39-.12zM53.278 17.354v.217l-.42.05q.058.072.104.19.045.116.045.263 0 .333-.227.532-.227.198-.624.198-.1 0-.19-.016-.219.116-.219.291 0 .094.077.14.076.043.262.043h.4q.368 0 .564.155.199.155.199.45 0 .377-.302.574-.301.199-.88.199-.444 0-.685-.166-.24-.166-.24-.468 0-.207.132-.358.133-.15.372-.204-.087-.04-.146-.122-.058-.083-.058-.193 0-.124.066-.217t.208-.18q-.175-.073-.287-.246-.11-.174-.11-.398 0-.372.224-.573.223-.202.632-.202.177 0 .32.04zm-1.805 2.648q0 .184.155.28.154.095.444.095.431 0 .638-.13.208-.129.208-.35 0-.184-.113-.257-.114-.07-.428-.07h-.41q-.234 0-.364.112-.13.111-.13.32zm.186-1.922q0 .238.134.36t.374.122q.501 0 .501-.488 0-.511-.508-.511-.241 0-.371.13t-.13.387zM54.09 19.622h-.344v-2.268h.343zm-.373-2.883q0-.118.058-.171.058-.056.145-.056.082 0 .142.056.06.056.06.171 0 .116-.06.174-.06.056-.142.056-.087 0-.145-.056-.058-.058-.058-.174zM56.369 19.622v-1.467q0-.278-.126-.414-.126-.137-.394-.137-.356 0-.52.193-.166.192-.166.635v1.19h-.343v-2.268h.279l.056.31h.016q.106-.167.296-.258.19-.093.423-.093.409 0 .615.198.207.197.207.631v1.48z"/></g><g style="line-height:1.25" aria-label="Parent’s bottom margin" font-weight="400" font-size="4.233" font-family="Open Sans" letter-spacing="0" word-spacing="0" fill="#000" stroke-width=".265"><path style="-inkscape-font-specification:'Open Sans'" d="M15.823 28.061q0 .46-.314.708-.312.246-.894.246h-.355v1.19h-.351V27.18h.782q1.132 0 1.132.881zm-1.563.652h.316q.467 0 .675-.15.209-.152.209-.485 0-.3-.196-.447-.197-.147-.612-.147h-.392zM17.793 30.205l-.068-.323h-.016q-.17.213-.34.29-.166.074-.418.074-.337 0-.529-.174-.19-.173-.19-.494 0-.687 1.097-.72l.384-.012v-.141q0-.267-.116-.393-.114-.129-.365-.129-.283 0-.64.174l-.106-.263q.167-.09.366-.142.2-.052.4-.052.405 0 .6.18.195.18.195.577v1.548zm-.774-.242q.32 0 .502-.176.183-.176.183-.492v-.205l-.342.014q-.41.015-.591.128-.18.112-.18.35 0 .186.112.284.113.097.316.097zM19.788 27.896q.15 0 .27.025l-.047.318q-.14-.03-.248-.03-.274 0-.47.223-.195.223-.195.556v1.217h-.342v-2.268h.282l.04.42h.016q.126-.221.304-.341.177-.12.39-.12zM21.438 30.246q-.502 0-.793-.306-.289-.306-.289-.85 0-.549.268-.871.271-.323.725-.323.426 0 .674.281.247.28.247.739v.217h-1.559q.01.4.2.606.193.207.54.207.365 0 .722-.153v.306q-.181.079-.345.112-.16.035-.39.035zm-.093-2.063q-.272 0-.436.178-.16.178-.19.493h1.184q0-.325-.145-.497-.144-.174-.413-.174zM24.401 30.205v-1.467q0-.277-.125-.414-.126-.136-.395-.136-.355 0-.52.192-.166.192-.166.635v1.19h-.342v-2.268h.278l.056.31h.017q.105-.167.295-.258.19-.093.423-.093.41 0 .616.198.206.197.206.632v1.479zM26.177 29.963q.091 0 .176-.013.085-.014.134-.029v.263q-.056.027-.165.044-.107.018-.194.018-.657 0-.657-.693v-1.349h-.324v-.165l.324-.143.145-.484h.198v.525h.657v.267h-.657v1.335q0 .205.097.314.097.11.266.11zM27.216 27.18l.031.045q-.054.207-.155.483-.1.273-.21.509h-.252q.144-.59.21-1.037zM29.12 29.586q0 .317-.235.489-.236.171-.661.171-.45 0-.702-.142v-.32q.163.084.349.131.188.048.361.048.269 0 .413-.085.145-.087.145-.263 0-.132-.116-.225-.113-.095-.446-.224-.316-.118-.45-.205-.132-.089-.198-.2-.064-.112-.064-.267 0-.277.225-.437.225-.161.617-.161.366 0 .715.149l-.122.28q-.34-.142-.618-.142-.243 0-.367.077t-.124.211q0 .091.045.155.048.064.151.122.103.058.397.168.402.147.543.296.142.149.142.374zM31.828 27.9q.446 0 .691.306.248.304.248.863 0 .559-.25.869-.248.308-.69.308-.22 0-.404-.08-.182-.083-.306-.253h-.025l-.072.292h-.246v-3.22h.343v.783q0 .262-.016.471h.016q.24-.339.71-.339zm-.05.288q-.351 0-.506.202-.155.201-.155.679 0 .478.16.685.158.205.51.205.315 0 .47-.23.155-.232.155-.664 0-.443-.155-.66-.155-.217-.479-.217zM35.322 29.069q0 .555-.28.867-.278.31-.77.31-.303 0-.538-.142-.236-.143-.364-.41t-.128-.625q0-.555.277-.863.277-.31.768-.31.475 0 .754.316.28.317.28.857zm-1.725 0q0 .434.174.662.173.228.51.228.336 0 .51-.226.175-.227.175-.664 0-.432-.175-.656-.174-.225-.514-.225-.337 0-.508.221-.172.221-.172.66zM36.652 29.963q.09 0 .175-.013.085-.014.134-.029v.263q-.055.027-.165.044-.107.018-.194.018-.657 0-.657-.693v-1.349h-.324v-.165l.324-.143.145-.484h.198v.525h.657v.267h-.657v1.335q0 .205.097.314.097.11.267.11zM38.147 29.963q.09 0 .175-.013.085-.014.134-.029v.263q-.055.027-.165.044-.107.018-.194.018-.657 0-.657-.693v-1.349h-.324v-.165l.324-.143.145-.484h.198v.525h.657v.267h-.657v1.335q0 .205.097.314.097.11.267.11zM40.864 29.069q0 .555-.278.867-.28.31-.77.31-.304 0-.54-.142-.235-.143-.363-.41t-.128-.625q0-.555.277-.863.276-.31.768-.31.475 0 .753.316.281.317.281.857zm-1.724 0q0 .434.173.662.174.228.51.228.337 0 .51-.226.176-.227.176-.664 0-.432-.175-.656-.174-.225-.515-.225-.336 0-.508.221-.171.221-.171.66zM44.348 30.205V28.73q0-.271-.116-.406-.115-.136-.359-.136-.32 0-.473.184-.153.184-.153.567v1.266h-.342V28.73q0-.271-.116-.406-.116-.136-.361-.136-.323 0-.473.194-.149.193-.149.633v1.19h-.343v-2.268h.279l.056.31h.016q.097-.165.273-.258.177-.093.396-.093.531 0 .694.385h.017q.101-.178.293-.282.192-.103.438-.103.384 0 .574.198.192.197.192.632v1.479zM49.379 30.205V28.73q0-.271-.116-.406-.116-.136-.36-.136-.32 0-.472.184-.153.184-.153.567v1.266h-.343V28.73q0-.271-.115-.406-.116-.136-.362-.136-.322 0-.473.194-.148.193-.148.633v1.19h-.343v-2.268h.279l.055.31h.017q.097-.165.272-.258.178-.093.397-.093.53 0 .694.385h.016q.101-.178.294-.282.192-.103.437-.103.384 0 .574.198.192.197.192.632v1.479zM51.818 30.205l-.069-.323h-.016q-.17.213-.339.29-.167.074-.419.074-.337 0-.529-.174-.19-.173-.19-.494 0-.687 1.097-.72l.384-.012v-.141q0-.267-.116-.393-.113-.129-.365-.129-.283 0-.64.174l-.106-.263q.168-.09.366-.142.2-.052.4-.052.405 0 .6.18.196.18.196.577v1.548zm-.775-.242q.32 0 .502-.176.184-.176.184-.492v-.205l-.343.014q-.409.015-.59.128-.18.112-.18.35 0 .186.111.284.114.097.316.097zM53.812 27.896q.151 0 .27.025l-.047.318q-.14-.03-.247-.03-.275 0-.471.223-.194.223-.194.556v1.217h-.343v-2.268h.283l.04.42h.016q.126-.221.303-.341.178-.12.39-.12zM56.359 27.937v.217l-.42.05q.058.073.104.19.045.116.045.263 0 .333-.227.532t-.624.199q-.1 0-.19-.017-.219.116-.219.292 0 .093.077.138.076.044.262.044h.4q.368 0 .565.155.198.155.198.451 0 .377-.302.573-.301.199-.88.199-.443 0-.685-.166-.24-.165-.24-.467 0-.207.133-.358.132-.151.371-.205-.086-.04-.146-.122-.058-.083-.058-.193 0-.124.066-.217t.208-.18q-.175-.072-.287-.246-.11-.174-.11-.397 0-.373.224-.573.223-.203.632-.203.177 0 .32.041zm-1.805 2.649q0 .184.155.279.155.095.444.095.431 0 .638-.13.208-.129.208-.35 0-.184-.113-.256-.114-.07-.428-.07h-.41q-.234 0-.364.11-.13.113-.13.322zm.186-1.923q0 .238.134.36.134.123.374.123.501 0 .501-.489 0-.51-.508-.51-.241 0-.371.13t-.13.386zM57.17 30.205h-.343v-2.268h.343zm-.371-2.882q0-.118.057-.172.058-.056.145-.056.083 0 .142.056.06.056.06.172 0 .116-.06.174-.06.055-.142.055-.087 0-.145-.055-.057-.058-.057-.174zM59.45 30.205v-1.467q0-.277-.126-.414-.126-.136-.394-.136-.355 0-.52.192-.166.192-.166.635v1.19h-.343v-2.268h.28l.055.31h.016q.106-.167.296-.258.19-.093.423-.093.409 0 .615.198.207.197.207.632v1.479z"/></g><g fill="#a2000d"><path d="M10.848 23.416h2.381v.397h-2.381zM10.848 13.23h2.381v.396h-2.381z"/><path d="M12.237 13.23v10.583h-.397V13.229z"/></g><g fill="#a2000d"><path d="M10.848 31.353h2.381v.397h-2.381zM10.848 26.458h2.381v.397h-2.381z"/><path d="M12.237 26.458v5.292h-.397v-5.292z"/></g><path d="M15.875 31.094H7.937" transform="matrix(.83333 0 0 .625 6.615 -6.255)" fill="#374047" stroke="#374047" stroke-width=".164"/><path d="M15.875 31.094H7.937" transform="matrix(.83333 0 0 .625 6.615 -19.382)" fill="#374047" stroke="#374047" stroke-width=".164"/><g style="line-height:1.25" aria-label="50 px" font-weight="400" font-size="3.704" font-family="Open Sans" letter-spacing="0" word-spacing="0" fill="#131516" stroke-width=".265"><path style="-inkscape-font-specification:'Open Sans'" d="M19.457 5.897q.418 0 .657.208.24.206.24.566 0 .41-.262.644-.26.233-.72.233-.447 0-.682-.143v-.289q.127.081.315.128.188.046.37.046.319 0 .494-.15.178-.15.178-.435 0-.553-.679-.553-.171 0-.459.052l-.155-.099.099-1.237h1.315v.277H19.11l-.067.794q.208-.042.414-.042zM22.503 6.186q0 .686-.217 1.024-.215.338-.66.338-.427 0-.65-.345-.222-.347-.222-1.017 0-.69.215-1.025.215-.335.657-.335.43 0 .653.35.224.348.224 1.01zm-1.445 0q0 .577.135.841.136.263.433.263.3 0 .434-.266.135-.268.135-.838t-.135-.833q-.134-.266-.434-.266-.297 0-.433.262-.135.26-.135.837zM24.892 7.548q-.193 0-.354-.07-.16-.073-.268-.22h-.022q.022.173.022.328v.816h-.3V5.53h.244l.042.271h.014q.116-.163.27-.235.153-.072.352-.072.394 0 .608.27.215.269.215.755 0 .488-.219.76-.217.27-.604.27zm-.043-1.8q-.304 0-.44.169-.135.168-.139.535v.067q0 .418.14.599.139.179.446.179.257 0 .402-.208.146-.208.146-.573 0-.371-.146-.568-.145-.2-.41-.2zM26.719 6.497l-.69-.967h.343l.522.76.521-.76h.338l-.689.967.726 1.015h-.34l-.556-.803-.56.803h-.34z"/></g><path d="M6.615 31.094v5.291" transform="matrix(2.06812 0 0 2.41188 3.526 -74.762)" fill="#374047" stroke="#374047" stroke-width=".033" marker-start="url(#a)" marker-end="url(#b)"/><path d="M15.875 31.094H7.937" transform="matrix(.83333 0 0 .625 51.594 6.974)" fill="#374047" stroke="#374047" stroke-width=".164"/><path d="M15.875 31.094H7.937" transform="matrix(.83333 0 0 .625 51.594 -19.382)" fill="#374047" stroke="#374047" stroke-width=".164"/><g style="line-height:1.25" aria-label="100 px" font-weight="400" font-size="3.704" font-family="Open Sans" letter-spacing="0" word-spacing="0" fill="#131516" stroke-width=".265"><path style="-inkscape-font-specification:'Open Sans'" d="M64.788 14.128h-.293v-1.885q0-.235.015-.445-.038.038-.085.08-.047.041-.43.352l-.16-.206.7-.54h.253zM67.548 12.802q0 .685-.217 1.023-.215.339-.66.339-.427 0-.65-.346-.222-.347-.222-1.016 0-.691.215-1.026.216-.334.657-.334.43 0 .653.349.224.349.224 1.01zm-1.445 0q0 .577.136.84.135.263.432.263.3 0 .434-.266.136-.268.136-.837 0-.57-.136-.834-.134-.266-.434-.266-.297 0-.432.262-.136.26-.136.838zM69.668 12.802q0 .685-.217 1.023-.215.339-.66.339-.427 0-.65-.346-.222-.347-.222-1.016 0-.691.215-1.026.215-.334.657-.334.43 0 .653.349.224.349.224 1.01zm-1.445 0q0 .577.135.84.136.263.433.263.3 0 .434-.266.136-.268.136-.837 0-.57-.136-.834-.134-.266-.434-.266-.297 0-.433.262-.135.26-.135.838zM72.057 14.164q-.193 0-.354-.07-.16-.073-.268-.222h-.022q.022.174.022.33v.815h-.3v-2.872h.244l.042.272h.014q.116-.163.27-.236.153-.072.352-.072.395 0 .608.27.215.269.215.756 0 .488-.219.76-.217.269-.604.269zm-.043-1.8q-.304 0-.44.168-.135.168-.139.536v.067q0 .417.14.598.139.18.446.18.257 0 .402-.209.146-.208.146-.573 0-.37-.146-.568-.145-.199-.41-.199zM73.884 13.113l-.69-.968h.343l.522.76.521-.76h.339l-.69.968.726 1.015h-.34l-.556-.804-.56.804h-.34z"/></g><path d="M6.615 31.094v5.291" transform="matrix(4.21131 0 0 4.91132 34.328 -152.476)" fill="#374047" stroke="#374047" stroke-width=".016" marker-start="url(#c)" marker-end="url(#d)"/><g style="line-height:1.25" aria-label="40 px" font-weight="400" font-size="3.704" font-family="Open Sans" letter-spacing="0" word-spacing="0" fill="#131516" stroke-width=".265"><path style="-inkscape-font-specification:'Open Sans'" d="M3.287 18.811h-.392v.608h-.288v-.608H1.321v-.262l1.255-1.789h.319v1.778h.392zm-.68-.273v-.879q0-.259.018-.584h-.014q-.087.173-.163.287l-.827 1.176zM5.297 18.093q0 .686-.217 1.024-.216.338-.66.338-.427 0-.65-.345-.222-.348-.222-1.017 0-.69.215-1.025.215-.335.656-.335.43 0 .653.349.225.35.225 1.011zm-1.446 0q0 .577.136.841.136.262.432.262.3 0 .434-.265.136-.268.136-.838t-.136-.834q-.133-.266-.434-.266-.296 0-.432.263-.136.26-.136.837zM7.686 19.455q-.194 0-.355-.07-.159-.073-.267-.221h-.022q.022.173.022.329v.816h-.3v-2.872h.244l.041.27h.015q.115-.162.27-.234.153-.073.352-.073.394 0 .608.27.215.27.215.756 0 .488-.22.76-.216.269-.603.269zm-.044-1.8q-.303 0-.44.169-.135.168-.138.535v.067q0 .418.139.599.14.179.447.179.256 0 .401-.208.147-.208.147-.574 0-.37-.147-.568-.145-.199-.409-.199zM9.513 18.404l-.69-.967h.342l.523.76.52-.76h.34l-.69.967.725 1.015h-.34l-.555-.803-.56.803h-.34z"/></g><g style="line-height:1.25" aria-label="20 px" font-weight="400" font-size="3.704" font-family="Open Sans" letter-spacing="0" word-spacing="0" fill="#131516" stroke-width=".265"><path style="-inkscape-font-specification:'Open Sans'" d="M3.161 30.002H1.423v-.258l.696-.7q.319-.322.42-.46.101-.137.152-.268.05-.13.05-.28 0-.211-.128-.334-.128-.125-.356-.125-.165 0-.313.054-.147.054-.328.197l-.159-.204q.366-.304.796-.304.373 0 .584.192.212.19.212.511 0 .252-.141.498t-.528.622l-.58.566v.015h1.361zM5.295 28.676q0 .686-.217 1.024-.215.338-.66.338-.427 0-.65-.345-.222-.347-.222-1.017 0-.69.216-1.025.215-.335.656-.335.43 0 .653.35.224.348.224 1.01zm-1.445 0q0 .577.136.841.135.263.432.263.3 0 .434-.266.136-.268.136-.838t-.136-.833q-.134-.266-.434-.266-.297 0-.432.262-.136.26-.136.837zM7.685 30.038q-.194 0-.355-.07-.16-.073-.268-.22h-.021q.021.173.021.328v.816h-.3V28.02h.244l.042.271h.014q.116-.163.27-.235.154-.072.353-.072.394 0 .607.27.215.269.215.755 0 .489-.218.76-.217.27-.604.27zm-.044-1.8q-.304 0-.44.169-.135.168-.139.535v.067q0 .418.14.599.139.179.446.179.257 0 .402-.208.146-.208.146-.573 0-.371-.146-.568-.145-.2-.409-.2zM9.511 28.988l-.689-.968h.342l.523.76.52-.76h.339l-.69.968.726 1.014h-.34l-.555-.803-.56.803h-.341z"/></g></svg>