<svg xmlns="http://www.w3.org/2000/svg" viewBox="0 0 73.966 42.333" height="160" width="279.556"><defs><marker orient="auto" overflow="visible" id="b"><path d="M2.308 0l-3.46 2v-4z" fill-rule="evenodd" stroke="#000" stroke-width=".5332"/></marker><marker orient="auto" overflow="visible" id="a"><path d="M2.308 0l-3.46 2v-4z" fill-rule="evenodd" stroke="#000" stroke-width=".5332"/></marker></defs><g style="line-height:1.25;-inkscape-font-specification:'Open Sans, Normal';font-variant-ligatures:normal;font-variant-caps:normal;font-variant-numeric:normal;font-feature-settings:normal;text-align:start" aria-label="Child’s bottom margin" font-weight="400" font-size="4.233" font-family="Open Sans" letter-spacing="0" word-spacing="0" stroke-width=".265"><path style="-inkscape-font-specification:'Open Sans, Normal';font-variant-ligatures:normal;font-variant-caps:normal;font-variant-numeric:normal;font-feature-settings:normal;text-align:start" d="M27.91 24.807q-.499 0-.788.333-.287.33-.287.907 0 .593.277.918.279.322.793.322.317 0 .722-.113v.308q-.315.117-.775.117-.668 0-1.032-.405-.362-.405-.362-1.151 0-.467.174-.819.176-.351.504-.541.331-.19.778-.19.475 0 .83.173l-.148.302q-.343-.161-.687-.161zM30.785 27.558v-1.466q0-.277-.126-.413-.127-.136-.395-.136-.358 0-.523.194-.163.194-.163.637v1.184h-.344v-3.216h.344v.973q0 .176-.017.292h.02q.102-.164.288-.257.188-.095.428-.095.415 0 .622.199.209.196.209.626v1.478zM32.174 27.558h-.343v-2.265h.343zm-.372-2.88q0-.117.058-.171.057-.056.144-.056.083 0 .143.056.06.056.06.172 0 .115-.06.173-.06.056-.143.056-.087 0-.144-.056-.058-.058-.058-.173zM33.249 27.558h-.344v-3.216h.344zM35.522 27.254h-.018q-.238.345-.711.345-.445 0-.693-.304-.246-.303-.246-.864 0-.56.248-.87.248-.31.69-.31.462 0 .708.335h.027l-.015-.163-.008-.16v-.921h.343v3.216h-.28zm-.686.058q.352 0 .509-.19.159-.192.159-.618v-.073q0-.481-.161-.686-.16-.207-.511-.207-.302 0-.463.236-.16.234-.16.662 0 .434.16.655.16.221.467.221zM36.851 24.536l.031.045q-.053.207-.155.482-.1.273-.21.509h-.253q.145-.59.211-1.036zM38.757 26.94q0 .316-.235.488-.236.171-.662.171-.45 0-.703-.142v-.319q.164.083.35.13.188.048.361.048.27 0 .414-.085.145-.086.145-.262 0-.132-.116-.225-.114-.095-.447-.224-.316-.117-.45-.204-.133-.09-.199-.2-.064-.112-.064-.267 0-.277.226-.437.225-.16.618-.16.365 0 .715.148l-.122.279q-.341-.14-.618-.14-.244 0-.368.076t-.124.21q0 .092.045.156.048.064.151.122.104.058.397.167.403.147.544.296.142.149.142.374zM41.467 25.255q.447 0 .693.306.248.304.248.862t-.25.868q-.248.308-.69.308-.222 0-.406-.08-.182-.083-.306-.252h-.025l-.072.291h-.246v-3.216h.343v.781q0 .263-.016.471h.016q.24-.339.711-.339zm-.05.288q-.35 0-.506.202-.155.2-.155.678 0 .478.16.684.158.205.51.205.316 0 .471-.23.155-.23.155-.663 0-.442-.155-.66-.155-.216-.48-.216zM44.965 26.423q0 .554-.28.866-.278.31-.77.31-.304 0-.54-.142-.236-.143-.364-.41-.128-.266-.128-.624 0-.554.277-.862.277-.31.77-.31.475 0 .754.316.28.317.28.856zm-1.726 0q0 .434.173.662.174.227.51.227.338 0 .511-.225.176-.228.176-.664 0-.432-.176-.655-.173-.225-.514-.225-.337 0-.509.22-.171.222-.171.66zM46.296 27.316q.09 0 .176-.012.084-.015.134-.03v.263q-.056.027-.165.044-.108.018-.195.018-.657 0-.657-.692v-1.348h-.325v-.165l.325-.143.145-.484h.198v.526h.657v.266h-.657v1.333q0 .205.097.315.097.11.267.11zM47.792 27.316q.091 0 .176-.012.085-.015.134-.03v.263q-.055.027-.165.044-.107.018-.194.018-.658 0-.658-.692v-1.348h-.324v-.165l.324-.143.145-.484h.199v.526h.657v.266h-.657v1.333q0 .205.097.315.097.11.266.11zM50.513 26.423q0 .554-.28.866-.278.31-.77.31-.304 0-.54-.142-.236-.143-.364-.41-.128-.266-.128-.624 0-.554.277-.862.277-.31.77-.31.474 0 .754.316.28.317.28.856zm-1.726 0q0 .434.173.662.174.227.51.227.338 0 .511-.225.176-.228.176-.664 0-.432-.176-.655-.173-.225-.514-.225-.337 0-.509.22-.171.222-.171.66zM54 27.558v-1.474q0-.27-.116-.405-.116-.136-.36-.136-.32 0-.473.184-.153.184-.153.566v1.265h-.343v-1.474q0-.27-.116-.405-.116-.136-.362-.136-.322 0-.473.194-.149.192-.149.632v1.189h-.343v-2.265h.28l.055.31h.017q.097-.166.272-.259.178-.093.397-.093.531 0 .695.385h.016q.102-.178.294-.281.192-.104.438-.104.385 0 .575.199.192.196.192.63v1.478zM59.035 27.558v-1.474q0-.27-.116-.405-.115-.136-.36-.136-.32 0-.473.184-.153.184-.153.566v1.265h-.343v-1.474q0-.27-.115-.405-.116-.136-.362-.136-.323 0-.474.194-.148.192-.148.632v1.189h-.344v-2.265h.28l.055.31h.017q.097-.166.273-.259.177-.093.397-.093.53 0 .694.385h.017q.101-.178.293-.281.192-.104.438-.104.385 0 .575.199.192.196.192.63v1.478zM61.476 27.558l-.068-.322h-.016q-.17.212-.34.289-.167.074-.419.074-.337 0-.53-.173-.19-.174-.19-.494 0-.687 1.098-.72l.385-.012v-.14q0-.267-.116-.393-.114-.129-.366-.129-.283 0-.64.174l-.106-.262q.167-.091.366-.143.2-.052.4-.052.406 0 .6.18.197.18.197.577v1.546zm-.775-.242q.32 0 .502-.176.184-.175.184-.491v-.205l-.343.014q-.409.015-.59.128-.18.112-.18.35 0 .186.11.283.115.097.317.097zM63.473 25.251q.151 0 .27.025l-.047.318q-.14-.03-.248-.03-.275 0-.471.223-.194.223-.194.556v1.215h-.343v-2.265h.283l.039.42h.017q.126-.222.303-.342.178-.12.391-.12zM66.022 25.293v.217l-.42.05q.058.072.104.19.045.115.045.262 0 .333-.227.531-.228.199-.625.199-.1 0-.19-.017-.219.116-.219.291 0 .093.077.139.076.043.262.043h.401q.368 0 .564.155.199.155.199.451 0 .376-.302.573-.302.198-.88.198-.445 0-.687-.165-.24-.166-.24-.468 0-.206.133-.357.132-.151.372-.205-.087-.039-.147-.122-.058-.082-.058-.192 0-.124.066-.217t.21-.18q-.177-.072-.288-.246-.11-.173-.11-.397 0-.372.223-.572.224-.203.633-.203.178 0 .32.042zm-1.807 2.645q0 .184.155.28.155.094.445.094.432 0 .638-.13.21-.128.21-.35 0-.183-.115-.255-.113-.07-.427-.07h-.412q-.233 0-.364.11-.13.113-.13.321zm.186-1.92q0 .238.135.36.134.122.374.122.502 0 .502-.488 0-.51-.508-.51-.242 0-.373.13-.13.13-.13.386zM66.834 27.558h-.343v-2.265h.343zm-.372-2.88q0-.117.058-.171.058-.056.145-.056.082 0 .142.056.06.056.06.172 0 .115-.06.173-.06.056-.142.056-.087 0-.145-.056-.058-.058-.058-.173zM69.116 27.558v-1.466q0-.277-.126-.413-.126-.136-.395-.136-.355 0-.52.192-.166.192-.166.634v1.189h-.343v-2.265h.279l.056.31h.016q.106-.168.296-.259.19-.093.424-.093.409 0 .616.199.206.196.206.63v1.478z"/></g><g style="line-height:1.25;-inkscape-font-specification:'Open Sans, Normal';font-variant-ligatures:normal;font-variant-caps:normal;font-variant-numeric:normal;font-feature-settings:normal;text-align:start" aria-label="Child’s top margin" font-weight="400" font-size="4.233" font-family="Open Sans" letter-spacing="0" word-spacing="0" stroke-width=".265"><path style="-inkscape-font-specification:'Open Sans, Normal';font-variant-ligatures:normal;font-variant-caps:normal;font-variant-numeric:normal;font-feature-settings:normal;text-align:start" d="M27.91 14.223q-.499 0-.788.333-.287.331-.287.908 0 .593.277.917.279.323.793.323.317 0 .722-.114v.308q-.315.118-.775.118-.668 0-1.032-.405-.362-.405-.362-1.151 0-.468.174-.819.176-.351.504-.542.331-.19.778-.19.475 0 .83.174l-.148.302q-.343-.162-.687-.162zM30.785 16.975v-1.466q0-.277-.126-.413-.127-.137-.395-.137-.358 0-.523.195-.163.194-.163.636v1.185h-.344v-3.217h.344v.974q0 .176-.017.291h.02q.102-.163.288-.256.188-.095.428-.095.415 0 .622.198.209.197.209.627v1.478zM32.174 16.975h-.343v-2.266h.343zm-.372-2.88q0-.118.058-.171.057-.056.144-.056.083 0 .143.056.06.056.06.171 0 .116-.06.174-.06.056-.143.056-.087 0-.144-.056-.058-.058-.058-.174zM33.249 16.975h-.344v-3.217h.344zM35.522 16.67h-.018q-.238.346-.711.346-.445 0-.693-.304-.246-.304-.246-.864t.248-.87q.248-.31.69-.31.462 0 .708.335h.027l-.015-.164-.008-.159v-.922h.343v3.217h-.28zm-.686.059q.352 0 .509-.19.159-.193.159-.619v-.072q0-.481-.161-.686-.16-.207-.511-.207-.302 0-.463.236-.16.233-.16.661 0 .434.16.656.16.22.467.22zM36.851 13.953l.031.045q-.053.207-.155.482-.1.273-.21.508h-.253q.145-.589.211-1.035zM38.757 16.357q0 .316-.235.487-.236.172-.662.172-.45 0-.703-.143v-.318q.164.083.35.13.188.048.361.048.27 0 .414-.085.145-.087.145-.262 0-.133-.116-.226-.114-.095-.447-.223-.316-.118-.45-.205-.133-.088-.199-.2-.064-.112-.064-.267 0-.277.226-.436.225-.161.618-.161.365 0 .715.149l-.122.279q-.341-.14-.618-.14-.244 0-.368.076t-.124.21q0 .091.045.156.048.064.151.121.104.058.397.168.403.147.544.295.142.15.142.375zM41.145 16.733q.09 0 .175-.013.085-.014.135-.029v.263q-.056.027-.166.043-.107.019-.194.019-.657 0-.657-.692v-1.348h-.325v-.166l.325-.142.145-.484h.198v.525h.657v.267h-.657v1.333q0 .205.097.314.097.11.267.11zM43.865 15.84q0 .554-.279.866-.28.31-.771.31-.304 0-.54-.143-.235-.142-.363-.409-.129-.267-.129-.624 0-.554.277-.862.277-.31.77-.31.475 0 .754.316.281.316.281.856zm-1.726 0q0 .434.174.661.173.228.51.228t.51-.226q.176-.227.176-.663 0-.432-.175-.655-.174-.226-.515-.226-.337 0-.508.221-.172.222-.172.66zM45.519 17.016q-.222 0-.405-.08-.182-.083-.306-.253h-.025q.025.199.025.376v.933h-.344v-3.283h.28l.047.31h.017q.132-.186.308-.268.175-.083.403-.083.45 0 .694.308.246.308.246.864 0 .558-.25.868-.248.308-.69.308zm-.05-2.057q-.347 0-.502.193-.155.192-.16.611v.077q0 .477.16.684.159.205.51.205.294 0 .46-.238.167-.238.167-.655 0-.424-.168-.65-.165-.227-.467-.227zM51.048 16.975V15.5q0-.27-.116-.405-.115-.137-.36-.137-.32 0-.473.184-.153.184-.153.567v1.265h-.343V15.5q0-.27-.116-.405-.115-.137-.361-.137-.323 0-.474.195-.149.192-.149.632v1.189h-.343v-2.266h.28l.055.31h.017q.097-.165.273-.258.177-.093.396-.093.532 0 .695.384h.017q.1-.177.293-.28.192-.104.438-.104.385 0 .575.198.192.197.192.63v1.479zM53.49 16.975l-.069-.323h-.017q-.169.213-.339.29-.167.074-.42.074-.336 0-.528-.174-.19-.173-.19-.494 0-.686 1.097-.719l.385-.012v-.14q0-.268-.116-.394-.114-.128-.366-.128-.283 0-.64.174l-.106-.263q.167-.09.366-.142.2-.052.4-.052.406 0 .6.18.196.18.196.577v1.546zm-.776-.242q.32 0 .502-.176.184-.176.184-.492v-.204l-.343.014q-.41.014-.591.128-.18.112-.18.35 0 .186.112.283.114.097.316.097zM55.486 14.668q.15 0 .27.025l-.047.318q-.14-.031-.248-.031-.275 0-.471.223-.194.223-.194.556v1.216h-.344v-2.266h.284l.039.42h.016q.127-.221.304-.341.178-.12.391-.12zM58.035 14.71v.216l-.42.05q.058.072.103.19.046.116.046.263 0 .332-.227.53-.228.2-.625.2-.101 0-.19-.017-.219.115-.219.291 0 .093.076.139.077.043.263.043h.401q.368 0 .564.155.199.155.199.45 0 .377-.302.573-.302.199-.88.199-.445 0-.687-.166-.24-.165-.24-.467 0-.207.133-.357.132-.151.372-.205-.087-.04-.147-.122-.058-.083-.058-.192 0-.124.066-.217t.209-.18q-.176-.072-.287-.246-.11-.174-.11-.397 0-.372.223-.573.224-.202.633-.202.178 0 .32.041zm-1.807 2.645q0 .184.155.28.155.094.445.094.432 0 .638-.13.209-.128.209-.35 0-.183-.114-.256-.113-.07-.428-.07h-.41q-.234 0-.365.112-.13.111-.13.32zm.186-1.92q0 .237.134.36.135.121.375.121.502 0 .502-.487 0-.511-.509-.511-.241 0-.372.13-.13.13-.13.387zM58.847 16.975h-.343v-2.266h.343zm-.372-2.88q0-.118.058-.171.058-.056.145-.056.082 0 .142.056.06.056.06.171 0 .116-.06.174-.06.056-.142.056-.087 0-.145-.056-.058-.058-.058-.174zM61.13 16.975v-1.466q0-.277-.127-.413-.126-.137-.395-.137-.355 0-.52.193-.166.192-.166.634v1.189h-.343v-2.266h.279l.056.31h.016q.106-.167.296-.258.19-.093.424-.093.409 0 .616.198.206.197.206.63v1.479z"/></g><g style="line-height:1.25;-inkscape-font-specification:'Open Sans, Normal';font-variant-ligatures:normal;font-variant-caps:normal;font-variant-numeric:normal;font-feature-settings:normal;text-align:start" aria-label="Parent’s bottom margin" font-weight="400" font-size="4.233" font-family="Open Sans" letter-spacing="0" word-spacing="0" stroke-width=".265"><path style="-inkscape-font-specification:'Open Sans, Normal';font-variant-ligatures:normal;font-variant-caps:normal;font-variant-numeric:normal;font-feature-settings:normal;text-align:start" d="M28.532 36q0 .459-.315.707-.312.246-.895.246h-.355v1.188h-.352V35.12h.784q1.133 0 1.133.88zm-1.565.651h.316q.467 0 .676-.15.209-.152.209-.485 0-.3-.197-.446-.196-.147-.611-.147h-.393zM30.504 38.141l-.069-.322h-.016q-.17.213-.34.29-.167.074-.419.074-.337 0-.529-.174-.19-.174-.19-.494 0-.686 1.097-.72l.385-.012v-.14q0-.267-.116-.393-.114-.128-.366-.128-.283 0-.64.173l-.106-.262q.168-.091.366-.143.2-.051.401-.051.405 0 .6.18.196.18.196.576v1.546zm-.776-.242q.32 0 .503-.175.184-.176.184-.492v-.205l-.343.015q-.41.014-.592.128-.18.111-.18.35 0 .185.112.282.114.097.316.097zM32.5 35.835q.151 0 .271.024l-.047.319q-.141-.031-.248-.031-.275 0-.472.223-.194.223-.194.556v1.215h-.343v-2.265h.283l.04.42h.016q.126-.222.304-.342.177-.12.39-.12zM34.152 38.183q-.502 0-.794-.306-.29-.306-.29-.85 0-.548.27-.87.27-.322.725-.322.426 0 .674.28.248.28.248.739v.217h-1.56q.01.399.2.605.192.207.54.207.365 0 .723-.153v.306q-.182.078-.345.112-.162.035-.391.035zm-.093-2.061q-.273 0-.436.178-.161.177-.19.492h1.184q0-.325-.145-.497-.144-.173-.413-.173zM37.118 38.141v-1.465q0-.277-.126-.414-.126-.136-.395-.136-.355 0-.52.192-.166.192-.166.635v1.188h-.343v-2.265h.279l.056.31h.016q.106-.168.296-.258.19-.093.424-.093.409 0 .616.198.206.196.206.63v1.478zM38.896 37.9q.09 0 .176-.013.084-.014.134-.029v.263q-.056.027-.165.043-.108.019-.195.019-.657 0-.657-.693v-1.348h-.325v-.165l.325-.142.145-.484h.198v.525h.657v.266h-.657v1.334q0 .204.097.314.097.11.267.11zM39.936 35.12l.03.045q-.053.206-.154.481-.102.273-.211.509h-.253q.145-.59.211-1.036zM41.841 37.523q0 .317-.235.488-.236.172-.662.172-.45 0-.703-.143v-.318q.164.082.35.13.188.047.362.047.268 0 .413-.084.145-.087.145-.263 0-.132-.116-.225-.114-.095-.447-.223-.316-.118-.45-.205-.133-.089-.199-.2-.064-.112-.064-.267 0-.277.226-.436.225-.161.618-.161.365 0 .715.148l-.122.28q-.341-.141-.618-.141-.244 0-.368.076-.124.077-.124.211 0 .091.045.155.048.064.151.122.104.058.397.168.403.146.544.295.142.149.142.374zM44.551 35.839q.447 0 .693.306.248.303.248.862 0 .558-.25.868-.248.308-.69.308-.222 0-.406-.08-.182-.084-.306-.253h-.025l-.072.291h-.246v-3.216h.343v.781q0 .263-.016.472h.016q.24-.34.711-.34zm-.05.287q-.35 0-.506.203-.155.2-.155.678 0 .477.16.684.159.204.51.204.316 0 .471-.23.155-.23.155-.663 0-.442-.155-.659-.155-.217-.48-.217zM48.049 37.007q0 .553-.28.866-.278.31-.77.31-.304 0-.54-.143-.235-.143-.364-.41-.128-.266-.128-.623 0-.554.277-.862.277-.31.77-.31.475 0 .754.316.28.316.28.856zm-1.726 0q0 .434.173.661.174.227.51.227.338 0 .512-.225.175-.227.175-.663 0-.432-.175-.656-.174-.225-.515-.225-.337 0-.509.221-.171.221-.171.66zM49.38 37.9q.09 0 .176-.013.084-.014.134-.029v.263q-.056.027-.165.043-.108.019-.195.019-.657 0-.657-.693v-1.348h-.325v-.165l.325-.142.145-.484h.198v.525h.657v.266h-.657v1.334q0 .204.097.314.097.11.267.11zM50.876 37.9q.091 0 .176-.013.085-.014.135-.029v.263q-.056.027-.166.043-.107.019-.194.019-.657 0-.657-.693v-1.348h-.325v-.165l.325-.142.144-.484h.199v.525h.657v.266h-.657v1.334q0 .204.097.314.097.11.266.11zM53.597 37.007q0 .553-.28.866-.278.31-.77.31-.304 0-.54-.143-.235-.143-.364-.41-.128-.266-.128-.623 0-.554.277-.862.277-.31.77-.31.475 0 .754.316.28.316.28.856zm-1.726 0q0 .434.173.661.174.227.51.227.338 0 .511-.225.176-.227.176-.663 0-.432-.176-.656-.173-.225-.514-.225-.337 0-.509.221-.171.221-.171.66zM57.084 38.141v-1.473q0-.271-.116-.406-.116-.136-.36-.136-.32 0-.473.184-.153.184-.153.566v1.265h-.343v-1.473q0-.271-.116-.406-.116-.136-.362-.136-.322 0-.473.194-.149.193-.149.633v1.188h-.343v-2.265h.28l.055.31h.017q.097-.165.272-.258.178-.093.397-.093.532 0 .695.384h.016q.102-.178.294-.281.192-.103.438-.103.385 0 .575.198.192.196.192.63v1.478zM62.12 38.141v-1.473q0-.271-.117-.406-.115-.136-.36-.136-.32 0-.473.184-.153.184-.153.566v1.265h-.343v-1.473q0-.271-.115-.406-.116-.136-.362-.136-.323 0-.474.194-.148.193-.148.633v1.188h-.343v-2.265h.279l.055.31h.017q.097-.165.273-.258.178-.093.397-.093.53 0 .694.384h.017q.101-.178.293-.281.192-.103.438-.103.385 0 .575.198.192.196.192.63v1.478zM64.56 38.141l-.068-.322h-.016q-.17.213-.34.29-.167.074-.419.074-.337 0-.53-.174-.19-.174-.19-.494 0-.686 1.098-.72l.385-.012v-.14q0-.267-.116-.393-.114-.128-.366-.128-.283 0-.64.173l-.106-.262q.167-.091.366-.143.2-.051.4-.051.406 0 .6.18.197.18.197.576v1.546zm-.775-.242q.32 0 .503-.175.184-.176.184-.492v-.205l-.344.015q-.409.014-.59.128-.18.111-.18.35 0 .185.111.282.114.097.316.097zM66.557 35.835q.151 0 .27.024l-.047.319q-.14-.031-.248-.031-.275 0-.47.223-.195.223-.195.556v1.215h-.343v-2.265h.283l.04.42h.016q.126-.222.303-.342.178-.12.391-.12zM69.106 35.876v.217l-.42.05q.058.072.104.19.045.115.045.262 0 .333-.227.531-.228.199-.625.199-.1 0-.19-.017-.219.116-.219.292 0 .093.077.138.076.044.262.044h.401q.368 0 .564.155.199.155.199.45 0 .377-.302.573-.302.198-.88.198-.445 0-.687-.165-.24-.165-.24-.467 0-.207.133-.358.132-.15.372-.204-.087-.04-.147-.122-.058-.083-.058-.193 0-.124.066-.217.067-.093.21-.18-.177-.072-.288-.245-.11-.174-.11-.397 0-.372.224-.573.223-.202.632-.202.178 0 .32.04zm-1.807 2.646q0 .184.155.279.155.095.445.095.432 0 .638-.13.21-.129.21-.35 0-.184-.115-.256-.113-.07-.427-.07h-.412q-.233 0-.364.111-.13.112-.13.32zm.186-1.92q0 .237.135.36.134.121.374.121.502 0 .502-.488 0-.51-.508-.51-.242 0-.372.13t-.13.386zM69.918 38.141h-.343v-2.265h.343zm-.372-2.88q0-.117.058-.17.058-.056.145-.056.082 0 .142.055.06.056.06.172 0 .116-.06.174-.06.055-.142.055-.087 0-.145-.055-.058-.058-.058-.174zM72.2 38.141v-1.465q0-.277-.126-.414-.126-.136-.395-.136-.355 0-.52.192-.166.192-.166.635v1.188h-.343v-2.265h.279l.056.31H71q.106-.168.296-.258.19-.093.424-.093.409 0 .616.198.206.196.206.63v1.478z"/></g><g style="line-height:1.25;-inkscape-font-specification:'Open Sans, Normal';font-variant-ligatures:normal;font-variant-caps:normal;font-variant-numeric:normal;font-feature-settings:normal;text-align:start" aria-label="Parent’s top margin" font-weight="400" font-size="4.233" font-family="Open Sans" letter-spacing="0" word-spacing="0" stroke-width=".265"><path style="-inkscape-font-specification:'Open Sans, Normal';font-variant-ligatures:normal;font-variant-caps:normal;font-variant-numeric:normal;font-feature-settings:normal;text-align:start" d="M28.532 4.195q0 .459-.315.707-.312.246-.895.246h-.355v1.189h-.352V3.315h.784q1.133 0 1.133.88zm-1.565.651h.316q.467 0 .676-.15.209-.152.209-.484 0-.3-.197-.447-.196-.147-.611-.147h-.393zM30.504 6.337l-.069-.323h-.016q-.17.213-.34.29-.167.074-.419.074-.337 0-.529-.174-.19-.173-.19-.494 0-.686 1.097-.72l.385-.011v-.141q0-.267-.116-.393-.114-.128-.366-.128-.283 0-.64.174l-.106-.263q.168-.09.366-.142.2-.052.401-.052.405 0 .6.18.196.18.196.576v1.547zm-.776-.242q.32 0 .503-.176.184-.176.184-.492v-.205l-.343.015q-.41.014-.592.128-.18.112-.18.35 0 .185.112.283.114.097.316.097zM32.5 4.03q.151 0 .271.025l-.047.318q-.141-.031-.248-.031-.275 0-.472.223-.194.223-.194.556v1.216h-.343V4.07h.283l.04.42h.016q.126-.221.304-.341.177-.12.39-.12zM34.152 6.378q-.502 0-.794-.306-.29-.306-.29-.85 0-.547.27-.87.27-.322.725-.322.426 0 .674.28.248.28.248.739v.217h-1.56q.01.399.2.605.192.207.54.207.365 0 .723-.153v.306q-.182.079-.345.112-.162.035-.391.035zm-.093-2.061q-.273 0-.436.178-.161.178-.19.492h1.184q0-.325-.145-.496-.144-.174-.413-.174zM37.118 6.337V4.87q0-.277-.126-.413-.126-.137-.395-.137-.355 0-.52.192-.166.193-.166.635v1.189h-.343V4.07h.279l.056.31h.016q.106-.167.296-.258.19-.093.424-.093.409 0 .616.198.206.197.206.63v1.479zM38.896 6.095q.09 0 .176-.013.084-.014.134-.029v.263q-.056.027-.165.043-.108.019-.195.019-.657 0-.657-.693V4.338h-.325v-.166l.325-.142.145-.484h.198v.525h.657v.267h-.657V5.67q0 .205.097.314.097.11.267.11zM39.936 3.315l.03.045q-.053.207-.154.482-.102.272-.211.508h-.253q.145-.589.211-1.035zM41.841 5.719q0 .316-.235.487-.236.172-.662.172-.45 0-.703-.143v-.318q.164.083.35.13.188.048.362.048.268 0 .413-.085.145-.087.145-.263 0-.132-.116-.225-.114-.095-.447-.223-.316-.118-.45-.205-.133-.089-.199-.2-.064-.112-.064-.267 0-.277.226-.436.225-.161.618-.161.365 0 .715.149l-.122.279q-.341-.141-.618-.141-.244 0-.368.077-.124.076-.124.21 0 .091.045.155.048.064.151.122.104.058.397.168.403.147.544.295.142.15.142.375zM44.229 6.095q.09 0 .176-.013.084-.014.134-.029v.263q-.056.027-.165.043-.108.019-.195.019-.657 0-.657-.693V4.338h-.325v-.166l.325-.142.145-.484h.198v.525h.657v.267h-.657V5.67q0 .205.097.314.097.11.267.11zM46.95 5.202q0 .554-.28.866-.279.31-.771.31-.304 0-.54-.143-.235-.142-.363-.409t-.128-.624q0-.554.277-.862.277-.31.768-.31.476 0 .755.316.281.316.281.856zm-1.727 0q0 .434.174.661.173.228.51.228t.51-.226q.177-.227.177-.663 0-.432-.176-.656-.174-.225-.515-.225-.337 0-.508.221-.172.222-.172.66zM48.603 6.378q-.221 0-.405-.08-.182-.083-.306-.253h-.025q.025.199.025.376v.933h-.343V4.07h.279l.047.31h.017q.132-.186.308-.269.175-.082.403-.082.45 0 .694.308.246.308.246.864 0 .558-.25.868-.248.308-.69.308zm-.05-2.057q-.347 0-.502.192-.155.193-.16.612v.077q0 .477.16.684.159.205.51.205.294 0 .46-.238.167-.238.167-.655 0-.424-.168-.65-.165-.227-.467-.227zM54.132 6.337V4.863q0-.271-.116-.405-.115-.137-.36-.137-.32 0-.473.184-.153.184-.153.567v1.265h-.343V4.863q0-.271-.116-.405-.115-.137-.361-.137-.323 0-.474.194-.148.193-.148.633v1.189h-.344V4.07h.28l.055.31h.017q.097-.165.273-.258.177-.093.397-.093.53 0 .694.384h.017q.1-.178.293-.28.192-.104.438-.104.385 0 .575.198.192.197.192.63v1.479zM56.573 6.337l-.068-.323h-.016q-.17.213-.34.29-.167.074-.42.074-.336 0-.528-.174-.19-.173-.19-.494 0-.686 1.097-.72l.385-.011v-.141q0-.267-.116-.393-.114-.128-.366-.128-.283 0-.64.174l-.106-.263q.167-.09.366-.142.2-.052.4-.052.406 0 .6.18.197.18.197.576v1.547zm-.775-.242q.32 0 .502-.176.184-.176.184-.492v-.205l-.343.015q-.409.014-.59.128-.18.112-.18.35 0 .185.11.283.115.097.317.097zM58.57 4.03q.151 0 .27.025l-.047.318q-.14-.031-.248-.031-.275 0-.471.223-.194.223-.194.556v1.216h-.343V4.07h.283l.039.42h.017q.126-.221.303-.341.178-.12.391-.12zM61.119 4.071v.217l-.42.05q.058.072.103.19.046.116.046.262 0 .333-.227.532-.228.198-.625.198-.101 0-.19-.016-.219.115-.219.291 0 .093.077.138.076.044.262.044h.401q.368 0 .564.155.199.155.199.45 0 .377-.302.573-.302.199-.88.199-.445 0-.687-.166-.24-.165-.24-.467 0-.207.133-.358.132-.15.372-.204-.087-.04-.147-.122-.058-.083-.058-.192 0-.124.066-.217t.209-.18q-.176-.073-.287-.246-.11-.174-.11-.397 0-.372.223-.573.224-.202.633-.202.178 0 .32.041zm-1.807 2.646q0 .184.155.279.155.095.445.095.432 0 .638-.13.21-.128.21-.35 0-.183-.115-.256-.113-.07-.427-.07h-.412q-.233 0-.364.112-.13.111-.13.32zm.186-1.92q0 .237.135.36.134.121.374.121.502 0 .502-.488 0-.51-.509-.51-.241 0-.372.13-.13.13-.13.387zM61.931 6.337h-.343V4.07h.343zm-.372-2.88q0-.118.058-.171.058-.056.145-.056.082 0 .142.056.06.055.06.171 0 .116-.06.174-.06.056-.142.056-.087 0-.145-.056-.058-.058-.058-.174zM64.213 6.337V4.87q0-.277-.126-.413-.126-.137-.395-.137-.355 0-.52.192-.166.193-.166.635v1.189h-.343V4.07h.279l.056.31h.016q.106-.167.296-.258.19-.093.424-.093.409 0 .616.198.206.197.206.63v1.479z"/></g><path d="M-63.22 64.489l3.97 2.645" fill="#131516" stroke="#131516" stroke-width=".3" marker-end="url(#a)" transform="translate(78.836 -57.874)"/><g style="line-height:1.25;-inkscape-font-specification:'Open Sans, Normal';font-variant-ligatures:normal;font-variant-caps:normal;font-variant-numeric:normal;font-feature-settings:normal;text-align:start" aria-label="Child" font-weight="400" font-size="4.233" font-family="Open Sans" letter-spacing="0" word-spacing="0" stroke-width=".265"><path style="-inkscape-font-specification:'Open Sans, Normal';font-variant-ligatures:normal;font-variant-caps:normal;font-variant-numeric:normal;font-feature-settings:normal;text-align:start" d="M1.451 19.738q-.498 0-.787.333-.288.33-.288.908 0 .593.277.917.28.323.794.323.316 0 .721-.114v.308q-.314.118-.775.118-.667 0-1.031-.405Q0 21.72 0 20.974q0-.467.174-.818.175-.352.504-.542.33-.19.777-.19.476 0 .831.174l-.149.302q-.343-.162-.686-.162zM4.326 22.49v-1.466q0-.277-.126-.413-.126-.137-.395-.137-.357 0-.523.195-.163.194-.163.636v1.185h-.343v-3.217h.343v.974q0 .176-.016.291h.02q.102-.163.288-.256.188-.095.428-.095.415 0 .622.198.208.197.208.627v1.478zM5.715 22.49h-.343v-2.266h.343zm-.372-2.88q0-.118.058-.171.058-.056.145-.056.083 0 .143.056.06.055.06.171 0 .116-.06.174-.06.056-.143.056-.087 0-.145-.056-.058-.058-.058-.174zM6.79 22.49h-.343v-3.217h.343zM9.064 22.186h-.019q-.237.345-.71.345-.445 0-.693-.304-.246-.304-.246-.864t.248-.87q.248-.31.69-.31.461 0 .707.335h.027l-.014-.164-.009-.159v-.922h.344v3.217h-.28zm-.686.058q.351 0 .508-.19.16-.193.16-.619v-.072q0-.482-.162-.686-.159-.207-.51-.207-.302 0-.463.236-.16.233-.16.661 0 .434.16.655.159.222.467.222z"/></g><g style="line-height:1.25;-inkscape-font-specification:'Open Sans, Normal';font-variant-ligatures:normal;font-variant-caps:normal;font-variant-numeric:normal;font-feature-settings:normal;text-align:start" aria-label="Parent" font-weight="400" font-size="4.233" font-family="Open Sans" letter-spacing="0" word-spacing="0" stroke-width=".265"><path style="-inkscape-font-specification:'Open Sans, Normal';font-variant-ligatures:normal;font-variant-caps:normal;font-variant-numeric:normal;font-feature-settings:normal;text-align:start" d="M3.66 4.473q0 .459-.313.707-.313.246-.895.246h-.356v1.189h-.351V3.593h.783q1.133 0 1.133.88zm-1.564.651h.316q.467 0 .676-.15.209-.152.209-.484 0-.3-.196-.447-.197-.147-.612-.147h-.393zM5.633 6.615l-.068-.323h-.017q-.17.213-.339.29-.167.074-.42.074-.337 0-.529-.174-.19-.173-.19-.494 0-.686 1.098-.72l.384-.011v-.141q0-.267-.116-.393-.113-.128-.366-.128-.283 0-.64.174l-.106-.263q.168-.09.366-.142.2-.052.401-.052.405 0 .6.18.196.18.196.576v1.547zm-.775-.242q.32 0 .502-.176.184-.176.184-.492V5.5l-.343.015q-.41.014-.591.128-.18.112-.18.35 0 .185.111.283.114.097.317.097zM7.63 4.308q.15 0 .27.025l-.047.318q-.14-.031-.248-.031-.275 0-.472.223-.194.223-.194.556v1.216h-.343V4.349h.283l.04.42h.016q.126-.221.304-.341.178-.12.39-.12zM9.281 6.656q-.502 0-.794-.306-.29-.306-.29-.85 0-.547.27-.87.27-.322.725-.322.426 0 .674.28.248.28.248.739v.217h-1.56q.01.399.2.605.192.207.54.207.365 0 .723-.153v.306q-.182.079-.345.112-.161.035-.39.035zm-.093-2.06q-.273 0-.436.177-.161.178-.19.492h1.184q0-.325-.145-.496-.144-.174-.413-.174zM12.247 6.615V5.149q0-.277-.126-.413-.126-.137-.395-.137-.355 0-.52.192-.166.193-.166.635v1.189h-.343V4.349h.28l.055.31h.016q.106-.167.296-.258.19-.093.424-.093.409 0 .616.198.206.197.206.63v1.479zM14.025 6.373q.09 0 .176-.013.084-.014.134-.029v.263q-.056.027-.165.043-.108.019-.195.019-.657 0-.657-.693V4.616h-.324V4.45l.324-.142.145-.484h.198v.525h.657v.267h-.657v1.333q0 .205.097.314.097.11.267.11z"/></g><g fill="#a2000d"><path d="M23.62 10.186h2.382v.397H23.62zM23.62 0h2.382v.397H23.62z"/><path d="M25.01 0v10.583h-.398V0z"/></g><g fill="#a2000d"><path d="M23.62 20.77h2.382v.397H23.62zM23.62 10.583h2.382v.397H23.62z"/><path d="M25.01 10.583v10.584h-.398V10.583z"/></g><path d="M20.894 10.57h52.93v21.18h-52.93z" fill="none" stroke="#3d3d55" stroke-width=".282" stroke-linecap="round" stroke-dasharray=".28182084,.84546251" stroke-dashoffset=".185"/><g fill="#a2000d"><path d="M23.62 31.353h2.382v.397H23.62zM23.62 21.167h2.382v.397H23.62z"/><path d="M25.01 21.167V31.75h-.398V21.167z"/></g><g fill="#a2000d"><path d="M23.62 41.936h2.382v.397H23.62zM23.62 31.75h2.382v.397H23.62z"/><path d="M25.01 31.75v10.583h-.398V31.75z"/></g><path d="M20.908 21.167h52.917" fill="none" stroke="#705697" stroke-width=".265" stroke-dasharray=".26458333,.79375"/><path d="M-68.51 79.04h10.582" fill="#131516" stroke="#131516" stroke-width=".3" marker-end="url(#b)" transform="translate(78.836 -57.874)"/></svg>