<svg xmlns="http://www.w3.org/2000/svg" viewBox="0 0 87.842 77.788" height="294" width="332"><defs><marker id="a" refX="0" refY="0" orient="auto" overflow="visible"><path d="M2.308 0l-3.46 2v-4z" fill="#131516" fill-rule="evenodd" stroke="#131516" stroke-width=".5332"/></marker></defs><path d="M.265.265h87.312V16.14H.265z" fill="#dfdff9"/><path d="M4.97 5.556H82.9v5.292H4.97z" fill="#705697"/><g style="line-height:1.25;-inkscape-font-specification:'Open Sans, Normal';font-variant-ligatures:normal;font-variant-position:normal;font-variant-caps:normal;font-variant-numeric:normal;font-variant-alternates:normal;font-feature-settings:normal;text-indent:0;text-align:start;text-decoration-line:none;text-decoration-style:solid;text-decoration-color:#000;text-transform:none;text-orientation:mixed;white-space:normal;shape-padding:0" aria-label="Child 1" font-weight="400" font-size="4.233" font-family="Open Sans" letter-spacing="0" word-spacing="0" fill="#f3eafb" stroke-width=".265"><path style="line-height:1.25;-inkscape-font-specification:'Open Sans, Normal';font-variant-ligatures:normal;font-variant-position:normal;font-variant-caps:normal;font-variant-numeric:normal;font-variant-alternates:normal;font-feature-settings:normal;text-indent:0;text-align:start;text-decoration-line:none;text-decoration-style:solid;text-decoration-color:#000;text-transform:none;text-orientation:mixed;white-space:normal;shape-padding:0" d="M39.466 6.812q-.472 0-.747.35-.272.35-.272.958 0 .626.262.968.265.34.753.34.3 0 .684-.12v.325q-.298.125-.735.125-.633 0-.978-.428-.343-.427-.343-1.214 0-.493.165-.864.166-.37.478-.571.313-.2.737-.2.45 0 .787.183l-.14.318q-.326-.17-.651-.17zM42.191 9.714V8.168q0-.292-.12-.436-.119-.144-.373-.144-.34 0-.496.205-.155.205-.155.672v1.25h-.325V6.32h.325v1.027q0 .186-.016.308h.02q.096-.173.272-.27.179-.101.406-.101.394 0 .59.21.198.206.198.66v1.56zM43.508 9.714h-.325v-2.39h.325zm-.353-3.037q0-.125.055-.181.055-.06.137-.06.079 0 .136.06.057.059.057.18 0 .123-.057.184-.057.059-.136.059-.082 0-.137-.06-.055-.06-.055-.182zM44.527 9.714h-.325V6.321h.325zM46.682 9.394h-.017q-.225.364-.674.364-.421 0-.657-.32-.233-.321-.233-.912t.235-.918q.235-.327.655-.327.437 0 .67.353h.025l-.013-.172-.008-.168V6.32h.325v3.393h-.264zm-.65.06q.333 0 .482-.2.15-.203.15-.652v-.076q0-.508-.152-.724-.15-.218-.484-.218-.286 0-.439.248-.15.247-.15.698 0 .458.15.691.151.234.443.234zM49.78 9.714h-.317V7.442q0-.283.016-.536l-.092.096q-.051.05-.467.425l-.172-.249.758-.652h.274z"/></g><g style="line-height:1.25;-inkscape-font-specification:'Open Sans, Normal';font-variant-ligatures:normal;font-variant-caps:normal;font-variant-numeric:normal;font-feature-settings:normal;text-align:start" aria-label="Parent 1" font-weight="400" font-size="4.233" font-family="Open Sans" letter-spacing="0" word-spacing="0" fill="#131516" stroke-width=".265"><path style="-inkscape-font-specification:'Open Sans, Normal';font-variant-ligatures:normal;font-variant-caps:normal;font-variant-numeric:normal;font-feature-settings:normal;text-align:start" d="M38.52 2.323q0 .485-.298.746-.296.26-.849.26h-.337v1.253h-.333V1.395h.743q1.073 0 1.073.928zm-1.484.687h.3q.443 0 .64-.159.198-.16.198-.51 0-.316-.186-.471-.186-.155-.58-.155h-.372zM40.389 4.582l-.065-.34h-.016q-.16.225-.321.306-.159.078-.398.078-.32 0-.501-.183-.18-.183-.18-.521 0-.724 1.04-.76l.364-.012v-.148q0-.282-.11-.415-.107-.135-.346-.135-.269 0-.608.183l-.1-.277q.16-.096.347-.15.19-.055.38-.055.384 0 .569.19.186.19.186.608v1.631zm-.735-.255q.304 0 .476-.185.174-.185.174-.519v-.216l-.325.015q-.388.016-.56.136-.17.117-.17.368 0 .196.105.299.108.102.3.102zM42.282 2.149q.143 0 .256.026l-.045.336q-.133-.033-.235-.033-.26 0-.447.236-.184.235-.184.586v1.282h-.325v-2.39h.268l.037.443h.016q.12-.233.288-.36.169-.126.37-.126zM43.847 4.626q-.476 0-.752-.323-.275-.322-.275-.896 0-.578.255-.918.257-.34.688-.34.404 0 .639.297.235.294.235.778v.229h-1.48q.01.42.19.639.183.218.512.218.347 0 .686-.161v.322q-.173.083-.328.118-.152.037-.37.037zm-.088-2.174q-.259 0-.413.188-.153.187-.18.519h1.122q0-.343-.137-.524-.137-.183-.392-.183zM46.659 4.582V3.036q0-.292-.12-.436-.12-.144-.374-.144-.337 0-.494.203-.156.203-.156.67v1.253h-.326v-2.39h.265l.053.328h.015q.1-.177.28-.273.181-.098.402-.098.388 0 .584.21.196.206.196.664v1.56zM48.344 4.327q.086 0 .167-.013.08-.015.127-.03v.277q-.053.028-.157.045-.102.02-.184.02-.623 0-.623-.73V2.474h-.308v-.175l.308-.15.137-.51H48v.554h.623v.28H48V3.88q0 .216.092.332.092.115.253.115zM51.168 4.582h-.318V2.31q0-.283.016-.536-.041.046-.092.096t-.467.425l-.172-.249.758-.651h.275z"/></g><path d="M.265 21.96h87.312v15.875H.265z" fill="#dfdff9"/><path d="M4.97 27.252H82.9v5.292H4.97z" fill="#705697"/><g style="line-height:1.25;-inkscape-font-specification:'Open Sans, Normal';font-variant-ligatures:normal;font-variant-position:normal;font-variant-caps:normal;font-variant-numeric:normal;font-variant-alternates:normal;font-feature-settings:normal;text-indent:0;text-align:start;text-decoration-line:none;text-decoration-style:solid;text-decoration-color:#000;text-transform:none;text-orientation:mixed;white-space:normal;shape-padding:0" aria-label="Child 2" font-weight="400" font-size="4.233" font-family="Open Sans" letter-spacing="0" word-spacing="0" fill="#f3eafb" stroke-width=".265"><path style="line-height:1.25;-inkscape-font-specification:'Open Sans, Normal';font-variant-ligatures:normal;font-variant-position:normal;font-variant-caps:normal;font-variant-numeric:normal;font-variant-alternates:normal;font-feature-settings:normal;text-indent:0;text-align:start;text-decoration-line:none;text-decoration-style:solid;text-decoration-color:#000;text-transform:none;text-orientation:mixed;white-space:normal;shape-padding:0" d="M39.127 28.508q-.472 0-.747.35-.272.35-.272.958 0 .626.262.968.265.34.753.34.3 0 .684-.12v.325q-.298.125-.735.125-.633 0-.978-.428-.343-.427-.343-1.214 0-.493.165-.864.166-.37.478-.571.313-.2.737-.2.45 0 .787.182l-.14.319q-.326-.17-.651-.17zM41.852 31.41v-1.546q0-.292-.12-.436-.119-.144-.373-.144-.34 0-.496.205-.155.205-.155.672v1.249h-.325v-3.393h.325v1.027q0 .185-.016.308h.02q.096-.173.272-.27.179-.101.406-.101.394 0 .59.21.198.206.198.66v1.559zM43.17 31.41h-.326v-2.39h.325zm-.354-3.038q0-.124.055-.18.055-.06.137-.06.079 0 .136.06.057.058.057.18 0 .123-.057.184-.057.058-.136.058-.082 0-.137-.058-.055-.061-.055-.184zM44.188 31.41h-.325v-3.393h.325zM46.343 31.09h-.017q-.225.364-.674.364-.421 0-.657-.321-.233-.32-.233-.911t.235-.918q.235-.328.655-.328.437 0 .67.354h.025l-.013-.173-.008-.167v-.973h.325v3.393h-.264zm-.65.06q.333 0 .482-.2.15-.203.15-.652v-.076q0-.509-.152-.724-.15-.218-.484-.218-.286 0-.439.248-.15.247-.15.698 0 .458.15.691.151.233.443.233zM50.12 31.41h-1.884v-.312l.755-.844q.345-.388.454-.554.11-.165.165-.322.055-.157.055-.338 0-.255-.14-.404-.138-.15-.385-.15-.179 0-.34.065-.158.066-.354.238l-.172-.246q.395-.367.862-.367.403 0 .633.231.229.23.229.617 0 .304-.153.6-.153.297-.572.75l-.627.683v.017h1.473z"/></g><g style="line-height:1.25;-inkscape-font-specification:'Open Sans, Normal';font-variant-ligatures:normal;font-variant-caps:normal;font-variant-numeric:normal;font-feature-settings:normal;text-align:start" aria-label="Parent 2" font-weight="400" font-size="4.233" font-family="Open Sans" letter-spacing="0" word-spacing="0" fill="#131516" stroke-width=".265"><path style="-inkscape-font-specification:'Open Sans, Normal';font-variant-ligatures:normal;font-variant-caps:normal;font-variant-numeric:normal;font-feature-settings:normal;text-align:start" d="M38.18 34.45q0 .484-.297.745-.296.26-.849.26h-.337v1.254h-.333V33.52h.743q1.073 0 1.073.928zm-1.483.686h.3q.443 0 .64-.159.199-.159.199-.51 0-.316-.187-.471-.186-.155-.58-.155h-.372zM40.05 36.709l-.065-.34h-.016q-.16.224-.321.305-.159.078-.398.078-.32 0-.501-.183-.18-.183-.18-.521 0-.724 1.04-.759l.364-.013v-.148q0-.282-.11-.415-.107-.135-.346-.135-.269 0-.608.183l-.1-.277q.16-.096.347-.15.19-.055.38-.055.384 0 .569.19.186.19.186.608v1.632zm-.735-.256q.304 0 .476-.185.174-.185.174-.519v-.216l-.325.015q-.388.016-.56.136-.17.117-.17.368 0 .196.105.299.108.102.3.102zM41.943 34.275q.143 0 .256.026l-.045.336q-.133-.033-.235-.033-.26 0-.447.236-.184.235-.184.586v1.283h-.325v-2.39h.268l.037.442h.016q.12-.233.288-.36.169-.126.37-.126zM43.508 36.752q-.476 0-.752-.323-.275-.322-.275-.896 0-.578.255-.918.257-.34.688-.34.404 0 .639.297.235.294.235.778v.229h-1.48q.01.42.19.639.183.218.512.218.347 0 .686-.161v.322q-.173.083-.328.118-.152.037-.37.037zm-.088-2.174q-.259 0-.413.188-.153.187-.18.519h1.122q0-.343-.137-.524-.137-.183-.392-.183zM46.32 36.709v-1.546q0-.293-.12-.437-.12-.144-.374-.144-.337 0-.494.203-.156.203-.156.67v1.254h-.326v-2.39h.265l.053.327h.015q.1-.177.28-.273.181-.098.402-.098.388 0 .584.21.196.206.196.664v1.56zM48.005 36.453q.086 0 .167-.013.08-.015.127-.03v.277q-.053.028-.157.046-.102.02-.184.02-.623 0-.623-.731V34.6h-.308v-.175l.308-.15.137-.51h.188v.554h.623v.28h-.623v1.407q0 .216.092.332.092.115.253.115zM51.507 36.709h-1.883v-.312l.754-.844q.345-.388.455-.554.11-.166.164-.323.055-.157.055-.338 0-.255-.139-.403-.14-.15-.386-.15-.178 0-.339.065-.159.065-.355.237l-.172-.246q.396-.366.862-.366.404 0 .633.23.23.23.23.618 0 .303-.154.6-.152.296-.572.75l-.627.682v.018h1.474z"/></g><path d="M1.552 47.913H76.96v10.583H1.552z" fill="#dfdff9"/><g style="line-height:1.25;-inkscape-font-specification:'Open Sans, Normal';font-variant-ligatures:normal;font-variant-caps:normal;font-variant-numeric:normal;font-feature-settings:normal;text-align:start" aria-label="20 px" font-weight="400" font-size="4.233" font-family="Open Sans" letter-spacing="0" word-spacing="0" fill="#131516" stroke-width=".265"><path style="-inkscape-font-specification:'Open Sans, Normal';font-variant-ligatures:normal;font-variant-caps:normal;font-variant-numeric:normal;font-feature-settings:normal;text-align:start" d="M6.373 55.53H4.386v-.295l.796-.8q.364-.368.48-.525.115-.157.173-.306.058-.149.058-.32 0-.242-.147-.383-.146-.142-.407-.142-.188 0-.357.062-.168.062-.374.225l-.182-.234q.417-.347.91-.347.425 0 .667.22.242.216.242.584 0 .287-.162.569-.16.28-.603.71l-.662.648v.016h1.555zM8.812 54.015q0 .784-.248 1.17-.246.387-.755.387-.487 0-.742-.395-.254-.397-.254-1.162 0-.79.246-1.172.246-.382.75-.382.492 0 .747.399.256.399.256 1.155zm-1.652 0q0 .66.155.961.155.3.494.3.344 0 .496-.304.156-.306.156-.957 0-.65-.156-.953-.152-.303-.496-.303-.339 0-.494.3-.155.297-.155.956zM11.543 55.572q-.222 0-.406-.08-.182-.083-.306-.253h-.024q.024.198.024.376v.932h-.343v-3.282h.28l.047.31h.016q.133-.186.308-.269.176-.082.404-.082.45 0 .694.308.246.308.246.864 0 .558-.25.868-.248.308-.69.308zm-.05-2.057q-.347 0-.502.192-.155.193-.16.612v.077q0 .477.16.684.159.204.51.204.294 0 .459-.237.167-.238.167-.655 0-.424-.167-.65-.165-.227-.467-.227zM13.63 54.37l-.787-1.105h.39l.598.868.595-.868h.387l-.788 1.106.829 1.16h-.389l-.634-.918-.641.917H12.8z"/></g><path d="M1.588 47.89h75.406v2.645H1.588z" fill="#705697"/><path d="M76.994 77.39H1.587V66.808h75.407z" fill="#dfdff9"/><path d="M76.994 77.788H1.588v-2.646h75.406z" fill="#705697"/><path d="M1.588 58.473h75.406v.397H1.588zM1.588 66.807h75.406v.397H1.588z" fill="#686892"/><g style="line-height:1.25;-inkscape-font-specification:'Open Sans, Normal';font-variant-ligatures:normal;font-variant-caps:normal;font-variant-numeric:normal;font-feature-settings:normal;text-align:start" aria-label="Bottom margin of Child 1" font-weight="400" font-size="4.233" font-family="Open Sans" letter-spacing="0" word-spacing="0" fill="#131516" stroke-width=".265"><path style="-inkscape-font-specification:'Open Sans, Normal';font-variant-ligatures:normal;font-variant-caps:normal;font-variant-numeric:normal;font-feature-settings:normal;text-align:start" d="M19.18 52.488h.809q.57 0 .824.19.255.19.255.6 0 .283-.143.468-.14.184-.413.238v.022q.652.124.652.763 0 .427-.26.667-.26.24-.725.24h-1zm.332 1.365h.549q.353 0 .508-.122.154-.124.154-.416 0-.269-.172-.386-.173-.12-.549-.12h-.49zm0 .314v1.193h.598q.347 0 .521-.148.177-.15.177-.47 0-.296-.18-.435-.179-.14-.545-.14zM23.586 54.48q0 .583-.264.913-.265.327-.731.327-.288 0-.512-.15-.223-.151-.345-.432-.121-.282-.121-.659 0-.584.262-.91.263-.326.73-.326.45 0 .715.333.266.334.266.903zm-1.636 0q0 .457.165.697.164.24.484.24.319 0 .484-.238.166-.24.166-.7 0-.456-.166-.691-.165-.238-.488-.238-.32 0-.482.233-.163.234-.163.696zM24.848 55.421q.086 0 .167-.013.08-.015.127-.03v.276q-.053.029-.157.046-.102.02-.184.02-.623 0-.623-.73v-1.422h-.308v-.175l.308-.15.137-.51h.188v.553h.623v.282h-.623v1.406q0 .216.092.332.092.115.253.115zM26.267 55.421q.086 0 .166-.013.08-.015.128-.03v.276q-.053.029-.157.046-.102.02-.184.02-.623 0-.623-.73v-1.422h-.308v-.175l.308-.15.137-.51h.188v.553h.623v.282h-.623v1.406q0 .216.092.332.092.115.253.115zM28.845 54.48q0 .583-.264.913-.265.327-.731.327-.288 0-.512-.15-.223-.151-.344-.432-.122-.282-.122-.659 0-.584.263-.91.262-.326.729-.326.45 0 .715.333.266.334.266.903zm-1.636 0q0 .457.165.697.164.24.484.24.32 0 .484-.238.166-.24.166-.7 0-.456-.166-.691-.165-.238-.488-.238-.32 0-.482.233-.163.234-.163.696zM32.15 55.676v-1.555q0-.285-.109-.427-.11-.144-.34-.144-.304 0-.45.194-.144.194-.144.598v1.334h-.326v-1.555q0-.285-.11-.427-.11-.144-.342-.144-.306 0-.45.205-.14.203-.14.667v1.254h-.325v-2.39h.264l.053.327h.016q.092-.174.258-.272.169-.098.377-.098.503 0 .658.405h.016q.096-.187.278-.296.182-.11.415-.11.365 0 .545.21.182.207.182.665v1.56zM36.924 55.676v-1.555q0-.285-.11-.427-.11-.144-.34-.144-.304 0-.45.194-.144.194-.144.598v1.334h-.326v-1.555q0-.285-.11-.427-.109-.144-.342-.144-.306 0-.449.205-.14.203-.14.667v1.254h-.326v-2.39h.264l.053.327h.016q.092-.174.259-.272.168-.098.376-.098.503 0 .658.405h.016q.096-.187.278-.296.182-.11.415-.11.365 0 .545.21.182.207.182.665v1.56zM39.238 55.676l-.064-.34h-.016q-.16.225-.321.305-.16.079-.398.079-.32 0-.502-.183-.18-.184-.18-.521 0-.724 1.04-.76l.365-.012v-.149q0-.281-.11-.414-.108-.135-.347-.135-.268 0-.607.183l-.1-.277q.159-.096.347-.15.19-.055.38-.055.384 0 .568.19.186.19.186.608v1.631zm-.735-.255q.304 0 .477-.185.174-.186.174-.52v-.215l-.325.015q-.388.015-.56.135-.171.118-.171.369 0 .196.106.299.107.102.3.102zM41.131 53.243q.143 0 .257.026l-.045.336q-.133-.033-.235-.033-.261 0-.447.235-.184.236-.184.587v1.282h-.326v-2.39h.269l.037.443h.016q.12-.233.288-.36.168-.126.37-.126zM43.547 53.286v.23l-.398.052q.055.076.098.2.043.122.043.277 0 .351-.215.56-.216.21-.592.21-.096 0-.18-.018-.208.123-.208.308 0 .098.073.146.072.046.249.046h.38q.348 0 .535.163.188.164.188.476 0 .397-.286.604-.286.21-.835.21-.421 0-.65-.175-.228-.175-.228-.493 0-.218.125-.377.126-.16.353-.216-.082-.042-.139-.129-.055-.087-.055-.203 0-.13.063-.229.063-.098.198-.19-.167-.076-.273-.259-.103-.183-.103-.419 0-.392.211-.604.212-.213.6-.213.168 0 .303.043zm-1.712 2.791q0 .195.147.295.146.1.42.1.41 0 .606-.137.198-.135.198-.369 0-.194-.108-.27-.107-.074-.405-.074h-.39q-.222 0-.345.117-.123.118-.123.338zm.176-2.025q0 .25.127.38.128.128.355.128.476 0 .476-.515 0-.538-.482-.538-.23 0-.353.137-.123.137-.123.408zM44.317 55.676h-.325v-2.39h.325zm-.352-3.037q0-.125.054-.181.055-.06.138-.06.078 0 .135.06.057.059.057.18 0 .123-.057.184-.057.059-.135.059-.083 0-.138-.06-.054-.06-.054-.182zM46.48 55.676V54.13q0-.292-.12-.436-.119-.144-.373-.144-.337 0-.494.203-.157.203-.157.67v1.253h-.325v-2.39h.264l.053.327h.016q.1-.176.28-.272.18-.098.402-.098.388 0 .584.209.196.207.196.665v1.56zM50.368 54.48q0 .583-.265.913-.264.327-.73.327-.288 0-.512-.15-.223-.151-.345-.432-.121-.282-.121-.659 0-.584.262-.91.263-.326.73-.326.45 0 .715.333.266.334.266.903zm-1.636 0q0 .457.164.697.165.24.484.24.32 0 .484-.238.167-.24.167-.7 0-.456-.167-.691-.164-.238-.487-.238-.32 0-.482.233-.163.234-.163.696zM51.904 53.568h-.546v2.108h-.326v-2.108h-.384v-.164l.384-.13v-.134q0-.88.692-.88.17 0 .4.076l-.085.29q-.188-.068-.32-.068-.185 0-.273.137-.088.136-.088.437v.154h.546zM54.618 52.774q-.472 0-.746.351-.273.349-.273.957 0 .626.263.968.264.34.752.34.3 0 .684-.12v.326q-.298.124-.735.124-.633 0-.978-.428-.342-.427-.342-1.214 0-.493.164-.864.167-.37.478-.57.314-.202.737-.202.45 0 .788.184l-.141.318q-.326-.17-.65-.17zM57.344 55.676V54.13q0-.292-.12-.436-.12-.144-.374-.144-.34 0-.496.205-.155.205-.155.672v1.25h-.325v-3.394h.325v1.027q0 .186-.015.308h.02q.095-.172.272-.27.178-.1.405-.1.394 0 .59.208.198.208.198.661v1.56zM58.66 55.676h-.325v-2.39h.325zm-.352-3.037q0-.125.055-.181.055-.06.137-.06.078 0 .135.06.057.059.057.18 0 .123-.057.184-.057.059-.135.059-.083 0-.137-.06-.055-.06-.055-.182zM59.68 55.676h-.326v-3.393h.325zM61.835 55.356h-.018q-.225.364-.674.364-.421 0-.656-.32-.233-.321-.233-.912t.235-.918q.235-.327.654-.327.437 0 .67.353h.026l-.014-.172-.008-.168v-.973h.325v3.393h-.264zm-.65.06q.332 0 .481-.2.151-.203.151-.652v-.076q0-.508-.153-.724-.15-.218-.484-.218-.286 0-.439.248-.15.247-.15.698 0 .458.15.691.151.234.443.234zM64.933 55.676h-.318v-2.272q0-.283.016-.536-.041.045-.092.096-.051.05-.466.425l-.173-.249.758-.652h.275z"/></g><g style="line-height:1.25;-inkscape-font-specification:'Open Sans, Normal';font-variant-ligatures:normal;font-variant-caps:normal;font-variant-numeric:normal;font-feature-settings:normal;text-align:start" aria-label="20 px" font-weight="400" font-size="4.233" font-family="Open Sans" letter-spacing="0" word-spacing="0" fill="#131516" stroke-width=".265"><path style="-inkscape-font-specification:'Open Sans, Normal';font-variant-ligatures:normal;font-variant-caps:normal;font-variant-numeric:normal;font-feature-settings:normal;text-align:start" d="M6.307 63.865H4.321v-.296l.796-.8q.363-.368.48-.525.115-.157.173-.306.058-.148.058-.32 0-.242-.147-.382-.147-.143-.407-.143-.188 0-.358.062-.167.062-.374.225l-.182-.233q.418-.348.91-.348.425 0 .667.22.242.217.242.584 0 .288-.161.569-.161.281-.604.711l-.661.647v.017h1.554zM8.746 62.35q0 .783-.248 1.17-.246.386-.754.386-.488 0-.742-.395-.255-.397-.255-1.161 0-.79.246-1.172.246-.383.75-.383.493 0 .747.4.256.398.256 1.155zm-1.651 0q0 .66.155.96.155.3.494.3.343 0 .496-.303.155-.306.155-.957t-.155-.953q-.153-.304-.496-.304-.34 0-.494.3-.155.297-.155.957zM11.477 63.906q-.221 0-.405-.08-.182-.083-.306-.253h-.025q.025.199.025.377v.932h-.343v-3.283h.279l.047.31h.017q.132-.186.308-.268.176-.083.403-.083.45 0 .694.308.246.308.246.864 0 .558-.25.868-.248.308-.69.308zm-.05-2.057q-.347 0-.502.193-.155.192-.16.612v.076q0 .478.16.684.16.205.51.205.294 0 .46-.238.167-.238.167-.655 0-.424-.168-.65-.165-.227-.467-.227zM13.565 62.705l-.788-1.106h.39l.598.869.595-.869h.387l-.788 1.106.83 1.16h-.39l-.634-.918-.64.918h-.39z"/></g><g style="line-height:1.25;-inkscape-font-specification:'Open Sans, Normal';font-variant-ligatures:normal;font-variant-caps:normal;font-variant-numeric:normal;font-feature-settings:normal;text-align:start" aria-label="Collapsed inter-parent margin" font-weight="400" font-size="4.233" font-family="Open Sans" letter-spacing="0" word-spacing="0" fill="#131516" stroke-width=".265"><path style="-inkscape-font-specification:'Open Sans, Normal';font-variant-ligatures:normal;font-variant-caps:normal;font-variant-numeric:normal;font-feature-settings:normal;text-align:start" d="M20.406 61.096q-.472 0-.747.351-.272.35-.272.958 0 .625.263.968.264.34.752.34.3 0 .684-.12v.325q-.298.124-.735.124-.633 0-.978-.427-.343-.428-.343-1.215 0-.493.165-.863.166-.37.478-.572.314-.2.737-.2.45 0 .788.183l-.142.318q-.325-.17-.65-.17zM23.516 62.801q0 .585-.265.914-.264.327-.73.327-.289 0-.512-.15-.224-.15-.345-.432-.122-.281-.122-.659 0-.584.263-.909.263-.327.729-.327.45 0 .715.334.267.333.267.902zm-1.637 0q0 .458.165.698.165.24.484.24.32 0 .484-.238.167-.24.167-.7 0-.455-.167-.69-.165-.238-.488-.238-.32 0-.482.233-.163.233-.163.695zM24.41 63.999h-.326v-3.393h.325zM25.428 63.999h-.325v-3.393h.325zM27.442 63.999l-.064-.34h-.016q-.16.224-.321.305-.16.078-.398.078-.32 0-.502-.183-.18-.183-.18-.521 0-.724 1.04-.759l.365-.013v-.148q0-.282-.11-.415-.108-.135-.347-.135-.268 0-.607.183l-.1-.277q.159-.096.347-.15.19-.055.38-.055.384 0 .568.19.186.19.186.609v1.63zm-.734-.256q.303 0 .476-.185.174-.185.174-.519v-.216l-.325.016q-.388.015-.56.135-.171.117-.171.368 0 .197.106.299.107.102.3.102zM29.355 64.042q-.21 0-.384-.085-.173-.087-.29-.266h-.024q.024.21.024.397v.983h-.326V61.61h.265l.045.327h.016q.125-.196.292-.284.166-.087.382-.087.427 0 .658.325.233.325.233.911 0 .59-.237.916-.235.325-.654.325zm-.047-2.17q-.33 0-.476.203-.147.203-.151.646v.08q0 .504.15.722.151.216.485.216.278 0 .435-.25.158-.251.158-.692 0-.447-.158-.685-.157-.24-.443-.24zM32.202 63.347q0 .333-.224.514-.223.181-.627.181-.427 0-.666-.15v-.336q.155.087.331.137.179.05.343.05.255 0 .392-.089.137-.092.137-.277 0-.14-.11-.238-.107-.1-.423-.235-.3-.124-.427-.216-.125-.094-.188-.211-.06-.118-.06-.282 0-.292.213-.46.214-.17.586-.17.347 0 .678.157l-.116.294q-.323-.148-.586-.148-.23 0-.348.08-.118.082-.118.223 0 .096.043.164.045.067.143.128.098.062.376.177.382.155.516.312.135.157.135.395zM33.636 64.042q-.476 0-.752-.323-.275-.322-.275-.896 0-.578.255-.918.257-.34.688-.34.404 0 .639.297.235.294.235.778v.23h-1.48q.01.42.19.638.183.218.512.218.347 0 .686-.161v.322q-.173.083-.327.118-.153.037-.37.037zm-.088-2.174q-.259 0-.413.188-.153.187-.18.519h1.122q0-.343-.137-.524-.137-.183-.392-.183zM36.44 63.678h-.017q-.226.364-.675.364-.42 0-.656-.32-.233-.32-.233-.912 0-.59.235-.918.235-.327.654-.327.437 0 .67.353h.026l-.014-.172-.007-.168v-.972h.325v3.393h-.265zm-.65.061q.333 0 .482-.2.15-.203.15-.652v-.077q0-.508-.152-.724-.151-.218-.484-.218-.286 0-.44.249-.15.246-.15.698 0 .457.15.69.152.234.444.234zM38.807 63.999h-.325v-2.39h.325zm-.353-3.038q0-.124.055-.18.055-.06.138-.06.078 0 .135.06.057.058.057.18t-.057.183q-.057.06-.135.06-.083 0-.138-.06-.055-.06-.055-.183zM40.97 63.999v-1.546q0-.293-.12-.437-.119-.143-.373-.143-.337 0-.494.202-.157.203-.157.67v1.254h-.325v-2.39h.264l.053.327h.016q.1-.177.28-.273.18-.098.402-.098.388 0 .584.21.196.207.196.664V64zM42.656 63.743q.086 0 .166-.013.08-.015.128-.03v.277q-.053.028-.157.046-.102.02-.184.02-.624 0-.624-.731V61.89h-.307v-.174l.307-.15.138-.511h.188v.554h.623v.281h-.623v1.406q0 .216.092.332.092.115.253.115zM44.288 64.042q-.476 0-.753-.323-.274-.322-.274-.896 0-.578.255-.918.256-.34.688-.34.403 0 .638.297.235.294.235.778v.23h-1.479q.01.42.19.638.182.218.512.218.346 0 .685-.161v.322q-.172.083-.327.118-.153.037-.37.037zm-.088-2.174q-.259 0-.414.188-.153.187-.18.519h1.123q0-.343-.137-.524-.138-.183-.392-.183zM46.61 61.565q.143 0 .256.026l-.045.336q-.133-.033-.235-.033-.26 0-.446.236-.185.235-.185.586V64h-.325v-2.39h.268l.038.442h.015q.12-.233.288-.36.169-.126.37-.126zM47.088 62.967v-.331h.962v.331zM49.56 64.042q-.209 0-.383-.085-.173-.087-.29-.266h-.024q.024.21.024.397v.983h-.326V61.61h.265l.045.327h.016q.125-.196.292-.284.166-.087.382-.087.427 0 .658.325.233.325.233.911 0 .59-.237.916-.235.325-.654.325zm-.046-2.17q-.33 0-.476.203-.147.203-.151.646v.08q0 .504.15.722.151.216.485.216.278 0 .435-.25.158-.251.158-.692 0-.447-.158-.685-.157-.24-.443-.24zM52.343 63.999l-.064-.34h-.016q-.16.224-.322.305-.158.078-.397.078-.32 0-.502-.183-.18-.183-.18-.521 0-.724 1.04-.759l.365-.013v-.148q0-.282-.11-.415-.108-.135-.347-.135-.268 0-.607.183l-.1-.277q.159-.096.347-.15.19-.055.38-.055.384 0 .568.19.186.19.186.609v1.63zm-.735-.256q.304 0 .477-.185.174-.185.174-.519v-.216l-.325.016q-.388.015-.56.135-.171.117-.171.368 0 .197.106.299.107.102.3.102zM54.236 61.565q.143 0 .257.026l-.045.336q-.134-.033-.236-.033-.26 0-.446.236-.184.235-.184.586V64h-.326v-2.39h.269l.037.442h.016q.12-.233.288-.36.168-.126.37-.126zM55.802 64.042q-.477 0-.753-.323-.274-.322-.274-.896 0-.578.255-.918.256-.34.687-.34.404 0 .64.297.234.294.234.778v.23h-1.48q.01.42.191.638.182.218.511.218.347 0 .686-.161v.322q-.172.083-.327.118-.153.037-.37.037zm-.089-2.174q-.258 0-.413.188-.153.187-.18.519h1.122q0-.343-.137-.524-.137-.183-.392-.183zM58.613 63.999v-1.546q0-.293-.12-.437-.119-.143-.373-.143-.337 0-.494.202-.157.203-.157.67v1.254h-.325v-2.39h.264l.053.327h.016q.1-.177.28-.273.18-.098.402-.098.388 0 .584.21.196.207.196.664V64zM60.299 63.743q.086 0 .166-.013.08-.015.128-.03v.277q-.053.028-.157.046-.102.02-.184.02-.624 0-.624-.731V61.89h-.307v-.174l.307-.15.138-.511h.188v.554h.623v.281h-.623v1.406q0 .216.092.332.092.115.253.115zM64.803 63.999v-1.555q0-.286-.11-.428-.11-.143-.34-.143-.304 0-.449.194-.145.194-.145.597V64h-.325v-1.555q0-.286-.11-.428-.11-.143-.343-.143-.306 0-.449.205-.14.202-.14.667v1.254h-.326v-2.39h.265l.052.327h.016q.092-.175.259-.273.168-.098.376-.098.504 0 .658.406h.016q.096-.188.278-.297.183-.109.416-.109.364 0 .544.21.183.207.183.664V64zM67.118 63.999l-.065-.34h-.016q-.16.224-.321.305-.159.078-.398.078-.32 0-.502-.183-.18-.183-.18-.521 0-.724 1.04-.759l.365-.013v-.148q0-.282-.11-.415-.107-.135-.346-.135-.269 0-.608.183l-.1-.277q.159-.096.347-.15.19-.055.38-.055.384 0 .568.19.187.19.187.609v1.63zm-.735-.256q.303 0 .476-.185.174-.185.174-.519v-.216l-.325.016q-.388.015-.56.135-.17.117-.17.368 0 .197.105.299.108.102.3.102zM69.01 61.565q.143 0 .257.026l-.045.336q-.133-.033-.235-.033-.26 0-.447.236-.184.235-.184.586V64h-.325v-2.39h.268l.037.442h.016q.12-.233.288-.36.169-.126.37-.126zM71.426 61.609v.229l-.397.052q.054.076.098.2.043.123.043.278 0 .35-.216.56-.215.21-.592.21-.096 0-.18-.018-.208.122-.208.307 0 .098.073.146.072.046.249.046h.38q.349 0 .535.164.188.163.188.475 0 .397-.286.604-.286.21-.835.21-.421 0-.65-.175-.228-.174-.228-.493 0-.218.126-.377.125-.16.352-.216-.082-.041-.139-.129-.055-.087-.055-.202 0-.131.063-.23.063-.097.198-.189-.167-.076-.272-.26-.104-.183-.104-.418 0-.393.211-.604.212-.214.6-.214.169 0 .304.044zm-1.712 2.79q0 .195.147.295.147.1.421.1.41 0 .606-.137.197-.135.197-.368 0-.194-.107-.27-.108-.075-.406-.075h-.39q-.221 0-.345.118-.123.118-.123.338zm.176-2.025q0 .25.128.38.127.128.354.128.476 0 .476-.514 0-.54-.482-.54-.229 0-.352.138-.124.138-.124.408zM72.196 63.999h-.325v-2.39h.325zm-.352-3.038q0-.124.055-.18.054-.06.137-.06.078 0 .135.06.057.058.057.18t-.057.183q-.057.06-.135.06-.083 0-.137-.06-.055-.06-.055-.183zM74.36 63.999v-1.546q0-.293-.12-.437-.12-.143-.374-.143-.337 0-.494.202-.157.203-.157.67v1.254h-.325v-2.39h.265l.053.327h.015q.1-.177.28-.273.18-.098.402-.098.388 0 .584.21.196.207.196.664V64z"/></g><g style="line-height:1.25;-inkscape-font-specification:'Open Sans, Normal';font-variant-ligatures:normal;font-variant-caps:normal;font-variant-numeric:normal;font-feature-settings:normal;text-align:start" aria-label="20 px" font-weight="400" font-size="4.233" font-family="Open Sans" letter-spacing="0" word-spacing="0" fill="#131516" stroke-width=".265"><path style="-inkscape-font-specification:'Open Sans, Normal';font-variant-ligatures:normal;font-variant-caps:normal;font-variant-numeric:normal;font-feature-settings:normal;text-align:start" d="M6.34 72.2H4.354v-.296l.796-.8q.363-.368.48-.525.115-.157.173-.306.058-.15.058-.32 0-.243-.147-.383-.147-.143-.407-.143-.188 0-.358.062-.167.062-.374.226l-.182-.234q.418-.347.91-.347.425 0 .667.219.242.217.242.585 0 .287-.161.568-.161.281-.604.711l-.661.647v.017H6.34zM8.78 70.684q0 .783-.249 1.17-.246.387-.754.387-.488 0-.742-.395-.254-.397-.254-1.162 0-.79.246-1.172.245-.382.75-.382.492 0 .746.399.256.399.256 1.155zm-1.652 0q0 .66.155.961.155.3.494.3.343 0 .496-.304.155-.306.155-.957t-.155-.953q-.153-.304-.496-.304-.34 0-.494.3-.155.298-.155.957zM11.51 72.24q-.221 0-.405-.08-.182-.083-.306-.252h-.025q.025.198.025.376v.932h-.343v-3.282h.279l.047.31h.017q.132-.186.308-.269.176-.083.403-.083.45 0 .694.308.246.308.246.864 0 .558-.25.869-.248.308-.69.308zm-.05-2.056q-.347 0-.502.192-.155.192-.16.612v.076q0 .478.16.685.16.204.51.204.294 0 .46-.237.167-.238.167-.656 0-.423-.168-.649-.165-.227-.467-.227zM13.598 71.04l-.788-1.106h.39l.598.868.595-.868h.387l-.788 1.106.83 1.16h-.39l-.634-.919-.64.918h-.39z"/></g><g style="line-height:1.25;-inkscape-font-specification:'Open Sans, Normal';font-variant-ligatures:normal;font-variant-caps:normal;font-variant-numeric:normal;font-feature-settings:normal;text-align:start" aria-label="Top margin of Child 2" font-weight="400" font-size="4.233" font-family="Open Sans" letter-spacing="0" word-spacing="0" fill="#131516" stroke-width=".265"><path style="-inkscape-font-specification:'Open Sans, Normal';font-variant-ligatures:normal;font-variant-caps:normal;font-variant-numeric:normal;font-feature-settings:normal;text-align:start" d="M20.061 72.345h-.333v-2.859h-.907v-.329h2.147v.33h-.907zM23.202 71.148q0 .584-.264.913-.265.328-.731.328-.288 0-.512-.15-.223-.151-.345-.433-.121-.28-.121-.658 0-.585.262-.91.263-.327.73-.327.45 0 .715.334.266.334.266.903zm-1.636 0q0 .458.164.698.165.24.484.24.32 0 .484-.238.167-.24.167-.7 0-.456-.167-.691-.164-.238-.487-.238-.32 0-.482.233-.163.234-.163.696zM24.77 72.389q-.21 0-.384-.085-.173-.088-.29-.266h-.024q.024.209.024.396v.984h-.326v-3.463h.265l.045.327h.016q.125-.196.292-.283.166-.088.382-.088.427 0 .658.325.233.325.233.912 0 .589-.237.916-.235.325-.654.325zm-.047-2.17q-.33 0-.477.203-.147.203-.15.645v.08q0 .505.15.723.151.215.484.215.279 0 .435-.25.16-.251.16-.692 0-.447-.16-.684-.156-.24-.442-.24zM30.011 72.345V70.79q0-.285-.11-.427-.11-.144-.34-.144-.304 0-.45.194-.144.194-.144.597v1.335h-.325V70.79q0-.285-.11-.427-.11-.144-.343-.144-.306 0-.449.205-.14.203-.14.667v1.254h-.326v-2.39h.264l.053.327h.016q.092-.174.259-.272.168-.099.376-.099.503 0 .658.406h.016q.096-.187.278-.297.182-.109.415-.109.365 0 .545.21.182.207.182.665v1.559zM32.325 72.345l-.064-.34h-.016q-.16.224-.321.305-.16.079-.398.079-.32 0-.502-.184-.18-.183-.18-.52 0-.725 1.04-.76l.365-.013v-.148q0-.281-.11-.414-.108-.135-.347-.135-.268 0-.607.183l-.1-.277q.159-.096.347-.15.19-.055.38-.055.384 0 .568.19.186.19.186.608v1.631zm-.734-.255q.303 0 .476-.186.174-.185.174-.518v-.216l-.325.015q-.388.015-.56.135-.171.118-.171.369 0 .196.106.298.107.103.3.103zM34.218 69.911q.143 0 .257.027l-.045.335q-.133-.032-.235-.032-.261 0-.447.235-.184.236-.184.587v1.282h-.326v-2.39h.269l.037.443h.016q.12-.234.288-.36.168-.127.37-.127zM36.634 69.955v.229l-.398.052q.055.077.098.201.043.122.043.277 0 .351-.215.56-.216.21-.592.21-.096 0-.18-.018-.208.122-.208.308 0 .098.073.146.072.046.249.046h.38q.348 0 .535.163.188.164.188.475 0 .397-.286.604-.286.21-.835.21-.421 0-.65-.175-.228-.174-.228-.492 0-.219.125-.378.126-.159.353-.216-.082-.041-.139-.128-.055-.087-.055-.203 0-.13.063-.229.063-.098.198-.19-.167-.076-.273-.26-.103-.182-.103-.418 0-.392.211-.604.212-.214.6-.214.168 0 .304.044zm-1.712 2.791q0 .194.147.295.147.1.42.1.41 0 .606-.138.198-.135.198-.368 0-.194-.108-.27-.107-.075-.405-.075h-.39q-.222 0-.345.118-.123.118-.123.338zm.176-2.026q0 .251.127.38.128.129.355.129.476 0 .476-.515 0-.539-.482-.539-.23 0-.353.138-.123.137-.123.407zM37.404 72.345h-.325v-2.39h.325zm-.352-3.038q0-.124.054-.18.055-.06.138-.06.078 0 .135.06.057.058.057.18 0 .123-.057.184-.057.058-.135.058-.083 0-.138-.058-.054-.061-.054-.184zM39.567 72.345v-1.546q0-.292-.12-.436-.119-.144-.373-.144-.337 0-.494.203-.157.203-.157.67v1.253h-.325v-2.39h.264l.053.327h.016q.1-.176.28-.272.18-.099.402-.099.388 0 .584.21.196.207.196.665v1.559zM43.455 71.148q0 .584-.264.913-.265.328-.731.328-.288 0-.512-.15-.223-.151-.345-.433-.121-.28-.121-.658 0-.585.262-.91.263-.327.73-.327.45 0 .715.334.266.334.266.903zm-1.636 0q0 .458.164.698.165.24.484.24.32 0 .484-.238.167-.24.167-.7 0-.456-.167-.691-.164-.238-.487-.238-.32 0-.482.233-.163.234-.163.696zM44.991 70.236h-.546v2.109h-.326v-2.109h-.384v-.163l.384-.131v-.133q0-.881.692-.881.17 0 .4.076l-.085.29q-.188-.067-.32-.067-.185 0-.273.137-.088.135-.088.436v.155h.546zM47.705 69.443q-.472 0-.746.35-.273.35-.273.958 0 .626.263.968.264.34.752.34.3 0 .684-.12v.325q-.298.125-.735.125-.633 0-.978-.428-.342-.427-.342-1.214 0-.493.164-.864.167-.37.478-.571.314-.2.737-.2.45 0 .788.182l-.141.319q-.326-.17-.65-.17zM50.43 72.345v-1.546q0-.292-.119-.436-.12-.144-.374-.144-.339 0-.496.205-.155.205-.155.672v1.249h-.325v-3.393h.325v1.027q0 .185-.015.308h.02q.095-.173.272-.27.178-.101.405-.101.394 0 .59.21.198.206.198.66v1.559zM51.747 72.345h-.325v-2.39h.325zm-.352-3.038q0-.124.055-.18.055-.06.137-.06.078 0 .135.06.057.058.057.18 0 .123-.057.184-.057.058-.135.058-.082 0-.137-.058-.055-.061-.055-.184zM52.766 72.345h-.325v-3.393h.325zM54.922 72.024h-.018q-.225.365-.674.365-.421 0-.656-.321-.233-.32-.233-.911t.235-.918q.235-.328.654-.328.437 0 .67.354h.026l-.014-.173-.008-.167v-.973h.325v3.393h-.264zm-.65.061q.332 0 .481-.2.151-.203.151-.652v-.076q0-.509-.153-.724-.15-.218-.484-.218-.286 0-.439.248-.15.247-.15.698 0 .458.15.691.151.233.443.233zM58.698 72.345h-1.883v-.312l.754-.844q.345-.388.455-.554.11-.165.164-.322.055-.157.055-.338 0-.255-.139-.404-.14-.15-.386-.15-.178 0-.339.065-.159.066-.355.238l-.172-.246q.396-.367.862-.367.404 0 .633.231.23.23.23.617 0 .304-.154.6-.152.297-.572.75l-.627.683v.017h1.474z"/></g><path d="M0 21.696h87.842v.264H0zM0 37.835h87.842v.265H0zM0 37.835V21.96h.265v15.875zM87.577 37.835V21.96h.265v15.875zM0 0h87.842v.265H0zM0 16.14h87.842v.264H0zM0 16.14V.265h.265V16.14zM87.577 16.14V.265h.265V16.14z" fill="#686892"/><g fill="#a2000d"><path d="M42.745 15.743h2.38v.397h-2.38zM42.745 10.848h2.38v.397h-2.38z"/><path d="M44.134 10.848v5.292h-.397v-5.292z"/></g><g fill="#a2000d"><path d="M42.745 26.855h2.38v.397h-2.38zM42.745 21.96h2.38v.397h-2.38z"/><path d="M44.134 21.96v5.292h-.397V21.96z"/></g><g fill="#a2000d"><path d="M41.95 20.902h3.97v.794h-3.97zM41.95 16.404h3.97v.794h-3.97z"/><path d="M44.332 16.404v5.292h-.794v-5.292z"/></g><path d="M42.333 27.125L27.781 44.323" fill="#131516" stroke="#131516" stroke-width=".529" marker-end="url(#a)" transform="translate(-5.027 -1.725)"/><g fill="#a2000d"><path d="M16.14 58.076h2.38v.397h-2.38zM16.14 50.535h2.38v.397h-2.38z"/><path d="M17.529 50.535v7.938h-.397v-7.938z"/></g><g fill="#a2000d"><path d="M16.14 74.745h2.38v.397h-2.38zM16.14 67.204h2.38v.397h-2.38z"/><path d="M17.529 67.204v7.938h-.397v-7.938z"/></g><g fill="#a2000d"><path d="M15.346 66.014h3.969v.793h-3.97zM15.346 58.87h3.969v.794h-3.97z"/><path d="M17.727 58.87v7.937h-.794V58.87z"/></g></svg>