<svg xmlns="http://www.w3.org/2000/svg" viewBox="0 0 74.955 37.042" height="140" width="283.293"><defs><marker id="c" refX="0" refY="0" orient="auto" overflow="visible"><path d="M10.69 4.437L-1.328.017 10.69-4.401c-1.92 2.61-1.909 6.18 0 8.84z" fill="#374047" fill-rule="evenodd" stroke="#374047" stroke-width=".6875" stroke-linejoin="round"/></marker><marker orient="auto" refY="0" refX="0" id="d" overflow="visible"><path d="M-10.69-4.437L1.328-.017-10.69 4.401c1.92-2.61 1.909-6.18 0-8.84z" fill="#374047" fill-rule="evenodd" stroke="#374047" stroke-width=".6875" stroke-linejoin="round"/></marker><marker id="a" refX="0" refY="0" orient="auto" overflow="visible"><path d="M10.69 4.437L-1.328.017 10.69-4.401c-1.92 2.61-1.909 6.18 0 8.84z" fill="#374047" fill-rule="evenodd" stroke="#374047" stroke-width=".6875" stroke-linejoin="round"/></marker><marker orient="auto" refY="0" refX="0" id="b" overflow="visible"><path d="M-10.69-4.437L1.328-.017-10.69 4.401c1.92-2.61 1.909-6.18 0-8.84z" fill="#374047" fill-rule="evenodd" stroke="#374047" stroke-width=".6875" stroke-linejoin="round"/></marker></defs><path d="M0 0h58.208v26.458H0z" fill="#dfdff9"/><path d="M0 0h13.23v13.23H0z" fill="#705697"/><path d="M15.875 31.094H7.937" transform="matrix(.83333 0 0 .625 6.615 -6.256)" fill="#374047" stroke="#374047" stroke-width=".164"/><path d="M15.875 31.094H7.937" transform="matrix(.83333 0 0 .625 6.615 -19.382)" fill="#374047" stroke="#374047" stroke-width=".164"/><g style="line-height:1.25" aria-label="50 px" font-weight="400" font-size="3.704" font-family="Open Sans" letter-spacing="0" word-spacing="0" fill="#131516" stroke-width=".265"><path style="-inkscape-font-specification:'Open Sans'" d="M19.457 5.897q.418 0 .657.208.24.206.24.566 0 .41-.262.644-.26.233-.72.233-.447 0-.682-.143v-.289q.127.081.315.128.188.046.37.046.319 0 .494-.15.178-.15.178-.435 0-.553-.679-.553-.171 0-.459.052l-.155-.099.099-1.237h1.315v.277H19.11l-.067.794q.208-.042.414-.042zM22.503 6.186q0 .686-.217 1.024-.215.338-.66.338-.427 0-.65-.345-.222-.347-.222-1.017 0-.69.215-1.025.215-.335.657-.335.43 0 .653.35.224.348.224 1.01zm-1.445 0q0 .577.135.841.136.263.433.263.3 0 .434-.266.135-.268.135-.838t-.135-.833q-.134-.266-.434-.266-.297 0-.433.262-.135.26-.135.837zM24.892 7.548q-.193 0-.354-.07-.16-.073-.268-.22h-.022q.022.173.022.328v.816h-.3V5.53h.244l.042.271h.014q.116-.163.27-.235.153-.072.352-.072.394 0 .608.27.215.269.215.755 0 .488-.219.76-.217.27-.604.27zm-.043-1.8q-.304 0-.44.169-.135.168-.139.535v.067q0 .418.14.599.139.179.446.179.257 0 .402-.208.146-.208.146-.573 0-.371-.146-.568-.145-.2-.41-.2zM26.719 6.497l-.69-.967h.343l.522.76.521-.76h.338l-.689.967.726 1.015h-.34l-.556-.803-.56.803h-.34z"/></g><path d="M6.615 31.094v5.291" transform="matrix(2.06812 0 0 2.41188 3.526 -74.762)" fill="#374047" stroke="#374047" stroke-width=".033" marker-start="url(#a)" marker-end="url(#b)"/><path d="M15.875 31.094H7.937" transform="matrix(.83333 0 0 .625 51.594 6.974)" fill="#374047" stroke="#374047" stroke-width=".164"/><path d="M15.875 31.094H7.937" transform="matrix(.83333 0 0 .625 51.594 -19.382)" fill="#374047" stroke="#374047" stroke-width=".164"/><g style="line-height:1.25" aria-label="100 px" font-weight="400" font-size="3.704" font-family="Open Sans" letter-spacing="0" word-spacing="0" fill="#131516" stroke-width=".265"><path style="-inkscape-font-specification:'Open Sans'" d="M64.788 14.128h-.293v-1.885q0-.235.015-.445-.038.038-.085.08-.047.041-.43.352l-.16-.206.7-.54h.253zM67.548 12.802q0 .685-.217 1.023-.215.339-.66.339-.427 0-.65-.346-.222-.347-.222-1.016 0-.691.215-1.026.216-.334.657-.334.43 0 .653.349.224.349.224 1.01zm-1.445 0q0 .577.136.84.135.263.432.263.3 0 .434-.266.136-.268.136-.837 0-.57-.136-.834-.134-.266-.434-.266-.297 0-.432.262-.136.26-.136.838zM69.668 12.802q0 .685-.217 1.023-.215.339-.66.339-.427 0-.65-.346-.222-.347-.222-1.016 0-.691.215-1.026.215-.334.657-.334.43 0 .653.349.224.349.224 1.01zm-1.445 0q0 .577.135.84.136.263.433.263.3 0 .434-.266.136-.268.136-.837 0-.57-.136-.834-.134-.266-.434-.266-.297 0-.433.262-.135.26-.135.838zM72.057 14.164q-.193 0-.354-.07-.16-.073-.268-.222h-.022q.022.174.022.33v.815h-.3v-2.872h.244l.042.272h.014q.116-.163.27-.236.153-.072.352-.072.395 0 .608.27.215.269.215.756 0 .488-.219.76-.217.269-.604.269zm-.043-1.8q-.304 0-.44.168-.135.168-.139.536v.067q0 .417.14.598.139.18.446.18.257 0 .402-.209.146-.208.146-.573 0-.37-.146-.568-.145-.199-.41-.199zM73.884 13.113l-.69-.968h.343l.522.76.521-.76h.339l-.69.968.726 1.015h-.34l-.556-.804-.56.804h-.34z"/></g><path d="M6.615 31.094v5.291" transform="matrix(4.21131 0 0 4.91132 34.328 -152.476)" fill="#374047" stroke="#374047" stroke-width=".016" marker-start="url(#c)" marker-end="url(#d)"/><g style="line-height:1.25" aria-label="Collapsed margin" font-weight="400" font-size="4.233" font-family="Open Sans" letter-spacing="0" word-spacing="0" fill="#000" stroke-width=".265"><path style="-inkscape-font-specification:'Open Sans'" d="M15.204 30.097q-.498 0-.787.333-.287.331-.287.908 0 .594.277.919.279.323.793.323.316 0 .72-.114v.308q-.313.118-.774.118-.667 0-1.03-.405-.362-.406-.362-1.153 0-.467.174-.82.175-.35.504-.541.33-.19.776-.19.475 0 .83.173l-.149.302q-.342-.161-.685-.161zM18.481 31.715q0 .554-.279.867-.278.31-.77.31-.303 0-.539-.143-.235-.142-.363-.41-.128-.266-.128-.624 0-.555.276-.863.277-.31.769-.31.474 0 .753.316.281.317.281.857zm-1.724 0q0 .434.173.662.174.228.51.228.337 0 .51-.226.176-.228.176-.664 0-.433-.176-.656-.173-.226-.514-.226-.336 0-.508.222-.171.221-.171.66zM19.423 32.85h-.343v-3.219h.343zM20.497 32.85h-.343v-3.219h.343zM22.62 32.85l-.069-.322h-.016q-.17.213-.339.29-.167.074-.419.074-.337 0-.529-.174-.19-.173-.19-.494 0-.687 1.097-.72l.384-.013v-.14q0-.267-.116-.393-.113-.129-.365-.129-.283 0-.64.174l-.106-.263q.168-.09.366-.142.2-.052.4-.052.405 0 .6.18.196.18.196.577v1.548zm-.775-.241q.32 0 .502-.176.184-.176.184-.493v-.204l-.343.014q-.409.014-.59.128-.18.112-.18.35 0 .186.111.283.114.098.316.098zM24.635 32.892q-.22 0-.405-.08-.181-.083-.305-.253H23.9q.025.199.025.377v.933h-.343v-3.286h.279l.047.31h.017q.132-.186.307-.269.176-.082.403-.082.45 0 .694.308.246.308.246.865 0 .558-.25.869-.248.308-.69.308zm-.05-2.059q-.346 0-.501.193-.155.192-.16.612v.077q0 .478.16.685.159.205.51.205.293 0 .458-.238.167-.238.167-.656 0-.424-.167-.65-.165-.228-.466-.228zM27.636 32.232q0 .317-.236.488-.235.172-.66.172-.45 0-.703-.143v-.318q.163.082.35.13.187.048.36.048.27 0 .414-.085.144-.087.144-.263 0-.132-.115-.225-.114-.096-.446-.224-.316-.118-.45-.205-.133-.089-.199-.2-.064-.112-.064-.267 0-.278.225-.437.225-.161.618-.161.365 0 .714.149l-.122.279q-.34-.14-.617-.14-.244 0-.368.076t-.124.21q0 .092.046.156.047.064.15.122.104.058.397.168.403.147.543.296.143.149.143.374zM29.147 32.892q-.502 0-.793-.306-.289-.306-.289-.85 0-.549.269-.872.27-.322.724-.322.426 0 .674.281.248.28.248.739v.217h-1.56q.01.4.2.606.193.207.54.207.365 0 .722-.153v.306q-.181.079-.344.112-.161.035-.39.035zm-.093-2.063q-.272 0-.435.178-.161.178-.19.493h1.183q0-.325-.145-.497-.144-.174-.413-.174zM32.102 32.547h-.018q-.238.345-.71.345-.445 0-.692-.304-.246-.304-.246-.865 0-.56.248-.871.248-.31.69-.31.46 0 .706.335h.027l-.015-.164-.008-.159v-.923h.343v3.22h-.28zm-.685.058q.35 0 .508-.19.159-.193.159-.62v-.072q0-.482-.161-.687-.16-.207-.51-.207-.302 0-.463.236-.159.234-.159.662 0 .435.16.656.158.222.466.222zM37.14 32.85v-1.474q0-.272-.116-.406-.116-.137-.36-.137-.32 0-.473.185-.153.184-.153.566v1.267h-.342v-1.475q0-.272-.116-.406-.116-.137-.361-.137-.323 0-.473.195-.149.192-.149.633v1.19h-.343v-2.268h.279l.056.31h.016q.097-.165.273-.258.177-.093.396-.093.531 0 .694.385h.017q.101-.178.293-.282.192-.103.438-.103.384 0 .574.198.192.197.192.631v1.48zM39.578 32.85l-.068-.322h-.017q-.169.213-.338.29-.168.074-.42.074-.336 0-.528-.174-.19-.173-.19-.494 0-.687 1.096-.72l.384-.013v-.14q0-.267-.115-.393-.114-.129-.366-.129-.283 0-.64.174l-.105-.263q.167-.09.365-.142.2-.052.401-.052.405 0 .599.18.196.18.196.577v1.548zm-.774-.241q.32 0 .501-.176.184-.176.184-.493v-.204l-.343.014q-.408.014-.59.128-.18.112-.18.35 0 .186.112.283.113.098.316.098zM41.573 30.542q.15 0 .27.025l-.047.318q-.14-.03-.248-.03-.275 0-.47.223-.195.223-.195.556v1.217h-.343v-2.268h.283l.04.42h.016q.126-.221.304-.341.177-.12.39-.12zM44.12 30.583v.217l-.42.05q.058.072.103.19.046.116.046.263 0 .333-.228.532-.227.198-.623.198-.101 0-.19-.016-.22.116-.22.292 0 .093.077.138.077.044.263.044h.4q.368 0 .564.155.198.155.198.45 0 .378-.301.574-.302.199-.88.199-.444 0-.686-.166-.24-.165-.24-.467 0-.207.133-.358.132-.151.372-.205-.087-.04-.147-.122-.058-.083-.058-.193 0-.124.066-.217t.209-.18q-.176-.072-.287-.246-.11-.174-.11-.397 0-.373.223-.574.224-.202.632-.202.178 0 .32.041zm-1.806 2.648q0 .185.155.28.155.095.444.095.432 0 .638-.13.209-.129.209-.35 0-.184-.114-.257-.113-.07-.427-.07h-.411q-.234 0-.364.112-.13.111-.13.32zm.186-1.922q0 .238.134.36.135.122.374.122.502 0 .502-.488 0-.511-.508-.511-.242 0-.372.13t-.13.387zM44.93 32.85h-.342v-2.267h.343zm-.371-2.881q0-.118.058-.172.058-.056.144-.056.083 0 .143.056.06.056.06.172 0 .115-.06.173-.06.056-.143.056-.086 0-.144-.056-.058-.058-.058-.173zM47.21 32.85v-1.466q0-.277-.125-.414-.126-.137-.395-.137-.355 0-.52.193-.165.192-.165.635v1.19h-.343v-2.268h.279l.055.31h.017q.105-.167.295-.258.19-.093.423-.093.41 0 .616.198.206.197.206.631v1.48z"/></g><g fill="#a2000d"><path d="M10.062 36.237h3.958v.805h-3.958zM10.062 26.458h3.958v.784h-3.958z"/><path d="M12.432 26.458v10.584h-.783V26.458z"/></g><g style="line-height:1.25" aria-label="40 px" font-weight="400" font-size="3.704" font-family="Open Sans" letter-spacing="0" word-spacing="0" fill="#131516" stroke-width=".265"><path style="-inkscape-font-specification:'Open Sans'" d="M3.025 32.04h-.393v.608h-.287v-.608H1.059v-.262l1.255-1.789h.318v1.778h.393zm-.68-.273v-.879q0-.258.018-.584h-.015q-.086.174-.162.288l-.827 1.175zM5.034 31.322q0 .686-.217 1.024-.215.338-.66.338-.427 0-.65-.345-.222-.348-.222-1.017 0-.69.215-1.025.216-.335.657-.335.43 0 .653.35.224.348.224 1.01zm-1.445 0q0 .577.136.841.135.263.432.263.3 0 .434-.266.136-.268.136-.838t-.136-.834q-.134-.265-.434-.265-.297 0-.432.262-.136.26-.136.837zM7.424 32.684q-.194 0-.355-.07-.16-.073-.268-.221H6.78q.021.174.021.33v.815h-.3v-2.872h.244l.042.271H6.8q.116-.163.27-.235.154-.072.353-.072.394 0 .607.269.215.27.215.756 0 .488-.218.76-.217.27-.604.27zm-.044-1.8q-.304 0-.44.169-.135.168-.139.535v.067q0 .418.14.599.139.179.446.179.257 0 .402-.208.146-.208.146-.574 0-.37-.146-.567-.145-.2-.409-.2zM9.25 31.633l-.689-.967h.342l.523.76.52-.76h.339l-.69.967.726 1.015h-.34l-.555-.803-.561.803h-.34z"/></g></svg>