<svg xmlns="http://www.w3.org/2000/svg" viewBox="0 0 97.995 93.938" height="355.043" width="370.375"><path d="M0 11.918h43.656v82.02H0z" fill="#dfdff9"/><path d="M4.068 16.449h35.719v19.843H4.068z" fill="#705697"/><g style="line-height:1.25;-inkscape-font-specification:'Open Sans, Normal';font-variant-ligatures:normal;font-variant-caps:normal;font-variant-numeric:normal;font-feature-settings:normal;text-align:start" aria-label="Box 1" font-weight="400" font-size="4.233" font-family="Open Sans" letter-spacing="0" word-spacing="0" fill="#f0e9fa" stroke-width=".265"><path style="-inkscape-font-specification:'Open Sans, Normal';font-variant-ligatures:normal;font-variant-caps:normal;font-variant-numeric:normal;font-feature-settings:normal;text-align:start" d="M7.129 20.038h.853q.6 0 .87.18.268.18.268.57 0 .268-.151.444-.149.174-.436.226v.02q.688.118.688.724 0 .406-.275.634-.272.227-.764.227H7.13zm.35 1.295h.58q.37 0 .534-.115.163-.118.163-.396 0-.254-.182-.366-.181-.114-.578-.114H7.48zm0 .298v1.132h.63q.366 0 .55-.14.186-.143.186-.445 0-.282-.19-.414-.188-.133-.574-.133zM11.773 21.927q0 .555-.279.867-.278.31-.77.31-.303 0-.539-.142-.235-.143-.363-.41t-.128-.625q0-.554.276-.863.277-.31.769-.31.475 0 .753.317.281.316.281.856zm-1.724 0q0 .435.173.662.174.228.51.228.337 0 .51-.226.176-.227.176-.664 0-.432-.175-.656-.174-.225-.515-.225-.336 0-.508.221-.171.222-.171.66zM12.917 21.902l-.786-1.106h.39l.597.869.594-.87h.387l-.787 1.107.828 1.161h-.388l-.634-.918-.64.918h-.389zM16.798 23.063h-.335v-2.156q0-.269.017-.509-.044.044-.097.091-.054.048-.492.404l-.182-.236.8-.619h.289z"/></g><path d="M4.068 70.688h35.719v19.786H4.068z" fill="#705697"/><g style="line-height:1.25;-inkscape-font-specification:'Open Sans, Normal';font-variant-ligatures:normal;font-variant-caps:normal;font-variant-numeric:normal;font-feature-settings:normal;text-align:start" aria-label="Box 2" font-weight="400" font-size="4.233" font-family="Open Sans" letter-spacing="0" word-spacing="0" fill="#f9e9fa" stroke-width=".265"><path style="-inkscape-font-specification:'Open Sans, Normal';font-variant-ligatures:normal;font-variant-caps:normal;font-variant-numeric:normal;font-feature-settings:normal;text-align:start" d="M7.129 74.278h.853q.6 0 .87.18.268.18.268.569 0 .269-.151.445-.149.173-.436.225v.02q.688.119.688.725 0 .406-.275.633-.272.228-.764.228H7.13zm.35 1.295h.58q.37 0 .534-.116.163-.118.163-.395 0-.255-.182-.366-.181-.114-.578-.114H7.48zm0 .298v1.132h.63q.366 0 .55-.141.186-.143.186-.445 0-.281-.19-.414-.188-.132-.574-.132zM11.773 76.167q0 .554-.279.867-.278.31-.77.31-.303 0-.539-.143-.235-.142-.363-.41-.128-.266-.128-.624 0-.555.276-.863.277-.31.769-.31.475 0 .753.316.281.317.281.857zm-1.724 0q0 .434.173.662.174.228.51.228.337 0 .51-.226.176-.228.176-.664 0-.433-.175-.656-.174-.226-.515-.226-.336 0-.508.222-.171.221-.171.66zM12.917 76.142l-.786-1.107h.39l.597.87.594-.87h.387l-.787 1.107.828 1.16h-.388l-.634-.918-.64.919h-.389zM17.512 77.303h-1.984v-.296l.795-.8q.363-.37.479-.526.115-.158.173-.307.058-.149.058-.32 0-.242-.147-.383-.146-.143-.406-.143-.188 0-.358.062-.167.062-.373.226l-.182-.234q.417-.348.908-.348.426 0 .667.22.242.217.242.585 0 .288-.161.57-.161.28-.603.711l-.66.648v.016h1.552z"/></g><g style="line-height:1.25" aria-label="No margin collapse (hypothetical)" font-weight="400" font-size="4.233" font-family="Open Sans" letter-spacing="0" word-spacing="0" fill="#000" stroke-width=".265"><path style="-inkscape-font-specification:'Open Sans'" d="M2.604 3.22h-.4L.553.68H.536q.033.448.033.82v1.72H.246V.193h.396l1.646 2.529h.017q-.004-.056-.019-.358-.014-.304-.01-.435V.194h.328zM5.336 2.084q0 .554-.279.866-.278.31-.77.31-.303 0-.539-.142-.235-.143-.363-.41t-.128-.624q0-.555.276-.863.277-.31.769-.31.475 0 .753.316.281.316.281.857zm-1.724 0q0 .434.173.662.174.227.51.227.337 0 .51-.225.176-.228.176-.664 0-.433-.176-.656-.173-.226-.514-.226-.336 0-.508.221-.171.222-.171.66zM9.919 3.22V1.743q0-.27-.116-.405-.116-.137-.36-.137-.32 0-.472.184-.153.184-.153.567V3.22h-.343V1.744q0-.27-.116-.405-.115-.137-.36-.137-.323 0-.474.195-.149.192-.149.633v1.19h-.342V.951h.278l.056.31h.017q.097-.165.272-.259.178-.093.397-.093.53 0 .694.385h.016q.101-.178.293-.281Q9.25.91 9.495.91q.384 0 .574.199.192.197.192.631v1.48zM12.357 3.22l-.068-.323h-.016q-.17.213-.339.29-.167.074-.42.074-.336 0-.528-.174-.19-.174-.19-.495 0-.686 1.097-.72l.384-.012v-.14q0-.268-.116-.394-.113-.128-.365-.128-.283 0-.64.174l-.106-.263q.168-.091.366-.143.2-.051.4-.051.405 0 .6.18.195.18.195.577v1.547zm-.774-.243q.32 0 .502-.176.184-.175.184-.492v-.205l-.343.015q-.409.014-.59.128-.18.112-.18.35 0 .186.111.283.114.097.316.097zM14.352.91q.151 0 .27.025l-.047.319q-.14-.031-.247-.031-.275 0-.471.223-.194.224-.194.557v1.216h-.343V.952h.283l.039.42h.016q.126-.222.304-.342.178-.12.39-.12zM16.899.952v.217l-.42.05q.058.072.104.19.045.116.045.263 0 .333-.227.532-.227.198-.624.198-.101 0-.19-.016-.219.115-.219.291 0 .093.077.139.076.043.262.043h.4q.368 0 .564.156.199.155.199.45 0 .377-.302.574-.301.198-.88.198-.444 0-.685-.165-.24-.166-.24-.468 0-.207.132-.358.133-.15.372-.205-.087-.039-.146-.122-.058-.082-.058-.192 0-.124.066-.217t.208-.18q-.175-.073-.287-.246-.11-.174-.11-.398 0-.372.224-.573.223-.203.632-.203.177 0 .32.042zM15.094 3.6q0 .184.155.28.154.095.444.095.431 0 .638-.13.208-.129.208-.35 0-.185-.113-.257-.114-.07-.428-.07h-.41q-.234 0-.364.111-.13.112-.13.321zm.186-1.922q0 .238.134.36t.374.122q.501 0 .501-.488 0-.511-.508-.511-.241 0-.371.13t-.13.387zM17.71 3.22h-.343V.951h.343zM17.338.336q0-.118.058-.171.058-.056.145-.056.082 0 .142.056.06.055.06.171 0 .116-.06.174-.06.056-.142.056-.087 0-.145-.056-.058-.058-.058-.174zM19.99 3.22V1.751q0-.277-.126-.413-.126-.137-.394-.137-.356 0-.52.193-.166.192-.166.635v1.19h-.343V.951h.279l.056.31h.016q.106-.167.296-.259.19-.093.423-.093.409 0 .615.199.207.197.207.631v1.48zM23.038 3.26q-.491 0-.762-.301-.268-.304-.268-.859 0-.569.272-.88.275-.31.78-.31.164 0 .327.036.163.035.256.082l-.105.292q-.114-.045-.248-.074-.134-.031-.237-.031-.69 0-.69.88 0 .419.167.642.17.224.5.224.283 0 .58-.122v.304q-.227.118-.572.118zM26.103 2.084q0 .554-.28.866-.278.31-.77.31-.303 0-.538-.142-.236-.143-.364-.41t-.128-.624q0-.555.277-.863.277-.31.768-.31.475 0 .754.316.28.316.28.857zm-1.725 0q0 .434.174.662.173.227.51.227.336 0 .51-.225.175-.228.175-.664 0-.433-.175-.656-.174-.226-.514-.226-.337 0-.508.221-.172.222-.172.66zM27.044 3.22h-.342V0h.342zM28.118 3.22h-.343V0h.343zM30.241 3.22l-.068-.323h-.017q-.169.213-.338.29-.168.074-.42.074-.336 0-.528-.174-.19-.174-.19-.495 0-.686 1.096-.72l.385-.012v-.14q0-.268-.116-.394-.114-.128-.366-.128-.283 0-.64.174l-.105-.263q.167-.091.365-.143.2-.051.401-.051.405 0 .599.18.196.18.196.577v1.547zm-.774-.243q.32 0 .501-.176.184-.175.184-.492v-.205l-.343.015q-.408.014-.59.128-.18.112-.18.35 0 .186.112.283.113.097.316.097zM32.257 3.26q-.221 0-.405-.08-.182-.083-.306-.252h-.025q.025.198.025.376v.933h-.343V.952h.28l.047.31h.016q.132-.186.308-.269.175-.083.403-.083.45 0 .693.309.246.308.246.865 0 .558-.25.869-.247.308-.69.308zm-.05-2.058q-.347 0-.502.193-.155.192-.159.612v.077q0 .477.16.684.158.205.51.205.293 0 .458-.238.167-.238.167-.656 0-.424-.167-.65-.165-.227-.467-.227zM35.257 2.6q0 .317-.235.49-.236.17-.661.17-.45 0-.702-.142v-.319q.163.083.349.13.188.048.361.048.269 0 .413-.084.145-.087.145-.263 0-.133-.116-.226-.113-.095-.446-.223-.316-.118-.45-.205-.132-.089-.198-.2-.064-.112-.064-.268 0-.277.225-.436.225-.162.617-.162.366 0 .715.15l-.122.279q-.34-.141-.618-.141-.243 0-.367.077-.124.076-.124.21 0 .092.045.156.048.064.151.122.103.058.397.167.402.147.543.296.142.15.142.375zM36.769 3.26q-.502 0-.793-.305-.29-.307-.29-.85 0-.55.27-.872.27-.323.724-.323.425 0 .673.282.248.28.248.738v.218h-1.56q.011.399.201.606.192.207.54.207.365 0 .722-.153v.306q-.182.079-.345.112-.161.035-.39.035zm-.093-2.062q-.273 0-.436.178-.16.178-.19.492h1.183q0-.325-.144-.496-.145-.174-.413-.174zM0 7.467q0-.549.159-1.026.161-.478.463-.838h.334q-.297.399-.448.877-.149.478-.149.983 0 .496.153.97t.44.865h-.33q-.304-.352-.463-.822Q0 8.006 0 7.466zM2.999 8.628V7.16q0-.278-.126-.414-.126-.137-.395-.137-.357 0-.522.195-.164.194-.164.637v1.186H1.45v-3.22h.342v.975q0 .175-.016.291h.02q.102-.163.288-.256.188-.095.427-.095.415 0 .622.198.208.197.208.627v1.48zM3.684 6.36h.368l.495 1.293q.163.443.203.64h.016q.027-.106.112-.36.086-.257.561-1.573h.368l-.973 2.582q-.144.383-.338.542-.192.161-.473.161-.157 0-.31-.035v-.275q.114.025.254.025.353 0 .504-.397l.126-.323zM7.228 8.669q-.221 0-.405-.08-.182-.084-.306-.253h-.024q.024.198.024.376v.933h-.342V6.36h.278l.048.31h.016q.133-.186.308-.269.176-.083.403-.083.45 0 .694.309.245.308.245.865 0 .558-.25.869-.247.308-.69.308zm-.05-2.059q-.347 0-.502.193-.154.192-.159.612v.077q0 .478.16.684.158.205.51.205.293 0 .458-.238.167-.238.167-.656 0-.424-.167-.65-.165-.227-.467-.227zM10.722 7.492q0 .554-.279.867-.279.31-.77.31-.304 0-.54-.143-.235-.143-.363-.41-.128-.266-.128-.624 0-.555.277-.863.277-.31.768-.31.475 0 .754.316.28.317.28.857zm-1.724 0q0 .434.173.662.174.227.51.227.337 0 .51-.225.176-.228.176-.664 0-.433-.176-.656-.173-.226-.514-.226-.337 0-.508.222-.171.221-.171.66zM12.052 8.385q.09 0 .175-.012.085-.014.135-.029v.263q-.056.027-.166.043-.107.019-.194.019-.656 0-.656-.693v-1.35h-.325v-.165l.325-.143.144-.484h.198v.526h.657v.267h-.657V7.96q0 .205.097.315.097.11.267.11zM14.365 8.628V7.16q0-.278-.126-.414-.126-.137-.395-.137-.357 0-.522.195-.163.194-.163.637v1.186h-.343v-3.22h.343v.975q0 .175-.017.291h.02q.102-.163.288-.256.188-.095.427-.095.415 0 .622.198.209.197.209.627v1.48zM16.366 8.669q-.502 0-.793-.306-.29-.307-.29-.85 0-.549.27-.872.27-.323.724-.323.425 0 .673.282.248.28.248.738v.218h-1.56q.011.4.201.606.192.207.54.207.365 0 .722-.153v.306q-.182.079-.345.112-.161.035-.39.035zm-.093-2.063q-.273 0-.436.178-.161.178-.19.492h1.183q0-.324-.144-.496-.145-.174-.413-.174zM18.511 8.385q.091 0 .176-.012.085-.014.134-.029v.263q-.056.027-.165.043-.107.019-.194.019-.657 0-.657-.693v-1.35h-.324v-.165l.324-.143.145-.484h.198v.526h.657v.267h-.657V7.96q0 .205.097.315.097.11.266.11zM19.618 8.628h-.343V6.36h.343zm-.371-2.883q0-.118.057-.171.058-.056.145-.056.083 0 .142.056.06.055.06.171 0 .116-.06.174-.06.056-.142.056-.087 0-.145-.056-.057-.058-.057-.174zM21.254 8.669q-.492 0-.762-.302-.269-.304-.269-.859 0-.569.273-.88.275-.31.78-.31.164 0 .327.036.163.035.256.082l-.105.292q-.114-.045-.248-.074-.134-.031-.238-.031-.69 0-.69.881 0 .418.168.641.17.224.5.224.282 0 .58-.122v.304q-.227.118-.572.118zM23.757 8.628l-.068-.323h-.017q-.17.213-.339.29-.167.074-.419.074-.336 0-.528-.174-.19-.174-.19-.494 0-.687 1.096-.72l.384-.013v-.14q0-.267-.115-.394-.114-.128-.366-.128-.283 0-.64.174l-.105-.263q.167-.091.365-.143.2-.051.4-.051.405 0 .6.18.196.18.196.577v1.547zm-.775-.243q.32 0 .502-.175.184-.176.184-.493v-.205l-.343.015q-.409.014-.59.128-.18.112-.18.35 0 .186.111.283.114.097.316.097zM25.062 8.628h-.343v-3.22h.343zM26.512 7.467q0 .544-.162 1.014-.159.47-.46.817h-.33q.287-.39.44-.863.152-.476.152-.972 0-.505-.15-.983t-.447-.877h.335q.304.362.463.842.159.478.159 1.022z"/></g><g style="line-height:1.25" aria-label="Margin collapse" font-weight="400" font-size="4.233" font-family="Open Sans" letter-spacing="0" word-spacing="0" fill="#000" stroke-width=".265"><path style="-inkscape-font-specification:'Open Sans'" d="M55.675 3.22L54.65.537h-.017q.029.319.029.757V3.22h-.324V.194h.528l.957 2.496h.016l.965-2.496h.524V3.22h-.351V1.27q0-.335.029-.728h-.017L55.958 3.22zM59.495 3.22l-.068-.323h-.016q-.17.213-.339.29-.167.074-.42.074-.336 0-.528-.174-.19-.174-.19-.495 0-.686 1.097-.72l.384-.012v-.14q0-.268-.116-.394-.113-.128-.365-.128-.283 0-.64.174l-.106-.263q.167-.091.366-.143.2-.051.4-.051.405 0 .6.18.195.18.195.577v1.547zm-.774-.243q.32 0 .502-.176.184-.175.184-.492v-.205l-.343.015q-.41.014-.59.128-.18.112-.18.35 0 .186.11.283.115.097.317.097zM61.49.91q.15 0 .27.025l-.047.319q-.14-.031-.248-.031-.274 0-.47.223-.195.224-.195.557v1.216h-.342V.952h.283l.039.42h.016q.126-.222.304-.342.177-.12.39-.12zM64.036.952v.217l-.419.05q.058.072.103.19.046.116.046.263 0 .333-.227.532-.227.198-.624.198-.101 0-.19-.016-.219.115-.219.291 0 .093.077.139.076.043.262.043h.4q.368 0 .564.156.199.155.199.45 0 .377-.302.574-.301.198-.88.198-.444 0-.685-.165-.24-.166-.24-.468 0-.207.132-.358.132-.15.372-.205-.087-.039-.147-.122-.057-.082-.057-.192 0-.124.066-.217t.208-.18q-.175-.073-.287-.246-.11-.174-.11-.398 0-.372.224-.573.223-.203.632-.203.177 0 .32.042zM62.232 3.6q0 .184.154.28.155.095.444.095.432 0 .639-.13.208-.129.208-.35 0-.185-.113-.257-.114-.07-.428-.07h-.41q-.234 0-.364.111-.13.112-.13.321zm.185-1.922q0 .238.135.36.134.122.373.122.502 0 .502-.488 0-.511-.508-.511-.241 0-.371.13t-.13.387zM64.848 3.22h-.343V.951h.343zM64.476.336q0-.118.058-.171.058-.056.145-.056.082 0 .142.056.06.055.06.171 0 .116-.06.174-.06.056-.142.056-.087 0-.145-.056-.058-.058-.058-.174zM67.128 3.22V1.751q0-.277-.126-.413-.126-.137-.395-.137-.355 0-.52.193-.165.192-.165.635v1.19h-.343V.951h.279l.056.31h.016q.105-.167.295-.259.19-.093.424-.093.409 0 .615.199.207.197.207.631v1.48zM70.176 3.26q-.492 0-.762-.301-.269-.304-.269-.859 0-.569.273-.88.275-.31.78-.31.164 0 .327.036.163.035.256.082l-.105.292q-.114-.045-.248-.074-.134-.031-.238-.031-.69 0-.69.88 0 .419.168.642.17.224.5.224.283 0 .58-.122v.304q-.227.118-.572.118zM73.24 2.084q0 .554-.278.866-.28.31-.77.31-.304 0-.54-.142-.235-.143-.363-.41t-.128-.624q0-.555.277-.863.276-.31.768-.31.475 0 .754.316.28.316.28.857zm-1.724 0q0 .434.174.662.173.227.51.227.336 0 .51-.225.175-.228.175-.664 0-.433-.175-.656-.174-.226-.514-.226-.337 0-.508.221-.172.222-.172.66zM74.182 3.22h-.343V0h.343zM75.256 3.22h-.343V0h.343zM77.379 3.22l-.068-.323h-.017q-.17.213-.338.29-.168.074-.42.074-.336 0-.528-.174-.19-.174-.19-.495 0-.686 1.096-.72l.384-.012v-.14q0-.268-.115-.394-.114-.128-.366-.128-.283 0-.64.174l-.105-.263q.167-.091.365-.143.2-.051.4-.051.406 0 .6.18.196.18.196.577v1.547zm-.774-.243q.32 0 .501-.176.184-.175.184-.492v-.205l-.343.015q-.409.014-.59.128-.18.112-.18.35 0 .186.112.283.113.097.316.097zM79.394 3.26q-.22 0-.404-.08-.182-.083-.306-.252h-.025q.025.198.025.376v.933h-.343V.952h.279l.048.31h.016q.132-.186.308-.269.175-.083.402-.083.45 0 .694.309.246.308.246.865 0 .558-.25.869-.248.308-.69.308zm-.05-2.058q-.346 0-.5.193-.156.192-.16.612v.077q0 .477.16.684.158.205.51.205.292 0 .458-.238.167-.238.167-.656 0-.424-.167-.65-.166-.227-.467-.227zM82.395 2.6q0 .317-.235.49-.236.17-.661.17-.45 0-.702-.142v-.319q.163.083.349.13.188.048.361.048.268 0 .413-.084.145-.087.145-.263 0-.133-.116-.226-.114-.095-.446-.223-.316-.118-.45-.205-.132-.089-.199-.2-.064-.112-.064-.268 0-.277.226-.436.225-.162.617-.162.366 0 .715.15l-.122.279q-.341-.141-.618-.141-.243 0-.367.077-.124.076-.124.21 0 .092.045.156.048.064.15.122.104.058.397.167.403.147.544.296.142.15.142.375zM83.907 3.26q-.502 0-.793-.305-.29-.307-.29-.85 0-.55.269-.872.27-.323.725-.323.425 0 .673.282.248.28.248.738v.218h-1.56q.011.399.201.606.192.207.54.207.365 0 .722-.153v.306q-.182.079-.345.112-.161.035-.39.035zm-.093-2.062q-.273 0-.436.178-.161.178-.19.492h1.183q0-.325-.144-.496-.145-.174-.413-.174z"/></g><path d="M54.339 12.48h43.656v64.823H54.339z" fill="#dfdff9"/><path d="M58.308 16.449h35.718v19.843H58.308z" fill="#705697"/><g style="line-height:1.25;-inkscape-font-specification:'Open Sans, Normal';font-variant-ligatures:normal;font-variant-caps:normal;font-variant-numeric:normal;font-feature-settings:normal;text-align:start" aria-label="Box 1" font-weight="400" font-size="4.233" font-family="Open Sans" letter-spacing="0" word-spacing="0" fill="#f0e9fa" stroke-width=".265"><path style="-inkscape-font-specification:'Open Sans, Normal';font-variant-ligatures:normal;font-variant-caps:normal;font-variant-numeric:normal;font-feature-settings:normal;text-align:start" d="M61.368 20.038h.853q.601 0 .87.18.268.18.268.57 0 .268-.15.444-.15.174-.436.226v.02q.687.118.687.724 0 .406-.274.634-.273.227-.764.227h-1.054zm.352 1.295h.578q.371 0 .535-.115.163-.118.163-.396 0-.254-.182-.366-.182-.114-.578-.114h-.516zm0 .298v1.132h.63q.365 0 .549-.14.186-.143.186-.445 0-.282-.19-.414-.188-.133-.575-.133zM66.013 21.927q0 .555-.279.867-.279.31-.77.31-.304 0-.54-.142-.235-.143-.363-.41t-.128-.625q0-.554.277-.863.277-.31.768-.31.475 0 .754.317.28.316.28.856zm-1.725 0q0 .435.174.662.173.228.51.228t.51-.226q.176-.227.176-.664 0-.432-.176-.656-.173-.225-.514-.225-.337 0-.508.221-.172.222-.172.66zM67.157 21.902l-.787-1.106h.39l.597.869.595-.87h.386l-.787 1.107.828 1.161h-.388l-.634-.918-.64.918h-.388zM71.037 23.063h-.334v-2.156q0-.269.016-.509-.043.044-.097.091-.054.048-.491.404l-.182-.236.8-.619h.288z"/></g><path d="M58.308 53.49h35.718v19.786H58.308z" fill="#705697"/><g style="line-height:1.25;-inkscape-font-specification:'Open Sans, Normal';font-variant-ligatures:normal;font-variant-caps:normal;font-variant-numeric:normal;font-feature-settings:normal;text-align:start" aria-label="Box 2" font-weight="400" font-size="4.233" font-family="Open Sans" letter-spacing="0" word-spacing="0" fill="#f9e9fa" stroke-width=".265"><path style="-inkscape-font-specification:'Open Sans, Normal';font-variant-ligatures:normal;font-variant-caps:normal;font-variant-numeric:normal;font-feature-settings:normal;text-align:start" d="M61.368 57.08h.853q.601 0 .87.18.268.18.268.569 0 .269-.15.445-.15.174-.436.225v.021q.687.118.687.724 0 .406-.274.633-.273.228-.764.228h-1.054zm.352 1.295h.578q.371 0 .535-.116.163-.118.163-.395 0-.254-.182-.366-.182-.114-.578-.114h-.516zm0 .298v1.132h.63q.365 0 .549-.14.186-.144.186-.446 0-.281-.19-.414-.188-.132-.575-.132zM66.013 58.969q0 .554-.279.867-.279.31-.77.31-.304 0-.54-.143-.235-.142-.363-.41-.128-.266-.128-.624 0-.555.277-.863.277-.31.768-.31.475 0 .754.316.28.317.28.857zm-1.725 0q0 .434.174.662.173.228.51.228t.51-.226q.176-.227.176-.664 0-.432-.176-.656-.173-.225-.514-.225-.337 0-.508.22-.172.222-.172.66zM67.157 58.944l-.787-1.107h.39l.597.87.595-.87h.386l-.787 1.107.828 1.16h-.388l-.634-.918-.64.919h-.388zM71.752 60.105h-1.985v-.296l.795-.8q.364-.369.48-.526.115-.158.173-.307.058-.148.058-.32 0-.242-.147-.383-.147-.143-.407-.143-.188 0-.357.062-.167.062-.374.226l-.182-.234q.418-.348.909-.348.425 0 .667.22.242.217.242.585 0 .288-.161.57-.161.28-.603.711l-.661.648v.016h1.553z"/></g><g style="line-height:1.25;-inkscape-font-specification:'Open Sans, Normal';font-variant-ligatures:normal;font-variant-caps:normal;font-variant-numeric:normal;font-feature-settings:normal;text-align:start" aria-label="Box 1 bottom margin" font-weight="400" font-size="4.233" font-family="Open Sans" letter-spacing="0" word-spacing="0" fill="#000" stroke-width=".265"><path style="-inkscape-font-specification:'Open Sans, Normal';font-variant-ligatures:normal;font-variant-caps:normal;font-variant-numeric:normal;font-feature-settings:normal;text-align:start" d="M11.947 40.45h.853q.6 0 .87.18.268.18.268.568 0 .27-.151.445-.149.174-.436.226v.02q.688.118.688.724 0 .406-.275.634-.272.227-.764.227h-1.053zm.351 1.294h.578q.372 0 .535-.115.163-.118.163-.396 0-.254-.181-.366-.182-.114-.579-.114h-.516zm0 .298v1.132h.63q.365 0 .55-.14.185-.143.185-.445 0-.282-.19-.414-.188-.133-.574-.133zM16.591 42.338q0 .555-.278.867-.28.31-.77.31-.304 0-.54-.142-.235-.143-.363-.41t-.128-.625q0-.554.277-.863.276-.31.768-.31.475 0 .753.317.281.316.281.856zm-1.724 0q0 .435.173.662.174.228.51.228.337 0 .51-.226.176-.227.176-.664 0-.432-.175-.656-.174-.225-.515-.225-.336 0-.508.221-.171.222-.171.66zM17.735 42.313l-.786-1.107h.39l.597.87.594-.87h.387l-.787 1.107.828 1.161h-.388l-.634-.919-.64.92h-.389zM21.616 43.474h-.335v-2.156q0-.269.017-.509-.044.044-.097.091-.054.048-.492.404l-.182-.236.8-.619h.289zM12.949 46.466q.446 0 .691.306.248.304.248.863 0 .559-.25.869-.248.308-.69.308-.22 0-.404-.08-.182-.083-.306-.253h-.025l-.072.292h-.246v-3.22h.343v.783q0 .262-.016.471h.016q.24-.339.71-.339zm-.05.288q-.351 0-.506.202-.155.201-.155.679 0 .478.16.685.158.205.51.205.315 0 .47-.23.155-.232.155-.664 0-.443-.155-.66-.155-.217-.479-.217zM16.443 47.635q0 .554-.28.867-.278.31-.77.31-.303 0-.538-.143-.236-.142-.364-.41-.128-.266-.128-.624 0-.555.277-.863.277-.31.768-.31.475 0 .754.316.28.317.28.857zm-1.725 0q0 .434.174.662.173.228.51.228.336 0 .51-.226.175-.227.175-.664 0-.432-.175-.656-.174-.225-.514-.225-.337 0-.508.221-.172.221-.172.66zM17.773 48.529q.09 0 .175-.013.085-.014.134-.029v.263q-.055.027-.165.044-.107.018-.194.018-.657 0-.657-.693V46.77h-.324v-.165l.324-.143.145-.484h.198v.525h.657v.267h-.657v1.335q0 .204.097.314.097.11.267.11zM19.268 48.529q.09 0 .175-.013.085-.014.134-.029v.263q-.055.027-.165.044-.107.018-.194.018-.657 0-.657-.693V46.77h-.324v-.165l.324-.143.145-.484h.198v.525h.657v.267h-.657v1.335q0 .204.097.314.097.11.267.11zM21.985 47.635q0 .554-.278.867-.28.31-.77.31-.304 0-.54-.143-.235-.142-.363-.41-.128-.266-.128-.624 0-.555.277-.863.276-.31.768-.31.475 0 .753.316.281.317.281.857zm-1.724 0q0 .434.173.662.174.228.51.228.337 0 .51-.226.176-.227.176-.664 0-.432-.175-.656-.174-.225-.515-.225-.336 0-.508.221-.171.221-.171.66zM25.47 48.77v-1.474q0-.271-.117-.406-.115-.136-.359-.136-.32 0-.473.184-.153.184-.153.567v1.266h-.342v-1.475q0-.271-.116-.406-.116-.136-.361-.136-.323 0-.473.194-.149.192-.149.633v1.19h-.343v-2.268h.279l.056.31h.016q.097-.165.273-.258.177-.093.396-.093.531 0 .694.385h.017q.101-.178.293-.282.192-.103.438-.103.384 0 .574.198.192.197.192.632v1.479zM30.5 48.77v-1.474q0-.271-.116-.406-.116-.136-.36-.136-.32 0-.472.184-.153.184-.153.567v1.266h-.343v-1.475q0-.271-.115-.406-.116-.136-.362-.136-.322 0-.473.194-.148.192-.148.633v1.19h-.343v-2.268h.279l.055.31h.017q.097-.165.272-.258.178-.093.397-.093.53 0 .694.385h.016q.101-.178.294-.282.192-.103.437-.103.384 0 .574.198.192.197.192.632v1.479zM32.939 48.77l-.069-.322h-.016q-.17.213-.339.29-.167.074-.419.074-.337 0-.529-.174-.19-.173-.19-.494 0-.687 1.097-.72l.384-.012v-.141q0-.267-.116-.393-.113-.129-.365-.129-.283 0-.64.174l-.106-.263q.168-.09.366-.142.2-.052.4-.052.405 0 .6.18.196.18.196.577v1.548zm-.775-.241q.32 0 .502-.176.184-.176.184-.493v-.204l-.343.014q-.409.015-.59.128-.18.112-.18.35 0 .186.111.284.114.097.316.097zM34.933 46.462q.151 0 .27.025l-.047.318q-.14-.03-.247-.03-.275 0-.471.223-.194.223-.194.556v1.217H33.9v-2.268h.283l.039.42h.017q.126-.221.303-.341.178-.12.39-.12zM37.48 46.503v.217l-.42.05q.058.073.104.19.045.116.045.263 0 .333-.227.532t-.624.199q-.1 0-.19-.017-.219.116-.219.292 0 .093.077.138.076.044.262.044h.4q.368 0 .565.155.198.155.198.451 0 .377-.302.573-.301.199-.88.199-.443 0-.685-.166-.24-.165-.24-.467 0-.207.133-.358.132-.151.371-.205-.086-.04-.146-.122-.058-.083-.058-.193 0-.124.066-.217t.208-.18q-.175-.072-.287-.246-.109-.174-.109-.397 0-.373.223-.573.223-.203.632-.203.178 0 .32.041zm-1.805 2.649q0 .184.155.279.155.095.444.095.431 0 .638-.13.208-.129.208-.35 0-.184-.113-.257-.114-.07-.428-.07h-.41q-.234 0-.364.112-.13.112-.13.32zm.186-1.923q0 .238.134.36.134.123.374.123.501 0 .501-.489 0-.51-.508-.51-.241 0-.371.13t-.13.386zM38.291 48.77h-.343v-2.267h.343zm-.371-2.881q0-.118.057-.172.058-.056.145-.056.083 0 .142.056.06.056.06.172 0 .116-.06.174-.06.055-.142.055-.087 0-.145-.055-.057-.058-.057-.174zM40.571 48.77v-1.466q0-.277-.126-.414-.126-.136-.394-.136-.355 0-.52.192-.166.192-.166.635v1.19h-.343v-2.268h.28l.055.31h.016q.106-.167.296-.258.19-.093.423-.093.409 0 .615.198.207.197.207.632v1.479z"/></g><g fill="#a2000d"><path d="M7.838 53.093h2.382v.397H7.838zM7.838 36.292h2.382v.397H7.838z"/><path d="M9.227 36.292V53.49h-.396V36.292z"/></g><g><g fill="#a2000d"><path d="M7.838 70.291h2.382v.397H7.838zM7.838 53.49h2.382v.397H7.838z"/><path d="M9.227 53.49v17.198h-.396V53.49z"/></g><g style="line-height:1.25;text-align:end" aria-label="Box 2 top margin" font-weight="400" font-size="4.233" font-family="Open Sans" letter-spacing="0" word-spacing="0" text-anchor="start" fill="#000" stroke-width=".265"><path style="-inkscape-font-specification:'Open Sans, Normal';font-variant-ligatures:normal;font-variant-caps:normal;font-variant-numeric:normal;font-feature-settings:normal;text-align:start" d="M11.947 57.665h.853q.6 0 .87.18.268.18.268.57 0 .268-.151.444-.149.174-.436.226v.02q.688.118.688.724 0 .406-.275.634-.272.227-.764.227h-1.053zm.351 1.295h.578q.372 0 .535-.115.163-.118.163-.396 0-.254-.181-.366-.182-.114-.579-.114h-.516zm0 .298v1.132h.63q.365 0 .55-.14.185-.143.185-.445 0-.282-.19-.414-.188-.133-.574-.133zM16.591 59.554q0 .555-.278.867-.28.31-.77.31-.304 0-.54-.142-.235-.143-.363-.41t-.128-.625q0-.554.277-.863.276-.31.768-.31.475 0 .753.317.281.316.281.856zm-1.724 0q0 .435.173.662.174.228.51.228.337 0 .51-.226.176-.227.176-.664 0-.432-.175-.656-.174-.225-.515-.225-.336 0-.508.221-.171.222-.171.66zM17.735 59.53l-.786-1.107h.39l.597.869.594-.87h.387l-.787 1.107.828 1.161h-.388l-.634-.918-.64.918h-.389zM22.33 60.69h-1.984v-.296l.795-.8q.363-.369.479-.526.115-.157.173-.306.058-.15.058-.32 0-.243-.147-.384-.146-.142-.406-.142-.188 0-.358.062-.167.062-.373.225l-.182-.234q.417-.347.909-.347.425 0 .667.22.241.216.241.585 0 .287-.16.569-.162.281-.604.711l-.66.648v.017h1.552zM12.626 65.856q.091 0 .176-.012.085-.015.134-.03v.264q-.056.026-.165.043-.107.019-.194.019-.657 0-.657-.693v-1.35h-.324v-.165l.324-.143.145-.484h.198v.526h.657v.266h-.657v1.335q0 .205.097.315.097.11.266.11zM15.344 64.962q0 .555-.279.867-.279.31-.77.31-.304 0-.539-.142-.235-.143-.363-.41-.129-.267-.129-.625 0-.554.277-.862.277-.31.768-.31.475 0 .754.316.281.316.281.856zm-1.724 0q0 .435.173.662.174.228.51.228.337 0 .51-.225.176-.228.176-.665 0-.432-.176-.656-.173-.225-.514-.225-.337 0-.508.221-.171.222-.171.66zM16.996 66.14q-.22 0-.405-.081-.181-.083-.305-.252h-.025q.025.198.025.376v.933h-.343v-3.285h.279l.047.31h.017q.132-.186.307-.269.176-.083.403-.083.45 0 .694.309.246.308.246.864 0 .559-.25.87-.248.308-.69.308zm-.05-2.06q-.346 0-.501.193-.155.193-.16.613v.076q0 .478.16.685.159.205.51.205.293 0 .458-.238.168-.238.168-.656 0-.424-.168-.65-.165-.227-.466-.227zM22.52 66.098v-1.475q0-.271-.115-.405-.116-.137-.36-.137-.32 0-.473.184-.152.184-.152.567v1.266h-.343v-1.475q0-.271-.116-.405-.116-.137-.361-.137-.322 0-.473.194-.149.193-.149.634v1.19h-.343V63.83h.28l.055.31h.016q.097-.166.273-.259.178-.093.396-.093.531 0 .694.385h.017q.101-.178.293-.281.192-.104.438-.104.384 0 .574.199.192.196.192.63v1.48zM24.96 66.098l-.07-.323h-.016q-.169.214-.338.29-.168.075-.42.075-.336 0-.528-.174-.19-.174-.19-.495 0-.687 1.096-.72l.385-.012v-.14q0-.268-.116-.394-.114-.128-.366-.128-.283 0-.64.174l-.105-.263q.167-.091.365-.143.2-.052.401-.052.405 0 .599.18.196.18.196.578v1.547zm-.775-.242q.32 0 .501-.176.184-.176.184-.492v-.205l-.343.015q-.408.014-.59.128-.18.112-.18.35 0 .186.112.283.113.097.316.097zM26.954 63.79q.15 0 .27.024l-.047.319q-.14-.031-.248-.031-.274 0-.47.223-.195.224-.195.557v1.216h-.343v-2.267h.283l.04.42h.016q.126-.222.304-.342.177-.12.39-.12zM29.5 63.83v.218l-.419.05q.058.072.103.19.046.116.046.263 0 .333-.227.531-.228.199-.624.199-.101 0-.19-.017-.219.116-.219.292 0 .093.076.139.077.043.263.043h.4q.368 0 .564.155.198.156.198.451 0 .377-.301.574-.302.198-.88.198-.444 0-.686-.165-.24-.166-.24-.468 0-.207.133-.358.132-.15.372-.205-.087-.039-.147-.122-.058-.083-.058-.192 0-.124.066-.217.066-.094.209-.18-.176-.073-.287-.247-.11-.173-.11-.397 0-.372.224-.573.223-.203.631-.203.178 0 .32.042zm-1.805 2.649q0 .184.155.28.155.094.444.094.432 0 .638-.13.209-.128.209-.35 0-.184-.114-.256-.113-.07-.427-.07h-.411q-.233 0-.364.111-.13.112-.13.321zm.186-1.922q0 .238.134.36.135.122.374.122.502 0 .502-.488 0-.511-.508-.511-.242 0-.372.13t-.13.387zM30.312 66.098h-.343v-2.267h.343zm-.372-2.882q0-.118.058-.172.058-.056.144-.056.083 0 .143.056.06.056.06.172 0 .116-.06.174-.06.056-.143.056-.086 0-.144-.056-.058-.058-.058-.174zM32.592 66.098v-1.467q0-.277-.126-.413-.126-.137-.395-.137-.355 0-.52.192-.165.193-.165.636v1.19h-.343V63.83h.279l.055.31h.017q.105-.168.295-.259.19-.093.424-.093.408 0 .615.199.206.196.206.63v1.48z"/></g></g><g><g fill="#a2000d"><path d="M65.766 52.696h3.969v.794h-3.97zM65.766 36.292h3.969v.794h-3.97z"/><path d="M68.147 36.292V53.49h-.794V36.292z"/></g><g style="line-height:1.25;-inkscape-font-specification:'Open Sans, Normal';font-variant-ligatures:normal;font-variant-caps:normal;font-variant-numeric:normal;font-feature-settings:normal;text-align:start" aria-label="Collapsed margin" font-weight="400" font-size="4.233" font-family="Open Sans" letter-spacing="0" word-spacing="0" fill="#000" stroke-width=".265"><path style="-inkscape-font-specification:'Open Sans, Normal';font-variant-ligatures:normal;font-variant-caps:normal;font-variant-numeric:normal;font-feature-settings:normal;text-align:start" d="M72.5 40.153q-.497 0-.786.333-.287.331-.287.908 0 .594.277.92.278.322.793.322.316 0 .72-.114v.308q-.314.118-.774.118-.667 0-1.03-.405-.362-.406-.362-1.153 0-.467.174-.819.175-.352.503-.542.33-.19.777-.19.475 0 .83.173l-.149.302q-.342-.161-.685-.161zM75.778 41.771q0 .555-.279.867-.279.31-.77.31-.304 0-.539-.142-.235-.143-.363-.41-.129-.267-.129-.625 0-.554.277-.863.277-.31.768-.31.475 0 .754.316.281.317.281.857zm-1.724 0q0 .435.173.662.174.228.51.228.337 0 .51-.226.176-.227.176-.664 0-.432-.176-.656-.173-.225-.514-.225-.337 0-.508.221-.171.221-.171.66zM76.72 42.907h-.343v-3.22h.343zM77.794 42.907h-.343v-3.22h.343zM79.916 42.907l-.068-.323h-.016q-.17.213-.339.29-.167.074-.42.074-.336 0-.528-.174-.19-.173-.19-.494 0-.687 1.097-.72l.384-.012v-.141q0-.267-.116-.393-.113-.129-.365-.129-.283 0-.64.174l-.106-.263q.168-.09.366-.142.2-.052.4-.052.405 0 .6.18.195.18.195.577v1.548zm-.774-.242q.32 0 .502-.176.184-.176.184-.492v-.205l-.343.014q-.409.015-.59.128-.18.112-.18.35 0 .186.111.284.114.097.316.097zM81.932 42.948q-.221 0-.405-.08-.182-.083-.305-.253h-.025q.025.199.025.377v.933h-.343v-3.286h.279l.047.31h.017q.132-.186.307-.268.176-.083.403-.083.45 0 .694.308.246.308.246.865 0 .559-.25.869-.248.308-.69.308zm-.05-2.058q-.347 0-.501.192-.155.192-.16.612v.077q0 .478.16.685.159.205.51.205.293 0 .458-.238.167-.238.167-.656 0-.424-.167-.65-.165-.227-.467-.227zM84.933 42.288q0 .317-.236.489-.235.171-.66.171-.45 0-.703-.142v-.32q.163.084.35.131.187.048.36.048.269 0 .414-.085.144-.087.144-.263 0-.132-.116-.225-.113-.095-.446-.224-.316-.118-.45-.205-.132-.089-.198-.2-.064-.112-.064-.267 0-.277.225-.437.225-.161.618-.161.365 0 .714.149l-.122.28q-.34-.142-.617-.142-.244 0-.368.077t-.124.211q0 .091.046.155.047.064.15.122.104.058.397.168.403.147.543.296.143.149.143.374zM86.444 42.948q-.502 0-.793-.306-.289-.306-.289-.85 0-.549.269-.871.27-.323.724-.323.426 0 .674.281.247.28.247.739v.217h-1.559q.01.4.2.606.193.207.54.207.365 0 .722-.153v.306q-.181.079-.345.112-.16.035-.39.035zm-.093-2.063q-.272 0-.435.178-.162.178-.19.493h1.183q0-.325-.145-.497-.144-.174-.413-.174zM89.4 42.603h-.02q-.237.345-.71.345-.444 0-.691-.304-.246-.304-.246-.865 0-.56.248-.87.247-.311.69-.311.46 0 .706.335h.026l-.014-.163-.008-.16v-.923h.342v3.22h-.278zm-.686.058q.35 0 .508-.19.159-.193.159-.62v-.072q0-.482-.161-.687-.16-.207-.51-.207-.302 0-.463.236-.159.234-.159.662 0 .435.159.656.159.222.467.222zM74.041 48.204v-1.476q0-.27-.115-.405-.116-.137-.36-.137-.32 0-.473.184-.152.185-.152.567v1.267h-.343v-1.476q0-.27-.116-.405-.116-.137-.361-.137-.322 0-.473.195-.149.192-.149.633v1.19h-.343v-2.268h.28l.055.31h.016q.097-.165.273-.258.178-.093.397-.093.53 0 .693.384h.017q.101-.178.293-.281.192-.103.438-.103.384 0 .574.198.192.197.192.631v1.48zM76.48 48.204l-.068-.323h-.017q-.169.213-.338.29-.167.074-.42.074-.336 0-.528-.174-.19-.174-.19-.494 0-.687 1.096-.72l.385-.013v-.14q0-.267-.116-.394-.114-.128-.366-.128-.282 0-.64.174l-.105-.263q.167-.09.365-.143.2-.051.401-.051.405 0 .599.18.196.18.196.577v1.548zm-.774-.242q.32 0 .502-.176.183-.176.183-.493v-.205l-.342.015q-.41.014-.591.128-.18.112-.18.35 0 .186.112.283.113.098.316.098zM78.475 45.895q.15 0 .27.024l-.047.32q-.14-.032-.248-.032-.274 0-.47.223-.195.224-.195.557v1.217h-.343v-2.268h.283l.04.42h.016q.126-.221.304-.341.177-.12.39-.12zM81.021 45.936v.217l-.419.05q.058.072.103.19.046.116.046.263 0 .333-.227.532-.228.198-.624.198-.101 0-.19-.016-.219.116-.219.292 0 .093.076.138.077.044.263.044h.4q.368 0 .564.155.198.155.198.45 0 .377-.301.574-.302.199-.88.199-.444 0-.685-.166-.24-.165-.24-.468 0-.206.132-.357.132-.152.372-.205-.087-.04-.147-.122-.058-.083-.058-.193 0-.124.066-.217.067-.093.21-.18-.176-.072-.288-.246-.11-.174-.11-.398 0-.372.224-.573.223-.202.632-.202.177 0 .32.041zm-1.805 2.648q0 .184.155.28.155.095.444.095.432 0 .638-.13.209-.129.209-.35 0-.184-.114-.257-.113-.07-.427-.07h-.411q-.233 0-.364.112-.13.111-.13.32zm.186-1.922q0 .238.134.36.135.122.374.122.502 0 .502-.488 0-.511-.508-.511-.242 0-.372.13t-.13.387zM81.833 48.204h-.343v-2.268h.343zm-.372-2.883q0-.117.058-.171.058-.056.145-.056.082 0 .142.056.06.056.06.171 0 .116-.06.174-.06.056-.142.056-.087 0-.145-.056-.058-.058-.058-.174zM84.113 48.204v-1.467q0-.278-.126-.414-.126-.137-.395-.137-.355 0-.52.193-.165.192-.165.635v1.19h-.343v-2.268h.279l.055.31h.017q.105-.167.295-.258.19-.093.424-.093.408 0 .615.198.206.197.206.631v1.48z"/></g></g></svg>