<svg xmlns="http://www.w3.org/2000/svg" viewBox="0 0 63.5 71.409" height="269.891" width="240"><defs><marker id="c" refX="0" refY="0" orient="auto" overflow="visible"><path d="M0 4.52v-9.04" fill="#b8000f" fill-rule="evenodd" stroke="#a2000d" stroke-width="1.0664"/></marker><marker id="b" refX="0" refY="0" orient="auto" overflow="visible"><path d="M0 4.52v-9.04" fill="#006bb7" fill-rule="evenodd" stroke="#006bb7" stroke-width="1.0664"/></marker><marker id="a" refX="0" refY="0" orient="auto" overflow="visible"><path d="M0 4.52v-9.04" fill="#b8000f" fill-rule="evenodd" stroke="#a2000d" stroke-width="1.0664"/></marker><marker id="d" refX="0" refY="0" orient="auto" overflow="visible"><path d="M2.308 0l-3.46 2v-4z" fill="#131516" fill-rule="evenodd" stroke="#131516" stroke-width=".5332"/></marker></defs><path d="M0 63.5h63.5V43.656H0z" fill="#dfdff9"/><path d="M0 47.625h39.688v-3.969H0z" fill="#705697"/><g style="line-height:1.25;-inkscape-font-specification:'Open Sans, Normal';font-variant-ligatures:normal;font-variant-caps:normal;font-variant-numeric:normal;font-feature-settings:normal;text-align:start" aria-label="Parent’s bottom padding" font-weight="400" font-size="4.233" font-family="Open Sans" letter-spacing="0" word-spacing="0" fill="#131516" stroke-width=".265"><path style="-inkscape-font-specification:'Open Sans, Normal';font-variant-ligatures:normal;font-variant-caps:normal;font-variant-numeric:normal;font-feature-settings:normal;text-align:start" d="M14.322 58.448q0 .46-.314.707-.312.246-.895.246h-.356v1.189h-.351v-3.022h.783q1.133 0 1.133.88zm-1.565.652h.317q.467 0 .675-.151.21-.151.21-.484 0-.3-.197-.447-.196-.146-.612-.146h-.393zM16.294 60.59l-.068-.323h-.017q-.17.213-.339.29-.167.074-.42.074-.336 0-.528-.173-.19-.174-.19-.494 0-.687 1.097-.72l.384-.012v-.14q0-.267-.115-.394-.114-.128-.366-.128-.283 0-.641.174l-.105-.263q.167-.09.365-.142.201-.052.401-.052.406 0 .6.18.196.18.196.577v1.546zm-.775-.242q.32 0 .502-.176.184-.175.184-.492v-.204l-.343.014q-.41.015-.591.128-.18.112-.18.35 0 .186.112.283.113.097.316.097zM18.29 58.283q.152 0 .272.025l-.048.318q-.14-.03-.248-.03-.275 0-.471.222-.195.224-.195.556v1.216h-.343v-2.266h.283l.04.42h.016q.126-.221.304-.341.178-.12.39-.12zM19.942 60.631q-.502 0-.793-.306-.29-.306-.29-.85 0-.547.269-.87.27-.322.726-.322.425 0 .673.281.248.28.248.738v.217h-1.56q.01.4.2.606.193.206.54.206.366 0 .723-.152v.305q-.182.079-.345.112-.161.035-.39.035zm-.093-2.06q-.272 0-.436.177-.161.178-.19.492h1.184q0-.324-.144-.496-.145-.174-.414-.174zM22.909 60.59v-1.466q0-.277-.126-.413-.127-.137-.395-.137-.356 0-.521.193-.166.192-.166.634v1.189h-.343v-2.266h.28l.055.31h.017q.105-.167.295-.258.19-.093.424-.093.41 0 .616.198.207.197.207.63v1.479zM24.686 60.348q.091 0 .176-.012.085-.015.134-.03v.263q-.055.027-.165.044-.108.018-.194.018-.658 0-.658-.692V58.59h-.324v-.165l.324-.143.145-.484h.198v.525h.658v.267h-.658v1.333q0 .205.098.314.097.11.266.11zM25.726 57.568l.031.045q-.054.207-.155.482-.101.273-.21.508h-.253q.145-.589.21-1.035zM27.632 59.972q0 .316-.236.488-.235.171-.661.171-.45 0-.703-.142v-.319q.163.083.35.13.187.048.361.048.269 0 .413-.085.145-.087.145-.262 0-.133-.116-.226-.113-.095-.446-.223-.316-.118-.45-.204-.133-.09-.2-.2-.063-.113-.063-.268 0-.277.225-.436.225-.161.618-.161.366 0 .715.149l-.122.279q-.34-.14-.618-.14-.244 0-.368.076t-.124.21q0 .092.046.156.047.064.15.122.104.058.398.167.403.147.543.296.143.149.143.374zM30.342 58.287q.446 0 .692.306.248.304.248.862t-.25.868q-.248.308-.69.308-.221 0-.405-.08-.182-.083-.306-.253h-.025l-.072.292h-.246v-3.216h.343v.78q0 .263-.017.472h.017q.24-.339.71-.339zm-.05.287q-.351 0-.506.203-.155.2-.155.678 0 .478.159.684.159.205.51.205.317 0 .472-.23.155-.231.155-.663 0-.442-.155-.66-.155-.217-.48-.217zM33.84 59.455q0 .554-.28.866-.279.31-.77.31-.305 0-.54-.142-.236-.143-.364-.41-.128-.266-.128-.624 0-.554.277-.862.277-.31.769-.31.475 0 .754.316.281.317.281.856zm-1.727 0q0 .434.174.661.173.228.51.228t.511-.225q.176-.228.176-.664 0-.432-.176-.655-.174-.226-.515-.226-.337 0-.508.222-.172.22-.172.659zM35.17 60.348q.091 0 .176-.012.085-.015.134-.03v.263q-.055.027-.165.044-.107.018-.194.018-.658 0-.658-.692V58.59h-.324v-.165l.324-.143.145-.484h.199v.525h.657v.267h-.657v1.333q0 .205.097.314.097.11.266.11zM36.667 60.348q.09 0 .176-.012.084-.015.134-.03v.263q-.056.027-.165.044-.108.018-.195.018-.657 0-.657-.692V58.59h-.325v-.165l.325-.143.145-.484h.198v.525h.657v.267h-.657v1.333q0 .205.097.314.097.11.267.11zM39.387 59.455q0 .554-.279.866-.279.31-.77.31-.305 0-.54-.142-.236-.143-.364-.41-.128-.266-.128-.624 0-.554.277-.862.277-.31.769-.31.475 0 .754.316.281.317.281.856zm-1.726 0q0 .434.174.661.173.228.51.228t.511-.225q.176-.228.176-.664 0-.432-.176-.655-.174-.226-.515-.226-.337 0-.508.222-.172.22-.172.659zM42.874 60.59v-1.474q0-.27-.115-.405-.116-.137-.36-.137-.32 0-.473.184-.153.184-.153.567v1.265h-.344v-1.474q0-.27-.115-.405-.116-.137-.362-.137-.323 0-.473.195-.15.192-.15.632v1.189h-.342v-2.266h.279l.056.31h.016q.097-.165.273-.258.178-.093.397-.093.531 0 .694.385h.017q.101-.178.293-.282.193-.103.439-.103.384 0 .574.198.192.197.192.63v1.479zM46.076 60.631q-.221 0-.405-.08-.182-.083-.306-.253h-.025q.025.199.025.377v.932h-.343v-3.283h.279l.048.31h.016q.132-.186.308-.268.176-.083.403-.083.45 0 .695.308.246.308.246.864 0 .558-.25.868-.248.308-.69.308zm-.05-2.057q-.347 0-.502.193-.155.192-.159.612v.076q0 .478.16.684.158.205.51.205.293 0 .459-.238.167-.238.167-.655 0-.424-.167-.65-.166-.227-.467-.227zM49.011 60.59l-.068-.323h-.016q-.17.213-.34.29-.167.074-.419.074-.337 0-.53-.173-.19-.174-.19-.494 0-.687 1.098-.72l.385-.012v-.14q0-.267-.116-.394-.114-.128-.366-.128-.283 0-.64.174l-.106-.263q.167-.09.366-.142.2-.052.4-.052.406 0 .6.18.197.18.197.577v1.546zm-.775-.242q.32 0 .503-.176.184-.175.184-.492v-.204l-.344.014q-.409.015-.59.128-.18.112-.18.35 0 .186.111.283.114.097.316.097zM51.517 60.286h-.019q-.238.345-.711.345-.444 0-.692-.304-.246-.304-.246-.864t.248-.87q.248-.31.69-.31.461 0 .707.335h.027l-.015-.163-.008-.16v-.921h.343v3.216h-.279zm-.687.058q.352 0 .509-.19.16-.193.16-.618v-.073q0-.481-.162-.686-.16-.207-.51-.207-.302 0-.464.236-.159.234-.159.661 0 .434.16.656.158.22.466.22zM54.113 60.286h-.019q-.237.345-.71.345-.445 0-.693-.304-.246-.304-.246-.864t.248-.87q.248-.31.69-.31.461 0 .707.335h.027l-.014-.163-.009-.16v-.921h.343v3.216h-.279zm-.686.058q.351 0 .508-.19.16-.193.16-.618v-.073q0-.481-.162-.686-.16-.207-.51-.207-.302 0-.464.236-.159.234-.159.661 0 .434.16.656.159.22.467.22zM55.51 60.59h-.343v-2.266h.343zm-.372-2.88q0-.117.058-.171.058-.056.145-.056.082 0 .142.056.06.056.06.171 0 .116-.06.174-.06.056-.142.056-.087 0-.145-.056-.058-.058-.058-.174zM57.792 60.59v-1.466q0-.277-.126-.413-.126-.137-.395-.137-.355 0-.52.193-.166.192-.166.634v1.189h-.343v-2.266h.279l.056.31h.016q.106-.167.296-.258.19-.093.424-.093.409 0 .616.198.206.197.206.63v1.479zM60.692 58.324v.217l-.42.05q.059.072.104.19.046.116.046.263 0 .332-.228.53-.227.2-.624.2-.101 0-.19-.017-.22.116-.22.291 0 .093.077.139.077.043.263.043h.4q.369 0 .565.155.198.155.198.45 0 .377-.301.573-.302.199-.88.199-.445 0-.687-.166-.24-.165-.24-.467 0-.206.132-.357.133-.151.372-.205-.086-.04-.146-.122-.058-.083-.058-.192 0-.124.066-.217t.209-.18q-.176-.072-.288-.246-.11-.174-.11-.397 0-.372.224-.572.223-.203.633-.203.177 0 .32.041zm-1.806 2.646q0 .184.155.28.155.094.444.094.432 0 .639-.13.209-.128.209-.35 0-.183-.114-.256-.114-.07-.428-.07h-.411q-.234 0-.364.112-.13.111-.13.32zm.186-1.92q0 .238.134.36t.374.122q.503 0 .503-.488 0-.51-.509-.51-.242 0-.372.13t-.13.386z"/></g><g style="line-height:1.25;-inkscape-font-specification:'Open Sans, Normal';font-variant-ligatures:normal;font-variant-caps:normal;font-variant-numeric:normal;font-feature-settings:normal;text-align:start" aria-label="Child’s bottom margin" font-weight="400" font-size="4.233" font-family="Open Sans" letter-spacing="0" word-spacing="0" fill="#131516" stroke-width=".265"><path style="-inkscape-font-specification:'Open Sans, Normal';font-variant-ligatures:normal;font-variant-caps:normal;font-variant-numeric:normal;font-feature-settings:normal;text-align:start" d="M13.876 65.747q-.499 0-.788.333-.287.33-.287.908 0 .593.277.917.279.323.793.323.317 0 .722-.114v.308q-.314.118-.775.118-.668 0-1.032-.405-.362-.405-.362-1.152 0-.467.174-.818.176-.351.504-.542.331-.19.778-.19.475 0 .83.174l-.148.302q-.343-.162-.686-.162zM16.75 68.499v-1.466q0-.277-.125-.413-.126-.137-.395-.137-.358 0-.523.195-.163.194-.163.636V68.5H15.2v-3.217h.343v.974q0 .176-.017.291h.02q.102-.163.288-.256.188-.095.428-.095.415 0 .622.198.209.197.209.627v1.478zM18.14 68.499h-.343v-2.266h.343zm-.372-2.88q0-.118.058-.171.058-.056.144-.056.083 0 .143.056.06.055.06.171 0 .116-.06.174-.06.056-.143.056-.086 0-.144-.056-.058-.058-.058-.174zM19.215 68.499h-.343v-3.217h.343zM21.489 68.195h-.02q-.237.345-.71.345-.445 0-.693-.304-.246-.304-.246-.864t.248-.87q.249-.31.69-.31.462 0 .708.335h.027l-.015-.164-.008-.159v-.922h.343V68.5h-.279zm-.687.058q.352 0 .509-.19.159-.193.159-.619v-.072q0-.481-.161-.686-.16-.207-.51-.207-.303 0-.464.236-.159.233-.159.661 0 .434.16.656.158.22.466.22zM22.818 65.477l.03.045q-.053.207-.154.482-.102.273-.211.508h-.252q.144-.589.21-1.035zM24.723 67.88q0 .317-.235.488-.236.172-.662.172-.45 0-.702-.143v-.318q.163.083.349.13.188.048.362.048.268 0 .413-.085.145-.087.145-.262 0-.133-.116-.226-.114-.095-.446-.223-.317-.118-.451-.205-.132-.088-.199-.2-.064-.112-.064-.267 0-.277.226-.436.225-.161.618-.161.366 0 .715.149l-.122.279q-.341-.14-.618-.14-.244 0-.368.076t-.124.21q0 .092.045.156.048.064.151.122.104.057.397.167.403.147.544.296.142.148.142.374zM27.433 66.196q.447 0 .693.306.248.304.248.862t-.25.868q-.248.308-.69.308-.222 0-.406-.08-.182-.083-.306-.253h-.024l-.073.292h-.246v-3.217h.343v.782q0 .262-.016.47h.016q.24-.338.711-.338zm-.05.287q-.35 0-.506.203-.155.2-.155.678 0 .477.16.684.159.205.51.205.316 0 .471-.23.155-.231.155-.663 0-.443-.155-.66-.155-.217-.48-.217zM30.93 67.364q0 .554-.278.866-.28.31-.771.31-.304 0-.54-.143-.235-.142-.364-.409-.128-.267-.128-.624 0-.554.277-.862.277-.31.77-.31.475 0 .754.316.28.316.28.856zm-1.725 0q0 .434.174.661.173.228.51.228t.51-.226q.176-.227.176-.663 0-.432-.175-.655-.174-.226-.515-.226-.337 0-.509.221-.171.222-.171.66zM32.262 68.257q.091 0 .176-.013.084-.014.134-.029v.263q-.056.027-.165.043-.108.019-.195.019-.657 0-.657-.692V66.5h-.324v-.166l.324-.142.145-.484h.198v.525h.658v.267h-.658v1.333q0 .205.097.314.098.11.267.11zM33.759 68.257q.09 0 .175-.013.085-.014.135-.029v.263q-.056.027-.166.043-.107.019-.194.019-.657 0-.657-.692V66.5h-.325v-.166l.325-.142.144-.484h.199v.525h.657v.267h-.657v1.333q0 .205.097.314.097.11.267.11zM36.479 67.364q0 .554-.28.866-.278.31-.77.31-.304 0-.54-.143-.235-.142-.364-.409-.128-.267-.128-.624 0-.554.277-.862.277-.31.77-.31.475 0 .754.316.28.316.28.856zm-1.726 0q0 .434.173.661.174.228.511.228t.51-.226q.176-.227.176-.663 0-.432-.175-.655-.174-.226-.515-.226-.337 0-.509.221-.171.222-.171.66zM39.966 68.499v-1.474q0-.271-.116-.405-.116-.137-.36-.137-.32 0-.473.184-.153.184-.153.567v1.265h-.343v-1.474q0-.271-.116-.405-.115-.137-.361-.137-.323 0-.474.195-.149.192-.149.632V68.5h-.343v-2.266h.28l.055.31h.017q.097-.165.273-.258.177-.093.396-.093.532 0 .695.384h.016q.102-.178.294-.28.192-.104.438-.104.385 0 .575.198.192.197.192.63V68.5zM45.001 68.499v-1.474q0-.271-.115-.405-.116-.137-.36-.137-.32 0-.473.184-.153.184-.153.567v1.265h-.344v-1.474q0-.271-.115-.405-.116-.137-.362-.137-.323 0-.473.195-.15.192-.15.632V68.5h-.342v-2.266h.279l.056.31h.016q.097-.165.273-.258.178-.093.397-.093.531 0 .694.384h.017q.101-.178.293-.28.193-.104.439-.104.384 0 .574.198.192.197.192.63V68.5zM47.443 68.499l-.069-.323h-.016q-.17.213-.34.29-.167.074-.419.074-.337 0-.529-.174-.19-.173-.19-.494 0-.686 1.097-.719l.385-.012V67q0-.267-.116-.393-.114-.128-.366-.128-.283 0-.64.174l-.106-.263q.167-.09.366-.142.2-.052.4-.052.406 0 .6.18.197.18.197.576V68.5zm-.776-.242q.32 0 .503-.176.184-.176.184-.492v-.205l-.344.015q-.409.014-.59.128-.18.112-.18.35 0 .185.111.283.114.097.316.097zM49.44 66.192q.15 0 .27.025l-.047.318q-.141-.031-.249-.031-.274 0-.47.223-.195.223-.195.556V68.5h-.343v-2.266h.283l.04.42h.016q.126-.221.304-.341.177-.12.39-.12zM51.988 66.233v.217l-.42.05q.058.072.104.19.045.116.045.262 0 .333-.227.532-.228.198-.624.198-.102 0-.19-.016-.22.115-.22.291 0 .093.077.139.076.043.262.043h.401q.368 0 .565.155.198.155.198.45 0 .377-.302.573-.302.199-.88.199-.445 0-.687-.166-.24-.165-.24-.467 0-.207.133-.357.132-.151.372-.205-.087-.04-.147-.122-.058-.083-.058-.192 0-.124.067-.217.066-.093.208-.18-.175-.073-.287-.246-.11-.174-.11-.397 0-.372.224-.573.223-.202.632-.202.178 0 .32.041zm-1.807 2.646q0 .184.155.279.155.095.445.095.432 0 .639-.13.208-.128.208-.35 0-.183-.113-.256-.114-.07-.428-.07h-.412q-.233 0-.363.112-.13.111-.13.32zm.186-1.92q0 .237.135.36.134.121.374.121.502 0 .502-.488 0-.51-.508-.51-.242 0-.372.13t-.13.387zM52.8 68.499h-.343v-2.266h.343zm-.372-2.88q0-.118.058-.171.058-.056.145-.056.083 0 .142.056.06.055.06.171 0 .116-.06.174-.06.056-.142.056-.087 0-.145-.056-.058-.058-.058-.174zM55.082 68.499v-1.466q0-.277-.126-.413-.126-.137-.395-.137-.355 0-.52.192-.166.193-.166.635V68.5h-.343v-2.266h.28l.055.31h.016q.106-.167.296-.258.19-.093.424-.093.41 0 .616.198.206.197.206.63V68.5z"/></g><g style="line-height:1.25;-inkscape-font-specification:'Open Sans, Normal';font-variant-ligatures:normal;font-variant-caps:normal;font-variant-numeric:normal;font-feature-settings:normal;text-align:start" aria-label="Parent’s bottom margin" font-weight="400" font-size="4.233" font-family="Open Sans" letter-spacing="0" word-spacing="0" fill="#131516" stroke-width=".265"><path style="-inkscape-font-specification:'Open Sans, Normal';font-variant-ligatures:normal;font-variant-caps:normal;font-variant-numeric:normal;font-feature-settings:normal;text-align:start" d="M14.322 50.611q0 .459-.314.707-.312.246-.895.246h-.356v1.189h-.351V49.73h.783q1.133 0 1.133.881zm-1.565.651h.317q.467 0 .675-.15.21-.152.21-.484 0-.3-.197-.447-.196-.147-.612-.147h-.393zM16.294 52.753l-.068-.323h-.017q-.17.213-.339.29-.167.074-.42.074-.336 0-.528-.174-.19-.173-.19-.494 0-.686 1.097-.72l.384-.012v-.14q0-.267-.115-.393-.114-.128-.366-.128-.283 0-.641.174l-.105-.263q.167-.09.365-.143.201-.051.401-.051.406 0 .6.18.196.18.196.576v1.546zm-.775-.242q.32 0 .502-.176.184-.176.184-.492v-.205l-.343.015q-.41.014-.591.128-.18.112-.18.35 0 .185.112.283.113.097.316.097zM18.29 50.446q.152 0 .272.024l-.048.319q-.14-.031-.248-.031-.275 0-.471.223-.195.223-.195.556v1.216h-.343v-2.266h.283l.04.42h.016q.126-.222.304-.341.178-.12.39-.12zM19.942 52.794q-.502 0-.793-.306-.29-.306-.29-.85 0-.547.269-.87.27-.322.726-.322.425 0 .673.28.248.28.248.739v.217h-1.56q.01.399.2.605.193.207.54.207.366 0 .723-.153v.306q-.182.079-.345.112-.161.035-.39.035zm-.093-2.061q-.272 0-.436.178-.161.178-.19.492h1.184q0-.325-.144-.496-.145-.174-.414-.174zM22.909 52.753v-1.466q0-.277-.126-.413-.127-.137-.395-.137-.356 0-.521.192-.166.193-.166.635v1.189h-.343v-2.266h.28l.055.31h.017q.105-.167.295-.258.19-.093.424-.093.41 0 .616.198.207.197.207.63v1.479zM24.686 52.51q.091 0 .176-.012.085-.014.134-.029v.263q-.055.027-.165.043-.108.019-.194.019-.658 0-.658-.693v-1.347h-.324v-.166l.324-.142.145-.484h.198v.525h.658v.267h-.658v1.333q0 .205.098.314.097.11.266.11zM25.726 49.73l.031.046q-.054.207-.155.482-.101.272-.21.508h-.253q.145-.589.21-1.035zM27.632 52.134q0 .317-.236.488-.235.172-.661.172-.45 0-.703-.143v-.318q.163.083.35.13.187.048.361.048.269 0 .413-.085.145-.087.145-.263 0-.132-.116-.225-.113-.095-.446-.223-.316-.118-.45-.205-.133-.089-.2-.2-.063-.112-.063-.267 0-.277.225-.436.225-.161.618-.161.366 0 .715.149l-.122.279q-.34-.141-.618-.141-.244 0-.368.076-.124.077-.124.211 0 .091.046.155.047.064.15.122.104.058.398.168.403.147.543.295.143.15.143.374zM30.342 50.45q.446 0 .692.306.248.304.248.862t-.25.868q-.248.308-.69.308-.221 0-.405-.08-.182-.083-.306-.253h-.025l-.072.292h-.246v-3.217h.343v.782q0 .262-.017.47h.017q.24-.338.71-.338zm-.05.287q-.351 0-.506.203-.155.2-.155.678 0 .477.159.684.159.205.51.205.317 0 .472-.23.155-.231.155-.663 0-.443-.155-.66-.155-.217-.48-.217zM33.84 51.618q0 .554-.28.866-.279.31-.77.31-.305 0-.54-.143-.236-.142-.364-.41-.128-.266-.128-.623 0-.554.277-.862.277-.31.769-.31.475 0 .754.316.281.316.281.856zm-1.727 0q0 .434.174.661.173.228.51.228t.511-.226q.176-.227.176-.663 0-.432-.176-.656-.174-.225-.515-.225-.337 0-.508.221-.172.221-.172.66zM35.17 52.51q.091 0 .176-.012.085-.014.134-.029v.263q-.055.027-.165.043-.107.019-.194.019-.658 0-.658-.693v-1.347h-.324v-.166l.324-.142.145-.484h.199v.525h.657v.267h-.657v1.333q0 .205.097.314.097.11.266.11zM36.667 52.51q.09 0 .176-.012.084-.014.134-.029v.263q-.056.027-.165.043-.108.019-.195.019-.657 0-.657-.693v-1.347h-.325v-.166l.325-.142.145-.484h.198v.525h.657v.267h-.657v1.333q0 .205.097.314.097.11.267.11zM39.387 51.618q0 .554-.279.866-.279.31-.77.31-.305 0-.54-.143-.236-.142-.364-.41-.128-.266-.128-.623 0-.554.277-.862.277-.31.769-.31.475 0 .754.316.281.316.281.856zm-1.726 0q0 .434.174.661.173.228.51.228t.511-.226q.176-.227.176-.663 0-.432-.176-.656-.174-.225-.515-.225-.337 0-.508.221-.172.221-.172.66zM42.874 52.753v-1.474q0-.271-.115-.405-.116-.137-.36-.137-.32 0-.473.184-.153.184-.153.566v1.266h-.344v-1.474q0-.271-.115-.405-.116-.137-.362-.137-.323 0-.473.194-.15.193-.15.633v1.189h-.342v-2.266h.279l.056.31h.016q.097-.165.273-.258.178-.093.397-.093.531 0 .694.384h.017q.101-.178.293-.281.193-.103.439-.103.384 0 .574.198.192.197.192.63v1.479zM47.91 52.753v-1.474q0-.271-.116-.405-.116-.137-.36-.137-.32 0-.473.184-.153.184-.153.566v1.266h-.343v-1.474q0-.271-.116-.405-.116-.137-.362-.137-.322 0-.473.194-.149.193-.149.633v1.189h-.343v-2.266h.279l.056.31h.016q.098-.165.273-.258.178-.093.397-.093.531 0 .695.384h.016q.101-.178.294-.281.192-.103.438-.103.384 0 .575.198.192.197.192.63v1.479zM50.35 52.753l-.067-.323h-.017q-.17.213-.339.29-.167.074-.42.074-.336 0-.529-.174-.19-.173-.19-.494 0-.686 1.098-.72l.384-.012v-.14q0-.267-.116-.393-.113-.128-.365-.128-.284 0-.641.174l-.106-.263q.168-.09.366-.143.2-.051.401-.051.405 0 .6.18.196.18.196.576v1.546zm-.774-.242q.32 0 .502-.176.184-.176.184-.492v-.205l-.343.015q-.41.014-.591.128-.18.112-.18.35 0 .185.111.283.114.097.317.097zM52.348 50.446q.15 0 .27.024l-.047.319q-.14-.031-.248-.031-.275 0-.471.223-.195.223-.195.556v1.216h-.343v-2.266h.283l.04.42h.016q.126-.222.304-.341.178-.12.39-.12zM54.896 50.487v.217l-.42.05q.059.072.104.19.046.116.046.262 0 .333-.228.532-.227.198-.624.198-.101 0-.19-.016-.22.115-.22.291 0 .093.077.138.077.044.263.044h.4q.369 0 .565.155.198.155.198.45 0 .377-.301.573-.302.199-.881.199-.444 0-.686-.166-.24-.165-.24-.467 0-.207.132-.358.133-.15.372-.204-.086-.04-.146-.122-.058-.083-.058-.192 0-.124.066-.217t.209-.18q-.176-.073-.288-.246-.11-.174-.11-.397 0-.372.224-.573.223-.202.633-.202.177 0 .32.041zm-1.806 2.646q0 .184.155.279.155.095.444.095.432 0 .639-.13.209-.128.209-.35 0-.184-.114-.256-.114-.07-.428-.07h-.411q-.234 0-.364.111-.13.112-.13.32zm.186-1.92q0 .237.134.36.134.121.374.121.503 0 .503-.488 0-.51-.509-.51-.242 0-.372.13t-.13.387zM55.709 52.753h-.343v-2.266h.343zm-.372-2.88q0-.118.057-.171.058-.056.145-.056.083 0 .143.056.06.055.06.171 0 .116-.06.174-.06.056-.143.056-.087 0-.145-.056-.057-.058-.057-.174zM57.99 52.753v-1.466q0-.277-.125-.413-.126-.137-.395-.137-.356 0-.521.192-.165.193-.165.635v1.189h-.344v-2.266h.28l.055.31h.017q.105-.167.295-.258.19-.093.424-.093.41 0 .616.198.207.197.207.63v1.479z"/></g><path d="M26.458 161.916v-7.639" fill="#b8000f" stroke="#a2000d" stroke-width=".265" marker-start="url(#a)" marker-end="url(#a)" transform="translate(-15.875 -106.5)"/><path d="M26.458 169.84V162.2" fill="#006bb7" stroke="#006bb7" stroke-width=".265" marker-start="url(#b)" marker-end="url(#b)" transform="translate(-15.875 -106.5)"/><path d="M26.458 177.768v-7.64" fill="#b8000f" stroke="#a2000d" stroke-width=".265" marker-start="url(#c)" marker-end="url(#c)" transform="translate(-15.875 -106.5)"/><path d="M10.583 2.646h42.334v23.812H10.583z" fill="#dfdff9"/><path d="M15.875 7.937h13.23v13.23h-13.23z" fill="#705697"/><path d="M21.294 2.519h2.391v.127h-2.391zM21.294 0h2.391v.127h-2.391z" fill="#a2000d"/><path d="M22.69 0v2.646h-.401V0z" fill="#a2000d"/><path d="M21.294 5.165h2.391v.127h-2.391zM21.294 2.646h2.391v.127h-2.391z" fill="#01c"/><path d="M22.69 2.646v2.646h-.401V2.646z" fill="#01c"/><path d="M21.294 7.81h2.391v.127h-2.391zM21.294 5.292h2.391v.127h-2.391z" fill="#a2000d"/><path d="M22.69 5.292v2.645h-.401V5.292z" fill="#a2000d"/><g><path d="M21.294 23.686h2.391v.127h-2.391zM21.294 21.167h2.391v.127h-2.391z" fill="#a2000d"/><path d="M22.69 21.167v2.646h-.401v-2.646z" fill="#a2000d"/><path d="M21.294 26.331h2.391v.127h-2.391zM21.294 23.813h2.391v.127h-2.391z" fill="#01c"/><path d="M22.69 23.813v2.645h-.401v-2.645z" fill="#01c"/><path d="M21.294 28.977h2.391v.127h-2.391zM21.294 26.458h2.391v.127h-2.391z" fill="#a2000d"/><path d="M22.69 26.458v2.646h-.401v-2.646z" fill="#a2000d"/></g><path d="M37.042 134.281l-9.26 13.23" fill="#131516" stroke="#131516" stroke-width=".529" marker-end="url(#d)" transform="translate(-15.875 -106.5)"/></svg>