<svg xmlns="http://www.w3.org/2000/svg" viewBox="0 0 43.942 23.813" height="90" width="166.08"><g style="line-height:1.25;-inkscape-font-specification:'Open Sans, Normal';font-variant-ligatures:normal;font-variant-caps:normal;font-variant-numeric:normal;font-feature-settings:normal;text-align:start" aria-label="Bottom margin" font-weight="400" font-size="4.233" font-family="Open Sans" letter-spacing="0" word-spacing="0" stroke-width=".265"><path style="-inkscape-font-specification:'Open Sans, Normal';font-variant-ligatures:normal;font-variant-caps:normal;font-variant-numeric:normal;font-feature-settings:normal;text-align:start" d="M5.85 16.598h.854q.601 0 .87.18t.269.569q0 .268-.151.444-.149.174-.436.225v.021q.688.118.688.724 0 .405-.275.632-.273.228-.765.228H5.85zm.351 1.294h.58q.371 0 .535-.115.163-.118.163-.395 0-.254-.182-.366-.182-.114-.579-.114h-.517zm0 .298v1.13h.63q.367 0 .55-.14.187-.142.187-.444 0-.281-.19-.414-.188-.132-.575-.132zM10.499 18.486q0 .554-.28.866-.278.31-.77.31-.304 0-.54-.143-.235-.142-.363-.409-.129-.267-.129-.624 0-.554.277-.862.277-.31.77-.31.475 0 .754.316.28.316.28.856zm-1.726 0q0 .434.174.661.173.228.51.228t.51-.226q.176-.227.176-.663 0-.432-.175-.656-.174-.225-.515-.225-.337 0-.509.221-.171.221-.171.66zM11.83 19.379q.091 0 .176-.013.084-.014.134-.029v.263q-.056.027-.165.043-.108.019-.195.019-.657 0-.657-.693v-1.347H10.8v-.166l.324-.142.145-.484h.198v.525h.658v.267h-.658v1.333q0 .205.097.314.097.11.267.11zM13.327 19.379q.09 0 .175-.013.085-.014.135-.029v.263q-.056.027-.166.043-.107.019-.194.019-.657 0-.657-.693v-1.347h-.325v-.166l.325-.142.144-.484h.199v.525h.657v.267h-.657v1.333q0 .205.097.314.097.11.267.11zM16.047 18.486q0 .554-.28.866-.278.31-.77.31-.304 0-.54-.143-.235-.142-.364-.409-.128-.267-.128-.624 0-.554.277-.862.277-.31.77-.31.475 0 .754.316.28.316.28.856zm-1.726 0q0 .434.173.661.174.228.511.228t.51-.226q.176-.227.176-.663 0-.432-.175-.656-.174-.225-.515-.225-.337 0-.509.221-.171.221-.171.66zM19.534 19.62v-1.473q0-.271-.116-.405-.116-.137-.36-.137-.32 0-.473.184-.153.184-.153.566v1.266h-.343v-1.474q0-.271-.116-.405-.115-.137-.361-.137-.323 0-.474.194-.149.193-.149.633v1.189h-.343v-2.266h.28l.055.31h.017q.097-.165.273-.258.177-.093.396-.093.532 0 .695.384h.016q.102-.178.294-.281.192-.103.438-.103.385 0 .575.198.192.196.192.63v1.479zM24.57 19.62v-1.473q0-.271-.116-.405-.116-.137-.36-.137-.32 0-.473.184-.153.184-.153.566v1.266h-.344v-1.474q0-.271-.115-.405-.116-.137-.362-.137-.322 0-.473.194-.15.193-.15.633v1.189h-.342v-2.266h.279l.056.31h.016q.097-.165.273-.258.178-.093.397-.093.531 0 .694.384h.017q.101-.178.293-.281.193-.103.438-.103.385 0 .575.198.192.196.192.63v1.479zM27.01 19.62l-.068-.322h-.016q-.17.213-.34.29-.167.074-.419.074-.337 0-.529-.174-.19-.173-.19-.494 0-.686 1.097-.72l.385-.012v-.14q0-.267-.116-.393-.113-.128-.366-.128-.283 0-.64.174l-.106-.263q.168-.09.366-.143.2-.051.401-.051.405 0 .6.18.196.18.196.576v1.547zm-.775-.241q.32 0 .503-.176.184-.176.184-.492v-.205l-.343.015q-.41.014-.592.128-.18.112-.18.35 0 .185.112.283.114.097.316.097zM29.007 17.314q.151 0 .271.024l-.047.319q-.141-.031-.248-.031-.275 0-.472.223-.194.223-.194.556v1.216h-.343v-2.266h.283l.04.42h.016q.126-.222.304-.341.177-.12.39-.12zM31.556 17.355v.217l-.42.05q.058.072.104.19.045.116.045.262 0 .333-.227.532-.228.198-.624.198-.102 0-.19-.017-.22.116-.22.292 0 .093.077.138.076.044.262.044h.401q.368 0 .565.155.198.155.198.45 0 .377-.302.573-.301.199-.88.199-.445 0-.687-.166-.24-.165-.24-.467 0-.207.133-.358.132-.15.372-.204-.087-.04-.147-.122-.058-.083-.058-.192 0-.124.066-.217.067-.094.21-.18-.176-.073-.288-.246-.11-.174-.11-.397 0-.372.224-.573.223-.202.632-.202.178 0 .32.041zm-1.807 2.646q0 .184.155.279.155.095.445.095.432 0 .639-.13.208-.128.208-.35 0-.184-.113-.256-.114-.07-.428-.07h-.412q-.233 0-.363.111-.13.112-.13.32zm.186-1.92q0 .237.135.36.134.121.374.121.502 0 .502-.488 0-.51-.508-.51-.242 0-.372.13t-.13.387zM32.368 19.62h-.343v-2.265h.343zm-.372-2.879q0-.118.058-.171.058-.056.145-.056.083 0 .142.056.06.055.06.171 0 .116-.06.174-.06.056-.142.056-.087 0-.145-.056-.058-.058-.058-.174zM34.65 19.62v-1.465q0-.277-.126-.413-.126-.137-.395-.137-.355 0-.52.192-.166.193-.166.635v1.189H33.1v-2.266h.28l.055.31h.016q.106-.167.296-.258.19-.093.424-.093.409 0 .616.198.206.196.206.63v1.479z"/></g><g style="line-height:1.25;-inkscape-font-specification:'Open Sans, Normal';font-variant-ligatures:normal;font-variant-caps:normal;font-variant-numeric:normal;font-feature-settings:normal;text-align:start" aria-label="Top margin" font-weight="400" font-size="4.233" font-family="Open Sans" letter-spacing="0" word-spacing="0" stroke-width=".265"><path style="-inkscape-font-specification:'Open Sans, Normal';font-variant-ligatures:normal;font-variant-caps:normal;font-variant-numeric:normal;font-feature-settings:normal;text-align:start" d="M6.78 7.66H6.43V4.95h-.957v-.313h2.265v.313H6.78zM10.094 6.525q0 .554-.28.866-.278.31-.77.31-.304 0-.54-.143-.235-.142-.364-.41-.128-.266-.128-.623 0-.554.277-.862.277-.31.77-.31.475 0 .754.316.28.316.28.856zm-1.726 0q0 .434.173.661.174.228.51.228.338 0 .511-.226.176-.227.176-.663 0-.432-.176-.656-.173-.225-.514-.225-.337 0-.509.221-.171.221-.171.66zM11.747 7.7q-.22 0-.405-.08-.182-.082-.306-.252h-.024q.024.198.024.376v.932h-.343V5.394h.28l.047.31h.016q.133-.186.308-.269.176-.082.403-.082.451 0 .695.308.246.308.246.864 0 .558-.25.868-.248.308-.69.308zm-.05-2.056q-.346 0-.502.192-.155.193-.159.612v.077q0 .477.16.684.159.205.51.205.294 0 .459-.238.167-.238.167-.655 0-.424-.167-.65-.165-.227-.467-.227zM17.277 7.66V6.185q0-.271-.116-.405-.116-.137-.36-.137-.32 0-.473.184-.153.184-.153.566V7.66h-.343V6.186q0-.271-.116-.405-.116-.137-.362-.137-.322 0-.473.194-.149.193-.149.633v1.188h-.343V5.394h.28l.055.31h.016q.098-.165.273-.258.178-.093.397-.093.531 0 .695.384h.016q.101-.178.294-.281.192-.103.438-.103.384 0 .575.198.192.196.192.63V7.66zM19.718 7.66l-.068-.323h-.017q-.17.213-.339.29-.167.074-.42.074-.336 0-.529-.174-.19-.173-.19-.494 0-.686 1.098-.72l.384-.012v-.14q0-.267-.115-.393-.114-.128-.366-.128-.283 0-.641.174l-.105-.263q.167-.09.365-.143.2-.051.401-.051.406 0 .6.18.196.18.196.576V7.66zm-.775-.242q.32 0 .502-.176.184-.176.184-.492v-.205l-.343.015q-.41.014-.591.128-.18.112-.18.35 0 .185.112.282.113.098.316.098zM21.715 5.353q.15 0 .27.024l-.047.319q-.14-.031-.248-.031-.275 0-.471.223-.195.223-.195.556V7.66h-.343V5.394h.283l.04.42h.016q.126-.222.304-.341.178-.12.39-.12zM24.263 5.394v.217l-.42.05q.059.072.104.19.046.116.046.262 0 .333-.228.532-.227.198-.624.198-.101 0-.19-.017-.22.116-.22.292 0 .093.077.138.077.044.263.044h.4q.369 0 .565.155.198.155.198.45 0 .377-.301.573-.302.198-.88.198-.445 0-.687-.165-.24-.165-.24-.467 0-.207.132-.358.133-.15.372-.204-.086-.04-.146-.122-.058-.083-.058-.192 0-.124.066-.218.066-.093.209-.18-.176-.072-.288-.245-.11-.174-.11-.397 0-.372.224-.573.223-.202.633-.202.177 0 .32.041zM22.457 8.04q0 .184.155.279.155.095.444.095.432 0 .639-.13.209-.128.209-.35 0-.184-.114-.256-.114-.07-.428-.07h-.411q-.234 0-.364.111-.13.112-.13.32zm.186-1.92q0 .237.134.36.135.121.374.121.503 0 .503-.488 0-.51-.509-.51-.242 0-.372.13t-.13.387zM25.076 7.66h-.343V5.393h.343zm-.372-2.88q0-.118.058-.171.057-.056.144-.056.083 0 .143.056.06.055.06.171 0 .116-.06.174-.06.056-.143.056-.087 0-.144-.056-.058-.058-.058-.174zM27.358 7.66V6.193q0-.277-.126-.413-.126-.137-.395-.137-.356 0-.521.192-.165.193-.165.635v1.188h-.344V5.394h.28l.055.31h.017q.105-.167.295-.258.19-.093.424-.093.41 0 .616.198.207.196.207.63V7.66z"/></g><g fill="#a2000d"><path d="M2.855 12.832h2.381v.397H2.855zM2.855 0h2.381v.397H2.855z"/><path d="M4.244 0v13.23h-.397V0z"/></g><g fill="#a2000d"><path d="M2.855 23.416h2.381v.397H2.855zM2.855 13.23h2.381v.396H2.855z"/><path d="M4.244 13.23v10.583h-.397V13.229z"/></g><path d="M.143 13.23h43.656" fill="none" stroke="#3d3d55" stroke-width=".282" stroke-linecap="round" stroke-dasharray=".28182084,.8454625" stroke-dashoffset=".185"/></svg>