<svg xmlns="http://www.w3.org/2000/svg" viewBox="0 0 105.833 43.921" height="166.001" width="400"><path d="M0 16.669h26.458v18.535H0z" fill="#dfdff9"/><path d="M1.323 32.558h23.812v2.646H1.323z" fill="#705697"/><g fill="#a2000d"><path d="M18.52 31.75h3.97v.794h-3.97zM18.52 16.669h3.97v.793h-3.97z"/><path d="M20.902 16.669v15.875h-.794V16.669z"/></g><g style="line-height:1.25" aria-label="20 px" font-weight="400" font-size="4.233" font-family="sans-serif" letter-spacing="0" word-spacing="0" fill="#131516" stroke-width=".265"><path d="M8.887 25.751H6.803v-.432l.434-.372q.22-.186.408-.37.397-.384.543-.61.147-.227.147-.49 0-.24-.16-.373-.156-.137-.44-.137-.187 0-.407.066-.219.066-.427.203H6.88v-.434q.147-.073.39-.133.247-.06.476-.06.473 0 .742.23.269.227.269.618 0 .176-.046.329-.043.15-.13.287-.08.128-.19.252-.108.124-.263.275-.22.217-.456.422l-.44.376h1.655zM11.578 24.211q0 .83-.26 1.218-.259.386-.804.386-.554 0-.81-.392-.255-.393-.255-1.207 0-.821.259-1.212.258-.392.806-.392.554 0 .808.399.256.396.256 1.2zm-.543.939q.072-.168.097-.393.027-.227.027-.546 0-.314-.027-.545-.025-.232-.1-.393-.072-.16-.198-.24-.124-.08-.32-.08-.195 0-.323.08-.126.08-.2.244-.07.153-.097.4-.025.245-.025.539 0 .322.023.54.022.216.097.388.068.16.192.246.126.084.333.084.194 0 .322-.08t.199-.244zM15.764 24.57q0 .28-.08.514-.081.231-.228.393-.136.152-.322.237-.184.083-.391.083-.18 0-.327-.04-.144-.039-.295-.121v.967h-.389v-3.16h.389v.241q.155-.13.347-.217.194-.089.413-.089.418 0 .65.317.233.314.233.874zm-.4.01q0-.418-.144-.625-.142-.207-.438-.207-.167 0-.337.073-.17.072-.324.19v1.308q.165.075.283.102.12.027.27.027.325 0 .507-.22.182-.219.182-.649zM18.369 25.751h-.49l-.656-.886-.659.886h-.453l.902-1.15-.893-1.158h.49l.65.872.654-.872h.455l-.908 1.136z"/></g><g fill="#a2000d"><path d="M19.357 15.478h2.382v.397h-2.382zM19.38 0h2.382v.397H19.38z"/><path d="M20.77 0v15.875h-.397V0z"/></g><g style="line-height:1.25" aria-label="20 px" font-weight="400" font-size="4.233" font-family="sans-serif" letter-spacing="0" word-spacing="0" fill="#131516" stroke-width=".265"><path d="M8.887 9.083H6.803V8.65l.434-.372q.22-.186.408-.37.397-.385.543-.61.147-.228.147-.49 0-.24-.16-.374-.156-.137-.44-.137-.187 0-.407.066-.219.067-.427.203H6.88v-.434q.147-.072.39-.132.247-.06.476-.06.473 0 .742.23.269.226.269.617 0 .176-.046.329-.043.15-.13.287-.08.128-.19.252-.108.124-.263.275-.22.217-.456.422l-.44.376h1.655zM11.578 7.543q0 .829-.26 1.217-.259.387-.804.387-.554 0-.81-.393-.255-.393-.255-1.207 0-.82.259-1.211.258-.393.806-.393.554 0 .808.399.256.397.256 1.2zm-.543.938q.072-.167.097-.393.027-.227.027-.545 0-.314-.027-.546-.025-.232-.1-.393-.072-.159-.198-.24-.124-.08-.32-.08-.195 0-.323.08-.126.081-.2.244-.07.153-.097.4-.025.245-.025.539 0 .322.023.54.022.216.097.388.068.161.192.246.126.085.333.085.194 0 .322-.08.128-.081.199-.245zM15.764 7.9q0 .281-.08.515-.081.232-.228.393-.136.153-.322.237-.184.083-.391.083-.18 0-.327-.04-.144-.038-.295-.121v.967h-.389v-3.16h.389v.242q.155-.13.347-.217.194-.09.413-.09.418 0 .65.317.233.314.233.874zm-.4.01q0-.417-.144-.624-.142-.206-.438-.206-.167 0-.337.072t-.324.19v1.309q.165.074.283.101.12.027.27.027.325 0 .507-.22.182-.218.182-.648zM18.369 9.083h-.49l-.656-.887-.659.887h-.453l.902-1.152-.893-1.157h.49l.65.872.654-.872h.455L17.46 7.91z"/></g><path d="M0 15.875h26.458v.794H0z" fill="#3d3d55"/><path d="M39.687 16.669h26.459V43.92H39.687z" fill="#dfdff9"/><path d="M41.01 41.275h23.813v2.646H41.01z" fill="#705697"/><g style="line-height:1.25" aria-label="20 px" font-weight="400" font-size="4.233" font-family="sans-serif" letter-spacing="0" word-spacing="0" fill="#131516" stroke-width=".265"><path d="M46.089 9.078h-2.084v-.432l.434-.372q.22-.186.407-.37.397-.384.544-.61.147-.227.147-.49 0-.24-.16-.374-.156-.136-.44-.136-.188 0-.407.066-.219.066-.428.202h-.02v-.434q.146-.072.39-.132.246-.06.476-.06.473 0 .742.23.268.227.268.618 0 .175-.045.328-.043.151-.13.288-.08.128-.19.252-.108.124-.263.275-.221.217-.457.421-.235.203-.44.377h1.656zM48.78 7.538q0 .829-.26 1.218-.259.386-.805.386-.554 0-.81-.393-.254-.392-.254-1.207 0-.82.258-1.211.259-.393.806-.393.554 0 .809.4.256.396.256 1.2zm-.544.939q.073-.168.098-.393.026-.228.026-.546 0-.314-.026-.546-.025-.231-.1-.392-.072-.16-.198-.24-.124-.08-.32-.08-.195 0-.323.08-.126.08-.2.244-.07.153-.098.399-.024.246-.024.54 0 .322.022.539.023.217.097.388.069.162.193.246.126.085.332.085.195 0 .323-.08.128-.081.198-.244zM52.966 7.896q0 .28-.08.514-.081.232-.228.393-.137.153-.323.238-.184.083-.39.083-.18 0-.327-.04-.145-.039-.296-.122v.968h-.388V6.77h.388v.241q.156-.13.348-.217.194-.089.413-.089.418 0 .65.316.233.315.233.875zm-.401.01q0-.418-.143-.624-.142-.207-.438-.207-.167 0-.337.072-.17.073-.325.19v1.309q.166.074.284.101.12.027.27.027.325 0 .507-.219t.182-.649zM55.57 9.078h-.49l-.655-.887-.66.887h-.452l.901-1.151-.893-1.158h.49l.651.872.654-.872h.454l-.907 1.137z"/></g><g style="line-height:1.25" aria-label="20 px" font-weight="400" font-size="4.233" font-family="sans-serif" letter-spacing="0" word-spacing="0" fill="#131516" stroke-width=".265"><path d="M46.089 35.141h-2.084v-.432l.434-.372q.22-.186.407-.37.397-.384.544-.61.147-.227.147-.49 0-.24-.16-.374-.156-.136-.44-.136-.188 0-.407.066-.219.066-.428.203h-.02v-.434q.146-.073.39-.133.246-.06.476-.06.473 0 .742.23.268.227.268.618 0 .175-.045.328-.043.151-.13.288-.08.128-.19.252-.108.124-.263.275-.221.217-.457.421-.235.203-.44.377h1.656zM48.78 33.601q0 .83-.26 1.218-.259.386-.805.386-.554 0-.81-.392-.254-.393-.254-1.208 0-.82.258-1.21.259-.394.806-.394.554 0 .809.4.256.396.256 1.2zm-.544.939q.073-.168.098-.393.026-.227.026-.546 0-.314-.026-.545-.025-.232-.1-.393-.072-.16-.198-.24-.124-.08-.32-.08-.195 0-.323.08-.126.08-.2.244-.07.153-.098.399-.024.246-.024.54 0 .322.022.539.023.217.097.389.069.16.193.245.126.085.332.085.195 0 .323-.08.128-.081.198-.244zM52.966 33.959q0 .281-.08.515-.081.231-.228.392-.137.153-.323.238-.184.083-.39.083-.18 0-.327-.04-.145-.039-.296-.122v.968h-.388v-3.16h.388v.241q.156-.13.348-.217.194-.089.413-.089.418 0 .65.316.233.315.233.875zm-.401.01q0-.417-.143-.624-.142-.207-.438-.207-.167 0-.337.073-.17.072-.325.19v1.308q.166.075.284.102.12.026.27.026.325 0 .507-.219t.182-.649zM55.57 35.141h-.49l-.655-.887-.66.887h-.452l.901-1.151-.893-1.158h.49l.651.873.654-.873h.454l-.907 1.137z"/></g><g style="line-height:1.25" aria-label="10 px" font-weight="400" font-size="4.233" font-family="sans-serif" letter-spacing="0" word-spacing="0" fill="#131516" stroke-width=".265"><path d="M45.913 21.777h-1.666v-.314h.64V19.4h-.64v-.281q.13 0 .279-.02.149-.024.225-.065.095-.052.15-.13.055-.08.063-.215h.32v2.774h.629zM48.78 20.237q0 .829-.26 1.218-.259.386-.805.386-.554 0-.81-.393-.254-.392-.254-1.207 0-.82.258-1.211.259-.393.806-.393.554 0 .809.4.256.396.256 1.2zm-.544.939q.073-.168.098-.393.026-.228.026-.546 0-.314-.026-.546-.025-.231-.1-.392-.072-.16-.198-.24-.124-.08-.32-.08-.195 0-.323.08-.126.08-.2.244-.07.153-.098.399-.024.246-.024.54 0 .322.022.539.023.217.097.388.069.162.193.246.126.085.332.085.195 0 .323-.08.128-.081.198-.244zM52.966 20.595q0 .28-.08.514-.081.232-.228.393-.137.153-.323.238-.184.083-.39.083-.18 0-.327-.04-.145-.04-.296-.122v.968h-.388v-3.16h.388v.241q.156-.13.348-.217.194-.089.413-.089.418 0 .65.316.233.314.233.875zm-.401.01q0-.418-.143-.624-.142-.207-.438-.207-.167 0-.337.072-.17.073-.325.19v1.309q.166.074.284.101.12.027.27.027.325 0 .507-.219.182-.22.182-.649zM55.57 21.777h-.49l-.655-.887-.66.887h-.452l.901-1.151-.893-1.158h.49l.651.872.654-.872h.454l-.907 1.137z"/></g><g fill="#a2000d"><path d="M55.48 40.485h3.969v.794h-3.97zM55.48 25.404h3.969v.793h-3.97z"/><path d="M57.861 25.404v15.875h-.794V25.404z"/></g><path d="M41.01 25.003h23.813" fill="none" stroke="#374047" stroke-width=".794"/><g style="line-height:1.25;-inkscape-font-specification:'Open Sans, Normal';font-variant-ligatures:normal;font-variant-caps:normal;font-variant-numeric:normal;font-feature-settings:normal;text-align:start"><path style="-inkscape-font-specification:'Open Sans, Normal';font-variant-ligatures:normal;font-variant-caps:normal;font-variant-numeric:normal;font-feature-settings:normal;text-align:start" d="M33.498 25.515h2.555v.856h-2.555v2.641h-.862v-2.641h-2.543v-.856h2.543V22.86h.862z" aria-label="+" font-weight="400" font-size="12.7" font-family="Open Sans" letter-spacing="0" word-spacing="0" stroke-width=".265"/></g><g style="line-height:1.25;-inkscape-font-specification:'Open Sans, Normal';font-variant-ligatures:normal;font-variant-caps:normal;font-variant-numeric:normal;font-feature-settings:normal;text-align:start"><path style="-inkscape-font-specification:'Open Sans, Normal';font-variant-ligatures:normal;font-variant-caps:normal;font-variant-numeric:normal;font-feature-settings:normal;text-align:start" d="M69.877 25.284v-.85h5.767v.85zm0 2.537v-.85h5.767v.85z" aria-label="=" font-weight="400" font-size="12.7" font-family="Open Sans" letter-spacing="0" word-spacing="0" stroke-width=".265"/></g><path d="M79.375 16.669h26.458v18.52H79.375z" fill="#dfdff9"/><path d="M80.698 32.544h23.812v2.646H80.698z" fill="#705697"/><g fill="#a2000d"><path d="M98.425 31.75h3.969v.794h-3.969zM98.425 16.669h3.969v.793h-3.969z"/><path d="M100.806 16.669v15.875h-.794V16.669z"/></g><g style="line-height:1.25" aria-label="20 px" font-weight="400" font-size="4.233" font-family="sans-serif" letter-spacing="0" word-spacing="0" fill="#131516" stroke-width=".265"><path d="M88.791 23.635h-2.083v-.432l.434-.372q.219-.186.407-.37.397-.385.543-.61.147-.227.147-.49 0-.24-.159-.374-.157-.137-.44-.137-.188 0-.407.067-.22.066-.428.202h-.021v-.434q.147-.072.39-.132.247-.06.476-.06.473 0 .742.23.269.227.269.617 0 .176-.046.329-.043.15-.13.287-.08.129-.19.253-.107.124-.262.274-.222.217-.457.422-.236.203-.44.376h1.655zM91.482 22.095q0 .829-.26 1.217-.258.387-.804.387-.554 0-.81-.393-.255-.393-.255-1.207 0-.82.259-1.211.258-.393.806-.393.554 0 .808.399.256.397.256 1.2zm-.543.938q.072-.167.097-.392.027-.228.027-.546 0-.314-.027-.546-.025-.231-.1-.393-.072-.159-.198-.24-.124-.08-.32-.08-.194 0-.323.08-.126.081-.2.245-.07.152-.097.398-.025.246-.025.54 0 .322.023.54.022.217.097.388.068.161.192.246.126.085.333.085.194 0 .322-.08.129-.081.199-.245zM95.668 22.452q0 .282-.08.515-.081.232-.228.393-.136.153-.322.238-.184.082-.39.082-.18 0-.327-.039-.145-.04-.296-.122v.967h-.389v-3.16h.389v.242q.155-.13.347-.217.194-.09.414-.09.417 0 .649.317.233.314.233.874zm-.4.01q0-.417-.143-.624-.143-.206-.439-.206-.167 0-.337.072-.169.073-.324.19v1.309q.165.074.283.101.12.027.27.027.325 0 .507-.22.182-.218.182-.648zM98.273 23.635h-.49l-.655-.887-.66.887h-.452l.9-1.152-.892-1.157h.49l.65.872.654-.872h.455l-.908 1.137z"/></g><g fill="#a2000d"><path d="M99.262 15.478h2.38v.397h-2.38zM99.285 0h2.381v.397h-2.381z"/><path d="M100.674 0v15.875h-.397V0z"/></g><g style="line-height:1.25" aria-label="20 px" font-weight="400" font-size="4.233" font-family="sans-serif" letter-spacing="0" word-spacing="0" fill="#131516" stroke-width=".265"><path d="M88.791 9.083h-2.083V8.65l.434-.372q.219-.186.407-.37.397-.385.543-.61.147-.228.147-.49 0-.24-.159-.374-.157-.137-.44-.137-.188 0-.407.066-.22.067-.428.203h-.021v-.434q.147-.072.39-.132.247-.06.476-.06.473 0 .742.23.269.227.269.617 0 .176-.046.329-.043.15-.13.287-.08.128-.19.252-.107.124-.262.275-.222.217-.457.422-.236.203-.44.376h1.655zM91.482 7.543q0 .829-.26 1.217-.258.387-.804.387-.554 0-.81-.393-.255-.393-.255-1.207 0-.82.259-1.211.258-.393.806-.393.554 0 .808.399.256.397.256 1.2zm-.543.938q.072-.167.097-.393.027-.227.027-.545 0-.314-.027-.546-.025-.231-.1-.393-.072-.159-.198-.24-.124-.08-.32-.08-.194 0-.323.08-.126.081-.2.244-.07.153-.097.4-.025.245-.025.539 0 .322.023.54.022.216.097.388.068.161.192.246.126.085.333.085.194 0 .322-.08.129-.082.199-.245zM95.668 7.9q0 .281-.08.515-.081.232-.228.393-.136.153-.322.237-.184.083-.39.083-.18 0-.327-.04-.145-.038-.296-.121v.967h-.389v-3.16h.389v.242q.155-.13.347-.217.194-.09.414-.09.417 0 .649.317.233.314.233.874zm-.4.01q0-.417-.143-.624-.143-.206-.439-.206-.167 0-.337.072-.169.072-.324.19v1.309q.165.074.283.101.12.027.27.027.325 0 .507-.22.182-.218.182-.648zM98.273 9.083h-.49l-.655-.887-.66.887h-.452l.9-1.152-.892-1.157h.49l.65.872.654-.872h.455l-.908 1.137z"/></g><path d="M79.375 15.875h26.458v.794H79.375z" fill="#3d3d55"/><path d="M80.698 25.003h23.812" fill="none" stroke="#374047" stroke-width=".794" stroke-dasharray=".79374996,2.38124991"/><path d="M39.687 15.875h26.459v.794H39.687z" fill="#3d3d55"/><g fill="#a2000d"><path d="M56.261 15.478h2.382v.397H56.26zM56.285 0h2.38v.397h-2.38z"/><path d="M57.674 0v15.875h-.397V0z"/></g><g fill="#a2000d"><path d="M56.261 15.478h2.382v.397H56.26zM56.285 0h2.38v.397h-2.38z"/><path d="M57.674 0v15.875h-.397V0z"/></g><g fill="#a2000d"><path d="M56.273 24.21h2.381v.396h-2.381zM56.273 16.669h2.381v.397h-2.381z"/><path d="M57.662 16.669v7.937h-.397V16.67z"/></g></svg>