<svg xmlns="http://www.w3.org/2000/svg" viewBox="0 0 69.763 53.952" height="203.913" width="263.671"><defs><marker id="a" refX="0" refY="0" orient="auto" overflow="visible"><path d="M4.616 0l-6.92 4v-8z" fill-rule="evenodd" stroke="#000" stroke-width="1.0664"/></marker><marker id="b" refX="0" refY="0" orient="auto" overflow="visible"><path d="M4.616 0l-6.92 4v-8z" fill-rule="evenodd" stroke="#000" stroke-width="1.0664"/></marker></defs><path d="M.788.133H69.61v4.329H.788z" fill="none" stroke="#3d3d55" stroke-width=".282" stroke-linecap="round" stroke-dasharray=".28182084,.84546251" stroke-dashoffset=".185"/><g aria-label="The word מחשב means computer" style="line-height:1.25" font-weight="400" font-size="4.233" font-family="sans-serif" letter-spacing="0" word-spacing="0" stroke-width=".265"><path d="M3.519.779h-1.1v2.714h-.41V.779H.91V.415H3.52zM5.836 3.493h-.389V2.178q0-.159-.018-.297-.019-.14-.068-.22-.052-.086-.15-.128-.096-.043-.251-.043-.16 0-.333.079-.174.078-.333.2v1.724h-.389V.277h.389V1.44q.182-.15.376-.235.194-.085.4-.085.373 0 .57.225.196.226.196.65zM8.517 2.379H6.816q0 .213.064.372.064.157.175.258.108.1.255.15.149.049.326.049.236 0 .474-.093.24-.095.34-.186h.021v.423q-.196.083-.4.139-.205.056-.43.056-.575 0-.898-.31-.322-.313-.322-.885 0-.566.308-.9.31-.332.814-.332.467 0 .72.273.254.273.254.775zm-.378-.298q-.002-.306-.155-.473-.151-.168-.461-.168-.312 0-.499.184-.183.184-.208.457zM13.499 1.184l-.602 2.309h-.36l-.593-1.78-.589 1.78h-.358l-.607-2.309h.405l.424 1.788.576-1.788h.32l.592 1.788.4-1.788zM16.027 2.34q0 .564-.29.89-.29.327-.775.327-.49 0-.78-.327-.287-.326-.287-.89 0-.565.288-.891.29-.329.779-.329.486 0 .775.329.29.326.29.89zm-.401 0q0-.449-.176-.666-.176-.22-.488-.22-.316 0-.492.22-.174.217-.174.666 0 .434.176.659.176.223.49.223.31 0 .486-.221.178-.223.178-.661zM18.07 1.608h-.02q-.087-.02-.17-.03-.08-.01-.192-.01-.18 0-.347.081-.167.079-.322.205v1.639h-.389V1.184h.389v.341q.231-.186.407-.262.178-.079.362-.079.1 0 .146.006.046.004.137.019zM20.314 3.493h-.389V3.25q-.167.145-.35.225-.181.081-.394.081-.414 0-.657-.318-.242-.319-.242-.883 0-.293.082-.523.085-.23.228-.39.14-.158.326-.24.188-.083.389-.083.182 0 .322.04.141.036.296.117v-1h.389zm-.389-.569V1.6q-.157-.07-.281-.098-.124-.027-.27-.027-.328 0-.51.228-.181.227-.181.645 0 .411.14.626.14.213.45.213.166 0 .336-.072.17-.075.316-.19zM30.47 2.215l-.34-.915h.387l.16.483q.098-.212.305-.36.206-.148.444-.148.252 0 .434.13.184.128.267.376.083.248.083.747v.965h-1.131v-.33h.732v-.644q0-.363-.025-.529-.023-.167-.122-.27-.097-.106-.246-.106-.232 0-.395.24-.161.237-.275.827l-.155.812h-.399l.174-.856q.025-.122.101-.422zM29.66 3.493h-.394V2.304q0-.241-.054-.38-.053-.138-.215-.221-.16-.085-.463-.085-.175 0-.392.03v1.845h-.395V1.347q.442-.072.812-.072.405 0 .651.12.248.118.35.316.1.199.1.554zM25.09 1.3l.009.355q.012.548.047.759.22 0 .395-.11.176-.11.176-.415l.043-.59h.397l-.05.691q-.012.176-.039.267-.027.09-.111.192-.083.101-.265.178-.18.074-.486.1.052.222.24.357.188.134.463.134.254 0 .436-.12.182-.122.269-.312.087-.192.116-.546l.089-.94h.397l-.075.812q-.043.457-.155.76-.112.305-.389.493-.274.188-.71.188-.387 0-.65-.186-.26-.188-.39-.536-.128-.347-.128-.926l-.03-.605zM24.036 3.162h.35v.33h-2.098v-.33h1.354v-.748q0-.306-.069-.459-.068-.155-.248-.246-.177-.09-.556-.09-.134 0-.415.028l-.033-.327q.279-.045.593-.045.591 0 .856.256.266.257.266.778zM37.437 3.493h-.389V2.178q0-.149-.014-.287-.012-.139-.056-.221-.047-.09-.136-.135-.09-.045-.257-.045-.163 0-.326.083-.163.08-.327.206.006.048.01.112.005.062.005.124v1.478h-.389V2.178q0-.153-.014-.29-.013-.138-.056-.22-.048-.09-.137-.133-.088-.045-.256-.045-.16 0-.32.078-.16.079-.319.201v1.724h-.388V1.184h.388v.256q.182-.15.362-.235.182-.085.387-.085.235 0 .399.1.165.098.246.274.235-.198.43-.285.194-.089.415-.089.38 0 .56.231.182.23.182.643zM40.118 2.379h-1.701q0 .213.064.372.064.157.176.258.107.1.254.15.149.049.327.049.235 0 .473-.093.24-.095.34-.186h.022v.423q-.197.083-.401.139-.205.056-.43.056-.575 0-.897-.31-.323-.313-.323-.885 0-.566.308-.9.31-.332.814-.332.468 0 .72.273.254.273.254.775zm-.378-.298q-.002-.306-.155-.473-.151-.168-.461-.168-.312 0-.498.184-.184.184-.21.457zM42.501 3.493h-.386v-.246q-.052.035-.14.1-.088.061-.17.098-.097.048-.223.079-.127.033-.296.033-.312 0-.53-.207-.216-.206-.216-.527 0-.262.111-.424.114-.163.323-.256.21-.093.506-.126.296-.033.635-.05v-.06q0-.132-.048-.219-.045-.086-.132-.136-.083-.048-.198-.064-.116-.017-.242-.017-.153 0-.341.042-.188.039-.389.115h-.02v-.394q.113-.031.328-.069.215-.037.424-.037.244 0 .424.042.181.039.314.136.13.095.198.246.068.15.068.374zm-.386-.569v-.642q-.178.01-.42.03-.24.021-.38.06-.168.048-.27.15-.104.099-.104.274 0 .199.12.3.12.1.366.1.204 0 .374-.08t.314-.192zM45.184 3.493h-.388V2.178q0-.159-.019-.297-.018-.14-.068-.22-.052-.086-.149-.128-.097-.043-.252-.043-.16 0-.333.079-.173.078-.333.2v1.724h-.388V1.184h.388v.256q.182-.15.377-.235.194-.085.399-.085.374 0 .57.225.196.226.196.65zM47.582 2.827q0 .317-.262.52-.26.202-.713.202-.257 0-.472-.06-.213-.062-.357-.135v-.436h.02q.184.139.41.221.225.081.432.081.256 0 .4-.083.145-.082.145-.26 0-.136-.078-.207-.079-.07-.302-.12-.083-.018-.217-.043-.132-.025-.242-.054-.304-.08-.432-.235-.126-.158-.126-.385 0-.143.058-.269.06-.126.18-.225.115-.097.293-.153.18-.058.401-.058.207 0 .418.052.213.05.353.122v.415h-.02q-.15-.11-.362-.184-.213-.076-.418-.076-.213 0-.36.083-.146.08-.146.241 0 .143.089.215.087.073.28.118.108.025.24.05.135.025.224.045.27.062.417.213.147.153.147.405zM51.336 3.348q-.194.093-.37.145-.174.052-.37.052-.25 0-.459-.073-.209-.074-.357-.223-.151-.149-.234-.376-.083-.228-.083-.531 0-.567.31-.89.312-.322.823-.322.198 0 .389.056.192.056.351.137v.432h-.02q-.178-.139-.369-.213-.188-.075-.368-.075-.33 0-.523.223-.19.222-.19.652 0 .417.186.642.188.224.527.224.118 0 .24-.031t.22-.08q.084-.044.159-.092.074-.05.117-.085h.021zM53.804 2.34q0 .564-.29.89-.289.327-.774.327-.49 0-.78-.327-.287-.326-.287-.89 0-.565.287-.891.29-.329.78-.329.485 0 .775.329.29.326.29.89zm-.4 0q0-.449-.177-.666-.175-.22-.487-.22-.317 0-.492.22-.174.217-.174.666 0 .434.176.659.175.223.49.223.31 0 .485-.221.178-.223.178-.661zM57.777 3.493h-.389V2.178q0-.149-.014-.287-.013-.139-.056-.221-.047-.09-.136-.135-.09-.045-.257-.045-.163 0-.326.083-.164.08-.327.206.006.048.01.112.005.062.005.124v1.478h-.39V2.178q0-.153-.014-.29-.012-.138-.055-.22-.048-.09-.137-.133-.089-.045-.256-.045-.16 0-.32.078-.16.079-.319.201v1.724h-.388V1.184h.388v.256q.182-.15.362-.235.182-.085.386-.085.236 0 .4.1.165.098.245.274.236-.198.43-.285.195-.089.416-.089.38 0 .56.231.182.23.182.643zM60.557 2.31q0 .282-.08.515-.081.232-.228.393-.136.153-.322.238-.184.082-.391.082-.18 0-.327-.039-.144-.04-.295-.122v.968h-.389V1.184h.389v.242q.155-.13.347-.217.194-.089.414-.089.417 0 .649.316.233.314.233.875zm-.4.01q0-.417-.143-.623-.143-.207-.439-.207-.167 0-.337.072-.17.073-.324.19v1.309q.165.074.283.101.12.027.27.027.325 0 .507-.219.182-.22.182-.65zM63.077 3.493h-.389v-.256q-.196.155-.376.237-.18.083-.397.083-.364 0-.566-.221-.203-.223-.203-.653V1.184h.389v1.315q0 .175.016.301.017.124.07.213.056.091.145.133.09.041.259.041.15 0 .328-.079.18-.078.335-.2V1.184h.389zM65.04 3.472q-.109.03-.24.048-.127.018-.229.018-.353 0-.537-.19-.184-.19-.184-.61V1.511h-.263v-.327h.263V.521h.389v.663h.802v.327h-.802v1.052q0 .182.008.285.008.101.058.19.045.083.124.122.08.037.244.037.095 0 .198-.027.103-.028.149-.047h.02zM67.445 2.379h-1.702q0 .213.064.372.065.157.176.258.108.1.254.15.15.049.327.049.236 0 .473-.093.24-.095.341-.186h.021v.423q-.196.083-.4.139-.206.056-.43.056-.576 0-.898-.31-.322-.313-.322-.885 0-.566.308-.9.31-.332.814-.332.467 0 .72.273.254.273.254.775zm-.379-.298q-.002-.306-.155-.473-.15-.168-.46-.168-.313 0-.499.184-.184.184-.209.457zM69.474 1.608h-.02q-.087-.02-.17-.03-.08-.01-.192-.01-.18 0-.347.081-.168.079-.323.205v1.639h-.388V1.184h.388v.341q.232-.186.407-.262.178-.079.362-.079.102 0 .147.006.045.004.136.019z"/></g><path d="M53.99 36.645v10.583" fill="none" stroke="#000" stroke-width=".265" marker-end="url(#a)" transform="translate(-19.586 -28.51)"/><path d="M.769 25.738H20.49v4.33H.769z" fill="none" stroke="#3d3d55" stroke-width=".282" stroke-linecap="round" stroke-dasharray=".28182084,.84546251" stroke-dashoffset=".185"/><g aria-label="The word מחשב means computer" style="line-height:1.25" font-weight="400" font-size="4.233" font-family="sans-serif" letter-spacing="0" word-spacing="0" stroke-width=".265"><path d="M3.5 26.385H2.4v2.714h-.41v-2.714H.89v-.364H3.5zM5.817 29.099h-.389v-1.315q0-.16-.019-.298-.018-.14-.068-.219-.051-.086-.149-.128-.097-.043-.252-.043-.159 0-.333.078-.173.079-.332.2V29.1h-.389v-3.217h.389v1.164q.182-.15.376-.235.194-.085.399-.085.374 0 .57.225.197.225.197.65zM8.498 27.985H6.796q0 .212.064.372.065.157.176.258.108.1.254.149.15.05.327.05.236 0 .473-.094.24-.095.341-.186h.021v.424q-.196.083-.4.139-.206.055-.43.055-.575 0-.898-.31-.322-.312-.322-.884 0-.567.308-.9.31-.332.814-.332.467 0 .72.273.254.272.254.775zm-.379-.298q-.002-.306-.155-.473-.15-.168-.46-.168-.313 0-.499.184-.184.184-.209.457zM13.48 26.79l-.602 2.309h-.36l-.593-1.78-.59 1.78h-.357l-.608-2.31h.406l.423 1.789.577-1.788h.32l.592 1.788.4-1.788zM16.007 27.945q0 .565-.29.891-.289.327-.774.327-.49 0-.78-.327-.287-.326-.287-.89 0-.565.287-.892.29-.328.78-.328.485 0 .775.328.29.327.29.891zm-.4 0q0-.448-.176-.665-.176-.22-.488-.22-.317 0-.492.22-.174.217-.174.665 0 .434.176.66.175.223.49.223.31 0 .485-.221.178-.223.178-.662zM18.052 27.214h-.021q-.087-.021-.17-.03-.08-.01-.192-.01-.18 0-.347.08-.168.08-.323.206v1.639h-.388v-2.31h.388v.342q.232-.186.408-.263.177-.078.361-.078.102 0 .147.006.046.004.137.019zM20.294 29.099h-.388v-.242q-.168.145-.35.225-.182.08-.394.08-.414 0-.658-.318-.242-.318-.242-.882 0-.294.083-.523.085-.23.227-.39.141-.158.327-.24.188-.083.389-.083.182 0 .322.039.14.037.296.118v-1h.388zm-.388-.569v-1.325q-.157-.07-.281-.097-.124-.027-.271-.027-.327 0-.509.228-.182.227-.182.645 0 .41.141.626.14.213.45.213.166 0 .335-.073.17-.074.317-.19zM30.45 27.821l-.34-.915h.387l.162.483q.097-.213.303-.36.207-.148.445-.148.252 0 .434.13.184.128.267.376.082.248.082.746v.966h-1.13v-.331h.731v-.643q0-.364-.025-.529-.022-.167-.121-.27-.098-.106-.246-.106-.232 0-.395.24-.162.237-.275.826l-.155.813h-.4l.174-.856q.025-.122.102-.422zM29.642 29.099h-.395V27.91q0-.242-.054-.38-.054-.139-.215-.221-.161-.085-.463-.085-.176 0-.393.029v1.846h-.395v-2.146q.443-.072.813-.072.405 0 .65.12.249.117.35.316.102.198.102.554zM25.071 26.906l.009.355q.012.548.047.759.22 0 .395-.11.176-.11.176-.415l.043-.59h.397l-.05.691q-.012.176-.039.267-.027.09-.112.192-.082.101-.264.178-.18.074-.486.099.052.223.24.357.188.135.463.135.254 0 .436-.12.182-.122.269-.312.087-.192.115-.546l.09-.94h.396l-.074.812q-.044.457-.155.76-.112.304-.389.493-.275.188-.71.188-.387 0-.65-.186-.26-.188-.39-.536-.129-.347-.129-.926l-.029-.605zM24.017 28.768h.35v.33h-2.099v-.33h1.354v-.748q0-.306-.068-.46-.068-.154-.248-.245-.178-.091-.556-.091-.134 0-.416.029l-.033-.327q.28-.045.594-.045.59 0 .855.256.267.256.267.777zM37.418 29.099h-.389v-1.315q0-.149-.014-.287-.013-.139-.056-.221-.048-.09-.137-.135-.088-.045-.256-.045-.163 0-.326.082-.164.081-.327.207.006.048.01.112.004.062.004.124v1.478h-.388v-1.315q0-.153-.015-.29-.012-.138-.055-.22-.048-.09-.137-.133-.089-.045-.256-.045-.16 0-.32.078-.16.079-.319.2V29.1h-.389v-2.31h.39v.257q.181-.15.36-.235.183-.085.387-.085.236 0 .4.099.165.1.245.275.236-.199.43-.285.195-.09.416-.09.38 0 .56.232.182.23.182.643zM40.099 27.985h-1.701q0 .212.064.372.064.157.175.258.108.1.255.149.148.05.326.05.236 0 .474-.094.24-.095.34-.186h.021v.424q-.196.083-.4.139-.205.055-.43.055-.575 0-.898-.31-.322-.312-.322-.884 0-.567.308-.9.31-.332.814-.332.467 0 .72.273.254.272.254.775zm-.378-.298q-.003-.306-.156-.473-.15-.168-.46-.168-.313 0-.499.184-.184.184-.208.457zM42.482 29.099h-.386v-.246q-.052.035-.141.099-.087.062-.17.1-.097.047-.223.078-.126.033-.295.033-.312 0-.53-.207-.217-.207-.217-.527 0-.263.112-.424.114-.163.323-.256.21-.093.506-.126.296-.033.635-.05v-.06q0-.132-.048-.219-.045-.087-.132-.136-.083-.048-.199-.064-.115-.017-.242-.017-.153 0-.34.041-.189.04-.39.116h-.02v-.395q.114-.03.329-.068.215-.037.424-.037.243 0 .423.041.182.04.314.137.13.095.199.246.068.15.068.374zm-.386-.569v-.643q-.178.01-.42.031-.24.021-.38.06-.168.048-.271.15-.104.098-.104.274 0 .199.12.3.12.1.366.1.205 0 .374-.08.17-.08.315-.192zM45.165 29.099h-.388v-1.315q0-.16-.02-.298-.018-.14-.067-.219-.052-.086-.15-.128-.096-.043-.251-.043-.16 0-.333.078-.174.079-.333.2V29.1h-.388v-2.31h.388v.257q.182-.15.376-.235.195-.085.4-.085.373 0 .57.225.196.225.196.65zM47.563 28.433q0 .316-.263.519-.26.203-.713.203-.256 0-.471-.06-.213-.062-.358-.135v-.436h.021q.184.139.41.221.225.08.431.08.257 0 .401-.082.145-.082.145-.26 0-.137-.079-.207-.078-.07-.301-.12-.083-.018-.217-.043-.133-.025-.242-.054-.304-.08-.432-.236-.126-.157-.126-.384 0-.143.058-.269.06-.126.18-.225.115-.097.293-.153.18-.058.401-.058.207 0 .418.052.212.05.353.122v.415h-.02q-.15-.11-.362-.184-.213-.076-.418-.076-.213 0-.36.082-.146.081-.146.242 0 .143.088.215.087.073.282.118.107.025.24.05.134.024.223.045.27.062.417.213.147.153.147.405zM51.317 28.954q-.195.093-.37.145-.174.051-.37.051-.25 0-.46-.072-.208-.074-.357-.223-.15-.149-.233-.376-.083-.228-.083-.532 0-.566.31-.888.312-.323.823-.323.198 0 .388.056.193.056.352.136v.432h-.021q-.178-.138-.368-.213-.188-.074-.368-.074-.33 0-.523.223-.19.221-.19.651 0 .418.186.643.188.223.527.223.118 0 .24-.03.122-.032.219-.081.085-.044.16-.091.074-.05.117-.085h.02zM53.785 27.945q0 .565-.29.891-.289.327-.775.327-.49 0-.78-.327-.286-.326-.286-.89 0-.565.287-.892.29-.328.78-.328.485 0 .774.328.29.327.29.891zm-.401 0q0-.448-.176-.665-.176-.22-.488-.22-.316 0-.492.22-.173.217-.173.665 0 .434.175.66.176.223.49.223.31 0 .486-.221.178-.223.178-.662zM57.758 29.099h-.389v-1.315q0-.149-.014-.287-.013-.139-.056-.221-.048-.09-.137-.135-.089-.045-.256-.045-.163 0-.327.082-.163.081-.326.207.006.048.01.112.004.062.004.124v1.478h-.388v-1.315q0-.153-.015-.29-.012-.138-.056-.22-.047-.09-.136-.133-.089-.045-.256-.045-.16 0-.32.078-.16.079-.32.2V29.1h-.388v-2.31h.389v.257q.182-.15.362-.235.182-.085.386-.085.236 0 .4.099.165.1.245.275.236-.199.43-.285.194-.09.416-.09.38 0 .56.232.182.23.182.643zM60.538 27.916q0 .281-.08.515-.081.232-.228.393-.137.153-.323.238-.184.082-.39.082-.18 0-.327-.04-.145-.038-.295-.121v.967h-.39v-3.16h.39v.242q.155-.13.347-.217.194-.09.413-.09.418 0 .65.317.233.314.233.874zm-.401.01q0-.417-.143-.624-.142-.206-.438-.206-.167 0-.337.072t-.324.19v1.309q.165.074.283.101.12.027.27.027.325 0 .507-.22.182-.218.182-.648zM63.058 29.099h-.389v-.257q-.196.155-.376.238-.18.083-.397.083-.364 0-.566-.221-.203-.224-.203-.654V26.79h.389v1.314q0 .176.016.302.017.124.07.213.056.091.145.132.089.042.258.042.151 0 .33-.079.179-.078.334-.2V26.79h.389zM65.021 29.078q-.11.029-.24.048-.128.018-.229.018-.353 0-.537-.19-.184-.19-.184-.61v-1.228h-.263v-.326h.263v-.664h.388v.664h.802v.326h-.802v1.053q0 .181.009.285.008.101.057.19.046.083.124.122.081.037.244.037.095 0 .199-.027.103-.029.149-.047h.02zM67.425 27.985h-1.7q0 .212.063.372.064.157.176.258.107.1.254.149.149.05.327.05.235 0 .473-.094.24-.095.341-.186h.02v.424q-.196.083-.4.139-.205.055-.43.055-.575 0-.897-.31-.323-.312-.323-.884 0-.567.308-.9.31-.332.815-.332.467 0 .719.273.254.272.254.775zm-.378-.298q-.002-.306-.155-.473-.15-.168-.461-.168-.312 0-.498.184-.184.184-.209.457zM69.455 27.214h-.02q-.087-.021-.17-.03-.08-.01-.192-.01-.18 0-.348.08-.167.08-.322.206v1.639h-.389v-2.31h.389v.342q.231-.186.407-.263.178-.078.362-.078.101 0 .147.006.045.004.136.019z"/></g><path d="M20.49 25.738h13.414v4.33H20.49zM33.904 25.738H69.63v4.33H33.904z" fill="none" stroke="#3d3d55" stroke-width=".282" stroke-linecap="round" stroke-dasharray=".28182084,.84546251" stroke-dashoffset=".185"/><path d="M11.324 24.495H9.935v-.262h.534v-1.719h-.534v-.234q.109 0 .233-.017.124-.02.187-.054.08-.043.124-.108.047-.067.054-.18h.267v2.312h.524z" aria-label="1" font-weight="400" font-size="3.528" font-family="sans-serif" letter-spacing="0" word-spacing="0" fill="#3d3d55" stroke-width=".265"/><path d="M28.065 24.58H26.33v-.36q.18-.156.362-.31.182-.156.339-.31.33-.32.453-.507.122-.19.122-.409 0-.2-.132-.311-.131-.114-.367-.114-.157 0-.34.055-.182.055-.356.169h-.017v-.362q.122-.06.325-.11.205-.05.396-.05.395 0 .619.191.224.19.224.515 0 .147-.038.274-.036.126-.109.24-.067.106-.158.21-.09.103-.219.229-.184.18-.38.351l-.368.314h1.38z" aria-label="2" font-weight="400" font-size="3.528" font-family="sans-serif" letter-spacing="0" word-spacing="0" fill="#3d3d55" stroke-width=".265"/><path d="M52.423 23.634q.082.074.136.186.053.112.053.29 0 .175-.064.321-.063.147-.179.255-.129.12-.305.18-.174.056-.382.056-.214 0-.42-.051-.207-.05-.34-.11v-.36h.026q.147.096.345.16.198.063.382.063.109 0 .23-.036.123-.036.199-.107.08-.075.117-.167.04-.091.04-.23 0-.138-.045-.228-.043-.091-.12-.143-.078-.053-.188-.072-.11-.02-.238-.02h-.155v-.287h.12q.262 0 .417-.108.157-.11.157-.32 0-.094-.04-.163-.04-.07-.11-.115-.074-.045-.158-.062-.085-.017-.192-.017-.163 0-.347.058-.185.059-.348.166h-.018v-.36q.123-.06.326-.11.205-.052.396-.052.188 0 .33.034.144.035.26.11.123.083.187.2t.064.274q0 .214-.152.374-.15.158-.355.2v.024q.083.014.19.058.107.043.18.109z" aria-label="3" font-weight="400" font-size="3.528" font-family="sans-serif" letter-spacing="0" word-spacing="0" fill="#3d3d55" stroke-width=".265"/><path d="M48.54 49.478h19.722v4.33H48.541z" fill="none" stroke="#3d3d55" stroke-width=".282" stroke-linecap="round" stroke-dasharray=".28182084,.84546251" stroke-dashoffset=".185"/><g aria-label="means computer מחשב The word" style="line-height:1.25" font-weight="400" font-size="4.233" font-family="sans-serif" letter-spacing="0" word-spacing="0" stroke-width=".265"><path d="M3.634 52.835h-.389v-1.314q0-.15-.014-.288-.013-.138-.056-.221-.048-.089-.137-.134-.088-.046-.256-.046-.163 0-.326.083-.164.08-.327.207.006.047.01.111.004.062.004.124v1.478h-.388v-1.314q0-.153-.015-.29-.012-.138-.056-.221-.047-.089-.136-.132-.089-.046-.256-.046-.16 0-.32.079-.16.078-.319.2v1.724H.264v-2.309h.389v.257q.182-.151.362-.236.182-.085.386-.085.236 0 .4.1.165.099.245.274.236-.198.43-.285.194-.089.416-.089.38 0 .56.232.182.23.182.643zM6.315 51.721H4.614q0 .213.064.372.064.157.175.259.108.099.255.148.148.05.326.05.236 0 .474-.093.24-.095.34-.186h.021v.424q-.196.082-.4.138-.205.056-.43.056-.575 0-.898-.31-.322-.312-.322-.885 0-.566.308-.899.31-.333.814-.333.467 0 .72.273.254.273.254.775zm-.379-.298q-.002-.306-.155-.473-.15-.167-.46-.167-.313 0-.499.184-.184.184-.208.456zM8.698 52.835h-.386v-.246q-.052.035-.141.1-.087.061-.17.099-.097.047-.223.078-.126.033-.295.033-.313 0-.53-.206-.217-.207-.217-.528 0-.262.112-.423.114-.164.322-.257.211-.093.507-.126.296-.033.635-.05v-.06q0-.132-.048-.218-.046-.087-.132-.137-.083-.047-.199-.064-.116-.016-.242-.016-.153 0-.34.041-.189.04-.39.116h-.02v-.395q.114-.031.329-.068.215-.038.423-.038.244 0 .424.042.182.04.314.136.13.095.199.246.068.151.068.374zm-.386-.568v-.643q-.178.01-.42.03-.24.022-.38.06-.168.048-.271.15-.104.099-.104.275 0 .198.12.3.12.099.366.099.205 0 .374-.079.17-.08.315-.192zM11.381 52.835h-.389v-1.314q0-.16-.018-.298-.019-.14-.068-.22-.052-.086-.15-.127-.096-.044-.251-.044-.16 0-.333.079-.174.078-.333.2v1.724H9.45v-2.309h.39v.257q.181-.151.375-.236.195-.085.4-.085.373 0 .57.226.196.225.196.649zM13.779 52.17q0 .316-.263.518-.26.203-.713.203-.256 0-.471-.06-.213-.062-.358-.134v-.436h.021q.184.138.41.22.225.081.431.081.257 0 .401-.082.145-.083.145-.26 0-.137-.079-.207-.078-.07-.301-.12-.083-.019-.217-.044-.133-.025-.242-.054-.304-.08-.432-.235-.126-.157-.126-.385 0-.142.058-.268.06-.126.18-.226.115-.097.293-.153.18-.058.4-.058.208 0 .418.052.213.05.354.122v.416h-.02q-.15-.11-.362-.184-.213-.077-.418-.077-.213 0-.36.083-.146.08-.146.242 0 .142.088.215.087.072.282.117.107.025.24.05.134.025.223.046.27.062.417.212.147.153.147.406zM17.533 52.69q-.195.094-.37.145-.174.052-.37.052-.25 0-.46-.072-.208-.075-.357-.224-.15-.149-.233-.376-.083-.227-.083-.531 0-.567.31-.889.312-.322.823-.322.198 0 .388.055.192.056.352.137v.432h-.021q-.178-.139-.368-.213-.188-.075-.368-.075-.33 0-.523.224-.19.22-.19.65 0 .418.186.644.188.223.527.223.118 0 .24-.031t.219-.08q.085-.044.16-.092.074-.05.117-.084h.02zM20 51.682q0 .564-.289.89-.29.327-.775.327-.49 0-.78-.326-.286-.327-.286-.891 0-.565.287-.891.29-.329.78-.329.485 0 .774.329.29.326.29.89zm-.4 0q0-.449-.176-.666-.176-.219-.488-.219-.316 0-.492.22-.173.216-.173.665 0 .434.175.66.176.222.49.222.31 0 .486-.22.178-.224.178-.662zM23.974 52.835h-.389v-1.314q0-.15-.014-.288-.013-.138-.056-.221-.048-.089-.137-.134-.089-.046-.256-.046-.163 0-.327.083-.163.08-.326.207.006.047.01.111.004.062.004.124v1.478h-.388v-1.314q0-.153-.015-.29-.012-.138-.056-.221-.047-.089-.136-.132-.089-.046-.256-.046-.16 0-.32.079-.16.078-.32.2v1.724h-.388v-2.309h.389v.257q.182-.151.362-.236.182-.085.386-.085.236 0 .4.1.164.099.245.274.236-.198.43-.285.194-.089.415-.089.38 0 .56.232.183.23.183.643zM26.754 51.653q0 .281-.08.515-.081.231-.228.392-.137.153-.323.238-.184.083-.39.083-.18 0-.327-.04-.145-.039-.296-.122v.968h-.388v-3.16h.388v.241q.156-.13.348-.217.194-.089.413-.089.418 0 .65.316.233.315.233.875zm-.401.01q0-.417-.143-.624-.142-.207-.438-.207-.167 0-.337.073-.17.072-.325.19v1.308q.166.075.284.101.12.027.27.027.325 0 .507-.219t.182-.649zM29.274 52.835h-.39v-.256q-.195.155-.375.238-.18.082-.397.082-.364 0-.567-.22-.202-.224-.202-.654v-1.499h.389v1.315q0 .176.016.302.017.124.07.213.056.09.145.132.089.041.258.041.151 0 .33-.078.179-.079.334-.2v-1.725h.389zM31.237 52.815q-.11.028-.24.047-.128.019-.229.019-.353 0-.537-.19-.184-.19-.184-.61v-1.228h-.263v-.327h.263v-.663h.388v.663h.802v.327h-.802v1.052q0 .182.009.285.008.102.057.19.046.083.124.122.081.038.244.038.095 0 .199-.027.103-.03.149-.048h.02zM33.641 51.721H31.94q0 .213.064.372.064.157.176.259.107.099.254.148.149.05.327.05.235 0 .473-.093.24-.095.341-.186h.02v.424q-.196.082-.4.138-.205.056-.43.056-.575 0-.897-.31-.323-.312-.323-.885 0-.566.308-.899.31-.333.815-.333.467 0 .719.273.254.273.254.775zm-.378-.298q-.002-.306-.155-.473-.151-.167-.461-.167-.312 0-.498.184-.184.184-.209.456zM35.671 50.95h-.02q-.087-.02-.17-.029-.08-.01-.192-.01-.18 0-.348.08-.167.079-.322.205v1.64h-.389v-2.31h.389v.341q.231-.186.407-.262.178-.079.362-.079.101 0 .147.006.045.005.136.02zM45.432 51.558l-.34-.916h.387l.161.484q.098-.213.304-.36.207-.149.445-.149.252 0 .434.13.184.129.266.377.083.248.083.746v.965h-1.13v-.33h.731v-.643q0-.364-.025-.53-.022-.167-.122-.27-.097-.106-.246-.106-.231 0-.394.24-.162.238-.275.827l-.155.812h-.4l.174-.856q.025-.122.102-.421zM44.623 52.835h-.394v-1.188q0-.242-.054-.38-.054-.14-.215-.222-.161-.085-.463-.085-.176 0-.393.03v1.845h-.395V50.69q.443-.073.813-.073.405 0 .65.12.249.118.35.316.102.199.102.554zM40.053 50.642l.009.356q.012.547.047.758.22 0 .395-.11.176-.109.176-.415l.043-.589h.397l-.05.69q-.012.176-.039.267-.027.091-.112.192-.082.102-.264.178-.18.075-.486.1.052.223.24.357.188.134.463.134.254 0 .436-.12.182-.122.269-.312.087-.192.115-.545l.09-.941h.396l-.074.812q-.044.457-.155.761-.112.304-.389.492-.275.188-.71.188-.387 0-.65-.186-.26-.188-.39-.535-.129-.348-.129-.926l-.029-.606zM38.999 52.504h.35v.331H37.25v-.33h1.354v-.749q0-.306-.068-.459-.068-.155-.248-.246-.178-.09-.556-.09-.134 0-.416.028l-.033-.326q.28-.046.594-.046.59 0 .855.257.267.256.267.777zM51.257 50.121h-1.1v2.714h-.41v-2.714h-1.099v-.364h2.609zM53.574 52.835h-.389v-1.314q0-.16-.018-.298-.019-.14-.069-.22-.051-.086-.148-.127-.098-.044-.253-.044-.159 0-.332.079-.174.078-.333.2v1.724h-.389V49.62h.389v1.164q.182-.151.376-.236.194-.085.399-.085.374 0 .57.226.197.225.197.649zM56.255 51.721h-1.701q0 .213.064.372.064.157.175.259.108.099.255.148.148.05.326.05.236 0 .474-.093.24-.095.34-.186h.021v.424q-.196.082-.4.138-.205.056-.43.056-.575 0-.898-.31-.322-.312-.322-.885 0-.566.308-.899.31-.333.814-.333.467 0 .72.273.254.273.254.775zm-.378-.298q-.003-.306-.155-.473-.151-.167-.461-.167-.313 0-.499.184-.184.184-.208.456zM61.236 50.526l-.601 2.31h-.36l-.593-1.78-.59 1.78h-.357l-.607-2.31h.405l.423 1.788.577-1.788h.32l.592 1.788.4-1.788zM63.764 51.682q0 .564-.289.89-.29.327-.775.327-.49 0-.78-.326-.287-.327-.287-.891 0-.565.288-.891.289-.329.779-.329.486 0 .775.329.29.326.29.89zm-.4 0q0-.449-.176-.666-.176-.219-.488-.219-.316 0-.492.22-.174.216-.174.665 0 .434.176.66.176.222.49.222.31 0 .486-.22.177-.224.177-.662zM65.809 50.95h-.02q-.088-.02-.17-.029-.081-.01-.193-.01-.18 0-.347.08-.167.079-.322.205v1.64h-.389v-2.31h.389v.341q.231-.186.407-.262.178-.079.362-.079.1 0 .146.006.046.005.137.02zM68.052 52.835h-.39v-.242q-.167.145-.348.226-.182.08-.395.08-.414 0-.658-.318-.241-.318-.241-.883 0-.293.082-.523.085-.23.228-.39.14-.157.326-.24.188-.083.389-.083.182 0 .322.04.14.037.296.117v-1h.389zm-.39-.568v-1.325q-.156-.07-.28-.097-.124-.027-.271-.027-.327 0-.508.227-.182.228-.182.645 0 .411.14.626.14.213.45.213.166 0 .336-.072.17-.074.316-.19z"/></g><path d="M35.859 49.478H48.54v4.33H35.859zM.133 49.49h35.726v4.33H.132z" fill="none" stroke="#3d3d55" stroke-width=".282" stroke-linecap="round" stroke-dasharray=".28182084,.84546251" stroke-dashoffset=".185"/><path d="M59.095 48.316h-1.388v-.262h.534v-1.72h-.534v-.233q.109 0 .233-.018.124-.019.187-.053.08-.043.124-.109.047-.067.054-.179h.267v2.312h.523z" aria-label="1" font-weight="400" font-size="3.528" font-family="sans-serif" letter-spacing="0" word-spacing="0" fill="#3d3d55" stroke-width=".265"/><path d="M43.068 48.316h-1.736v-.36l.361-.31q.183-.155.34-.309.33-.32.453-.508.122-.19.122-.408 0-.2-.133-.312-.13-.114-.367-.114-.156 0-.339.056-.183.055-.357.168h-.017v-.361q.123-.06.326-.11.205-.05.396-.05.394 0 .618.19.224.19.224.516 0 .146-.038.274-.036.125-.108.239-.067.107-.159.21-.09.104-.218.23-.185.18-.381.35-.196.17-.367.314h1.38z" aria-label="2" font-weight="400" font-size="3.528" font-family="sans-serif" letter-spacing="0" word-spacing="0" fill="#3d3d55" stroke-width=".265"/><path d="M18.651 47.17q.083.074.136.186.054.112.054.29 0 .175-.064.321-.064.147-.18.255-.128.12-.304.18-.174.056-.383.056-.213 0-.42-.051-.207-.05-.34-.11v-.36h.027q.146.096.344.16.198.063.383.063.108 0 .23-.036.123-.036.198-.107.08-.075.118-.167.04-.091.04-.23 0-.138-.046-.228-.043-.091-.12-.143-.078-.053-.188-.072-.11-.02-.238-.02h-.155v-.287h.12q.263 0 .418-.108.157-.11.157-.32 0-.094-.04-.163-.04-.07-.11-.115-.074-.045-.159-.062-.084-.017-.191-.017-.164 0-.348.058-.184.059-.348.166h-.017v-.36q.122-.06.325-.11.205-.052.397-.052.187 0 .33.034.143.035.259.11.124.083.187.2.064.117.064.274 0 .214-.151.374-.15.158-.355.2v.024q.082.014.19.058.106.043.18.109z" aria-label="3" font-weight="400" font-size="3.528" font-family="sans-serif" letter-spacing="0" word-spacing="0" fill="#3d3d55" stroke-width=".265"/><path d="M53.49 60.409v10.583" fill="none" stroke="#000" stroke-width=".265" marker-end="url(#b)" transform="translate(-19.586 -28.51)"/></svg>