<svg xmlns="http://www.w3.org/2000/svg" viewBox="0 0 86.098 39.855" height="150.633" width="325.41"><defs><marker orient="auto" refY="0" refX="0" id="a" overflow="visible"><path d="M-5.231-2.42L1.324-.01-5.23 2.401c1.047-1.423 1.041-3.37 0-4.821z" fill="#3d3d55" fill-rule="evenodd" stroke="#3d3d55" stroke-width=".375" stroke-linejoin="round"/></marker></defs><path d="M11.38 19.583h44.979v5.292h-44.98zM11.38 24.875h44.979v5.292h-44.98zM11.38 30.167h11.906v5.291H11.38zM32.546 14.292h15.875v5.291H32.546z" fill="#dfdff9"/><g style="line-height:1.25" aria-label="This is the first sentence. This is the second sentence, with some important info. This is the third sentence." font-weight="400" font-size="4.233" font-family="sans-serif" letter-spacing="0" word-spacing="0" stroke-width=".265"><path d="M13.765 10.618h-1.1v2.714h-.409v-2.714h-1.1v-.363h2.61zM16.082 13.332h-.388v-1.314q0-.16-.019-.298-.019-.14-.068-.219-.052-.087-.149-.128-.097-.043-.252-.043-.16 0-.333.078-.174.079-.333.2v1.724h-.388v-3.216h.388v1.164q.182-.151.376-.236.195-.084.4-.084.373 0 .57.225.196.225.196.649zM17.248 10.637h-.438v-.403h.438zm-.025 2.695h-.388v-2.308h.388zM19.646 12.667q0 .316-.263.519-.26.202-.713.202-.256 0-.471-.06-.213-.062-.358-.134v-.436h.021q.184.138.41.221.225.08.431.08.257 0 .401-.082.145-.083.145-.26 0-.137-.079-.207-.078-.07-.301-.12-.083-.019-.217-.043-.133-.025-.242-.054-.304-.08-.432-.236-.126-.157-.126-.384 0-.143.058-.27.06-.125.18-.224.115-.098.293-.153.18-.058.4-.058.208 0 .418.051.213.05.354.122v.416h-.02q-.15-.11-.363-.184-.212-.077-.417-.077-.213 0-.36.083-.146.08-.146.242 0 .143.088.215.087.072.282.118.107.025.24.05.134.024.223.045.27.062.417.213.147.153.147.405zM22.11 10.637h-.438v-.403h.438zm-.025 2.695h-.389v-2.308h.389zM24.508 12.667q0 .316-.263.519-.26.202-.713.202-.256 0-.471-.06-.213-.062-.358-.134v-.436h.02q.185.138.41.221.225.08.432.08.256 0 .401-.082.145-.083.145-.26 0-.137-.079-.207-.078-.07-.302-.12-.082-.019-.217-.043-.132-.025-.242-.054-.303-.08-.432-.236-.126-.157-.126-.384 0-.143.058-.27.06-.125.18-.224.116-.098.294-.153.18-.058.4-.058.207 0 .418.051.213.05.354.122v.416h-.021q-.149-.11-.362-.184-.213-.077-.417-.077-.213 0-.36.083-.147.08-.147.242 0 .143.09.215.086.072.28.118.108.025.24.05.134.024.223.045.271.062.418.213.147.153.147.405zM27.753 13.312q-.11.029-.24.047-.128.019-.23.019-.353 0-.537-.19-.184-.19-.184-.61V11.35H26.3v-.326h.262v-.664h.389v.664h.802v.326h-.802v1.052q0 .182.008.286.008.1.058.19.045.082.124.122.08.037.244.037.095 0 .198-.027.104-.029.15-.047h.02zM30.155 13.332h-.389v-1.314q0-.16-.018-.298-.019-.14-.069-.219-.051-.087-.148-.128-.098-.043-.253-.043-.159 0-.332.078-.174.079-.333.2v1.724h-.389v-3.216h.389v1.164q.182-.151.376-.236.194-.084.399-.084.374 0 .57.225.197.225.197.649zM32.836 12.218h-1.701q0 .213.064.372.064.158.175.259.108.099.255.149.148.05.326.05.236 0 .474-.094.24-.095.34-.186h.021v.424q-.196.083-.4.138-.205.056-.43.056-.575 0-.898-.31-.322-.312-.322-.885 0-.566.308-.899.31-.332.814-.332.467 0 .72.272.254.273.254.776zm-.379-.297q-.002-.306-.155-.474-.15-.167-.46-.167-.313 0-.499.184-.184.184-.208.457zM36.155 10.492h-.02q-.064-.018-.168-.037-.103-.02-.182-.02-.25 0-.363.111-.112.11-.112.399v.079h.7v.326h-.688v1.982h-.388V11.35h-.263v-.326h.263v-.077q0-.411.204-.63.205-.222.592-.222.13 0 .233.013.106.012.192.029zM36.819 10.637h-.438v-.403h.438zm-.025 2.695h-.388v-2.308h.388zM39.008 11.447h-.02q-.088-.02-.17-.029-.08-.01-.192-.01-.18 0-.348.08-.167.08-.322.205v1.64h-.389v-2.31h.389v.342q.231-.186.407-.263.178-.078.362-.078.101 0 .147.006.045.004.136.018zM41.027 12.667q0 .316-.262.519-.26.202-.713.202-.256 0-.471-.06-.213-.062-.358-.134v-.436h.02q.185.138.41.221.225.08.432.08.256 0 .4-.082.146-.083.146-.26 0-.137-.079-.207-.078-.07-.302-.12-.082-.019-.217-.043-.132-.025-.242-.054-.303-.08-.432-.236-.126-.157-.126-.384 0-.143.058-.27.06-.125.18-.224.116-.098.294-.153.18-.058.4-.058.207 0 .418.051.213.05.354.122v.416h-.021q-.149-.11-.362-.184-.213-.077-.417-.077-.213 0-.36.083-.147.08-.147.242 0 .143.089.215.087.072.281.118.108.025.24.05.134.024.223.045.271.062.418.213.146.153.146.405zM42.784 13.312q-.11.029-.24.047-.127.019-.229.019-.353 0-.537-.19-.184-.19-.184-.61V11.35h-.263v-.326h.263v-.664h.388v.664h.802v.326h-.802v1.052q0 .182.009.286.008.1.058.19.045.082.124.122.08.037.244.037.095 0 .198-.027.103-.029.149-.047h.02zM13.188 17.959q0 .316-.262.518-.26.203-.713.203-.257 0-.472-.06-.212-.062-.357-.134v-.436h.02q.184.138.41.22.225.081.432.081.256 0 .4-.082.145-.083.145-.26 0-.137-.078-.208-.079-.07-.302-.12-.083-.018-.217-.043-.132-.025-.242-.054-.304-.08-.432-.235-.126-.157-.126-.385 0-.142.058-.268.06-.126.18-.226.116-.097.293-.153.18-.058.401-.058.207 0 .418.052.213.05.353.122v.416h-.02q-.15-.11-.362-.184-.213-.077-.418-.077-.212 0-.36.083-.146.08-.146.242 0 .142.089.215.087.072.281.117.108.025.24.05.134.025.223.046.27.062.418.212.146.153.146.406zM15.68 17.51h-1.702q0 .213.064.372.064.157.176.258.107.1.254.15.149.049.327.049.235 0 .473-.093.24-.095.341-.186h.02v.424q-.196.082-.4.138-.205.056-.43.056-.575 0-.897-.31-.323-.312-.323-.885 0-.566.308-.899.31-.333.815-.333.467 0 .719.273.254.273.254.775zm-.38-.298q-.001-.306-.154-.473-.151-.167-.461-.167-.312 0-.498.184-.184.184-.209.456zM18.199 18.624h-.389V17.31q0-.16-.018-.298-.019-.14-.069-.22-.051-.086-.148-.127-.097-.044-.253-.044-.159 0-.332.079-.174.078-.333.2v1.724h-.389v-2.309h.389v.257q.182-.151.376-.236.194-.085.399-.085.374 0 .57.225.197.226.197.65zM20.146 18.603q-.11.03-.24.048-.128.019-.23.019-.353 0-.537-.19-.184-.19-.184-.61v-1.228h-.262v-.327h.262v-.663h.389v.663h.802v.327h-.802v1.052q0 .182.008.285.009.102.058.19.046.083.124.122.08.038.244.038.095 0 .199-.027.103-.03.148-.048h.021zM22.55 17.51H20.85q0 .213.064.372.064.157.176.258.107.1.254.15.149.049.326.049.236 0 .474-.093.24-.095.34-.186h.022v.424q-.197.082-.401.138-.205.056-.43.056-.575 0-.897-.31-.323-.312-.323-.885 0-.566.308-.899.31-.333.814-.333.468 0 .72.273.254.273.254.775zm-.378-.298q-.002-.306-.155-.473-.151-.167-.461-.167-.312 0-.498.184-.184.184-.21.456zM25.07 18.624h-.389V17.31q0-.16-.018-.298-.019-.14-.069-.22-.051-.086-.148-.127-.098-.044-.253-.044-.159 0-.332.079-.174.078-.333.2v1.724h-.389v-2.309h.389v.257q.182-.151.376-.236.194-.085.399-.085.374 0 .57.225.197.226.197.65zM27.525 18.48q-.194.092-.37.144-.173.052-.37.052-.25 0-.458-.073-.21-.074-.358-.223-.15-.149-.234-.376-.082-.227-.082-.531 0-.567.31-.889.312-.322.822-.322.199 0 .39.055.191.056.35.137v.432h-.02q-.178-.139-.368-.213-.188-.075-.368-.075-.33 0-.523.224-.19.22-.19.65 0 .418.186.644.188.223.527.223.118 0 .24-.031t.219-.08q.085-.044.159-.092.074-.05.118-.084h.02zM29.958 17.51h-1.7q0 .213.063.372.064.157.176.258.107.1.254.15.15.049.327.049.235 0 .473-.093.24-.095.341-.186h.02v.424q-.195.082-.4.138-.205.056-.43.056-.575 0-.897-.31-.323-.312-.323-.885 0-.566.308-.899.31-.333.815-.333.467 0 .72.273.253.273.253.775zm-.378-.298q-.002-.306-.155-.473-.15-.167-.46-.167-.313 0-.499.184-.184.184-.209.456zM31.182 18.624h-.494v-.589h.494zM37.288 15.91h-1.1v2.714h-.409V15.91h-1.1v-.364h2.61zM39.605 18.624h-.388V17.31q0-.16-.019-.298-.018-.14-.068-.22-.052-.086-.149-.127-.097-.044-.252-.044-.16 0-.333.079-.174.078-.333.2v1.724h-.388v-3.216h.388v1.164q.182-.151.377-.236.194-.085.398-.085.375 0 .571.225.196.226.196.65zM40.771 15.929h-.438v-.403h.438zm-.025 2.695h-.388v-2.309h.388zM43.169 17.959q0 .316-.263.518-.26.203-.713.203-.256 0-.471-.06-.213-.062-.358-.134v-.436h.021q.184.138.41.22.225.081.431.081.257 0 .401-.082.145-.083.145-.26 0-.137-.078-.208-.079-.07-.302-.12-.083-.018-.217-.043-.133-.025-.242-.054-.304-.08-.432-.235-.126-.157-.126-.385 0-.142.058-.268.06-.126.18-.226.115-.097.293-.153.18-.058.401-.058.207 0 .418.052.212.05.353.122v.416h-.02q-.15-.11-.362-.184-.213-.077-.418-.077-.213 0-.36.083-.146.08-.146.242 0 .142.089.215.086.072.28.117.108.025.24.05.135.025.224.046.27.062.417.212.147.153.147.406zM45.633 15.929h-.438v-.403h.438zm-.025 2.695h-.389v-2.309h.39zM48.03 17.959q0 .316-.262.518-.26.203-.713.203-.256 0-.471-.06-.213-.062-.358-.134v-.436h.02q.185.138.41.22.225.081.432.081.256 0 .401-.082.145-.083.145-.26 0-.137-.079-.208-.078-.07-.302-.12-.082-.018-.217-.043-.132-.025-.241-.054-.304-.08-.432-.235-.127-.157-.127-.385 0-.142.058-.268.06-.126.18-.226.116-.097.294-.153.18-.058.4-.058.207 0 .418.052.213.05.354.122v.416h-.021q-.149-.11-.362-.184-.213-.077-.417-.077-.213 0-.36.083-.147.08-.147.242 0 .142.09.215.086.072.28.117.108.025.24.05.134.025.223.046.271.062.418.212.147.153.147.406zM12.738 23.895q-.11.03-.24.048-.128.018-.23.018-.353 0-.537-.19-.184-.19-.184-.61v-1.227h-.262v-.327h.262v-.664h.389v.664h.802v.327h-.802v1.052q0 .182.008.285.008.101.058.19.045.083.124.122.08.037.244.037.095 0 .198-.027.104-.029.15-.047h.02zM15.14 23.916h-.389V22.6q0-.159-.019-.297-.018-.141-.068-.22-.051-.086-.149-.128-.097-.043-.252-.043-.159 0-.333.078-.173.079-.332.2v1.725h-.389v-3.217h.389v1.164q.182-.15.376-.235.194-.085.399-.085.374 0 .57.225.197.225.197.65zM17.82 22.802h-1.7q0 .213.064.372.064.157.175.258.108.1.254.149.15.05.327.05.236 0 .473-.093.24-.096.341-.186h.021v.423q-.196.083-.4.139-.205.056-.43.056-.575 0-.898-.31-.322-.313-.322-.885 0-.567.308-.9.31-.332.814-.332.467 0 .72.273.254.273.254.775zm-.378-.298q-.002-.306-.155-.473-.15-.168-.46-.168-.313 0-.499.184-.184.184-.209.457zM21.548 23.25q0 .317-.263.52-.26.202-.713.202-.256 0-.471-.06-.213-.062-.358-.135v-.436h.02q.185.139.41.221.225.081.432.081.256 0 .401-.083.145-.082.145-.26 0-.137-.079-.207-.078-.07-.302-.12-.082-.018-.217-.043-.132-.025-.242-.054-.303-.08-.432-.236-.126-.157-.126-.384 0-.143.058-.269.06-.126.18-.225.116-.097.294-.153.18-.058.4-.058.207 0 .418.052.213.05.354.122v.415h-.021q-.149-.11-.362-.184-.213-.076-.417-.076-.213 0-.36.082-.147.081-.147.242 0 .143.09.215.086.073.28.118.108.025.24.05.134.025.223.045.271.062.418.213.147.153.147.405zM24.038 22.802h-1.7q0 .213.063.372.064.157.176.258.107.1.254.149.149.05.327.05.235 0 .473-.093.24-.096.341-.186h.02v.423q-.196.083-.4.139-.205.056-.43.056-.575 0-.897-.31-.323-.313-.323-.885 0-.567.308-.9.31-.332.815-.332.467 0 .72.273.253.273.253.775zm-.378-.298q-.002-.306-.155-.473-.15-.168-.46-.168-.313 0-.5.184-.183.184-.208.457zM26.335 23.771q-.194.093-.37.145-.174.052-.37.052-.25 0-.46-.073-.208-.074-.357-.223-.15-.149-.233-.376-.083-.228-.083-.532 0-.566.31-.888.312-.323.823-.323.198 0 .388.056.193.056.352.136v.432h-.02q-.179-.138-.369-.212-.188-.075-.368-.075-.33 0-.523.223-.19.222-.19.651 0 .418.186.643.188.224.527.224.118 0 .24-.031t.22-.081q.084-.043.158-.091.075-.05.118-.085h.02zM28.803 22.762q0 .565-.29.891-.289.327-.775.327-.49 0-.779-.327-.287-.326-.287-.89 0-.565.287-.891.29-.33.78-.33.485 0 .775.33.289.326.289.89zm-.401 0q0-.448-.176-.665-.176-.22-.488-.22-.316 0-.492.22-.173.217-.173.665 0 .434.175.66.176.223.49.223.31 0 .486-.221.178-.223.178-.662zM31.337 23.916h-.388V22.6q0-.159-.02-.297-.018-.141-.067-.22-.052-.086-.15-.128-.096-.043-.251-.043-.16 0-.333.078-.174.079-.333.2v1.725h-.389v-2.31h.39v.257q.181-.15.375-.235.195-.085.4-.085.373 0 .57.225.196.225.196.65zM33.958 23.916h-.388v-.242q-.168.145-.35.225-.182.08-.395.08-.413 0-.657-.317-.242-.319-.242-.883 0-.294.083-.523.085-.23.227-.39.14-.158.327-.24.188-.083.388-.083.182 0 .323.04.14.036.296.117v-1h.388zm-.388-.569v-1.325q-.158-.07-.282-.097-.124-.027-.27-.027-.327 0-.509.228-.182.227-.182.645 0 .411.14.626.141.213.451.213.166 0 .335-.072.17-.075.317-.19zM37.86 23.25q0 .317-.262.52-.26.202-.713.202-.256 0-.471-.06-.213-.062-.358-.135v-.436h.02q.185.139.41.221.225.081.432.081.256 0 .401-.083.145-.082.145-.26 0-.137-.079-.207-.078-.07-.301-.12-.083-.018-.218-.043-.132-.025-.241-.054-.304-.08-.432-.236-.126-.157-.126-.384 0-.143.057-.269.06-.126.18-.225.116-.097.294-.153.18-.058.4-.058.207 0 .418.052.213.05.354.122v.415h-.02q-.15-.11-.363-.184-.213-.076-.417-.076-.213 0-.36.082-.147.081-.147.242 0 .143.09.215.086.073.28.118.108.025.24.05.135.025.223.045.271.062.418.213.147.153.147.405zM40.352 22.802H38.65q0 .213.064.372.065.157.176.258.108.1.254.149.15.05.327.05.236 0 .473-.093.24-.096.341-.186h.021v.423q-.196.083-.4.139-.206.056-.43.056-.576 0-.898-.31-.322-.313-.322-.885 0-.567.308-.9.31-.332.814-.332.467 0 .72.273.254.273.254.775zm-.379-.298q-.002-.306-.155-.473-.15-.168-.46-.168-.313 0-.499.184-.184.184-.209.457zM42.871 23.916h-.388V22.6q0-.159-.019-.297-.019-.141-.068-.22-.052-.086-.149-.128-.097-.043-.252-.043-.16 0-.333.078-.174.079-.333.2v1.725h-.388v-2.31h.388v.257q.182-.15.376-.235.195-.085.4-.085.374 0 .57.225.196.225.196.65zM44.818 23.895q-.11.03-.24.048-.127.018-.229.018-.353 0-.537-.19-.184-.19-.184-.61v-1.227h-.263v-.327h.263v-.664h.388v.664h.802v.327h-.802v1.052q0 .182.009.285.008.101.058.19.045.083.124.122.08.037.244.037.095 0 .198-.027.103-.029.149-.047h.02zM47.222 22.802h-1.7q0 .213.063.372.064.157.176.258.108.1.254.149.15.05.327.05.236 0 .473-.093.24-.096.341-.186h.021v.423q-.196.083-.401.139-.205.056-.43.056-.575 0-.897-.31-.323-.313-.323-.885 0-.567.308-.9.31-.332.815-.332.467 0 .72.273.253.273.253.775zm-.378-.298q-.002-.306-.155-.473-.15-.168-.46-.168-.313 0-.499.184-.184.184-.209.457zM49.742 23.916h-.388V22.6q0-.159-.019-.297-.019-.141-.068-.22-.052-.086-.15-.128-.096-.043-.251-.043-.16 0-.333.078-.174.079-.333.2v1.725h-.388v-2.31h.388v.257q.182-.15.376-.235.195-.085.4-.085.373 0 .57.225.196.225.196.65zM52.198 23.771q-.194.093-.37.145-.174.052-.37.052-.25 0-.459-.073-.209-.074-.358-.223-.15-.149-.233-.376-.083-.228-.083-.532 0-.566.31-.888.312-.323.823-.323.198 0 .388.056.193.056.352.136v.432h-.02q-.179-.138-.369-.212-.188-.075-.368-.075-.33 0-.523.223-.19.222-.19.651 0 .418.186.643.188.224.527.224.118 0 .24-.031t.22-.081q.084-.043.158-.091.075-.05.118-.085h.02zM54.63 22.802h-1.7q0 .213.064.372.064.157.175.258.108.1.255.149.148.05.326.05.236 0 .474-.093.24-.096.34-.186h.021v.423q-.196.083-.4.139-.205.056-.43.056-.575 0-.898-.31-.322-.313-.322-.885 0-.567.308-.9.31-.332.814-.332.467 0 .72.273.254.273.254.775zm-.377-.298q-.003-.306-.156-.473-.15-.168-.46-.168-.313 0-.499.184-.184.184-.208.457zM56.026 23.327l-.583 1.354h-.302l.36-1.354zM14.443 26.899l-.601 2.308h-.36l-.593-1.78-.59 1.78h-.357l-.608-2.308h.405l.424 1.788.577-1.788h.32l.591 1.788.401-1.788zM15.42 26.512h-.437v-.403h.438zm-.024 2.695h-.389V26.9h.389zM17.368 29.187q-.11.029-.24.047-.128.019-.23.019-.353 0-.537-.19-.184-.19-.184-.61v-1.228h-.262V26.9h.262v-.664h.389v.664h.802v.326h-.802v1.052q0 .182.008.286.009.1.058.19.046.082.124.122.08.037.244.037.095 0 .198-.027.104-.029.15-.047h.02zM19.77 29.207h-.389v-1.314q0-.16-.018-.298-.019-.14-.069-.219-.051-.087-.148-.128-.098-.043-.253-.043-.159 0-.332.078-.174.079-.333.2v1.724h-.389v-3.216h.389v1.164q.182-.151.376-.236.194-.084.399-.084.374 0 .57.225.197.225.197.649zM23.656 28.542q0 .316-.263.519-.26.202-.713.202-.256 0-.471-.06-.213-.062-.358-.134v-.436h.021q.184.138.41.221.225.08.431.08.257 0 .401-.082.145-.083.145-.26 0-.137-.078-.207-.079-.07-.302-.12-.083-.019-.217-.043-.133-.025-.242-.054-.304-.08-.432-.236-.126-.157-.126-.384 0-.143.058-.27.06-.125.18-.224.115-.098.293-.153.18-.058.401-.058.207 0 .418.051.212.05.353.122v.416h-.02q-.15-.11-.362-.184-.213-.077-.418-.077-.213 0-.36.083-.146.08-.146.242 0 .143.088.215.087.072.282.118.107.025.24.05.134.024.223.045.27.062.417.213.147.153.147.405zM26.182 28.054q0 .564-.29.891-.289.327-.775.327-.49 0-.779-.327-.287-.327-.287-.89 0-.565.287-.892.29-.328.78-.328.485 0 .774.328.29.327.29.891zm-.401 0q0-.448-.176-.666-.176-.219-.488-.219-.316 0-.492.22-.173.217-.173.665 0 .434.175.66.176.223.49.223.31 0 .486-.221.178-.224.178-.662zM30.155 29.207h-.389v-1.314q0-.149-.014-.287-.013-.139-.056-.222-.048-.089-.137-.134-.088-.045-.256-.045-.163 0-.326.082-.164.08-.327.207.006.047.01.112.004.062.004.124v1.478h-.388v-1.315q0-.153-.015-.29-.012-.138-.056-.22-.047-.09-.136-.133-.089-.045-.256-.045-.16 0-.32.078-.16.079-.319.2v1.725h-.389v-2.31h.39v.257q.181-.151.36-.236.183-.084.387-.084.236 0 .4.099.165.099.245.275.236-.199.43-.286.195-.088.416-.088.38 0 .56.231.182.23.182.643zM32.836 28.093h-1.701q0 .213.064.372.064.158.175.259.108.099.255.149.148.05.326.05.236 0 .474-.094.24-.095.34-.186h.021v.424q-.196.083-.4.138-.205.056-.43.056-.575 0-.898-.31-.322-.312-.322-.885 0-.566.308-.899.31-.332.814-.332.467 0 .72.272.254.273.254.776zm-.379-.297q-.002-.306-.155-.474-.15-.167-.46-.167-.313 0-.499.184-.184.184-.208.457zM35.33 26.512h-.438v-.403h.439zm-.024 2.695h-.389V26.9h.389zM39.448 29.207h-.388v-1.314q0-.149-.015-.287-.012-.139-.056-.222-.047-.089-.136-.134-.089-.045-.256-.045-.164 0-.327.082-.163.08-.327.207.007.047.01.112.005.062.005.124v1.478h-.389v-1.315q0-.153-.014-.29-.013-.138-.056-.22-.048-.09-.136-.133-.09-.045-.257-.045-.159 0-.32.078-.16.079-.318.2v1.725h-.39v-2.31h.39v.257q.181-.151.361-.236.182-.084.387-.084.235 0 .399.099.165.099.246.275.235-.199.43-.286.194-.088.415-.088.38 0 .56.231.182.23.182.643zM42.228 28.025q0 .281-.08.515-.08.231-.228.393-.136.153-.322.237-.184.083-.39.083-.18 0-.327-.04-.145-.039-.296-.121v.967h-.388V26.9h.388v.241q.155-.13.347-.217.195-.088.414-.088.417 0 .649.316.233.314.233.874zm-.4.01q0-.417-.143-.624-.143-.206-.438-.206-.168 0-.337.072-.17.072-.325.19v1.308q.165.075.283.102.12.027.271.027.325 0 .507-.22.181-.219.181-.649zM44.802 28.054q0 .564-.29.891-.289.327-.775.327-.49 0-.779-.327-.287-.327-.287-.89 0-.565.287-.892.29-.328.78-.328.485 0 .775.328.289.327.289.891zm-.401 0q0-.448-.176-.666-.175-.219-.488-.219-.316 0-.492.22-.173.217-.173.665 0 .434.175.66.176.223.49.223.31 0 .486-.221.178-.224.178-.662zM46.846 27.322h-.02q-.087-.02-.17-.029-.08-.01-.192-.01-.18 0-.347.08-.168.08-.323.205v1.64h-.388v-2.31h.388v.342q.232-.186.407-.263.178-.078.362-.078.101 0 .147.006.045.004.136.018zM48.415 29.187q-.11.029-.24.047-.128.019-.23.019-.353 0-.537-.19-.183-.19-.183-.61v-1.228h-.263V26.9h.263v-.664h.388v.664h.802v.326h-.802v1.052q0 .182.008.286.009.1.058.19.046.082.124.122.08.037.244.037.095 0 .199-.027.103-.029.149-.047h.02zM50.68 29.207h-.386v-.245q-.052.035-.14.099-.087.062-.17.099-.097.047-.223.079-.126.033-.296.033-.312 0-.529-.207-.217-.207-.217-.527 0-.263.112-.424.113-.163.322-.256.21-.093.507-.126.295-.033.634-.05v-.06q0-.132-.047-.219-.046-.087-.133-.136-.082-.048-.198-.065-.116-.016-.242-.016-.153 0-.341.041-.188.04-.389.116h-.02v-.395q.113-.03.328-.068.215-.037.424-.037.244 0 .424.041.182.04.314.137.13.095.198.246.069.15.069.374zm-.386-.568v-.643q-.178.01-.42.031-.24.02-.38.06-.167.048-.27.149-.104.1-.104.275 0 .198.12.3.12.099.366.099.204 0 .374-.079.17-.08.314-.192zM53.364 29.207h-.389v-1.314q0-.16-.019-.298-.018-.14-.068-.219-.051-.087-.149-.128-.097-.043-.252-.043-.159 0-.333.078-.173.079-.332.2v1.724h-.389V26.9h.389v.256q.182-.151.376-.236.194-.084.399-.084.374 0 .57.225.197.225.197.649zM55.31 29.187q-.109.029-.239.047-.128.019-.23.019-.353 0-.537-.19-.184-.19-.184-.61v-1.228h-.262V26.9h.262v-.664h.389v.664h.802v.326h-.802v1.052q0 .182.008.286.008.1.058.19.045.082.124.122.08.037.244.037.095 0 .198-.027.104-.029.15-.047h.02zM11.956 31.804h-.438V31.4h.438zm-.024 2.695h-.389V32.19h.389zM14.635 34.5h-.388v-1.315q0-.16-.019-.298-.019-.14-.068-.22-.052-.086-.149-.127-.097-.044-.252-.044-.16 0-.333.079-.174.078-.333.2V34.5h-.388V32.19h.388v.257q.182-.151.376-.236.195-.085.4-.085.374 0 .57.225.196.226.196.65zM16.626 31.659h-.02q-.065-.019-.168-.037-.104-.02-.182-.02-.25 0-.364.11-.112.11-.112.4v.078h.701v.327h-.688v1.982h-.389v-1.982h-.262v-.327h.262v-.076q0-.412.205-.63.205-.222.591-.222.13 0 .234.013.105.012.192.028zM18.84 33.346q0 .564-.29.89-.29.327-.775.327-.49 0-.78-.326-.286-.327-.286-.891 0-.565.287-.891.29-.329.78-.329.485 0 .774.329.29.326.29.89zm-.401 0q0-.449-.176-.666-.176-.219-.488-.219-.316 0-.492.22-.173.216-.173.665 0 .434.175.66.176.222.49.222.31 0 .486-.22.178-.224.178-.662zM20.037 34.5h-.495v-.59h.495zM27.73 31.785h-1.1V34.5h-.409v-2.714h-1.1v-.364h2.61zM30.047 34.5h-.388v-1.315q0-.16-.019-.298-.019-.14-.068-.22-.052-.086-.149-.127-.097-.044-.252-.044-.16 0-.333.079-.174.078-.333.2V34.5h-.388v-3.216h.388v1.164q.182-.151.376-.236.195-.085.4-.085.374 0 .57.225.196.226.196.65zM31.213 31.804h-.438V31.4h.438zm-.025 2.695H30.8V32.19h.388zM33.61 33.834q0 .316-.262.518-.26.203-.713.203-.256 0-.471-.06-.213-.062-.358-.134v-.436h.021q.184.138.41.22.225.081.431.081.257 0 .401-.082.145-.083.145-.26 0-.137-.079-.208-.078-.07-.301-.12-.083-.018-.217-.043-.133-.025-.242-.054-.304-.08-.432-.235-.126-.157-.126-.385 0-.142.058-.268.06-.126.18-.226.115-.097.293-.153.18-.058.4-.058.208 0 .418.052.213.05.354.122v.416h-.02q-.15-.11-.362-.184-.213-.077-.418-.077-.213 0-.36.083-.146.08-.146.242 0 .142.088.215.087.072.282.117.107.025.24.05.134.025.223.046.27.062.417.212.147.153.147.406zM36.075 31.804h-.438V31.4h.438zm-.025 2.695h-.389V32.19h.389zM38.473 33.834q0 .316-.263.518-.26.203-.713.203-.256 0-.471-.06-.213-.062-.358-.134v-.436h.02q.185.138.41.22.225.081.432.081.256 0 .401-.082.145-.083.145-.26 0-.137-.079-.208-.078-.07-.302-.12-.082-.018-.217-.043-.132-.025-.242-.054-.303-.08-.432-.235-.126-.157-.126-.385 0-.142.058-.268.06-.126.18-.226.116-.097.294-.153.18-.058.4-.058.207 0 .418.052.213.05.354.122v.416h-.021q-.149-.11-.362-.184-.213-.077-.417-.077-.213 0-.36.083-.147.08-.147.242 0 .142.09.215.086.072.28.117.108.025.24.05.134.025.223.046.271.062.418.212.147.153.147.406zM41.718 34.478q-.11.03-.24.048-.128.019-.23.019-.353 0-.537-.19-.184-.19-.184-.61v-1.228h-.262v-.327h.262v-.663h.389v.663h.802v.327h-.802v1.052q0 .182.008.285.008.102.058.19.046.083.124.122.08.038.244.038.095 0 .198-.027.104-.03.15-.048h.02zM44.12 34.5h-.389v-1.315q0-.16-.018-.298-.019-.14-.069-.22-.051-.086-.148-.127-.098-.044-.253-.044-.159 0-.332.079-.174.078-.333.2V34.5h-.389v-3.216h.389v1.164q.182-.151.376-.236.194-.085.399-.085.374 0 .57.225.197.226.197.65zM46.8 33.385h-1.7q0 .213.064.372.064.157.175.258.108.1.255.15.148.049.326.049.236 0 .474-.093.24-.095.34-.186h.021v.424q-.196.082-.4.138-.205.056-.43.056-.575 0-.898-.31-.322-.312-.322-.885 0-.566.308-.899.31-.333.814-.333.467 0 .72.273.254.273.254.775zm-.378-.298q-.002-.306-.155-.473-.15-.167-.46-.167-.313 0-.499.184-.184.184-.208.456zM12.738 39.77q-.11.03-.24.048-.128.018-.23.018-.353 0-.537-.19-.184-.19-.184-.61V37.81h-.262v-.327h.262v-.664h.389v.664h.802v.327h-.802v1.052q0 .182.008.285.008.101.058.19.045.083.124.122.08.037.244.037.095 0 .198-.027.104-.029.15-.047h.02zM15.14 39.79h-.389v-1.314q0-.159-.019-.297-.018-.141-.068-.22-.051-.086-.149-.128-.097-.043-.252-.043-.159 0-.333.078-.173.079-.332.2v1.725h-.389v-3.217h.389v1.164q.182-.15.376-.235.194-.085.399-.085.374 0 .57.225.197.225.197.65zM16.305 37.095h-.438v-.403h.438zm-.024 2.696h-.389v-2.31h.389zM18.494 37.906h-.02q-.087-.021-.17-.03-.08-.01-.192-.01-.18 0-.347.081-.168.079-.323.205v1.639h-.388v-2.31h.388v.342q.232-.186.408-.263.177-.078.361-.078.102 0 .147.006.046.004.136.019zM20.737 39.79h-.388v-.241q-.168.145-.35.225-.182.08-.395.08-.413 0-.657-.317-.242-.319-.242-.883 0-.294.083-.523.085-.23.227-.39.14-.158.327-.24.188-.083.389-.083.181 0 .322.04.14.036.296.117v-1h.388zm-.388-.568v-1.325q-.157-.07-.281-.097-.125-.027-.271-.027-.327 0-.509.228-.182.227-.182.645 0 .411.14.626.141.213.452.213.165 0 .334-.072.17-.075.317-.19zM24.64 39.125q0 .316-.263.52-.26.202-.713.202-.256 0-.471-.06-.213-.062-.358-.135v-.436h.021q.184.139.41.221.225.081.431.081.257 0 .401-.083.145-.082.145-.26 0-.137-.079-.207-.078-.07-.301-.12-.083-.018-.217-.043-.133-.025-.242-.054-.304-.08-.432-.236-.126-.157-.126-.384 0-.143.058-.269.06-.126.18-.225.115-.097.293-.153.18-.058.4-.058.208 0 .418.052.213.05.354.122v.415h-.02q-.15-.11-.363-.184-.212-.076-.417-.076-.213 0-.36.082-.146.081-.146.242 0 .143.088.215.087.073.282.118.107.025.24.05.134.025.223.045.27.062.417.213.147.153.147.405zM27.13 38.677h-1.7q0 .213.064.372.064.157.175.258.108.1.254.149.15.05.327.05.236 0 .473-.093.24-.096.342-.186h.02v.423q-.196.083-.4.139-.205.056-.43.056-.575 0-.898-.31-.322-.313-.322-.885 0-.567.308-.9.31-.332.814-.332.467 0 .72.273.254.273.254.775zm-.378-.298q-.002-.306-.155-.473-.15-.168-.46-.168-.313 0-.499.184-.184.184-.209.457zM29.65 39.79h-.388v-1.314q0-.159-.019-.297-.018-.141-.068-.22-.052-.086-.149-.128-.097-.043-.252-.043-.16 0-.333.078-.173.079-.333.2v1.725h-.388v-2.31h.388v.257q.182-.15.377-.235.194-.085.399-.085.374 0 .57.225.196.225.196.65zM31.598 39.77q-.11.03-.24.048-.128.018-.23.018-.353 0-.537-.19-.184-.19-.184-.61V37.81h-.263v-.327h.263v-.664h.389v.664h.802v.327h-.802v1.052q0 .182.008.285.008.101.058.19.045.083.124.122.08.037.244.037.095 0 .198-.027.103-.029.149-.047h.02zM34.002 38.677H32.3q0 .213.064.372.065.157.176.258.108.1.254.149.15.05.327.05.236 0 .473-.093.24-.096.341-.186h.021v.423q-.196.083-.4.139-.206.056-.43.056-.576 0-.898-.31-.322-.313-.322-.885 0-.567.308-.9.31-.332.814-.332.467 0 .72.273.254.273.254.775zm-.379-.298q-.002-.306-.155-.473-.15-.168-.46-.168-.313 0-.499.184-.184.184-.209.457zM36.521 39.79h-.388v-1.314q0-.159-.019-.297-.019-.141-.068-.22-.052-.086-.149-.128-.097-.043-.252-.043-.16 0-.333.078-.174.079-.333.2v1.725h-.388v-2.31h.388v.257q.182-.15.376-.235.195-.085.4-.085.374 0 .57.225.196.225.196.65zM38.977 39.646q-.194.093-.37.145-.174.052-.37.052-.25 0-.459-.073-.209-.074-.358-.223-.15-.149-.233-.376-.083-.228-.083-.532 0-.566.31-.888.312-.323.823-.323.198 0 .389.056.192.056.351.136v.432h-.02q-.178-.138-.369-.212-.188-.075-.368-.075-.33 0-.523.223-.19.222-.19.651 0 .418.186.643.188.224.527.224.118 0 .24-.031t.22-.081q.084-.043.158-.091.075-.05.118-.085h.021zM41.41 38.677h-1.701q0 .213.064.372.064.157.175.258.108.1.255.149.149.05.326.05.236 0 .474-.093.24-.096.34-.186h.021v.423q-.196.083-.4.139-.205.056-.43.056-.575 0-.898-.31-.322-.313-.322-.885 0-.567.308-.9.31-.332.814-.332.467 0 .72.273.254.273.254.775zm-.378-.298q-.002-.306-.155-.473-.151-.168-.461-.168-.312 0-.499.184-.183.184-.208.457zM42.634 39.79h-.494v-.588h.494z"/></g><path d="M32.546 14.292h1.323v5.291h-1.323zM21.963 30.167h1.323v5.291h-1.323z" fill="#686892"/><g style="line-height:1.25;font-variant-ligatures:normal;font-variant-position:normal;font-variant-caps:normal;font-variant-numeric:normal;font-variant-alternates:normal;font-feature-settings:normal;text-indent:0;text-align:start;text-decoration-line:none;text-decoration-style:solid;text-decoration-color:#000;text-transform:none;text-orientation:mixed;white-space:normal;shape-padding:0" aria-label="LB 1:" font-weight="400" font-size="3.528" font-family="sans-serif" letter-spacing="0" word-spacing="0" fill="#3d3d55" stroke-width=".265"><path style="line-height:1.25;-inkscape-font-specification:'Open Sans';font-variant-ligatures:normal;font-variant-position:normal;font-variant-caps:normal;font-variant-numeric:normal;font-variant-alternates:normal;font-feature-settings:normal;text-indent:0;text-align:start;text-decoration-line:none;text-decoration-style:solid;text-decoration-color:#000;text-transform:none;text-orientation:mixed;white-space:normal;shape-padding:0" d="M1.962 13.283H.339v-2.565H.68v2.261h1.282zM4.237 12.494q0 .19-.072.337-.072.147-.195.241-.144.114-.318.162-.173.049-.44.049h-.91v-2.565h.76q.281 0 .42.02.14.021.268.086.141.075.205.192.063.115.063.277 0 .183-.093.312-.093.127-.248.205v.014q.26.053.41.229.15.174.15.44zm-.573-1.156q0-.093-.031-.157t-.1-.103q-.081-.047-.197-.057-.115-.012-.286-.012h-.406v.74h.44q.161 0 .256-.015.095-.017.175-.069.081-.052.114-.133.035-.082.035-.194zm.218 1.17q0-.156-.046-.247-.047-.091-.169-.155-.083-.043-.201-.055-.118-.014-.286-.014h-.536v.954h.451q.224 0 .367-.022.143-.024.234-.086.097-.067.142-.153.044-.087.044-.223zM7.484 13.283H6.096v-.262h.534V11.3h-.534v-.234q.108 0 .232-.017.124-.019.188-.053.08-.043.124-.109.047-.067.054-.179h.267v2.312h.523zM8.87 11.85h-.41v-.492h.41zm0 1.433h-.41v-.491h.41z"/></g><g style="line-height:1.25;-inkscape-font-specification:'Open Sans';font-variant-ligatures:normal;font-variant-position:normal;font-variant-caps:normal;font-variant-numeric:normal;font-variant-alternates:normal;font-feature-settings:normal;text-indent:0;text-align:start;text-decoration-line:none;text-decoration-style:solid;text-decoration-color:#000;text-transform:none;text-orientation:mixed;white-space:normal;shape-padding:0" aria-label="LB 2:" font-weight="400" font-size="3.528" font-family="sans-serif" letter-spacing="0" word-spacing="0" fill="#3d3d55" stroke-width=".265"><path style="line-height:1.25;-inkscape-font-specification:'Open Sans';font-variant-ligatures:normal;font-variant-position:normal;font-variant-caps:normal;font-variant-numeric:normal;font-variant-alternates:normal;font-feature-settings:normal;text-indent:0;text-align:start;text-decoration-line:none;text-decoration-style:solid;text-decoration-color:#000;text-transform:none;text-orientation:mixed;white-space:normal;shape-padding:0" d="M1.962 18.63H.339v-2.565H.68v2.262h1.282zM4.237 17.841q0 .191-.072.338-.072.146-.195.24-.144.115-.318.163-.173.048-.44.048h-.91v-2.565h.76q.281 0 .42.02.14.021.268.087.141.074.205.191.063.116.063.277 0 .183-.093.312-.093.128-.248.205v.014q.26.053.41.23.15.173.15.44zm-.573-1.156q0-.093-.031-.156-.031-.064-.1-.104-.081-.046-.197-.057-.115-.012-.286-.012h-.406v.741h.44q.161 0 .256-.016.095-.017.175-.068.081-.052.114-.133.035-.083.035-.195zm.218 1.17q0-.155-.046-.246-.047-.092-.169-.155-.083-.044-.201-.056-.118-.013-.286-.013h-.536v.954h.451q.224 0 .367-.022.143-.025.234-.087.097-.067.142-.153.044-.086.044-.222zM7.63 18.63H5.895v-.36l.362-.31q.183-.155.34-.308.33-.32.452-.509.123-.189.123-.408 0-.2-.133-.312-.13-.113-.367-.113-.157 0-.34.055-.182.055-.356.169h-.017v-.362q.122-.06.326-.11.205-.05.396-.05.394 0 .618.191.224.19.224.515 0 .146-.038.274-.036.126-.108.24-.067.106-.159.21-.09.103-.219.229-.184.18-.38.351l-.367.313h1.38zM8.87 17.197h-.41v-.491h.41zm0 1.433h-.41v-.49h.41z"/></g><g style="line-height:1.25;-inkscape-font-specification:'Open Sans';font-variant-ligatures:normal;font-variant-position:normal;font-variant-caps:normal;font-variant-numeric:normal;font-variant-alternates:normal;font-feature-settings:normal;text-indent:0;text-align:start;text-decoration-line:none;text-decoration-style:solid;text-decoration-color:#000;text-transform:none;text-orientation:mixed;white-space:normal;shape-padding:0" aria-label="LB 3:" font-weight="400" font-size="3.528" font-family="sans-serif" letter-spacing="0" word-spacing="0" fill="#3d3d55" stroke-width=".265"><path style="line-height:1.25;-inkscape-font-specification:'Open Sans';font-variant-ligatures:normal;font-variant-position:normal;font-variant-caps:normal;font-variant-numeric:normal;font-variant-alternates:normal;font-feature-settings:normal;text-indent:0;text-align:start;text-decoration-line:none;text-decoration-style:solid;text-decoration-color:#000;text-transform:none;text-orientation:mixed;white-space:normal;shape-padding:0" d="M1.962 23.911H.339v-2.565H.68v2.262h1.282zM4.237 23.122q0 .192-.072.338-.072.146-.195.241-.144.114-.318.162-.173.048-.44.048h-.91v-2.565h.76q.281 0 .42.021.14.02.268.086.141.074.205.191.063.116.063.278 0 .182-.093.312-.093.127-.248.205v.013q.26.054.41.23.15.173.15.44zm-.573-1.155q0-.093-.031-.157t-.1-.104q-.081-.046-.197-.056-.115-.012-.286-.012h-.406v.74h.44q.161 0 .256-.015.095-.017.175-.07.081-.05.114-.132.035-.082.035-.194zm.218 1.17q0-.156-.046-.247-.047-.091-.169-.155-.083-.043-.201-.055-.118-.014-.286-.014h-.536v.954h.451q.224 0 .367-.022.143-.024.234-.086.097-.067.142-.154.044-.086.044-.222zM7.405 22.676q.083.074.136.186.053.112.053.29 0 .175-.063.322-.064.146-.18.255-.129.12-.304.179-.174.057-.383.057-.213 0-.42-.052-.207-.05-.34-.11v-.36h.026q.147.096.345.16.198.064.382.064.109 0 .231-.036.123-.037.198-.107.08-.076.117-.167.04-.092.04-.231 0-.138-.045-.227-.043-.092-.12-.143-.078-.054-.188-.073-.11-.02-.238-.02h-.155v-.286h.12q.263 0 .418-.109.156-.11.156-.32 0-.093-.04-.162-.039-.07-.11-.116-.074-.044-.158-.062-.084-.017-.191-.017-.164 0-.348.059-.184.058-.348.165h-.017v-.36q.122-.06.325-.11.205-.052.396-.052.188 0 .331.035.143.034.259.11.124.082.187.2.064.117.064.273 0 .214-.152.374-.15.159-.354.2v.024q.082.014.19.059.106.043.18.108zM8.87 22.478h-.41v-.49h.41zm0 1.433h-.41v-.49h.41z"/></g><g style="line-height:1.25;-inkscape-font-specification:'Open Sans';font-variant-ligatures:normal;font-variant-position:normal;font-variant-caps:normal;font-variant-numeric:normal;font-variant-alternates:normal;font-feature-settings:normal;text-indent:0;text-align:start;text-decoration-line:none;text-decoration-style:solid;text-decoration-color:#000;text-transform:none;text-orientation:mixed;white-space:normal;shape-padding:0" aria-label="LB 4:" font-weight="400" font-size="3.528" font-family="sans-serif" letter-spacing="0" word-spacing="0" fill="#3d3d55" stroke-width=".265"><path style="line-height:1.25;-inkscape-font-specification:'Open Sans';font-variant-ligatures:normal;font-variant-position:normal;font-variant-caps:normal;font-variant-numeric:normal;font-variant-alternates:normal;font-feature-settings:normal;text-indent:0;text-align:start;text-decoration-line:none;text-decoration-style:solid;text-decoration-color:#000;text-transform:none;text-orientation:mixed;white-space:normal;shape-padding:0" d="M1.962 29.158H.339v-2.565H.68v2.261h1.282zM4.237 28.369q0 .19-.072.337-.072.147-.195.241-.144.114-.318.162-.173.049-.44.049h-.91v-2.565h.76q.281 0 .42.02.14.021.268.086.141.075.205.192.063.115.063.277 0 .183-.093.312-.093.127-.248.205v.014q.26.053.41.229.15.174.15.44zm-.573-1.156q0-.093-.031-.157t-.1-.103q-.081-.047-.197-.057-.115-.012-.286-.012h-.406v.74h.44q.161 0 .256-.015.095-.017.175-.069.081-.052.114-.133.035-.082.035-.194zm.218 1.17q0-.156-.046-.247-.047-.091-.169-.155-.083-.043-.201-.055-.118-.014-.286-.014h-.536v.954h.451q.224 0 .367-.022.143-.024.234-.086.097-.067.142-.153.044-.086.044-.223zM7.69 28.436h-.381v.722h-.331v-.722H5.75v-.396l1.242-1.447h.317v1.567h.38zm-.712-.276v-1.157l-.994 1.157zM8.87 27.724h-.41v-.49h.41zm0 1.434h-.41v-.491h.41z"/></g><g style="line-height:1.25;-inkscape-font-specification:'Open Sans';font-variant-ligatures:normal;font-variant-position:normal;font-variant-caps:normal;font-variant-numeric:normal;font-variant-alternates:normal;font-feature-settings:normal;text-indent:0;text-align:start;text-decoration-line:none;text-decoration-style:solid;text-decoration-color:#000;text-transform:none;text-orientation:mixed;white-space:normal;shape-padding:0" aria-label="LB 5:" font-weight="400" font-size="3.528" font-family="sans-serif" letter-spacing="0" word-spacing="0" fill="#3d3d55" stroke-width=".265"><path style="line-height:1.25;-inkscape-font-specification:'Open Sans';font-variant-ligatures:normal;font-variant-position:normal;font-variant-caps:normal;font-variant-numeric:normal;font-variant-alternates:normal;font-feature-settings:normal;text-indent:0;text-align:start;text-decoration-line:none;text-decoration-style:solid;text-decoration-color:#000;text-transform:none;text-orientation:mixed;white-space:normal;shape-padding:0" d="M1.962 34.45H.339v-2.566H.68v2.262h1.282zM4.237 33.66q0 .191-.072.338-.072.146-.195.241-.144.114-.318.162-.173.048-.44.048h-.91v-2.565h.76q.281 0 .42.021.14.02.268.086.141.074.205.191.063.116.063.278 0 .182-.093.311-.093.128-.248.205v.014q.26.054.41.23.15.173.15.44zm-.573-1.156q0-.093-.031-.156-.031-.064-.1-.104-.081-.046-.197-.056-.115-.013-.286-.013h-.406v.741h.44q.161 0 .256-.015.095-.018.175-.07.081-.051.114-.132.035-.083.035-.195zm.218 1.17q0-.155-.046-.246-.047-.092-.169-.155-.083-.043-.201-.055-.118-.014-.286-.014h-.536v.954h.451q.224 0 .367-.022.143-.024.234-.086.097-.068.142-.154.044-.086.044-.222zM7.61 33.634q0 .18-.065.343-.066.164-.18.276-.124.12-.296.186-.17.064-.396.064-.21 0-.405-.045-.195-.043-.329-.105v-.364h.024q.141.09.331.154.19.062.372.062.122 0 .236-.035.115-.034.205-.12.076-.075.114-.178.04-.103.04-.24 0-.132-.047-.223-.045-.092-.126-.147-.09-.065-.219-.091-.127-.028-.286-.028-.151 0-.292.021-.14.02-.242.041v-1.32h1.544v.3H6.382v.683q.074-.007.151-.01.078-.004.135-.004.208 0 .365.037.157.034.288.124.137.094.213.244.076.15.076.376zM8.87 33.016h-.41v-.49h.41zm0 1.433h-.41v-.49h.41z"/></g><g style="line-height:1.25;-inkscape-font-specification:'Open Sans';font-variant-ligatures:normal;font-variant-position:normal;font-variant-caps:normal;font-variant-numeric:normal;font-variant-alternates:normal;font-feature-settings:normal;text-indent:0;text-align:start;text-decoration-line:none;text-decoration-style:solid;text-decoration-color:#000;text-transform:none;text-orientation:mixed;white-space:normal;shape-padding:0" aria-label="LB 6:" font-weight="400" font-size="3.528" font-family="sans-serif" letter-spacing="0" word-spacing="0" fill="#3d3d55" stroke-width=".265"><path style="line-height:1.25;-inkscape-font-specification:'Open Sans';font-variant-ligatures:normal;font-variant-position:normal;font-variant-caps:normal;font-variant-numeric:normal;font-variant-alternates:normal;font-feature-settings:normal;text-indent:0;text-align:start;text-decoration-line:none;text-decoration-style:solid;text-decoration-color:#000;text-transform:none;text-orientation:mixed;white-space:normal;shape-padding:0" d="M1.962 39.74H.339v-2.564H.68v2.262h1.282zM4.237 38.952q0 .191-.072.338-.072.146-.195.24-.144.114-.318.163-.173.048-.44.048h-.91v-2.565h.76q.281 0 .42.02.14.021.268.087.141.074.205.191.063.115.063.277 0 .183-.093.312-.093.128-.248.205v.014q.26.053.41.229.15.174.15.44zm-.573-1.156q0-.093-.031-.157-.031-.063-.1-.103-.081-.046-.197-.057-.115-.012-.286-.012h-.406v.74h.44q.161 0 .256-.015.095-.017.175-.069.081-.051.114-.132.035-.083.035-.195zm.218 1.17q0-.155-.046-.247-.047-.09-.169-.155-.083-.043-.201-.055-.118-.014-.286-.014h-.536v.955h.451q.224 0 .367-.023.143-.024.234-.086.097-.067.142-.153.044-.086.044-.222zM7.669 38.909q0 .39-.259.639-.256.246-.63.246-.19 0-.345-.058-.155-.059-.274-.174-.148-.143-.229-.38-.079-.235-.079-.568 0-.34.072-.604.074-.264.235-.469.151-.194.39-.303.24-.11.559-.11.101 0 .17.009.07.009.14.03v.33h-.017q-.049-.026-.147-.048-.096-.025-.198-.025-.37 0-.59.233-.221.23-.257.625.144-.088.284-.132.141-.047.325-.047.164 0 .288.031.126.03.257.12.151.106.227.266.078.16.078.39zm-.35.014q0-.16-.048-.266-.047-.105-.155-.182-.08-.055-.176-.072-.097-.018-.202-.018-.146 0-.272.035-.126.034-.258.107-.004.038-.005.074-.002.034-.002.088 0 .272.055.43.057.157.155.248.08.076.17.112.094.035.202.035.25 0 .393-.152.143-.153.143-.44zM8.87 38.308h-.41v-.491h.41zm0 1.433h-.41v-.491h.41z"/></g><g fill="#3d3d55" stroke-width=".265" font-weight="400" font-size="3.528" font-family="Open Sans" letter-spacing="0" word-spacing="0"><g style="line-height:1.25" aria-label="LB = line box"><path style="-inkscape-font-specification:'Open Sans'" d="M.096 2.68V.162h.292v2.253H1.5v.265zM1.928.162h.712q.501 0 .725.15.224.15.224.473 0 .224-.126.37-.124.146-.363.189v.017q.573.098.573.603 0 .337-.229.527-.227.19-.637.19h-.879zm.293 1.078h.483q.31 0 .446-.096.136-.098.136-.33 0-.211-.152-.304-.151-.095-.482-.095h-.43zm0 .248v.943h.526q.304 0 .458-.118.155-.118.155-.37 0-.234-.159-.344-.156-.11-.479-.11zM4.991 1.202V.966h1.602v.236zm0 .705V1.67h1.602v.236zM8.31 2.68h-.286V0h.286zM9.206 2.68H8.92V.792h.286zm-.31-2.4q0-.097.048-.142.049-.047.12-.047.07 0 .12.047.05.046.05.143 0 .096-.05.144-.05.047-.12.047-.071 0-.12-.047-.048-.048-.048-.144zM11.108 2.68V1.46q0-.23-.105-.345-.105-.113-.33-.113-.296 0-.433.16-.138.16-.138.529v.99h-.286V.792h.232l.047.259h.014q.088-.14.246-.216.159-.077.353-.077.341 0 .514.165.172.164.172.526V2.68zM12.777 2.715q-.419 0-.661-.255-.242-.255-.242-.708 0-.457.224-.725.226-.27.605-.27.355 0 .561.235.207.233.207.615v.181h-1.3q.008.332.167.505.16.172.45.172.304 0 .602-.128v.255q-.151.066-.287.093-.135.03-.326.03zM12.699.997q-.227 0-.363.148-.134.149-.158.41h.987q0-.27-.121-.413-.12-.145-.345-.145zM15.752.761q.372 0 .577.255.207.254.207.719 0 .465-.209.723-.207.257-.575.257-.184 0-.338-.067-.151-.07-.255-.21h-.02l-.06.242h-.206V0h.286v.651q0 .219-.014.393h.014q.2-.283.593-.283zm-.042.24q-.292 0-.422.169-.129.167-.129.565 0 .398.133.57.133.17.425.17.264 0 .393-.19.13-.194.13-.554 0-.368-.13-.55-.13-.18-.4-.18zM18.666 1.735q0 .461-.232.721-.233.259-.643.259-.253 0-.45-.12-.196-.118-.302-.34-.107-.222-.107-.52 0-.462.23-.719.231-.258.641-.258.397 0 .63.263.233.264.233.714zm-1.438 0q0 .361.145.55.144.19.425.19t.426-.187q.146-.19.146-.553 0-.36-.146-.546Q18.079 1 17.794 1q-.28 0-.423.184-.143.184-.143.55zM19.62 1.714l-.656-.922h.326l.498.724.496-.724h.322l-.656.922.69.966h-.323l-.53-.765-.533.765h-.324z"/></g><g style="line-height:1.25" aria-label="IB = inline box"><path style="-inkscape-font-specification:'Open Sans'" d="M0 7.046V4.528h.293v2.518zM.985 4.528h.712q.501 0 .725.15.224.15.224.473 0 .224-.126.37-.124.145-.363.188v.017q.573.099.573.603 0 .338-.229.527-.227.19-.637.19H.985zm.293 1.078h.482q.31 0 .447-.097.136-.098.136-.329 0-.211-.152-.305t-.482-.094h-.43zm0 .248v.942h.526q.304 0 .458-.117.155-.119.155-.37 0-.235-.159-.345-.156-.11-.479-.11zM4.048 5.568v-.236H5.65v.236zm0 .704v-.236H5.65v.236zM7.367 7.046h-.286V5.158h.286zm-.31-2.4q0-.098.049-.143.048-.046.12-.046.069 0 .119.046.05.047.05.143 0 .097-.05.145-.05.047-.119.047-.072 0-.12-.047-.049-.048-.049-.145zM9.269 7.046V5.825q0-.231-.105-.345-.105-.114-.33-.114-.295 0-.433.16t-.138.53v.99h-.286V5.158h.233l.046.258h.014q.088-.14.246-.215.159-.077.353-.077.341 0 .514.165.172.164.172.525v1.232zM10.427 7.046h-.286v-2.68h.286zM11.322 7.046h-.286V5.158h.286zm-.31-2.4q0-.098.048-.143.049-.046.121-.046.069 0 .119.046.05.047.05.143 0 .097-.05.145-.05.047-.119.047-.072 0-.12-.047-.049-.048-.049-.145zM13.224 7.046V5.825q0-.231-.105-.345-.105-.114-.33-.114-.295 0-.433.16t-.138.53v.99h-.286V5.158h.233l.046.258h.014q.088-.14.246-.215.159-.077.353-.077.341 0 .514.165.172.164.172.525v1.232zM14.893 7.08q-.418 0-.661-.255-.241-.255-.241-.708 0-.456.223-.725.226-.268.605-.268.355 0 .562.234.206.232.206.615v.18h-1.3q.008.333.167.505.16.173.45.173.304 0 .602-.128v.255q-.151.066-.287.093-.135.03-.326.03zm-.077-1.717q-.228 0-.364.148-.134.148-.158.41h.987q0-.27-.12-.413-.121-.145-.345-.145zM17.868 5.127q.372 0 .577.255.207.253.207.718 0 .465-.209.724-.206.256-.575.256-.184 0-.338-.067-.151-.069-.255-.21h-.02l-.06.243h-.206v-2.68h.286v.65q0 .22-.013.393h.013q.2-.282.593-.282zm-.041.24q-.293 0-.422.168-.13.167-.13.565 0 .398.133.57.133.17.426.17.263 0 .392-.19.13-.193.13-.553 0-.369-.13-.55-.129-.18-.4-.18zM20.783 6.1q0 .462-.233.722-.233.258-.643.258-.253 0-.45-.119-.195-.118-.302-.34-.107-.223-.107-.52 0-.462.23-.72.232-.257.642-.257.396 0 .628.263.235.264.235.713zm-1.439 0q0 .362.145.551.145.19.425.19.281 0 .426-.188.146-.19.146-.553 0-.36-.146-.546-.145-.188-.43-.188-.28 0-.423.185-.143.184-.143.55zM21.737 6.08l-.656-.922h.325l.498.723.496-.723h.322l-.656.922.69.966h-.323l-.53-.765-.533.765h-.324z"/></g></g><g style="line-height:1.25;font-variant-ligatures:normal;font-variant-position:normal;font-variant-caps:normal;font-variant-numeric:normal;font-variant-alternates:normal;font-feature-settings:normal;text-indent:0;text-align:start;text-decoration-line:none;text-decoration-style:solid;text-decoration-color:#000;text-transform:none;text-orientation:mixed;white-space:normal;shape-padding:0" aria-label="IB 1 for &lt;span&gt;" font-weight="400" font-size="3.528" font-family="sans-serif" letter-spacing="0" word-spacing="0" fill="#3d3d55" stroke-width=".265"><path style="line-height:1.25;font-variant-ligatures:normal;font-variant-position:normal;font-variant-caps:normal;font-variant-numeric:normal;font-variant-alternates:normal;font-feature-settings:normal;text-indent:0;text-align:start;text-decoration-line:none;text-decoration-style:solid;text-decoration-color:#000;text-transform:none;text-orientation:mixed;white-space:normal;shape-padding:0" d="M51.154 17.97h-1.013v-.262h.336v-2.04h-.336v-.263h1.013v.262h-.336v2.041h.336zM53.672 17.181q0 .192-.072.338-.072.146-.195.241-.144.114-.318.162-.173.048-.44.048h-.91v-2.565h.76q.281 0 .42.021.14.02.268.086.141.074.205.191.064.116.064.278 0 .182-.093.312-.093.127-.248.205v.013q.26.054.41.23.15.173.15.44zm-.573-1.155q0-.093-.031-.157t-.1-.104q-.081-.046-.197-.056-.115-.012-.285-.012h-.407v.74h.441q.16 0 .255-.015.095-.018.176-.07.08-.05.113-.132.035-.082.035-.194zm.219 1.17q0-.156-.047-.247t-.169-.155q-.082-.043-.201-.055-.117-.014-.286-.014h-.536v.954h.451q.224 0 .367-.022.143-.024.234-.086.097-.068.142-.154.045-.086.045-.222zM56.92 17.97H55.53v-.262h.534V15.99h-.534v-.234q.109 0 .233-.017.124-.02.187-.054.08-.043.124-.108.047-.067.054-.18h.267v2.312h.523zM59.892 15.604h-.017q-.053-.016-.14-.032-.085-.017-.15-.017-.21 0-.304.093-.093.092-.093.333v.065h.584v.272h-.574v1.652h-.324v-1.652h-.218v-.272h.218v-.064q0-.342.171-.525.17-.184.493-.184.108 0 .194.01.088.01.16.024zM61.737 17.01q0 .47-.24.742-.242.272-.647.272-.408 0-.65-.272-.239-.273-.239-.743t.24-.742q.241-.274.65-.274.404 0 .645.274.241.272.241.742zm-.334 0q0-.375-.146-.556-.147-.182-.407-.182-.263 0-.41.182-.144.181-.144.555 0 .362.146.55.146.186.408.186.259 0 .405-.185.148-.186.148-.55zM63.44 16.4h-.016q-.073-.018-.142-.025-.067-.008-.16-.008-.15 0-.29.067-.139.065-.268.17v1.366h-.324v-1.924h.324v.284q.193-.155.34-.218.148-.066.3-.066.085 0 .123.005.038.004.114.016zM67.096 17.838l-1.988-.884v-.214l1.988-.883v.31l-1.567.68 1.567.68zM69.251 17.416q0 .263-.219.432-.217.169-.594.169-.214 0-.393-.05-.177-.052-.298-.112v-.364h.018q.153.116.34.185.188.067.36.067.214 0 .335-.069.12-.069.12-.217 0-.114-.065-.172-.066-.059-.252-.1-.068-.016-.18-.036-.11-.021-.202-.045-.253-.067-.36-.197-.105-.13-.105-.32 0-.119.048-.224.05-.105.15-.188.096-.08.245-.127.15-.048.334-.048.172 0 .348.043.177.041.294.101v.347h-.017q-.124-.092-.301-.154-.178-.063-.348-.063-.178 0-.3.068t-.122.202q0 .119.074.18.072.06.234.097.09.021.2.042.112.02.186.038.225.051.348.177.122.127.122.338zM71.41 16.985q0 .234-.068.429-.067.193-.19.327-.113.128-.268.198-.153.07-.326.07-.15 0-.272-.034-.12-.032-.246-.101v.806h-.324v-2.634h.324v.202q.13-.109.29-.181.161-.074.344-.074.348 0 .54.263.195.262.195.729zm-.335.009q0-.348-.119-.52-.118-.173-.365-.173-.14 0-.28.06-.142.06-.271.159v1.09q.138.062.236.085.1.022.226.022.27 0 .422-.183.151-.182.151-.54zM73.41 17.97h-.323v-.205l-.117.083q-.072.052-.141.083-.081.04-.186.065-.105.028-.247.028-.26 0-.44-.173-.181-.172-.181-.439 0-.219.093-.353.094-.136.268-.214.176-.077.422-.105.247-.027.53-.041v-.05q0-.11-.04-.182-.038-.073-.11-.114-.07-.04-.166-.054-.096-.013-.202-.013-.127 0-.284.034-.157.033-.324.097h-.017v-.33q.095-.025.274-.056.18-.031.353-.031.203 0 .353.034.152.033.262.114.109.08.165.205.057.126.057.312zm-.323-.473v-.536q-.148.008-.35.026-.2.017-.316.05-.14.04-.226.124-.086.082-.086.229 0 .165.1.25.1.082.305.082.17 0 .311-.065.142-.067.262-.16zM75.645 17.97h-.324v-1.095q0-.133-.015-.248-.016-.117-.057-.183-.043-.072-.124-.107-.081-.036-.21-.036-.133 0-.277.066-.145.065-.278.167v1.436h-.324v-1.924h.324v.214q.152-.126.314-.197.162-.07.332-.07.312 0 .476.188.163.187.163.54zM78.4 16.954l-1.988.884v-.31l1.567-.68-1.567-.681v-.31l1.988.883z"/></g><g style="line-height:1.25;font-variant-ligatures:normal;font-variant-position:normal;font-variant-caps:normal;font-variant-numeric:normal;font-variant-alternates:normal;font-feature-settings:normal;text-indent:0;text-align:start;text-decoration-line:none;text-decoration-style:solid;text-decoration-color:#000;text-transform:none;text-orientation:mixed;white-space:normal;shape-padding:0" aria-label="IB 2 for &lt;span&gt;" font-weight="400" font-size="3.528" font-family="sans-serif" letter-spacing="0" word-spacing="0" fill="#3d3d55" stroke-width=".265"><path style="line-height:1.25;font-variant-ligatures:normal;font-variant-position:normal;font-variant-caps:normal;font-variant-numeric:normal;font-variant-alternates:normal;font-feature-settings:normal;text-indent:0;text-align:start;text-decoration-line:none;text-decoration-style:solid;text-decoration-color:#000;text-transform:none;text-orientation:mixed;white-space:normal;shape-padding:0" d="M58.765 23.188h-1.013v-.262h.336v-2.04h-.336v-.263h1.013v.262h-.336v2.041h.336zM61.283 22.4q0 .19-.072.337-.072.146-.195.241-.144.114-.318.162-.173.048-.44.048h-.909v-2.565h.76q.28 0 .42.021.14.02.267.086.141.074.205.191.064.116.064.278 0 .182-.093.311-.093.128-.248.205v.014q.26.054.41.23.15.173.15.44zm-.573-1.157q0-.093-.031-.156-.031-.064-.1-.104-.081-.046-.197-.057-.115-.012-.285-.012h-.407v.741h.441q.16 0 .255-.015.095-.018.176-.07.08-.051.113-.132.035-.083.035-.195zm.219 1.17q0-.155-.047-.246-.046-.092-.169-.155-.082-.043-.201-.055-.117-.014-.286-.014h-.536v.954h.451q.224 0 .367-.022.143-.024.235-.086.096-.068.14-.154.046-.086.046-.222zM64.677 23.188H62.94v-.36l.362-.31q.183-.155.34-.308.33-.32.453-.508.122-.19.122-.409 0-.2-.133-.311-.13-.114-.367-.114-.156 0-.339.055-.183.055-.357.169h-.017v-.362q.123-.06.326-.11.205-.05.396-.05.394 0 .618.191.224.19.224.515 0 .147-.038.274-.036.126-.108.24-.067.106-.159.21-.09.103-.218.229-.185.18-.381.351l-.367.314h1.38zM67.504 20.821h-.018q-.053-.015-.14-.03-.085-.018-.15-.018-.21 0-.304.093-.093.091-.093.333v.065h.584v.272h-.574v1.652h-.324v-1.652h-.218v-.272h.218V21.2q0-.342.171-.525.17-.184.493-.184.108 0 .194.01.088.01.16.024zM69.348 22.227q0 .47-.24.742-.242.273-.647.273-.408 0-.65-.273-.239-.272-.239-.742t.24-.742q.241-.274.65-.274.404 0 .645.274.241.272.241.742zm-.334 0q0-.374-.146-.555-.147-.182-.407-.182-.263 0-.41.182-.144.181-.144.555 0 .362.146.55.146.186.408.186.259 0 .405-.185.148-.186.148-.551zM71.052 21.617h-.017q-.073-.017-.142-.024-.067-.009-.16-.009-.15 0-.29.068-.139.065-.268.17v1.366h-.324v-1.924h.324v.284q.193-.155.34-.218.148-.066.301-.066.084 0 .122.005.038.004.114.016zM74.707 23.056l-1.988-.884v-.214l1.988-.883v.31l-1.567.68 1.567.68zM76.862 22.634q0 .263-.219.432-.217.169-.594.169-.214 0-.393-.05-.177-.052-.298-.112v-.364h.018q.153.116.34.185.188.067.36.067.214 0 .335-.07.12-.068.12-.216 0-.114-.065-.172-.066-.059-.252-.1-.068-.016-.18-.036-.11-.021-.202-.045-.253-.067-.36-.197-.105-.13-.105-.32 0-.119.048-.224.05-.105.15-.188.096-.08.245-.127.15-.048.334-.048.172 0 .348.043.177.041.294.101v.347h-.017q-.124-.092-.301-.154-.178-.064-.348-.064-.178 0-.3.07-.122.067-.122.2 0 .12.074.18.072.06.234.098.09.02.2.042.112.02.186.037.226.052.348.178.122.127.122.338zM79.02 22.203q0 .234-.067.429-.067.193-.19.327-.113.128-.268.198-.153.07-.325.07-.15 0-.273-.034-.12-.032-.246-.101v.806h-.324v-2.634h.324v.202q.13-.109.29-.181.161-.074.344-.074.348 0 .54.263.195.262.195.729zm-.334.008q0-.347-.119-.52-.118-.172-.365-.172-.14 0-.28.06-.142.06-.271.159v1.09q.138.062.236.085.1.022.226.022.27 0 .422-.183.151-.182.151-.54zM81.02 23.188h-.322v-.205l-.117.083q-.072.052-.141.083-.081.04-.186.065-.105.028-.247.028-.26 0-.44-.173-.181-.172-.181-.439 0-.219.093-.353.094-.136.268-.214.176-.077.422-.105.247-.027.53-.041v-.05q0-.11-.04-.183-.038-.072-.11-.113-.07-.04-.166-.054-.096-.013-.202-.013-.127 0-.284.034-.156.033-.324.096h-.017v-.329q.095-.025.274-.056.18-.031.353-.031.203 0 .353.034.152.033.262.114.109.079.166.205.056.125.056.311zm-.322-.474v-.535q-.148.008-.35.026-.2.017-.316.05-.14.04-.226.124-.086.082-.086.229 0 .165.1.25.1.082.305.082.17 0 .311-.065.142-.068.262-.16zM83.256 23.188h-.324v-1.095q0-.133-.015-.248-.016-.118-.057-.183-.043-.072-.124-.107-.08-.036-.21-.036-.133 0-.277.065-.145.066-.278.168v1.436h-.324v-1.924h.324v.214q.152-.126.314-.197.162-.07.332-.07.312 0 .476.187.163.188.163.541zM86.01 22.172l-1.987.884v-.31l1.567-.68-1.567-.681v-.31l1.988.883z"/></g><g style="line-height:1.25;font-variant-ligatures:normal;font-variant-position:normal;font-variant-caps:normal;font-variant-numeric:normal;font-variant-alternates:normal;font-feature-settings:normal;text-indent:0;text-align:start;text-decoration-line:none;text-decoration-style:solid;text-decoration-color:#000;text-transform:none;text-orientation:mixed;white-space:normal;shape-padding:0" aria-label="IB 3 for &lt;span&gt;" font-weight="400" font-size="3.528" font-family="sans-serif" letter-spacing="0" word-spacing="0" fill="#3d3d55" stroke-width=".265"><path style="line-height:1.25;font-variant-ligatures:normal;font-variant-position:normal;font-variant-caps:normal;font-variant-numeric:normal;font-variant-alternates:normal;font-feature-settings:normal;text-indent:0;text-align:start;text-decoration-line:none;text-decoration-style:solid;text-decoration-color:#000;text-transform:none;text-orientation:mixed;white-space:normal;shape-padding:0" d="M58.853 28.433H57.84v-.262h.336V26.13h-.336v-.262h1.013v.262h-.336v2.041h.336zM61.371 27.644q0 .191-.072.338-.073.146-.195.24-.145.115-.319.163-.172.048-.439.048h-.91v-2.565h.76q.281 0 .42.02.14.022.268.087.14.074.205.191.063.116.063.277 0 .183-.093.312-.093.128-.248.205v.014q.26.053.41.23.15.173.15.44zm-.574-1.156q0-.093-.03-.156-.032-.064-.1-.104-.081-.046-.197-.057-.115-.012-.286-.012h-.406v.741h.44q.16 0 .256-.015.094-.018.175-.07.081-.051.114-.132.034-.083.034-.195zm.22 1.17q0-.155-.047-.246-.047-.092-.17-.155-.082-.043-.2-.056-.118-.013-.287-.013h-.535v.954h.451q.224 0 .367-.022.143-.025.234-.087.097-.067.141-.153.045-.086.045-.222zM64.539 27.198q.082.074.136.186.053.112.053.29 0 .175-.063.322-.064.146-.18.254-.129.121-.305.18-.173.056-.382.056-.214 0-.42-.051-.207-.05-.34-.11v-.36h.026q.147.096.345.16.198.063.382.063.109 0 .231-.036.122-.036.198-.107.08-.075.117-.167.04-.091.04-.23 0-.138-.045-.228-.043-.091-.12-.143-.078-.053-.188-.072-.11-.02-.238-.02h-.155v-.287h.12q.262 0 .417-.108.157-.11.157-.32 0-.094-.04-.163-.04-.07-.11-.115-.074-.045-.158-.062-.085-.017-.191-.017-.164 0-.348.058-.185.059-.348.166h-.017v-.36q.122-.06.325-.11.205-.052.396-.052.188 0 .331.034.143.035.258.11.124.083.188.2t.064.274q0 .214-.152.374-.15.158-.355.2v.024q.083.014.19.058.107.043.18.109zM67.591 26.066h-.017q-.053-.015-.14-.03-.086-.018-.151-.018-.209 0-.303.093-.093.091-.093.333v.065h.584v.272h-.574v1.652h-.324v-1.652h-.219v-.272h.22v-.064q0-.343.17-.525.17-.184.492-.184.109 0 .195.01.088.01.16.024zM69.436 27.472q0 .47-.241.742t-.646.272q-.408 0-.65-.272-.239-.272-.239-.742t.24-.743q.24-.273.649-.273.405 0 .646.273t.241.743zm-.334 0q0-.374-.147-.555-.146-.182-.406-.182-.264 0-.41.182-.145.181-.145.555 0 .362.147.55.146.185.408.185.258 0 .405-.184.148-.186.148-.551zM71.14 26.862h-.018q-.072-.017-.14-.024-.068-.009-.161-.009-.15 0-.29.068-.139.065-.268.17v1.366h-.324V26.51h.324v.284q.193-.155.34-.219.147-.065.3-.065.085 0 .123.005.038.004.114.016zM74.795 28.3l-1.988-.883v-.214l1.988-.883v.31l-1.568.68 1.568.68zM76.95 27.878q0 .264-.219.433-.217.169-.594.169-.214 0-.393-.05-.177-.052-.298-.112v-.364h.017q.153.116.341.184.188.068.36.068.214 0 .334-.07.121-.068.121-.216 0-.114-.065-.173-.066-.058-.252-.1-.069-.015-.18-.036-.111-.02-.202-.044-.254-.068-.36-.197-.105-.13-.105-.32 0-.12.048-.224.05-.105.15-.188.096-.08.244-.127.15-.049.334-.049.173 0 .348.043.178.042.295.102v.346h-.017q-.124-.091-.302-.153-.177-.064-.348-.064-.177 0-.3.07-.122.066-.122.2 0 .12.074.18.073.06.235.098.09.02.2.041.111.021.185.038.226.052.348.178.123.127.123.337zM79.108 27.448q0 .234-.067.429-.067.193-.19.327-.113.127-.268.198-.154.069-.326.069-.15 0-.272-.033-.12-.032-.246-.101v.806h-.324v-2.634h.324v.202q.129-.109.289-.181.162-.074.345-.074.348 0 .54.263.195.262.195.729zm-.334.009q0-.348-.119-.52-.119-.173-.365-.173-.14 0-.28.06-.142.06-.271.16v1.09q.137.061.236.084.1.022.225.022.27 0 .422-.182.152-.183.152-.541zM81.108 28.433h-.322v-.205l-.117.083q-.073.051-.142.082-.08.04-.186.066-.105.028-.246.028-.26 0-.44-.173-.182-.172-.182-.439 0-.219.093-.353.095-.136.269-.214.176-.077.422-.105.246-.027.529-.041v-.05q0-.11-.04-.183-.038-.072-.11-.113-.069-.04-.165-.054-.097-.013-.202-.013-.127 0-.284.034-.157.033-.324.096h-.017v-.329q.095-.025.274-.056.179-.031.353-.031.203 0 .353.034.152.033.262.114.108.079.165.205.057.125.057.311zm-.322-.474v-.535q-.148.009-.35.025-.2.018-.317.05-.14.04-.225.124-.087.083-.087.23 0 .165.1.25.1.082.305.082.17 0 .312-.065.141-.068.262-.16zM83.344 28.433h-.324v-1.095q0-.133-.016-.249-.015-.117-.056-.182-.043-.072-.124-.107-.081-.036-.21-.036-.133 0-.278.065-.145.066-.277.167v1.437h-.324V26.51h.324v.214q.151-.126.313-.197.162-.07.333-.07.312 0 .475.187.164.188.164.541zM86.098 27.417l-1.988.883v-.31l1.568-.68-1.568-.68v-.31l1.988.883z"/></g><g style="line-height:1.25;font-variant-ligatures:normal;font-variant-position:normal;font-variant-caps:normal;font-variant-numeric:normal;font-variant-alternates:normal;font-feature-settings:normal;text-indent:0;text-align:start;text-decoration-line:none;text-decoration-style:solid;text-decoration-color:#000;text-transform:none;text-orientation:mixed;white-space:normal;shape-padding:0" aria-label="IB 4 for &lt;span&gt;" font-weight="400" font-size="3.528" font-family="sans-serif" letter-spacing="0" word-spacing="0" fill="#3d3d55" stroke-width=".265"><path style="line-height:1.25;font-variant-ligatures:normal;font-variant-position:normal;font-variant-caps:normal;font-variant-numeric:normal;font-variant-alternates:normal;font-feature-settings:normal;text-indent:0;text-align:start;text-decoration-line:none;text-decoration-style:solid;text-decoration-color:#000;text-transform:none;text-orientation:mixed;white-space:normal;shape-padding:0" d="M50.694 34.035H49.68v-.262h.336v-2.041h-.336v-.262h1.013v.262h-.336v2.04h.336zM53.212 33.246q0 .19-.072.337-.073.147-.195.242-.145.113-.319.161-.172.049-.439.049h-.91V31.47h.76q.28 0 .42.02.14.021.267.087.142.074.205.19.064.116.064.278 0 .183-.093.312-.093.127-.248.205v.014q.26.053.41.229.15.174.15.44zm-.574-1.156q0-.093-.03-.157-.032-.064-.1-.103-.082-.047-.197-.057-.115-.012-.286-.012h-.406v.74h.44q.16 0 .255-.015.095-.017.176-.069.081-.052.114-.132.034-.083.034-.195zm.22 1.17q0-.156-.047-.247t-.17-.155q-.082-.043-.2-.055-.118-.014-.287-.014h-.535v.955h.45q.225 0 .368-.023.143-.024.234-.086.097-.067.141-.153.045-.086.045-.222zM56.664 33.313h-.38v.722h-.331v-.722h-1.229v-.396l1.242-1.447h.317v1.567h.38zm-.711-.276V31.88l-.994 1.157zM59.432 31.668h-.017q-.054-.016-.14-.031-.086-.017-.151-.017-.209 0-.303.093-.093.091-.093.332v.066h.583v.272h-.573v1.652h-.324v-1.652h-.219v-.272h.219v-.064q0-.343.17-.525.171-.185.493-.185.109 0 .195.01.088.01.16.025zM61.277 33.073q0 .47-.241.743-.241.272-.646.272-.408 0-.65-.272-.239-.272-.239-.743 0-.47.24-.742.24-.274.649-.274.405 0 .646.274.24.272.24.742zm-.334 0q0-.373-.147-.554-.146-.183-.406-.183-.264 0-.41.183-.145.18-.145.554 0 .362.147.55.146.186.408.186.258 0 .405-.184.148-.186.148-.552zM62.98 32.464h-.017q-.072-.018-.141-.024-.067-.01-.16-.01-.15 0-.29.068-.14.065-.268.17v1.366h-.324V32.11h.324v.284q.193-.155.34-.218.147-.066.3-.066.085 0 .123.005.038.003.114.016zM66.636 33.902l-1.988-.884v-.213l1.988-.884v.31l-1.568.68 1.568.681zM68.79 33.48q0 .264-.218.432-.217.17-.594.17-.214 0-.393-.05-.178-.052-.298-.113v-.363h.017q.153.115.341.184.188.067.36.067.214 0 .334-.069.12-.068.12-.217 0-.113-.065-.172-.065-.058-.251-.1-.069-.015-.18-.036-.111-.02-.202-.045-.254-.067-.36-.196-.106-.131-.106-.32 0-.12.049-.224.05-.106.15-.188.096-.081.244-.128.15-.048.334-.048.173 0 .348.043.178.042.295.102v.346h-.017q-.124-.091-.302-.153-.177-.064-.348-.064-.177 0-.3.069-.122.067-.122.202 0 .118.074.179.073.06.235.098.09.02.2.041.111.02.185.038.226.052.348.177.123.128.123.338zM70.949 33.05q0 .234-.067.428-.067.193-.19.328-.113.127-.268.198-.154.069-.326.069-.15 0-.272-.033-.12-.033-.246-.102v.806h-.324v-2.633h.324v.201q.129-.108.289-.18.162-.075.344-.075.348 0 .541.264.195.262.195.728zm-.334.008q0-.348-.119-.52-.119-.172-.365-.172-.14 0-.281.06-.141.06-.27.159v1.09q.137.062.236.084.1.023.225.023.27 0 .422-.183.152-.182.152-.54zM72.949 34.035h-.322v-.205l-.117.082q-.073.052-.142.083-.08.04-.186.065-.105.028-.246.028-.26 0-.44-.172-.182-.172-.182-.44 0-.218.093-.353.095-.136.269-.213.176-.078.422-.105.246-.028.529-.042v-.05q0-.11-.04-.182-.038-.072-.11-.114-.069-.04-.165-.053-.097-.014-.202-.014-.127 0-.284.035-.157.032-.324.096h-.017v-.329q.094-.026.274-.057.179-.03.353-.03.203 0 .353.034.151.032.262.113.108.08.165.205.057.126.057.312zm-.322-.474v-.536l-.35.026q-.2.017-.317.05-.14.04-.225.124-.087.083-.087.23 0 .164.1.249.1.083.305.083.17 0 .312-.066.141-.067.262-.16zM75.185 34.035h-.324v-1.096q0-.133-.016-.248-.015-.117-.056-.183-.043-.072-.124-.106-.081-.037-.21-.037-.133 0-.278.066-.145.065-.277.167v1.437h-.324V32.11h.324v.214q.151-.126.313-.196t.333-.07q.311 0 .475.187.164.188.164.54zM77.94 33.018l-1.989.884v-.31l1.568-.68-1.568-.68v-.31l1.988.883z"/></g><path d="M32.546 14.292h15.875v5.291H32.546zM11.38 19.583h44.979v5.292h-44.98zM11.38 24.875h44.979v5.292h-44.98zM11.38 30.167h11.906v5.291H11.38z" fill="none" stroke="#3d3d55" stroke-width=".282" stroke-linecap="round" stroke-dasharray=".28182084,.84546251" stroke-dashoffset=".185"/><path d="M38.365 87.98c6.173.44 11.254.803 15.925.543 4.672-.26 6.124-.985 7.887-1.867" transform="matrix(1.06823 0 0 1 -17.7 -52.52)" fill="none" stroke="#3d3d55" stroke-width=".256" marker-end="url(#a)"/></svg>