<svg xmlns="http://www.w3.org/2000/svg" viewBox="0 0 84.856 39.822" height="150.509" width="320.717"><defs><marker orient="auto" refY="0" refX="0" id="a" overflow="visible"><path d="M-5.231-2.42L1.324-.01-5.23 2.401c1.047-1.423 1.041-3.37 0-4.821z" fill="#3d3d55" fill-rule="evenodd" stroke="#3d3d55" stroke-width=".375" stroke-linejoin="round"/></marker></defs><g style="line-height:1.25;-inkscape-font-specification:'Open Sans';font-variant-ligatures:normal;font-variant-position:normal;font-variant-caps:normal;font-variant-numeric:normal;font-variant-alternates:normal;font-feature-settings:normal;text-indent:0;text-align:start;text-decoration-line:none;text-decoration-style:solid;text-decoration-color:#000;text-transform:none;text-orientation:mixed;white-space:normal;shape-padding:0" aria-label="LB 1:" font-weight="400" font-size="3.528" font-family="sans-serif" letter-spacing="0" word-spacing="0" fill="#3d3d55" stroke-width=".265"><path style="line-height:1.25;-inkscape-font-specification:'Open Sans';font-variant-ligatures:normal;font-variant-position:normal;font-variant-caps:normal;font-variant-numeric:normal;font-variant-alternates:normal;font-feature-settings:normal;text-indent:0;text-align:start;text-decoration-line:none;text-decoration-style:solid;text-decoration-color:#000;text-transform:none;text-orientation:mixed;white-space:normal;shape-padding:0" d="M1.623 13.3H0v-2.565h.341v2.262h1.282zM3.898 12.51q0 .192-.072.338-.073.147-.195.242-.145.113-.319.162-.172.048-.439.048h-.91v-2.565h.76q.281 0 .42.02.14.021.268.087.14.074.205.19.063.116.063.278 0 .183-.093.312-.093.127-.248.205v.014q.26.053.41.229.15.174.15.44zm-.573-1.155q0-.093-.031-.157-.032-.063-.1-.103-.081-.047-.197-.057-.115-.012-.286-.012h-.406v.74h.44q.16 0 .256-.015.094-.017.175-.069.081-.051.114-.132.035-.083.035-.195zm.218 1.17q0-.155-.046-.247-.047-.091-.169-.155-.083-.043-.202-.055-.117-.014-.286-.014h-.535v.955h.451q.224 0 .367-.023.143-.024.234-.086.097-.067.141-.153.045-.086.045-.222zM7.145 13.3H5.757v-.262h.534v-1.72h-.534v-.233q.108 0 .232-.018.124-.019.188-.053.08-.043.124-.109.047-.067.053-.179h.267v2.312h.524zM8.532 11.867H8.12v-.491h.412zm0 1.433H8.12v-.491h.412z"/></g><g style="line-height:1.25;-inkscape-font-specification:'Open Sans';font-variant-ligatures:normal;font-variant-position:normal;font-variant-caps:normal;font-variant-numeric:normal;font-variant-alternates:normal;font-feature-settings:normal;text-indent:0;text-align:start;text-decoration-line:none;text-decoration-style:solid;text-decoration-color:#000;text-transform:none;text-orientation:mixed;white-space:normal;shape-padding:0" aria-label="LB 2:" font-weight="400" font-size="3.528" font-family="sans-serif" letter-spacing="0" word-spacing="0" fill="#3d3d55" stroke-width=".265"><path style="line-height:1.25;-inkscape-font-specification:'Open Sans';font-variant-ligatures:normal;font-variant-position:normal;font-variant-caps:normal;font-variant-numeric:normal;font-variant-alternates:normal;font-feature-settings:normal;text-indent:0;text-align:start;text-decoration-line:none;text-decoration-style:solid;text-decoration-color:#000;text-transform:none;text-orientation:mixed;white-space:normal;shape-padding:0" d="M1.623 18.647H0v-2.565h.341v2.262h1.282zM3.898 17.858q0 .192-.072.338-.073.146-.195.241-.145.114-.319.162-.172.048-.439.048h-.91v-2.565h.76q.281 0 .42.021.14.02.268.086.14.074.205.191.063.116.063.278 0 .182-.093.311-.093.128-.248.205v.014q.26.054.41.23.15.173.15.44zm-.573-1.156q0-.093-.031-.156-.032-.064-.1-.104-.081-.046-.197-.056-.115-.013-.286-.013h-.406v.741h.44q.16 0 .256-.015.094-.018.175-.07.081-.05.114-.132.035-.083.035-.195zm.218 1.17q0-.155-.046-.246-.047-.092-.169-.155-.083-.043-.202-.055-.117-.014-.286-.014h-.535v.954h.451q.224 0 .367-.022.143-.024.234-.086.097-.068.141-.154.045-.086.045-.222zM7.292 18.647H5.555v-.36l.362-.31q.183-.155.34-.308.33-.32.452-.508.123-.19.123-.409 0-.2-.133-.311-.13-.114-.367-.114-.157 0-.34.055-.182.055-.356.169H5.62v-.362q.122-.06.326-.11.205-.05.396-.05.394 0 .618.191.224.19.224.515 0 .147-.038.274-.036.126-.108.24-.068.106-.159.21-.09.103-.219.229-.184.18-.38.351l-.367.314h1.38zM8.532 17.214H8.12v-.49h.412zm0 1.433H8.12v-.49h.412z"/></g><g style="line-height:1.25;-inkscape-font-specification:'Open Sans';font-variant-ligatures:normal;font-variant-position:normal;font-variant-caps:normal;font-variant-numeric:normal;font-variant-alternates:normal;font-feature-settings:normal;text-indent:0;text-align:start;text-decoration-line:none;text-decoration-style:solid;text-decoration-color:#000;text-transform:none;text-orientation:mixed;white-space:normal;shape-padding:0" aria-label="LB 3:" font-weight="400" font-size="3.528" font-family="sans-serif" letter-spacing="0" word-spacing="0" fill="#3d3d55" stroke-width=".265"><path style="line-height:1.25;-inkscape-font-specification:'Open Sans';font-variant-ligatures:normal;font-variant-position:normal;font-variant-caps:normal;font-variant-numeric:normal;font-variant-alternates:normal;font-feature-settings:normal;text-indent:0;text-align:start;text-decoration-line:none;text-decoration-style:solid;text-decoration-color:#000;text-transform:none;text-orientation:mixed;white-space:normal;shape-padding:0" d="M1.623 23.875H0V21.31h.341v2.262h1.282zM3.898 23.086q0 .191-.072.338-.073.146-.195.241-.145.114-.319.162-.172.048-.439.048h-.91V21.31h.76q.281 0 .42.02.14.022.268.087.14.074.205.191.063.116.063.278 0 .182-.093.311-.093.128-.248.205v.014q.26.054.41.23.15.173.15.44zm-.573-1.156q0-.093-.031-.156-.032-.064-.1-.104-.081-.046-.197-.057-.115-.012-.286-.012h-.406v.741h.44q.16 0 .256-.016.094-.017.175-.068.081-.052.114-.133.035-.083.035-.195zm.218 1.17q0-.155-.046-.246-.047-.092-.169-.155-.083-.043-.202-.055-.117-.014-.286-.014h-.535v.954h.451q.224 0 .367-.022.143-.024.234-.086.097-.068.141-.154.045-.086.045-.222zM7.066 22.64q.083.074.136.186.053.112.053.29 0 .175-.063.322-.064.146-.18.255-.129.12-.304.179-.174.056-.383.056-.213 0-.42-.051-.207-.05-.34-.11v-.36h.026q.147.096.345.16.198.063.382.063.109 0 .231-.036.122-.036.198-.107.08-.075.117-.167.04-.09.04-.23 0-.138-.045-.228-.043-.091-.12-.143-.078-.053-.188-.072-.11-.02-.238-.02h-.155v-.287h.12q.263 0 .418-.108.156-.11.156-.32 0-.094-.04-.163-.039-.07-.11-.115-.074-.045-.158-.062t-.191-.017q-.164 0-.348.058-.185.059-.348.166H5.64v-.36q.122-.06.325-.11.205-.052.396-.052.188 0 .331.034.143.035.258.11.125.083.188.2.064.117.064.274 0 .214-.152.374-.15.158-.354.2v.024q.082.014.189.058.107.044.18.109zM8.532 22.442H8.12v-.49h.412zm0 1.433H8.12v-.49h.412z"/></g><g style="line-height:1.25;-inkscape-font-specification:'Open Sans';font-variant-ligatures:normal;font-variant-position:normal;font-variant-caps:normal;font-variant-numeric:normal;font-variant-alternates:normal;font-feature-settings:normal;text-indent:0;text-align:start;text-decoration-line:none;text-decoration-style:solid;text-decoration-color:#000;text-transform:none;text-orientation:mixed;white-space:normal;shape-padding:0" aria-label="LB 4:" font-weight="400" font-size="3.528" font-family="sans-serif" letter-spacing="0" word-spacing="0" fill="#3d3d55" stroke-width=".265"><path style="line-height:1.25;-inkscape-font-specification:'Open Sans';font-variant-ligatures:normal;font-variant-position:normal;font-variant-caps:normal;font-variant-numeric:normal;font-variant-alternates:normal;font-feature-settings:normal;text-indent:0;text-align:start;text-decoration-line:none;text-decoration-style:solid;text-decoration-color:#000;text-transform:none;text-orientation:mixed;white-space:normal;shape-padding:0" d="M1.623 29.175H0V26.61h.341v2.262h1.282zM3.898 28.386q0 .191-.072.337-.073.147-.195.242-.145.113-.319.162-.172.048-.439.048h-.91V26.61h.76q.281 0 .42.02.14.021.268.087.14.074.205.19.063.116.063.278 0 .183-.093.312-.093.127-.248.205v.014q.26.053.41.229.15.174.15.44zm-.573-1.156q0-.093-.031-.157-.032-.063-.1-.103-.081-.047-.197-.057-.115-.012-.286-.012h-.406v.74h.44q.16 0 .256-.015.094-.017.175-.069.081-.051.114-.132.035-.083.035-.195zm.218 1.17q0-.155-.046-.247-.047-.091-.169-.155-.083-.043-.202-.055-.117-.014-.286-.014h-.535v.955h.451q.224 0 .367-.023.143-.024.234-.086.097-.067.141-.153.045-.086.045-.222zM7.35 28.453h-.38v.722h-.331v-.722H5.41v-.396l1.241-1.447h.317v1.567h.381zm-.711-.276V27.02l-.994 1.157zM8.532 27.742H8.12v-.491h.412zm0 1.433H8.12v-.491h.412z"/></g><g style="line-height:1.25;-inkscape-font-specification:'Open Sans';font-variant-ligatures:normal;font-variant-position:normal;font-variant-caps:normal;font-variant-numeric:normal;font-variant-alternates:normal;font-feature-settings:normal;text-indent:0;text-align:start;text-decoration-line:none;text-decoration-style:solid;text-decoration-color:#000;text-transform:none;text-orientation:mixed;white-space:normal;shape-padding:0" aria-label="LB 5:" font-weight="400" font-size="3.528" font-family="sans-serif" letter-spacing="0" word-spacing="0" fill="#3d3d55" stroke-width=".265"><path style="line-height:1.25;-inkscape-font-specification:'Open Sans';font-variant-ligatures:normal;font-variant-position:normal;font-variant-caps:normal;font-variant-numeric:normal;font-variant-alternates:normal;font-feature-settings:normal;text-indent:0;text-align:start;text-decoration-line:none;text-decoration-style:solid;text-decoration-color:#000;text-transform:none;text-orientation:mixed;white-space:normal;shape-padding:0" d="M1.623 34.413H0v-2.565h.341v2.262h1.282zM3.898 33.624q0 .191-.072.338-.073.146-.195.24-.145.115-.319.163-.172.048-.439.048h-.91v-2.565h.76q.281 0 .42.02.14.021.268.087.14.074.205.191.063.116.063.277 0 .183-.093.312-.093.128-.248.205v.014q.26.053.41.23.15.173.15.44zm-.573-1.156q0-.093-.031-.157-.032-.063-.1-.103-.081-.046-.197-.057-.115-.012-.286-.012h-.406v.74h.44q.16 0 .256-.015.094-.017.175-.068.081-.052.114-.133.035-.083.035-.195zm.218 1.17q0-.155-.046-.246-.047-.092-.169-.155-.083-.044-.202-.056-.117-.013-.286-.013h-.535v.954h.451q.224 0 .367-.022.143-.025.234-.087.097-.067.141-.153.045-.086.045-.222zM7.27 33.598q0 .18-.065.343-.065.164-.179.276-.124.12-.296.186-.17.063-.396.063-.21 0-.405-.044-.195-.044-.329-.106v-.363h.024q.141.09.33.153.19.062.373.062.122 0 .236-.034.115-.035.205-.12.076-.075.114-.178.04-.104.04-.24 0-.132-.047-.224-.045-.09-.126-.146-.09-.065-.219-.091-.127-.028-.286-.028-.151 0-.293.02-.14.022-.24.042v-1.321h1.543v.301H6.043v.683q.074-.007.151-.01.078-.004.135-.004.208 0 .365.036.157.035.287.124.138.095.214.245.076.15.076.376zM8.532 32.98H8.12v-.491h.412zm0 1.433H8.12v-.49h.412z"/></g><g style="line-height:1.25;-inkscape-font-specification:'Open Sans';font-variant-ligatures:normal;font-variant-position:normal;font-variant-caps:normal;font-variant-numeric:normal;font-variant-alternates:normal;font-feature-settings:normal;text-indent:0;text-align:start;text-decoration-line:none;text-decoration-style:solid;text-decoration-color:#000;text-transform:none;text-orientation:mixed;white-space:normal;shape-padding:0" aria-label="LB 6:" font-weight="400" font-size="3.528" font-family="sans-serif" letter-spacing="0" word-spacing="0" fill="#3d3d55" stroke-width=".265"><path style="line-height:1.25;-inkscape-font-specification:'Open Sans';font-variant-ligatures:normal;font-variant-position:normal;font-variant-caps:normal;font-variant-numeric:normal;font-variant-alternates:normal;font-feature-settings:normal;text-indent:0;text-align:start;text-decoration-line:none;text-decoration-style:solid;text-decoration-color:#000;text-transform:none;text-orientation:mixed;white-space:normal;shape-padding:0" d="M1.623 39.75H0v-2.565h.341v2.262h1.282zM3.898 38.961q0 .191-.072.338-.073.146-.195.241-.145.114-.319.162-.172.048-.439.048h-.91v-2.565h.76q.281 0 .42.02.14.022.268.087.14.074.205.191.063.116.063.278 0 .182-.093.311-.093.128-.248.205v.014q.26.054.41.23.15.173.15.44zm-.573-1.156q0-.093-.031-.156-.032-.064-.1-.104-.081-.046-.197-.057-.115-.012-.286-.012h-.406v.741h.44q.16 0 .256-.015.094-.018.175-.07.081-.051.114-.132.035-.083.035-.195zm.218 1.17q0-.155-.046-.246-.047-.092-.169-.155-.083-.043-.202-.055-.117-.014-.286-.014h-.535v.954h.451q.224 0 .367-.022.143-.024.234-.086.097-.068.141-.154.045-.086.045-.222zM7.33 38.918q0 .391-.259.64-.257.246-.63.246-.19 0-.345-.059-.155-.059-.274-.174-.148-.143-.229-.379-.08-.236-.08-.568 0-.341.073-.605.074-.264.234-.469.152-.194.392-.303.239-.11.558-.11.101 0 .17.009t.14.031v.329h-.018q-.048-.026-.146-.048-.096-.024-.198-.024-.37 0-.59.232-.221.231-.258.626.145-.088.285-.133.14-.047.325-.047.164 0 .288.031.126.03.257.121.151.105.227.265.077.16.077.39zm-.35.014q0-.16-.048-.265-.047-.105-.155-.183-.08-.055-.176-.072-.097-.017-.202-.017-.146 0-.272.034-.126.034-.258.107-.004.038-.005.074-.002.034-.002.088 0 .272.055.43.057.157.155.248.08.076.17.112.094.035.202.035.25 0 .393-.152.143-.153.143-.439zM8.532 38.317H8.12v-.49h.412zm0 1.433H8.12v-.49h.412z"/></g><g fill="#3d3d55" stroke-width=".265" font-weight="400" font-size="3.528" font-family="Open Sans" letter-spacing="0" word-spacing="0"><g style="line-height:1.25" aria-label="LB = line box"><path style="-inkscape-font-specification:'Open Sans'" d="M0 2.68V.162h.293v2.253h1.11v.265zM1.833.162h.711q.501 0 .725.15.224.15.224.473 0 .224-.125.37-.124.146-.364.189v.017q.574.098.574.603 0 .337-.23.527-.227.19-.637.19h-.878zm.293 1.078h.482q.31 0 .446-.096.136-.098.136-.33 0-.211-.151-.304-.152-.095-.483-.095h-.43zm0 .248v.943h.525q.305 0 .458-.118.155-.118.155-.37 0-.234-.158-.344-.157-.11-.48-.11zM4.895 1.202V.966h1.602v.236zm0 .705V1.67h1.602v.236zM8.215 2.68h-.286V0h.286zM9.11 2.68h-.285V.792h.286zM8.8.28q0-.097.049-.142.048-.047.12-.047.07 0 .12.047.05.046.05.143 0 .096-.05.144-.05.047-.12.047-.072 0-.12-.047Q8.8.377 8.8.281zM11.012 2.68V1.46q0-.23-.105-.345-.105-.113-.329-.113-.296 0-.434.16t-.138.529v.99H9.72V.792h.233l.046.259h.014q.088-.14.246-.216.159-.077.354-.077.34 0 .513.165.172.164.172.526V2.68zM12.681 2.715q-.418 0-.661-.255-.241-.255-.241-.708 0-.457.224-.725.225-.27.604-.27.355 0 .562.235.207.233.207.615v.181h-1.3q.008.332.166.505.16.172.45.172.305 0 .603-.128v.255q-.152.066-.288.093-.134.03-.326.03zM12.604.997q-.228 0-.364.148-.134.149-.158.41h.987q0-.27-.12-.413-.121-.145-.345-.145zM15.656.761q.372 0 .577.255.207.254.207.719 0 .465-.208.723-.207.257-.576.257-.184 0-.337-.067-.152-.07-.255-.21h-.021l-.06.242h-.205V0h.286v.651q0 .219-.014.393h.014q.2-.283.592-.283zm-.041.24q-.293 0-.422.169-.13.167-.13.565 0 .398.133.57.133.17.426.17.263 0 .393-.19.129-.194.129-.554 0-.368-.13-.55-.129-.18-.4-.18zM18.57 1.735q0 .461-.232.721-.232.259-.642.259-.253 0-.45-.12-.196-.118-.303-.34-.107-.222-.107-.52 0-.462.231-.719.23-.258.64-.258.397 0 .63.263.234.264.234.714zm-1.438 0q0 .361.145.55.145.19.426.19.28 0 .425-.187.147-.19.147-.553 0-.36-.147-.546Q17.983 1 17.7 1q-.28 0-.424.184-.143.184-.143.55zM19.525 1.714L18.87.792h.325l.498.724.496-.724h.322l-.656.922.69.966h-.323l-.529-.765-.534.765h-.324z"/></g><g style="line-height:1.25" aria-label="IB = inline box"><path style="-inkscape-font-specification:'Open Sans'" d="M.109 7.046V4.528H.4v2.518zM1.094 4.528h.711q.501 0 .725.15.224.15.224.473 0 .224-.125.37-.124.145-.364.188v.017q.574.099.574.603 0 .338-.23.527-.227.19-.637.19h-.878zm.293 1.078h.482q.31 0 .446-.097.136-.098.136-.329 0-.211-.151-.305-.152-.094-.483-.094h-.43zm0 .248v.942h.525q.305 0 .458-.117.155-.119.155-.37 0-.235-.158-.345-.157-.11-.48-.11zM4.157 5.568v-.236h1.601v.236zm0 .704v-.236h1.601v.236zM7.476 7.046H7.19V5.158h.286zm-.31-2.4q0-.098.048-.143.048-.046.12-.046.07 0 .12.046.05.047.05.143 0 .097-.05.145-.05.047-.12.047-.072 0-.12-.047-.048-.048-.048-.145zM9.378 7.046V5.825q0-.231-.106-.345-.105-.114-.329-.114-.296 0-.434.16-.137.16-.137.53v.99h-.286V5.158h.232l.047.258h.013q.088-.14.247-.215.158-.077.353-.077.341 0 .513.165.172.164.172.525v1.232zM10.535 7.046h-.286v-2.68h.286zM11.43 7.046h-.285V5.158h.286zm-.31-2.4q0-.098.049-.143.048-.046.12-.046.07 0 .12.046.05.047.05.143 0 .097-.05.145-.05.047-.12.047-.072 0-.12-.047-.048-.048-.048-.145zM13.333 7.046V5.825q0-.231-.106-.345-.105-.114-.329-.114-.296 0-.434.16-.137.16-.137.53v.99h-.286V5.158h.232l.047.258h.013q.088-.14.247-.215.158-.077.353-.077.341 0 .513.165.172.164.172.525v1.232zM15.002 7.08q-.419 0-.662-.255-.24-.255-.24-.708 0-.456.223-.725.226-.268.605-.268.354 0 .561.234.207.232.207.615v.18h-1.3q.008.333.166.505.16.173.45.173.305 0 .603-.128v.255q-.152.066-.288.093-.134.03-.325.03zm-.078-1.717q-.227 0-.363.148-.135.148-.159.41h.987q0-.27-.12-.413-.12-.145-.345-.145zM17.977 5.127q.372 0 .577.255.206.253.206.718 0 .465-.208.724-.207.256-.575.256-.185 0-.338-.067-.152-.069-.255-.21h-.02l-.061.243h-.205v-2.68h.286v.65q0 .22-.014.393h.014q.2-.282.593-.282zm-.042.24q-.293 0-.422.168-.13.167-.13.565 0 .398.134.57.132.17.425.17.264 0 .393-.19.129-.193.129-.553 0-.369-.13-.55-.128-.18-.399-.18zM20.891 6.1q0 .462-.232.722-.233.258-.643.258-.253 0-.45-.119-.196-.118-.303-.34-.107-.223-.107-.52 0-.462.231-.72.231-.257.641-.257.396 0 .629.263.234.264.234.713zm-1.438 0q0 .362.144.551.145.19.426.19.28 0 .425-.188.147-.19.147-.553 0-.36-.147-.546-.144-.188-.429-.188-.28 0-.423.185-.143.184-.143.55zM21.845 6.08l-.656-.922h.326l.497.723.497-.723h.322l-.657.922.691.966h-.324l-.529-.765-.534.765h-.323z"/></g></g><path d="M10.138 19.914h44.98v5.292h-44.98z" fill="#dfdff9"/><path d="M10.138 25.206h44.98v5.292h-44.98zM10.138 30.498h11.906v5.291H10.138zM32 14.623h16.238v5.291H31.999z" fill="#dfdff9"/><g style="line-height:1.25" aria-label="This is the first sentence. This is the second sentence, with some important info. This is the third sentence." font-weight="400" font-size="4.233" font-family="sans-serif" letter-spacing="0" word-spacing="0" stroke-width=".265"><path d="M12.747 10.586h-1.1V13.3h-.41v-2.714h-1.099v-.364h2.609zM15.064 13.3h-.389v-1.315q0-.16-.018-.298-.019-.14-.069-.219-.051-.086-.148-.128-.098-.043-.253-.043-.159 0-.332.078-.174.079-.333.2V13.3h-.389v-3.217h.389v1.164q.182-.15.376-.235.194-.085.399-.085.374 0 .57.225.197.225.197.65zM16.23 10.604h-.439v-.403h.439zm-.025 2.696h-.389v-2.31h.389zM18.627 12.634q0 .316-.262.519-.26.203-.713.203-.257 0-.472-.06-.212-.062-.357-.135v-.436h.02q.184.139.41.221.225.08.432.08.256 0 .4-.082.146-.082.146-.26 0-.137-.079-.207-.079-.07-.302-.12-.083-.018-.217-.043-.132-.025-.242-.054-.304-.08-.432-.236-.126-.157-.126-.384 0-.143.058-.269.06-.126.18-.225.116-.097.293-.153.18-.058.401-.058.207 0 .418.052.213.05.353.122v.415h-.02q-.15-.11-.362-.184-.213-.076-.418-.076-.212 0-.36.082-.146.081-.146.242 0 .143.089.215.087.073.281.118.108.025.24.05.134.024.223.045.27.062.418.213.146.153.146.405zM21.091 10.604h-.438v-.403h.438zm-.024 2.696h-.39v-2.31h.39zM23.49 12.634q0 .316-.263.519-.26.203-.714.203-.256 0-.47-.06-.214-.062-.358-.135v-.436h.02q.184.139.41.221.225.08.432.08.256 0 .4-.082.145-.082.145-.26 0-.137-.078-.207-.079-.07-.302-.12-.083-.018-.217-.043-.132-.025-.242-.054-.304-.08-.432-.236-.126-.157-.126-.384 0-.143.058-.269.06-.126.18-.225.115-.097.293-.153.18-.058.401-.058.207 0 .418.052.213.05.353.122v.415h-.02q-.15-.11-.362-.184-.213-.076-.418-.076-.213 0-.36.082-.146.081-.146.242 0 .143.089.215.086.073.28.118.108.025.24.05.135.024.224.045.27.062.417.213.147.153.147.405zM26.734 13.28q-.11.028-.24.047-.128.018-.229.018-.353 0-.537-.19-.184-.19-.184-.61v-1.228h-.263v-.326h.263v-.664h.388v.664h.802v.326h-.802v1.053q0 .181.009.285.008.101.058.19.045.083.124.122.08.037.243.037.096 0 .199-.027.103-.029.149-.047h.02zM29.136 13.3h-.388v-1.315q0-.16-.019-.298-.018-.14-.068-.219-.052-.086-.149-.128-.097-.043-.252-.043-.16 0-.333.078-.174.079-.333.2V13.3h-.388v-3.217h.388v1.164q.182-.15.377-.235.194-.085.398-.085.375 0 .571.225.196.225.196.65zM31.817 12.186h-1.7q0 .213.063.372.064.157.176.258.107.1.254.149.149.05.327.05.235 0 .473-.094.24-.095.341-.186h.02v.424q-.196.083-.4.139-.205.055-.43.055-.575 0-.897-.31-.323-.312-.323-.884 0-.567.308-.9.31-.332.815-.332.467 0 .719.273.254.272.254.775zm-.378-.298q-.002-.306-.155-.473-.15-.168-.461-.168-.312 0-.498.184-.184.184-.209.457zM35.137 10.46h-.02q-.065-.019-.168-.038-.103-.02-.182-.02-.25 0-.364.111-.111.11-.111.4v.078h.7v.326h-.688V13.3h-.389v-1.983h-.262v-.326h.262v-.077q0-.411.205-.63.205-.221.591-.221.13 0 .234.012.105.013.192.03zM35.8 10.604h-.438v-.403h.439zm-.024 2.696h-.389v-2.31h.389zM37.99 11.415h-.021q-.087-.021-.17-.03-.08-.01-.192-.01-.18 0-.347.08-.168.08-.323.206V13.3h-.388v-2.31h.388v.342q.232-.186.408-.263.177-.078.361-.078.102 0 .147.006.046.004.137.019zM40.009 12.634q0 .316-.262.519-.26.203-.714.203-.256 0-.47-.06-.214-.062-.359-.135v-.436h.021q.184.139.41.221.225.08.431.08.257 0 .401-.082.145-.082.145-.26 0-.137-.078-.207-.079-.07-.302-.12-.083-.018-.217-.043-.133-.025-.242-.054-.304-.08-.432-.236-.126-.157-.126-.384 0-.143.058-.269.06-.126.18-.225.115-.097.293-.153.18-.058.401-.058.207 0 .418.052.213.05.353.122v.415h-.02q-.15-.11-.362-.184-.213-.076-.418-.076-.213 0-.36.082-.146.081-.146.242 0 .143.089.215.086.073.28.118.108.025.24.05.135.024.224.045.27.062.417.213.147.153.147.405zM41.766 13.28q-.11.028-.24.047-.128.018-.23.018-.353 0-.537-.19-.184-.19-.184-.61v-1.228h-.262v-.326h.262v-.664h.389v.664h.802v.326h-.802v1.053q0 .181.008.285.009.101.058.19.046.083.124.122.08.037.244.037.095 0 .199-.027.103-.029.148-.047h.021zM12.17 17.926q0 .316-.263.519-.26.202-.713.202-.256 0-.471-.06-.213-.062-.358-.134v-.436h.021q.184.138.41.22.225.082.431.082.257 0 .401-.083.145-.083.145-.26 0-.137-.079-.207-.078-.07-.301-.12-.083-.019-.217-.044-.133-.024-.242-.053-.304-.08-.432-.236-.126-.157-.126-.384 0-.143.058-.27.06-.125.18-.224.115-.098.293-.153.18-.058.4-.058.208 0 .418.051.213.05.354.122v.416h-.02q-.15-.11-.362-.184-.213-.077-.418-.077-.213 0-.36.083-.146.08-.146.242 0 .143.088.215.087.072.282.118.107.024.24.05.134.024.223.045.27.062.417.213.147.153.147.405zM14.66 17.477h-1.7q0 .213.064.372.064.157.175.259.108.099.255.149.148.05.326.05.236 0 .474-.094.24-.095.34-.186h.021v.424q-.196.083-.4.138-.205.056-.43.056-.575 0-.898-.31-.322-.312-.322-.885 0-.566.308-.899.31-.333.814-.333.467 0 .72.273.254.273.254.775zm-.378-.297q-.002-.306-.155-.474-.15-.167-.46-.167-.313 0-.499.184-.184.184-.208.457zM17.18 18.591h-.388v-1.314q0-.16-.019-.298-.018-.14-.068-.219-.052-.087-.149-.128-.097-.044-.252-.044-.16 0-.333.079-.173.079-.333.2v1.724h-.388v-2.308h.388v.256q.182-.151.377-.236.194-.085.399-.085.374 0 .57.226.196.225.196.649zM19.128 18.57q-.11.03-.24.048-.128.019-.23.019-.353 0-.537-.19-.184-.19-.184-.61v-1.228h-.263v-.326h.263v-.664h.389v.664h.802v.326h-.802v1.052q0 .182.008.285.008.102.058.19.045.083.124.123.08.037.244.037.095 0 .198-.027.104-.029.149-.048h.02zM21.532 17.477H19.83q0 .213.065.372.064.157.175.259.108.099.254.149.15.05.327.05.236 0 .473-.094.24-.095.341-.186h.021v.424q-.196.083-.4.138-.206.056-.43.056-.575 0-.898-.31-.322-.312-.322-.885 0-.566.308-.899.31-.333.814-.333.467 0 .72.273.254.273.254.775zm-.379-.297q-.002-.306-.155-.474-.15-.167-.46-.167-.313 0-.499.184-.184.184-.209.457zM24.051 18.591h-.388v-1.314q0-.16-.019-.298-.018-.14-.068-.219-.052-.087-.149-.128-.097-.044-.252-.044-.16 0-.333.079-.174.079-.333.2v1.724h-.388v-2.308h.388v.256q.182-.151.377-.236.194-.085.398-.085.375 0 .571.226.196.225.196.649zM26.507 18.447q-.194.093-.37.144-.174.052-.37.052-.25 0-.459-.072-.209-.075-.357-.223-.151-.15-.234-.377-.083-.227-.083-.53 0-.567.31-.89.312-.322.823-.322.198 0 .389.056.192.055.351.136v.432h-.02q-.178-.138-.369-.213-.188-.074-.368-.074-.33 0-.522.223-.19.221-.19.651 0 .418.185.643.188.223.527.223.118 0 .24-.03.122-.032.22-.081.084-.044.159-.091.074-.05.117-.085h.021zM28.94 17.477h-1.701q0 .213.064.372.064.157.176.259.107.099.254.149.149.05.326.05.236 0 .474-.094.24-.095.34-.186h.021v.424q-.196.083-.4.138-.205.056-.43.056-.575 0-.898-.31-.322-.312-.322-.885 0-.566.308-.899.31-.333.814-.333.468 0 .72.273.254.273.254.775zm-.378-.297q-.002-.306-.155-.474-.151-.167-.461-.167-.312 0-.498.184-.184.184-.21.457zM30.164 18.591h-.494v-.589h.494zM34.781 15.877h-1.1v2.714h-.409v-2.714h-1.1v-.363h2.61zM37.099 18.591h-.389v-1.314q0-.16-.019-.298-.018-.14-.068-.219-.051-.087-.149-.128-.097-.044-.252-.044-.159 0-.333.079-.173.079-.332.2v1.724h-.389v-3.216h.389v1.164q.182-.151.376-.236.194-.085.399-.085.374 0 .57.226.197.225.197.649zM38.264 15.896h-.438v-.403h.438zm-.024 2.695h-.389v-2.308h.389zM40.662 17.926q0 .316-.262.519-.26.202-.713.202-.257 0-.472-.06-.213-.062-.357-.134v-.436h.02q.184.138.41.22.225.082.432.082.256 0 .4-.083.145-.083.145-.26 0-.137-.078-.207-.079-.07-.302-.12-.083-.019-.217-.044-.132-.024-.242-.053-.304-.08-.432-.236-.126-.157-.126-.384 0-.143.058-.27.06-.125.18-.224.115-.098.293-.153.18-.058.401-.058.207 0 .418.051.213.05.353.122v.416h-.02q-.15-.11-.362-.184-.213-.077-.418-.077-.213 0-.36.083-.146.08-.146.242 0 .143.089.215.087.072.28.118.108.024.24.05.135.024.224.045.27.062.417.213.147.153.147.405zM43.126 15.896h-.438v-.403h.438zm-.025 2.695h-.388v-2.308h.388zM45.524 17.926q0 .316-.263.519-.26.202-.713.202-.256 0-.471-.06-.213-.062-.358-.134v-.436h.021q.184.138.41.22.225.082.431.082.257 0 .401-.083.145-.083.145-.26 0-.137-.078-.207-.079-.07-.302-.12-.083-.019-.217-.044-.133-.024-.242-.053-.304-.08-.432-.236-.126-.157-.126-.384 0-.143.058-.27.06-.125.18-.224.115-.098.293-.153.18-.058.401-.058.207 0 .418.051.212.05.353.122v.416h-.02q-.15-.11-.362-.184-.213-.077-.418-.077-.213 0-.36.083-.146.08-.146.242 0 .143.088.215.087.072.282.118.107.024.24.05.134.024.223.045.27.062.417.213.147.153.147.405zM11.72 23.862q-.11.03-.24.048-.129.019-.23.019-.353 0-.537-.19-.184-.19-.184-.61V21.9h-.263v-.327h.263v-.663h.388v.663h.802v.327h-.802v1.052q0 .182.009.285.008.101.057.19.046.083.124.122.081.037.244.037.095 0 .199-.026.103-.03.149-.048h.02zM14.121 23.883h-.388v-1.315q0-.159-.019-.297-.019-.14-.068-.22-.052-.086-.149-.127-.097-.044-.252-.044-.16 0-.333.079-.174.078-.333.2v1.724h-.388v-3.216h.388v1.163q.182-.15.376-.235.195-.085.4-.085.373 0 .57.225.196.226.196.65zM16.802 22.769h-1.701q0 .213.064.372.064.157.176.258.107.1.254.15.149.049.327.049.235 0 .473-.093.24-.095.341-.186h.02v.424q-.196.082-.4.138-.205.056-.43.056-.575 0-.897-.31-.323-.312-.323-.885 0-.566.308-.9.31-.332.815-.332.467 0 .719.273.254.273.254.775zm-.378-.298q-.002-.306-.155-.473-.151-.168-.461-.168-.312 0-.498.184-.184.184-.209.457zM20.53 23.217q0 .317-.263.52-.26.202-.714.202-.256 0-.47-.06-.214-.062-.358-.134v-.437h.02q.184.139.41.222.225.08.432.08.256 0 .4-.082.145-.083.145-.26 0-.137-.078-.208-.079-.07-.302-.12-.083-.018-.217-.043-.132-.025-.242-.054-.304-.08-.432-.235-.126-.157-.126-.385 0-.142.058-.268.06-.127.18-.226.115-.097.293-.153.18-.058.401-.058.207 0 .418.052.213.05.353.122v.415h-.02q-.15-.11-.362-.183-.213-.077-.418-.077-.213 0-.36.083-.146.08-.146.242 0 .142.089.215.086.072.28.117.108.025.24.05.135.025.224.045.27.062.417.213.147.153.147.405zM23.02 22.769h-1.701q0 .213.064.372.064.157.175.258.108.1.255.15.149.049.326.049.236 0 .474-.093.24-.095.34-.186h.021v.424q-.196.082-.4.138-.205.056-.43.056-.575 0-.898-.31-.322-.312-.322-.885 0-.566.308-.9.31-.332.814-.332.467 0 .72.273.254.273.254.775zm-.378-.298q-.002-.306-.155-.473-.151-.168-.461-.168-.312 0-.499.184-.183.184-.208.457zM25.316 23.738q-.194.093-.37.145-.173.052-.37.052-.25 0-.459-.073-.208-.074-.357-.223-.151-.149-.234-.376-.082-.227-.082-.531 0-.567.31-.89.312-.322.822-.322.199 0 .389.056.192.056.351.137v.432h-.02q-.178-.139-.368-.213-.188-.075-.368-.075-.33 0-.523.224-.19.22-.19.65 0 .418.186.644.188.223.527.223.118 0 .24-.031t.219-.08q.084-.044.159-.092.074-.05.118-.084h.02zM27.784 22.73q0 .564-.289.89-.29.327-.775.327-.49 0-.78-.326-.287-.327-.287-.891 0-.565.288-.891.289-.329.779-.329.486 0 .775.329.29.326.29.89zm-.4 0q0-.449-.176-.666-.176-.219-.488-.219-.316 0-.492.22-.174.216-.174.665 0 .434.176.66.176.222.49.222.31 0 .486-.22.177-.224.177-.662zM30.319 23.883h-.389v-1.315q0-.159-.019-.297-.018-.14-.068-.22-.051-.086-.149-.127-.097-.044-.252-.044-.159 0-.333.079-.173.078-.332.2v1.724h-.389v-2.309h.389v.256q.182-.15.376-.235.194-.085.399-.085.374 0 .57.225.197.226.197.65zM32.94 23.883h-.389v-.242q-.167.145-.35.226-.181.08-.394.08-.413 0-.657-.318-.242-.318-.242-.883 0-.293.082-.523.085-.23.228-.39.14-.158.326-.24.189-.083.389-.083.182 0 .323.04.14.037.295.117v-1h.389zm-.389-.568V21.99q-.157-.07-.281-.097-.124-.027-.27-.027-.327 0-.51.227-.181.227-.181.645 0 .411.14.626.14.213.451.213.165 0 .335-.072.17-.075.316-.19zM36.842 23.217q0 .317-.262.52-.26.202-.713.202-.257 0-.472-.06-.213-.062-.357-.134v-.437h.02q.184.139.41.222.225.08.432.08.256 0 .4-.082.145-.083.145-.26 0-.137-.078-.208-.079-.07-.302-.12-.083-.018-.217-.043-.132-.025-.242-.054-.304-.08-.432-.235-.126-.157-.126-.385 0-.142.058-.268.06-.127.18-.226.116-.097.293-.153.18-.058.401-.058.207 0 .418.052.213.05.353.122v.415h-.02q-.15-.11-.362-.183-.213-.077-.418-.077-.213 0-.36.083-.146.08-.146.242 0 .142.089.215.087.072.281.117.107.025.24.05.134.025.223.045.27.062.418.213.146.153.146.405zM39.333 22.769h-1.701q0 .213.064.372.064.157.176.258.107.1.254.15.149.049.327.049.235 0 .473-.093.24-.095.341-.186h.02v.424q-.196.082-.4.138-.205.056-.43.056-.575 0-.897-.31-.323-.312-.323-.885 0-.566.308-.9.31-.332.815-.332.467 0 .719.273.254.273.254.775zm-.378-.298q-.002-.306-.155-.473-.151-.168-.461-.168-.312 0-.498.184-.184.184-.21.457zM41.853 23.883h-.389v-1.315q0-.159-.018-.297-.019-.14-.069-.22-.051-.086-.148-.127-.098-.044-.253-.044-.159 0-.332.079-.174.078-.333.2v1.724h-.389v-2.309h.389v.256q.182-.15.376-.235.194-.085.399-.085.374 0 .57.225.197.226.197.65zM43.8 23.862q-.11.03-.24.048-.128.019-.23.019-.353 0-.537-.19-.184-.19-.184-.61V21.9h-.262v-.327h.262v-.663h.389v.663h.802v.327h-.802v1.052q0 .182.008.285.009.101.058.19.046.083.124.122.08.037.244.037.095 0 .199-.026.103-.03.148-.048h.021zM46.204 22.769h-1.701q0 .213.064.372.064.157.176.258.107.1.254.15.149.049.326.049.236 0 .474-.093.24-.095.34-.186h.022v.424q-.197.082-.401.138-.205.056-.43.056-.575 0-.898-.31-.322-.312-.322-.885 0-.566.308-.9.31-.332.814-.332.468 0 .72.273.254.273.254.775zm-.378-.298q-.002-.306-.155-.473-.151-.168-.461-.168-.312 0-.498.184-.184.184-.21.457zM48.724 23.883h-.389v-1.315q0-.159-.018-.297-.02-.14-.069-.22-.051-.086-.148-.127-.098-.044-.253-.044-.159 0-.332.079-.174.078-.333.2v1.724h-.389v-2.309h.389v.256q.182-.15.376-.235.194-.085.399-.085.374 0 .57.225.197.226.197.65zM51.18 23.738q-.195.093-.37.145-.174.052-.37.052-.25 0-.46-.073-.208-.074-.357-.223-.151-.149-.234-.376-.082-.227-.082-.531 0-.567.31-.89.312-.322.822-.322.199 0 .389.056.192.056.351.137v.432h-.02q-.178-.139-.368-.213-.188-.075-.368-.075-.33 0-.523.224-.19.22-.19.65 0 .418.186.644.188.223.527.223.118 0 .24-.031t.219-.08q.085-.044.159-.092.074-.05.118-.084h.02zM53.612 22.769h-1.7q0 .213.063.372.064.157.176.258.107.1.254.15.149.049.327.049.235 0 .473-.093.24-.095.341-.186h.02v.424q-.196.082-.4.138-.205.056-.43.056-.575 0-.897-.31-.323-.312-.323-.885 0-.566.308-.9.31-.332.815-.332.467 0 .72.273.253.273.253.775zm-.378-.298q-.002-.306-.155-.473-.15-.168-.46-.168-.313 0-.5.184-.183.184-.208.457zM55.008 23.294l-.583 1.354h-.302l.36-1.354zM13.425 26.866l-.602 2.309h-.36l-.593-1.78-.589 1.78h-.358l-.607-2.31h.405l.424 1.789.576-1.788h.32l.592 1.788.4-1.788zM14.402 26.48h-.438v-.404h.438zm-.024 2.695h-.39v-2.31h.39zM16.35 29.154q-.11.029-.24.048-.128.018-.23.018-.353 0-.537-.19-.184-.19-.184-.61v-1.228h-.263v-.326h.263v-.664h.388v.664h.802v.326h-.802v1.053q0 .181.009.285.008.101.058.19.045.083.124.122.08.037.244.037.095 0 .198-.027.103-.029.149-.047h.02zM18.751 29.175h-.388V27.86q0-.16-.019-.298-.018-.14-.068-.219-.052-.086-.149-.128-.097-.043-.252-.043-.16 0-.333.078-.173.079-.333.2v1.725h-.388v-3.217h.388v1.164q.182-.15.377-.235.194-.085.399-.085.374 0 .57.225.196.225.196.65zM22.637 28.51q0 .315-.262.518-.26.203-.713.203-.256 0-.471-.06-.213-.062-.358-.135V28.6h.02q.185.139.41.221.225.08.432.08.256 0 .4-.082.146-.082.146-.26 0-.137-.079-.207-.078-.07-.302-.12-.082-.018-.217-.043-.132-.025-.242-.054-.303-.08-.432-.236-.126-.157-.126-.384 0-.143.058-.269.06-.126.18-.225.116-.097.294-.153.18-.058.4-.058.207 0 .418.052.213.05.354.122v.415h-.021q-.149-.11-.362-.184-.213-.076-.417-.076-.213 0-.36.082-.147.081-.147.242 0 .143.089.215.087.073.281.118.108.025.24.05.134.024.223.045.271.062.418.213.146.153.146.405zM25.163 28.021q0 .565-.289.891-.29.327-.775.327-.49 0-.78-.327-.287-.326-.287-.89 0-.565.288-.892.289-.328.779-.328.486 0 .775.328.29.327.29.891zm-.4 0q0-.448-.176-.665-.176-.22-.488-.22-.316 0-.492.22-.174.217-.174.665 0 .434.176.66.176.223.49.223.31 0 .486-.221.177-.223.177-.662zM29.136 29.175h-.388V27.86q0-.149-.015-.287-.012-.139-.056-.221-.047-.09-.136-.135-.089-.045-.256-.045-.164 0-.327.082-.163.081-.327.207.007.048.01.112.005.062.005.124v1.478h-.389V27.86q0-.153-.014-.29-.013-.138-.056-.22-.047-.09-.136-.133-.09-.045-.257-.045-.159 0-.32.078-.16.079-.318.2v1.725h-.389v-2.31h.389v.257q.182-.15.361-.235.182-.085.387-.085.236 0 .399.099.165.1.246.275.235-.199.43-.285.194-.09.415-.09.38 0 .56.232.182.23.182.643zM31.817 28.06h-1.7q0 .214.063.373.064.157.176.258.107.1.254.149.149.05.327.05.235 0 .473-.094.24-.095.341-.186h.02v.424q-.196.083-.4.139-.205.055-.43.055-.575 0-.897-.31-.323-.312-.323-.884 0-.567.308-.9.31-.332.815-.332.467 0 .719.273.254.272.254.775zm-.378-.297q-.002-.306-.155-.473-.15-.168-.461-.168-.312 0-.498.184-.184.184-.209.457zM34.312 26.48h-.438v-.404h.438zm-.025 2.695H33.9v-2.31h.388zM38.43 29.175h-.389V27.86q0-.149-.014-.287-.013-.139-.056-.221-.048-.09-.137-.135-.088-.045-.256-.045-.163 0-.326.082-.164.081-.327.207.006.048.01.112.004.062.004.124v1.478h-.388V27.86q0-.153-.015-.29-.012-.138-.055-.22-.048-.09-.137-.133-.089-.045-.256-.045-.16 0-.32.078-.16.079-.319.2v1.725h-.388v-2.31h.388v.257q.182-.15.362-.235.182-.085.386-.085.236 0 .4.099.165.1.245.275.236-.199.43-.285.195-.09.416-.09.38 0 .56.232.182.23.182.643zM41.21 27.992q0 .282-.08.515-.081.232-.228.393-.136.153-.322.238-.184.082-.391.082-.18 0-.327-.039-.144-.04-.295-.122v.967h-.389v-3.16h.389v.242q.155-.13.347-.217.194-.09.413-.09.418 0 .65.317.233.314.233.874zm-.401.01q0-.417-.143-.624-.142-.206-.438-.206-.167 0-.337.072t-.324.19v1.309q.165.074.283.101.12.027.27.027.325 0 .507-.22.182-.218.182-.648zM43.783 28.021q0 .565-.289.891-.29.327-.775.327-.49 0-.78-.327-.287-.326-.287-.89 0-.565.288-.892.29-.328.779-.328.486 0 .775.328.29.327.29.891zm-.4 0q0-.448-.176-.665-.176-.22-.488-.22-.316 0-.492.22-.174.217-.174.665 0 .434.176.66.176.223.49.223.31 0 .486-.221.177-.223.177-.662zM45.828 27.29h-.02q-.088-.021-.17-.03-.081-.01-.193-.01-.18 0-.347.08-.167.08-.322.206v1.639h-.389v-2.31h.389v.342q.231-.186.407-.263.178-.078.362-.078.1 0 .146.006.046.004.137.019zM47.397 29.154q-.11.029-.24.048-.128.018-.23.018-.353 0-.537-.19-.184-.19-.184-.61v-1.228h-.262v-.326h.262v-.664h.389v.664h.802v.326h-.802v1.053q0 .181.008.285.008.101.058.19.045.083.124.122.08.037.244.037.095 0 .198-.027.104-.029.15-.047h.02zM49.662 29.175h-.386v-.246q-.052.035-.14.099-.088.062-.17.1-.098.047-.224.078-.126.033-.295.033-.312 0-.53-.207-.216-.207-.216-.527 0-.262.111-.424.114-.163.323-.256.21-.093.506-.126.296-.033.635-.05v-.06q0-.132-.048-.219-.045-.087-.132-.136-.083-.048-.199-.064-.115-.017-.241-.017-.153 0-.342.042-.188.039-.388.115h-.02v-.395q.113-.03.328-.068.215-.037.424-.037.244 0 .423.041.182.04.315.137.13.095.198.246.068.15.068.374zm-.386-.569v-.643q-.178.01-.42.031-.24.021-.38.06-.168.048-.271.15-.103.098-.103.274 0 .199.12.3.12.1.365.1.205 0 .374-.08.17-.08.315-.192zM52.345 29.175h-.388V27.86q0-.16-.019-.298-.019-.14-.068-.219-.052-.086-.149-.128-.097-.043-.252-.043-.16 0-.333.078-.174.079-.333.2v1.725h-.388v-2.31h.388v.257q.182-.15.376-.235.195-.085.4-.085.373 0 .57.225.196.225.196.65zM54.292 29.154q-.11.029-.24.048-.128.018-.229.018-.353 0-.537-.19-.184-.19-.184-.61v-1.228h-.263v-.326h.263v-.664h.388v.664h.802v.326h-.802v1.053q0 .181.009.285.008.101.058.19.045.083.124.122.08.037.243.037.096 0 .199-.027.103-.029.149-.047h.02zM13.915 31.771h-.439v-.403h.439zm-.025 2.695H13.5v-2.308h.389zM16.593 34.466h-.388v-1.314q0-.16-.019-.298-.018-.14-.068-.219-.052-.087-.149-.128-.097-.044-.252-.044-.16 0-.333.079-.173.079-.333.2v1.724h-.388v-2.308h.388v.256q.182-.151.377-.236.194-.085.399-.085.374 0 .57.226.196.225.196.649zM18.584 31.626h-.02q-.065-.018-.168-.037-.103-.02-.182-.02-.25 0-.364.111-.111.11-.111.399v.079h.7v.326h-.688v1.982h-.389v-1.982H17.1v-.326h.262v-.077q0-.411.205-.63.205-.222.591-.222.13 0 .234.013.105.012.192.029zM20.798 33.313q0 .564-.29.89-.289.327-.775.327-.49 0-.779-.326-.287-.327-.287-.891 0-.564.287-.89.29-.33.78-.33.485 0 .774.33.29.326.29.89zm-.401 0q0-.449-.176-.666-.176-.219-.488-.219-.316 0-.492.22-.173.216-.173.665 0 .434.175.66.176.223.49.223.31 0 .486-.222.178-.223.178-.661zM21.995 34.466H21.5v-.589h.494zM26.612 31.752h-1.1v2.714h-.409v-2.714h-1.1v-.363h2.61zM28.93 34.466h-.389v-1.314q0-.16-.019-.298-.018-.14-.068-.219-.051-.087-.149-.128-.097-.044-.252-.044-.159 0-.333.079-.173.079-.332.2v1.724h-.389V31.25h.389v1.164q.181-.151.376-.236.194-.085.399-.085.374 0 .57.226.197.225.197.649zM30.095 31.771h-.438v-.403h.438zm-.024 2.695h-.389v-2.308h.389zM32.493 33.8q0 .317-.262.52-.26.202-.713.202-.257 0-.472-.06-.213-.062-.357-.134v-.436h.02q.184.138.41.221.225.08.432.08.256 0 .4-.082.145-.083.145-.26 0-.137-.078-.207-.079-.07-.302-.12-.083-.019-.217-.044-.132-.024-.242-.053-.304-.08-.432-.236-.126-.157-.126-.384 0-.143.058-.27.06-.125.18-.224.115-.098.293-.153.18-.058.401-.058.207 0 .418.051.213.05.353.122v.416h-.02q-.15-.11-.362-.184-.213-.077-.418-.077-.213 0-.36.083-.146.08-.146.242 0 .143.089.215.087.072.28.118.108.025.24.05.135.024.224.045.27.062.417.213.147.153.147.405zM34.957 31.771h-.438v-.403h.438zm-.025 2.695h-.388v-2.308h.388zM37.355 33.8q0 .317-.263.52-.26.202-.713.202-.256 0-.471-.06-.213-.062-.358-.134v-.436h.021q.184.138.41.221.225.08.431.08.257 0 .401-.082.145-.083.145-.26 0-.137-.078-.207-.079-.07-.302-.12-.083-.019-.217-.044-.133-.024-.242-.053-.304-.08-.432-.236-.126-.157-.126-.384 0-.143.058-.27.06-.125.18-.224.115-.098.293-.153.18-.058.401-.058.207 0 .418.051.212.05.353.122v.416h-.02q-.15-.11-.362-.184-.213-.077-.418-.077-.213 0-.36.083-.146.08-.146.242 0 .143.088.215.087.072.282.118.107.025.24.05.134.024.223.045.27.062.417.213.147.153.147.405zM40.6 34.446q-.11.029-.24.047-.128.019-.229.019-.353 0-.537-.19-.184-.19-.184-.61v-1.228h-.263v-.326h.263v-.664h.388v.664h.802v.326h-.802v1.052q0 .182.008.285.009.102.058.19.046.083.124.123.081.037.244.037.095 0 .199-.027.103-.029.149-.048h.02zM43.002 34.466h-.388v-1.314q0-.16-.02-.298-.018-.14-.067-.219-.052-.087-.15-.128-.096-.044-.251-.044-.16 0-.333.079-.174.079-.333.2v1.724h-.388V31.25h.388v1.164q.182-.151.376-.236.195-.085.4-.085.373 0 .57.226.196.225.196.649zM45.683 33.352h-1.701q0 .213.064.372.064.157.176.259.107.099.254.149.149.05.327.05.235 0 .473-.094.24-.095.341-.186h.02v.424q-.196.083-.4.138-.205.056-.43.056-.575 0-.897-.31-.323-.312-.323-.885 0-.566.308-.899.31-.333.815-.333.467 0 .719.273.254.273.254.775zm-.378-.297q-.002-.306-.155-.474-.151-.167-.461-.167-.312 0-.498.184-.184.184-.21.457zM11.72 39.737q-.11.03-.24.048-.129.019-.23.019-.353 0-.537-.19-.184-.19-.184-.61v-1.228h-.263v-.327h.263v-.663h.388v.663h.802v.327h-.802v1.052q0 .182.009.285.008.101.057.19.046.083.124.122.081.037.244.037.095 0 .199-.026.103-.03.149-.048h.02zM14.121 39.758h-.388v-1.315q0-.159-.019-.297-.019-.14-.068-.22-.052-.086-.149-.127-.097-.044-.252-.044-.16 0-.333.079-.174.078-.333.2v1.724h-.388v-3.216h.388v1.163q.182-.15.376-.235.195-.085.4-.085.373 0 .57.225.196.226.196.65zM15.287 37.063h-.438v-.403h.438zm-.025 2.695h-.388V37.45h.388zM17.476 37.873h-.02q-.087-.02-.17-.029-.08-.01-.192-.01-.18 0-.348.08-.167.079-.322.205v1.64h-.389v-2.31h.389v.341q.231-.186.407-.262.178-.079.362-.079.101 0 .147.006.045.004.136.019zM19.719 39.758h-.389v-.242q-.167.145-.35.226-.181.08-.394.08-.413 0-.657-.318-.242-.318-.242-.883 0-.293.083-.523.084-.23.227-.39.14-.158.327-.24.188-.083.388-.083.182 0 .323.04.14.037.295.117v-1h.389zm-.389-.568v-1.325q-.157-.07-.28-.097-.125-.027-.272-.027-.326 0-.508.227t-.182.645q0 .411.14.626.141.213.451.213.165 0 .335-.072.17-.075.316-.19zM23.621 39.092q0 .317-.262.52-.26.202-.713.202-.257 0-.472-.06-.212-.062-.357-.134v-.437h.02q.185.139.41.222.225.08.432.08.256 0 .4-.082.146-.083.146-.26 0-.137-.079-.208-.079-.07-.302-.12-.082-.018-.217-.043-.132-.025-.242-.054-.304-.08-.432-.235-.126-.157-.126-.385 0-.142.058-.268.06-.127.18-.226.116-.097.293-.153.18-.058.401-.058.207 0 .418.052.213.05.353.122v.415h-.02q-.149-.11-.362-.183-.213-.077-.417-.077-.213 0-.36.083-.147.08-.147.242 0 .142.089.215.087.072.281.117.108.025.24.05.134.025.223.045.27.062.418.213.146.153.146.405zM26.112 38.644h-1.701q0 .213.064.372.064.157.176.258.107.1.254.15.149.049.327.049.235 0 .473-.093.24-.095.341-.186h.02v.424q-.196.082-.4.138-.205.056-.43.056-.575 0-.897-.31-.323-.312-.323-.885 0-.566.308-.9.31-.332.815-.332.467 0 .719.273.254.273.254.775zm-.378-.298q-.002-.306-.155-.473-.151-.168-.461-.168-.312 0-.498.184-.184.184-.209.457zM28.632 39.758h-.389v-1.315q0-.159-.018-.297-.019-.14-.068-.22-.052-.086-.15-.127-.096-.044-.251-.044-.16 0-.333.079-.174.078-.333.2v1.724H26.7V37.45h.389v.256q.182-.15.376-.235.194-.085.4-.085.373 0 .57.225.196.226.196.65zM30.58 39.737q-.11.03-.24.048-.129.019-.23.019-.354 0-.538-.19-.184-.19-.184-.61v-1.228h-.262v-.327h.262v-.663h.39v.663h.801v.327h-.802v1.052q0 .182.008.285.009.101.058.19.046.083.124.122.08.037.244.037.095 0 .199-.026.103-.03.148-.048h.021zM32.983 38.644h-1.701q0 .213.064.372.064.157.176.258.107.1.254.15.149.049.327.049.235 0 .473-.093.24-.095.341-.186h.02v.424q-.196.082-.4.138-.205.056-.43.056-.575 0-.897-.31-.323-.312-.323-.885 0-.566.308-.9.31-.332.815-.332.467 0 .719.273.254.273.254.775zm-.378-.298q-.002-.306-.155-.473-.151-.168-.461-.168-.312 0-.498.184-.184.184-.21.457zM35.503 39.758h-.389v-1.315q0-.159-.018-.297-.019-.14-.069-.22-.051-.086-.148-.127-.098-.044-.253-.044-.159 0-.332.079-.174.078-.333.2v1.724h-.389V37.45h.389v.256q.182-.15.376-.235.194-.085.399-.085.374 0 .57.225.197.226.197.65zM37.959 39.613q-.195.093-.37.145-.174.052-.37.052-.25 0-.46-.073-.208-.074-.357-.223-.15-.149-.234-.376-.082-.227-.082-.531 0-.567.31-.89.312-.322.823-.322.198 0 .388.056.192.056.352.137v.432h-.021q-.178-.139-.368-.213-.188-.075-.368-.075-.33 0-.523.224-.19.22-.19.65 0 .418.186.644.188.223.527.223.118 0 .24-.031t.219-.08q.085-.044.159-.092.074-.05.118-.084h.02zM40.391 38.644h-1.7q0 .213.063.372.064.157.176.258.108.1.254.15.15.049.327.049.236 0 .473-.093.24-.095.341-.186h.021v.424q-.196.082-.401.138-.205.056-.43.056-.575 0-.897-.31-.323-.312-.323-.885 0-.566.308-.9.31-.332.815-.332.467 0 .72.273.253.273.253.775zm-.378-.298q-.002-.306-.155-.473-.15-.168-.46-.168-.313 0-.499.184-.184.184-.209.457zM41.615 39.758h-.494v-.589h.494z"/></g><path d="M46.915 14.623h1.323v5.291h-1.323zM10.138 30.498h1.323v5.291h-1.323z" fill="#686892"/><g style="line-height:1.25;font-variant-ligatures:normal;font-variant-position:normal;font-variant-caps:normal;font-variant-numeric:normal;font-variant-alternates:normal;font-feature-settings:normal;text-indent:0;text-align:start;text-decoration-line:none;text-decoration-style:solid;text-decoration-color:#000;text-transform:none;text-orientation:mixed;white-space:normal;shape-padding:0" aria-label="IB 1 for &lt;span&gt;" font-weight="400" font-size="3.528" font-family="sans-serif" letter-spacing="0" word-spacing="0" fill="#3d3d55" stroke-width=".265"><path style="line-height:1.25;font-variant-ligatures:normal;font-variant-position:normal;font-variant-caps:normal;font-variant-numeric:normal;font-variant-alternates:normal;font-feature-settings:normal;text-indent:0;text-align:start;text-decoration-line:none;text-decoration-style:solid;text-decoration-color:#000;text-transform:none;text-orientation:mixed;white-space:normal;shape-padding:0" d="M50.441 18.36H49.43v-.262h.336v-2.041h-.336v-.262h1.012v.262h-.335v2.04h.335zM52.96 17.57q0 .192-.073.338-.072.147-.194.241-.145.114-.319.162-.172.049-.44.049h-.909v-2.565h.76q.28 0 .42.02.14.021.267.086.142.075.205.192.064.115.064.277 0 .183-.093.312-.093.127-.248.205v.014q.26.053.41.229.15.174.15.44zm-.574-1.155q0-.093-.03-.157-.032-.064-.1-.103-.082-.047-.197-.057-.115-.012-.286-.012h-.407v.74h.441q.16 0 .255-.015.095-.017.176-.069.081-.052.114-.133.034-.082.034-.194zm.219 1.17q0-.156-.047-.247-.046-.091-.168-.155-.083-.043-.202-.055-.117-.014-.286-.014h-.536v.954h.452q.224 0 .367-.022.143-.024.234-.086.096-.067.141-.153.045-.086.045-.223zM56.207 18.36h-1.389v-.262h.534v-1.72h-.534v-.234q.109 0 .233-.017.124-.019.188-.053.079-.043.124-.109.046-.067.053-.179h.267v2.312h.524zM59.18 15.993h-.017q-.054-.016-.14-.031-.086-.017-.151-.017-.209 0-.304.093-.093.09-.093.332v.065h.584v.273h-.573v1.652h-.324v-1.652h-.219v-.273h.219v-.063q0-.343.17-.526.171-.184.493-.184.109 0 .195.01.088.01.16.024zM61.025 17.398q0 .47-.241.743-.241.272-.646.272-.409 0-.65-.272-.24-.272-.24-.743 0-.47.24-.742.241-.274.65-.274.405 0 .646.274.24.272.24.742zm-.334 0q0-.373-.147-.554-.146-.183-.406-.183-.264 0-.41.183-.145.18-.145.554 0 .362.146.55.147.186.409.186.258 0 .405-.184.148-.186.148-.552zM62.728 16.789h-.017q-.072-.018-.141-.024-.067-.01-.16-.01-.15 0-.29.068-.14.065-.268.17v1.367h-.324v-1.925h.324v.285q.193-.155.339-.22.148-.065.301-.065.085 0 .123.005.038.003.113.016zM66.384 18.227l-1.988-.884v-.213l1.988-.884v.31l-1.568.68 1.568.68zM68.539 17.805q0 .263-.22.432-.216.17-.593.17-.214 0-.393-.05-.178-.053-.298-.113v-.363h.017q.153.115.341.184.188.067.36.067.214 0 .334-.069.12-.069.12-.217 0-.113-.065-.172-.065-.059-.251-.1-.069-.015-.181-.036-.11-.02-.202-.045-.253-.067-.36-.196-.105-.131-.105-.32 0-.12.049-.225.05-.105.15-.187.096-.081.244-.128.15-.048.334-.048.173 0 .348.043.178.041.295.102v.346h-.017q-.124-.091-.302-.153-.177-.064-.348-.064-.177 0-.3.069-.122.067-.122.201 0 .12.074.18.073.06.234.098.09.02.2.041.112.02.186.038.226.052.348.177.123.128.123.338zM70.697 17.374q0 .235-.067.43-.067.192-.19.326-.113.128-.268.199-.154.068-.326.068-.15 0-.272-.032-.12-.033-.247-.102v.806h-.323v-2.634h.323v.202q.13-.108.29-.18.162-.075.344-.075.348 0 .541.264.195.261.195.728zm-.334.01q0-.349-.12-.52-.118-.173-.364-.173-.14 0-.281.06-.141.06-.27.159V18q.137.062.235.084.1.023.226.023.27 0 .422-.183.152-.182.152-.54zM72.697 18.36h-.322v-.205l-.117.082q-.073.052-.142.083-.08.04-.186.065-.105.028-.246.028-.26 0-.441-.172-.18-.172-.18-.44 0-.218.092-.353.095-.136.269-.213.176-.078.422-.105.246-.028.529-.042v-.05q0-.11-.04-.182-.038-.072-.11-.114-.07-.04-.166-.053-.096-.014-.201-.014-.128 0-.284.035-.157.032-.324.096h-.017v-.329q.094-.026.274-.057.179-.03.353-.03.203 0 .353.034.151.032.262.113.108.08.165.205.057.126.057.312zm-.322-.474v-.536l-.35.026q-.2.017-.317.05-.14.04-.226.124-.086.083-.086.229 0 .165.1.25.1.082.305.082.17 0 .312-.065.141-.067.262-.16zM74.933 18.36h-.324v-1.096q0-.133-.016-.248-.015-.117-.057-.183-.043-.072-.124-.106-.08-.037-.21-.037-.132 0-.277.066-.145.065-.277.167v1.437h-.324v-1.925h.324v.214q.151-.126.313-.196t.333-.07q.311 0 .475.187.164.188.164.54zM77.687 17.343l-1.988.884v-.31l1.568-.68-1.568-.68v-.311l1.988.884z"/></g><g style="line-height:1.25;font-variant-ligatures:normal;font-variant-position:normal;font-variant-caps:normal;font-variant-numeric:normal;font-variant-alternates:normal;font-feature-settings:normal;text-indent:0;text-align:start;text-decoration-line:none;text-decoration-style:solid;text-decoration-color:#000;text-transform:none;text-orientation:mixed;white-space:normal;shape-padding:0" aria-label="IB 2 for &lt;span&gt;" font-weight="400" font-size="3.528" font-family="sans-serif" letter-spacing="0" word-spacing="0" fill="#3d3d55" stroke-width=".265"><path style="line-height:1.25;font-variant-ligatures:normal;font-variant-position:normal;font-variant-caps:normal;font-variant-numeric:normal;font-variant-alternates:normal;font-feature-settings:normal;text-indent:0;text-align:start;text-decoration-line:none;text-decoration-style:solid;text-decoration-color:#000;text-transform:none;text-orientation:mixed;white-space:normal;shape-padding:0" d="M57.523 23.651H56.51v-.262h.336v-2.04h-.336v-.263h1.013v.262h-.336v2.041h.336zM60.042 22.862q0 .191-.073.338-.072.146-.194.241-.145.114-.319.162-.172.048-.44.048h-.909v-2.565h.76q.28 0 .42.021.14.02.267.086.141.074.205.191.064.116.064.278 0 .182-.093.311-.093.128-.248.205v.014q.26.054.41.23.15.173.15.44zm-.574-1.156q0-.093-.03-.156-.032-.064-.1-.104-.082-.046-.197-.056-.116-.013-.286-.013h-.407v.741h.441q.16 0 .255-.015.095-.018.176-.07.08-.05.114-.132.034-.083.034-.195zm.219 1.17q0-.155-.047-.246-.046-.092-.168-.155-.083-.043-.202-.055-.117-.014-.286-.014h-.536v.954h.452q.224 0 .367-.022.143-.024.234-.086.096-.068.141-.154.045-.086.045-.222zM63.435 23.651H61.7v-.36l.362-.31q.182-.155.339-.308.33-.32.453-.508.122-.19.122-.409 0-.2-.132-.311-.131-.114-.367-.114-.157 0-.34.055-.182.055-.356.169h-.017v-.362q.122-.06.325-.11.205-.05.396-.05.395 0 .619.191.224.19.224.515 0 .147-.038.274-.036.126-.109.24-.067.106-.158.21-.09.103-.219.229-.184.18-.38.351l-.368.314h1.38zM66.262 21.284h-.017q-.054-.015-.14-.03-.086-.018-.152-.018-.208 0-.303.093-.093.092-.093.333v.065h.584V22h-.573v1.652h-.324V22h-.219v-.272h.219v-.064q0-.342.17-.525.17-.184.493-.184.109 0 .195.01.087.01.16.024zM68.107 22.69q0 .47-.241.742-.242.273-.646.273-.409 0-.65-.273-.24-.272-.24-.742t.24-.742q.241-.274.65-.274.404 0 .646.274.24.272.24.742zm-.334 0q0-.374-.147-.555-.146-.182-.406-.182-.264 0-.41.182-.145.181-.145.555 0 .362.146.55.147.186.409.186.258 0 .404-.185.149-.186.149-.551zM69.81 22.08h-.017q-.072-.017-.141-.024-.067-.009-.16-.009-.15 0-.29.067-.14.066-.268.17v1.367h-.324v-1.924h.324v.284q.192-.155.339-.219.148-.065.301-.065.085 0 .123.005.037.003.113.015zM73.466 23.519l-1.988-.884v-.214l1.988-.883v.31l-1.568.68 1.568.68zM75.62 23.097q0 .263-.218.432-.217.169-.595.169-.213 0-.392-.05-.178-.052-.298-.112v-.364h.017q.153.116.34.185.189.067.361.067.214 0 .334-.07.12-.068.12-.216 0-.114-.065-.172-.065-.059-.251-.1-.07-.016-.181-.036-.11-.021-.202-.045-.253-.067-.36-.197-.105-.13-.105-.32 0-.119.048-.224.05-.105.15-.188.097-.08.245-.127.15-.048.334-.048.172 0 .348.043.178.041.295.101v.347h-.018q-.124-.092-.301-.154-.177-.063-.348-.063-.177 0-.3.068-.122.068-.122.202 0 .119.074.18.072.06.234.097.09.021.2.042.112.02.186.038.226.051.348.177.122.127.122.338zM77.779 22.666q0 .234-.067.429-.068.193-.19.327-.114.128-.269.198-.153.07-.325.07-.15 0-.272-.034-.12-.032-.247-.101v.806h-.323v-2.634h.323v.202q.13-.109.29-.181.162-.074.344-.074.348 0 .541.263.195.262.195.729zm-.334.009q0-.348-.12-.52-.118-.173-.364-.173-.14 0-.281.06-.141.061-.27.16v1.09q.137.062.235.084.1.022.226.022.27 0 .422-.182.152-.183.152-.541zM79.779 23.651h-.322v-.205l-.118.083q-.072.052-.14.083-.082.04-.187.065-.105.028-.246.028-.26 0-.441-.173-.181-.172-.181-.439 0-.219.093-.353.095-.136.269-.213.175-.078.422-.106.246-.027.529-.04v-.05q0-.111-.04-.183-.038-.073-.11-.114-.07-.04-.166-.054-.096-.013-.201-.013-.128 0-.284.034-.157.033-.324.097h-.017v-.33q.094-.025.273-.056.18-.031.354-.031.203 0 .353.034.151.033.261.114.109.079.166.205.057.126.057.312zm-.322-.473v-.536q-.149.009-.35.026-.2.017-.317.05-.14.04-.226.124-.086.082-.086.229 0 .165.1.25.1.082.305.082.17 0 .312-.065.141-.068.262-.16zM82.015 23.651h-.324v-1.095q0-.133-.016-.248-.015-.117-.057-.183-.043-.072-.124-.107-.08-.036-.21-.036-.132 0-.277.066-.145.065-.277.167v1.436h-.324v-1.924h.324v.214q.151-.126.313-.197.162-.07.332-.07.312 0 .476.188.164.187.164.54zM84.769 22.635l-1.988.884v-.31l1.568-.68-1.568-.681v-.31l1.988.883z"/></g><g style="line-height:1.25;font-variant-ligatures:normal;font-variant-position:normal;font-variant-caps:normal;font-variant-numeric:normal;font-variant-alternates:normal;font-feature-settings:normal;text-indent:0;text-align:start;text-decoration-line:none;text-decoration-style:solid;text-decoration-color:#000;text-transform:none;text-orientation:mixed;white-space:normal;shape-padding:0" aria-label="IB 3 for &lt;span&gt;" font-weight="400" font-size="3.528" font-family="sans-serif" letter-spacing="0" word-spacing="0" fill="#3d3d55" stroke-width=".265"><path style="line-height:1.25;font-variant-ligatures:normal;font-variant-position:normal;font-variant-caps:normal;font-variant-numeric:normal;font-variant-alternates:normal;font-feature-settings:normal;text-indent:0;text-align:start;text-decoration-line:none;text-decoration-style:solid;text-decoration-color:#000;text-transform:none;text-orientation:mixed;white-space:normal;shape-padding:0" d="M57.611 28.943h-1.013v-.262h.336V26.64h-.336v-.262h1.013v.262h-.336v2.041h.336zM60.13 28.154q0 .191-.073.338-.072.146-.195.24-.144.114-.318.163-.173.048-.44.048h-.91v-2.565h.76q.281 0 .42.02.14.021.268.087.141.074.205.191.064.115.064.277 0 .183-.093.312-.093.128-.249.205v.014q.26.053.41.229.15.174.15.441zm-.574-1.156q0-.093-.031-.157-.031-.063-.1-.103-.081-.046-.197-.057-.115-.012-.286-.012h-.406v.74h.44q.161 0 .256-.015.095-.017.176-.069.08-.051.113-.132.035-.083.035-.195zm.218 1.17q0-.155-.046-.247-.047-.09-.169-.155-.083-.043-.201-.055-.118-.014-.286-.014h-.536v.955h.451q.224 0 .367-.023.143-.024.234-.086.097-.067.142-.153.044-.086.044-.222zM63.297 27.708q.083.074.136.186.054.112.054.29 0 .175-.064.321-.064.147-.18.255-.128.12-.304.18-.174.056-.383.056-.213 0-.42-.051-.207-.05-.34-.11v-.36h.027q.146.096.344.16.198.063.383.063.108 0 .23-.036.123-.036.198-.107.08-.076.118-.167.04-.091.04-.23t-.046-.228q-.043-.091-.12-.143-.078-.053-.188-.072-.11-.021-.238-.021h-.155v-.286h.12q.263 0 .418-.109.156-.11.156-.32 0-.093-.04-.162-.039-.07-.11-.115-.073-.045-.158-.062-.084-.018-.191-.018-.164 0-.348.059-.184.059-.348.165h-.017v-.36q.122-.06.325-.11.205-.052.397-.052.187 0 .33.035.143.034.259.11.124.083.187.2.064.117.064.274 0 .213-.151.374-.15.158-.355.2v.024q.082.013.19.058.106.043.18.109zM66.35 26.576h-.018q-.053-.015-.14-.03-.085-.018-.15-.018-.21 0-.304.093-.093.091-.093.332v.066h.584v.272h-.574v1.652h-.324V27.29h-.218v-.272h.218v-.064q0-.343.17-.525.171-.185.494-.185.108 0 .194.01.088.011.16.025zM68.194 27.982q0 .47-.24.742-.242.272-.647.272-.408 0-.65-.272-.239-.272-.239-.742t.24-.743q.24-.274.65-.274.404 0 .645.274.241.272.241.743zm-.334 0q0-.374-.146-.555-.147-.183-.407-.183-.263 0-.41.183-.144.18-.144.555 0 .361.146.55.146.185.408.185.259 0 .405-.184.148-.186.148-.551zM69.898 27.372h-.017q-.073-.017-.142-.024-.067-.01-.16-.01-.15 0-.29.068-.139.065-.268.17v1.367h-.324v-1.925h.324v.285q.193-.155.34-.22.148-.065.3-.065.085 0 .123.005.038.003.114.016zM73.553 28.81l-1.988-.883v-.214l1.988-.884v.31l-1.567.68 1.567.681zM75.708 28.388q0 .264-.219.433-.217.168-.594.168-.214 0-.393-.05-.177-.051-.298-.112v-.363h.017q.154.115.342.184.187.067.36.067.213 0 .334-.068.12-.07.12-.217 0-.114-.065-.173-.066-.058-.252-.1-.069-.015-.18-.036-.11-.02-.202-.045-.253-.067-.36-.196-.105-.13-.105-.32 0-.12.048-.224.05-.105.15-.188.096-.081.245-.128.15-.048.334-.048.172 0 .348.043.177.042.294.102v.346h-.017q-.124-.091-.301-.153-.178-.064-.348-.064-.178 0-.3.07-.122.066-.122.2 0 .12.074.18.072.06.234.098.09.02.2.041.112.021.186.038.225.052.348.178.122.127.122.337zM77.866 27.958q0 .234-.067.429-.067.192-.19.327-.113.127-.268.198-.153.069-.326.069-.15 0-.272-.033-.12-.033-.246-.102v.807h-.324v-2.634h.324v.201q.13-.108.29-.18.161-.075.344-.075.348 0 .54.264.195.262.195.729zm-.334.009q0-.348-.119-.52-.118-.173-.365-.173-.14 0-.28.06-.142.06-.271.159v1.09q.138.062.236.085.1.022.226.022.27 0 .422-.183.151-.182.151-.54zM79.866 28.943h-.322v-.205l-.117.083q-.072.051-.141.082-.081.04-.186.066-.105.027-.247.027-.26 0-.44-.172-.181-.172-.181-.44 0-.218.093-.352.094-.136.268-.214.176-.077.422-.105.247-.027.53-.041v-.05q0-.11-.04-.183-.038-.072-.11-.113-.07-.04-.166-.054-.097-.014-.202-.014-.127 0-.284.035-.157.032-.324.096h-.017v-.329q.095-.026.274-.057.18-.03.353-.03.203 0 .353.034.152.033.262.114.109.079.165.205.057.125.057.311zm-.322-.474v-.536l-.35.026q-.2.017-.316.05-.14.04-.226.124-.086.083-.086.23 0 .165.1.25.1.082.305.082.17 0 .311-.066.142-.067.262-.16zM82.102 28.943h-.324v-1.096q0-.132-.015-.248-.016-.117-.057-.182-.043-.073-.124-.107-.081-.036-.21-.036-.133 0-.278.065-.144.066-.277.167v1.437h-.324v-1.924h.324v.213q.152-.125.314-.196.162-.07.332-.07.312 0 .476.187.163.188.163.541zM84.856 27.927l-1.987.883v-.31l1.567-.68-1.567-.68v-.31l1.987.883z"/></g><g style="line-height:1.25;font-variant-ligatures:normal;font-variant-position:normal;font-variant-caps:normal;font-variant-numeric:normal;font-variant-alternates:normal;font-feature-settings:normal;text-indent:0;text-align:start;text-decoration-line:none;text-decoration-style:solid;text-decoration-color:#000;text-transform:none;text-orientation:mixed;white-space:normal;shape-padding:0" aria-label="IB 4 for &lt;span&gt;" font-weight="400" font-size="3.528" font-family="sans-serif" letter-spacing="0" word-spacing="0" fill="#3d3d55" stroke-width=".265"><path style="line-height:1.25;font-variant-ligatures:normal;font-variant-position:normal;font-variant-caps:normal;font-variant-numeric:normal;font-variant-alternates:normal;font-feature-settings:normal;text-indent:0;text-align:start;text-decoration-line:none;text-decoration-style:solid;text-decoration-color:#000;text-transform:none;text-orientation:mixed;white-space:normal;shape-padding:0" d="M48.923 34.235H47.91v-.262h.336v-2.041h-.336v-.262h1.013v.262h-.336v2.04h.336zM51.441 33.446q0 .19-.072.337-.073.147-.195.241-.145.114-.319.162-.172.049-.439.049h-.91V31.67h.76q.281 0 .42.02.14.021.268.086.14.075.205.192.063.115.063.277 0 .183-.093.312-.093.127-.248.205v.014q.26.053.41.229.15.174.15.44zm-.574-1.156q0-.093-.03-.157-.032-.064-.1-.103-.081-.047-.197-.057-.115-.012-.286-.012h-.406v.74h.44q.16 0 .256-.015.094-.017.175-.069.081-.052.114-.133.034-.082.034-.194zm.22 1.17q0-.156-.047-.247t-.17-.155q-.082-.043-.2-.055-.118-.014-.287-.014h-.535v.954h.451q.224 0 .367-.022.143-.024.234-.086.097-.067.141-.153.045-.086.045-.223zM54.893 33.513h-.38v.722h-.331v-.722h-1.229v-.396l1.242-1.447h.317v1.567h.381zm-.711-.276V32.08l-.994 1.157zM57.661 31.868h-.017q-.053-.016-.14-.031-.086-.017-.151-.017-.209 0-.303.093-.093.09-.093.332v.065h.584v.273h-.574v1.652h-.324v-1.652h-.219v-.273h.22v-.063q0-.343.17-.526.17-.184.492-.184.109 0 .195.01.088.01.16.024zM59.506 33.273q0 .47-.241.743-.241.272-.646.272-.408 0-.65-.272-.239-.272-.239-.743 0-.47.24-.742.24-.274.649-.274.405 0 .646.274.241.272.241.742zm-.334 0q0-.373-.147-.554-.146-.183-.406-.183-.264 0-.41.183-.145.18-.145.554 0 .362.147.55.146.186.408.186.258 0 .405-.184.148-.186.148-.552zM61.21 32.664h-.018q-.072-.018-.14-.024-.068-.01-.161-.01-.15 0-.29.068-.139.065-.268.17v1.366h-.324V32.31h.324v.284q.193-.155.34-.218.147-.066.3-.066.085 0 .123.005.038.003.114.016zM64.865 34.102l-1.988-.884v-.213l1.988-.884v.31l-1.568.68 1.568.68zM67.02 33.68q0 .263-.219.432-.217.17-.594.17-.214 0-.393-.05-.177-.053-.298-.113v-.363h.017q.154.115.341.184.188.067.36.067.214 0 .335-.069.12-.069.12-.217 0-.113-.065-.172-.066-.059-.252-.1-.069-.015-.18-.036-.111-.02-.202-.045-.253-.067-.36-.196-.105-.131-.105-.32 0-.12.048-.225.05-.105.15-.187.096-.081.244-.128.15-.048.335-.048.172 0 .347.043.178.041.295.102v.346h-.017q-.124-.091-.302-.153-.177-.064-.348-.064-.177 0-.3.069-.122.067-.122.201 0 .12.074.18.073.06.235.098.09.02.2.041.111.02.186.038.225.052.348.177.122.128.122.338zM69.178 33.25q0 .234-.067.428-.067.193-.19.327-.113.128-.268.199-.154.068-.326.068-.15 0-.272-.032-.12-.033-.246-.102v.806h-.324V32.31h.324v.202q.129-.108.29-.18.161-.075.344-.075.348 0 .54.264.195.261.195.728zm-.334.008q0-.348-.119-.52-.119-.172-.365-.172-.14 0-.28.06-.142.06-.271.159v1.09q.138.062.236.084.1.023.225.023.27 0 .422-.183.152-.182.152-.54zM71.178 34.235h-.322v-.205l-.117.082q-.073.052-.141.083-.081.04-.186.065-.106.028-.247.028-.26 0-.44-.172-.182-.172-.182-.44 0-.218.093-.353.095-.136.27-.213.175-.078.421-.105.246-.028.529-.042v-.05q0-.11-.04-.182-.038-.072-.11-.114-.069-.04-.165-.053-.097-.014-.202-.014-.127 0-.284.035-.157.032-.324.096h-.017v-.329q.095-.026.274-.057.179-.03.353-.03.203 0 .353.034.152.032.262.113.108.08.165.205.057.126.057.312zm-.322-.474v-.536l-.35.026q-.2.017-.317.05-.14.04-.225.124-.086.083-.086.229 0 .165.1.25.1.082.304.082.17 0 .312-.065.141-.067.262-.16zM73.414 34.235h-.324v-1.096q0-.133-.015-.248-.016-.117-.057-.183-.043-.072-.124-.106-.081-.037-.21-.037-.133 0-.278.066-.144.065-.277.167v1.437h-.324V32.31h.324v.214q.151-.126.313-.196t.333-.07q.312 0 .475.187.164.188.164.54zM76.168 33.218l-1.988.884v-.31l1.568-.68-1.568-.68v-.311l1.988.884z"/></g><path d="M38.365 87.98c6.173.44 11.254.803 15.925.543 4.672-.26 6.124-.985 7.887-1.867" transform="matrix(1.05556 0 0 1 -18.452 -52.093)" fill="none" stroke="#3d3d55" stroke-width=".258" marker-end="url(#a)"/><path d="M32.098 14.72h16.14v5.291h-16.14z" fill="none" stroke="#3d3d55" stroke-width=".282" stroke-linecap="round" stroke-dasharray=".28182084,.84546251" stroke-dashoffset=".185"/><path d="M10.138 20.011h44.98v5.292h-44.98zM10.138 25.303h44.98v5.292h-44.98zM10.138 30.595h11.885v5.291H10.138z" fill="none" stroke="#3d3d55" stroke-width=".282" stroke-linecap="round" stroke-dasharray=".28182084,.84546251" stroke-dashoffset=".185"/></svg>