<svg xmlns="http://www.w3.org/2000/svg" viewBox="0 0 44.979 29.759" height="112.477" width="170"><path d="M0 9.852h44.98v5.291H0zM0 15.143h44.98v5.292H0z" fill="#dfdff9"/><path d="M0 20.435h11.906v5.292H0zM21.861 4.56H38.1v5.292H21.861z" fill="#dfdff9"/><g style="line-height:1.25" aria-label="This is the first sentence. This is the second sentence, with some important info. This is the third sentence." font-weight="400" font-size="4.233" font-family="sans-serif" letter-spacing="0" word-spacing="0" stroke-width=".265"><path d="M2.609.523h-1.1v2.714h-.41V.523H0V.159h2.609zM4.926 3.237h-.389V1.922q0-.159-.018-.297-.019-.14-.069-.22-.051-.086-.148-.128-.098-.043-.253-.043-.159 0-.332.079-.174.078-.333.2v1.724h-.389V.021h.389v1.163q.182-.15.376-.235.194-.085.399-.085.374 0 .57.225.197.226.197.65zM6.092.542h-.439V.138h.439zm-.025 2.695h-.389V.928h.389zM8.49 2.571q0 .317-.263.52-.26.202-.713.202-.257 0-.472-.06-.212-.062-.357-.134v-.437h.02q.185.139.41.222.225.08.432.08.256 0 .4-.083.146-.082.146-.26 0-.136-.079-.207-.079-.07-.302-.12-.082-.018-.217-.043-.132-.025-.242-.054-.304-.08-.432-.235-.126-.157-.126-.385 0-.142.058-.269.06-.126.18-.225.116-.097.293-.153.18-.058.401-.058.207 0 .418.052.213.05.353.122v.415h-.02q-.149-.11-.362-.184-.213-.076-.417-.076-.213 0-.36.083-.147.08-.147.241 0 .143.089.215.087.073.281.118.108.025.24.05.134.025.223.045.27.062.418.213.146.153.146.405zM10.953.542h-.438V.138h.438zm-.024 2.695h-.39V.928h.39zM13.351 2.571q0 .317-.262.52-.26.202-.714.202-.256 0-.47-.06-.214-.062-.358-.134v-.437h.02q.184.139.41.222.225.08.432.08.256 0 .4-.083.145-.082.145-.26 0-.136-.078-.207-.079-.07-.302-.12-.083-.018-.217-.043-.132-.025-.242-.054-.304-.08-.432-.235-.126-.157-.126-.385 0-.142.058-.269.06-.126.18-.225.115-.097.293-.153.18-.058.401-.058.207 0 .418.052.213.05.353.122v.415h-.02q-.15-.11-.362-.184-.213-.076-.418-.076-.213 0-.36.083-.146.08-.146.241 0 .143.089.215.086.073.28.118.108.025.24.05.135.025.224.045.27.062.417.213.147.153.147.405zM16.596 3.216q-.11.03-.24.048-.128.018-.229.018-.353 0-.537-.19-.184-.19-.184-.61V1.256h-.263V.928h.263V.265h.388v.663h.802v.327h-.802v1.052q0 .182.009.285.008.101.058.19.045.083.124.122.08.037.243.037.096 0 .199-.026.103-.03.149-.048h.02zM18.998 3.237h-.388V1.922q0-.159-.019-.297-.018-.14-.068-.22-.052-.086-.149-.128-.097-.043-.252-.043-.16 0-.333.079-.174.078-.333.2v1.724h-.388V.021h.388v1.163q.182-.15.377-.235.194-.085.398-.085.375 0 .571.225.196.226.196.65zM21.68 2.123h-1.702q0 .213.064.372.064.157.176.258.107.1.254.15.149.049.327.049.235 0 .473-.093.24-.095.341-.186h.02v.423q-.196.083-.4.139-.205.056-.43.056-.575 0-.897-.31-.323-.312-.323-.885 0-.566.308-.9.31-.332.815-.332.467 0 .719.273.254.273.254.775zm-.379-.298q-.002-.306-.155-.473-.15-.168-.461-.168-.312 0-.498.184-.184.184-.209.457zM24.999.397h-.02Q24.913.378 24.81.36q-.103-.021-.182-.021-.25 0-.364.112-.111.11-.111.399v.078h.7v.327h-.688v1.982h-.389V1.255h-.262V.928h.262V.852q0-.412.205-.63.205-.222.591-.222.13 0 .234.012.105.013.192.03zM25.663.542h-.439V.138h.439zm-.025 2.695h-.389V.928h.389zM27.852 1.352h-.021q-.087-.02-.17-.03-.08-.01-.192-.01-.18 0-.347.081-.168.079-.323.205v1.639h-.388V.928h.388v.341q.232-.186.408-.262.177-.079.361-.079.102 0 .147.006.046.004.137.019zM29.871 2.571q0 .317-.262.52-.26.202-.714.202-.256 0-.47-.06-.214-.062-.358-.134v-.437h.02q.184.139.41.222.225.08.431.08.257 0 .401-.083.145-.082.145-.26 0-.136-.078-.207-.079-.07-.302-.12-.083-.018-.217-.043-.133-.025-.242-.054-.304-.08-.432-.235-.126-.157-.126-.385 0-.142.058-.269.06-.126.18-.225.115-.097.293-.153.18-.058.401-.058.207 0 .418.052.213.05.353.122v.415h-.02q-.15-.11-.362-.184-.213-.076-.418-.076-.213 0-.36.083-.146.08-.146.241 0 .143.089.215.086.073.28.118.108.025.24.05.135.025.224.045.27.062.417.213.147.153.147.405zM31.628 3.216q-.11.03-.24.048-.128.018-.23.018-.353 0-.537-.19-.184-.19-.184-.61V1.256h-.262V.928h.262V.265h.389v.663h.802v.327h-.802v1.052q0 .182.008.285.009.101.058.19.046.083.124.122.08.037.244.037.095 0 .199-.026.103-.03.148-.048h.021zM2.032 7.863q0 .316-.263.519-.26.202-.713.202-.256 0-.471-.06-.213-.061-.358-.134v-.436h.021q.184.139.41.221.225.08.431.08.257 0 .401-.082.145-.083.145-.26 0-.137-.079-.207-.078-.07-.301-.12-.083-.018-.217-.043-.133-.025-.242-.054-.304-.08-.432-.236-.126-.157-.126-.384 0-.143.058-.269.06-.126.18-.225.115-.097.293-.153.18-.058.401-.058.207 0 .417.052.213.05.354.122v.415h-.02q-.15-.11-.362-.184-.213-.076-.418-.076-.213 0-.36.082-.146.08-.146.242 0 .143.088.215.087.072.282.118.107.025.24.05.134.024.223.045.27.062.417.213.147.153.147.405zM4.523 7.415H2.822q0 .212.064.372.064.157.175.258.108.1.255.149.148.05.326.05.236 0 .474-.094.24-.095.34-.186h.021v.424q-.196.083-.4.139-.205.055-.43.055-.575 0-.898-.31-.322-.312-.322-.884 0-.567.308-.9.31-.332.814-.332.467 0 .72.273.254.272.254.775zm-.379-.298q-.002-.306-.155-.473-.15-.168-.46-.168-.313 0-.499.184-.184.184-.208.457zM7.042 8.529h-.388V7.214q0-.16-.019-.298-.018-.14-.068-.219-.052-.087-.149-.128-.097-.043-.252-.043-.16 0-.333.078-.173.079-.333.2V8.53h-.388v-2.31H5.5v.257q.182-.15.377-.236.194-.084.399-.084.374 0 .57.225.196.225.196.65zM8.99 8.508q-.11.029-.24.048-.128.018-.23.018-.353 0-.537-.19-.184-.19-.184-.61V6.546h-.263V6.22H7.8v-.664h.389v.664h.802v.326h-.802v1.052q0 .182.008.286.008.101.058.19.045.083.124.122.08.037.244.037.095 0 .198-.027.104-.029.149-.047h.02zM11.394 7.415H9.692q0 .212.065.372.064.157.175.258.108.1.254.149.15.05.327.05.236 0 .473-.094.24-.095.341-.186h.021v.424q-.196.083-.4.139-.206.055-.43.055-.575 0-.898-.31-.322-.312-.322-.884 0-.567.308-.9.31-.332.814-.332.467 0 .72.273.254.272.254.775zm-.379-.298q-.002-.306-.155-.473-.15-.168-.46-.168-.313 0-.499.184-.184.184-.209.457zM13.913 8.529h-.388V7.214q0-.16-.019-.298-.018-.14-.068-.219-.052-.087-.149-.128-.097-.043-.252-.043-.16 0-.333.078-.173.079-.333.2V8.53h-.388v-2.31h.388v.257q.182-.15.377-.236.194-.084.398-.084.375 0 .571.225.196.225.196.65zM16.369 8.384q-.194.093-.37.145-.174.051-.37.051-.25 0-.459-.072-.209-.074-.357-.223-.151-.15-.234-.376-.083-.228-.083-.532 0-.566.31-.889.312-.322.823-.322.198 0 .389.056.192.056.351.136v.432h-.02q-.178-.138-.369-.213-.188-.074-.368-.074-.33 0-.522.223-.19.221-.19.651 0 .418.185.643.188.223.527.223.118 0 .24-.03.122-.032.22-.081.084-.044.159-.091.074-.05.117-.085h.021zM18.802 7.415h-1.701q0 .212.064.372.064.157.176.258.107.1.254.149.149.05.326.05.236 0 .474-.094.24-.095.34-.186h.021v.424q-.196.083-.4.139-.205.055-.43.055-.575 0-.898-.31-.322-.312-.322-.884 0-.567.308-.9.31-.332.814-.332.468 0 .72.273.254.272.254.775zm-.378-.298q-.002-.306-.155-.473-.151-.168-.461-.168-.312 0-.498.184-.184.184-.21.457zM20.026 8.529h-.494v-.59h.494zM24.643 5.815h-1.1v2.714h-.408V5.815h-1.1V5.45h2.608zM26.96 8.529h-.388V7.214q0-.16-.019-.298-.018-.14-.068-.219-.051-.087-.149-.128-.097-.043-.252-.043-.159 0-.333.078-.173.079-.332.2V8.53h-.389V5.312h.389v1.164q.182-.15.376-.236.194-.084.399-.084.374 0 .57.225.197.225.197.65zM28.126 5.833h-.438V5.43h.438zm-.024 2.696h-.389v-2.31h.389zM30.524 7.863q0 .316-.262.519-.26.202-.713.202-.257 0-.472-.06-.213-.061-.357-.134v-.436h.02q.184.139.41.221.225.08.432.08.256 0 .4-.082.145-.083.145-.26 0-.137-.078-.207-.079-.07-.302-.12-.083-.018-.217-.043-.132-.025-.242-.054-.304-.08-.432-.236-.126-.157-.126-.384 0-.143.058-.269.06-.126.18-.225.115-.097.293-.153.18-.058.401-.058.207 0 .418.052.213.05.353.122v.415h-.02q-.15-.11-.362-.184-.213-.076-.418-.076-.213 0-.36.082-.146.08-.146.242 0 .143.089.215.087.072.28.118.108.025.24.05.135.024.224.045.27.062.417.213.147.153.147.405zM32.988 5.833h-.438V5.43h.438zm-.025 2.696h-.388v-2.31h.388zM35.386 7.863q0 .316-.263.519-.26.202-.713.202-.256 0-.471-.06-.213-.061-.358-.134v-.436h.021q.184.139.41.221.225.08.431.08.257 0 .401-.082.145-.083.145-.26 0-.137-.078-.207-.079-.07-.302-.12-.083-.018-.217-.043-.133-.025-.242-.054-.304-.08-.432-.236-.126-.157-.126-.384 0-.143.058-.269.06-.126.18-.225.115-.097.293-.153.18-.058.401-.058.207 0 .418.052.212.05.353.122v.415h-.02q-.15-.11-.362-.184-.213-.076-.418-.076-.213 0-.36.082-.146.08-.146.242 0 .143.089.215.086.072.28.118.108.025.24.05.135.024.224.045.27.062.417.213.147.153.147.405zM1.581 13.8q-.11.029-.24.047-.128.019-.229.019-.353 0-.537-.19-.184-.19-.184-.61v-1.228H.128v-.327h.263v-.663h.388v.663h.802v.327H.78v1.052q0 .182.009.285.008.102.057.19.046.083.124.123.081.037.244.037.095 0 .199-.027.103-.03.149-.048h.02zM3.983 13.82h-.388v-1.314q0-.16-.019-.298-.019-.14-.068-.22-.052-.086-.149-.127-.097-.044-.252-.044-.16 0-.333.079-.174.078-.333.2v1.724h-.388v-3.216h.388v1.164q.182-.151.376-.236.195-.085.4-.085.373 0 .57.226.196.225.196.649zM6.664 12.706H4.963q0 .213.064.372.064.157.176.259.107.099.254.148.149.05.327.05.235 0 .473-.093.24-.095.341-.186h.02v.424q-.196.082-.4.138-.205.056-.43.056-.575 0-.897-.31-.323-.312-.323-.885 0-.566.308-.899.31-.333.815-.333.467 0 .719.273.254.273.254.775zm-.378-.297q-.002-.306-.155-.474-.151-.167-.461-.167-.312 0-.498.184-.184.184-.209.457zM10.391 13.155q0 .316-.262.519-.26.202-.714.202-.256 0-.47-.06-.214-.062-.358-.134v-.436h.02q.184.138.41.22.225.081.432.081.256 0 .4-.082.145-.083.145-.26 0-.137-.078-.207-.079-.07-.302-.12-.083-.019-.217-.044-.132-.024-.242-.053-.304-.081-.432-.236-.126-.157-.126-.384 0-.143.058-.27.06-.125.18-.225.115-.097.293-.152.18-.058.401-.058.207 0 .418.051.213.05.353.122v.416h-.02q-.15-.11-.362-.184-.213-.077-.418-.077-.213 0-.36.083-.146.08-.146.242 0 .142.089.215.086.072.28.118.108.024.24.05.135.024.224.045.27.062.417.213.147.153.147.405zM12.882 12.706H11.18q0 .213.064.372.064.157.175.259.108.099.255.148.149.05.326.05.236 0 .474-.093.24-.095.34-.186h.021v.424q-.196.082-.4.138-.205.056-.43.056-.575 0-.898-.31-.322-.312-.322-.885 0-.566.308-.899.31-.333.814-.333.467 0 .72.273.254.273.254.775zm-.378-.297q-.002-.306-.155-.474-.151-.167-.461-.167-.312 0-.499.184-.183.184-.208.457zM15.178 13.676q-.194.093-.37.144-.173.052-.37.052-.25 0-.458-.072-.21-.075-.358-.224-.151-.148-.234-.376-.082-.227-.082-.531 0-.566.31-.889.312-.322.822-.322.199 0 .389.056.192.055.351.136v.432h-.02q-.178-.139-.368-.213-.188-.074-.368-.074-.33 0-.523.223-.19.221-.19.651 0 .418.186.643.188.223.527.223.118 0 .24-.03.122-.032.219-.082.084-.043.159-.09.074-.05.118-.085h.02zM17.646 12.667q0 .564-.289.89-.29.327-.775.327-.49 0-.78-.326-.287-.327-.287-.891 0-.564.288-.891.289-.329.779-.329.486 0 .775.329.29.327.29.89zm-.4 0q0-.449-.176-.666-.176-.219-.488-.219-.316 0-.492.22-.174.216-.174.665 0 .434.176.66.176.223.49.223.31 0 .486-.222.177-.223.177-.661zM20.18 13.82h-.388v-1.314q0-.16-.019-.298-.018-.14-.068-.22-.051-.086-.149-.127-.097-.044-.252-.044-.159 0-.333.079-.173.078-.332.2v1.724h-.389v-2.309h.389v.257q.182-.151.376-.236.194-.085.399-.085.374 0 .57.226.197.225.197.649zM22.802 13.82h-.389v-.242q-.167.145-.35.226-.181.08-.394.08-.413 0-.657-.318-.242-.318-.242-.883 0-.293.082-.522.085-.23.228-.391.14-.157.326-.24.189-.083.389-.083.182 0 .323.04.14.037.295.117v-1h.389zm-.389-.568v-1.325q-.157-.07-.281-.097-.124-.027-.27-.027-.327 0-.51.227-.181.228-.181.645 0 .412.14.627.14.212.451.212.165 0 .335-.072.17-.074.316-.19zM26.704 13.155q0 .316-.262.519-.26.202-.713.202-.257 0-.472-.06-.213-.062-.357-.134v-.436h.02q.184.138.41.22.225.081.432.081.256 0 .4-.082.145-.083.145-.26 0-.137-.078-.207-.079-.07-.302-.12-.083-.019-.217-.044-.132-.024-.242-.053-.304-.081-.432-.236-.126-.157-.126-.384 0-.143.058-.27.06-.125.18-.225.116-.097.293-.152.18-.058.401-.058.207 0 .418.051.213.05.353.122v.416h-.02q-.15-.11-.362-.184-.213-.077-.418-.077-.212 0-.36.083-.146.08-.146.242 0 .142.089.215.087.072.281.118.107.024.24.05.134.024.223.045.27.062.418.213.146.153.146.405zM29.195 12.706h-1.701q0 .213.064.372.064.157.176.259.107.099.254.148.149.05.327.05.235 0 .473-.093.24-.095.341-.186h.02v.424q-.196.082-.4.138-.205.056-.43.056-.575 0-.897-.31-.323-.312-.323-.885 0-.566.308-.899.31-.333.815-.333.467 0 .719.273.254.273.254.775zm-.378-.297q-.002-.306-.155-.474-.151-.167-.461-.167-.312 0-.498.184-.184.184-.21.457zM31.715 13.82h-.389v-1.314q0-.16-.018-.298-.019-.14-.069-.22-.051-.086-.148-.127-.098-.044-.253-.044-.159 0-.332.079-.174.078-.333.2v1.724h-.389v-2.309h.389v.257q.182-.151.376-.236.194-.085.399-.085.374 0 .57.226.197.225.197.649zM33.662 13.8q-.11.029-.24.047-.128.019-.23.019-.353 0-.537-.19-.184-.19-.184-.61v-1.228h-.262v-.327h.262v-.663h.389v.663h.802v.327h-.802v1.052q0 .182.008.285.009.102.058.19.046.083.124.123.08.037.244.037.095 0 .199-.027.103-.03.148-.048h.021zM36.066 12.706h-1.701q0 .213.064.372.064.157.176.259.107.099.254.148.149.05.326.05.236 0 .474-.093.24-.095.34-.186h.022v.424q-.197.082-.401.138-.205.056-.43.056-.575 0-.898-.31-.322-.312-.322-.885 0-.566.308-.899.31-.333.814-.333.468 0 .72.273.254.273.254.775zm-.378-.297q-.002-.306-.155-.474-.151-.167-.461-.167-.312 0-.498.184-.184.184-.21.457zM38.586 13.82h-.389v-1.314q0-.16-.018-.298-.019-.14-.069-.22-.051-.086-.148-.127-.098-.044-.253-.044-.159 0-.332.079-.174.078-.333.2v1.724h-.389v-2.309h.389v.257q.182-.151.376-.236.194-.085.399-.085.374 0 .57.226.197.225.197.649zM41.041 13.676q-.194.093-.37.144-.173.052-.37.052-.25 0-.458-.072-.21-.075-.358-.224-.151-.148-.234-.376-.082-.227-.082-.531 0-.566.31-.889.312-.322.822-.322.199 0 .389.056.192.055.351.136v.432h-.02q-.178-.139-.368-.213-.188-.074-.368-.074-.33 0-.523.223-.19.221-.19.651 0 .418.186.643.188.223.527.223.118 0 .24-.03.122-.032.219-.082.085-.043.159-.09.074-.05.118-.085h.02zM43.474 12.706h-1.7q0 .213.063.372.064.157.176.259.107.099.254.148.149.05.327.05.235 0 .473-.093.24-.095.341-.186h.02v.424q-.195.082-.4.138-.205.056-.43.056-.575 0-.897-.31-.323-.312-.323-.885 0-.566.308-.899.31-.333.815-.333.467 0 .72.273.253.273.253.775zm-.378-.297q-.002-.306-.155-.474-.15-.167-.46-.167-.313 0-.5.184-.183.184-.208.457zM44.87 13.231l-.583 1.354h-.302l.36-1.354zM3.287 16.803l-.602 2.309h-.36l-.593-1.78-.589 1.78H.785l-.607-2.309h.405l.424 1.788.576-1.788h.32l.592 1.788.4-1.788zM4.264 16.417h-.438v-.404h.438zm-.024 2.695h-.39v-2.309h.39zM6.212 19.091q-.11.03-.24.048-.128.018-.23.018-.353 0-.537-.19-.184-.19-.184-.61V17.13h-.263v-.327h.263v-.663h.388v.663h.803v.327h-.803v1.052q0 .182.009.285.008.101.058.19.045.083.124.122.08.037.244.037.095 0 .198-.026.103-.03.149-.048h.02zM8.613 19.112h-.388v-1.315q0-.159-.019-.297-.018-.14-.068-.22-.052-.086-.149-.128-.097-.043-.252-.043-.16 0-.333.079-.173.078-.333.2v1.724h-.388v-3.216h.388v1.163q.182-.15.377-.235.194-.085.399-.085.374 0 .57.225.196.226.196.65zM12.5 18.446q0 .317-.263.52-.26.202-.713.202-.256 0-.471-.06-.213-.062-.358-.134v-.437h.02q.185.139.41.222.225.08.432.08.256 0 .4-.083.146-.082.146-.26 0-.136-.079-.207-.078-.07-.302-.12-.082-.018-.217-.043-.132-.025-.242-.054-.303-.08-.432-.235-.126-.157-.126-.385 0-.142.058-.269.06-.126.18-.225.116-.097.294-.153.18-.058.4-.058.207 0 .418.052.213.05.354.122v.415h-.021q-.149-.11-.362-.184-.213-.076-.417-.076-.213 0-.36.083-.147.08-.147.242 0 .142.089.214.087.073.281.118.108.025.24.05.134.025.223.045.271.062.418.213.146.153.146.405zM15.025 17.959q0 .564-.289.89-.29.327-.775.327-.49 0-.78-.327-.287-.326-.287-.89 0-.565.288-.891.289-.329.779-.329.486 0 .775.329.29.326.29.89zm-.4 0q0-.449-.176-.666-.176-.22-.488-.22-.316 0-.492.22-.174.217-.174.666 0 .434.176.659.176.223.49.223.31 0 .486-.22.177-.224.177-.662zM18.998 19.112h-.388v-1.315q0-.148-.015-.287-.012-.138-.056-.221-.047-.089-.136-.134-.089-.046-.256-.046-.164 0-.327.083-.163.08-.326.206.006.048.01.112.004.062.004.124v1.478h-.389v-1.315q0-.153-.014-.289-.013-.139-.056-.221-.047-.09-.136-.132-.09-.046-.257-.046-.159 0-.32.079-.16.078-.318.2v1.724h-.389v-2.309h.389v.256q.182-.15.361-.235.182-.085.387-.085.236 0 .399.1.165.098.246.274.235-.198.43-.285.194-.089.415-.089.38 0 .56.232.182.229.182.642zM21.68 17.998h-1.702q0 .213.064.372.064.157.176.258.107.1.254.15.149.049.327.049.235 0 .473-.093.24-.095.341-.186h.02v.423q-.196.083-.4.139-.205.056-.43.056-.575 0-.897-.31-.323-.312-.323-.885 0-.566.308-.9.31-.332.815-.332.467 0 .719.273.254.273.254.775zM21.3 17.7q-.002-.306-.155-.473-.15-.168-.461-.168-.312 0-.498.184-.184.184-.209.457zM24.174 16.417h-.438v-.404h.438zm-.025 2.695h-.388v-2.309h.388zM28.292 19.112h-.389v-1.315q0-.148-.014-.287-.013-.138-.056-.221-.048-.089-.137-.134-.088-.046-.256-.046-.163 0-.326.083-.164.08-.327.206.006.048.01.112.004.062.004.124v1.478h-.388v-1.315q0-.153-.015-.289-.012-.139-.055-.221-.048-.09-.137-.132-.089-.046-.256-.046-.16 0-.32.079-.16.078-.319.2v1.724h-.388v-2.309h.388v.256q.182-.15.362-.235.182-.085.386-.085.236 0 .4.1.165.098.245.274.236-.198.43-.285.195-.089.416-.089.38 0 .56.232.182.229.182.642zM31.072 17.93q0 .28-.08.514-.081.232-.228.393-.136.153-.322.238-.184.082-.391.082-.18 0-.327-.039-.144-.04-.295-.122v.968h-.389v-3.16h.389v.241q.155-.13.347-.217.194-.089.413-.089.418 0 .65.316.233.314.233.875zm-.401.01q0-.418-.143-.624-.142-.207-.438-.207-.167 0-.337.072-.17.073-.324.19v1.309q.165.074.283.101.12.027.27.027.325 0 .507-.219.182-.22.182-.649zM33.645 17.959q0 .564-.289.89-.29.327-.775.327-.49 0-.78-.327-.287-.326-.287-.89 0-.565.288-.891.29-.329.779-.329.486 0 .775.329.29.326.29.89zm-.4 0q0-.449-.176-.666-.176-.22-.488-.22-.316 0-.492.22-.174.217-.174.666 0 .434.176.659.176.223.49.223.31 0 .486-.22.177-.224.177-.662zM35.69 17.227h-.02q-.088-.02-.17-.03-.081-.01-.193-.01-.18 0-.347.081-.167.079-.322.205v1.639h-.389v-2.309h.389v.341q.231-.186.407-.262.178-.079.362-.079.1 0 .146.006.046.004.137.019zM37.259 19.091q-.11.03-.24.048-.128.018-.23.018-.353 0-.537-.19-.184-.19-.184-.61V17.13h-.262v-.327h.262v-.663h.389v.663h.802v.327h-.802v1.052q0 .182.008.285.008.101.058.19.045.083.124.122.08.037.244.037.095 0 .198-.026.104-.03.15-.048h.02zM39.524 19.112h-.386v-.246q-.052.035-.14.1-.088.061-.17.098-.098.048-.224.079-.126.033-.295.033-.312 0-.53-.207-.216-.206-.216-.527 0-.262.111-.423.114-.164.323-.257.21-.093.506-.126.296-.033.635-.05v-.06q0-.132-.048-.219-.045-.086-.132-.136-.083-.047-.199-.064-.115-.017-.241-.017-.153 0-.342.042-.188.039-.388.116h-.02v-.395q.113-.031.328-.068.215-.038.424-.038.244 0 .423.042.182.039.315.136.13.095.198.246.068.15.068.374zm-.386-.568V17.9q-.178.01-.42.03-.24.021-.38.06-.168.048-.271.15-.103.099-.103.274 0 .199.12.3.12.1.365.1.205 0 .374-.08.17-.08.315-.191zM42.207 19.112h-.388v-1.315q0-.159-.019-.297-.019-.14-.068-.22-.052-.086-.149-.128-.097-.043-.252-.043-.16 0-.333.079-.174.078-.333.2v1.724h-.388v-2.309h.388v.256q.182-.15.376-.235.195-.085.4-.085.373 0 .57.225.196.226.196.65zM44.154 19.091q-.11.03-.24.048-.128.018-.229.018-.353 0-.537-.19-.184-.19-.184-.61V17.13H42.7v-.327h.263v-.663h.388v.663h.802v.327h-.802v1.052q0 .182.009.285.008.101.058.19.045.083.124.122.08.037.244.037.095 0 .198-.026.103-.03.149-.048h.02zM3.777 21.708h-.439v-.403h.439zm-.025 2.696h-.389v-2.31h.389zM6.455 24.404h-.388v-1.315q0-.16-.019-.298-.018-.14-.068-.219-.052-.087-.149-.128-.097-.043-.252-.043-.16 0-.333.078-.173.079-.333.2v1.725h-.388v-2.31h.388v.257q.182-.15.377-.236.194-.084.399-.084.374 0 .57.225.196.225.196.65zM8.446 21.564h-.02q-.065-.02-.168-.038-.103-.02-.182-.02-.25 0-.364.111-.111.11-.111.4v.078h.7v.326h-.688v1.983h-.389V22.42h-.262v-.326h.262v-.077q0-.411.205-.63.205-.221.591-.221.13 0 .234.012.105.012.192.029zM10.66 23.25q0 .565-.29.891-.289.327-.775.327-.49 0-.779-.327-.287-.326-.287-.89 0-.565.287-.892.29-.328.78-.328.485 0 .774.328.29.327.29.891zm-.401 0q0-.448-.176-.665-.176-.22-.488-.22-.316 0-.492.22-.173.217-.173.665 0 .434.175.66.176.223.49.223.31 0 .486-.221.178-.224.178-.662zM11.857 24.404h-.494v-.59h.494zM16.474 21.69h-1.1v2.714h-.409V21.69h-1.1v-.364h2.61zM18.792 24.404h-.389v-1.315q0-.16-.019-.298-.018-.14-.068-.219-.051-.087-.149-.128-.097-.043-.252-.043-.159 0-.333.078-.173.079-.332.2v1.725h-.389v-3.217h.389v1.164q.182-.15.376-.236.194-.084.399-.084.374 0 .57.225.197.225.197.65zM19.957 21.708h-.438v-.403h.438zm-.024 2.696h-.389v-2.31h.389zM22.355 23.738q0 .316-.262.519-.26.202-.713.202-.257 0-.472-.06-.213-.061-.357-.134v-.436h.02q.184.139.41.221.225.08.432.08.256 0 .4-.082.145-.083.145-.26 0-.137-.078-.207-.079-.07-.302-.12-.083-.018-.217-.043-.132-.025-.242-.054-.304-.08-.432-.236-.126-.157-.126-.384 0-.143.058-.269.06-.126.18-.225.115-.097.293-.153.18-.058.401-.058.207 0 .418.052.213.05.353.122v.415h-.02q-.15-.11-.362-.184-.213-.076-.418-.076-.213 0-.36.082-.146.08-.146.242 0 .143.089.215.087.072.28.118.108.025.24.05.135.024.224.045.27.062.417.213.147.153.147.405zM24.82 21.708h-.44v-.403h.44zm-.026 2.696h-.388v-2.31h.388zM27.217 23.738q0 .316-.263.519-.26.202-.713.202-.256 0-.471-.06-.213-.061-.358-.134v-.436h.021q.184.139.41.221.225.08.431.08.257 0 .401-.082.145-.083.145-.26 0-.137-.078-.207-.079-.07-.302-.12-.083-.018-.217-.043-.133-.025-.242-.054-.304-.08-.432-.236-.126-.157-.126-.384 0-.143.058-.269.06-.126.18-.225.115-.097.293-.153.18-.058.401-.058.207 0 .418.052.212.05.353.122v.415h-.02q-.15-.11-.362-.184-.213-.076-.418-.076-.213 0-.36.082-.146.08-.146.242 0 .143.088.215.087.072.282.118.107.025.24.05.134.024.223.045.27.062.417.213.147.153.147.405zM30.462 24.383q-.11.029-.24.048-.128.018-.229.018-.353 0-.537-.19-.184-.19-.184-.61v-1.228h-.263v-.326h.263v-.664h.388v.664h.802v.326h-.802v1.052q0 .182.009.286.008.101.057.19.046.083.124.122.081.037.244.037.095 0 .199-.027.103-.029.149-.047h.02zM32.864 24.404h-.388v-1.315q0-.16-.02-.298-.018-.14-.067-.219-.052-.087-.15-.128-.096-.043-.251-.043-.16 0-.333.078-.174.079-.333.2v1.725h-.388v-3.217h.388v1.164q.182-.15.376-.236.195-.084.4-.084.373 0 .57.225.196.225.196.65zM35.545 23.29h-1.701q0 .212.064.372.064.157.176.258.107.1.254.149.149.05.327.05.235 0 .473-.094.24-.095.341-.186h.02v.424q-.196.083-.4.139-.205.055-.43.055-.575 0-.897-.31-.323-.312-.323-.884 0-.567.308-.9.31-.332.815-.332.467 0 .719.273.254.272.254.775zm-.378-.298q-.002-.306-.155-.473-.151-.168-.461-.168-.312 0-.498.184-.184.184-.21.457zM1.581 29.675q-.11.029-.24.047-.128.019-.229.019-.353 0-.537-.19-.184-.19-.184-.61v-1.228H.128v-.327h.263v-.663h.388v.663h.802v.327H.78v1.052q0 .182.009.285.008.102.057.19.046.083.124.123.081.037.244.037.095 0 .199-.027.103-.03.149-.048h.02zM3.983 29.695h-.388v-1.314q0-.16-.019-.298-.019-.14-.068-.22-.052-.086-.149-.127-.097-.044-.252-.044-.16 0-.333.079-.174.078-.333.2v1.724h-.388V26.48h.388v1.164q.182-.151.376-.236.195-.085.4-.085.373 0 .57.226.196.225.196.649zM5.149 27h-.438v-.403h.438zm-.025 2.695h-.388v-2.309h.388zM7.338 27.81h-.02q-.087-.02-.17-.029-.08-.01-.192-.01-.18 0-.348.08-.167.08-.322.205v1.64h-.389v-2.31h.389v.342q.231-.187.407-.263.178-.079.362-.079.101 0 .147.007.045.004.136.018zM9.58 29.695h-.388v-.242q-.167.145-.35.226-.181.08-.394.08-.413 0-.657-.318-.242-.318-.242-.883 0-.293.083-.522.084-.23.227-.391.14-.157.327-.24.188-.083.388-.083.182 0 .323.04.14.037.295.117v-1h.389zm-.388-.568v-1.325q-.157-.07-.28-.097-.125-.027-.272-.027-.326 0-.508.227-.182.228-.182.645 0 .412.14.627.141.212.451.212.165 0 .335-.072.17-.074.316-.19zM13.483 29.03q0 .316-.262.519-.26.202-.713.202-.257 0-.472-.06-.212-.062-.357-.134v-.436h.02q.185.138.41.22.225.082.432.082.256 0 .4-.083.146-.083.146-.26 0-.137-.079-.207-.079-.07-.302-.12-.082-.019-.217-.044-.132-.024-.242-.053-.304-.081-.432-.236-.126-.157-.126-.384 0-.143.058-.27.06-.125.18-.225.116-.097.293-.152.18-.058.401-.058.207 0 .418.051.213.05.353.122v.416h-.02q-.149-.11-.362-.184-.213-.077-.417-.077-.213 0-.36.083-.147.08-.147.242 0 .142.089.215.087.072.281.118.108.024.24.05.134.024.223.045.27.062.418.213.146.153.146.405zM15.974 28.581h-1.701q0 .213.064.372.064.157.176.259.107.099.254.148.149.05.327.05.235 0 .473-.093.24-.095.341-.186h.02v.424q-.196.082-.4.138-.205.056-.43.056-.575 0-.897-.31-.323-.312-.323-.885 0-.566.308-.899.31-.333.815-.333.467 0 .719.273.254.273.254.775zm-.378-.297q-.002-.306-.155-.474-.151-.167-.461-.167-.312 0-.498.184-.184.184-.209.457zM18.494 29.695h-.389v-1.314q0-.16-.018-.298-.019-.14-.068-.22-.052-.086-.15-.127-.096-.044-.251-.044-.16 0-.333.079-.174.078-.333.2v1.724h-.389v-2.309h.389v.257q.182-.151.376-.236.194-.085.4-.085.373 0 .57.226.196.225.196.649zM20.441 29.675q-.11.029-.24.047-.128.019-.23.019-.353 0-.537-.19-.183-.19-.183-.61v-1.228h-.263v-.327h.263v-.663h.388v.663h.802v.327h-.802v1.052q0 .182.008.285.009.102.058.19.046.083.124.123.08.037.244.037.095 0 .199-.027.103-.03.148-.048h.021zM22.845 28.581h-1.701q0 .213.064.372.064.157.176.259.107.099.254.148.149.05.327.05.235 0 .473-.093.24-.095.341-.186h.02v.424q-.196.082-.4.138-.205.056-.43.056-.575 0-.897-.31-.323-.312-.323-.885 0-.566.308-.899.31-.333.815-.333.467 0 .719.273.254.273.254.775zm-.378-.297q-.002-.306-.155-.474-.151-.167-.461-.167-.312 0-.498.184-.184.184-.21.457zM25.365 29.695h-.389v-1.314q0-.16-.018-.298-.019-.14-.069-.22-.051-.086-.148-.127-.098-.044-.253-.044-.159 0-.332.079-.174.078-.333.2v1.724h-.389v-2.309h.389v.257q.182-.151.376-.236.194-.085.399-.085.374 0 .57.226.197.225.197.649zM27.82 29.55q-.194.094-.37.145-.173.052-.37.052-.25 0-.458-.072-.21-.075-.358-.224-.15-.148-.234-.376-.082-.227-.082-.531 0-.566.31-.889.312-.322.823-.322.198 0 .388.056.192.055.352.136v.432H27.8q-.178-.139-.368-.213-.188-.074-.368-.074-.33 0-.523.223-.19.221-.19.651 0 .418.186.643.188.223.527.223.118 0 .24-.03.122-.032.219-.082.085-.043.159-.09.074-.05.118-.085h.02zM30.253 28.581h-1.7q0 .213.063.372.064.157.176.259.108.099.254.148.15.05.327.05.236 0 .473-.093.24-.095.341-.186h.021v.424q-.196.082-.401.138-.205.056-.43.056-.575 0-.897-.31-.323-.312-.323-.885 0-.566.308-.899.31-.333.815-.333.467 0 .72.273.253.273.253.775zm-.378-.297q-.002-.306-.155-.474-.15-.167-.46-.167-.313 0-.499.184-.184.184-.209.457zM31.477 29.695h-.494v-.589h.494z"/></g><path d="M36.777 4.56H38.1v5.292h-1.323zM0 20.435h1.323v5.292H0z" fill="#686892"/></svg>