<svg xmlns="http://www.w3.org/2000/svg" viewBox="0 0 71.29 32.039" height="121.091" width="269.442"><defs><marker id="a" refX="0" refY="0" orient="auto" overflow="visible"><path d="M4.616 0l-6.92 4v-8z" fill-rule="evenodd" stroke="#000" stroke-width="1.0664"/></marker></defs><path d="M1.21 3.817h19.722v4.329H1.21z" fill="none" stroke="#3d3d55" stroke-width=".282" stroke-linecap="round" stroke-dasharray=".28182084,.84546251" stroke-dashoffset=".185"/><g style="line-height:1.25" aria-label="The word מחשב means computer" font-weight="400" font-size="4.233" font-family="sans-serif" letter-spacing="0" word-spacing="0" stroke-width=".265"><path d="M3.941 4.463h-1.1v2.714h-.409V4.463h-1.1v-.364h2.61zM6.258 7.177H5.87V5.862q0-.159-.019-.297-.018-.14-.068-.22-.052-.086-.149-.128-.097-.043-.252-.043-.16 0-.333.079-.173.078-.333.2v1.724h-.388V3.961h.388v1.163q.182-.15.377-.235.194-.085.399-.085.374 0 .57.225.196.226.196.65zM8.94 6.063H7.237q0 .213.064.372.064.157.176.258.107.1.254.15.149.049.327.049.235 0 .473-.093.24-.095.341-.186h.02v.423q-.195.083-.4.139-.205.056-.43.056-.575 0-.897-.31-.323-.312-.323-.885 0-.566.308-.9.31-.332.815-.332.467 0 .72.273.253.273.253.775zm-.379-.298q-.002-.306-.155-.473-.15-.168-.46-.168-.313 0-.499.184-.184.184-.209.457zM13.921 4.868l-.602 2.309h-.36l-.592-1.78-.59 1.78h-.357l-.608-2.309h.405l.424 1.788.577-1.788h.32l.591 1.788.401-1.788zM16.449 6.024q0 .564-.29.89-.289.327-.775.327-.49 0-.779-.327-.287-.326-.287-.89 0-.565.287-.891.29-.329.78-.329.485 0 .775.329.289.326.289.89zm-.401 0q0-.449-.176-.666-.175-.22-.488-.22-.316 0-.491.22-.174.217-.174.666 0 .434.176.659.175.223.49.223.31 0 .485-.221.178-.223.178-.661zM18.493 5.292h-.02q-.087-.02-.17-.03-.08-.01-.192-.01-.18 0-.347.081-.168.079-.323.205v1.639h-.388V4.868h.388v.341q.232-.186.407-.262.178-.079.362-.079.101 0 .147.006.045.004.136.019zM20.736 7.177h-.389v-.242q-.167.145-.349.225-.182.081-.395.081-.413 0-.657-.318-.242-.319-.242-.883 0-.293.083-.523.085-.23.227-.39.14-.158.327-.24.188-.083.388-.083.182 0 .323.04.14.036.295.117v-1h.39zm-.389-.568V5.284q-.157-.07-.28-.098-.125-.026-.271-.026-.327 0-.509.227t-.182.645q0 .411.14.626.141.213.451.213.166 0 .335-.072.17-.075.316-.19zM30.892 5.9l-.34-.916h.387l.161.484q.097-.213.304-.36.207-.149.445-.149.252 0 .434.13.184.128.266.376.083.248.083.747v.965h-1.13v-.33h.731v-.644q0-.363-.025-.529-.022-.167-.122-.27-.097-.106-.246-.106-.231 0-.394.24-.162.238-.275.827l-.155.812h-.4l.174-.856q.025-.122.102-.421zM30.083 7.177h-.394V5.988q0-.241-.054-.38-.054-.138-.215-.221-.161-.085-.463-.085-.176 0-.393.03v1.845h-.395V5.031q.443-.072.813-.072.405 0 .65.12.249.118.35.316.101.199.101.554zM25.513 4.984l.008.355q.013.548.048.759.219 0 .395-.11.175-.11.175-.415l.044-.59h.397l-.05.691q-.012.176-.04.267-.026.09-.11.192-.084.101-.265.178-.18.074-.486.1.052.222.24.357.188.134.463.134.254 0 .436-.12.182-.122.269-.312.086-.192.115-.546l.09-.94h.396l-.074.812q-.044.457-.155.76-.112.305-.389.493-.275.188-.711.188-.387 0-.65-.186-.26-.188-.39-.535-.128-.348-.128-.927l-.029-.605zM24.459 6.846h.35v.331H22.71v-.33h1.354v-.749q0-.306-.068-.459-.068-.155-.248-.246-.178-.09-.556-.09-.135 0-.416.028l-.033-.327q.28-.045.593-.045.592 0 .856.256.267.257.267.778zM37.86 7.177h-.389V5.862q0-.149-.014-.287-.013-.138-.056-.221-.048-.09-.137-.135-.089-.045-.256-.045-.163 0-.327.083-.163.08-.326.206.006.048.01.112.004.062.004.124v1.478h-.388V5.862q0-.153-.015-.29-.012-.138-.056-.22-.047-.09-.136-.133-.089-.045-.256-.045-.16 0-.32.079-.16.078-.32.2v1.724h-.388V4.868h.389v.256q.182-.15.362-.235.182-.085.386-.085.236 0 .4.1.164.098.245.274.236-.198.43-.285.194-.089.416-.089.38 0 .56.232.182.229.182.642zM40.54 6.063h-1.7q0 .213.063.372.065.157.176.258.108.1.254.15.15.049.327.049.236 0 .473-.093.24-.095.341-.186h.021v.423q-.196.083-.4.139-.206.056-.43.056-.576 0-.898-.31-.322-.312-.322-.885 0-.566.308-.9.31-.332.814-.332.467 0 .72.273.254.273.254.775zm-.378-.298q-.002-.306-.155-.473-.15-.168-.46-.168-.313 0-.499.184-.184.184-.209.457zM42.924 7.177h-.387v-.246q-.051.035-.14.1-.087.061-.17.098-.097.048-.223.079-.126.033-.296.033-.312 0-.529-.207-.217-.206-.217-.527 0-.262.112-.424.114-.163.322-.256.211-.093.507-.126.295-.033.634-.05v-.06q0-.132-.047-.219-.046-.086-.133-.136-.082-.048-.198-.064-.116-.017-.242-.017-.153 0-.34.042-.189.039-.39.115h-.02v-.394q.114-.031.329-.069.215-.037.423-.037.244 0 .424.042.182.039.314.136.13.095.199.246.068.15.068.374zm-.387-.568v-.643q-.177.01-.42.03-.24.021-.38.06-.167.048-.27.15-.104.099-.104.274 0 .199.12.3.12.1.366.1.205 0 .374-.08.17-.08.314-.191zM45.607 7.177h-.389V5.862q0-.159-.018-.297-.019-.14-.069-.22-.051-.086-.148-.128-.097-.043-.253-.043-.159 0-.332.079-.174.078-.333.2v1.724h-.389V4.868h.389v.256q.182-.15.376-.235.194-.085.399-.085.374 0 .57.225.197.226.197.65zM48.005 6.511q0 .317-.263.52-.26.202-.713.202-.256 0-.471-.06-.213-.062-.358-.135v-.436h.02q.185.139.41.222.225.08.432.08.256 0 .401-.083.145-.082.145-.26 0-.136-.079-.207-.078-.07-.302-.12-.082-.018-.217-.043-.132-.025-.241-.054-.304-.08-.432-.235-.127-.157-.127-.385 0-.142.058-.269.06-.126.18-.225.116-.097.294-.153.18-.058.4-.058.207 0 .418.052.213.05.354.122V5.4h-.02q-.15-.11-.363-.184-.213-.076-.417-.076-.213 0-.36.083-.147.08-.147.241 0 .143.09.215.086.073.28.118.108.025.24.05.135.025.223.045.271.062.418.213.147.153.147.405zM51.758 7.032q-.194.093-.37.145-.173.052-.37.052-.25 0-.458-.073-.21-.074-.358-.223-.15-.149-.234-.376-.082-.228-.082-.531 0-.567.31-.89.312-.322.822-.322.199 0 .39.056t.35.137v.432h-.02q-.178-.139-.368-.213-.188-.075-.368-.075-.33 0-.523.223-.19.222-.19.652 0 .417.186.642.188.224.527.224.118 0 .24-.031t.219-.08q.085-.044.159-.092.074-.05.118-.085h.02zM54.227 6.024q0 .564-.29.89-.29.327-.775.327-.49 0-.78-.327-.287-.326-.287-.89 0-.565.288-.891.29-.329.779-.329.486 0 .775.329.29.326.29.89zm-.401 0q0-.449-.176-.666-.176-.22-.488-.22-.316 0-.492.22-.174.217-.174.666 0 .434.176.659.176.223.49.223.31 0 .486-.221.178-.223.178-.661zM58.2 7.177h-.39V5.862q0-.149-.014-.287-.012-.138-.055-.221-.048-.09-.137-.135-.089-.045-.256-.045-.164 0-.327.083-.163.08-.326.206.006.048.01.112.004.062.004.124v1.478h-.389V5.862q0-.153-.014-.29-.012-.138-.056-.22-.047-.09-.136-.133-.09-.045-.257-.045-.159 0-.32.079-.16.078-.318.2v1.724h-.389V4.868h.389v.256q.182-.15.361-.235.182-.085.387-.085.236 0 .399.1.165.098.246.274.236-.198.43-.285.194-.089.415-.089.38 0 .56.232.182.229.182.642zM60.98 5.995q0 .28-.081.514-.08.232-.227.393-.137.153-.323.238-.184.082-.39.082-.18 0-.327-.039-.145-.04-.296-.122v.968h-.388v-3.16h.388v.24q.155-.13.348-.216.194-.089.413-.089.418 0 .649.316.234.314.234.875zm-.401.01q0-.418-.143-.624-.143-.207-.438-.207-.168 0-.337.072-.17.073-.325.19v1.309q.166.074.283.101.12.027.271.027.325 0 .507-.219.182-.22.182-.65zM63.5 7.177h-.39v-.256q-.196.155-.375.237-.18.083-.397.083-.364 0-.567-.221-.202-.223-.202-.653V4.868h.388v1.315q0 .175.017.302.016.124.07.212.056.091.145.133.089.041.258.041.151 0 .329-.079.18-.078.335-.2V4.868h.388zM65.463 7.156q-.11.03-.24.048-.128.018-.23.018-.353 0-.537-.19-.184-.19-.184-.61V5.195h-.262v-.327h.262v-.663h.389v.663h.802v.327h-.802v1.052q0 .182.008.285.009.101.058.19.046.083.124.122.08.037.244.037.095 0 .199-.026.103-.03.148-.048h.021zM67.867 6.063h-1.701q0 .213.064.372.064.157.176.258.107.1.254.15.149.049.326.049.236 0 .474-.093.24-.095.34-.186h.022v.423q-.197.083-.401.139-.205.056-.43.056-.575 0-.897-.31-.323-.312-.323-.885 0-.566.308-.9.31-.332.814-.332.468 0 .72.273.254.273.254.775zm-.378-.298q-.002-.306-.155-.473-.151-.168-.461-.168-.312 0-.498.184-.184.184-.21.457zM69.897 5.292h-.02q-.088-.02-.17-.03-.08-.01-.193-.01-.18 0-.347.081-.167.079-.322.205v1.639h-.389V4.868h.389v.341q.231-.186.407-.262.178-.079.362-.079.101 0 .146.006.046.004.137.019z"/></g><path d="M20.932 3.817h13.414v4.329H20.932zM34.346 3.817h35.726v4.329H34.346z" fill="none" stroke="#3d3d55" stroke-width=".282" stroke-linecap="round" stroke-dasharray=".28182084,.84546251" stroke-dashoffset=".185"/><path style="line-height:1.25;font-variant-ligatures:normal;font-variant-position:normal;font-variant-caps:normal;font-variant-numeric:normal;font-variant-alternates:normal;font-feature-settings:normal;text-indent:0;text-align:start;text-decoration-line:none;text-decoration-style:solid;text-decoration-color:#000;text-transform:none;text-orientation:mixed;white-space:normal;shape-padding:0" d="M11.765 2.573h-1.388v-.261h.534V.592h-.534V.359q.108 0 .232-.017.124-.019.188-.053.08-.043.124-.109.047-.067.054-.179h.267v2.312h.523z" aria-label="1" font-weight="400" font-size="3.528" font-family="sans-serif" letter-spacing="0" word-spacing="0" fill="#3d3d55" stroke-width=".265"/><path style="line-height:1.25;font-variant-ligatures:normal;font-variant-position:normal;font-variant-caps:normal;font-variant-numeric:normal;font-variant-alternates:normal;font-feature-settings:normal;text-indent:0;text-align:start;text-decoration-line:none;text-decoration-style:solid;text-decoration-color:#000;text-transform:none;text-orientation:mixed;white-space:normal;shape-padding:0" d="M28.507 2.658h-1.736v-.36q.18-.156.361-.31.183-.156.34-.309.33-.32.453-.508.122-.19.122-.408 0-.2-.133-.312-.13-.114-.366-.114-.157 0-.34.055-.182.055-.356.17h-.018V.198q.123-.06.326-.11.205-.05.396-.05.395 0 .619.191.223.19.223.515 0 .147-.037.274-.037.126-.109.24-.067.107-.158.21-.09.103-.22.23-.184.18-.38.35-.196.17-.367.314h1.38z" aria-label="2" font-weight="400" font-size="3.528" font-family="sans-serif" letter-spacing="0" word-spacing="0" fill="#3d3d55" stroke-width=".265"/><path style="line-height:1.25;font-variant-ligatures:normal;font-variant-position:normal;font-variant-caps:normal;font-variant-numeric:normal;font-variant-alternates:normal;font-feature-settings:normal;text-indent:0;text-align:start;text-decoration-line:none;text-decoration-style:solid;text-decoration-color:#000;text-transform:none;text-orientation:mixed;white-space:normal;shape-padding:0" d="M52.864 1.712q.083.074.136.186.054.112.054.29 0 .175-.064.322-.064.146-.179.255-.13.12-.305.179-.174.057-.382.057-.214 0-.42-.052-.207-.05-.34-.11v-.36h.026q.146.096.344.16.199.064.383.064.108 0 .23-.037.123-.036.199-.106.079-.076.117-.167.04-.092.04-.231 0-.138-.045-.228-.043-.091-.12-.143-.078-.053-.189-.072-.11-.02-.237-.02h-.155v-.287h.12q.262 0 .417-.108.157-.11.157-.32 0-.094-.04-.162-.04-.071-.11-.116-.074-.045-.159-.062-.084-.017-.19-.017-.164 0-.349.058-.184.059-.348.166h-.017V.49q.122-.06.326-.11.205-.052.396-.052.188 0 .33.034.144.035.259.11.124.083.188.2.063.118.063.274 0 .214-.151.374-.15.159-.355.2v.024q.083.014.19.059.106.043.18.108z" aria-label="3" font-weight="400" font-size="3.528" font-family="sans-serif" letter-spacing="0" word-spacing="0" fill="#3d3d55" stroke-width=".265"/><path d="M.661 3.804v4.33" fill="none" stroke="#705697" stroke-width="1.323"/><path d="M70.629 3.817v4.329" fill="#610008" stroke="#ffbeb5" stroke-width="1.323"/><path d="M54.79 60.409v10.583" fill="none" stroke="#000" stroke-width=".265" marker-end="url(#a)" transform="translate(-19.145 -50.431)"/><g><path d="M51.342 27.557h19.721v4.329H51.342z" fill="none" stroke="#3d3d55" stroke-width=".282" stroke-linecap="round" stroke-dasharray=".28182084,.84546251" stroke-dashoffset=".185"/><g style="line-height:1.25" aria-label="means computer מחשב The word" font-weight="400" font-size="4.233" font-family="sans-serif" letter-spacing="0" word-spacing="0" stroke-width=".265"><path d="M3.728 30.913h-.389V29.6q0-.149-.014-.288-.013-.138-.056-.22-.048-.09-.137-.135-.088-.046-.256-.046-.163 0-.326.083-.164.08-.327.207.006.047.01.111.004.062.004.124v1.478H1.85V29.6q0-.153-.015-.29-.012-.138-.056-.22-.047-.09-.136-.133-.089-.046-.256-.046-.16 0-.32.079t-.319.2v1.724H.358v-2.308h.389v.256q.182-.151.362-.236.182-.085.386-.085.236 0 .4.1.165.099.245.275.236-.199.43-.286.194-.089.416-.089.38 0 .56.232.182.23.182.643zM6.409 29.8H4.708q0 .212.064.371.064.157.175.259.108.099.255.149.148.05.326.05.236 0 .474-.094.24-.095.34-.186h.021v.424q-.196.083-.4.138-.205.056-.43.056-.575 0-.898-.31-.322-.312-.322-.885 0-.566.308-.899.31-.333.814-.333.467 0 .72.273.254.273.254.775zm-.379-.298q-.002-.306-.155-.474-.15-.167-.46-.167-.313 0-.499.184-.184.184-.208.457zM8.792 30.913h-.386v-.246l-.141.1q-.087.062-.17.099-.097.047-.223.078-.126.034-.295.034-.312 0-.53-.207-.217-.207-.217-.527 0-.263.112-.424.114-.163.323-.256.21-.093.506-.126.296-.034.635-.05v-.06q0-.132-.048-.22-.046-.086-.132-.136-.083-.047-.199-.064-.116-.016-.242-.016-.153 0-.34.041-.189.04-.39.116h-.02v-.395q.114-.03.329-.068.215-.037.423-.037.244 0 .424.041.182.04.314.136.13.096.199.246.068.151.068.375zm-.386-.568v-.643q-.178.01-.42.031-.24.02-.38.06-.168.048-.271.149-.104.1-.104.275 0 .198.12.3.12.099.366.099.205 0 .374-.079.17-.08.315-.192zM11.475 30.913h-.389V29.6q0-.16-.018-.298-.019-.14-.068-.219-.052-.087-.15-.128-.096-.044-.251-.044-.16 0-.333.079-.174.079-.333.2v1.724h-.389v-2.308h.39v.256q.181-.151.375-.236.195-.085.4-.085.373 0 .57.226.196.225.196.649zM13.873 30.248q0 .316-.263.519-.26.202-.713.202-.256 0-.471-.06-.213-.062-.358-.134v-.436h.021q.184.138.41.221.225.08.431.08.257 0 .401-.082.145-.083.145-.26 0-.137-.079-.207-.078-.07-.301-.12-.083-.019-.217-.044-.133-.024-.242-.053-.304-.08-.432-.236-.126-.157-.126-.384 0-.143.058-.27.06-.125.18-.224.115-.098.293-.153.18-.058.4-.058.208 0 .418.051.213.05.354.122v.416h-.02q-.15-.11-.362-.184-.213-.077-.418-.077-.213 0-.36.083-.146.08-.146.242 0 .143.088.215.087.072.282.118.107.025.24.05.134.024.223.045.27.062.417.213.147.153.147.405zM17.627 30.769q-.195.093-.37.144-.174.052-.37.052-.25 0-.46-.072-.208-.075-.357-.223-.15-.15-.233-.377-.083-.227-.083-.53 0-.567.31-.89.312-.322.823-.322.198 0 .388.056.192.055.352.136v.432h-.021q-.178-.138-.368-.213-.188-.074-.368-.074-.33 0-.523.223-.19.221-.19.651 0 .418.186.643.188.223.527.223.118 0 .24-.03.122-.032.219-.081.085-.044.16-.091.074-.05.117-.085h.02zM20.095 29.76q0 .564-.29.89-.29.328-.775.328-.49 0-.78-.327-.286-.327-.286-.891 0-.564.287-.89.29-.33.78-.33.485 0 .774.33.29.326.29.89zm-.401 0q0-.449-.176-.666-.176-.219-.488-.219-.316 0-.492.22-.173.216-.173.665 0 .434.175.66.176.223.49.223.31 0 .486-.222.178-.223.178-.661zM24.068 30.913h-.389V29.6q0-.149-.014-.288-.013-.138-.056-.22-.048-.09-.137-.135-.089-.046-.256-.046-.163 0-.327.083-.163.08-.326.207.006.047.01.111.004.062.004.124v1.478h-.388V29.6q0-.153-.015-.29-.012-.138-.056-.22-.047-.09-.136-.133-.089-.046-.256-.046-.16 0-.32.079t-.32.2v1.724h-.388v-2.308h.389v.256q.182-.151.362-.236.182-.085.386-.085.236 0 .4.1.164.099.245.275.236-.199.43-.286.194-.089.416-.089.38 0 .56.232.182.23.182.643zM26.848 29.731q0 .281-.08.515-.081.231-.228.393-.137.152-.323.237-.184.083-.39.083-.18 0-.327-.04-.145-.039-.296-.121v.967h-.388v-3.16h.388v.241q.156-.13.348-.217.194-.089.413-.089.418 0 .65.317.233.314.233.874zm-.401.01q0-.417-.143-.624-.142-.207-.438-.207-.167 0-.337.073-.17.072-.325.19v1.308q.166.075.284.102.12.027.27.027.325 0 .507-.22.182-.219.182-.649zM29.368 30.913h-.39v-.256q-.195.155-.375.238-.18.083-.397.083-.364 0-.567-.222-.202-.223-.202-.653v-1.498h.389v1.314q0 .176.016.302.017.124.07.213.056.09.145.132.089.042.258.042.151 0 .33-.079.179-.079.334-.2v-1.724h.389zM31.331 30.893q-.11.029-.24.047-.128.019-.229.019-.353 0-.537-.19-.184-.19-.184-.61V28.93h-.263v-.326h.263v-.664h.388v.664h.802v.326h-.802v1.052q0 .182.009.286.008.1.057.19.046.082.124.122.081.037.244.037.095 0 .199-.027.103-.029.149-.048h.02zM33.735 29.8h-1.701q0 .212.064.371.064.157.176.259.107.099.254.149.149.05.327.05.235 0 .473-.094.24-.095.341-.186h.02v.424q-.196.083-.4.138-.205.056-.43.056-.575 0-.897-.31-.323-.312-.323-.885 0-.566.308-.899.31-.333.815-.333.467 0 .719.273.254.273.254.775zm-.378-.298q-.002-.306-.155-.474-.151-.167-.461-.167-.312 0-.498.184-.184.184-.209.457zM35.765 29.028h-.02q-.087-.02-.17-.029-.08-.01-.192-.01-.18 0-.348.08-.167.08-.322.205v1.64h-.389v-2.31h.389v.342q.231-.186.407-.263.178-.078.362-.078.101 0 .147.006.045.004.136.018zM46.852 29.636l-.34-.916h.387l.162.484q.097-.213.304-.36.206-.149.444-.149.252 0 .434.13.184.129.267.377.082.248.082.746v.965h-1.13v-.33h.731v-.643q0-.364-.024-.53-.023-.167-.122-.27-.097-.106-.246-.106-.232 0-.395.24-.161.238-.275.827l-.155.812h-.399l.174-.855q.024-.122.1-.422zM46.044 30.913h-.395v-1.188q0-.242-.054-.38-.054-.139-.215-.222-.161-.084-.463-.084-.176 0-.393.029v1.845h-.394v-2.145q.442-.073.812-.073.405 0 .651.12.248.118.35.317.1.198.1.554zM41.473 28.72l.009.356q.012.548.047.758.22 0 .395-.11.176-.109.176-.415l.043-.589h.397l-.05.69q-.012.176-.039.267-.027.091-.111.193-.083.1-.265.177-.18.075-.486.1.052.223.24.357.188.135.463.135.254 0 .436-.12.182-.122.269-.313.087-.192.116-.545l.089-.94h.396l-.074.812q-.043.456-.155.76t-.389.492q-.275.188-.71.188-.387 0-.65-.186-.26-.188-.39-.535-.129-.347-.129-.926l-.029-.606zM40.42 30.583h.349v.33H38.67v-.33h1.354v-.749q0-.306-.068-.458-.068-.155-.248-.246-.178-.091-.556-.091-.134 0-.415.029l-.033-.327q.279-.046.593-.046.591 0 .856.257.266.256.266.777zM54.058 28.2h-1.1v2.713h-.409V28.2h-1.1v-.363h2.61zM56.375 30.913h-.388V29.6q0-.16-.019-.298-.018-.14-.068-.219-.052-.087-.149-.128-.097-.044-.252-.044-.16 0-.333.079-.173.079-.333.2v1.724h-.388v-3.216h.388v1.164q.182-.151.377-.236.194-.085.399-.085.374 0 .57.226.197.225.197.649zM59.056 29.8h-1.7q0 .212.063.371.064.157.176.259.108.099.254.149.15.05.327.05.236 0 .473-.094.24-.095.341-.186h.021v.424q-.196.083-.401.138-.205.056-.43.056-.575 0-.897-.31-.323-.312-.323-.885 0-.566.308-.899.31-.333.815-.333.467 0 .72.273.253.273.253.775zm-.378-.298q-.002-.306-.155-.474-.15-.167-.46-.167-.313 0-.499.184-.184.184-.209.457zM64.038 28.605l-.601 2.308h-.36l-.593-1.78-.59 1.78h-.357l-.608-2.308h.405l.424 1.788.577-1.788h.32l.591 1.788.401-1.788zM66.566 29.76q0 .564-.29.89-.289.328-.774.328-.49 0-.78-.327-.287-.327-.287-.891 0-.564.287-.89.29-.33.78-.33.485 0 .775.33.29.326.29.89zm-.4 0q0-.449-.177-.666-.175-.219-.487-.219-.317 0-.492.22-.174.216-.174.665 0 .434.176.66.175.223.49.223.31 0 .485-.222.178-.223.178-.661zM68.61 29.028h-.02q-.087-.02-.17-.029-.08-.01-.192-.01-.18 0-.347.08-.168.08-.323.205v1.64h-.388v-2.31h.388v.342q.232-.186.407-.263.178-.078.362-.078.102 0 .147.006.045.004.136.018zM70.853 30.913h-.388v-.241q-.168.144-.35.225-.182.08-.395.08-.413 0-.657-.318-.242-.318-.242-.882 0-.294.083-.523.085-.23.227-.391.14-.157.327-.24.188-.083.389-.083.181 0 .322.04.14.037.296.118v-1h.388zm-.388-.568V29.02q-.158-.07-.282-.097-.124-.027-.27-.027-.327 0-.509.227-.182.228-.182.645 0 .412.14.627.141.213.451.213.166 0 .335-.073.17-.074.317-.19z"/></g><path d="M37.279 27.557h12.682v4.329H37.279zM.227 27.568h35.726v4.33H.227z" fill="none" stroke="#3d3d55" stroke-width=".282" stroke-linecap="round" stroke-dasharray=".28182084,.84546251" stroke-dashoffset=".185"/><path style="line-height:1.25;font-variant-ligatures:normal;font-variant-position:normal;font-variant-caps:normal;font-variant-numeric:normal;font-variant-alternates:normal;font-feature-settings:normal;text-indent:0;text-align:start;text-decoration-line:none;text-decoration-style:solid;text-decoration-color:#000;text-transform:none;text-orientation:mixed;white-space:normal;shape-padding:0" d="M61.897 26.394h-1.388v-.262h.534v-1.719h-.534v-.234q.108 0 .232-.017.124-.02.188-.054.08-.043.124-.108.046-.068.053-.18h.267v2.312h.524z" aria-label="1" font-weight="400" font-size="3.528" font-family="sans-serif" letter-spacing="0" word-spacing="0" fill="#3d3d55" stroke-width=".265"/><path style="line-height:1.25;font-variant-ligatures:normal;font-variant-position:normal;font-variant-caps:normal;font-variant-numeric:normal;font-variant-alternates:normal;font-feature-settings:normal;text-indent:0;text-align:start;text-decoration-line:none;text-decoration-style:solid;text-decoration-color:#000;text-transform:none;text-orientation:mixed;white-space:normal;shape-padding:0" d="M44.488 26.394h-1.736v-.36l.361-.31q.183-.155.34-.308.33-.32.453-.509.122-.19.122-.408 0-.2-.133-.312-.13-.113-.366-.113-.157 0-.34.055-.182.055-.356.169h-.018v-.362q.123-.06.326-.11.205-.05.396-.05.395 0 .619.19.224.19.224.516 0 .146-.038.274-.037.126-.109.24-.067.106-.158.21-.09.103-.22.229-.183.18-.38.35-.196.17-.367.314h1.38z" aria-label="2" font-weight="400" font-size="3.528" font-family="sans-serif" letter-spacing="0" word-spacing="0" fill="#3d3d55" stroke-width=".265"/><path style="line-height:1.25;font-variant-ligatures:normal;font-variant-position:normal;font-variant-caps:normal;font-variant-numeric:normal;font-variant-alternates:normal;font-feature-settings:normal;text-indent:0;text-align:start;text-decoration-line:none;text-decoration-style:solid;text-decoration-color:#000;text-transform:none;text-orientation:mixed;white-space:normal;shape-padding:0" d="M18.745 25.248q.083.074.136.186.054.112.054.29 0 .175-.064.322-.064.146-.18.255-.128.12-.304.179-.174.057-.383.057-.213 0-.42-.052-.207-.05-.34-.11v-.36h.027q.146.096.344.16.198.064.383.064.108 0 .23-.037.123-.036.198-.106.08-.076.118-.167.04-.092.04-.231 0-.138-.046-.228-.043-.091-.12-.143-.078-.053-.188-.072-.11-.02-.238-.02h-.155v-.287h.12q.263 0 .418-.108.157-.11.157-.32 0-.094-.04-.162-.04-.071-.11-.116-.074-.045-.159-.062-.084-.017-.191-.017-.164 0-.348.058-.184.059-.348.166h-.017v-.36q.122-.06.325-.11.205-.052.397-.052.187 0 .33.034.143.035.259.11.124.083.187.2.064.118.064.274 0 .214-.151.374-.15.159-.355.2v.024q.082.014.19.059.106.043.18.108z" aria-label="3" font-weight="400" font-size="3.528" font-family="sans-serif" letter-spacing="0" word-spacing="0" fill="#3d3d55" stroke-width=".265"/><path d="M36.482 27.557v4.329" fill="#610008" stroke="#ffbeb5" stroke-width="1.323"/><path d="M50.772 27.557v4.329" fill="none" stroke="#705697" stroke-width="1.323"/></g></svg>