<svg xmlns="http://www.w3.org/2000/svg" viewBox="0 0 68.564 9.619" height="36.355" width="259.141"><defs><marker id="c" refX="0" refY="0" orient="auto" overflow="visible"><path d="M2.308 0l-3.46 2v-4z" fill="#705697" fill-rule="evenodd" stroke="#705697" stroke-width=".5332"/></marker><marker orient="auto" refY="0" refX="0" id="b" overflow="visible"><path d="M2.308 0l-3.46 2v-4z" fill="#705697" fill-rule="evenodd" stroke="#705697" stroke-width=".5332"/></marker><marker id="a" refX="0" refY="0" orient="auto" overflow="visible"><path d="M2.308 0l-3.46 2v-4z" fill="#705697" fill-rule="evenodd" stroke="#705697" stroke-width=".5332"/></marker></defs><g aria-label="The word מחשב means computer" style="line-height:1.25" font-weight="400" font-size="4.233" font-family="sans-serif" letter-spacing="0" word-spacing="0" stroke-width=".265"><path d="M2.609.502h-1.1v2.714h-.41V.502H0V.138h2.609zM4.926 3.216h-.389V1.902q0-.16-.018-.298-.019-.14-.069-.22-.051-.086-.148-.127-.098-.044-.253-.044-.159 0-.332.079-.174.078-.333.2v1.724h-.389V0h.389v1.164q.182-.151.376-.236.194-.085.399-.085.374 0 .57.226.197.225.197.649zM7.607 2.102H5.906q0 .213.064.372.064.157.175.259.108.099.255.148.148.05.326.05.236 0 .474-.093.24-.095.34-.186h.021v.424q-.196.082-.4.138-.205.056-.43.056-.575 0-.898-.31-.322-.312-.322-.885 0-.566.308-.899.31-.333.814-.333.467 0 .72.273.254.273.254.775zm-.379-.297q-.002-.306-.155-.474-.15-.167-.46-.167-.313 0-.499.184-.184.184-.208.457zM12.588.907l-.601 2.31h-.36l-.593-1.78-.59 1.78h-.357L9.48.906h.405l.423 1.788.577-1.788h.32l.592 1.788.4-1.788zM15.116 2.063q0 .564-.289.89-.29.327-.775.327-.49 0-.78-.326-.287-.327-.287-.891 0-.564.288-.891.289-.329.779-.329.486 0 .775.329.29.327.29.89zm-.4 0q0-.449-.176-.666-.176-.219-.488-.219-.316 0-.492.22-.174.216-.174.665 0 .434.176.66.176.223.49.223.31 0 .486-.222.177-.223.177-.661zM17.16 1.331h-.02q-.087-.02-.17-.029-.08-.01-.192-.01-.18 0-.347.08-.167.08-.322.205v1.64h-.389V.906h.389v.342q.231-.187.407-.263.178-.079.362-.079.1 0 .146.007.046.004.137.018zM19.403 3.216h-.388v-.242q-.168.145-.35.226-.181.08-.394.08-.414 0-.658-.318-.241-.318-.241-.883 0-.293.082-.523.085-.229.228-.39.14-.157.326-.24.188-.083.389-.083.182 0 .322.04.14.037.296.117V0h.388zm-.388-.568V1.323q-.157-.07-.281-.097-.124-.027-.271-.027-.327 0-.509.227-.181.228-.181.645 0 .412.14.627.14.212.45.212.166 0 .336-.072.17-.074.316-.19zM29.559 1.939l-.34-.916h.387l.162.484q.097-.213.304-.36.206-.149.444-.149.252 0 .434.13.184.129.267.377.082.248.082.746v.965h-1.13v-.33h.731v-.643q0-.364-.024-.53-.023-.167-.122-.27-.097-.106-.246-.106-.232 0-.395.24-.161.238-.275.827l-.155.812h-.399l.174-.855q.024-.122.1-.422zM28.75 3.216h-.394V2.028q0-.242-.054-.38-.054-.139-.215-.222-.161-.084-.463-.084-.176 0-.393.028v1.846h-.394V1.071q.442-.073.812-.073.405 0 .651.12.248.118.35.317.1.198.1.554zM24.18 1.023l.009.356q.012.547.047.758.22 0 .395-.11.176-.109.176-.415l.043-.589h.397l-.05.69q-.012.176-.039.267-.027.091-.111.192-.083.102-.265.178-.18.075-.486.1.052.223.24.357.188.134.463.134.254 0 .436-.12.182-.121.269-.312.087-.192.116-.545l.089-.94h.396l-.074.812q-.043.456-.155.76t-.389.492q-.275.188-.71.188-.387 0-.65-.186-.26-.188-.39-.535-.129-.347-.129-.926l-.029-.606zM23.126 2.886h.35v.33h-2.098v-.33h1.353v-.749q0-.306-.068-.459-.068-.155-.248-.246-.178-.09-.556-.09-.134 0-.415.028l-.033-.326q.279-.046.593-.046.591 0 .856.257.266.256.266.777zM36.527 3.216h-.389V1.902q0-.15-.014-.288-.013-.138-.056-.22-.047-.09-.136-.135-.09-.046-.257-.046-.163 0-.326.083-.164.08-.327.207.006.047.01.111.005.062.005.124v1.478h-.389V1.902q0-.153-.014-.29-.013-.138-.056-.22-.048-.09-.137-.133-.089-.046-.256-.046-.16 0-.32.079-.16.078-.319.2v1.724h-.388V.907h.388v.257q.182-.151.362-.236.182-.085.387-.085.235 0 .398.1.166.099.246.274.236-.198.43-.285.195-.089.416-.089.38 0 .56.232.182.23.182.643zM39.208 2.102h-1.701q0 .213.064.372.064.157.176.259.107.099.254.148.149.05.326.05.236 0 .474-.093.24-.095.34-.186h.021v.424q-.196.082-.4.138-.205.056-.43.056-.575 0-.898-.31-.322-.312-.322-.885 0-.566.308-.899.31-.333.814-.333.468 0 .72.273.254.273.254.775zm-.378-.297q-.002-.306-.155-.474-.151-.167-.461-.167-.312 0-.498.184-.184.184-.21.457zM41.591 3.216h-.386V2.97l-.14.1q-.088.062-.17.099-.097.047-.224.078-.126.033-.295.033-.312 0-.53-.206-.216-.207-.216-.527 0-.263.111-.424.114-.163.323-.256.21-.093.506-.127.296-.033.635-.05v-.06q0-.131-.048-.218-.045-.087-.132-.137-.083-.047-.199-.064-.115-.016-.241-.016-.153 0-.341.041-.189.04-.39.116h-.02V.957q.114-.031.329-.068.215-.037.424-.037.244 0 .423.041.182.04.315.136.13.095.198.246t.068.375zm-.386-.568v-.643q-.178.01-.42.031-.24.02-.38.06-.168.048-.271.149-.103.099-.103.275 0 .198.12.3.12.099.365.099.205 0 .375-.079.169-.08.314-.192zM44.274 3.216h-.388V1.902q0-.16-.019-.298-.019-.14-.068-.22-.052-.086-.149-.127-.097-.044-.252-.044-.16 0-.333.079-.174.078-.333.2v1.724h-.388V.907h.388v.257q.182-.151.376-.236.195-.085.4-.085.374 0 .57.226.196.225.196.649zM46.672 2.55q0 .317-.262.52-.26.202-.714.202-.256 0-.47-.06-.214-.062-.358-.134v-.436h.02q.184.138.41.22.225.081.432.081.256 0 .4-.082.145-.083.145-.26 0-.137-.078-.207-.079-.07-.302-.12-.083-.019-.217-.044-.132-.024-.242-.053-.304-.081-.432-.236-.126-.157-.126-.384 0-.143.058-.27.06-.125.18-.225.115-.097.293-.152.18-.058.401-.058.207 0 .418.051.213.05.353.122v.416h-.02q-.15-.11-.362-.184-.213-.077-.418-.077-.213 0-.36.083-.146.08-.146.242 0 .142.089.215.086.072.28.118.108.024.24.05.135.024.224.045.27.062.417.213.147.153.147.405zM50.426 3.072q-.194.093-.37.144-.174.052-.37.052-.25 0-.459-.072-.209-.075-.358-.224-.15-.148-.233-.376-.083-.227-.083-.531 0-.566.31-.889.312-.322.823-.322.198 0 .388.056.193.055.352.136v.432h-.02q-.179-.139-.369-.213-.188-.074-.368-.074-.33 0-.523.223-.19.221-.19.651 0 .418.186.643.188.223.527.223.118 0 .24-.03.122-.032.22-.082.084-.043.158-.09.075-.05.118-.085h.02zM52.894 2.063q0 .564-.29.89-.289.327-.775.327-.49 0-.779-.326-.287-.327-.287-.891 0-.564.287-.891.29-.329.78-.329.485 0 .775.329.289.327.289.89zm-.401 0q0-.449-.176-.666-.175-.219-.488-.219-.316 0-.492.22-.173.216-.173.665 0 .434.175.66.176.223.49.223.31 0 .486-.222.178-.223.178-.661zM56.867 3.216h-.389V1.902q0-.15-.014-.288-.013-.138-.056-.22-.048-.09-.137-.135-.088-.046-.256-.046-.163 0-.326.083-.164.08-.327.207.006.047.01.111.004.062.004.124v1.478h-.388V1.902q0-.153-.015-.29-.012-.138-.055-.22-.048-.09-.137-.133-.089-.046-.256-.046-.16 0-.32.079-.16.078-.319.2v1.724h-.389V.907h.39v.257q.181-.151.36-.236.183-.085.387-.085.236 0 .4.1.165.099.245.274.236-.198.43-.285.195-.089.416-.089.38 0 .56.232.182.23.182.643zM59.647 2.034q0 .281-.08.515-.081.231-.228.392-.136.153-.322.238-.184.083-.391.083-.18 0-.327-.04-.144-.039-.295-.121v.967h-.389V.908h.389v.241q.155-.13.347-.217.194-.089.413-.089.418 0 .65.317.233.314.233.874zm-.401.01q0-.417-.143-.624-.142-.207-.438-.207-.167 0-.337.073-.17.072-.324.19v1.308q.165.075.283.102.12.026.27.026.325 0 .507-.219t.182-.649zM62.167 3.216h-.389V2.96q-.196.155-.376.238-.18.082-.397.082-.364 0-.566-.22-.203-.224-.203-.654V.907h.389v1.315q0 .176.016.302.017.124.07.213.056.09.145.132.09.041.259.041.15 0 .328-.078.18-.079.335-.2V.906h.389zM64.13 3.196q-.11.029-.24.047-.127.019-.229.019-.353 0-.537-.19-.184-.19-.184-.61V1.234h-.263V.907h.263V.244h.388v.663h.802v.327h-.802v1.052q0 .182.009.285.008.102.058.19.045.083.124.123.08.037.244.037.095 0 .198-.027.103-.03.149-.048h.02zM66.534 2.102h-1.7q0 .213.063.372.064.157.176.259.108.099.254.148.15.05.327.05.236 0 .473-.093.24-.095.341-.186h.021v.424q-.196.082-.401.138-.205.056-.43.056-.575 0-.897-.31-.323-.312-.323-.885 0-.566.308-.899.31-.333.815-.333.467 0 .72.273.253.273.253.775zm-.378-.297q-.002-.306-.155-.474-.15-.167-.46-.167-.313 0-.499.184-.184.184-.209.457zM68.564 1.331h-.02q-.087-.02-.17-.029-.08-.01-.192-.01-.18 0-.347.08-.168.08-.323.205v1.64h-.388V.906h.388v.342q.232-.187.407-.263.178-.079.362-.079.101 0 .147.007.045.004.136.018z"/><path d="M21.785 33.74h18.52" fill="#705697" stroke="#705697" marker-end="url(#a)" transform="translate(-21.114 -28.786)"/><path d="M52.212 33.74h-9.26" fill="#705697" stroke="#705697" marker-end="url(#b)" transform="translate(-21.114 -28.786)"/><path d="M54.857 33.74h34.396" transform="translate(-21.649 -28.786)" fill="#705697" stroke="#705697" marker-end="url(#c)"/><path d="M11.14 9.3H9.472v-.314h.641V6.923h-.64v-.28q.13 0 .278-.022.15-.022.226-.064.095-.051.149-.13.055-.08.064-.215h.32v2.774h.628z" aria-label="1" fill="#705697" stroke="#50c" stroke-width=".07"/><path d="M27.133 9.584H25.05v-.432l.435-.372q.219-.186.407-.37.397-.385.543-.61.147-.227.147-.49 0-.24-.159-.374-.157-.136-.44-.136-.188 0-.407.066-.22.066-.428.202h-.021v-.434q.147-.072.39-.132.247-.06.476-.06.473 0 .742.23.269.227.269.617 0 .176-.046.33-.043.15-.13.286-.08.129-.19.253-.108.124-.263.275-.22.217-.456.421-.236.203-.44.376h1.655z" aria-label="2" fill="#705697" stroke="#50c" stroke-width=".07"/><path d="M51.569 8.038q.1.089.163.223.064.134.064.347 0 .211-.076.387-.077.175-.215.306-.155.144-.366.215-.209.068-.459.068-.256 0-.504-.062-.248-.06-.408-.132v-.432h.031q.176.115.414.192.238.076.459.076.13 0 .277-.043.147-.044.237-.128.096-.091.141-.2.048-.11.048-.278 0-.165-.054-.273-.052-.11-.145-.171-.093-.064-.225-.087-.132-.025-.285-.025h-.186v-.343h.144q.314 0 .5-.13.189-.132.189-.385 0-.111-.048-.194-.048-.085-.132-.138-.09-.054-.19-.075-.102-.02-.23-.02-.196 0-.417.07-.222.07-.418.198h-.02v-.432q.146-.072.39-.132.246-.062.475-.062.226 0 .397.041.172.042.31.133.15.099.226.24.076.14.076.328 0 .256-.182.448-.18.19-.426.24v.03q.1.016.228.07.128.051.217.13z" aria-label="3" fill="#705697" stroke="#50c" stroke-width=".07"/></g></svg>