<svg xmlns="http://www.w3.org/2000/svg" height="15" width="80"><defs><clipPath id="a"><path d="M5 1.934h15v11.199H5z"/></clipPath><clipPath id="b"><path d="M4 1.934h17v11.199H4z"/></clipPath></defs><path transform="matrix(.9875 0 0 .93335 -167.875 -221.476)" d="M170.498 237.864h80v15h-80z" fill="#fff" stroke="#000" stroke-width="1.042"/><path d="M1.977 1.934h76.035v11.199H1.977z"/><path d="M1.977 1.945v11.2h20.078c1.293-1.633 2.164-3.532 2.164-5.598 0-2.055-.856-3.977-2.133-5.602z" fill="#abb0a8"/><g clip-path="url(#a)"><path d="M19.29 7.535c.003 3.488-2.99 6.32-6.685 6.324-3.695.004-6.69-2.828-6.695-6.32v-.004c0-3.492 2.992-6.324 6.688-6.328 3.695-.004 6.691 2.828 6.691 6.32v.008z" fill="#fff"/></g><g clip-path="url(#b)"><path d="M18.04 2.383c1.483 1.402 2.222 3.12 2.222 5.152 0 2.028-.727 3.727-2.184 5.094-1.547 1.437-3.379 2.156-5.488 2.156-2.082 0-3.88-.71-5.39-2.137-1.509-1.43-2.263-3.132-2.263-5.113 0-1.984.754-3.7 2.262-5.152C8.672.98 10.47.28 12.59.28c2.15 0 3.966.7 5.45 2.102zm-9.84.945C6.944 4.523 6.32 5.926 6.32 7.535c0 1.61.617 3 1.86 4.172 1.242 1.172 2.718 1.758 4.433 1.758 1.715 0 3.207-.59 4.473-1.777 1.203-1.098 1.805-2.485 1.805-4.153 0-1.656-.614-3.062-1.836-4.219-1.22-1.152-2.7-1.73-4.442-1.73-1.738 0-3.21.582-4.414 1.742zm3.3 3.5c-.191-.394-.48-.594-.86-.594-.68 0-1.015.43-1.015 1.293 0 .86.336 1.29 1.016 1.29.445 0 .765-.212.957-.63l.937.473c-.45.75-1.117 1.125-2.012 1.125-.691 0-1.242-.2-1.656-.597-.418-.403-.625-.954-.625-1.653 0-.691.215-1.238.64-1.644.43-.407.962-.61 1.602-.61.946 0 1.621.352 2.032 1.055zm4.41 0c-.191-.394-.473-.594-.844-.594-.691 0-1.035.43-1.035 1.293 0 .86.344 1.29 1.035 1.29.45 0 .762-.212.942-.63l.957.473c-.445.75-1.117 1.125-2.008 1.125-.687 0-1.238-.2-1.656-.597-.41-.403-.621-.954-.621-1.653 0-.691.21-1.238.633-1.644.421-.407.957-.61 1.605-.61.945 0 1.621.352 2.027 1.055z"/></g><path d="M29.05 6.902c.243 0 .427-.05.552-.152.128-.098.191-.246.191-.441 0-.192-.063-.34-.191-.438-.125-.105-.309-.156-.551-.156h-.852v1.187h.852m.054 2.45c.31 0 .54-.063.696-.184.156-.125.234-.309.234-.555 0-.242-.078-.425-.23-.547-.157-.12-.39-.183-.7-.183H28.2v1.469h.906m1.43-2.016c.328.09.586.258.766.5.183.242.273.539.273.89 0 .544-.195.946-.586 1.211-.386.262-.98.395-1.773.395h-2.55V4.734h2.308c.828 0 1.425.118 1.797.352.375.234.558.613.558 1.129 0 .273-.066.504-.203.7a1.22 1.22 0 01-.59.42m.906-2.6h1.68l1.36 1.995 1.359-1.996h1.683L35.25 7.973v2.359h-1.535v-2.36L31.44 4.735m5.254 2.844h2.508v1.09h-2.508v-1.09M44.56 4.91v1.184a5.816 5.816 0 00-.961-.309 4.02 4.02 0 00-.883-.105c-.367 0-.637.047-.813.14a.47.47 0 00-.265.446c0 .148.058.265.175.351.122.082.336.153.649.211l.652.125c.664.125 1.137.317 1.418.57.278.254.418.618.418 1.09 0 .617-.195 1.078-.586 1.38-.39.3-.984.448-1.789.448-.375 0-.758-.03-1.136-.101a7.28 7.28 0 01-1.145-.3V8.82c.383.192.75.336 1.105.434.356.094.7.14 1.032.14.332 0 .59-.05.77-.156a.49.49 0 00.265-.449c0-.176-.059-.312-.184-.406-.117-.094-.36-.18-.722-.254l-.594-.125c-.598-.121-1.035-.313-1.313-.574-.273-.262-.41-.618-.41-1.063 0-.555.192-.984.574-1.285.383-.3.938-.45 1.657-.45.328 0 .664.024 1.011.071.344.047.703.113 1.075.207m5.367 4.402H47.52l-.38 1.02h-1.546L47.8 4.734h1.836l2.21 5.598h-1.546l-.375-1.02m-2.024-1.039h1.633l-.812-2.226-.82 2.226" fill="#fff"/></svg>