<svg xmlns="http://www.w3.org/2000/svg" viewBox="0 0 46.302 46.302" height="175" width="175"><path d="M2.646 0h41.01a2.64 2.64 0 012.646 2.646v41.01a2.64 2.64 0 01-2.646 2.646H2.646A2.64 2.64 0 010 43.656V2.646A2.64 2.64 0 012.646 0z" opacity=".99" fill="#ececfb"/><g fill="none" stroke="#3d3d55" stroke-width="2.646"><path d="M3.969 10.583V3.97h6.614M3.969 14.552v6.615M3.969 25.135v6.615M10.583 42.333H3.97V35.72M42.333 10.583V3.97H35.72M42.333 14.552v6.615M42.333 25.135v6.615M35.719 42.333h6.614V35.72M14.552 3.969h6.615M25.135 3.969h6.615M14.552 42.333h6.615M25.135 42.333h6.615"/></g><path d="M10.52 10.52h25.261v25.261h-25.26z" style="line-height:1.25;-inkscape-font-specification:'Spin Cycle OT'" font-weight="400" font-size="11.289" font-family="Spin Cycle OT" letter-spacing="0" word-spacing="0" opacity=".99" fill="none" stroke="#3d3d55" stroke-width="2.52" stroke-linecap="round"/><path d="M15.875 15.875h14.552v14.552H15.875z" style="line-height:1.25;-inkscape-font-specification:'Spin Cycle OT'" font-weight="400" font-size="11.289" font-family="Spin Cycle OT" letter-spacing="0" word-spacing="0" opacity=".99" fill="#c7a6e7"/></svg>