<svg xmlns="http://www.w3.org/2000/svg" viewBox="0 0 172.918 80.705" height="305.025" width="653.55"><path d="M57.016.53h58.456c1.28 0 2.31 1.03 2.31 2.309v75.027c0 1.28-1.03 2.31-2.31 2.31H57.016c-1.28 0-2.31-1.03-2.31-2.31V2.839c0-1.28 1.03-2.31 2.31-2.31z" fill="none" stroke="#3d3d55" stroke-width=".529" stroke-linecap="round"/><path d="M64.155 7.408h44.592c.296 0 .535.239.535.535v2.9a.534.534 0 01-.535.534H64.155a.534.534 0 01-.535-.535V7.943c0-.296.238-.535.535-.535zM63.871 16.14h45.16a.25.25 0 01.25.25v1.352a.25.25 0 01-.25.25H63.87a.25.25 0 01-.25-.25v-1.353a.25.25 0 01.25-.25zM63.871 22.754h45.16a.25.25 0 01.25.25v1.353a.25.25 0 01-.25.25H63.87a.25.25 0 01-.25-.25v-1.353a.25.25 0 01.25-.25zM63.871 29.369h45.16a.25.25 0 01.25.25v1.352a.25.25 0 01-.25.25H63.87a.25.25 0 01-.25-.25v-1.353a.25.25 0 01.25-.25z" fill="#3d3d55"/><path d="M63.842 36.126h45.218a.21.21 0 01.211.211v1.145a.21.21 0 01-.21.211H63.84a.21.21 0 01-.21-.211v-1.145a.21.21 0 01.21-.211z" fill="#ffec64" fill-opacity=".98" stroke="#374047" stroke-width=".285" stroke-linecap="round"/><path d="M63.871 42.598H90.55a.25.25 0 01.25.25V44.2a.25.25 0 01-.25.25H63.87a.25.25 0 01-.25-.25v-1.352a.25.25 0 01.25-.25zM64.035 52.777h44.592c.296 0 .535.24.535.535v2.9a.534.534 0 01-.535.534H64.035a.534.534 0 01-.535-.535v-2.899c0-.296.238-.535.535-.535zM63.61 61.585h45.16a.25.25 0 01.249.25v1.353a.25.25 0 01-.25.25H63.61a.25.25 0 01-.249-.25v-1.353a.25.25 0 01.25-.25zM63.67 68.806H90.35a.25.25 0 01.25.25v1.352a.25.25 0 01-.25.25H63.67a.25.25 0 01-.25-.25v-1.353a.25.25 0 01.25-.25z" fill="#3d3d55"/><path d="M113.887 35.477s3.907-7.502 3.782-7.616c-2.307-2.103-3.62-4.52-3.62-7.091 0-8.11 13.06-14.685 29.17-14.685s29.17 6.575 29.17 14.685-13.06 14.684-29.17 14.684c-6.667 0-12.812-1.126-17.725-3.02z" fill="#f9f9fa" stroke="#3d3d55" stroke-width=".529" stroke-linecap="round"/></svg>